<svg width="371" height="347" viewBox="0 0 371 347" fill="none" xmlns="http://www.w3.org/2000/svg">
    <path d="M228 5.19629C232.196 2.77363 237.336 2.69761 241.591 4.96875L242 5.19629L289.354 32.5361C293.685 35.037 296.353 39.6585 296.354 44.6602V99.3398C296.353 104.185 293.85 108.674 289.755 111.224L289.354 111.464L242 138.804C237.804 141.226 232.664 141.302 228.409 139.031L228 138.804L180.646 111.464C176.315 108.963 173.647 104.342 173.646 99.3398V44.6602C173.647 39.8147 176.15 35.3258 180.245 32.7764L180.646 32.5361L228 5.19629Z" stroke="#FFCC00" stroke-width="2"/>
    <path d="M119.271 65.7924C128.695 60.3516 140.305 60.3516 149.729 65.7924L235.752 115.458C245.175 120.898 250.98 130.953 250.98 141.835V241.165C250.98 252.047 245.175 262.102 235.752 267.542L149.729 317.208C140.305 322.648 128.695 322.648 119.271 317.208L33.2484 267.542C23.8248 262.102 18.0196 252.047 18.0196 241.165V141.835C18.0196 130.953 23.8248 120.898 33.2484 115.458L119.271 65.7924Z" fill="#492E98"/>
    <path d="M284 346.994C282.229 346.994 280.435 346.936 278.664 346.832L283.235 271.34C283.753 271.375 284.282 271.375 284.799 271.34L289.514 346.826C287.686 346.942 285.834 347 284.006 347L284 346.994ZM267.826 345.478C264.244 344.796 260.667 343.882 257.2 342.748L280.355 270.797C280.809 270.947 281.28 271.063 281.752 271.155L267.826 345.478ZM300.341 345.444L286.265 271.149C286.737 271.057 287.203 270.935 287.657 270.791L310.966 342.695C307.499 343.835 303.923 344.755 300.341 345.444ZM247.006 338.698C243.729 337.147 240.509 335.365 237.438 333.409L277.687 269.535C278.112 269.807 278.555 270.05 279.003 270.264L247.006 338.703V338.698ZM321.132 338.634L289.031 270.241C289.468 270.033 289.894 269.796 290.302 269.535L330.717 333.305C327.647 335.278 324.421 337.066 321.126 338.634H321.132ZM228.601 326.947C225.818 324.632 223.15 322.116 220.666 319.46L275.375 267.597C275.726 267.973 276.106 268.326 276.491 268.65L228.601 326.941V326.947ZM339.485 326.877L291.561 268.61C291.935 268.303 292.291 267.962 292.625 267.603L347.46 319.333C344.965 322.006 342.286 324.546 339.485 326.877ZM213.697 311.013C211.564 308.068 209.586 304.955 207.833 301.762L273.61 265.161C273.852 265.601 274.122 266.029 274.415 266.428L213.697 311.013ZM354.383 310.903L293.608 266.399C293.895 266.006 294.16 265.589 294.396 265.15L360.254 301.611C358.5 304.816 356.528 307.947 354.389 310.903H354.383ZM203.152 291.793C201.807 288.385 200.663 284.856 199.754 281.309L272.546 262.459C272.667 262.928 272.817 263.391 272.995 263.848L203.152 291.793ZM364.922 291.619L295.011 263.842C295.195 263.379 295.35 262.899 295.471 262.419L368.292 281.153C367.389 284.694 366.256 288.217 364.922 291.619ZM197.696 270.525C197.241 266.92 197.006 263.24 197 259.595L272.161 259.451C272.161 259.966 272.196 260.481 272.259 260.984L197.696 270.525ZM370.327 270.334L295.741 260.972C295.804 260.463 295.839 259.943 295.839 259.422L371 259.219V259.422C371 263.061 370.776 266.729 370.327 270.334ZM272.253 257.906L197.655 248.684C198.098 245.039 198.777 241.394 199.674 237.847L272.523 256.465C272.408 256.928 272.316 257.414 272.259 257.9L272.253 257.906ZM295.735 257.831C295.672 257.339 295.58 256.847 295.454 256.373L368.2 237.344C369.114 240.879 369.816 244.512 370.281 248.146L295.735 257.837V257.831ZM272.972 255.054L203.026 227.363C204.36 223.956 205.924 220.6 207.672 217.389L273.593 253.717C273.357 254.145 273.15 254.597 272.972 255.054ZM294.999 254.978C294.821 254.527 294.608 254.082 294.367 253.648L360.087 216.943C361.852 220.149 363.433 223.487 364.784 226.877L294.999 254.978ZM274.398 252.433L213.49 208.114C215.612 205.164 217.941 202.317 220.419 199.644L275.358 251.264C275.007 251.64 274.685 252.034 274.398 252.439V252.433ZM293.556 252.369C293.269 251.97 292.947 251.588 292.607 251.224L347.213 199.251C349.714 201.912 352.066 204.753 354.211 207.698L293.556 252.369ZM276.468 250.211L228.336 192.123C231.125 189.785 234.092 187.598 237.151 185.625L277.658 249.337C277.244 249.604 276.842 249.899 276.468 250.211ZM291.521 250.199C291.118 249.864 290.693 249.557 290.262 249.285L330.435 185.359C333.483 187.297 336.444 189.45 339.238 191.764L291.521 250.199ZM278.946 248.614L246.713 180.285C250.007 178.711 253.428 177.334 256.878 176.195L280.303 248.065C279.849 248.215 279.394 248.4 278.946 248.614ZM288.951 248.562C288.525 248.36 288.088 248.186 287.64 248.041L310.616 176.027C314.1 177.155 317.55 178.52 320.862 180.083L288.951 248.562ZM281.694 247.7L267.492 173.429C271.04 172.741 274.674 172.272 278.29 172.035L283.207 247.503C282.695 247.538 282.189 247.602 281.694 247.7ZM286.225 247.683C285.736 247.59 285.236 247.527 284.742 247.498L289.163 172C292.786 172.214 296.431 172.66 299.996 173.331L286.231 247.688L286.225 247.683Z" fill="#93F993"/>
</svg>
