<svg width="28" height="28" viewBox="0 0 28 28" fill="none" xmlns="http://www.w3.org/2000/svg">
<circle cx="14" cy="14" r="14" fill="#492E98"/>
<mask id="mask0_8873_4663" style="mask-type:alpha" maskUnits="userSpaceOnUse" x="2" y="2" width="24" height="24">
<rect x="2.80859" y="2.79785" width="22.4" height="22.4" fill="#D9D9D9"/>
</mask>
<g mask="url(#mask0_8873_4663)">
<path d="M20.5464 22.2039C19.9397 22.2039 19.3952 22.0297 18.913 21.6814C18.4308 21.333 18.0964 20.8879 17.9097 20.346H13.0797C12.053 20.346 11.1741 19.9821 10.443 19.2544C9.71191 18.5267 9.34635 17.652 9.34635 16.6301C9.34635 15.6082 9.71191 14.7334 10.443 14.0057C11.1741 13.278 12.053 12.9142 13.0797 12.9142H14.9464C15.4597 12.9142 15.8991 12.7323 16.2647 12.3684C16.6302 12.0046 16.813 11.5672 16.813 11.0563C16.813 10.5453 16.6302 10.1079 16.2647 9.74408C15.8991 9.38023 15.4597 9.19831 14.9464 9.19831H10.1164C9.91413 9.74021 9.5758 10.1853 9.10135 10.5337C8.62691 10.8821 8.08635 11.0563 7.47969 11.0563C6.70191 11.0563 6.0408 10.7853 5.49635 10.2434C4.95191 9.7015 4.67969 9.04348 4.67969 8.26934C4.67969 7.49519 4.95191 6.83717 5.49635 6.29527C6.0408 5.75337 6.70191 5.48242 7.47969 5.48242C8.08635 5.48242 8.62691 5.6566 9.10135 6.00497C9.5758 6.35333 9.91413 6.79847 10.1164 7.34037H14.9464C15.973 7.34037 16.8519 7.70421 17.583 8.43191C18.3141 9.1596 18.6797 10.0344 18.6797 11.0563C18.6797 12.0781 18.3141 12.9529 17.583 13.6806C16.8519 14.4083 15.973 14.7721 14.9464 14.7721H13.0797C12.5664 14.7721 12.1269 14.9541 11.7614 15.3179C11.3958 15.6818 11.213 16.1192 11.213 16.6301C11.213 17.141 11.3958 17.5784 11.7614 17.9423C12.1269 18.3061 12.5664 18.488 13.0797 18.488H17.9097C18.1119 17.9461 18.4502 17.501 18.9247 17.1526C19.3991 16.8043 19.9397 16.6301 20.5464 16.6301C21.3241 16.6301 21.9852 16.901 22.5297 17.4429C23.0741 17.9848 23.3464 18.6429 23.3464 19.417C23.3464 20.1911 23.0741 20.8492 22.5297 21.3911C21.9852 21.933 21.3241 22.2039 20.5464 22.2039ZM7.47969 9.19831C7.74413 9.19831 7.9658 9.10928 8.14469 8.93123C8.32358 8.75318 8.41302 8.53255 8.41302 8.26934C8.41302 8.00613 8.32358 7.7855 8.14469 7.60745C7.9658 7.42939 7.74413 7.34037 7.47969 7.34037C7.21524 7.34037 6.99358 7.42939 6.81469 7.60745C6.6358 7.7855 6.54635 8.00613 6.54635 8.26934C6.54635 8.53255 6.6358 8.75318 6.81469 8.93123C6.99358 9.10928 7.21524 9.19831 7.47969 9.19831Z" fill="white"/>
</g>
</svg>
