<svg width="157" height="143" viewBox="0 0 157 143" fill="none" xmlns="http://www.w3.org/2000/svg">
<rect x="24.2526" y="36.6753" width="45.2398" height="22.3407" transform="rotate(-30 24.2526 36.6753)" fill="#7E73FF"/>
<rect x="43.5152" y="42.113" width="45.2398" height="22.3407" transform="rotate(90 43.5152 42.113)" fill="#7E73FF"/>
<path fill-rule="evenodd" clip-rule="evenodd" d="M27.5148 42.1129L35.5149 55.9696L43.5151 51.3506L43.5151 42.1129L27.5148 42.1129Z" fill="#492E98"/>
<rect width="45.2398" height="22.3407" transform="matrix(0.866025 0.5 0.5 -0.866025 58.6014 33.4028)" fill="#7E73FF"/>
<rect width="45.2398" height="22.3407" transform="matrix(0.866025 -0.5 -0.5 -0.866025 70.0494 115.998)" fill="#7E73FF"/>
<rect width="45.2398" height="22.3407" transform="matrix(-0.866025 -0.5 -0.5 0.866025 74.9715 96.5969)" fill="#7E73FF"/>
<path fill-rule="evenodd" clip-rule="evenodd" d="M66.6018 19.5462L74.602 33.403L66.6018 38.0219L58.6016 33.403L66.6018 19.5462Z" fill="#492E98"/>
<path fill-rule="evenodd" clip-rule="evenodd" d="M66.9712 110.454L58.971 96.597L66.9712 91.9781L74.9714 96.597L66.9712 110.454Z" fill="#492E98"/>
<rect x="90.0577" y="87.887" width="45.2398" height="22.3407" transform="rotate(-90 90.0577 87.887)" fill="#7E73FF"/>
<path fill-rule="evenodd" clip-rule="evenodd" d="M106.058 87.8868L98.058 74.0302L90.0578 78.6491L90.0578 87.8868L106.058 87.8868Z" fill="#492E98"/>
<path fill-rule="evenodd" clip-rule="evenodd" d="M43.5191 78.4332L35.7965 73.9746L28.0739 87.3506L43.5191 87.3506L43.5191 78.4332Z" fill="#492E98"/>
<path fill-rule="evenodd" clip-rule="evenodd" d="M105.528 42.6325L90.0829 42.6325L90.0829 51.5497L97.8054 56.0083L105.528 42.6325Z" fill="#492E98"/>
<path d="M54.5381 72.2073C53.3942 72.2073 52.3993 72.0286 51.5534 71.6711C50.7193 71.3137 50.058 70.7775 49.5695 70.0626C49.0929 69.3358 48.8367 68.4362 48.801 67.3638C48.7891 66.8634 48.7831 66.3511 48.7831 65.8268C48.7831 65.2906 48.7891 64.7604 48.801 64.2361C48.8367 63.1757 49.0929 62.2821 49.5695 61.5553C50.058 60.8284 50.7253 60.2804 51.5712 59.911C52.4172 59.5297 53.4061 59.3391 54.5381 59.3391C55.6581 59.3391 56.6411 59.5297 57.487 59.911C58.333 60.2804 59.0002 60.8284 59.4888 61.5553C59.9773 62.2821 60.2335 63.1757 60.2573 64.2361C60.2811 64.7604 60.293 65.2906 60.293 65.8268C60.293 66.3511 60.2811 66.8634 60.2573 67.3638C60.2215 68.4362 59.9594 69.3358 59.4709 70.0626C58.9943 70.7775 58.333 71.3137 57.487 71.6711C56.653 72.0286 55.67 72.2073 54.5381 72.2073ZM54.5381 69.169C55.0385 69.169 55.4496 69.02 55.7713 68.7221C56.093 68.4124 56.2598 67.9238 56.2717 67.2566C56.2955 66.7443 56.3075 66.2498 56.3075 65.7732C56.3075 65.2847 56.2955 64.7902 56.2717 64.2898C56.2598 63.8489 56.1764 63.4855 56.0215 63.1995C55.8785 62.9136 55.676 62.7051 55.4138 62.574C55.1636 62.4429 54.8717 62.3774 54.5381 62.3774C54.2045 62.3774 53.9066 62.4429 53.6444 62.574C53.3823 62.7051 53.1738 62.9136 53.0189 63.1995C52.8759 63.4855 52.7985 63.8489 52.7866 64.2898C52.7746 64.7902 52.7687 65.2847 52.7687 65.7732C52.7687 66.2498 52.7746 66.7443 52.7866 67.2566C52.8104 67.9238 52.9772 68.4124 53.287 68.7221C53.6087 69.02 54.0257 69.169 54.5381 69.169ZM62.5908 72.0286C62.4716 72.0286 62.3644 71.9869 62.2691 71.9035C62.1737 71.8081 62.1261 71.6949 62.1261 71.5639V59.9825C62.1261 59.8514 62.1737 59.7442 62.2691 59.6608C62.3644 59.5655 62.4716 59.5178 62.5908 59.5178H71.3483C71.4794 59.5178 71.5926 59.5655 71.6879 59.6608C71.7832 59.7442 71.8309 59.8514 71.8309 59.9825V62.0914C71.8309 62.2106 71.7832 62.3178 71.6879 62.4131C71.5926 62.5085 71.4794 62.5561 71.3483 62.5561H65.8257V64.3255H70.9551C71.0862 64.3255 71.1994 64.3732 71.2947 64.4685C71.39 64.5519 71.4377 64.6591 71.4377 64.7902V66.7204C71.4377 66.8515 71.39 66.9647 71.2947 67.06C71.1994 67.1434 71.0862 67.1851 70.9551 67.1851H65.8257V68.9902H71.4913C71.6223 68.9902 71.7355 69.0379 71.8309 69.1332C71.9262 69.2285 71.9738 69.3417 71.9738 69.4728V71.5639C71.9738 71.6949 71.9262 71.8081 71.8309 71.9035C71.7355 71.9869 71.6223 72.0286 71.4913 72.0286H62.5908ZM74.2673 72.0286C74.1481 72.0286 74.0409 71.9869 73.9455 71.9035C73.8502 71.8081 73.8026 71.6949 73.8026 71.5639V59.9825C73.8026 59.8514 73.8502 59.7442 73.9455 59.6608C74.0409 59.5655 74.1481 59.5178 74.2673 59.5178H79.9686C81.0529 59.5178 81.9405 59.6608 82.6316 59.9467C83.3227 60.2327 83.835 60.6438 84.1686 61.1799C84.5023 61.7161 84.6691 62.3774 84.6691 63.1638C84.6691 63.5689 84.5857 63.9323 84.4188 64.254C84.264 64.5638 84.0733 64.8259 83.8469 65.0404C83.6205 65.243 83.4061 65.3919 83.2035 65.4872C83.6682 65.6898 84.0733 66.0353 84.4188 66.5238C84.7644 67.0004 84.9372 67.5485 84.9372 68.1681C84.9372 69.0021 84.7465 69.7051 84.3652 70.2771C83.9959 70.849 83.4537 71.2839 82.7388 71.5818C82.0358 71.8796 81.172 72.0286 80.1473 72.0286H74.2673ZM77.6452 69.3298H79.7362C80.1414 69.3298 80.4392 69.2107 80.6299 68.9724C80.8205 68.7221 80.9158 68.4481 80.9158 68.1502C80.9158 67.8404 80.8146 67.5723 80.612 67.346C80.4094 67.1077 80.1175 66.9885 79.7362 66.9885H77.6452V69.3298ZM77.6452 64.3612H79.5575C79.9388 64.3612 80.2188 64.254 80.3975 64.0395C80.5763 63.8251 80.6656 63.5749 80.6656 63.2889C80.6656 63.0029 80.5763 62.7527 80.3975 62.5383C80.2188 62.3238 79.9388 62.2165 79.5575 62.2165H77.6452V64.3612Z" fill="#323232"/>
<path d="M111.168 61.2125C113.539 59.8434 116.461 59.8434 118.832 61.2125L147.541 77.7875C149.912 79.1566 151.373 81.6868 151.373 84.4249V117.575C151.373 120.313 149.912 122.843 147.541 124.212L118.832 140.788C116.461 142.157 113.539 142.157 111.168 140.788L82.4591 124.212C80.0877 122.843 78.6269 120.313 78.6269 117.575V84.4249C78.6269 81.6868 80.0877 79.1566 82.4591 77.7875L111.168 61.2125Z" fill="#93F993"/>
</svg>
