<svg width="139" height="138" viewBox="0 0 139 138" fill="none" xmlns="http://www.w3.org/2000/svg">
<g filter="url(#filter0_d_8161_16920)">
<path d="M53.6442 115.883C49.9376 114.527 47.7359 110.791 48.4076 106.999C49.0481 103.382 47.6748 99.5901 44.827 97.104C41.977 94.6179 38.0382 93.7779 34.5512 94.9098C30.9026 96.0937 26.9083 94.4294 25.0557 90.9515C22.7395 86.6059 21.0583 81.9942 20.059 77.2425C19.2547 73.4169 21.3264 69.785 24.9861 68.6091C28.4796 67.4852 31.0457 64.5423 31.6804 60.9266C32.314 57.3122 30.9325 53.5212 28.0719 51.0367C25.0764 48.4323 24.3841 44.2088 26.4254 40.9937C28.9623 36.9995 32.0812 33.4171 35.7007 30.3443C38.5978 27.8853 42.8643 27.9923 45.847 30.5982C48.6986 33.0901 52.6345 33.9385 56.1194 32.8113C59.6068 31.684 62.163 28.7343 62.7939 25.1152C63.4548 21.3209 66.7619 18.7662 70.6566 19.0409C73.056 19.2085 75.4787 19.5534 77.8578 20.0633C80.2381 20.5743 82.6023 21.2555 84.883 22.09C88.5895 23.4458 90.7913 27.1821 90.1195 30.9732C89.4779 34.5914 90.8511 38.3814 93.7024 40.8686C96.5525 43.3547 100.49 44.1959 103.978 43.0627C107.626 41.8777 111.619 43.5433 113.473 47.02C115.789 51.3656 117.47 55.9772 118.469 60.729C119.275 64.5557 117.202 68.1864 113.542 69.3623C110.049 70.4862 107.483 73.4292 106.848 77.0448C106.214 80.6592 107.596 84.4502 110.456 86.9348C113.452 89.5391 114.144 93.7627 112.103 96.9777C110.68 99.2191 109.073 101.332 107.297 103.297C105.908 104.833 104.417 106.28 102.829 107.628C99.9316 110.087 95.6652 109.98 92.6825 107.374C89.8298 104.884 85.8939 104.035 82.4089 105.163C78.9216 106.29 76.3654 109.24 75.7345 112.859C75.0747 116.652 71.7676 119.206 67.8718 118.933C65.4711 118.764 63.0484 118.419 60.6693 117.909C58.2903 117.399 55.9261 116.718 53.6442 115.883Z" fill="#492E98"/>
<ellipse cx="68.6224" cy="69.4331" rx="17.9456" ry="18.7198" transform="rotate(-47.889 68.6224 69.4331)" fill="#F1F0FF"/>
<path d="M61.3818 78.8649C61.2003 78.8611 61.0357 78.7942 60.8878 78.6641C60.7395 78.5158 60.6633 78.3419 60.6591 78.1422L60.2877 60.5007C60.2835 60.3011 60.3527 60.1392 60.4952 60.0152C60.6373 59.8731 60.7992 59.8039 60.9807 59.8077L69.6653 59.9898C71.3169 60.0244 72.6737 60.2705 73.7355 60.7282C74.7974 61.1858 75.591 61.8284 76.1164 62.6558C76.6418 63.4831 76.9171 64.4958 76.9423 65.6937C76.9553 66.3108 76.8399 66.8617 76.5961 67.3464C76.3701 67.8133 76.0881 68.2065 75.7502 68.526C75.4118 68.8273 75.0899 69.0473 74.7844 69.1861C75.4987 69.5095 76.1269 70.0487 76.6689 70.8039C77.2106 71.5409 77.4913 72.3813 77.5112 73.3251C77.5379 74.5956 77.2701 75.6603 76.7076 76.5194C76.1633 77.3788 75.3514 78.0239 74.272 78.4548C73.2107 78.8861 71.8996 79.0854 70.3388 79.0527L61.3818 78.8649ZM66.4408 74.8619L69.626 74.9286C70.2431 74.9416 70.6931 74.7696 70.9758 74.4127C71.2582 74.0376 71.3946 73.6232 71.385 73.1695C71.3751 72.6976 71.2122 72.286 70.8964 71.9347C70.5802 71.5652 70.1318 71.3744 69.551 71.3622L66.3657 71.2954L66.4408 74.8619ZM66.2814 67.2934L69.1945 67.3545C69.7753 67.3667 70.1983 67.2123 70.4637 66.8913C70.7291 66.5703 70.8572 66.192 70.848 65.7564C70.8388 65.3208 70.6947 64.9368 70.4156 64.6044C70.1364 64.272 69.7065 64.0997 69.1257 64.0875L66.2127 64.0265L66.2814 67.2934Z" fill="black"/>
</g>
<defs>
<filter id="filter0_d_8161_16920" x="13.7787" y="19.0206" width="110.971" height="112.148" filterUnits="userSpaceOnUse" color-interpolation-filters="sRGB">
<feFlood flood-opacity="0" result="BackgroundImageFix"/>
<feColorMatrix in="SourceAlpha" type="matrix" values="0 0 0 0 0 0 0 0 0 0 0 0 0 0 0 0 0 0 127 0" result="hardAlpha"/>
<feOffset dy="6.10779"/>
<feGaussianBlur stdDeviation="3.05389"/>
<feComposite in2="hardAlpha" operator="out"/>
<feColorMatrix type="matrix" values="0 0 0 0 0 0 0 0 0 0 0 0 0 0 0 0 0 0 0.15 0"/>
<feBlend mode="normal" in2="BackgroundImageFix" result="effect1_dropShadow_8161_16920"/>
<feBlend mode="normal" in="SourceGraphic" in2="effect1_dropShadow_8161_16920" result="shape"/>
</filter>
</defs>
</svg>
