<svg width="152" height="137" viewBox="0 0 152 137" fill="none" xmlns="http://www.w3.org/2000/svg">
<rect x="30.2109" width="126" height="105" rx="5" transform="rotate(16.2483 30.2109 0)" fill="#492E98"/>
<rect x="28.4531" y="20.3203" width="118" height="81" rx="5" transform="rotate(16.2483 28.4531 20.3203)" fill="white"/>
<path d="M99.0219 82.4491L95.0445 81.2899L98.1356 70.6835C98.9857 67.7668 97.2948 64.6849 94.378 63.8348L83.7717 60.7437L84.9308 56.7663C85.9973 53.1071 83.893 49.2718 80.2338 48.2054C76.5746 47.1389 72.7393 49.2432 71.6729 52.9024L70.5137 56.8798L59.9074 53.7886C56.9906 52.9386 53.9352 54.6372 53.0851 57.554L50.1486 67.63L54.0994 68.7815C58.0503 69.9329 60.3237 74.0764 59.1722 78.0273C58.0208 81.9781 53.8773 84.2515 49.9264 83.1001L45.949 81.9409L43.0125 92.0169C42.1624 94.9337 43.8533 98.0156 46.7701 98.8657L56.8461 101.802L58.0053 97.8248C59.1567 93.874 63.3002 91.6006 67.2511 92.7521C71.202 93.9035 73.4753 98.047 72.3239 101.998L71.1647 105.975L81.2407 108.912C84.1575 109.762 87.2394 108.071 88.0895 105.154L91.1806 94.5478L95.158 95.707C98.8172 96.7735 102.652 94.6692 103.719 91.01C104.785 87.3508 102.681 83.5155 99.0219 82.4491Z" fill="#492E98"/>
<circle cx="38.3773" cy="13.8774" r="4" transform="rotate(16.2483 38.3773 13.8774)" fill="white"/>
<circle cx="48.9398" cy="16.9555" r="4" transform="rotate(16.2483 48.9398 16.9555)" fill="white"/>
<circle cx="59.5023" cy="20.0337" r="4" transform="rotate(16.2483 59.5023 20.0337)" fill="white"/>
</svg>
