<svg width="121" height="127" viewBox="0 0 121 127" fill="none" xmlns="http://www.w3.org/2000/svg">
<circle cx="60.5" cy="61.9336" r="60.5" fill="#492E98"/>
<path d="M49.6133 74.2281C49.0982 74.09 48.6905 73.8083 48.3904 73.3828C48.1076 72.8929 48.0352 72.3903 48.1732 71.8752C48.2768 71.4888 48.3803 71.1024 48.4838 70.7161C48.5874 70.3297 48.6823 69.9755 48.7685 69.6535C49.7588 67.5032 51.0429 65.6732 52.6207 64.1635C54.2802 62.6066 56.0576 61.2539 57.9528 60.1052C59.9123 58.9739 61.7817 57.9218 63.5607 56.9491C65.3397 55.9764 66.8848 54.9756 68.1958 53.9465C69.5884 52.8702 70.4981 51.6646 70.9249 50.3296C71.4333 48.9474 71.4627 47.6784 71.0132 46.5227C70.6281 45.3842 69.8928 44.3935 68.8073 43.5505C67.7862 42.7248 66.5995 42.1307 65.2472 41.7684C62.6714 41.0782 60.4791 41.1464 58.6701 41.9731C56.8612 42.7997 55.3156 44.3181 54.0332 46.5282C53.6502 47.1847 53.1729 47.678 52.6014 48.008C52.0471 48.2736 51.3192 48.2856 50.4177 48.044L38.6334 44.8864C37.9894 44.7139 37.5025 44.3419 37.1725 43.7703C36.8597 43.1344 36.8069 42.43 37.014 41.6573C37.7685 39.0987 39.0532 36.7512 40.868 34.6148C42.7472 32.4956 45.0811 30.7399 47.8699 29.3475C50.7402 27.9081 54.0372 27.066 57.7607 26.8214C61.5015 26.5124 65.6257 26.9618 70.1333 28.1696C74.963 29.4637 78.8002 31.1131 81.6449 33.1176C84.5541 35.1395 86.66 37.3257 87.9627 39.6763C89.3298 42.0441 90.115 44.3941 90.3183 46.7262C90.5389 48.9939 90.3755 51.0206 89.8279 52.8064C89.078 55.0902 88.0342 57.0536 86.6967 58.6967C85.3592 60.3399 83.8308 61.7938 82.1116 63.0586C80.4739 64.2763 78.7483 65.4358 76.9348 66.5373C75.2029 67.5917 73.559 68.7041 72.003 69.8746C70.4643 70.9807 69.1895 72.261 68.1786 73.7156C67.929 74.1319 67.6794 74.5481 67.4298 74.9644C67.1975 75.3163 66.9888 75.7089 66.8036 76.1425C66.1929 76.8761 65.6018 77.4079 65.0303 77.7378C64.5404 78.0207 63.909 78.0586 63.1363 77.8515L49.6133 74.2281ZM44.3196 94.7575C43.6112 94.5677 43.092 94.187 42.7621 93.6154C42.4493 92.9795 42.3792 92.3395 42.5518 91.6956L45.5023 80.684C45.6749 80.0401 46.0469 79.5531 46.6185 79.2231C47.2073 78.8288 47.8558 78.7265 48.5642 78.9163L60.928 82.2292C61.6364 82.419 62.1469 82.8318 62.4597 83.4678C62.854 84.0566 62.9649 84.6729 62.7924 85.3169L59.8419 96.3285C59.6693 96.9724 59.2564 97.4829 58.6032 97.8601C58.0317 98.19 57.3918 98.2601 56.6834 98.0703L44.3196 94.7575Z" fill="white"/>
</svg>
