<svg width="653" height="384" viewBox="0 0 653 384" fill="none" xmlns="http://www.w3.org/2000/svg">
<rect x="2.5" y="2.5" width="647.488" height="379" fill="#ECFEED" stroke="#492E98" stroke-width="5"/>
<path d="M226.601 130.24C224.921 130.24 223.521 130.008 222.401 129.544C221.297 129.064 220.465 128.448 219.905 127.696C219.361 126.928 219.073 126.12 219.041 125.272C219.041 125.128 219.089 125.008 219.185 124.912C219.281 124.816 219.401 124.768 219.545 124.768H223.361C223.585 124.768 223.761 124.808 223.889 124.888C224.017 124.952 224.153 125.048 224.297 125.176C224.441 125.352 224.609 125.52 224.801 125.68C224.993 125.824 225.241 125.944 225.545 126.04C225.849 126.12 226.201 126.16 226.601 126.16C227.337 126.16 227.905 126.064 228.305 125.872C228.705 125.664 228.905 125.384 228.905 125.032C228.905 124.76 228.793 124.536 228.569 124.36C228.361 124.184 228.001 124.024 227.489 123.88C226.977 123.736 226.281 123.584 225.401 123.424C224.169 123.216 223.105 122.912 222.209 122.512C221.313 122.096 220.625 121.544 220.145 120.856C219.681 120.152 219.449 119.288 219.449 118.264C219.449 117.224 219.737 116.304 220.313 115.504C220.905 114.704 221.721 114.08 222.761 113.632C223.817 113.184 225.041 112.96 226.433 112.96C227.585 112.96 228.601 113.112 229.481 113.416C230.377 113.72 231.129 114.12 231.737 114.616C232.345 115.096 232.809 115.616 233.129 116.176C233.449 116.736 233.617 117.272 233.633 117.784C233.633 117.928 233.577 118.056 233.465 118.168C233.369 118.264 233.257 118.312 233.129 118.312H229.121C228.929 118.312 228.769 118.28 228.641 118.216C228.513 118.152 228.385 118.048 228.257 117.904C228.177 117.68 227.977 117.48 227.657 117.304C227.337 117.128 226.929 117.04 226.433 117.04C225.889 117.04 225.473 117.136 225.185 117.328C224.897 117.504 224.753 117.768 224.753 118.12C224.753 118.36 224.841 118.568 225.017 118.744C225.193 118.92 225.505 119.08 225.953 119.224C226.401 119.352 227.025 119.496 227.825 119.656C229.345 119.88 230.569 120.2 231.497 120.616C232.441 121.032 233.129 121.576 233.561 122.248C233.993 122.92 234.209 123.76 234.209 124.768C234.209 125.904 233.881 126.88 233.225 127.696C232.569 128.512 231.665 129.144 230.513 129.592C229.377 130.024 228.073 130.24 226.601 130.24ZM242.289 130.24C240.881 130.24 239.689 130.032 238.713 129.616C237.753 129.2 237.017 128.592 236.505 127.792C235.993 126.976 235.705 126 235.641 124.864C235.625 124.528 235.617 124.16 235.617 123.76C235.617 123.36 235.625 122.992 235.641 122.656C235.705 121.504 236.009 120.528 236.553 119.728C237.097 118.928 237.849 118.32 238.809 117.904C239.785 117.488 240.945 117.28 242.289 117.28C243.633 117.28 244.785 117.488 245.745 117.904C246.721 118.32 247.481 118.928 248.025 119.728C248.569 120.528 248.873 121.504 248.937 122.656C248.969 122.992 248.985 123.36 248.985 123.76C248.985 124.16 248.969 124.528 248.937 124.864C248.873 126 248.585 126.976 248.073 127.792C247.561 128.592 246.817 129.2 245.841 129.616C244.881 130.032 243.697 130.24 242.289 130.24ZM242.289 126.856C242.881 126.856 243.289 126.68 243.513 126.328C243.737 125.976 243.865 125.448 243.897 124.744C243.913 124.504 243.921 124.176 243.921 123.76C243.921 123.344 243.913 123.016 243.897 122.776C243.865 122.088 243.737 121.568 243.513 121.216C243.289 120.848 242.881 120.664 242.289 120.664C241.713 120.664 241.313 120.848 241.089 121.216C240.865 121.568 240.729 122.088 240.681 122.776C240.665 123.016 240.657 123.344 240.657 123.76C240.657 124.176 240.665 124.504 240.681 124.744C240.729 125.448 240.865 125.976 241.089 126.328C241.313 126.68 241.713 126.856 242.289 126.856ZM257.614 130C257.438 130 257.286 129.944 257.158 129.832C257.046 129.704 256.99 129.552 256.99 129.376V121.192H255.238C255.062 121.192 254.91 121.136 254.782 121.024C254.67 120.896 254.614 120.744 254.614 120.568V118.144C254.614 117.968 254.67 117.824 254.782 117.712C254.91 117.584 255.062 117.52 255.238 117.52H256.99V116.92C256.99 115.72 257.23 114.784 257.71 114.112C258.206 113.424 258.886 112.944 259.75 112.672C260.614 112.384 261.606 112.24 262.726 112.24H264.766C264.942 112.24 265.094 112.304 265.222 112.432C265.35 112.544 265.414 112.688 265.414 112.864V115.288C265.414 115.464 265.35 115.616 265.222 115.744C265.094 115.856 264.942 115.912 264.766 115.912H262.966C262.518 115.912 262.198 116.016 262.006 116.224C261.814 116.416 261.718 116.688 261.718 117.04V117.52H264.526C264.702 117.52 264.854 117.584 264.982 117.712C265.11 117.824 265.174 117.968 265.174 118.144V120.568C265.174 120.744 265.11 120.896 264.982 121.024C264.854 121.136 264.702 121.192 264.526 121.192H261.718V129.376C261.718 129.552 261.654 129.704 261.526 129.832C261.414 129.944 261.27 130 261.094 130H257.614ZM271.242 130.24C270.394 130.24 269.61 130.04 268.89 129.64C268.186 129.24 267.618 128.64 267.186 127.84C266.77 127.04 266.562 126.032 266.562 124.816V118.144C266.562 117.968 266.618 117.824 266.73 117.712C266.858 117.584 267.01 117.52 267.186 117.52H270.978C271.154 117.52 271.298 117.584 271.41 117.712C271.538 117.824 271.602 117.968 271.602 118.144V124.648C271.602 125.88 272.154 126.496 273.258 126.496C273.786 126.496 274.194 126.336 274.482 126.016C274.786 125.696 274.938 125.24 274.938 124.648V118.144C274.938 117.968 274.994 117.824 275.106 117.712C275.234 117.584 275.386 117.52 275.562 117.52H279.354C279.514 117.52 279.658 117.584 279.786 117.712C279.914 117.824 279.978 117.968 279.978 118.144V129.376C279.978 129.552 279.914 129.704 279.786 129.832C279.658 129.944 279.514 130 279.354 130H275.85C275.674 130 275.522 129.944 275.394 129.832C275.282 129.704 275.226 129.552 275.226 129.376V128.512C274.826 129.104 274.282 129.544 273.594 129.832C272.906 130.104 272.122 130.24 271.242 130.24ZM283.079 130C282.903 130 282.751 129.944 282.623 129.832C282.511 129.704 282.455 129.552 282.455 129.376V118.144C282.455 117.968 282.511 117.824 282.623 117.712C282.751 117.584 282.903 117.52 283.079 117.52H286.559C286.735 117.52 286.879 117.584 286.991 117.712C287.119 117.824 287.183 117.968 287.183 118.144V119.008C287.599 118.528 288.151 118.12 288.839 117.784C289.527 117.448 290.311 117.28 291.191 117.28C292.055 117.28 292.839 117.48 293.543 117.88C294.247 118.28 294.815 118.88 295.247 119.68C295.679 120.48 295.895 121.488 295.895 122.704V129.376C295.895 129.552 295.831 129.704 295.703 129.832C295.575 129.944 295.423 130 295.247 130H291.455C291.279 130 291.127 129.944 290.999 129.832C290.887 129.704 290.831 129.552 290.831 129.376V122.872C290.831 122.28 290.687 121.824 290.399 121.504C290.111 121.184 289.703 121.024 289.175 121.024C288.647 121.024 288.231 121.184 287.927 121.504C287.623 121.824 287.471 122.28 287.471 122.872V129.376C287.471 129.552 287.407 129.704 287.279 129.832C287.167 129.944 287.023 130 286.847 130H283.079ZM298.876 130C298.7 130 298.548 129.944 298.42 129.832C298.308 129.704 298.252 129.552 298.252 129.376V113.584C298.252 113.408 298.308 113.264 298.42 113.152C298.548 113.024 298.7 112.96 298.876 112.96H302.356C302.532 112.96 302.676 113.024 302.788 113.152C302.916 113.264 302.98 113.408 302.98 113.584V121.504L305.716 117.928C305.78 117.848 305.868 117.76 305.98 117.664C306.092 117.568 306.252 117.52 306.46 117.52H310.492C310.652 117.52 310.78 117.576 310.876 117.688C310.988 117.784 311.044 117.912 311.044 118.072C311.044 118.136 311.028 118.208 310.996 118.288C310.98 118.368 310.948 118.424 310.9 118.456L307.084 123.136L311.5 129.088C311.58 129.216 311.62 129.336 311.62 129.448C311.62 129.608 311.564 129.744 311.452 129.856C311.356 129.952 311.228 130 311.068 130H306.892C306.652 130 306.476 129.952 306.364 129.856C306.268 129.744 306.18 129.656 306.1 129.592L302.98 125.272V129.376C302.98 129.552 302.916 129.704 302.788 129.832C302.676 129.944 302.532 130 302.356 130H298.876ZM320.05 130C318.962 130 318.002 129.84 317.17 129.52C316.354 129.2 315.714 128.68 315.25 127.96C314.802 127.224 314.578 126.256 314.578 125.056V121.192H312.682C312.506 121.192 312.354 121.136 312.226 121.024C312.114 120.896 312.058 120.744 312.058 120.568V118.144C312.058 117.968 312.114 117.824 312.226 117.712C312.354 117.584 312.506 117.52 312.682 117.52H314.578V113.584C314.578 113.408 314.634 113.264 314.746 113.152C314.874 113.024 315.026 112.96 315.202 112.96H318.682C318.858 112.96 319.002 113.024 319.114 113.152C319.242 113.264 319.306 113.408 319.306 113.584V117.52H322.33C322.506 117.52 322.65 117.584 322.762 117.712C322.89 117.824 322.954 117.968 322.954 118.144V120.568C322.954 120.744 322.89 120.896 322.762 121.024C322.65 121.136 322.506 121.192 322.33 121.192H319.306V124.648C319.306 125.112 319.402 125.48 319.594 125.752C319.786 126.008 320.09 126.136 320.506 126.136H322.522C322.698 126.136 322.842 126.2 322.954 126.328C323.082 126.44 323.146 126.584 323.146 126.76V129.376C323.146 129.552 323.082 129.704 322.954 129.832C322.842 129.944 322.698 130 322.522 130H320.05ZM325.618 130C325.442 130 325.29 129.944 325.162 129.832C325.05 129.704 324.994 129.552 324.994 129.376V118.144C324.994 117.968 325.05 117.824 325.162 117.712C325.29 117.584 325.442 117.52 325.618 117.52H329.17C329.346 117.52 329.498 117.584 329.626 117.712C329.754 117.824 329.818 117.968 329.818 118.144V129.376C329.818 129.552 329.754 129.704 329.626 129.832C329.498 129.944 329.346 130 329.17 130H325.618ZM325.666 115.96C325.49 115.96 325.338 115.904 325.21 115.792C325.098 115.664 325.042 115.512 325.042 115.336V112.816C325.042 112.64 325.098 112.488 325.21 112.36C325.338 112.232 325.49 112.168 325.666 112.168H329.122C329.298 112.168 329.45 112.232 329.578 112.36C329.706 112.488 329.77 112.64 329.77 112.816V115.336C329.77 115.512 329.706 115.664 329.578 115.792C329.45 115.904 329.298 115.96 329.122 115.96H325.666ZM338.547 130.24C337.139 130.24 335.947 130.032 334.971 129.616C334.011 129.2 333.275 128.592 332.763 127.792C332.251 126.976 331.963 126 331.899 124.864C331.883 124.528 331.875 124.16 331.875 123.76C331.875 123.36 331.883 122.992 331.899 122.656C331.963 121.504 332.267 120.528 332.811 119.728C333.355 118.928 334.107 118.32 335.067 117.904C336.043 117.488 337.203 117.28 338.547 117.28C339.891 117.28 341.043 117.488 342.003 117.904C342.979 118.32 343.739 118.928 344.283 119.728C344.827 120.528 345.131 121.504 345.195 122.656C345.227 122.992 345.243 123.36 345.243 123.76C345.243 124.16 345.227 124.528 345.195 124.864C345.131 126 344.843 126.976 344.331 127.792C343.819 128.592 343.075 129.2 342.099 129.616C341.139 130.032 339.955 130.24 338.547 130.24ZM338.547 126.856C339.139 126.856 339.547 126.68 339.771 126.328C339.995 125.976 340.123 125.448 340.155 124.744C340.171 124.504 340.179 124.176 340.179 123.76C340.179 123.344 340.171 123.016 340.155 122.776C340.123 122.088 339.995 121.568 339.771 121.216C339.547 120.848 339.139 120.664 338.547 120.664C337.971 120.664 337.571 120.848 337.347 121.216C337.123 121.568 336.987 122.088 336.939 122.776C336.923 123.016 336.915 123.344 336.915 123.76C336.915 124.176 336.923 124.504 336.939 124.744C336.987 125.448 337.123 125.976 337.347 126.328C337.571 126.68 337.971 126.856 338.547 126.856ZM347.931 130C347.755 130 347.603 129.944 347.475 129.832C347.363 129.704 347.307 129.552 347.307 129.376V118.144C347.307 117.968 347.363 117.824 347.475 117.712C347.603 117.584 347.755 117.52 347.931 117.52H351.411C351.587 117.52 351.731 117.584 351.843 117.712C351.971 117.824 352.035 117.968 352.035 118.144V119.008C352.451 118.528 353.003 118.12 353.691 117.784C354.379 117.448 355.163 117.28 356.043 117.28C356.907 117.28 357.691 117.48 358.395 117.88C359.099 118.28 359.667 118.88 360.099 119.68C360.531 120.48 360.747 121.488 360.747 122.704V129.376C360.747 129.552 360.683 129.704 360.555 129.832C360.427 129.944 360.275 130 360.099 130H356.307C356.131 130 355.979 129.944 355.851 129.832C355.739 129.704 355.683 129.552 355.683 129.376V122.872C355.683 122.28 355.539 121.824 355.251 121.504C354.963 121.184 354.555 121.024 354.027 121.024C353.499 121.024 353.083 121.184 352.779 121.504C352.475 121.824 352.323 122.28 352.323 122.872V129.376C352.323 129.552 352.259 129.704 352.131 129.832C352.019 129.944 351.875 130 351.699 130H347.931ZM363.727 130C363.551 130 363.399 129.944 363.271 129.832C363.159 129.704 363.103 129.552 363.103 129.376V118.144C363.103 117.968 363.159 117.824 363.271 117.712C363.399 117.584 363.551 117.52 363.727 117.52H367.279C367.455 117.52 367.607 117.584 367.735 117.712C367.863 117.824 367.927 117.968 367.927 118.144V129.376C367.927 129.552 367.863 129.704 367.735 129.832C367.607 129.944 367.455 130 367.279 130H363.727ZM363.775 115.96C363.599 115.96 363.447 115.904 363.319 115.792C363.207 115.664 363.151 115.512 363.151 115.336V112.816C363.151 112.64 363.207 112.488 363.319 112.36C363.447 112.232 363.599 112.168 363.775 112.168H367.231C367.407 112.168 367.559 112.232 367.687 112.36C367.815 112.488 367.879 112.64 367.879 112.816V115.336C367.879 115.512 367.815 115.664 367.687 115.792C367.559 115.904 367.407 115.96 367.231 115.96H363.775ZM376.513 130.24C374.513 130.24 372.921 129.728 371.737 128.704C370.569 127.664 369.969 126.08 369.937 123.952C369.937 123.888 369.937 123.808 369.937 123.712C369.937 123.6 369.937 123.52 369.937 123.472C369.985 122.144 370.273 121.024 370.801 120.112C371.345 119.184 372.097 118.48 373.057 118C374.033 117.52 375.177 117.28 376.489 117.28C377.961 117.28 379.177 117.576 380.137 118.168C381.113 118.744 381.841 119.52 382.321 120.496C382.801 121.456 383.041 122.536 383.041 123.736V124.408C383.041 124.568 382.977 124.712 382.849 124.84C382.721 124.968 382.569 125.032 382.393 125.032H375.001C375.001 125.032 375.001 125.048 375.001 125.08C375.001 125.112 375.001 125.144 375.001 125.176C375.001 125.56 375.049 125.904 375.145 126.208C375.257 126.496 375.425 126.728 375.649 126.904C375.873 127.064 376.145 127.144 376.465 127.144C376.673 127.144 376.849 127.112 376.993 127.048C377.137 126.984 377.265 126.904 377.377 126.808C377.489 126.696 377.585 126.592 377.665 126.496C377.809 126.352 377.921 126.264 378.001 126.232C378.097 126.184 378.241 126.16 378.433 126.16H382.201C382.345 126.16 382.465 126.208 382.561 126.304C382.673 126.4 382.721 126.52 382.705 126.664C382.689 126.952 382.553 127.304 382.297 127.72C382.041 128.12 381.657 128.512 381.145 128.896C380.649 129.28 380.009 129.6 379.225 129.856C378.441 130.112 377.537 130.24 376.513 130.24ZM375.001 122.344H377.977V122.296C377.977 121.864 377.921 121.496 377.809 121.192C377.697 120.888 377.529 120.664 377.305 120.52C377.081 120.36 376.809 120.28 376.489 120.28C376.169 120.28 375.897 120.36 375.673 120.52C375.449 120.664 375.281 120.888 375.169 121.192C375.057 121.496 375.001 121.864 375.001 122.296V122.344ZM385.642 130C385.466 130 385.314 129.944 385.186 129.832C385.074 129.704 385.018 129.552 385.018 129.376V118.144C385.018 117.968 385.074 117.824 385.186 117.712C385.314 117.584 385.466 117.52 385.642 117.52H389.122C389.298 117.52 389.442 117.584 389.554 117.712C389.682 117.824 389.746 117.968 389.746 118.144V119.032C390.226 118.568 390.77 118.2 391.378 117.928C392.002 117.656 392.682 117.52 393.418 117.52H394.498C394.674 117.52 394.826 117.584 394.954 117.712C395.082 117.824 395.146 117.968 395.146 118.144V121.24C395.146 121.416 395.082 121.568 394.954 121.696C394.826 121.808 394.674 121.864 394.498 121.864H391.81C391.234 121.864 390.794 122.016 390.49 122.32C390.186 122.624 390.034 123.064 390.034 123.64V129.376C390.034 129.552 389.97 129.704 389.842 129.832C389.73 129.944 389.586 130 389.41 130H385.642ZM403.745 130C402.657 130 401.697 129.84 400.865 129.52C400.049 129.2 399.409 128.68 398.945 127.96C398.497 127.224 398.273 126.256 398.273 125.056V121.192H396.377C396.201 121.192 396.049 121.136 395.921 121.024C395.809 120.896 395.753 120.744 395.753 120.568V118.144C395.753 117.968 395.809 117.824 395.921 117.712C396.049 117.584 396.201 117.52 396.377 117.52H398.273V113.584C398.273 113.408 398.329 113.264 398.441 113.152C398.569 113.024 398.721 112.96 398.897 112.96H402.377C402.553 112.96 402.697 113.024 402.809 113.152C402.937 113.264 403.001 113.408 403.001 113.584V117.52H406.025C406.201 117.52 406.345 117.584 406.457 117.712C406.585 117.824 406.649 117.968 406.649 118.144V120.568C406.649 120.744 406.585 120.896 406.457 121.024C406.345 121.136 406.201 121.192 406.025 121.192H403.001V124.648C403.001 125.112 403.097 125.48 403.289 125.752C403.481 126.008 403.785 126.136 404.201 126.136H406.217C406.393 126.136 406.537 126.2 406.649 126.328C406.777 126.44 406.841 126.584 406.841 126.76V129.376C406.841 129.552 406.777 129.704 406.649 129.832C406.537 129.944 406.393 130 406.217 130H403.745ZM408.761 119.632C408.617 119.632 408.497 119.584 408.401 119.488C408.305 119.392 408.265 119.248 408.281 119.056L409.073 113.848C409.105 113.624 409.201 113.424 409.361 113.248C409.521 113.056 409.745 112.96 410.033 112.96H413.345C413.489 112.96 413.609 113.008 413.705 113.104C413.801 113.2 413.849 113.32 413.849 113.464C413.849 113.544 413.841 113.616 413.825 113.68L411.761 118.912C411.697 119.072 411.593 119.232 411.449 119.392C411.321 119.552 411.113 119.632 410.825 119.632H408.761ZM420.185 130.24C419.097 130.24 418.169 130.128 417.401 129.904C416.633 129.664 416.001 129.368 415.505 129.016C415.025 128.664 414.673 128.304 414.449 127.936C414.225 127.552 414.105 127.216 414.089 126.928C414.073 126.752 414.121 126.608 414.233 126.496C414.361 126.368 414.497 126.304 414.641 126.304H418.121C418.137 126.304 418.161 126.312 418.193 126.328C418.225 126.328 418.257 126.344 418.289 126.376C418.497 126.44 418.689 126.544 418.865 126.688C419.057 126.832 419.265 126.96 419.489 127.072C419.729 127.184 420.009 127.24 420.329 127.24C420.601 127.24 420.841 127.184 421.049 127.072C421.273 126.944 421.385 126.768 421.385 126.544C421.385 126.352 421.321 126.184 421.193 126.04C421.081 125.896 420.833 125.76 420.449 125.632C420.065 125.488 419.449 125.336 418.601 125.176C417.817 125.016 417.097 124.784 416.441 124.48C415.801 124.16 415.289 123.736 414.905 123.208C414.537 122.68 414.353 122.032 414.353 121.264C414.353 120.608 414.569 119.976 415.001 119.368C415.433 118.76 416.073 118.264 416.921 117.88C417.785 117.48 418.841 117.28 420.089 117.28C421.033 117.28 421.865 117.392 422.585 117.616C423.321 117.84 423.937 118.12 424.433 118.456C424.945 118.792 425.329 119.152 425.585 119.536C425.857 119.92 426.001 120.264 426.017 120.568C426.033 120.744 425.985 120.896 425.873 121.024C425.761 121.136 425.633 121.192 425.489 121.192H422.345C422.297 121.192 422.241 121.192 422.177 121.192C422.129 121.176 422.089 121.152 422.057 121.12C421.833 121.072 421.625 120.984 421.433 120.856C421.257 120.712 421.065 120.584 420.857 120.472C420.649 120.344 420.385 120.28 420.065 120.28C419.793 120.28 419.569 120.344 419.393 120.472C419.233 120.6 419.153 120.768 419.153 120.976C419.153 121.152 419.209 121.312 419.321 121.456C419.433 121.6 419.689 121.736 420.089 121.864C420.489 121.992 421.121 122.128 421.985 122.272C423.105 122.448 424.001 122.744 424.673 123.16C425.345 123.56 425.825 124.032 426.113 124.576C426.401 125.12 426.545 125.664 426.545 126.208C426.545 127.024 426.297 127.736 425.801 128.344C425.321 128.952 424.601 129.424 423.641 129.76C422.697 130.08 421.545 130.24 420.185 130.24ZM429.048 121.6C428.872 121.6 428.72 121.544 428.592 121.432C428.48 121.304 428.424 121.152 428.424 120.976V117.568C428.424 117.392 428.48 117.24 428.592 117.112C428.72 116.984 428.872 116.92 429.048 116.92H432.672C432.832 116.92 432.976 116.984 433.104 117.112C433.232 117.24 433.296 117.392 433.296 117.568V120.976C433.296 121.152 433.232 121.304 433.104 121.432C432.976 121.544 432.832 121.6 432.672 121.6H429.048ZM429.048 130C428.872 130 428.72 129.944 428.592 129.832C428.48 129.704 428.424 129.552 428.424 129.376V125.968C428.424 125.792 428.48 125.64 428.592 125.512C428.72 125.384 428.872 125.32 429.048 125.32H432.672C432.832 125.32 432.976 125.384 433.104 125.512C433.232 125.64 433.296 125.792 433.296 125.968V129.376C433.296 129.552 433.232 129.704 433.104 129.832C432.976 129.944 432.832 130 432.672 130H429.048Z" fill="#492E98"/>
<path d="M233.373 89.168C233.197 89.168 233.053 89.112 232.941 89C232.845 88.888 232.797 88.752 232.797 88.592V87.008C232.797 86.848 232.845 86.712 232.941 86.6C233.053 86.488 233.197 86.432 233.373 86.432H242.901C243.061 86.432 243.197 86.488 243.309 86.6C243.421 86.712 243.477 86.848 243.477 87.008V88.592C243.477 88.752 243.421 88.888 243.309 89C243.197 89.112 243.061 89.168 242.901 89.168H233.373ZM258.808 95.24C257.384 95.24 256.16 95.008 255.136 94.544C254.112 94.064 253.312 93.336 252.736 92.36C252.16 91.368 251.848 90.136 251.8 88.664C251.784 87.976 251.776 87.296 251.776 86.624C251.776 85.952 251.784 85.264 251.8 84.56C251.848 83.104 252.168 81.888 252.76 80.912C253.352 79.936 254.16 79.2 255.184 78.704C256.224 78.208 257.432 77.96 258.808 77.96C260.184 77.96 261.392 78.208 262.432 78.704C263.472 79.2 264.288 79.936 264.88 80.912C265.472 81.888 265.792 83.104 265.84 84.56C265.872 85.264 265.888 85.952 265.888 86.624C265.888 87.296 265.872 87.976 265.84 88.664C265.792 90.136 265.48 91.368 264.904 92.36C264.328 93.336 263.52 94.064 262.48 94.544C261.456 95.008 260.232 95.24 258.808 95.24ZM258.808 92.48C259.848 92.48 260.696 92.176 261.352 91.568C262.008 90.944 262.36 89.936 262.408 88.544C262.44 87.84 262.456 87.192 262.456 86.6C262.456 85.992 262.44 85.344 262.408 84.656C262.376 83.728 262.2 82.976 261.88 82.4C261.576 81.808 261.16 81.384 260.632 81.128C260.104 80.856 259.496 80.72 258.808 80.72C258.136 80.72 257.536 80.856 257.008 81.128C256.48 81.384 256.056 81.808 255.736 82.4C255.432 82.976 255.264 83.728 255.232 84.656C255.216 85.344 255.208 85.992 255.208 86.6C255.208 87.192 255.216 87.84 255.232 88.544C255.28 89.936 255.632 90.944 256.288 91.568C256.944 92.176 257.784 92.48 258.808 92.48ZM269.352 99.56C269.192 99.56 269.056 99.504 268.944 99.392C268.832 99.28 268.776 99.144 268.776 98.984V83.096C268.776 82.936 268.832 82.8 268.944 82.688C269.056 82.576 269.192 82.52 269.352 82.52H271.248C271.424 82.52 271.56 82.576 271.656 82.688C271.768 82.8 271.824 82.936 271.824 83.096V84.056C272.208 83.544 272.712 83.12 273.336 82.784C273.96 82.448 274.736 82.28 275.664 82.28C276.512 82.28 277.248 82.416 277.872 82.688C278.496 82.96 279.016 83.352 279.432 83.864C279.848 84.36 280.168 84.952 280.392 85.64C280.616 86.328 280.744 87.088 280.776 87.92C280.792 88.192 280.8 88.472 280.8 88.76C280.8 89.048 280.792 89.336 280.776 89.624C280.76 90.424 280.64 91.168 280.416 91.856C280.192 92.528 279.864 93.12 279.432 93.632C279.016 94.128 278.496 94.52 277.872 94.808C277.248 95.096 276.512 95.24 275.664 95.24C274.8 95.24 274.064 95.088 273.456 94.784C272.848 94.464 272.352 94.048 271.968 93.536V98.984C271.968 99.144 271.912 99.28 271.8 99.392C271.704 99.504 271.568 99.56 271.392 99.56H269.352ZM274.776 92.672C275.464 92.672 276 92.528 276.384 92.24C276.768 91.936 277.048 91.544 277.224 91.064C277.4 90.584 277.504 90.056 277.536 89.48C277.552 89 277.552 88.52 277.536 88.04C277.504 87.464 277.4 86.936 277.224 86.456C277.048 85.976 276.768 85.592 276.384 85.304C276 85 275.464 84.848 274.776 84.848C274.12 84.848 273.584 85 273.168 85.304C272.768 85.608 272.472 86 272.28 86.48C272.104 86.944 272 87.424 271.968 87.92C271.952 88.208 271.944 88.512 271.944 88.832C271.944 89.152 271.952 89.464 271.968 89.768C271.984 90.248 272.096 90.712 272.304 91.16C272.512 91.592 272.816 91.952 273.216 92.24C273.616 92.528 274.136 92.672 274.776 92.672ZM288.87 95.24C287.094 95.24 285.686 94.728 284.646 93.704C283.606 92.68 283.046 91.224 282.966 89.336C282.95 89.176 282.942 88.976 282.942 88.736C282.942 88.48 282.95 88.28 282.966 88.136C283.03 86.92 283.302 85.88 283.782 85.016C284.278 84.136 284.958 83.464 285.822 83C286.686 82.52 287.702 82.28 288.87 82.28C290.166 82.28 291.254 82.552 292.134 83.096C293.014 83.624 293.678 84.368 294.126 85.328C294.574 86.272 294.798 87.368 294.798 88.616V89.12C294.798 89.28 294.742 89.416 294.63 89.528C294.518 89.64 294.374 89.696 294.198 89.696H286.23C286.23 89.696 286.23 89.72 286.23 89.768C286.23 89.816 286.23 89.856 286.23 89.888C286.246 90.448 286.35 90.968 286.542 91.448C286.75 91.912 287.046 92.288 287.43 92.576C287.83 92.864 288.302 93.008 288.846 93.008C289.294 93.008 289.67 92.944 289.974 92.816C290.278 92.672 290.526 92.512 290.718 92.336C290.91 92.16 291.046 92.016 291.126 91.904C291.27 91.712 291.382 91.6 291.462 91.568C291.558 91.52 291.694 91.496 291.87 91.496H293.934C294.094 91.496 294.222 91.544 294.318 91.64C294.43 91.736 294.478 91.856 294.462 92C294.446 92.256 294.31 92.568 294.054 92.936C293.814 93.304 293.462 93.664 292.998 94.016C292.534 94.368 291.95 94.664 291.246 94.904C290.558 95.128 289.766 95.24 288.87 95.24ZM286.23 87.68H291.534V87.608C291.534 86.984 291.43 86.44 291.222 85.976C291.014 85.496 290.71 85.128 290.31 84.872C289.91 84.6 289.43 84.464 288.87 84.464C288.31 84.464 287.83 84.6 287.43 84.872C287.03 85.128 286.726 85.496 286.518 85.976C286.326 86.44 286.23 86.984 286.23 87.608V87.68ZM297.922 95C297.762 95 297.626 94.944 297.514 94.832C297.402 94.72 297.346 94.584 297.346 94.424V83.096C297.346 82.936 297.402 82.8 297.514 82.688C297.626 82.576 297.762 82.52 297.922 82.52H299.89C300.05 82.52 300.186 82.576 300.298 82.688C300.41 82.8 300.466 82.936 300.466 83.096V84.08C300.882 83.568 301.41 83.144 302.05 82.808C302.706 82.456 303.514 82.28 304.474 82.28C305.45 82.28 306.298 82.504 307.018 82.952C307.738 83.384 308.29 84 308.674 84.8C309.074 85.6 309.274 86.56 309.274 87.68V94.424C309.274 94.584 309.218 94.72 309.106 94.832C308.994 94.944 308.858 95 308.698 95H306.586C306.426 95 306.29 94.944 306.178 94.832C306.066 94.72 306.01 94.584 306.01 94.424V87.824C306.01 86.896 305.778 86.168 305.314 85.64C304.866 85.112 304.21 84.848 303.346 84.848C302.514 84.848 301.85 85.112 301.354 85.64C300.858 86.168 300.61 86.896 300.61 87.824V94.424C300.61 94.584 300.554 94.72 300.442 94.832C300.33 94.944 300.194 95 300.034 95H297.922ZM318.671 95C318.511 95 318.375 94.944 318.263 94.832C318.151 94.72 318.095 94.584 318.095 94.424V78.8C318.095 78.624 318.151 78.48 318.263 78.368C318.375 78.256 318.511 78.2 318.671 78.2H325.631C326.927 78.2 327.983 78.4 328.799 78.8C329.615 79.184 330.215 79.72 330.599 80.408C330.999 81.096 331.199 81.896 331.199 82.808C331.199 83.416 331.087 83.952 330.863 84.416C330.655 84.864 330.391 85.232 330.071 85.52C329.767 85.808 329.463 86.032 329.159 86.192C329.783 86.48 330.335 86.96 330.815 87.632C331.295 88.304 331.535 89.104 331.535 90.032C331.535 90.992 331.319 91.848 330.887 92.6C330.455 93.352 329.815 93.944 328.967 94.376C328.119 94.792 327.071 95 325.823 95H318.671ZM321.431 92.456H325.439C326.303 92.456 326.959 92.224 327.407 91.76C327.855 91.28 328.079 90.704 328.079 90.032C328.079 89.328 327.847 88.744 327.383 88.28C326.935 87.816 326.287 87.584 325.439 87.584H321.431V92.456ZM321.431 85.088H325.199C326.047 85.088 326.679 84.888 327.095 84.488C327.527 84.072 327.743 83.536 327.743 82.88C327.743 82.208 327.527 81.68 327.095 81.296C326.679 80.912 326.047 80.72 325.199 80.72H321.431V85.088ZM337.884 95.24C337.052 95.24 336.3 95.08 335.628 94.76C334.956 94.424 334.42 93.984 334.02 93.44C333.636 92.88 333.444 92.256 333.444 91.568C333.444 90.448 333.9 89.56 334.812 88.904C335.724 88.232 336.916 87.784 338.388 87.56L341.676 87.08V86.576C341.676 85.904 341.508 85.384 341.172 85.016C340.836 84.648 340.26 84.464 339.444 84.464C338.868 84.464 338.396 84.584 338.028 84.824C337.676 85.048 337.412 85.352 337.236 85.736C337.108 85.944 336.924 86.048 336.684 86.048H334.788C334.612 86.048 334.476 86 334.38 85.904C334.3 85.808 334.26 85.68 334.26 85.52C334.276 85.264 334.38 84.952 334.572 84.584C334.78 84.216 335.084 83.864 335.484 83.528C335.9 83.176 336.436 82.88 337.092 82.64C337.748 82.4 338.54 82.28 339.468 82.28C340.476 82.28 341.324 82.408 342.012 82.664C342.716 82.904 343.276 83.232 343.692 83.648C344.108 84.064 344.412 84.552 344.604 85.112C344.796 85.672 344.892 86.264 344.892 86.888V94.424C344.892 94.584 344.836 94.72 344.724 94.832C344.612 94.944 344.476 95 344.316 95H342.372C342.196 95 342.052 94.944 341.94 94.832C341.844 94.72 341.796 94.584 341.796 94.424V93.488C341.588 93.776 341.308 94.056 340.956 94.328C340.604 94.6 340.172 94.824 339.66 95C339.164 95.16 338.572 95.24 337.884 95.24ZM338.7 92.96C339.26 92.96 339.764 92.84 340.212 92.6C340.676 92.36 341.036 91.992 341.292 91.496C341.564 90.984 341.7 90.344 341.7 89.576V89.072L339.3 89.456C338.356 89.6 337.652 89.832 337.188 90.152C336.724 90.472 336.492 90.864 336.492 91.328C336.492 91.68 336.596 91.984 336.804 92.24C337.028 92.48 337.308 92.664 337.644 92.792C337.98 92.904 338.332 92.96 338.7 92.96ZM352.603 95.24C351.771 95.24 351.035 95.104 350.395 94.832C349.771 94.544 349.251 94.144 348.835 93.632C348.419 93.12 348.099 92.52 347.875 91.832C347.651 91.128 347.523 90.36 347.491 89.528C347.475 89.24 347.467 88.984 347.467 88.76C347.467 88.52 347.475 88.256 347.491 87.968C347.523 87.168 347.643 86.424 347.851 85.736C348.075 85.048 348.395 84.448 348.811 83.936C349.243 83.408 349.771 83 350.395 82.712C351.035 82.424 351.771 82.28 352.603 82.28C353.467 82.28 354.195 82.432 354.787 82.736C355.395 83.024 355.899 83.4 356.299 83.864V78.536C356.299 78.376 356.347 78.24 356.443 78.128C356.555 78.016 356.699 77.96 356.875 77.96H358.915C359.075 77.96 359.211 78.016 359.323 78.128C359.435 78.24 359.491 78.376 359.491 78.536V94.424C359.491 94.584 359.435 94.72 359.323 94.832C359.211 94.944 359.075 95 358.915 95H357.019C356.843 95 356.699 94.944 356.587 94.832C356.491 94.72 356.443 94.584 356.443 94.424V93.536C356.043 94.032 355.531 94.44 354.907 94.76C354.299 95.08 353.531 95.24 352.603 95.24ZM353.491 92.672C354.163 92.672 354.699 92.52 355.099 92.216C355.499 91.912 355.795 91.528 355.987 91.064C356.179 90.584 356.283 90.096 356.299 89.6C356.315 89.312 356.323 89.008 356.323 88.688C356.323 88.352 356.315 88.04 356.299 87.752C356.283 87.272 356.171 86.816 355.963 86.384C355.755 85.936 355.451 85.568 355.051 85.28C354.651 84.992 354.131 84.848 353.491 84.848C352.819 84.848 352.283 85 351.883 85.304C351.499 85.592 351.219 85.976 351.043 86.456C350.867 86.936 350.763 87.464 350.731 88.04C350.715 88.52 350.715 89 350.731 89.48C350.763 90.056 350.867 90.584 351.043 91.064C351.219 91.544 351.499 91.936 351.883 92.24C352.283 92.528 352.819 92.672 353.491 92.672ZM368.329 100.28C367.161 100.28 366.201 100.128 365.449 99.824C364.697 99.52 364.105 99.152 363.673 98.72C363.241 98.288 362.929 97.856 362.737 97.424C362.561 97.008 362.465 96.68 362.449 96.44C362.433 96.28 362.481 96.136 362.593 96.008C362.721 95.896 362.865 95.84 363.025 95.84H365.113C365.273 95.84 365.401 95.872 365.497 95.936C365.593 96.016 365.673 96.152 365.737 96.344C365.833 96.552 365.961 96.776 366.121 97.016C366.281 97.256 366.521 97.456 366.841 97.616C367.177 97.792 367.633 97.88 368.209 97.88C368.817 97.88 369.329 97.792 369.745 97.616C370.161 97.44 370.473 97.144 370.681 96.728C370.905 96.312 371.017 95.736 371.017 95V93.368C370.633 93.832 370.137 94.208 369.529 94.496C368.937 94.784 368.201 94.928 367.321 94.928C366.473 94.928 365.729 94.792 365.089 94.52C364.465 94.232 363.945 93.84 363.529 93.344C363.113 92.832 362.793 92.232 362.569 91.544C362.361 90.856 362.241 90.096 362.209 89.264C362.193 88.832 362.193 88.4 362.209 87.968C362.241 87.168 362.361 86.424 362.569 85.736C362.793 85.048 363.113 84.448 363.529 83.936C363.945 83.408 364.465 83 365.089 82.712C365.729 82.424 366.473 82.28 367.321 82.28C368.233 82.28 369.001 82.456 369.625 82.808C370.249 83.144 370.761 83.568 371.161 84.08V83.12C371.161 82.944 371.217 82.8 371.329 82.688C371.441 82.576 371.577 82.52 371.737 82.52H373.681C373.841 82.52 373.977 82.576 374.089 82.688C374.201 82.8 374.257 82.944 374.257 83.12L374.281 94.688C374.281 95.84 374.065 96.832 373.633 97.664C373.201 98.496 372.545 99.136 371.665 99.584C370.801 100.048 369.689 100.28 368.329 100.28ZM368.209 92.384C368.865 92.384 369.393 92.24 369.793 91.952C370.193 91.664 370.489 91.288 370.681 90.824C370.873 90.36 370.985 89.888 371.017 89.408C371.033 89.2 371.041 88.936 371.041 88.616C371.041 88.296 371.033 88.04 371.017 87.848C370.985 87.352 370.873 86.88 370.681 86.432C370.489 85.968 370.193 85.592 369.793 85.304C369.393 85 368.865 84.848 368.209 84.848C367.553 84.848 367.025 85 366.625 85.304C366.225 85.592 365.937 85.976 365.761 86.456C365.601 86.936 365.505 87.464 365.473 88.04C365.441 88.424 365.441 88.816 365.473 89.216C365.505 89.776 365.601 90.304 365.761 90.8C365.937 91.28 366.225 91.664 366.625 91.952C367.025 92.24 367.553 92.384 368.209 92.384ZM382.855 95.24C381.079 95.24 379.671 94.728 378.631 93.704C377.591 92.68 377.031 91.224 376.951 89.336C376.935 89.176 376.927 88.976 376.927 88.736C376.927 88.48 376.935 88.28 376.951 88.136C377.015 86.92 377.287 85.88 377.767 85.016C378.263 84.136 378.943 83.464 379.807 83C380.671 82.52 381.687 82.28 382.855 82.28C384.151 82.28 385.239 82.552 386.119 83.096C386.999 83.624 387.663 84.368 388.111 85.328C388.559 86.272 388.783 87.368 388.783 88.616V89.12C388.783 89.28 388.727 89.416 388.615 89.528C388.503 89.64 388.359 89.696 388.183 89.696H380.215C380.215 89.696 380.215 89.72 380.215 89.768C380.215 89.816 380.215 89.856 380.215 89.888C380.231 90.448 380.335 90.968 380.527 91.448C380.735 91.912 381.031 92.288 381.415 92.576C381.815 92.864 382.287 93.008 382.831 93.008C383.279 93.008 383.655 92.944 383.959 92.816C384.263 92.672 384.511 92.512 384.703 92.336C384.895 92.16 385.031 92.016 385.111 91.904C385.255 91.712 385.367 91.6 385.447 91.568C385.543 91.52 385.679 91.496 385.855 91.496H387.919C388.079 91.496 388.207 91.544 388.303 91.64C388.415 91.736 388.463 91.856 388.447 92C388.431 92.256 388.295 92.568 388.039 92.936C387.799 93.304 387.447 93.664 386.983 94.016C386.519 94.368 385.935 94.664 385.231 94.904C384.543 95.128 383.751 95.24 382.855 95.24ZM380.215 87.68H385.519V87.608C385.519 86.984 385.415 86.44 385.207 85.976C384.999 85.496 384.695 85.128 384.295 84.872C383.895 84.6 383.415 84.464 382.855 84.464C382.295 84.464 381.815 84.6 381.415 84.872C381.015 85.128 380.711 85.496 380.503 85.976C380.311 86.44 380.215 86.984 380.215 87.608V87.68ZM396.058 95.24C395.098 95.24 394.274 95.128 393.586 94.904C392.914 94.68 392.362 94.4 391.93 94.064C391.498 93.728 391.178 93.392 390.97 93.056C390.762 92.72 390.65 92.44 390.634 92.216C390.618 92.04 390.666 91.904 390.778 91.808C390.906 91.696 391.042 91.64 391.186 91.64H393.082C393.146 91.64 393.202 91.648 393.25 91.664C393.298 91.68 393.362 91.728 393.442 91.808C393.65 91.984 393.866 92.168 394.09 92.36C394.33 92.552 394.61 92.72 394.93 92.864C395.25 92.992 395.65 93.056 396.13 93.056C396.754 93.056 397.274 92.936 397.69 92.696C398.122 92.44 398.338 92.08 398.338 91.616C398.338 91.28 398.242 91.008 398.05 90.8C397.874 90.592 397.538 90.408 397.042 90.248C396.546 90.072 395.842 89.888 394.93 89.696C394.034 89.488 393.29 89.224 392.698 88.904C392.106 88.584 391.666 88.184 391.378 87.704C391.09 87.224 390.946 86.664 390.946 86.024C390.946 85.4 391.13 84.808 391.498 84.248C391.882 83.672 392.442 83.2 393.178 82.832C393.93 82.464 394.858 82.28 395.962 82.28C396.826 82.28 397.578 82.392 398.218 82.616C398.858 82.824 399.386 83.088 399.802 83.408C400.234 83.728 400.562 84.056 400.786 84.392C401.01 84.712 401.13 84.992 401.146 85.232C401.162 85.408 401.114 85.552 401.002 85.664C400.89 85.76 400.762 85.808 400.618 85.808H398.842C398.762 85.808 398.69 85.792 398.626 85.76C398.562 85.728 398.498 85.688 398.434 85.64C398.258 85.48 398.066 85.312 397.858 85.136C397.65 84.944 397.394 84.784 397.09 84.656C396.802 84.528 396.418 84.464 395.938 84.464C395.33 84.464 394.866 84.6 394.546 84.872C394.226 85.128 394.066 85.456 394.066 85.856C394.066 86.128 394.138 86.368 394.282 86.576C394.442 86.768 394.754 86.952 395.218 87.128C395.682 87.304 396.386 87.488 397.33 87.68C398.402 87.872 399.25 88.16 399.874 88.544C400.514 88.912 400.962 89.344 401.218 89.84C401.49 90.32 401.626 90.856 401.626 91.448C401.626 92.168 401.41 92.816 400.978 93.392C400.562 93.968 399.938 94.424 399.106 94.76C398.29 95.08 397.274 95.24 396.058 95.24ZM410.092 89.168C409.916 89.168 409.772 89.112 409.66 89C409.564 88.888 409.516 88.752 409.516 88.592V87.008C409.516 86.848 409.564 86.712 409.66 86.6C409.772 86.488 409.916 86.432 410.092 86.432H419.62C419.78 86.432 419.916 86.488 420.028 86.6C420.14 86.712 420.196 86.848 420.196 87.008V88.592C420.196 88.752 420.14 88.888 420.028 89C419.916 89.112 419.78 89.168 419.62 89.168H410.092Z" fill="#492E98"/>
<circle cx="326.5" cy="225.5" r="49.5" fill="#492E98"/>
<path d="M349.092 223.244C350.829 224.247 350.829 226.753 349.092 227.756L317.158 246.193C315.421 247.196 313.25 245.943 313.25 243.937L313.25 207.063C313.25 205.057 315.421 203.804 317.158 204.807L349.092 223.244Z" fill="white"/>
</svg>
