<svg xmlns="http://www.w3.org/2000/svg" width="496" height="616" viewBox="0 0 496 616">
    <g fill="none" fill-rule="evenodd">
        <path fill="#3E426C" fill-rule="nonzero" d="M0 0h496v344H0z"/>
        <path fill="#494E80" d="M87.262 219.003a1.17 1.17 0 0 0-2.261 0 16.656 16.656 0 0 1-11.866 11.867 1.168 1.168 0 0 0 0 2.26 16.656 16.656 0 0 1 11.866 11.867 1.17 1.17 0 0 0 2.261 0 16.656 16.656 0 0 1 11.866-11.867 1.168 1.168 0 0 0 0-2.26 16.656 16.656 0 0 1-11.866-11.867zM209.602 114h76.799c10.603 0 19.201 8.596 19.201 19.2s-8.598 19.2-19.201 19.2c0 2.651-.27 5.24-.78 7.739-3.58 17.498-19.062 30.661-37.621 30.661 10.604 0 19.201 8.596 19.201 19.2h-38.4c0-10.604 8.598-19.2 19.199-19.2-21.207 0-38.398-17.193-38.398-38.4-10.604 0-19.201-8.596-19.201-19.2s8.597-19.2 19.201-19.2zM248 258c53.02 0 96-42.98 96-96V85.2c0-10.604-8.595-19.2-19.199-19.2h-153.6C160.598 66 152 74.596 152 85.2V162c0 53.02 42.981 96 96 96zM96 27a96.016 96.016 0 0 0-3.855-27H4.923l5.54 17.05h33.856l-27.391 19.9 10.463 32.199L0 49.249V123c53.02 0 96-42.98 96-96zm.006 92.583v2.944h2.945a1.473 1.473 0 0 1 0 2.945h-2.945v2.945a1.473 1.473 0 0 1-2.945 0v-2.945h-2.945a1.472 1.472 0 1 1 0-2.945h2.945v-2.944a1.473 1.473 0 1 1 2.945 0zm-2.209-9.554l-10.994 6.348a1.471 1.471 0 0 0-.736 1.275v12.696c0 .526.28 1.012.736 1.275l10.994 6.348a1.47 1.47 0 0 0 1.473 0l10.994-6.348c.456-.263.736-.749.736-1.275v-12.696c0-.526-.28-1.012-.736-1.275l-10.994-6.348a1.474 1.474 0 0 0-1.473 0zM137.5 38.5a3 3 0 1 0 0-6 3 3 0 0 0 0 6zm322.434 13.335c-14.818-4.051-26.455-12.634-21.233-30.841 2.442-8.503 6.626-15.473 12.124-20.994H400v67.32a19.2 19.2 0 0 0 11.309 17.504L496 123V79.8c-17.367 0-31.92-11.892-36.066-27.965zM40 177a5 5 0 1 0 10.001-.001A5 5 0 0 0 40 177zM486.049 45.056c-3.853 0-6.426 4.096-4.658 7.521 2.728 5.29 8.246 8.908 14.609 8.908V45.056h-9.951zM457 137a5 5 0 1 0-10 0 5 5 0 0 0 10 0zM330.66 255c-41.333 0-41.333 20-82.667 20-41.332 0-41.332-20-82.664-20s-41.332 20-82.665 20C41.332 275 41.332 255 0 255v89h496v-89c-41.335 0-41.335 20-82.67 20s-41.335-20-82.67-20zM209.602 142.8v-19.2c-5.303 0-9.602 4.298-9.602 9.6s4.299 9.6 9.602 9.6zm184.814 77.566a13.732 13.732 0 0 1 9.783 9.784.965.965 0 0 0 1.865 0 13.733 13.733 0 0 1 9.783-9.784.963.963 0 0 0 0-1.863 13.733 13.733 0 0 1-9.783-9.784.964.964 0 0 0-1.865 0 13.732 13.732 0 0 1-9.783 9.784.962.962 0 0 0 0 1.863zM178.827 22.458l21.174 9.543 21.172-9.545A4.8 4.8 0 0 0 224 18.08L223.999 0l-21.577.001a9.43 9.43 0 0 0 4.952 3.226.663.663 0 0 1 0 1.283 9.449 9.449 0 0 0-6.733 6.733.662.662 0 0 1-1.282 0 9.452 9.452 0 0 0-6.733-6.733.662.662 0 0 1 0-1.282 9.43 9.43 0 0 0 4.951-3.227l-21.578.001.001 18.08c0 1.888 1.107 3.6 2.827 4.376zm145.931 17.183a9.454 9.454 0 0 1 6.733 6.733.661.661 0 0 0 1.282 0 9.45 9.45 0 0 1 6.733-6.733.662.662 0 0 0 0-1.282 9.449 9.449 0 0 1-6.733-6.733.663.663 0 0 0-1.282 0 9.452 9.452 0 0 1-6.733 6.733.662.662 0 0 0 0 1.282zm105.015 206.985a.663.663 0 0 0-1.282 0 9.452 9.452 0 0 1-6.733 6.733.662.662 0 0 0 0 1.282 9.454 9.454 0 0 1 6.733 6.733.661.661 0 0 0 1.282 0 9.45 9.45 0 0 1 6.733-6.733.662.662 0 0 0 0-1.282 9.449 9.449 0 0 1-6.733-6.733zm-6.526-85.71a4 4 0 1 1 0-8 4 4 0 0 1 0 8zm9.177-9.964l-8.601-4.966a1.151 1.151 0 0 0-1.152 0l-8.601 4.966a1.153 1.153 0 0 0-.576.998v9.932c0 .412.22.792.576.998l8.601 4.966a1.149 1.149 0 0 0 1.152 0l8.601-4.966c.357-.206.576-.586.576-.998v-9.932c0-.412-.219-.792-.576-.998zm-137.178-14.015A9.588 9.588 0 0 0 296 133.2a9.585 9.585 0 0 0-.754-3.737 9.616 9.616 0 0 0-6.91-5.668 9.628 9.628 0 0 0-1.935-.195v19.2c.664 0 1.31-.067 1.935-.195a9.612 9.612 0 0 0 6.91-5.668zM479.434 32.891a5.895 5.895 0 0 0 5.896-5.897 5.897 5.897 0 1 0-5.896 5.897z"/>
        <g>
            <path fill="#494E80" d="M0 616h496V0H0z"/>
            <path fill="#000" fill-opacity=".15" d="M104.863 159.658h-2.945v2.945a1.472 1.472 0 1 1-2.945 0v-2.945h-2.945a1.472 1.472 0 0 1 0-2.945h2.945v-2.945a1.473 1.473 0 0 1 2.945 0v2.945h2.945a1.472 1.472 0 1 1 0 2.945zm7.313-9.096l-10.994-6.347a1.469 1.469 0 0 0-1.473 0l-10.994 6.347a1.472 1.472 0 0 0-.736 1.276v12.695c0 .526.28 1.013.736 1.275l10.994 6.348a1.47 1.47 0 0 0 1.473 0l10.994-6.348a1.47 1.47 0 0 0 .736-1.275v-12.695c0-.527-.28-1.013-.736-1.276zM443.42 425.536a9.447 9.447 0 0 1-6.733-6.732.662.662 0 0 0-1.282 0 9.45 9.45 0 0 1-6.733 6.732.663.663 0 0 0 0 1.283 9.452 9.452 0 0 1 6.733 6.733.662.662 0 0 0 1.282 0 9.449 9.449 0 0 1 6.733-6.733.663.663 0 0 0 0-1.283zm-375.932 124a5 5 0 1 0 0 10 5 5 0 0 0 0-10zm55.881 3.972a4 4 0 1 1 0-8 4 4 0 0 1 0 8zm9.177-9.964l-8.6-4.966a1.151 1.151 0 0 0-1.153 0l-8.602 4.966a1.153 1.153 0 0 0-.576.998v9.932c0 .412.22.792.576.998l8.602 4.966a1.149 1.149 0 0 0 1.152 0l8.601-4.966c.356-.206.576-.586.576-.998v-9.932c0-.412-.22-.792-.576-.998zM75.42 427.536a9.447 9.447 0 0 1-6.733-6.732.662.662 0 0 0-1.282 0 9.45 9.45 0 0 1-6.733 6.732.663.663 0 0 0 0 1.283 9.452 9.452 0 0 1 6.733 6.733.662.662 0 0 0 1.282 0 9.449 9.449 0 0 1 6.733-6.733.663.663 0 0 0 0-1.283zm32.11 31.016a16.653 16.653 0 0 1-11.867-11.867 1.169 1.169 0 0 0-2.26 0 16.653 16.653 0 0 1-11.867 11.867 1.168 1.168 0 0 0 0 2.26 16.653 16.653 0 0 1 11.866 11.867 1.168 1.168 0 0 0 2.261 0 16.653 16.653 0 0 1 11.866-11.866 1.169 1.169 0 0 0 0-2.261zm361.44-231.403l-17.096-3.408-7.29 15.833-17.31 2.042-2.043 17.31-15.833 7.292 3.407 17.094L400 295.139l8.523 15.206L400 325.549l12.804 11.827-3.407 17.094 15.833 7.292 2.042 17.31 17.31 2.043 7.291 15.832 17.095-3.407 11.827 12.805L496 397.82v-52.996c-6.969-7.633-16.25-12.002-26.059-12.002-2.81 0-5.578.356-8.286 1.065a50.382 50.382 0 0 1-.239-4.87c0-7.816 1.736-15.311 5.05-21.94l27.745 8.266a6.3 6.3 0 0 0 1.79.26v-7.582l-50.622-15.076L496 277.864v-54.997l-15.205-8.522-11.827 12.804zm-99.136 76.198a5 5 0 1 0 .001 10 5 5 0 0 0 0-10zm32.396 257.01a9.45 9.45 0 0 1-6.733-6.731.662.662 0 0 0-1.282 0 9.453 9.453 0 0 1-6.733 6.732.663.663 0 0 0 0 1.283 9.452 9.452 0 0 1 6.733 6.733.662.662 0 0 0 1.282 0 9.449 9.449 0 0 1 6.733-6.733.663.663 0 0 0 0-1.283zm-55.7-233.805a16.653 16.653 0 0 1-11.867-11.867 1.169 1.169 0 0 0-2.26 0 16.653 16.653 0 0 1-11.867 11.867 1.168 1.168 0 0 0 0 2.26 16.653 16.653 0 0 1 11.866 11.867 1.168 1.168 0 0 0 2.261 0 16.653 16.653 0 0 1 11.866-11.866 1.169 1.169 0 0 0 0-2.261zm75.355 183.62a5 5 0 1 0 0 10 5 5 0 0 0 0-10zM265.954 418.6a4 4 0 1 0 0 8 4 4 0 0 0 0-8zm28.302 16.204l-10.453 4.224c-2.046 15.03-12.844 27.297-27.1 31.463v13.176a3.931 3.931 0 1 1-7.862 0v-11.768c-.935.069-1.869.142-2.82.142-.609 0-1.2-.068-1.8-.091v11.717a3.933 3.933 0 1 1-7.865 0v-12.643c-21.145-4.466-37.07-23.262-37.07-45.716a3.933 3.933 0 0 1 6.278-3.157c10.802 8.016 26.188 5.659 34.298-5.263.24-.321.518-.596.83-.824 4.611-5.837 11.673-9.288 19.122-9.288 10.52 0 19.477 6.71 22.888 16.066l11.554 4.669a3.936 3.936 0 0 1 2.458 3.647 3.936 3.936 0 0 1-2.458 3.646zm38.434-45.44L248 351.188l-84.69 38.176A19.2 19.2 0 0 0 152 406.868v80.64a19.2 19.2 0 0 0 11.31 17.504L248 543.188l84.69-38.176A19.2 19.2 0 0 0 344 487.509v-80.641a19.2 19.2 0 0 0-11.31-17.504zm62.722 104.28h-2.945v2.945a1.472 1.472 0 1 1-2.945 0v-2.945h-2.945a1.472 1.472 0 1 1 0-2.944h2.945v-2.945a1.473 1.473 0 0 1 2.945 0v2.945h2.945a1.472 1.472 0 1 1 0 2.944zm7.313-9.095l-10.994-6.348a1.472 1.472 0 0 0-1.472 0l-10.995 6.348a1.473 1.473 0 0 0-.736 1.275v12.695c0 .527.281 1.013.736 1.276l10.995 6.348a1.477 1.477 0 0 0 1.472 0l10.994-6.348c.456-.263.737-.75.737-1.276v-12.695c0-.526-.28-1.012-.737-1.275zm-241.953-198.5a.963.963 0 0 0 0-1.863 13.73 13.73 0 0 1-9.783-9.783.963.963 0 0 0-1.864 0 13.732 13.732 0 0 1-9.783 9.783.964.964 0 0 0 0 1.864 13.733 13.733 0 0 1 9.783 9.784.964.964 0 0 0 1.864 0 13.732 13.732 0 0 1 9.783-9.784zm48.83-131.748V135.1c-5.303 0-9.602 4.298-9.602 9.6s4.3 9.6 9.602 9.6zm85.644-5.864A9.581 9.581 0 0 0 296 144.7a9.58 9.58 0 0 0-.754-3.736 9.613 9.613 0 0 0-8.845-5.864v19.2c.664 0 1.31-.067 1.935-.195a9.616 9.616 0 0 0 6.91-5.668zM52.776 566.783a3 3 0 1 0 0 6 3 3 0 0 0 0-6zM459.934 61.49c-14.819-4.051-26.455-12.634-21.233-30.84C442.894 16.047 452.214 5.95 464.542 0H400v76.976a19.2 19.2 0 0 0 11.31 17.504L496 132.656v-43.2c-17.367 0-31.92-11.891-36.066-27.965zm26.115-6.778c-3.853 0-6.426 4.095-4.658 7.52 2.728 5.29 8.246 8.908 14.61 8.908V54.713h-9.952zm-77.218 111.64a4 4 0 1 1 0 8.001 4 4 0 0 1 0-8zm-9.177 9.965l8.601 4.966a1.149 1.149 0 0 0 1.152 0l8.601-4.966c.356-.206.576-.586.576-.998v-9.932c0-.412-.22-.792-.576-.998l-8.6-4.965a1.151 1.151 0 0 0-1.153 0l-8.6 4.965a1.153 1.153 0 0 0-.577.998v9.932c0 .412.22.792.576.998zm79.78-133.771a5.895 5.895 0 0 0 5.896-5.896 5.897 5.897 0 1 0-5.896 5.896zM48.85 172.854a5 5 0 1 0 10 0 5 5 0 0 0-10 0zM96 36.656C96 23.674 93.417 11.296 88.747 0H1.785l8.678 26.706H44.32l-27.39 19.9L27.39 78.805l-27.39-19.9v73.75c53.02 0 96-42.98 96-96zm0 314.009v-80.641a19.2 19.2 0 0 0-11.31-17.504L0 214.345v69.258c12.688-6.841 26.908-9.997 38.14-11.423-2.078 16.18-7.696 38.608-22.699 53.605h.005c-4.595 4.595-9.875 8.3-15.446 11.303v69.257l84.69-38.177A19.199 19.199 0 0 0 96 350.665zm50.827-328.207L168.001 32l21.172-9.545A4.8 4.8 0 0 0 192 18.08V0h-21.578a9.43 9.43 0 0 0 4.952 3.227.664.664 0 0 1 0 1.283 9.449 9.449 0 0 0-6.733 6.733.663.663 0 0 1-1.282 0 9.45 9.45 0 0 0-6.733-6.732.663.663 0 0 1 0-1.283A9.424 9.424 0 0 0 165.577 0H144l.001 18.08c0 1.889 1.107 3.6 2.827 4.377zm141.845 22.87a9.45 9.45 0 0 1 6.732 6.733.664.664 0 0 0 1.283 0 9.449 9.449 0 0 1 6.733-6.733.662.662 0 0 0 0-1.282 9.452 9.452 0 0 1-6.733-6.733.663.663 0 0 0-1.283 0 9.453 9.453 0 0 1-6.732 6.733.662.662 0 0 0 0 1.282zm-167.827 82.529a3 3 0 1 0 0-6.001 3 3 0 0 0 0 6zm88.757-2.357h76.8c10.602 0 19.2 8.596 19.2 19.2s-8.598 19.2-19.2 19.2c0 2.652-.27 5.239-.78 7.739-3.58 17.498-19.063 30.662-37.622 30.662 10.604 0 19.201 8.595 19.201 19.199h-38.4c0-10.604 8.598-19.2 19.2-19.2-21.208 0-38.399-17.192-38.399-38.4-10.604 0-19.2-8.596-19.2-19.2s8.596-19.2 19.2-19.2zM152 96.7v76.8c0 53.019 42.981 96 96 96 53.02 0 96-42.981 96-96V96.7c0-10.604-8.596-19.2-19.199-19.2h-153.6c-10.603 0-19.2 8.596-19.2 19.2z"/>
        </g>
    </g>
</svg>
