<svg xmlns="http://www.w3.org/2000/svg" width="496" height="300" viewBox="0 0 496 300">
    <g fill="none" fill-rule="evenodd">
        <path fill="#494E80" d="M0 299.545h496V0H0z"/>
        <path fill="#000" fill-opacity=".15" d="M242.811 150.91a2.867 2.867 0 1 0-5.733 0 2.867 2.867 0 0 0 5.733 0zm-24.282 59.915a.323.323 0 0 0 .624 0 4.597 4.597 0 0 1 3.273-3.274.322.322 0 0 0 0-.624 4.595 4.595 0 0 1-3.273-3.274.322.322 0 0 0-.624 0 4.595 4.595 0 0 1-3.274 3.274.322.322 0 0 0 0 .624 4.596 4.596 0 0 1 3.274 3.274zm34.31-51.132h-9.678c-1.874 0-3.125 1.991-2.265 3.657a7.988 7.988 0 0 0 7.104 4.332 7.989 7.989 0 0 0 7.105-4.332c.859-1.666-.392-3.657-2.266-3.657zm-4.843 77.625c-25.783 0-46.683 20.9-46.683 46.682v15.545h42.164V288.52h-13.36a1.576 1.576 0 0 1-1.572-1.572v-5.894c0-.865.707-1.572 1.571-1.572h13.36v-13.36c0-.865.708-1.572 1.572-1.572h5.894c.865 0 1.573.707 1.573 1.572v13.36h13.36c.864 0 1.572.707 1.572 1.572v5.894c0 .864-.708 1.572-1.573 1.572h-13.36v11.026h42.164V284c0-25.782-20.9-46.682-46.682-46.682zm63.162-57.864a4.595 4.595 0 0 1-3.274-3.274.322.322 0 0 0-.623 0 4.596 4.596 0 0 1-3.274 3.274.322.322 0 0 0 0 .624 4.598 4.598 0 0 1 3.274 3.274.322.322 0 0 0 .623 0 4.596 4.596 0 0 1 3.274-3.274.322.322 0 0 0 0-.624zm-55.103-31.412a2.868 2.868 0 1 0 .001 5.736 2.868 2.868 0 0 0-.001-5.736zm9.482 14.947c-2.015 7.816-9.092 13.599-17.537 13.599-8.445 0-15.522-5.783-17.538-13.599-7.206-1.97-12.865-6.144-10.325-14.997 3.547-12.356 14.633-18.087 27.863-18.087s24.316 5.73 27.862 18.087c2.54 8.853-3.118 13.027-10.325 14.997zm23.645-40.195L248 104.23l-41.183 18.564a9.336 9.336 0 0 0-5.5 8.512v39.213a9.337 9.337 0 0 0 5.5 8.512L248 197.595l41.182-18.564a9.336 9.336 0 0 0 5.5-8.512v-39.213a9.336 9.336 0 0 0-5.5-8.512zm-153.048 80.76a1.945 1.945 0 1 0 0 3.89 1.945 1.945 0 0 0 0-3.89zm62.948 36.492h-1.432v1.432a.716.716 0 1 1-1.432 0v-1.432h-1.432a.716.716 0 0 1 0-1.432h1.432v-1.432a.716.716 0 0 1 1.432 0v1.432h1.432a.716.716 0 1 1 0 1.432zm3.914 2.371v-6.173a.716.716 0 0 0-.358-.62l-5.346-3.088a.717.717 0 0 0-.716 0l-5.346 3.087a.717.717 0 0 0-.359.62v6.174c0 .256.138.492.359.62l5.346 3.087a.713.713 0 0 0 .716 0l5.346-3.086a.716.716 0 0 0 .358-.62zM84.983 139.1a.468.468 0 0 0 0-.907 6.677 6.677 0 0 1-4.758-4.757.468.468 0 0 0-.906 0 6.677 6.677 0 0 1-4.758 4.757.468.468 0 0 0 0 .907 6.677 6.677 0 0 1 4.758 4.758.468.468 0 0 0 .906 0 6.677 6.677 0 0 1 4.758-4.758zm233.461-99.614a.568.568 0 0 0 1.1 0 8.1 8.1 0 0 1 5.77-5.77.569.569 0 0 0 0-1.1 8.1 8.1 0 0 1-5.77-5.77.568.568 0 0 0-1.1 0 8.1 8.1 0 0 1-5.77 5.77.57.57 0 0 0 0 1.1 8.1 8.1 0 0 1 5.77 5.77zm-145.71 239.81a4.596 4.596 0 0 1-3.274-3.273.322.322 0 0 0-.624 0 4.595 4.595 0 0 1-3.273 3.274.322.322 0 0 0 0 .623 4.597 4.597 0 0 1 3.273 3.274.322.322 0 0 0 .624 0 4.598 4.598 0 0 1 3.274-3.274.322.322 0 0 0 0-.623zm-105.94-10.139a1.945 1.945 0 1 1 0-3.89 1.945 1.945 0 0 1 0 3.89zm4.462-4.844l-4.182-2.415a.56.56 0 0 0-.56 0l-4.183 2.415a.56.56 0 0 0-.28.485v4.83c0 .2.107.385.28.484l4.183 2.416a.558.558 0 0 0 .56 0l4.182-2.416c.174-.1.28-.285.28-.484v-4.83a.56.56 0 0 0-.28-.485zM186.644 147.51a2.431 2.431 0 1 0 0 4.863 2.431 2.431 0 0 0 0-4.863zm-11.333 11.284a8.1 8.1 0 0 1-5.77-5.77.568.568 0 0 0-1.1 0 8.1 8.1 0 0 1-5.77 5.77.568.568 0 0 0 0 1.099 8.1 8.1 0 0 1 5.77 5.77.569.569 0 0 0 1.1 0 8.1 8.1 0 0 1 5.77-5.77.568.568 0 0 0 0-1.1zm6.981 96.097a2.432 2.432 0 1 0 0 4.863 2.432 2.432 0 0 0 0-4.863zm-32.395-43.457l-5.083 2.054c-.995 7.31-6.246 13.273-13.178 15.3v6.407a1.912 1.912 0 1 1-3.823 0v-5.723c-.455.034-.909.07-1.372.07-.296 0-.583-.034-.875-.045v5.698a1.913 1.913 0 0 1-3.825 0v-6.148c-10.282-2.172-18.025-11.312-18.025-22.231a1.912 1.912 0 0 1 3.052-1.535c5.253 3.898 12.735 2.752 16.678-2.559a1.92 1.92 0 0 1 .403-.4 11.881 11.881 0 0 1 9.3-4.517c5.115 0 9.47 3.263 11.13 7.812l5.618 2.27a1.914 1.914 0 0 1 0 3.547zm18.689-22.097l-41.182-18.563-41.183 18.563a9.337 9.337 0 0 0-5.5 8.512v39.214a9.337 9.337 0 0 0 5.5 8.511l41.183 18.564 41.182-18.564a9.336 9.336 0 0 0 5.5-8.511v-39.214a9.337 9.337 0 0 0-5.5-8.512zM496 163.633a18.63 18.63 0 0 1-6.808 1.284 9.303 9.303 0 0 1 6.808 2.961v-4.245zM317.9 277.88a1.945 1.945 0 1 1 0-3.89 1.945 1.945 0 0 1 0 3.89zm4.462-4.845l-4.182-2.415a.562.562 0 0 0-.56 0l-4.183 2.415a.56.56 0 0 0-.28.485v4.83c0 .2.106.385.28.485l4.182 2.415a.563.563 0 0 0 .56 0l4.183-2.415a.56.56 0 0 0 .28-.485v-4.83a.56.56 0 0 0-.28-.485zm120.147-159.47v37.346c0 25.782 20.9 46.683 46.683 46.683 2.313 0 4.585-.171 6.808-.496v-22.845h-16.144a9.337 9.337 0 0 1 9.336-9.337c-10.313 0-18.672-8.36-18.672-18.673a9.337 9.337 0 1 1 0-18.673H496V104.23h-44.153c-5.157 0-9.338 4.18-9.338 9.336zM495.978 5.868c0 .075.014.147.022.22V5.65c-.008.072-.022.143-.022.218zm-51.622 82.077a2.431 2.431 0 1 0 0-4.863 2.431 2.431 0 0 0 0 4.863zm49.068-52.381a1.912 1.912 0 0 1-3.823 0V29.84c-.455.033-.909.07-1.372.07-.295 0-.583-.034-.875-.045v5.698a1.912 1.912 0 0 1-3.825 0v-6.149c-10.281-2.171-18.025-11.311-18.025-22.23a1.913 1.913 0 0 1 3.052-1.535c5.253 3.898 12.735 2.752 16.678-2.56a1.92 1.92 0 0 1 .403-.4A11.903 11.903 0 0 1 488.634 0H442.51v37.431a9.337 9.337 0 0 0 5.5 8.512l41.182 18.564L496 61.438V28.187c-.828.384-1.687.71-2.576.97v6.407zM470.52 141.576v-9.337a4.669 4.669 0 1 0 0 9.337zm-7.361-63.05a.323.323 0 0 0 .623 0 4.594 4.594 0 0 1 3.274-3.274.323.323 0 0 0 0-.623 4.595 4.595 0 0 1-3.274-3.275.323.323 0 0 0-.623 0 4.596 4.596 0 0 1-3.274 3.275.322.322 0 0 0 0 .623 4.595 4.595 0 0 1 3.274 3.274zm3.992 141.941a.322.322 0 0 0 .624 0 4.595 4.595 0 0 1 3.274-3.274.323.323 0 0 0 0-.624 4.595 4.595 0 0 1-3.274-3.274.322.322 0 0 0-.624 0 4.596 4.596 0 0 1-3.274 3.274.322.322 0 0 0 0 .624 4.596 4.596 0 0 1 3.274 3.274zm-19.142 35.415a9.337 9.337 0 0 0-5.5 8.511v35.152H471.1c1.296-7.471 4.182-16.653 10.583-23.054 4.056-4.054 9.2-6.696 14.317-8.42v-27.685l-6.808-3.068-41.183 18.564zm-79.413-19.461c-10.474 0-18.965-8.491-18.965-18.965s8.491-18.965 18.965-18.965 18.965 8.491 18.965 18.965-8.491 18.965-18.965 18.965zm34.413 6.038l7.7-3.546-1.657-8.312 6.226-5.751-4.145-7.394 4.145-7.394-6.226-5.75 1.656-8.314-7.699-3.545-.993-8.418-8.417-.993-3.546-7.699-8.312 1.657-5.752-6.226-7.393 4.144-7.394-4.144-5.75 6.226-8.314-1.657-3.545 7.699-8.418.993-.993 8.418-7.7 3.545 1.658 8.313-6.226 5.751 4.144 7.394-4.144 7.394 6.226 5.75-1.657 8.313 7.699 3.546.993 8.418 8.418.993 3.545 7.699 8.313-1.657 5.751 6.226 7.394-4.144 7.393 4.144 5.752-6.226 8.312 1.657 3.546-7.7 8.417-.992.993-8.418zm-53.377 34.494a8.1 8.1 0 0 1-5.77-5.77.569.569 0 0 0-1.1 0 8.1 8.1 0 0 1-5.77 5.77.568.568 0 0 0 0 1.099 8.1 8.1 0 0 1 5.77 5.77.569.569 0 0 0 1.1 0 8.099 8.099 0 0 1 5.77-5.77.568.568 0 0 0 0-1.1zm67.898 11.671l-10.296-4.64-10.295 4.641a2.334 2.334 0 0 0-1.376 2.128v8.792h10.494a4.586 4.586 0 0 0-2.408-1.57.323.323 0 0 1 0-.623 4.596 4.596 0 0 0 3.274-3.274.323.323 0 0 1 .623 0 4.595 4.595 0 0 0 3.274 3.274.323.323 0 0 1 0 .623 4.59 4.59 0 0 0-2.408 1.57h10.493v-8.793c0-.918-.538-1.75-1.375-2.128zM496 299.545v-7.38c-3.644 3.402-8.059 5.759-12.524 7.38H496zm-71.854-25.068a1.459 1.459 0 1 0 0 2.918 1.459 1.459 0 0 0 0-2.918zm10.253-43.978a1.945 1.945 0 1 1 0-3.889 1.945 1.945 0 0 1 0 3.89zm4.462-4.844l-4.182-2.415a.559.559 0 0 0-.56 0l-4.183 2.415a.56.56 0 0 0-.28.485v4.83c0 .2.107.385.28.485l4.183 2.415a.559.559 0 0 0 .56 0l4.182-2.415a.56.56 0 0 0 .28-.485v-4.83a.56.56 0 0 0-.28-.485zM423.245 171.5a.322.322 0 0 0-.24-.312 4.596 4.596 0 0 1-3.274-3.274.323.323 0 0 0-.624 0 4.596 4.596 0 0 1-3.274 3.274.322.322 0 0 0 0 .623 4.596 4.596 0 0 1 3.274 3.275.323.323 0 0 0 .624 0 4.596 4.596 0 0 1 3.274-3.275.322.322 0 0 0 .24-.311zm-54.649 38.662a7.294 7.294 0 1 0 0 14.588 7.294 7.294 0 0 0 0-14.588zM147.177 22.042a4.595 4.595 0 0 1 3.274 3.274.323.323 0 0 0 .624 0 4.595 4.595 0 0 1 3.274-3.274.323.323 0 0 0 0-.624 4.595 4.595 0 0 1-3.274-3.274.322.322 0 0 0-.624 0 4.595 4.595 0 0 1-3.274 3.274.323.323 0 0 0 0 .624zM387.07 4.539a8.1 8.1 0 0 1 5.77 5.77.568.568 0 0 0 1.1 0 8.098 8.098 0 0 1 5.77-5.77.569.569 0 0 0 0-1.1A8.095 8.095 0 0 1 394.97 0h-3.16a8.095 8.095 0 0 1-4.74 3.44.568.568 0 0 0 0 1.1zm-46.803 24.139a1.459 1.459 0 1 0 0-2.918 1.459 1.459 0 0 0 0 2.918zM78.202 10.921l10.296 4.64 10.295-4.641a2.334 2.334 0 0 0 1.375-2.128V0H89.675a4.589 4.589 0 0 0 2.408 1.57.322.322 0 0 1 0 .623 4.596 4.596 0 0 0-3.274 3.274.322.322 0 0 1-.623 0 4.596 4.596 0 0 0-3.274-3.274.322.322 0 0 1 0-.623A4.59 4.59 0 0 0 87.319 0L76.827.001v8.792c0 .917.538 1.75 1.375 2.128zm337.92 16.055a1.945 1.945 0 1 1 0 3.89 1.945 1.945 0 0 1 0-3.89zm-4.462 4.845l4.182 2.415a.56.56 0 0 0 .56 0l4.183-2.415c.173-.1.28-.285.28-.485v-4.83a.56.56 0 0 0-.28-.485l-4.183-2.415a.56.56 0 0 0-.56 0l-4.182 2.415a.56.56 0 0 0-.28.485v4.83c0 .2.106.385.28.485zM65.567 62.173a1.459 1.459 0 1 0 0-2.917 1.459 1.459 0 0 0 0 2.917zm61.837 6.4l24.616 7.335-24.616 7.331-24.616-7.331 24.616-7.334zm16.701 27.244a15.871 15.871 0 0 0-4.03-.518c-4.77 0-9.283 2.125-12.671 5.836-3.389-3.71-7.902-5.836-12.672-5.836-1.366 0-2.713.174-4.03.518a24.51 24.51 0 0 1-.115-2.368c0-3.8.843-7.445 2.455-10.668l13.492 4.019a3.06 3.06 0 0 0 1.74 0l13.492-4.02c1.611 3.224 2.455 6.869 2.455 10.67 0 .786-.04 1.576-.116 2.367zM92.99 59.365l-7.7 3.546 1.658 8.313-6.226 5.75 4.144 7.395-4.144 7.393 6.226 5.752-1.657 8.312 7.699 3.546.993 8.417 8.418.993 3.545 7.7 8.313-1.658 5.751 6.227 7.394-4.145 7.393 4.145 5.751-6.227 8.313 1.657 3.546-7.699 8.417-.993.993-8.417 7.7-3.546-1.657-8.312 6.226-5.752-4.145-7.393 4.145-7.394-6.226-5.751 1.656-8.313-7.699-3.546-.993-8.417-8.417-.993-3.546-7.7-8.313 1.658-5.75-6.227-7.394 4.145-7.394-4.145-5.751 6.227-8.313-1.657-3.545 7.699-8.418.993-.993 8.417zm229.72 95.847a.568.568 0 0 0-1.1 0 8.098 8.098 0 0 1-5.77 5.77.57.57 0 0 0 0 1.1c2.82.74 5.03 2.95 5.77 5.77a.569.569 0 0 0 1.1 0 8.1 8.1 0 0 1 5.77-5.77.568.568 0 0 0 0-1.1 8.099 8.099 0 0 1-5.77-5.77zM205.608 80.894a1.945 1.945 0 1 1 0 3.89 1.945 1.945 0 0 1 0-3.89zm-4.463 4.844l4.182 2.416a.562.562 0 0 0 .56 0l4.183-2.416c.173-.1.28-.284.28-.484v-4.83a.56.56 0 0 0-.28-.485l-4.183-2.415a.559.559 0 0 0-.56 0l-4.182 2.415a.56.56 0 0 0-.28.485v4.83c0 .2.106.385.28.484zm28.178-77.25V0h-2.678a4.659 4.659 0 0 0-1.99 3.82 4.669 4.669 0 0 0 4.668 4.668zm118.291 57.904h3.202c.523 0 1.055.427 1.183.95l.489 2c12.351 4.34 19.593-7.413 32.608-.98l5.227 21.386c-13.014-6.434-20.256 5.32-32.607.98l2.607 10.667c.128.523-.195.95-.718.95h-3.201c-.524 0-1.055-.427-1.183-.95l-8.324-34.053c-.128-.523.195-.95.717-.95zm20.982 64.659c25.782 0 46.682-20.9 46.682-46.682 0-25.782-20.9-46.683-46.682-46.683-25.782 0-46.683 20.9-46.683 46.683 0 25.781 20.9 46.682 46.683 46.682zm-120.6-66.544c25.781 0 46.682-20.9 46.682-46.682V0h-19.496a9.289 9.289 0 0 1 .824 3.82 9.337 9.337 0 0 1-9.337 9.337c0 1.289-.131 2.547-.38 3.763-1.74 8.509-9.27 14.91-18.293 14.91 5.156 0 9.337 4.18 9.337 9.336h-18.674a9.337 9.337 0 0 1 9.337-9.336c-10.313 0-18.673-8.36-18.673-18.673-5.156 0-9.337-4.18-9.337-9.337 0-1.362.299-2.653.823-3.82h-19.496v17.825c0 25.782 20.9 46.682 46.683 46.682zM383.3 149.754a2.431 2.431 0 1 0 4.862 0 2.431 2.431 0 0 0-4.862 0zM53.49 17.824A46.534 46.534 0 0 0 49.962 0H7.676l4.22 12.986h16.463l-13.32 9.677 5.088 15.658-13.32-9.677L0 33.59V64.01c2.222.325 4.495.496 6.808.496 25.782 0 46.682-20.9 46.682-46.682zM14.861 281.13a2.868 2.868 0 1 0 .002 5.736 2.868 2.868 0 0 0-.002-5.736zm-3.215 11.65H1.969c-.816 0-1.512.377-1.969.94v3.239a8.03 8.03 0 0 0 2.559 2.586h8.498a8.019 8.019 0 0 0 2.856-3.108c.859-1.665-.392-3.657-2.266-3.657zM57.795 77.637h-1.431v1.432a.716.716 0 0 1-1.432 0v-1.432h-1.433a.716.716 0 0 1 0-1.431h1.433v-1.433a.716.716 0 1 1 1.432 0v1.433h1.431a.716.716 0 1 1 0 1.431zm3.557-4.423l-5.346-3.086a.717.717 0 0 0-.717 0l-5.346 3.086a.716.716 0 0 0-.358.62v6.174c0 .256.137.492.358.62l5.346 3.087a.72.72 0 0 0 .717 0l5.346-3.087a.716.716 0 0 0 .358-.62v-6.173a.717.717 0 0 0-.358-.62zM1.619 283.997A2.865 2.865 0 0 0 0 281.418v5.158a2.865 2.865 0 0 0 1.62-2.579zm57.473-61.015a8.1 8.1 0 0 1-5.77-5.77.568.568 0 0 0-1.1 0 8.1 8.1 0 0 1-5.77 5.77.568.568 0 0 0 0 1.1 8.1 8.1 0 0 1 5.77 5.77.569.569 0 0 0 1.1 0 8.1 8.1 0 0 1 5.77-5.77.568.568 0 0 0 0-1.1zm-11.102 32.9L6.808 237.318 0 240.386v23.157c2.182-.366 4.46-.55 6.808-.55 11.097 0 20.684 4.034 25.58 12.627a1.455 1.455 0 1 0 1.186 2.39c.419.975.788 1.995 1.096 3.07 2.54 8.853-3.118 13.027-10.325 14.997a18.045 18.045 0 0 1-1.286 3.468H53.49v-35.152a9.336 9.336 0 0 0-5.5-8.511zm-7.786-51.256a.322.322 0 0 0-.624 0 4.595 4.595 0 0 1-3.274 3.274.322.322 0 0 0 0 .623 4.596 4.596 0 0 1 3.274 3.274.323.323 0 0 0 .624 0 4.597 4.597 0 0 1 3.273-3.274.322.322 0 0 0 0-.623 4.595 4.595 0 0 1-3.273-3.274zM270.97 5.636a4.67 4.67 0 0 0 0-3.634 4.685 4.685 0 0 0-1.63-2.002h-2.671v8.488a4.675 4.675 0 0 0 4.302-2.852zM5.94 0H0v12.986h1.72L5.94 0zm24.617 84.054a2.432 2.432 0 1 0 4.864 0 2.432 2.432 0 0 0-4.864 0zm386.335 65.74v1.432h1.432a.716.716 0 0 1 0 1.432h-1.432v1.432a.717.717 0 0 1-1.433 0v-1.432h-1.431a.716.716 0 1 1 0-1.432h1.431v-1.432a.717.717 0 0 1 1.433 0zm-1.074-4.645l-5.346 3.086a.717.717 0 0 0-.359.62v6.174c0 .256.137.492.359.62l5.346 3.087a.718.718 0 0 0 .716 0l5.346-3.087a.716.716 0 0 0 .358-.62v-6.174a.718.718 0 0 0-.358-.62l-5.346-3.086a.716.716 0 0 0-.716 0zM47.99 179.03a9.336 9.336 0 0 0 5.5-8.512v-39.213a9.336 9.336 0 0 0-5.5-8.512L6.808 104.23 0 107.298v35.451c7.304-6.821 17.738-9.428 25.354-10.395-1.01 7.869-3.743 18.774-11.038 26.067h.002c-4.055 4.054-9.2 6.696-14.318 8.42v27.685l6.808 3.069L47.99 179.03z"/>
    </g>
</svg>
