<svg id="Layer_1" data-name="Layer 1" xmlns="http://www.w3.org/2000/svg" xmlns:xlink="http://www.w3.org/1999/xlink" viewBox="0 0 700 350"><defs>
<style>
.cls-1,.cls-17,.cls-18,.cls-7{fill:none;}.cls-2,.cls-32,.cls-5{fill:#666e95;}.cls-2{opacity:0.3;}.cls-3{opacity:0.4;}.cls-4{clip-path:url(#clip-path);}.cls-5,.cls-6,.cls-7{stroke:#4a4f80;}.cls-10,.cls-11,.cls-12,.cls-17,.cls-18,.cls-19,.cls-23,.cls-25,.cls-26,.cls-27,.cls-28,.cls-33,.cls-34,.cls-5,.cls-6,.cls-7,.cls-9{stroke-linecap:round;}.cls-10,.cls-11,.cls-12,.cls-15,.cls-17,.cls-18,.cls-19,.cls-23,.cls-25,.cls-26,.cls-27,.cls-28,.cls-29,.cls-30,.cls-31,.cls-32,.cls-33,.cls-34,.cls-5,.cls-6,.cls-7,.cls-9{stroke-linejoin:round;}.cls-10,.cls-12,.cls-13,.cls-14,.cls-15,.cls-17,.cls-20,.cls-22,.cls-23,.cls-25,.cls-26,.cls-27,.cls-28,.cls-29,.cls-30,.cls-31,.cls-32,.cls-33,.cls-34,.cls-5,.cls-6,.cls-7{stroke-width:3.5px;}.cls-26,.cls-31,.cls-6,.cls-8{fill:#4a4f80;}.cls-10,.cls-11,.cls-14,.cls-9{fill:#6cc7be;}.cls-10,.cls-11,.cls-12,.cls-13,.cls-14,.cls-15,.cls-17,.cls-18,.cls-19,.cls-20,.cls-21,.cls-22,.cls-23,.cls-24,.cls-25,.cls-26,.cls-27,.cls-29,.cls-30,.cls-31,.cls-32,.cls-33,.cls-34,.cls-9{stroke:#282c4c;}.cls-9{stroke-width:3.67px;}.cls-11{stroke-width:3.67px;}.cls-12,.cls-15,.cls-20,.cls-24{fill:#f48667;}.cls-13,.cls-16,.cls-30,.cls-34{fill:#282c4c;}.cls-13,.cls-14,.cls-20,.cls-21,.cls-22,.cls-24{stroke-miterlimit:10;}.cls-18{stroke-width:3.42px;}.cls-19,.cls-27{fill:#56bcde;}.cls-19{stroke-width:5.1px;}.cls-21{fill:#f1717e;stroke-width:3.21px;}.cls-22,.cls-23{fill:#545faa;}.cls-24{stroke-width:3.24px;}.cls-25,.cls-28{fill:#b5445b;}.cls-28{stroke:#b5445b;}.cls-29,.cls-33{fill:#fff;}</style>
<clipPath id="clip-path">
<path class="cls-1" d="M663.51,194.44h14.23a19.44,19.44,0,0,0,19.42-20.38c-.49-10.46-9.5-18.5-20-18.5H636.32a19.44,19.44,0,0,1-19.42-20.39c.49-10.46,9.5-18.5,20-18.5h4.31A19.44,19.44,0,0,0,660.6,96.28c-.49-10.46-9.5-18.5-20-18.5H527.43A19.44,19.44,0,0,1,508,57.39c.49-10.45,9.5-18.5,20-18.5H574.1A19.45,19.45,0,0,0,593.52,18.5C593,8.05,584,0,573.55,0H153.61a19.44,19.44,0,0,0-19.42,20.38c.49,10.46,9.5,18.51,20,18.51h25.21A19.45,19.45,0,0,1,198.8,59.27c-.5,10.46-9.5,18.51-20,18.51H27.71A19.44,19.44,0,0,0,8.29,98.16c.49,10.46,9.5,18.51,20,18.51H88a19.44,19.44,0,0,1,19.32,21.61c-1.08,9.95-9.87,17.28-19.87,17.28H19.54A19.44,19.44,0,0,0,.12,175.94c.49,10.46,9.5,18.5,20,18.5H46.67a19.45,19.45,0,0,1,19.42,20.39c-.49,10.46-9.5,18.5-20,18.5H33.54a19.44,19.44,0,0,0-19.42,20.39c.49,10.46,9.5,18.5,20,18.5H89.93a19.44,19.44,0,0,1,19.42,20.39c-.49,10.45-9.5,18.5-20,18.5H72.43A19.44,19.44,0,0,0,53,331.5C53.5,342,62.51,350,73,350H619.31a19.45,19.45,0,0,0,19.42-20.38c-.49-10.46-9.5-18.51-20-18.51h-5.29a19.44,19.44,0,0,1-19.42-20.38c.49-10.46,9.5-18.51,20-18.51h52.92a19.46,19.46,0,0,0,19.43-20.38c-.5-10.46-9.5-18.51-20-18.51H663A19.44,19.44,0,0,1,643.54,213C644,202.49,653,194.44,663.51,194.44Z"/></clipPath></defs><title>badgr_promote</title>
<rect class="cls-1" width="700" height="350"/>
<path class="cls-2" d="M663.51,194.44h14.23a19.44,19.44,0,0,0,19.42-20.38c-.49-10.46-9.5-18.5-20-18.5H636.32a19.44,19.44,0,0,1-19.42-20.39c.49-10.46,9.5-18.5,20-18.5h4.31A19.44,19.44,0,0,0,660.6,96.28c-.49-10.46-9.5-18.5-20-18.5H527.43A19.44,19.44,0,0,1,508,57.39c.49-10.45,9.5-18.5,20-18.5H574.1A19.45,19.45,0,0,0,593.52,18.5C593,8.05,584,0,573.55,0H153.61a19.44,19.44,0,0,0-19.42,20.38c.49,10.46,9.5,18.51,20,18.51h25.21A19.45,19.45,0,0,1,198.8,59.27c-.5,10.46-9.5,18.51-20,18.51H27.71A19.44,19.44,0,0,0,8.29,98.16c.49,10.46,9.5,18.51,20,18.51H88a19.44,19.44,0,0,1,19.32,21.61c-1.08,9.95-9.87,17.28-19.87,17.28H19.54A19.44,19.44,0,0,0,.12,175.94c.49,10.46,9.5,18.5,20,18.5H46.67a19.45,19.45,0,0,1,19.42,20.39c-.49,10.46-9.5,18.5-20,18.5H33.54a19.44,19.44,0,0,0-19.42,20.39c.49,10.46,9.5,18.5,20,18.5H89.93a19.44,19.44,0,0,1,19.42,20.39c-.49,10.45-9.5,18.5-20,18.5H72.43A19.44,19.44,0,0,0,53,331.5C53.5,342,62.51,350,73,350H619.31a19.45,19.45,0,0,0,19.42-20.38c-.49-10.46-9.5-18.51-20-18.51h-5.29a19.44,19.44,0,0,1-19.42-20.38c.49-10.46,9.5-18.51,20-18.51h52.92a19.46,19.46,0,0,0,19.43-20.38c-.5-10.46-9.5-18.51-20-18.51H663A19.44,19.44,0,0,1,643.54,213C644,202.49,653,194.44,663.51,194.44Z"/><g class="cls-3"><g class="cls-4">

<rect class="cls-5" x="248.01" y="14.15" width="201.25" height="292.1"/>
<rect class="cls-6" x="262.6" y="28.73" width="172.08" height="277.52"/>
<rect class="cls-5" x="119.68" y="28.73" width="106.46" height="96.68"/>
<rect class="cls-5" x="134.26" y="43.32" width="77.29" height="67.52"/>
<rect class="cls-5" x="-8.65" y="28.73" width="106.46" height="96.68"/>
<rect class="cls-5" x="5.93" y="43.32" width="77.29" height="67.52"/>
<rect class="cls-5" x="599.47" y="28.73" width="106.46" height="96.68"/>
<rect class="cls-5" x="614.06" y="43.32" width="77.29" height="67.52"/>
<rect class="cls-5" x="471.14" y="28.73" width="106.46" height="96.68"/>
<rect class="cls-5" x="485.72" y="43.32" width="77.29" height="67.52"/><line class="cls-7" x1="134.26" y1="43.32" x2="119.68" y2="28.73"/><line class="cls-7" x1="211.56" y1="43.32" x2="226.14" y2="28.73"/><line class="cls-7" x1="134.26" y1="110.83" x2="119.68" y2="125.42"/><line class="cls-7" x1="211.56" y1="110.83" x2="226.14" y2="125.42"/><line class="cls-7" x1="614.06" y1="43.32" x2="599.47" y2="28.73"/><line class="cls-7" x1="691.35" y1="43.32" x2="705.93" y2="28.73"/><line class="cls-7" x1="614.06" y1="110.83" x2="599.47" y2="125.42"/><line class="cls-7" x1="691.35" y1="110.83" x2="705.93" y2="125.42"/><line class="cls-7" x1="485.72" y1="43.32" x2="471.14" y2="28.73"/><line class="cls-7" x1="563.01" y1="43.32" x2="577.6" y2="28.73"/><line class="cls-7" x1="485.72" y1="110.83" x2="471.14" y2="125.42"/><line class="cls-7" x1="563.01" y1="110.83" x2="577.6" y2="125.42"/><line class="cls-7" x1="5.93" y1="43.32" x2="-8.65" y2="28.73"/><line class="cls-7" x1="83.22" y1="43.32" x2="97.81" y2="28.73"/><line class="cls-7" x1="5.93" y1="110.83" x2="-8.65" y2="125.42"/><line class="cls-7" x1="83.22" y1="110.83" x2="97.81" y2="125.42"/>
<path class="cls-5" d="M218.35,17.15V54.58a749.75,749.75,0,0,0,260.58,0V17.15A749.75,749.75,0,0,1,218.35,17.15Zm11.34,17.6a5.11,5.11,0,0,1-4.11-4.85,3.38,3.38,0,0,1,4.11-3.42,5.09,5.09,0,0,1,4.1,4.83A3.39,3.39,0,0,1,229.69,34.75Zm237.9,0a3.38,3.38,0,0,1-4.1-3.44,5.08,5.08,0,0,1,4.1-4.83,3.38,3.38,0,0,1,4.11,3.42A5.11,5.11,0,0,1,467.59,34.75Z"/>
<path class="cls-8" d="M250.11,41.75c0-3,1.71-4.78,4.4-4.41a4,4,0,0,1,3.06,2,1.33,1.33,0,0,1,.25.72,1.07,1.07,0,0,1-1.24,1.08,1.47,1.47,0,0,1-1-.66,1.52,1.52,0,0,0-1.08-.71c-1-.14-1.6.86-1.6,2.38s.59,2.67,1.6,2.81a1.14,1.14,0,0,0,1.11-.48,1.05,1.05,0,0,1,1-.41,1.43,1.43,0,0,1,1.22,1.37,1,1,0,0,1-.22.63,3,3,0,0,1-3.1,1.32C251.82,47,250.11,44.73,250.11,41.75Z"/>
<path class="cls-8" d="M262.83,38.41c2.7.33,4.42,2.58,4.42,5.56s-1.72,4.83-4.42,4.49-4.43-2.62-4.43-5.58S260.12,38.07,262.83,38.41Zm0,2.43c-1.05-.13-1.62.88-1.62,2.4s.57,2.66,1.62,2.79,1.63-.89,1.63-2.4S263.87,41,262.83,40.84Z"/>
<path class="cls-8" d="M273.2,48.77c-.9-1.81-1.35-2.72-2.26-4.53V48a1.2,1.2,0,0,1-1.37,1.22,1.58,1.58,0,0,1-1.35-1.52V40.77a1.49,1.49,0,0,1,1.69-1.51,1.89,1.89,0,0,1,1.49,1.09l2.05,4.15V41a1.2,1.2,0,0,1,1.36-1.22,1.56,1.56,0,0,1,1.35,1.51v7.06a1.4,1.4,0,0,1-1.57,1.42A1.81,1.81,0,0,1,273.2,48.77Z"/>
<path class="cls-8" d="M279.14,48.85V42.78l-.95-.09A1.37,1.37,0,0,1,277,41.36a1.05,1.05,0,0,1,1.19-1.07l4.66.45a1.33,1.33,0,0,1,1.2,1.3,1.08,1.08,0,0,1-1.2,1.1l-.93-.09v6.07a1.25,1.25,0,0,1-1.39,1.26A1.58,1.58,0,0,1,279.14,48.85Z"/>
<path class="cls-8" d="M284.88,49.39V42.16a1.26,1.26,0,0,1,1.39-1.26,1.56,1.56,0,0,1,1.37,1.51v7.23a1.26,1.26,0,0,1-1.37,1.28A1.56,1.56,0,0,1,284.88,49.39Z"/>
<path class="cls-8" d="M294,50.71l-2.27-4.47V50a1.24,1.24,0,0,1-1.37,1.25A1.53,1.53,0,0,1,289,49.79V42.85a1.54,1.54,0,0,1,1.7-1.56,1.84,1.84,0,0,1,1.49,1.05c.82,1.64,1.23,2.45,2.06,4.09V42.94a1.24,1.24,0,0,1,1.35-1.26A1.49,1.49,0,0,1,297,43.15V50.2a1.45,1.45,0,0,1-1.57,1.47A1.73,1.73,0,0,1,294,50.71Z"/>
<path class="cls-8" d="M298.41,43.28a1.29,1.29,0,0,1,1.4-1.3,1.53,1.53,0,0,1,1.39,1.49V48.4a1.21,1.21,0,0,0,1.2,1.38c.81,0,1.19-.42,1.19-1.22V43.63a1.3,1.3,0,0,1,1.4-1.31,1.52,1.52,0,0,1,1.39,1.48v4.9c0,2.36-1.54,3.66-4,3.5s-4-1.66-4-4Z"/>
<path class="cls-8" d="M307.79,51.1V43.87a1.3,1.3,0,0,1,1.39-1.3A1.48,1.48,0,0,1,310.55,44v7.23a1.31,1.31,0,0,1-1.37,1.32A1.49,1.49,0,0,1,307.79,51.1Z"/>
<path class="cls-8" d="M317,52.11l-2.27-4.39V51.5a1.3,1.3,0,0,1-1.37,1.3A1.47,1.47,0,0,1,312,51.36V44.42a1.61,1.61,0,0,1,1.69-1.62,1.75,1.75,0,0,1,1.49,1l2.07,4V44.34A1.3,1.3,0,0,1,318.57,43a1.44,1.44,0,0,1,1.36,1.43v7A1.52,1.52,0,0,1,318.35,53,1.68,1.68,0,0,1,317,52.11Z"/>
<path class="cls-8" d="M329.09,48.9v1.81a1.94,1.94,0,0,1-.77,1.74,4.48,4.48,0,0,1-2.94.88c-2.71-.09-4.48-2.16-4.48-5.19s1.78-5,4.48-4.86a3.49,3.49,0,0,1,2.81,1.47,1.11,1.11,0,0,1,.32.78,1.18,1.18,0,0,1-1.23,1.19,1.28,1.28,0,0,1-.94-.5,1.22,1.22,0,0,0-1-.51c-.95,0-1.66.73-1.66,2.54s.71,2.62,1.7,2.65a1.4,1.4,0,0,0,1.07-.33v-.66h-.31A1.24,1.24,0,0,1,325,48.68a1.19,1.19,0,0,1,1.18-1.2l1.61.05A1.31,1.31,0,0,1,329.09,48.9Z"/>
<path class="cls-8" d="M333.29,51.9V45.11a1.28,1.28,0,0,1,1.46-1.43l3.66.07a1.19,1.19,0,0,1,1.17,1.18,1.15,1.15,0,0,1-1.17,1.16l-2.35,0v1.29l2.25,0a1.2,1.2,0,0,1,1.17,1.19,1.16,1.16,0,0,1-1.17,1.16l-2.25,0v1.4l2.35,0a1.19,1.19,0,0,1,1.17,1.18,1.15,1.15,0,0,1-1.17,1.17l-3.66-.06A1.36,1.36,0,0,1,333.29,51.9Z"/>
<path class="cls-8" d="M340.63,52V45.23a1.3,1.3,0,0,1,1.46-1.44l2.22,0c2.87,0,4.57,1.95,4.57,4.86s-1.68,4.88-4.55,4.86l-2.24,0A1.34,1.34,0,0,1,340.63,52Zm3.68-.9c1.09,0,1.76-.91,1.76-2.45s-.61-2.45-1.76-2.46h-.92v4.91Z"/>
<path class="cls-8" d="M349.85,45.07a1.4,1.4,0,0,1,2.8,0V50c0,.8.37,1.29,1.2,1.29S355,50.77,355,50V45.05a1.43,1.43,0,0,1,1.4-1.42A1.39,1.39,0,0,1,357.83,45v4.9c0,2.36-1.54,3.77-4,3.79s-4-1.37-4-3.71Z"/>
<path class="cls-8" d="M358.8,48.62c0-3,1.73-5.06,4.44-5.11A3.37,3.37,0,0,1,366.31,45a1.09,1.09,0,0,1,.25.68A1.27,1.27,0,0,1,365.32,47a1.23,1.23,0,0,1-1-.5,1.24,1.24,0,0,0-1.08-.55c-1,0-1.61,1.11-1.61,2.63s.59,2.58,1.61,2.56a1.32,1.32,0,0,0,1.11-.65,1.26,1.26,0,0,1,1-.56,1.19,1.19,0,0,1,1.23,1.18,1.16,1.16,0,0,1-.22.66,3.63,3.63,0,0,1-3.12,1.81C360.53,53.62,358.8,51.59,358.8,48.62Z"/>
<path class="cls-8" d="M375.23,51.84a1.4,1.4,0,0,1-1.33,1.39,1.28,1.28,0,0,1-1.3-1l-.12-.51-2.74.09c0,.2-.07.3-.11.49a1.37,1.37,0,0,1-1.31,1.09,1.29,1.29,0,0,1-1.33-1.3,1.59,1.59,0,0,1,.06-.38c.78-2.72,1.18-4.08,2-6.81a2.3,2.3,0,0,1,2.11-1.6,2.1,2.1,0,0,1,2.09,1.47c.78,2.67,1.18,4,2,6.68A.9.9,0,0,1,375.23,51.84Zm-3.29-2.43c-.33-1.42-.49-2.13-.82-3.54-.34,1.44-.5,2.15-.84,3.59Z"/>
<path class="cls-8" d="M376.76,51.73V45.66l-.95,0a1.15,1.15,0,0,1-1.2-1.16,1.25,1.25,0,0,1,1.2-1.24c1.86-.08,2.8-.11,4.66-.2a1.13,1.13,0,0,1,1.2,1.14,1.27,1.27,0,0,1-1.2,1.26l-.93,0v6.06a1.48,1.48,0,0,1-1.39,1.46A1.35,1.35,0,0,1,376.76,51.73Z"/>
<path class="cls-8" d="M382.51,51.47V44.24a1.48,1.48,0,0,1,1.39-1.45,1.31,1.31,0,0,1,1.37,1.32v7.22a1.47,1.47,0,0,1-1.37,1.47A1.31,1.31,0,0,1,382.51,51.47Z"/>
<path class="cls-8" d="M390.69,42.4c2.72-.16,4.44,1.78,4.44,4.75s-1.72,5.15-4.44,5.31-4.45-1.82-4.45-4.78S388,42.57,390.69,42.4Zm0,2.44c-1.06.06-1.63,1.17-1.63,2.69s.57,2.56,1.63,2.5,1.63-1.2,1.63-2.7S391.74,44.77,390.69,44.84Z"/>
<path class="cls-8" d="M401.1,50.87l-2.27-4.12v3.77A1.5,1.5,0,0,1,397.46,52a1.27,1.27,0,0,1-1.36-1.28V43.78A1.86,1.86,0,0,1,397.8,42a1.55,1.55,0,0,1,1.49.83l2.06,3.77V43.07a1.5,1.5,0,0,1,1.36-1.48,1.25,1.25,0,0,1,1.35,1.27v7a1.74,1.74,0,0,1-1.57,1.71A1.43,1.43,0,0,1,401.1,50.87Z"/>
<path class="cls-8" d="M408.46,49.52V42.73a1.45,1.45,0,0,1,1.47-1.58l3.64-.33a1,1,0,0,1,1.17,1,1.31,1.31,0,0,1-1.17,1.29l-2.35.22v1.28l2.25-.2a1,1,0,0,1,1.17,1,1.32,1.32,0,0,1-1.17,1.29l-2.25.21v1.4l2.35-.22a1,1,0,0,1,1.17,1.06,1.31,1.31,0,0,1-1.17,1.29l-3.64.33A1.21,1.21,0,0,1,408.46,49.52Z"/>
<path class="cls-8" d="M417.2,48.78l-1.93-6.46a1.76,1.76,0,0,1-.06-.4,1.58,1.58,0,0,1,1.4-1.54,1.25,1.25,0,0,1,1.36.95l1.33,5.43c.52-2.28.79-3.42,1.31-5.7A1.62,1.62,0,0,1,422,39.84a1.24,1.24,0,0,1,1.4,1.25,1.48,1.48,0,0,1-.07.42l-1.93,6.85a2.49,2.49,0,0,1-2.08,1.77A1.94,1.94,0,0,1,417.2,48.78Z"/>
<path class="cls-8" d="M424.2,48V41.21a1.49,1.49,0,0,1,1.46-1.62l3.64-.41a1,1,0,0,1,1.17,1,1.36,1.36,0,0,1-1.17,1.32l-2.34.26v1.29l2.24-.26a1,1,0,0,1,1.16,1,1.35,1.35,0,0,1-1.16,1.32l-2.24.25v1.4l2.34-.26a1,1,0,0,1,1.17,1,1.35,1.35,0,0,1-1.17,1.31l-3.64.41A1.17,1.17,0,0,1,424.2,48Z"/>
<path class="cls-8" d="M436.48,47.32l-2.25-4v3.77a1.6,1.6,0,0,1-1.37,1.54,1.2,1.2,0,0,1-1.36-1.21V40.48a2,2,0,0,1,1.69-1.91,1.43,1.43,0,0,1,1.49.76L436.73,43V39.51A1.61,1.61,0,0,1,438.08,38a1.19,1.19,0,0,1,1.36,1.2v7.06A1.87,1.87,0,0,1,437.87,48,1.37,1.37,0,0,1,436.48,47.32Z"/>
<path class="cls-8" d="M442.41,46V40l-1,.12a1,1,0,0,1-1.19-1,1.4,1.4,0,0,1,1.19-1.35L446.1,37a1,1,0,0,1,1.19,1,1.42,1.42,0,0,1-1.19,1.38l-.93.13v6.06a1.66,1.66,0,0,1-1.38,1.59A1.19,1.19,0,0,1,442.41,46Z"/>
<path class="cls-7" d="M467.71,16.11V28.75"/>
<path class="cls-7" d="M229.69,16.13V28.77"/>
<path class="cls-7" d="M469.57,18.28a7.6,7.6,0,0,1-7.43-2.6,7.13,7.13,0,0,1,.25-8.2,2.41,2.41,0,0,1,.81-.78c.91-.48,1.81.21,2.32,1,2.14,3.09,2.14,7.4,2.07,11.47A81.09,81.09,0,0,1,471,1.41a21.19,21.19,0,0,1,2.38-5.11,2.93,2.93,0,0,1,1.31-1.21,1.37,1.37,0,0,1,1.61.68,4,4,0,0,1,.34,1.92,30.36,30.36,0,0,1-7.73,19.52l-.45,1"/>
<path class="cls-7" d="M227.71,18.28a7.61,7.61,0,0,0,7.43-2.6,7.13,7.13,0,0,0-.25-8.2,2.41,2.41,0,0,0-.81-.78c-.91-.48-1.81.21-2.32,1-2.14,3.09-2.14,7.4-2.08,11.47a81.07,81.07,0,0,0-3.39-17.71,21.19,21.19,0,0,0-2.38-5.11,2.93,2.93,0,0,0-1.31-1.21,1.36,1.36,0,0,0-1.61.68,3.92,3.92,0,0,0-.34,1.92,30.36,30.36,0,0,0,7.73,19.52l.45,1"/><line class="cls-7" x1="468.34" y1="29.92" x2="511.36" y2="-13.1"/><line class="cls-7" x1="228.93" y1="29.92" x2="185.91" y2="-13.1"/>
<rect class="cls-5" x="-3.61" y="196.58" width="10.1" height="109.13"/>
<rect class="cls-5" x="6.5" y="196.58" width="10.1" height="109.13"/>
<rect class="cls-5" x="16.6" y="196.58" width="10.1" height="109.13"/>
<rect class="cls-5" x="26.7" y="196.58" width="10.1" height="109.13"/>
<rect class="cls-5" x="36.81" y="196.58" width="10.1" height="109.13"/>
<rect class="cls-5" x="46.91" y="196.58" width="10.1" height="109.13"/>
<rect class="cls-5" x="57.01" y="196.58" width="10.1" height="109.13"/>
<rect class="cls-5" x="67.12" y="196.58" width="10.1" height="109.13"/>
<rect class="cls-5" x="77.22" y="196.58" width="10.1" height="109.13"/>
<rect class="cls-5" x="87.32" y="196.58" width="10.1" height="109.13"/>
<rect class="cls-5" x="97.42" y="196.58" width="10.1" height="109.13"/>
<rect class="cls-5" x="107.53" y="196.58" width="10.1" height="109.13"/>
<rect class="cls-5" x="117.63" y="196.58" width="10.1" height="109.13"/>
<rect class="cls-5" x="127.73" y="196.58" width="10.1" height="109.13"/>
<rect class="cls-5" x="137.84" y="196.58" width="10.1" height="109.13"/>
<rect class="cls-5" x="147.94" y="196.58" width="10.1" height="109.13"/>
<rect class="cls-5" x="158.04" y="196.58" width="10.1" height="109.13"/>
<rect class="cls-5" x="168.15" y="196.58" width="10.1" height="109.13"/>
<rect class="cls-5" x="178.25" y="196.58" width="10.1" height="109.13"/>
<rect class="cls-5" x="188.35" y="196.58" width="10.1" height="109.13"/>
<rect class="cls-5" x="198.45" y="196.58" width="10.1" height="109.13"/>
<rect class="cls-5" x="208.56" y="196.58" width="10.1" height="109.13"/>
<rect class="cls-5" x="218.66" y="196.58" width="10.1" height="109.13"/>
<rect class="cls-5" x="228.76" y="196.58" width="10.1" height="109.13"/>
<rect class="cls-5" x="238.87" y="196.58" width="10.1" height="109.13"/>
<rect class="cls-5" x="248.97" y="196.58" width="10.1" height="109.13"/>
<rect class="cls-5" x="259.07" y="196.58" width="10.1" height="109.13"/>
<rect class="cls-5" x="269.18" y="196.58" width="10.1" height="109.13"/>
<rect class="cls-5" x="279.28" y="196.58" width="10.1" height="109.13"/>
<rect class="cls-5" x="289.38" y="196.58" width="10.1" height="109.13"/>
<rect class="cls-5" x="299.48" y="196.58" width="10.1" height="109.13"/>
<rect class="cls-5" x="309.59" y="196.58" width="10.1" height="109.13"/>
<rect class="cls-5" x="319.69" y="196.58" width="10.1" height="109.13"/>
<rect class="cls-5" x="329.79" y="196.58" width="10.1" height="109.13"/>
<rect class="cls-5" x="339.9" y="196.58" width="10.1" height="109.13"/>
<rect class="cls-5" x="350" y="196.58" width="10.1" height="109.13"/>
<rect class="cls-5" x="360.1" y="196.58" width="10.1" height="109.13"/>
<rect class="cls-5" x="370.21" y="196.58" width="10.1" height="109.13"/>
<rect class="cls-5" x="380.31" y="196.58" width="10.1" height="109.13"/>
<rect class="cls-5" x="390.41" y="196.58" width="10.1" height="109.13"/>
<rect class="cls-5" x="400.52" y="196.58" width="10.1" height="109.13"/>
<rect class="cls-5" x="410.62" y="196.58" width="10.1" height="109.13"/>
<rect class="cls-5" x="420.72" y="196.58" width="10.1" height="109.13"/>
<rect class="cls-5" x="430.82" y="196.58" width="10.1" height="109.13"/>
<rect class="cls-5" x="440.93" y="196.58" width="10.1" height="109.13"/>
<rect class="cls-5" x="451.03" y="196.58" width="10.1" height="109.13"/>
<rect class="cls-5" x="461.13" y="196.58" width="10.1" height="109.13"/>
<rect class="cls-5" x="471.24" y="196.58" width="10.1" height="109.13"/>
<rect class="cls-5" x="481.34" y="196.58" width="10.1" height="109.13"/>
<rect class="cls-5" x="491.44" y="196.58" width="10.1" height="109.13"/>
<rect class="cls-5" x="501.55" y="196.58" width="10.1" height="109.13"/>
<rect class="cls-5" x="511.65" y="196.58" width="10.1" height="109.13"/>
<rect class="cls-5" x="521.75" y="196.58" width="10.1" height="109.13"/>
<rect class="cls-5" x="531.85" y="196.58" width="10.1" height="109.13"/>
<rect class="cls-5" x="541.96" y="196.58" width="10.1" height="109.13"/>
<rect class="cls-5" x="552.06" y="196.58" width="10.1" height="109.13"/>
<rect class="cls-5" x="562.16" y="196.58" width="10.1" height="109.13"/>
<rect class="cls-5" x="572.27" y="196.58" width="10.1" height="109.13"/>
<rect class="cls-5" x="582.37" y="196.58" width="10.1" height="109.13"/>
<rect class="cls-5" x="592.47" y="196.58" width="10.1" height="109.13"/>
<rect class="cls-5" x="602.58" y="196.58" width="10.1" height="109.13"/>
<rect class="cls-5" x="612.68" y="196.58" width="10.1" height="109.13"/>
<rect class="cls-5" x="622.78" y="196.58" width="10.1" height="109.13"/>
<rect class="cls-5" x="632.88" y="196.58" width="10.1" height="109.13"/>
<rect class="cls-5" x="642.99" y="196.58" width="10.1" height="109.13"/>
<rect class="cls-5" x="653.09" y="196.58" width="10.1" height="109.13"/>
<rect class="cls-5" x="663.19" y="196.58" width="10.1" height="109.13"/>
<rect class="cls-5" x="673.3" y="196.58" width="10.1" height="109.13"/>
<rect class="cls-5" x="683.4" y="196.58" width="10.1" height="109.13"/>
<rect class="cls-5" x="693.5" y="196.58" width="10.1" height="109.13"/>
<rect class="cls-5" x="-6.67" y="184.38" width="713.35" height="12.21"/>
<rect class="cls-5" x="-3.61" y="196.58" width="707.21" height="3.05"/></g></g>
<path class="cls-9" d="M599.4,223.88c1.76-23.21,1.55-41.66-3.29-64.21-3.18-14.83-7.77-29.4-8.57-44.67a89.64,89.64,0,0,1,11.64-49.15c1.24-2.13,3-4.43,5.2-4.18,3.18.36,4,5.24,3.86,8.93l-.47,20.29a13.91,13.91,0,0,1,11.42-7.32,4.12,4.12,0,0,1,3,.85c2,1.81,1,5.51-.22,8.13l-11,24.12c2-2.58,6,.65,5.92,4.11s-2.33,6.27-4.14,9.05c-4.84,7.48-7,16.76-8.46,25.92-3.76,24.1.25,48.58,1.14,73Z"/>
<path class="cls-10" d="M642.58,135.65c-3.22,7.77-17.31,20.53-18.36,27.35A19.76,19.76,0,0,1,635,157.62a2,2,0,0,1,2.46,2c-.23,5.2-10,9.27-14.48,13.25,2.27-.76,4.67-1.52,6.78-.81a5,5,0,0,1,2.84,6.18,9.24,9.24,0,0,1-3.09,3.9c-5.05,4.29-10.26,8.41-14.69,13.69a60.47,60.47,0,0,0-13.39,41.28c-2.56-19.21-.65-43.56,3.69-60.57A76.48,76.48,0,0,1,610,162.09c4.31-8.91,9.05-17.43,15.85-23.69A37.45,37.45,0,0,1,638.13,131,3.54,3.54,0,0,1,642.58,135.65Z"/>
<path class="cls-11" d="M545.12,105.83c4.32,10.06,21.52,25.71,23.29,34.71-3.9-3.67-8.4-5.84-12.76-6.12a2.44,2.44,0,0,0-2.66,2.93c.69,6.91,12.21,11.39,17.7,16.27-2.67-.79-5.48-1.57-7.85-.42s-4,5-2.75,8.53a11.68,11.68,0,0,0,3.86,4.9c6.14,5.24,12.45,10.22,18,16.84,11.46,13.77,18.66,34.47,18.71,53.8,1.38-25.9-2.78-58.21-9.15-80.5a111.6,111.6,0,0,0-6.84-18.83c-5.68-11.48-11.8-22.38-20.11-30.08a41.2,41.2,0,0,0-14.68-8.71C546.45,98.13,543.55,102.18,545.12,105.83Z"/>
<path class="cls-12" d="M630.32,206.52H568l-5.07,23.85a124.32,124.32,0,0,0,0,52l3.69,17.34c.79,3.75,5.25,6.51,10.48,6.51h44.13c5.23,0,9.69-2.76,10.48-6.51l3.69-17.34a124.32,124.32,0,0,0,0-52Z"/>
<path class="cls-13" d="M222.39,148.81s0-46.23,0-46.34a27,27,0,0,1,54,.11v46.23Z"/>
<path class="cls-14" d="M260.74,137.09H238a24.5,24.5,0,0,0-24.5,24.5v35.29h71.73V161.59A24.5,24.5,0,0,0,260.74,137.09Z"/>
<path class="cls-15" d="M257.92,140.85s-.1,6.94-8.6,6.94-8.49-6.94-8.49-6.94V126.54h17.09Z"/>

<path class="cls-15" d="M267,106.72v7.47a17.59,17.59,0,0,1-35.17-.08v-7.39c0-11.51,17.42-12.08,17.42-18.33C249.21,94.64,267,95.9,267,106.72Z"/>
<path class="cls-16" d="M253.72,119.9a4.63,4.63,0,0,1-9.25,0Z"/><polyline class="cls-17" points="251.26 109.37 251.26 114.51 247.38 114.51"/>
<circle class="cls-16" cx="258.27" cy="109.1" r="2.05"/>
<circle class="cls-16" cx="240.92" cy="109.1" r="2.05"/><line class="cls-18" x1="226.18" y1="196.88" x2="226.18" y2="166.48"/><line class="cls-18" x1="272.57" y1="196.88" x2="272.57" y2="166.48"/>
<path class="cls-16" d="M259.41,164.31l-2.93-1.19a4.52,4.52,0,0,0-8.05-1.44h0a6.29,6.29,0,0,1-8.81,1.34,9.47,9.47,0,0,0,9.48,9.48,7.57,7.57,0,0,0,7.55-7.05Z"/>
<path class="cls-14" d="M226.61,99a4.83,4.83,0,0,1-2.87-1.43l-1.82-1.82c-1.68-1.68-1.93-4.15-.57-5.51a3.16,3.16,0,0,1,2.64-.86,4.76,4.76,0,0,1,2.88,1.42l1.82,1.82c1.68,1.68,1.93,4.15.56,5.52A3.2,3.2,0,0,1,226.61,99Z"/>
<path class="cls-19" d="M369.82,134.18H330.18a19,19,0,0,0-19,19V194h77.56V153.14A19,19,0,0,0,369.82,134.18Z"/>
<path class="cls-15" d="M360.51,135S360.4,142,349.93,142,339.49,135,339.49,135V123.63h21Z"/><line class="cls-18" x1="326.81" y1="193.97" x2="326.81" y2="163.56"/><line class="cls-18" x1="373.19" y1="193.97" x2="373.19" y2="163.56"/>
<path class="cls-13" d="M373.78,81.77s0,14.3,0,14.4a23.78,23.78,0,0,1-47.55-.1V81.77s8.32-7.34,23.71-7.34a45.67,45.67,0,0,1,7.51.61C368.05,76.79,373.78,81.77,373.78,81.77Z"/>
<path class="cls-20" d="M367.57,101v10.23a17.57,17.57,0,0,1-35.14-.07V101C332.43,90.22,367.57,90.46,367.57,101Z"/><polyline class="cls-17" points="351.94 106.44 351.94 111.58 348.06 111.58"/>
<circle class="cls-16" cx="341.98" cy="106.92" r="2.05"/>
<circle class="cls-16" cx="358.02" cy="106.92" r="2.05"/>
<path class="cls-16" d="M354.62,117a4.62,4.62,0,0,1-9.24,0Z"/>
<polygon class="cls-19" points="350 142.82 342.81 150.71 331.32 133.94 336.2 129.99 350 142.82"/>
<polygon class="cls-19" points="350 142.82 357.19 150.71 368.68 133.94 363.8 129.99 350 142.82"/>
<path class="cls-21" d="M480.34,124.15c-7.75,0-3.52-2.64-3.52-16.4a26.52,26.52,0,1,0-53,0c0,14.77,5.22,16.4-3.47,16.4A14.57,14.57,0,0,0,405.45,139a14.91,14.91,0,0,0,14.86,14.86h60A14.9,14.9,0,0,0,495.19,139,15.18,15.18,0,0,0,480.34,124.15Z"/>
<path class="cls-22" d="M461.69,144.39H439a24.49,24.49,0,0,0-24.5,24.5v28h71.73v-28A24.49,24.49,0,0,0,461.69,144.39Z"/><line class="cls-23" x1="426.71" y1="196.88" x2="426.71" y2="173.26"/><line class="cls-23" x1="474.12" y1="196.88" x2="474.12" y2="173.26"/>
<path class="cls-24" d="M458.86,143.46v-9.63H441.78v9.63a7.21,7.21,0,0,1-1.36,4.23,8.81,8.81,0,0,0-1.77,5.25c0,5.51,5.23,8.52,11.67,8.52s11.67-3,11.67-8.52a8.86,8.86,0,0,0-1.76-5.25A7.15,7.15,0,0,1,458.86,143.46Z"/>
<path class="cls-15" d="M467.91,114v7.47a17.59,17.59,0,0,1-35.17-.08V114c0-11.51,17.42-12.08,17.42-18.33C450.16,101.93,467.91,103.19,467.91,114Z"/>
<path class="cls-16" d="M454.67,127.19a4.63,4.63,0,0,1-9.25,0Z"/><polyline class="cls-17" points="452.21 116.66 452.21 121.8 448.33 121.8"/>


    <circle class="eyes cls-16" cx="459.22" cy="116.4" r="2.05"/>
    <circle class="eyes cls-16" cx="441.87" cy="116.4" r="2.05"/>
<rect class="cls-25" x="122.41" y="197.12" width="455.18" height="109.13"/>
<rect class="cls-25" x="119.36" y="184.92" width="461.28" height="12.21"/>
<rect class="cls-26" x="122.41" y="197.12" width="455.18" height="3.05"/><line class="cls-17" x1="365.26" y1="221.17" x2="325.08" y2="261.35"/><line class="cls-17" x1="380.51" y1="221.17" x2="319.49" y2="282.2"/><line class="cls-17" x1="374.41" y1="242.53" x2="334.74" y2="282.2"/>

<g id="birdy">
<line class="cls-12" x1="152.82" y1="161.81" x2="152.82" y2="176.08"/><line class="cls-12" x1="159.76" y1="161.81" x2="159.76" y2="176.08"/>

<path class="cls-27" d="M175,146.9a11.36,11.36,0,0,0-20.61-6.59l-.09,0a15.82,15.82,0,0,1-22.12,3.38A23.79,23.79,0,0,0,156,167.43a19,19,0,0,0,19-19l-.11,0A11.66,11.66,0,0,0,175,146.9Z"/>

<polygon class="cls-12" points="181.99 146.9 173.26 150.43 169.74 146.9 173.26 143.37 181.99 146.9"/>
<circle class="cls-16" cx="167.09" cy="142.14" r="1.64"/>
</g>
<path class="cls-17" d="M573,133.64H486.7a43.17,43.17,0,0,0,34,42.17c-10.54,1.36-18.1,5-18.1,9.25h54.58c0-4.26-7.55-7.89-18.1-9.25A43.18,43.18,0,0,0,573,133.64Z"/>
<path class="cls-28" d="M500.91,153.44a33.14,33.14,0,0,0,57.9,0Z"/>
<polygon class="cls-29" points="563.03 185.06 534.6 185.06 539.19 155.72 558.45 155.72 563.03 185.06"/>

<polygon class="cls-30" points="539.19 155.72 537.11 169.01 560.53 169.01 558.45 155.72 539.19 155.72"/>
<polygon class="cls-29" points="563.03 166.72 534.6 166.72 539.19 137.38 558.45 137.38 563.03 166.72"/>
<polygon class="cls-30" points="539.19 137.38 537.11 150.67 560.53 150.67 558.45 137.38 539.19 137.38"/>
<polygon class="cls-29" points="563.03 148.38 534.6 148.38 539.19 119.03 558.45 119.03 563.03 148.38"/>
<polygon class="cls-30" points="69.84 313.6 176.76 313.6 195.73 176.13 88.81 176.13 69.84 313.6"/>
<polygon class="cls-31" points="88.81 176.13 69.84 313.6 79.66 313.6 98.62 176.13 88.81 176.13"/>
<polygon class="cls-32" points="216.09 313.6 109.18 313.6 90.21 176.13 197.12 176.13 216.09 313.6"/>
<polygon class="cls-23" points="158.24 281.77 123.73 263.32 118.64 226.41 148.06 207.95 182.57 226.41 187.66 263.32 158.24 281.77"/>
<polygon class="cls-33" points="150.5 225.66 158.33 238.06 172.29 240.04 163.72 249.7 167.94 263.32 154.81 256.89 143.46 263.32 143.92 249.7 132.68 240.04 146.09 238.06 150.5 225.66"/>
<path class="cls-34" d="M605.39,277.06a21.62,21.62,0,0,1,1.56,7.15,19.11,19.11,0,0,1-6.67,14.51,17.52,17.52,0,0,0,.36-2.83,18.35,18.35,0,0,0-8-15.92,20.54,20.54,0,0,1-9.32-16.91v-.51a10.21,10.21,0,0,0-10.21-10.2H559.21A10.21,10.21,0,0,0,549,262.55v45.21a5.84,5.84,0,0,0,5.83,5.84h2.55a5.82,5.82,0,0,0,5.65-4.43h6.21a5.82,5.82,0,0,0,5.64,4.43h6.78a18.18,18.18,0,0,0,2.57-.2,25.55,25.55,0,0,0,21.16-7.31A20.52,20.52,0,0,0,605.39,277.06Z"/>
<path class="cls-33" d="M573.06,252.35H559.21A10.21,10.21,0,0,0,549,262.55v45.21a5.84,5.84,0,0,0,5.83,5.84h2.55a5.85,5.85,0,0,0,5.84-5.84v-27h5.83v27a5.84,5.84,0,0,0,5.83,5.84h2.55a5.84,5.84,0,0,0,5.84-5.84V262.55A10.21,10.21,0,0,0,573.06,252.35Z"/>
<path class="cls-33" d="M574.64,276.41a4.38,4.38,0,0,1-4.38,4.37H562a4.37,4.37,0,0,1-4.37-4.37"/>

<g id="doghead">
    <path class="cls-33" d="M588.84,236.28c3.82,13.3-15,13.66-22.71,13.66s-26.52-.36-22.71-13.66c2.89-10.07,11.93-14.74,22.71-14.74S586,226.21,588.84,236.28Z"/>
    <path class="cls-33" d="M580.91,234.6v10.21a14.78,14.78,0,1,1-29.56,0V234.6"/>
    <path class="cls-16" d="M569.59,245.18a1.8,1.8,0,0,1,1.62,2.61,5.71,5.71,0,0,1-10.16,0,1.81,1.81,0,0,1,1.62-2.61Z"/>
    <circle class="eyes cls-16" cx="571.89" cy="238.9" r="2.05"/>
    <circle class="eyes cls-16" cx="560.37" cy="238.9" r="2.05"/>
</g>
</svg>