<svg xmlns="http://www.w3.org/2000/svg" xmlns:xlink="http://www.w3.org/1999/xlink" id="Layer_1" data-name="Layer 1" viewBox="0 0 700 350"><link xmlns="" type="text/css" id="dark-mode" rel="stylesheet" href=""/><style xmlns="" type="text/css" id="dark-mode-custom-style"/><link xmlns="" type="text/css" id="dark-mode" rel="stylesheet" href=""/><style xmlns="" type="text/css" id="dark-mode-custom-style"/>
    <defs>
        <style>.cls-1,.cls-22,.cls-7{fill:none;}.cls-16,.cls-2,.cls-8{fill:#666e95;}.cls-2{opacity:0.3;}.cls-3{opacity:0.1;}.cls-4{clip-path:url(#clip-path);}.cls-5{fill:#4a4f80;stroke:#4a4f80;stroke-width:2.04px;}.cls-12,.cls-13,.cls-14,.cls-15,.cls-16,.cls-18,.cls-19,.cls-21,.cls-22,.cls-23,.cls-24,.cls-5{stroke-linecap:round;}.cls-12,.cls-13,.cls-14,.cls-15,.cls-16,.cls-17,.cls-18,.cls-19,.cls-21,.cls-22,.cls-23,.cls-24,.cls-5{stroke-linejoin:round;}.cls-6{clip-path:url(#clip-path-2);}.cls-10,.cls-11,.cls-12,.cls-13,.cls-14,.cls-15,.cls-16,.cls-17,.cls-18,.cls-19,.cls-21,.cls-22,.cls-23,.cls-24,.cls-7,.cls-8,.cls-9{stroke:#282c4c;stroke-width:5.1px;}.cls-10,.cls-11,.cls-7,.cls-8,.cls-9{stroke-miterlimit:10;}.cls-20,.cls-9{fill:#282c4c;}.cls-10,.cls-19{fill:#6cc7be;}.cls-11,.cls-12{fill:#f48667;}.cls-13{fill:#545faa;}.cls-14,.cls-17{fill:#fff;}.cls-15{fill:#f1717e;}.cls-18{fill:#56bcde;}.cls-21{fill:#af97c7;}.cls-23{fill:#b5445b;}.cls-24{fill:#754381;}</style>
        <clipPath id="clip-path">
            <path class="cls-1" d="M679.1,155.56H669a19.45,19.45,0,1,1,0-38.89h1.94a19.45,19.45,0,0,0,0-38.89H563a19.45,19.45,0,0,1,0-38.89h11.18a19.45,19.45,0,1,0,0-38.89H168.29a19.45,19.45,0,0,0,0,38.89h17.5a19.45,19.45,0,1,1,0,38.89H54.54a19.45,19.45,0,0,0,0,38.89h7.78a19.45,19.45,0,0,1,0,38.89H20.9a19.44,19.44,0,0,0,0,38.88H70.68a19.45,19.45,0,0,1,0,38.89h-20a19.45,19.45,0,0,0,0,38.89H107a19.45,19.45,0,1,1,0,38.89H89.54a19.45,19.45,0,0,0,0,38.89H626.21a19.45,19.45,0,0,0,0-38.89h-17.5a19.45,19.45,0,1,1,0-38.89H665.1a19.45,19.45,0,0,0,0-38.89h-35a19.45,19.45,0,1,1,0-38.89h49a19.44,19.44,0,0,0,0-38.88Z"/>
        </clipPath>
        <clipPath id="clip-path-2">
            <rect class="cls-1" width="700" height="350"/>
        </clipPath>
    </defs>

    <rect class="cls-1" width="700" height="350"/>
    <clipPath id="myClip">
        <path class="cls-2" d="M630.1,194.44h49a19.44,19.44,0,0,0,0-38.88H669a19.45,19.45,0,1,1,0-38.89h1.94a19.45,19.45,0,1,0,0-38.89H563a19.45,19.45,0,0,1,0-38.89h11.18a19.45,19.45,0,1,0,0-38.89H168.29a19.45,19.45,0,0,0,0,38.89h17.5a19.45,19.45,0,1,1,0,38.89H54.54a19.45,19.45,0,0,0,0,38.89h7.78a19.45,19.45,0,0,1,0,38.89H20.9a19.44,19.44,0,0,0,0,38.88H70.68a19.45,19.45,0,1,1,0,38.89h-20a19.45,19.45,0,0,0,0,38.89H107a19.45,19.45,0,1,1,0,38.89H89.54a19.45,19.45,0,0,0,0,38.89H626.21a19.45,19.45,0,0,0,0-38.89h-17.5a19.45,19.45,0,1,1,0-38.89H665.1a19.45,19.45,0,0,0,0-38.89h-35a19.45,19.45,0,1,1,0-38.89Z"/>
    </clipPath>
    <path class="cls-2" d="M630.1,194.44h49a19.44,19.44,0,0,0,0-38.88H669a19.45,19.45,0,1,1,0-38.89h1.94a19.45,19.45,0,1,0,0-38.89H563a19.45,19.45,0,0,1,0-38.89h11.18a19.45,19.45,0,1,0,0-38.89H168.29a19.45,19.45,0,0,0,0,38.89h17.5a19.45,19.45,0,1,1,0,38.89H54.54a19.45,19.45,0,0,0,0,38.89h7.78a19.45,19.45,0,0,1,0,38.89H20.9a19.44,19.44,0,0,0,0,38.88H70.68a19.45,19.45,0,1,1,0,38.89h-20a19.45,19.45,0,0,0,0,38.89H107a19.45,19.45,0,1,1,0,38.89H89.54a19.45,19.45,0,0,0,0,38.89H626.21a19.45,19.45,0,0,0,0-38.89h-17.5a19.45,19.45,0,1,1,0-38.89H665.1a19.45,19.45,0,0,0,0-38.89h-35a19.45,19.45,0,1,1,0-38.89Z"/>

    <g class="cls-3">
        <g class="cls-4">
            <path class="cls-5" d="M-2.76-13.69V-28l-12.41-7.16L-27.58-28v14.33l12.41,7.16Zm40.8,0V-28L25.63-35.18,13.22-28v14.33L25.63-6.53ZM-7.18,19.53,5.23,26.69l12.41-7.16V5.2L5.23-2-7.18,5.2Zm4.42,33.22V38.43l-12.41-7.17-12.41,7.17V52.75l12.41,7.17Zm16-14.32V52.75l12.41,7.17L38,52.75V38.43L25.63,31.26ZM-7.18,71.65V86L5.23,93.14,17.64,86V71.65L5.23,64.49Zm4.42,47.55V104.88l-12.41-7.17-12.41,7.17V119.2l12.41,7.17Zm16-14.32V119.2l12.41,7.17L38,119.2V104.88L25.63,97.71Zm-20.4,47.55,12.41,7.16,12.41-7.16V138.1L5.23,130.94-7.18,138.1Zm4.42,33.22V171.32l-12.41-7.16-12.41,7.16v14.33l12.41,7.16Zm16,0,12.41,7.16L38,185.65V171.32l-12.41-7.16-12.41,7.16Zm-20.4,33.22L5.23,226l12.41-7.17V204.55L5.23,197.38l-12.41,7.17Zm4.42,33.23V237.77l-12.41-7.16-12.41,7.16V252.1l12.41,7.16Zm40.8,0V237.77l-12.41-7.16-12.41,7.16V252.1l12.41,7.16ZM-7.18,285.32l12.41,7.17,12.41-7.17V271L5.23,263.83-7.18,271Zm4.42,18.9-12.41-7.16-12.41,7.16v14.33l12.41,7.16,12.41-7.16Zm40.8,0-12.41-7.16-12.41,7.16v14.33l12.41,7.16L38,318.55ZM-7.18,337.44v14.33l12.41,7.16,12.41-7.16V337.44L5.23,330.28ZM76.51-13.69V-28L64.1-35.18,51.69-28v14.33L64.1-6.53ZM31.29,19.53,43.7,26.69l12.41-7.16V5.2L43.7-2,31.29,5.2Zm20.4,18.9V52.75L64.1,59.92l12.41-7.17V38.43L64.1,31.26ZM31.29,71.65V86L43.7,93.14,56.11,86V71.65L43.7,64.49Zm20.4,33.23V119.2l12.41,7.17,12.41-7.17V104.88L64.1,97.71ZM31.29,138.1v14.33l12.41,7.16,12.41-7.16V138.1L43.7,130.94Zm45.22,47.55V171.32L64.1,164.16l-12.41,7.16v14.33l12.41,7.16Zm-20.4,33.22V204.55L43.7,197.38l-12.41,7.17v14.32L43.7,226Zm20.4,33.23V237.77L64.1,230.61l-12.41,7.16V252.1l12.41,7.16Zm-20.4,33.22V271L43.7,263.83,31.29,271v14.32l12.41,7.17Zm20.4,18.9L64.1,297.06l-12.41,7.16v14.33l12.41,7.16,12.41-7.16ZM31.29,337.44v14.33l12.41,7.16,12.41-7.16V337.44L43.7,330.28ZM115-13.69V-28l-12.41-7.16L90.16-28v14.33l12.41,7.16ZM69.76,19.53l12.41,7.16,12.41-7.16V5.2L82.17-2,69.76,5.2Zm20.4,18.9V52.75l12.41,7.17L115,52.75V38.43l-12.41-7.17ZM69.76,71.65V86l12.41,7.16L94.58,86V71.65L82.17,64.49Zm20.4,33.23V119.2l12.41,7.17L115,119.2V104.88l-12.41-7.17ZM69.76,138.1v14.33l12.41,7.16,12.41-7.16V138.1l-12.41-7.16ZM115,185.65V171.32l-12.41-7.16-12.41,7.16v14.33l12.41,7.16Zm-20.4,33.22V204.55l-12.41-7.17-12.41,7.17v14.32L82.17,226ZM115,252.1V237.77l-12.41-7.16-12.41,7.16V252.1l12.41,7.16Zm-20.4,33.22V271l-12.41-7.17L69.76,271v14.32l12.41,7.17Zm20.4,18.9-12.41-7.16-12.41,7.16v14.33l12.41,7.16L115,318.55ZM69.76,337.44v14.33l12.41,7.16,12.41-7.16V337.44l-12.41-7.16ZM153.45-13.69V-28L141-35.18,128.63-28v14.33L141-6.53ZM108.23,19.53l12.41,7.16,12.41-7.16V5.2L120.64-2,108.23,5.2Zm20.4,18.9V52.75L141,59.92l12.41-7.17V38.43L141,31.26Zm-20.4,33.22V86l12.41,7.16L133.05,86V71.65l-12.41-7.16Zm20.4,33.23V119.2L141,126.37l12.41-7.17V104.88L141,97.71Zm-20.4,33.22v14.33l12.41,7.16,12.41-7.16V138.1l-12.41-7.16Zm45.22,47.55V171.32L141,164.16l-12.41,7.16v14.33L141,192.81Zm-20.4,33.22V204.55l-12.41-7.17-12.41,7.17v14.32L120.64,226Zm20.4,33.23V237.77L141,230.61l-12.41,7.16V252.1L141,259.26Zm-20.4,33.22V271l-12.41-7.17L108.23,271v14.32l12.41,7.17Zm20.4,18.9L141,297.06l-12.41,7.16v14.33L141,325.71l12.41-7.16Zm-45.22,33.22v14.33l12.41,7.16,12.41-7.16V337.44l-12.41-7.16ZM191.92-13.69V-28l-12.41-7.16L167.1-28v14.33l12.41,7.16ZM146.7,19.53l12.41,7.16,12.41-7.16V5.2L159.11-2,146.7,5.2Zm20.4,18.9V52.75l12.41,7.17,12.41-7.17V38.43l-12.41-7.17ZM146.7,71.65V86l12.41,7.16L171.52,86V71.65l-12.41-7.16Zm20.4,33.23V119.2l12.41,7.17,12.41-7.17V104.88l-12.41-7.17ZM146.7,138.1v14.33l12.41,7.16,12.41-7.16V138.1l-12.41-7.16Zm45.22,47.55V171.32l-12.41-7.16-12.41,7.16v14.33l12.41,7.16Zm-20.4,33.22V204.55l-12.41-7.17-12.41,7.17v14.32L159.11,226Zm20.4,33.23V237.77l-12.41-7.16-12.41,7.16V252.1l12.41,7.16Zm-20.4,33.22V271l-12.41-7.17L146.7,271v14.32l12.41,7.17Zm20.4,18.9-12.41-7.16-12.41,7.16v14.33l12.41,7.16,12.41-7.16ZM146.7,337.44v14.33l12.41,7.16,12.41-7.16V337.44l-12.41-7.16ZM230.39-13.69V-28L218-35.18,205.57-28v14.33L218-6.53ZM185.17,19.53l12.41,7.16L210,19.53V5.2L197.58-2,185.17,5.2Zm20.4,18.9V52.75L218,59.92l12.41-7.17V38.43L218,31.26Zm-20.4,33.22V86l12.41,7.16L210,86V71.65l-12.41-7.16Zm20.4,33.23V119.2L218,126.37l12.41-7.17V104.88L218,97.71Zm-20.4,33.22v14.33l12.41,7.16L210,152.43V138.1l-12.41-7.16Zm45.22,47.55V171.32L218,164.16l-12.41,7.16v14.33L218,192.81ZM210,218.87V204.55l-12.41-7.17-12.41,7.17v14.32L197.58,226Zm20.4,33.23V237.77L218,230.61l-12.41,7.16V252.1L218,259.26ZM210,285.32V271l-12.41-7.17L185.17,271v14.32l12.41,7.17Zm20.4,18.9L218,297.06l-12.41,7.16v14.33L218,325.71l12.41-7.16Zm-45.22,33.22v14.33l12.41,7.16L210,351.77V337.44l-12.41-7.16ZM268.86-13.69V-28l-12.41-7.16L244-28v14.33l12.41,7.16ZM223.64,19.53l12.41,7.16,12.41-7.16V5.2L236.05-2,223.64,5.2ZM244,38.43V52.75l12.41,7.17,12.41-7.17V38.43l-12.41-7.17Zm-20.4,33.22V86l12.41,7.16L248.46,86V71.65l-12.41-7.16ZM244,104.88V119.2l12.41,7.17,12.41-7.17V104.88l-12.41-7.17Zm-20.4,33.22v14.33l12.41,7.16,12.41-7.16V138.1l-12.41-7.16Zm45.22,47.55V171.32l-12.41-7.16L244,171.32v14.33l12.41,7.16Zm-20.4,33.22V204.55l-12.41-7.17-12.41,7.17v14.32L236.05,226Zm20.4,33.23V237.77l-12.41-7.16L244,237.77V252.1l12.41,7.16Zm-20.4,33.22V271l-12.41-7.17L223.64,271v14.32l12.41,7.17Zm20.4,18.9-12.41-7.16L244,304.22v14.33l12.41,7.16,12.41-7.16Zm-45.22,33.22v14.33l12.41,7.16,12.41-7.16V337.44l-12.41-7.16ZM307.33-13.69V-28l-12.41-7.16L282.51-28v14.33l12.41,7.16ZM262.11,19.53l12.41,7.16,12.41-7.16V5.2L274.52-2,262.11,5.2Zm20.4,18.9V52.75l12.41,7.17,12.41-7.17V38.43l-12.41-7.17Zm-20.4,33.22V86l12.41,7.16L286.93,86V71.65l-12.41-7.16Zm20.4,33.23V119.2l12.41,7.17,12.41-7.17V104.88l-12.41-7.17Zm-20.4,33.22v14.33l12.41,7.16,12.41-7.16V138.1l-12.41-7.16Zm45.22,47.55V171.32l-12.41-7.16-12.41,7.16v14.33l12.41,7.16Zm-20.4,33.22V204.55l-12.41-7.17-12.41,7.17v14.32L274.52,226Zm20.4,33.23V237.77l-12.41-7.16-12.41,7.16V252.1l12.41,7.16Zm-20.4,33.22V271l-12.41-7.17L262.11,271v14.32l12.41,7.17Zm20.4,18.9-12.41-7.16-12.41,7.16v14.33l12.41,7.16,12.41-7.16Zm-45.22,33.22v14.33l12.41,7.16,12.41-7.16V337.44l-12.41-7.16ZM345.8-13.69V-28l-12.41-7.16L321-28v14.33l12.41,7.16ZM300.58,19.53,313,26.69l12.41-7.16V5.2L313-2,300.58,5.2ZM321,38.43V52.75l12.41,7.17,12.41-7.17V38.43l-12.41-7.17Zm-20.4,33.22V86L313,93.14,325.4,86V71.65L313,64.49ZM321,104.88V119.2l12.41,7.17,12.41-7.17V104.88l-12.41-7.17Zm-20.4,33.22v14.33L313,159.59l12.41-7.16V138.1L313,130.94Zm45.22,47.55V171.32l-12.41-7.16L321,171.32v14.33l12.41,7.16Zm-20.4,33.22V204.55L313,197.38l-12.41,7.17v14.32L313,226Zm20.4,33.23V237.77l-12.41-7.16L321,237.77V252.1l12.41,7.16Zm-20.4,33.22V271L313,263.83,300.58,271v14.32L313,292.49Zm20.4,18.9-12.41-7.16L321,304.22v14.33l12.41,7.16,12.41-7.16Zm-45.22,33.22v14.33L313,358.93l12.41-7.16V337.44L313,330.28ZM384.27-13.69V-28l-12.41-7.16L359.45-28v14.33l12.41,7.16ZM339.05,19.53l12.41,7.16,12.41-7.16V5.2L351.46-2,339.05,5.2Zm20.4,18.9V52.75l12.41,7.17,12.41-7.17V38.43l-12.41-7.17Zm-20.4,33.22V86l12.41,7.16L363.87,86V71.65l-12.41-7.16Zm20.4,33.23V119.2l12.41,7.17,12.41-7.17V104.88l-12.41-7.17Zm-20.4,33.22v14.33l12.41,7.16,12.41-7.16V138.1l-12.41-7.16Zm45.22,47.55V171.32l-12.41-7.16-12.41,7.16v14.33l12.41,7.16Zm-20.4,33.22V204.55l-12.41-7.17-12.41,7.17v14.32L351.46,226Zm20.4,33.23V237.77l-12.41-7.16-12.41,7.16V252.1l12.41,7.16Zm-20.4,33.22V271l-12.41-7.17L339.05,271v14.32l12.41,7.17Zm20.4,18.9-12.41-7.16-12.41,7.16v14.33l12.41,7.16,12.41-7.16Zm-45.22,33.22v14.33l12.41,7.16,12.41-7.16V337.44l-12.41-7.16ZM422.74-13.69V-28l-12.41-7.16L397.92-28v14.33l12.41,7.16ZM377.52,19.53l12.41,7.16,12.41-7.16V5.2L389.93-2,377.52,5.2Zm20.4,18.9V52.75l12.41,7.17,12.41-7.17V38.43l-12.41-7.17Zm-20.4,33.22V86l12.41,7.16L402.34,86V71.65l-12.41-7.16Zm20.4,33.23V119.2l12.41,7.17,12.41-7.17V104.88l-12.41-7.17Zm-20.4,33.22v14.33l12.41,7.16,12.41-7.16V138.1l-12.41-7.16Zm45.22,47.55V171.32l-12.41-7.16-12.41,7.16v14.33l12.41,7.16Zm-20.4,33.22V204.55l-12.41-7.17-12.41,7.17v14.32L389.93,226Zm20.4,33.23V237.77l-12.41-7.16-12.41,7.16V252.1l12.41,7.16Zm-20.4,33.22V271l-12.41-7.17L377.52,271v14.32l12.41,7.17Zm20.4,18.9-12.41-7.16-12.41,7.16v14.33l12.41,7.16,12.41-7.16Zm-45.22,33.22v14.33l12.41,7.16,12.41-7.16V337.44l-12.41-7.16ZM461.21-13.69V-28L448.8-35.18,436.39-28v14.33L448.8-6.53ZM416,19.53l12.41,7.16,12.41-7.16V5.2L428.4-2,416,5.2Zm20.4,18.9V52.75l12.41,7.17,12.41-7.17V38.43L448.8,31.26ZM416,71.65V86l12.41,7.16L440.81,86V71.65L428.4,64.49Zm20.4,33.23V119.2l12.41,7.17,12.41-7.17V104.88L448.8,97.71ZM416,138.1v14.33l12.41,7.16,12.41-7.16V138.1l-12.41-7.16Zm45.22,47.55V171.32l-12.41-7.16-12.41,7.16v14.33l12.41,7.16Zm-20.4,33.22V204.55l-12.41-7.17L416,204.55v14.32L428.4,226Zm20.4,33.23V237.77l-12.41-7.16-12.41,7.16V252.1l12.41,7.16Zm-20.4,33.22V271l-12.41-7.17L416,271v14.32l12.41,7.17Zm20.4,18.9-12.41-7.16-12.41,7.16v14.33l12.41,7.16,12.41-7.16ZM416,337.44v14.33l12.41,7.16,12.41-7.16V337.44l-12.41-7.16ZM499.68-13.69V-28l-12.41-7.16L474.86-28v14.33l12.41,7.16ZM454.46,19.53l12.41,7.16,12.41-7.16V5.2L466.87-2,454.46,5.2Zm20.4,18.9V52.75l12.41,7.17,12.41-7.17V38.43l-12.41-7.17Zm-20.4,33.22V86l12.41,7.16L479.28,86V71.65l-12.41-7.16Zm20.4,33.23V119.2l12.41,7.17,12.41-7.17V104.88l-12.41-7.17Zm-20.4,33.22v14.33l12.41,7.16,12.41-7.16V138.1l-12.41-7.16Zm45.22,47.55V171.32l-12.41-7.16-12.41,7.16v14.33l12.41,7.16Zm-20.4,33.22V204.55l-12.41-7.17-12.41,7.17v14.32L466.87,226Zm20.4,33.23V237.77l-12.41-7.16-12.41,7.16V252.1l12.41,7.16Zm-20.4,33.22V271l-12.41-7.17L454.46,271v14.32l12.41,7.17Zm20.4,18.9-12.41-7.16-12.41,7.16v14.33l12.41,7.16,12.41-7.16Zm-45.22,33.22v14.33l12.41,7.16,12.41-7.16V337.44l-12.41-7.16ZM538.15-13.69V-28l-12.41-7.16L513.33-28v14.33l12.41,7.16ZM492.93,19.53l12.41,7.16,12.41-7.16V5.2L505.34-2,492.93,5.2Zm20.4,18.9V52.75l12.41,7.17,12.41-7.17V38.43l-12.41-7.17Zm-20.4,33.22V86l12.41,7.16L517.75,86V71.65l-12.41-7.16Zm20.4,33.23V119.2l12.41,7.17,12.41-7.17V104.88l-12.41-7.17Zm-20.4,33.22v14.33l12.41,7.16,12.41-7.16V138.1l-12.41-7.16Zm45.22,47.55V171.32l-12.41-7.16-12.41,7.16v14.33l12.41,7.16Zm-20.4,33.22V204.55l-12.41-7.17-12.41,7.17v14.32L505.34,226Zm20.4,33.23V237.77l-12.41-7.16-12.41,7.16V252.1l12.41,7.16Zm-20.4,33.22V271l-12.41-7.17L492.93,271v14.32l12.41,7.17Zm20.4,18.9-12.41-7.16-12.41,7.16v14.33l12.41,7.16,12.41-7.16Zm-45.22,33.22v14.33l12.41,7.16,12.41-7.16V337.44l-12.41-7.16ZM576.62-13.69V-28l-12.41-7.16L551.8-28v14.33l12.41,7.16ZM531.4,19.53l12.41,7.16,12.41-7.16V5.2L543.81-2,531.4,5.2Zm20.4,18.9V52.75l12.41,7.17,12.41-7.17V38.43l-12.41-7.17ZM531.4,71.65V86l12.41,7.16L556.22,86V71.65l-12.41-7.16Zm20.4,33.23V119.2l12.41,7.17,12.41-7.17V104.88l-12.41-7.17ZM531.4,138.1v14.33l12.41,7.16,12.41-7.16V138.1l-12.41-7.16Zm45.22,47.55V171.32l-12.41-7.16-12.41,7.16v14.33l12.41,7.16Zm-20.4,33.22V204.55l-12.41-7.17-12.41,7.17v14.32L543.81,226Zm20.4,33.23V237.77l-12.41-7.16-12.41,7.16V252.1l12.41,7.16Zm-20.4,33.22V271l-12.41-7.17L531.4,271v14.32l12.41,7.17Zm20.4,18.9-12.41-7.16-12.41,7.16v14.33l12.41,7.16,12.41-7.16ZM531.4,337.44v14.33l12.41,7.16,12.41-7.16V337.44l-12.41-7.16ZM615.09-13.69V-28l-12.41-7.16L590.27-28v14.33l12.41,7.16ZM569.87,19.53l12.41,7.16,12.41-7.16V5.2L582.28-2,569.87,5.2Zm20.4,18.9V52.75l12.41,7.17,12.41-7.17V38.43l-12.41-7.17Zm-20.4,33.22V86l12.41,7.16L594.69,86V71.65l-12.41-7.16Zm20.4,33.23V119.2l12.41,7.17,12.41-7.17V104.88l-12.41-7.17Zm-20.4,33.22v14.33l12.41,7.16,12.41-7.16V138.1l-12.41-7.16Zm45.22,47.55V171.32l-12.41-7.16-12.41,7.16v14.33l12.41,7.16Zm-20.4,33.22V204.55l-12.41-7.17-12.41,7.17v14.32L582.28,226Zm20.4,33.23V237.77l-12.41-7.16-12.41,7.16V252.1l12.41,7.16Zm-20.4,33.22V271l-12.41-7.17L569.87,271v14.32l12.41,7.17Zm20.4,18.9-12.41-7.16-12.41,7.16v14.33l12.41,7.16,12.41-7.16Zm-45.22,33.22v14.33l12.41,7.16,12.41-7.16V337.44l-12.41-7.16ZM653.56-13.69V-28l-12.41-7.16L628.74-28v14.33l12.41,7.16ZM608.34,19.53l12.41,7.16,12.4-7.16V5.2L620.75-2,608.34,5.2Zm20.4,18.9V52.75l12.41,7.17,12.41-7.17V38.43l-12.41-7.17Zm-20.4,33.22V86l12.41,7.16L633.15,86V71.65l-12.4-7.16Zm20.4,33.23V119.2l12.41,7.17,12.41-7.17V104.88l-12.41-7.17Zm-20.4,33.22v14.33l12.41,7.16,12.4-7.16V138.1l-12.4-7.16Zm45.22,47.55V171.32l-12.41-7.16-12.41,7.16v14.33l12.41,7.16Zm-20.41,33.22V204.55l-12.4-7.17-12.41,7.17v14.32L620.75,226Zm20.41,33.23V237.77l-12.41-7.16-12.41,7.16V252.1l12.41,7.16Zm-20.41,33.22V271l-12.4-7.17L608.34,271v14.32l12.41,7.17Zm20.41,18.9-12.41-7.16-12.41,7.16v14.33l12.41,7.16,12.41-7.16Zm-45.22,33.22v14.33l12.41,7.16,12.4-7.16V337.44l-12.4-7.16ZM692-13.69V-28l-12.41-7.16L667.21-28v14.33l12.41,7.16ZM646.81,19.53l12.41,7.16,12.4-7.16V5.2L659.22-2,646.81,5.2ZM692,38.43l-12.41-7.17-12.41,7.17V52.75l12.41,7.17L692,52.75ZM646.81,71.65V86l12.41,7.16L671.62,86V71.65l-12.4-7.16ZM692,104.88l-12.41-7.17-12.41,7.17V119.2l12.41,7.17L692,119.2Zm-45.22,47.55,12.41,7.16,12.4-7.16V138.1l-12.4-7.16-12.41,7.16ZM692,185.65V171.32l-12.41-7.16-12.41,7.16v14.33l12.41,7.16Zm-20.41,33.22V204.55l-12.4-7.17-12.41,7.17v14.32L659.22,226ZM692,252.1V237.77l-12.41-7.16-12.41,7.16V252.1l12.41,7.16Zm-20.41,33.22V271l-12.4-7.17L646.81,271v14.32l12.41,7.17ZM692,304.22l-12.41-7.16-12.41,7.16v14.33l12.41,7.16L692,318.55Zm-45.22,33.22v14.33l12.41,7.16,12.4-7.16V337.44l-12.4-7.16ZM718.09-35.18,705.68-28v14.33l12.41,7.16,12.41-7.16V-28Zm-8,40.38L697.69-2,685.28,5.2V19.53l12.41,7.16,12.4-7.16Zm-4.41,33.23V52.75l12.41,7.17,12.41-7.17V38.43l-12.41-7.17Zm4.41,33.22-12.4-7.16-12.41,7.16V86l12.41,7.16L710.09,86Zm-4.41,33.23V119.2l12.41,7.17,12.41-7.17V104.88l-12.41-7.17Zm4.41,33.22-12.4-7.16-12.41,7.16v14.33l12.41,7.16,12.4-7.16Zm-4.41,33.22v14.33l12.41,7.16,12.41-7.16V171.32l-12.41-7.16Zm4.41,33.23-12.4-7.17-12.41,7.17v14.32L697.69,226l12.4-7.17Zm-4.41,33.22V252.1l12.41,7.16,12.41-7.16V237.77l-12.41-7.16Zm4.41,47.55V271l-12.4-7.17L685.28,271v14.32l12.41,7.17Zm-4.41,18.9v14.33l12.41,7.16,12.41-7.16V304.22l-12.41-7.16Zm-20.4,33.22v14.33l12.41,7.16,12.4-7.16V337.44l-12.4-7.16Z"/>
        </g>
    </g>

    <g class="all_badges" clip-path="url(#myClip)">
        <g class="badges">
            <polygon class="cls-24" points="350 181.68 318.96 163.76 318.96 127.91 350 109.99 381.04 127.91 381.04 163.76 350 181.68"/>
            <path class="cls-14" d="M357.39,145.27v-4.15H342.61v4.15a6.78,6.78,0,0,0-3.62,6v7.64a3.4,3.4,0,0,0,3.41,3.41h15.2A3.4,3.4,0,0,0,361,158.9v-7.64A6.78,6.78,0,0,0,357.39,145.27Z"/>
            <rect class="cls-12" x="340.9" y="129.35" width="18.2" height="11.77"/>
        </g>

        <g class="badges">
            <polygon class="cls-21" points="204.17 123.35 173.12 105.42 173.12 69.58 204.17 51.65 235.21 69.58 235.21 105.42 204.17 123.35"/>
            <path class="cls-12" d="M215.13,83.4V72H193.2V83.4a11,11,0,0,0,7,10.2v4.26c-2.62,1-4.39,2.9-4.39,5.11v2.94h16.8V103c0-2.21-1.78-4.12-4.39-5.11V93.6A11,11,0,0,0,215.13,83.4Z"/>
            <path class="cls-22" d="M215.13,74.92V83.4a10.91,10.91,0,0,1-.39,2.82h2a5.83,5.83,0,0,0,5.84-5.83V74.92Z"/>
            <path class="cls-22" d="M193.2,83.4V74.92h-7.45v5.47a5.84,5.84,0,0,0,5.84,5.83h2A10.91,10.91,0,0,1,193.2,83.4Z"/>
        </g>
        <g class="badges">
            <polygon class="cls-12" points="145.83 312.93 114.79 295.01 114.79 259.16 145.83 241.24 176.88 259.16 176.88 295.01 145.83 312.93"/>
            <rect class="cls-14" x="133.72" y="269.99" width="24.23" height="18.16" transform="translate(-133.24 424.9) rotate(-90)"/>
            <rect class="cls-13" x="141.93" y="252.8" width="7.82" height="20.5" transform="translate(-117.22 408.88) rotate(-90)"/>
            <line class="cls-22" x1="144.95" y1="283.11" x2="136.75" y2="283.11"/>
            <line class="cls-22" x1="144.95" y1="275.03" x2="136.75" y2="275.03"/>
            <line class="cls-22" x1="144.95" y1="266.96" x2="136.75" y2="266.96"/>
            <line class="cls-22" x1="144.95" y1="291.19" x2="136.75" y2="291.19"/>
            <line class="cls-22" x1="146.13" y1="291.19" x2="146.13" y2="300.86"/>
        </g>
        <g class="badges">
            <polygon class="cls-23" points="597.92 225.43 566.87 207.51 566.87 171.66 597.92 153.74 628.96 171.66 628.96 207.51 597.92 225.43"/>
            <polygon class="cls-14" points="613.53 183.81 603.69 183.81 603.69 173.97 592.14 173.97 592.14 183.81 582.3 183.81 582.3 195.36 592.14 195.36 592.14 205.2 603.69 205.2 603.69 195.36 613.53 195.36 613.53 183.81"/>
        </g>

        <g class="badges">
            <polygon class="cls-13" points="291.67 371.26 260.62 353.34 260.62 317.49 291.67 299.57 322.71 317.49 322.71 353.34 291.67 371.26"/>
            <polygon class="cls-14" points="291.67 316.26 297.61 328.3 310.9 330.23 301.28 339.6 303.55 352.84 291.67 346.59 279.78 352.84 282.05 339.6 272.44 330.23 285.72 328.3 291.67 316.26"/>
        </g>
        
        <g class="badges">
            <polygon class="cls-15" points="437.5 269.18 406.46 251.26 406.46 215.41 437.5 197.49 468.54 215.41 468.54 251.26 437.5 269.18"/>
            <path class="cls-16" d="M429.25,242a9.68,9.68,0,0,1,8.25,5.15,9.68,9.68,0,0,1,8.25-5.15,8.58,8.58,0,0,1,4.16,1.09,18.11,18.11,0,0,0,.52-4.28c0-8.5-5.79-15.4-12.93-15.4s-12.93,6.9-12.93,15.4a18.11,18.11,0,0,0,.52,4.28A8.58,8.58,0,0,1,429.25,242Z"/>
            <polygon class="cls-16" points="437.5 231.55 417.23 225.51 437.5 219.47 457.77 225.51 437.5 231.55"/>
        </g>
        <g class="badges">
            <polygon class="cls-12" points="481.25 123.35 450.21 105.42 450.21 69.58 481.25 51.65 512.29 69.58 512.29 105.42 481.25 123.35"/>
            <path class="cls-17" d="M495.52,86.78l.9-13.1-7.12,5.9a15.06,15.06,0,0,0-16,.25l-7.43-6.15.9,13.1s-.41,3.68-.41,5.79c0,8.38,11.94,12.25,15.17,12.25s15.18-3.87,15.18-12.25A27.27,27.27,0,0,0,495.52,86.78Z"/>
        </g>

        <g class="badges">
            <polygon class="cls-18" points="539.58 337.1 570.63 319.17 570.63 283.33 539.58 265.4 508.54 283.33 508.54 319.17 539.58 337.1"/>
            <line class="cls-12" x1="543.15" y1="309.52" x2="543.15" y2="320.95"/>
            <line class="cls-12" x1="534.67" y1="309.52" x2="534.67" y2="320.95"/>
            <path class="cls-18" d="M523.9,297.58a9.09,9.09,0,0,1,16.5-5.28l.07,0a12.67,12.67,0,0,0,17.72,2.7,19.05,19.05,0,0,1-19.05,19,15.24,15.24,0,0,1-15.24-15.24l.08,0A9,9,0,0,1,523.9,297.58Z"/>
            <polygon class="cls-12" points="518.33 297.58 525.32 300.4 528.14 297.58 525.32 294.75 518.33 297.58"/>
        </g>

        <g class="badges">
            <polygon class="cls-19" points="408.33 35.85 377.29 17.92 377.29 -17.92 408.33 -35.85 439.38 -17.92 439.38 17.92 408.33 35.85"/>
            <path class="cls-14" d="M428.18-2.28C431.51,9.33,415,9.65,408.33,9.65s-23.18-.32-19.84-11.93c2.52-8.81,10.42-12.89,19.84-12.89S425.65-11.09,428.18-2.28Z"/>
            <path class="cls-14" d="M421.25.62V5.17a12.92,12.92,0,0,1-25.83,0V.62"/>
            <path class="cls-20" d="M411.36,5.49a1.57,1.57,0,0,1,1.41,2.28,5,5,0,0,1-8.88,0,1.58,1.58,0,0,1,1.42-2.28Z"/>
            <circle class="cls-20" cx="413.37" r="2.19"/>
            <circle class="cls-20" cx="403.3" r="2.19"/>
        </g>
    </g>

    

    <g class="cls-6">

        

        <circle class="cls-7" cx="350" cy="145.83" r="56.87"/>
        <circle class="cls-7" cx="350" cy="145.83" r="56.87"/>
        <path class="cls-8" d="M398.32,97.52a68.33,68.33,0,1,0,0,96.63A68.33,68.33,0,0,0,398.32,97.52Zm-88.54,88.53a56.88,56.88,0,1,1,80.44,0A56.87,56.87,0,0,1,309.78,186.05Z"/>
        <path class="cls-9" d="M301.68,194.15a68.32,68.32,0,0,1-2.91-93.51c-1.07.94-2.11,1.9-3.13,2.92a68.33,68.33,0,0,0,96.64,96.63c1-1,2-2.06,2.91-3.12A68.33,68.33,0,0,1,301.68,194.15Z"/>
        <rect class="cls-8" x="247.49" y="174.55" width="13.76" height="133.82" rx="3" ry="3" transform="translate(245.24 -109.15) rotate(45)"/>
        <rect class="cls-9" x="205.21" y="276.62" width="13.76" height="14.24" rx="3" ry="3" transform="translate(262.75 -66.87) rotate(45)"/>
        <path class="cls-10" d="M100.76,192.88a164.45,164.45,0,0,1-1.1-231.69A16.12,16.12,0,0,1,122.45-39l.11.11a16.11,16.11,0,0,1,.09,22.68A131.65,131.65,0,0,0,84.72,76.54c0,73,59.39,132.38,132.38,132.38a16.12,16.12,0,0,1,0,32.23A164.07,164.07,0,0,1,100.76,192.88Z"/>
        <path class="cls-11" d="M263.85,259.32a19.41,19.41,0,0,0-.39-3.76,7.62,7.62,0,0,0,2.62.49,7.4,7.4,0,0,0,7.4-7.4,19.41,19.41,0,0,0-.38-3.76,7.35,7.35,0,0,0,10-6.91,19.41,19.41,0,0,0-.38-3.76,7.35,7.35,0,0,0,10-6.91,20,20,0,0,0-19.93-19.93H217.88a7.4,7.4,0,0,0-7.4,7.41v24.06a15.38,15.38,0,0,0,15.35,15.36h18.08a5.14,5.14,0,0,1,5.13,5.12,7.41,7.41,0,1,0,14.81,0Z"/>
        <path class="cls-12" d="M272.83,207.38a20,20,0,0,1,19.93,19.93,7.41,7.41,0,1,1-14.81,0,5.13,5.13,0,0,0-5.12-5.12"/>
        <path class="cls-12" d="M263.19,218.05A20,20,0,0,1,283.12,238a7.41,7.41,0,1,1-14.81,0,5.13,5.13,0,0,0-5.12-5.13"/>
        <path class="cls-12" d="M253.55,228.72a20,20,0,0,1,19.93,19.93,7.4,7.4,0,0,1-14.8,0,5.13,5.13,0,0,0-5.13-5.13"/>
        <path class="cls-12" d="M243.91,239.39a20,20,0,0,1,19.94,19.93,7.41,7.41,0,1,1-14.81,0,5.14,5.14,0,0,0-5.13-5.12"/>

    </g>
    
    <circle class="cls-7" cx="350" cy="145.83" r="56.87"/>
    <g class="maglines">
        <line class="blink-north cls-22" x1="350" y1="60.19" x2="350" y2="29.04"/>
        <line class="blink-south cls-22" x1="350" y1="262.62" x2="350" y2="231.48"/>
        <line class="blink-east cls-22" x1="435.64" y1="145.83" x2="466.79" y2="145.83"/>
        <line class="blink-west cls-22" x1="233.21" y1="145.83" x2="264.36" y2="145.83"/>
        <line class="cls-22" x1="410.56" y1="85.27" x2="432.58" y2="63.25"/>
        <line class="cls-22" x1="267.42" y1="63.25" x2="289.44" y2="85.27"/>
        <line class="cls-22" x1="322.25" y1="78.84" x2="320.42" y2="74.41"/>
        <line class="cls-22" x1="313.99" y1="58.91" x2="312.16" y2="54.48"/>
        <line class="cls-22" x1="387.84" y1="237.19" x2="386" y2="232.76"/>
        <line class="cls-22" x1="379.58" y1="217.25" x2="377.75" y2="212.83"/>
        <line class="cls-22" x1="416.99" y1="118.08" x2="421.42" y2="116.25"/>
        <line class="cls-22" x1="436.92" y1="109.83" x2="441.35" y2="107.99"/>
        <line class="cls-22" x1="258.65" y1="183.67" x2="263.08" y2="181.84"/>
        <line class="cls-22" x1="278.58" y1="175.42" x2="283.01" y2="173.58"/>
        <line class="cls-22" x1="377.75" y1="78.84" x2="379.58" y2="74.41"/>
        <line class="cls-22" x1="386" y1="58.91" x2="387.84" y2="54.48"/>
        <line class="cls-22" x1="312.16" y1="237.19" x2="313.99" y2="232.76"/>
        <line class="cls-22" x1="320.42" y1="217.25" x2="322.25" y2="212.83"/>
        <line class="cls-22" x1="416.99" y1="173.58" x2="421.42" y2="175.42"/>
        <line class="cls-22" x1="436.92" y1="181.84" x2="441.35" y2="183.67"/>
        <line class="cls-22" x1="258.65" y1="107.99" x2="263.08" y2="109.83"/>
        <line class="cls-22" x1="278.58" y1="116.25" x2="283.01" y2="118.08"/>
    </g>
    
</svg>