<svg id="Layer_1" data-name="Layer 1" 
    xmlns="http://www.w3.org/2000/svg" 
    xmlns:xlink="http://www.w3.org/1999/xlink" viewBox="0 0 700 350">
    <defs>
        <style>.cls-1,.cls-17{fill:none;}.cls-2{opacity:0.4;}.cls-3{clip-path:url(#clip-path);}.cls-4,.cls-5{fill:#666e95;}.cls-4,.cls-8{stroke:#4a4f80;}.cls-11,.cls-12,.cls-13,.cls-14,.cls-15,.cls-17,.cls-22,.cls-23,.cls-24,.cls-25,.cls-26,.cls-4,.cls-8{stroke-linecap:round;}.cls-11,.cls-12,.cls-13,.cls-14,.cls-15,.cls-17,.cls-21,.cls-22,.cls-23,.cls-24,.cls-25,.cls-26,.cls-4,.cls-8{stroke-linejoin:round;}.cls-4{stroke-width:3.5px;}.cls-5{opacity:0.3;}.cls-6{opacity:0.1;}.cls-7{clip-path:url(#clip-path-2);}.cls-10,.cls-11,.cls-8{fill:#4a4f80;}.cls-8{stroke-width:2.04px;}.cls-9{clip-path:url(#clip-path-3);}.cls-10,.cls-11,.cls-12,.cls-13,.cls-14,.cls-15,.cls-17,.cls-19,.cls-20,.cls-21,.cls-22,.cls-23,.cls-24,.cls-25,.cls-26{stroke:#282c4c;stroke-width:5.1px;}.cls-10,.cls-19,.cls-20{stroke-miterlimit:10;}.cls-12,.cls-16,.cls-19{fill:#282c4c;}.cls-13{fill:#fff;}.cls-14{fill:#af97c7;}.cls-15,.cls-20{fill:#6cc7be;}.cls-18{clip-path:url(#clip-path-4);}.cls-21,.cls-22{fill:#f48667;}.cls-23{fill:#545faa;}.cls-24{fill:#754381;}.cls-25{fill:#f1717e;}.cls-26{fill:#56bcde;}</style>
        <clipPath id="clip-path">
            <path class="cls-1" d="M1479.1,155.56h-41.42a19.45,19.45,0,0,1,0-38.89h7.78a19.45,19.45,0,0,0,0-38.89H1358a19.45,19.45,0,1,1,0-38.89h17.5a19.45,19.45,0,0,0,0-38.89H925.81a19.45,19.45,0,1,0,0,38.89H937a19.45,19.45,0,0,1,0,38.89H829.07a19.45,19.45,0,1,0,0,38.89H831a19.45,19.45,0,1,1,0,38.89H820.9a19.44,19.44,0,1,0,0,38.88h49a19.45,19.45,0,1,1,0,38.89h-35a19.45,19.45,0,0,0,0,38.89h56.39a19.45,19.45,0,1,1,0,38.89h-17.5a19.45,19.45,0,0,0,0,38.89h536.67a19.45,19.45,0,0,0,0-38.89h-5.83a19.45,19.45,0,1,1,0-38.89h44.72a19.45,19.45,0,0,0,0-38.89h-20a19.45,19.45,0,1,1,0-38.89h49.78a19.44,19.44,0,1,0,0-38.88Z"/>
        </clipPath>
        <clipPath id="clip-path-2">
            <path class="cls-1" d="M20.9,194.44H31a19.45,19.45,0,1,1,0,38.89H29.07a19.45,19.45,0,0,0,0,38.89H180.74a19.45,19.45,0,0,1,0,38.89H169.56a19.45,19.45,0,1,0,0,38.89H560.88a19.45,19.45,0,0,0,0-38.89H514.21a19.45,19.45,0,1,1,0-38.89H645.46a19.45,19.45,0,0,0,0-38.89h-7.78a19.45,19.45,0,0,1,0-38.89H679.1a19.44,19.44,0,0,0,0-38.88H629.32a19.45,19.45,0,0,1,0-38.89h20a19.45,19.45,0,0,0,0-38.89H512.75a19.45,19.45,0,0,1,0-38.89h83.13a19.45,19.45,0,0,0,0-38.89H146.71a19.45,19.45,0,1,0,0,38.89h17.5a19.45,19.45,0,0,1,0,38.89H34.9a19.45,19.45,0,0,0,0,38.89h78.75a19.45,19.45,0,1,1,0,38.89H20.9a19.44,19.44,0,0,0,0,38.88Z"/>
        </clipPath>
        <clipPath id="clip-path-3">
            <rect class="cls-1" width="700" height="350"/>
        </clipPath>
        <clipPath id="clip-path-4">
            <ellipse class="cls-1" cx="306.95" cy="113.75" rx="29.87" ry="29.17"/>
        </clipPath>
    </defs>
    <title>badgr_integrate</title>
    <g class="cls-2">
        <g class="cls-3">
            <rect class="cls-4" x="421.6" y="197.12" width="10.1" height="109.13"/>
            <rect class="cls-4" x="431.71" y="197.12" width="10.1" height="109.13"/>
            <rect class="cls-4" x="441.81" y="197.12" width="10.1" height="109.13"/>
            <rect class="cls-4" x="451.91" y="197.12" width="10.1" height="109.13"/>
            <rect class="cls-4" x="462.01" y="197.12" width="10.1" height="109.13"/>
            <rect class="cls-4" x="472.12" y="197.12" width="10.1" height="109.13"/>
            <rect class="cls-4" x="482.22" y="197.12" width="10.1" height="109.13"/>
            <rect class="cls-4" x="492.32" y="197.12" width="10.1" height="109.13"/>
            <rect class="cls-4" x="502.43" y="197.12" width="10.1" height="109.13"/>
            <rect class="cls-4" x="512.53" y="197.12" width="10.1" height="109.13"/>
            <rect class="cls-4" x="522.63" y="197.12" width="10.1" height="109.13"/>
            <rect class="cls-4" x="532.74" y="197.12" width="10.1" height="109.13"/>
            <rect class="cls-4" x="542.84" y="197.12" width="10.1" height="109.13"/>
            <rect class="cls-4" x="552.94" y="197.12" width="10.1" height="109.13"/>
            <rect class="cls-4" x="563.05" y="197.12" width="10.1" height="109.13"/>
            <rect class="cls-4" x="573.15" y="197.12" width="10.1" height="109.13"/>
            <rect class="cls-4" x="583.25" y="197.12" width="10.1" height="109.13"/>
            <rect class="cls-4" x="593.35" y="197.12" width="10.1" height="109.13"/>
            <rect class="cls-4" x="603.46" y="197.12" width="10.1" height="109.13"/>
            <rect class="cls-4" x="613.56" y="197.12" width="10.1" height="109.13"/>
            <rect class="cls-4" x="623.66" y="197.12" width="10.1" height="109.13"/>
            <rect class="cls-4" x="633.77" y="197.12" width="10.1" height="109.13"/>
            <rect class="cls-4" x="643.87" y="197.12" width="10.1" height="109.13"/>
            <rect class="cls-4" x="653.97" y="197.12" width="10.1" height="109.13"/>
            <rect class="cls-4" x="664.08" y="197.12" width="10.1" height="109.13"/>
            <rect class="cls-4" x="674.18" y="197.12" width="10.1" height="109.13"/>
            <rect class="cls-4" x="684.28" y="197.12" width="10.1" height="109.13"/>
            <rect class="cls-4" x="694.38" y="197.12" width="10.1" height="109.13"/>
            <rect class="cls-4" x="418.53" y="184.92" width="713.35" height="12.21"/>
            <rect class="cls-4" x="421.6" y="197.12" width="707.21" height="3.05"/>
        </g>
    </g>
    <path class="cls-5" d="M20.9,194.44H31a19.45,19.45,0,1,1,0,38.89H29.07a19.45,19.45,0,0,0,0,38.89H180.74a19.45,19.45,0,0,1,0,38.89H169.56a19.45,19.45,0,1,0,0,38.89H560.88a19.45,19.45,0,0,0,0-38.89H514.21a19.45,19.45,0,1,1,0-38.89H645.46a19.45,19.45,0,0,0,0-38.89h-7.78a19.45,19.45,0,0,1,0-38.89H679.1a19.44,19.44,0,0,0,0-38.88H629.32a19.45,19.45,0,0,1,0-38.89h20a19.45,19.45,0,0,0,0-38.89H512.75a19.45,19.45,0,0,1,0-38.89h83.13a19.45,19.45,0,0,0,0-38.89H146.71a19.45,19.45,0,1,0,0,38.89h17.5a19.45,19.45,0,0,1,0,38.89H34.9a19.45,19.45,0,0,0,0,38.89h78.75a19.45,19.45,0,1,1,0,38.89H20.9a19.44,19.44,0,0,0,0,38.88Z"/>
    <g class="cls-6">
        <g class="cls-7">
            <path class="cls-8" d="M-4.22-13.69V-28l-12.41-7.16L-29-28v14.33l12.41,7.16Zm40.8,0V-28L24.17-35.18,11.76-28v14.33L24.17-6.53ZM-8.64,19.53,3.77,26.69l12.41-7.16V5.2L3.77-2-8.64,5.2Zm4.42,33.22V38.43l-12.41-7.17L-29,38.43V52.75l12.41,7.17Zm16-14.32V52.75l12.41,7.17,12.41-7.17V38.43L24.17,31.26ZM-8.64,71.65V86L3.77,93.14,16.18,86V71.65L3.77,64.49Zm4.42,47.55V104.88l-12.41-7.17L-29,104.88V119.2l12.41,7.17Zm16-14.32V119.2l12.41,7.17,12.41-7.17V104.88L24.17,97.71Zm-20.4,47.55,12.41,7.16,12.41-7.16V138.1L3.77,130.94-8.64,138.1Zm4.42,33.22V171.32l-12.41-7.16L-29,171.32v14.33l12.41,7.16Zm16,0,12.41,7.16,12.41-7.16V171.32l-12.41-7.16-12.41,7.16Zm-20.4,33.22L3.77,226l12.41-7.17V204.55L3.77,197.38l-12.41,7.17Zm4.42,33.23V237.77l-12.41-7.16L-29,237.77V252.1l12.41,7.16Zm40.8,0V237.77l-12.41-7.16-12.41,7.16V252.1l12.41,7.16ZM-8.64,285.32l12.41,7.17,12.41-7.17V271L3.77,263.83-8.64,271Zm4.42,18.9-12.41-7.16L-29,304.22v14.33l12.41,7.16,12.41-7.16Zm40.8,0-12.41-7.16-12.41,7.16v14.33l12.41,7.16,12.41-7.16ZM-8.64,337.44v14.33l12.41,7.16,12.41-7.16V337.44L3.77,330.28ZM75.05-13.69V-28L62.64-35.18,50.23-28v14.33L62.64-6.53ZM29.83,19.53l12.41,7.16,12.41-7.16V5.2L42.24-2,29.83,5.2Zm20.4,18.9V52.75l12.41,7.17,12.41-7.17V38.43L62.64,31.26ZM29.83,71.65V86l12.41,7.16L54.65,86V71.65L42.24,64.49Zm20.4,33.23V119.2l12.41,7.17,12.41-7.17V104.88L62.64,97.71ZM29.83,138.1v14.33l12.41,7.16,12.41-7.16V138.1l-12.41-7.16Zm45.22,47.55V171.32l-12.41-7.16-12.41,7.16v14.33l12.41,7.16Zm-20.4,33.22V204.55l-12.41-7.17-12.41,7.17v14.32L42.24,226Zm20.4,33.23V237.77l-12.41-7.16-12.41,7.16V252.1l12.41,7.16Zm-20.4,33.22V271l-12.41-7.17L29.83,271v14.32l12.41,7.17Zm20.4,18.9-12.41-7.16-12.41,7.16v14.33l12.41,7.16,12.41-7.16ZM29.83,337.44v14.33l12.41,7.16,12.41-7.16V337.44l-12.41-7.16ZM113.52-13.69V-28l-12.41-7.16L88.7-28v14.33l12.41,7.16ZM68.3,19.53l12.41,7.16,12.41-7.16V5.2L80.71-2,68.3,5.2Zm20.4,18.9V52.75l12.41,7.17,12.41-7.17V38.43l-12.41-7.17ZM68.3,71.65V86l12.41,7.16L93.12,86V71.65L80.71,64.49Zm20.4,33.23V119.2l12.41,7.17,12.41-7.17V104.88l-12.41-7.17ZM68.3,138.1v14.33l12.41,7.16,12.41-7.16V138.1l-12.41-7.16Zm45.22,47.55V171.32l-12.41-7.16L88.7,171.32v14.33l12.41,7.16Zm-20.4,33.22V204.55l-12.41-7.17L68.3,204.55v14.32L80.71,226Zm20.4,33.23V237.77l-12.41-7.16L88.7,237.77V252.1l12.41,7.16Zm-20.4,33.22V271l-12.41-7.17L68.3,271v14.32l12.41,7.17Zm20.4,18.9-12.41-7.16L88.7,304.22v14.33l12.41,7.16,12.41-7.16ZM68.3,337.44v14.33l12.41,7.16,12.41-7.16V337.44l-12.41-7.16ZM152-13.69V-28l-12.41-7.16L127.17-28v14.33l12.41,7.16ZM106.77,19.53l12.41,7.16,12.41-7.16V5.2L119.18-2,106.77,5.2Zm20.4,18.9V52.75l12.41,7.17L152,52.75V38.43l-12.41-7.17Zm-20.4,33.22V86l12.41,7.16L131.59,86V71.65l-12.41-7.16Zm20.4,33.23V119.2l12.41,7.17L152,119.2V104.88l-12.41-7.17Zm-20.4,33.22v14.33l12.41,7.16,12.41-7.16V138.1l-12.41-7.16ZM152,185.65V171.32l-12.41-7.16-12.41,7.16v14.33l12.41,7.16Zm-20.4,33.22V204.55l-12.41-7.17-12.41,7.17v14.32L119.18,226ZM152,252.1V237.77l-12.41-7.16-12.41,7.16V252.1l12.41,7.16Zm-20.4,33.22V271l-12.41-7.17L106.77,271v14.32l12.41,7.17Zm20.4,18.9-12.41-7.16-12.41,7.16v14.33l12.41,7.16L152,318.55Zm-45.22,33.22v14.33l12.41,7.16,12.41-7.16V337.44l-12.41-7.16ZM190.46-13.69V-28l-12.41-7.16L165.64-28v14.33l12.41,7.16ZM145.24,19.53l12.41,7.16,12.41-7.16V5.2L157.65-2,145.24,5.2Zm20.4,18.9V52.75l12.41,7.17,12.41-7.17V38.43l-12.41-7.17Zm-20.4,33.22V86l12.41,7.16L170.06,86V71.65l-12.41-7.16Zm20.4,33.23V119.2l12.41,7.17,12.41-7.17V104.88l-12.41-7.17Zm-20.4,33.22v14.33l12.41,7.16,12.41-7.16V138.1l-12.41-7.16Zm45.22,47.55V171.32l-12.41-7.16-12.41,7.16v14.33l12.41,7.16Zm-20.4,33.22V204.55l-12.41-7.17-12.41,7.17v14.32L157.65,226Zm20.4,33.23V237.77l-12.41-7.16-12.41,7.16V252.1l12.41,7.16Zm-20.4,33.22V271l-12.41-7.17L145.24,271v14.32l12.41,7.17Zm20.4,18.9-12.41-7.16-12.41,7.16v14.33l12.41,7.16,12.41-7.16Zm-45.22,33.22v14.33l12.41,7.16,12.41-7.16V337.44l-12.41-7.16ZM228.93-13.69V-28l-12.41-7.16L204.11-28v14.33l12.41,7.16ZM183.71,19.53l12.41,7.16,12.41-7.16V5.2L196.12-2,183.71,5.2Zm20.4,18.9V52.75l12.41,7.17,12.41-7.17V38.43l-12.41-7.17Zm-20.4,33.22V86l12.41,7.16L208.53,86V71.65l-12.41-7.16Zm20.4,33.23V119.2l12.41,7.17,12.41-7.17V104.88l-12.41-7.17Zm-20.4,33.22v14.33l12.41,7.16,12.41-7.16V138.1l-12.41-7.16Zm45.22,47.55V171.32l-12.41-7.16-12.41,7.16v14.33l12.41,7.16Zm-20.4,33.22V204.55l-12.41-7.17-12.41,7.17v14.32L196.12,226Zm20.4,33.23V237.77l-12.41-7.16-12.41,7.16V252.1l12.41,7.16Zm-20.4,33.22V271l-12.41-7.17L183.71,271v14.32l12.41,7.17Zm20.4,18.9-12.41-7.16-12.41,7.16v14.33l12.41,7.16,12.41-7.16Zm-45.22,33.22v14.33l12.41,7.16,12.41-7.16V337.44l-12.41-7.16ZM267.4-13.69V-28L255-35.18,242.58-28v14.33L255-6.53ZM222.18,19.53l12.41,7.16L247,19.53V5.2L234.59-2,222.18,5.2Zm20.4,18.9V52.75L255,59.92l12.41-7.17V38.43L255,31.26Zm-20.4,33.22V86l12.41,7.16L247,86V71.65l-12.41-7.16Zm20.4,33.23V119.2L255,126.37l12.41-7.17V104.88L255,97.71Zm-20.4,33.22v14.33l12.41,7.16L247,152.43V138.1l-12.41-7.16Zm45.22,47.55V171.32L255,164.16l-12.41,7.16v14.33L255,192.81ZM247,218.87V204.55l-12.41-7.17-12.41,7.17v14.32L234.59,226Zm20.4,33.23V237.77L255,230.61l-12.41,7.16V252.1L255,259.26ZM247,285.32V271l-12.41-7.17L222.18,271v14.32l12.41,7.17Zm20.4,18.9L255,297.06l-12.41,7.16v14.33L255,325.71l12.41-7.16Zm-45.22,33.22v14.33l12.41,7.16L247,351.77V337.44l-12.41-7.16ZM305.87-13.69V-28l-12.41-7.16L281.05-28v14.33l12.41,7.16ZM260.65,19.53l12.41,7.16,12.41-7.16V5.2L273.06-2,260.65,5.2Zm20.4,18.9V52.75l12.41,7.17,12.41-7.17V38.43l-12.41-7.17Zm-20.4,33.22V86l12.41,7.16L285.47,86V71.65l-12.41-7.16Zm20.4,33.23V119.2l12.41,7.17,12.41-7.17V104.88l-12.41-7.17Zm-20.4,33.22v14.33l12.41,7.16,12.41-7.16V138.1l-12.41-7.16Zm45.22,47.55V171.32l-12.41-7.16-12.41,7.16v14.33l12.41,7.16Zm-20.4,33.22V204.55l-12.41-7.17-12.41,7.17v14.32L273.06,226Zm20.4,33.23V237.77l-12.41-7.16-12.41,7.16V252.1l12.41,7.16Zm-20.4,33.22V271l-12.41-7.17L260.65,271v14.32l12.41,7.17Zm20.4,18.9-12.41-7.16-12.41,7.16v14.33l12.41,7.16,12.41-7.16Zm-45.22,33.22v14.33l12.41,7.16,12.41-7.16V337.44l-12.41-7.16ZM344.34-13.69V-28l-12.41-7.16L319.52-28v14.33l12.41,7.16ZM299.12,19.53l12.41,7.16,12.41-7.16V5.2L311.53-2,299.12,5.2Zm20.4,18.9V52.75l12.41,7.17,12.41-7.17V38.43l-12.41-7.17Zm-20.4,33.22V86l12.41,7.16L323.94,86V71.65l-12.41-7.16Zm20.4,33.23V119.2l12.41,7.17,12.41-7.17V104.88l-12.41-7.17Zm-20.4,33.22v14.33l12.41,7.16,12.41-7.16V138.1l-12.41-7.16Zm45.22,47.55V171.32l-12.41-7.16-12.41,7.16v14.33l12.41,7.16Zm-20.4,33.22V204.55l-12.41-7.17-12.41,7.17v14.32L311.53,226Zm20.4,33.23V237.77l-12.41-7.16-12.41,7.16V252.1l12.41,7.16Zm-20.4,33.22V271l-12.41-7.17L299.12,271v14.32l12.41,7.17Zm20.4,18.9-12.41-7.16-12.41,7.16v14.33l12.41,7.16,12.41-7.16Zm-45.22,33.22v14.33l12.41,7.16,12.41-7.16V337.44l-12.41-7.16ZM382.81-13.69V-28L370.4-35.18,358-28v14.33L370.4-6.53ZM337.59,19.53,350,26.69l12.41-7.16V5.2L350-2,337.59,5.2ZM358,38.43V52.75l12.41,7.17,12.41-7.17V38.43L370.4,31.26Zm-20.4,33.22V86L350,93.14,362.41,86V71.65L350,64.49ZM358,104.88V119.2l12.41,7.17,12.41-7.17V104.88L370.4,97.71Zm-20.4,33.22v14.33L350,159.59l12.41-7.16V138.1L350,130.94Zm45.22,47.55V171.32l-12.41-7.16L358,171.32v14.33l12.41,7.16Zm-20.4,33.22V204.55L350,197.38l-12.41,7.17v14.32L350,226Zm20.4,33.23V237.77l-12.41-7.16L358,237.77V252.1l12.41,7.16Zm-20.4,33.22V271L350,263.83,337.59,271v14.32L350,292.49Zm20.4,18.9-12.41-7.16L358,304.22v14.33l12.41,7.16,12.41-7.16Zm-45.22,33.22v14.33L350,358.93l12.41-7.16V337.44L350,330.28ZM421.28-13.69V-28l-12.41-7.16L396.46-28v14.33l12.41,7.16ZM376.06,19.53l12.41,7.16,12.41-7.16V5.2L388.47-2,376.06,5.2Zm20.4,18.9V52.75l12.41,7.17,12.41-7.17V38.43l-12.41-7.17Zm-20.4,33.22V86l12.41,7.16L400.88,86V71.65l-12.41-7.16Zm20.4,33.23V119.2l12.41,7.17,12.41-7.17V104.88l-12.41-7.17Zm-20.4,33.22v14.33l12.41,7.16,12.41-7.16V138.1l-12.41-7.16Zm45.22,47.55V171.32l-12.41-7.16-12.41,7.16v14.33l12.41,7.16Zm-20.4,33.22V204.55l-12.41-7.17-12.41,7.17v14.32L388.47,226Zm20.4,33.23V237.77l-12.41-7.16-12.41,7.16V252.1l12.41,7.16Zm-20.4,33.22V271l-12.41-7.17L376.06,271v14.32l12.41,7.17Zm20.4,18.9-12.41-7.16-12.41,7.16v14.33l12.41,7.16,12.41-7.16Zm-45.22,33.22v14.33l12.41,7.16,12.41-7.16V337.44l-12.41-7.16ZM459.75-13.69V-28l-12.41-7.16L434.93-28v14.33l12.41,7.16ZM414.53,19.53l12.41,7.16,12.41-7.16V5.2L426.94-2,414.53,5.2Zm20.4,18.9V52.75l12.41,7.17,12.41-7.17V38.43l-12.41-7.17Zm-20.4,33.22V86l12.41,7.16L439.35,86V71.65l-12.41-7.16Zm20.4,33.23V119.2l12.41,7.17,12.41-7.17V104.88l-12.41-7.17Zm-20.4,33.22v14.33l12.41,7.16,12.41-7.16V138.1l-12.41-7.16Zm45.22,47.55V171.32l-12.41-7.16-12.41,7.16v14.33l12.41,7.16Zm-20.4,33.22V204.55l-12.41-7.17-12.41,7.17v14.32L426.94,226Zm20.4,33.23V237.77l-12.41-7.16-12.41,7.16V252.1l12.41,7.16Zm-20.4,33.22V271l-12.41-7.17L414.53,271v14.32l12.41,7.17Zm20.4,18.9-12.41-7.16-12.41,7.16v14.33l12.41,7.16,12.41-7.16Zm-45.22,33.22v14.33l12.41,7.16,12.41-7.16V337.44l-12.41-7.16ZM498.22-13.69V-28l-12.41-7.16L473.4-28v14.33l12.41,7.16ZM453,19.53l12.41,7.16,12.41-7.16V5.2L465.41-2,453,5.2Zm20.4,18.9V52.75l12.41,7.17,12.41-7.17V38.43l-12.41-7.17ZM453,71.65V86l12.41,7.16L477.82,86V71.65l-12.41-7.16Zm20.4,33.23V119.2l12.41,7.17,12.41-7.17V104.88l-12.41-7.17ZM453,138.1v14.33l12.41,7.16,12.41-7.16V138.1l-12.41-7.16Zm45.22,47.55V171.32l-12.41-7.16-12.41,7.16v14.33l12.41,7.16Zm-20.4,33.22V204.55l-12.41-7.17L453,204.55v14.32L465.41,226Zm20.4,33.23V237.77l-12.41-7.16-12.41,7.16V252.1l12.41,7.16Zm-20.4,33.22V271l-12.41-7.17L453,271v14.32l12.41,7.17Zm20.4,18.9-12.41-7.16-12.41,7.16v14.33l12.41,7.16,12.41-7.16ZM453,337.44v14.33l12.41,7.16,12.41-7.16V337.44l-12.41-7.16ZM536.69-13.69V-28l-12.41-7.16L511.87-28v14.33l12.41,7.16ZM491.47,19.53l12.41,7.16,12.41-7.16V5.2L503.88-2,491.47,5.2Zm20.4,18.9V52.75l12.41,7.17,12.41-7.17V38.43l-12.41-7.17Zm-20.4,33.22V86l12.41,7.16L516.29,86V71.65l-12.41-7.16Zm20.4,33.23V119.2l12.41,7.17,12.41-7.17V104.88l-12.41-7.17Zm-20.4,33.22v14.33l12.41,7.16,12.41-7.16V138.1l-12.41-7.16Zm45.22,47.55V171.32l-12.41-7.16-12.41,7.16v14.33l12.41,7.16Zm-20.4,33.22V204.55l-12.41-7.17-12.41,7.17v14.32L503.88,226Zm20.4,33.23V237.77l-12.41-7.16-12.41,7.16V252.1l12.41,7.16Zm-20.4,33.22V271l-12.41-7.17L491.47,271v14.32l12.41,7.17Zm20.4,18.9-12.41-7.16-12.41,7.16v14.33l12.41,7.16,12.41-7.16Zm-45.22,33.22v14.33l12.41,7.16,12.41-7.16V337.44l-12.41-7.16ZM575.16-13.69V-28l-12.41-7.16L550.34-28v14.33l12.41,7.16ZM529.94,19.53l12.41,7.16,12.41-7.16V5.2L542.35-2,529.94,5.2Zm20.4,18.9V52.75l12.41,7.17,12.41-7.17V38.43l-12.41-7.17Zm-20.4,33.22V86l12.41,7.16L554.76,86V71.65l-12.41-7.16Zm20.4,33.23V119.2l12.41,7.17,12.41-7.17V104.88l-12.41-7.17Zm-20.4,33.22v14.33l12.41,7.16,12.41-7.16V138.1l-12.41-7.16Zm45.22,47.55V171.32l-12.41-7.16-12.41,7.16v14.33l12.41,7.16Zm-20.4,33.22V204.55l-12.41-7.17-12.41,7.17v14.32L542.35,226Zm20.4,33.23V237.77l-12.41-7.16-12.41,7.16V252.1l12.41,7.16Zm-20.4,33.22V271l-12.41-7.17L529.94,271v14.32l12.41,7.17Zm20.4,18.9-12.41-7.16-12.41,7.16v14.33l12.41,7.16,12.41-7.16Zm-45.22,33.22v14.33l12.41,7.16,12.41-7.16V337.44l-12.41-7.16ZM613.63-13.69V-28l-12.41-7.16L588.81-28v14.33l12.41,7.16ZM568.41,19.53l12.41,7.16,12.41-7.16V5.2L580.82-2,568.41,5.2Zm20.4,18.9V52.75l12.41,7.17,12.41-7.17V38.43l-12.41-7.17Zm-20.4,33.22V86l12.41,7.16L593.23,86V71.65l-12.41-7.16Zm20.4,33.23V119.2l12.41,7.17,12.41-7.17V104.88l-12.41-7.17Zm-20.4,33.22v14.33l12.41,7.16,12.41-7.16V138.1l-12.41-7.16Zm45.22,47.55V171.32l-12.41-7.16-12.41,7.16v14.33l12.41,7.16Zm-20.4,33.22V204.55l-12.41-7.17-12.41,7.17v14.32L580.82,226Zm20.4,33.23V237.77l-12.41-7.16-12.41,7.16V252.1l12.41,7.16Zm-20.4,33.22V271l-12.41-7.17L568.41,271v14.32l12.41,7.17Zm20.4,18.9-12.41-7.16-12.41,7.16v14.33l12.41,7.16,12.41-7.16Zm-45.22,33.22v14.33l12.41,7.16,12.41-7.16V337.44l-12.41-7.16ZM652.1-13.69V-28l-12.41-7.16L627.28-28v14.33l12.41,7.16ZM606.88,19.53l12.41,7.16,12.41-7.16V5.2L619.29-2,606.88,5.2Zm20.4,18.9V52.75l12.41,7.17,12.41-7.17V38.43l-12.41-7.17Zm-20.4,33.22V86l12.41,7.16L631.7,86V71.65l-12.41-7.16Zm20.4,33.23V119.2l12.41,7.17,12.41-7.17V104.88l-12.41-7.17Zm-20.4,33.22v14.33l12.41,7.16,12.41-7.16V138.1l-12.41-7.16Zm45.22,47.55V171.32l-12.41-7.16-12.41,7.16v14.33l12.41,7.16Zm-20.4,33.22V204.55l-12.41-7.17-12.41,7.17v14.32L619.29,226Zm20.4,33.23V237.77l-12.41-7.16-12.41,7.16V252.1l12.41,7.16Zm-20.4,33.22V271l-12.41-7.17L606.88,271v14.32l12.41,7.17Zm20.4,18.9-12.41-7.16-12.41,7.16v14.33l12.41,7.16,12.41-7.16Zm-45.22,33.22v14.33l12.41,7.16,12.41-7.16V337.44l-12.41-7.16ZM690.57-13.69V-28l-12.41-7.16L665.75-28v14.33l12.41,7.16ZM645.35,19.53l12.41,7.16,12.41-7.16V5.2L657.76-2,645.35,5.2Zm45.22,18.9-12.41-7.17-12.41,7.17V52.75l12.41,7.17,12.41-7.17ZM645.35,71.65V86l12.41,7.16L670.17,86V71.65l-12.41-7.16Zm45.22,33.23-12.41-7.17-12.41,7.17V119.2l12.41,7.17,12.41-7.17Zm-45.22,47.55,12.41,7.16,12.41-7.16V138.1l-12.41-7.16-12.41,7.16Zm45.22,33.22V171.32l-12.41-7.16-12.41,7.16v14.33l12.41,7.16Zm-20.4,33.22V204.55l-12.41-7.17-12.41,7.17v14.32L657.76,226Zm20.4,33.23V237.77l-12.41-7.16-12.41,7.16V252.1l12.41,7.16Zm-20.4,33.22V271l-12.41-7.17L645.35,271v14.32l12.41,7.17Zm20.4,18.9-12.41-7.16-12.41,7.16v14.33l12.41,7.16,12.41-7.16Zm-45.22,33.22v14.33l12.41,7.16,12.41-7.16V337.44l-12.41-7.16ZM716.63-35.18,704.22-28v14.33l12.41,7.16L729-13.69V-28Zm-8,40.38L696.23-2,683.82,5.2V19.53l12.41,7.16,12.41-7.16Zm-4.42,33.23V52.75l12.41,7.17L729,52.75V38.43l-12.41-7.17Zm4.42,33.22-12.41-7.16-12.41,7.16V86l12.41,7.16L708.64,86Zm-4.42,33.23V119.2l12.41,7.17L729,119.2V104.88l-12.41-7.17Zm4.42,33.22-12.41-7.16-12.41,7.16v14.33l12.41,7.16,12.41-7.16Zm-4.42,33.22v14.33l12.41,7.16L729,185.65V171.32l-12.41-7.16Zm4.42,33.23-12.41-7.17-12.41,7.17v14.32L696.23,226l12.41-7.17Zm-4.42,33.22V252.1l12.41,7.16L729,252.1V237.77l-12.41-7.16Zm4.42,47.55V271l-12.41-7.17L683.82,271v14.32l12.41,7.17Zm-4.42,18.9v14.33l12.41,7.16L729,318.55V304.22l-12.41-7.16Zm-20.4,33.22v14.33l12.41,7.16,12.41-7.16V337.44l-12.41-7.16Z"/>
        </g>
    </g>
    <g class="cls-9">
        <path class="cls-10" d="M92.72,301.52a199.76,199.76,0,0,1-199.93-198,19.58,19.58,0,0,1,19.4-19.75h.18a19.58,19.58,0,0,1,19.57,19.4A159.85,159.85,0,0,0-21,215.37c62.69,62.69,164.7,62.69,227.39,0a19.58,19.58,0,0,1,27.68,27.69A199.35,199.35,0,0,1,92.72,301.52Z"/>
        <rect class="cls-11" x="248.79" y="37.77" width="214.08" height="274.46" rx="18.15" ry="18.15"/>
        <rect class="cls-12" x="262.5" y="70" width="186.67" height="210" transform="translate(711.66 350) rotate(180)"/>
        <rect class="cls-13" x="262.5" y="70" width="186.67" height="87.5" transform="translate(711.66 227.5) rotate(180)"/>
        <rect class="cls-14" x="262.5" y="157.5" width="186.67" height="57.71" transform="translate(711.66 372.71) rotate(180)"/>
        <rect class="cls-15" x="262.5" y="215.21" width="186.67" height="64.79" transform="translate(711.66 495.21) rotate(180)"/>
        <circle class="cls-16" cx="355.83" cy="296.11" r="3.65"/>
        <line class="cls-17" x1="362.15" y1="53.89" x2="349.51" y2="53.89"/>
        <ellipse class="cls-14" cx="306.95" cy="113.75" rx="29.87" ry="29.17"/>
        <g class="cls-18">
            <path class="cls-19" d="M291.87,134.78s0-25.23,0-25.29a15.08,15.08,0,0,1,30.15.06v25.23Z"/>
            <path class="cls-20" d="M313.3,128.39H300.6a13.53,13.53,0,0,0-13.69,13.36V161H327V141.75A13.53,13.53,0,0,0,313.3,128.39Z"/>
            <path class="cls-21" d="M311.72,130.43s-.05,3.79-4.8,3.79-4.74-3.79-4.74-3.79v-7.8h9.54Z"/>
            <path class="cls-21" d="M316.78,111.81v4.08a9.84,9.84,0,0,1-19.66,0v-4c0-6.28,9.74-6.59,9.74-10C306.86,105.22,316.78,105.91,316.78,111.81Z"/>
            <line class="cls-17" x1="293.99" y1="161.01" x2="293.99" y2="144.42"/>
            <line class="cls-17" x1="319.91" y1="161.01" x2="319.91" y2="144.42"/>
        </g>
        <ellipse class="cls-17" cx="306.95" cy="113.75" rx="29.87" ry="29.17"/>
        <line class="cls-17" x1="351.4" y1="102.08" x2="415.62" y2="102.08"/>
        <line class="cls-17" x1="351.4" y1="125.42" x2="401.04" y2="125.42"/>
        <line class="cls-17" x1="351.4" y1="113.75" x2="386.46" y2="113.75"/>
        <rect class="cls-13" x="278.54" y="172.08" width="32.08" height="9.72"/>
        <rect class="cls-13" x="278.54" y="181.81" width="32.08" height="9.72"/>
        <rect class="cls-13" x="401.04" y="181.81" width="32.08" height="9.72"/>
        <rect class="cls-13" x="339.79" y="176.94" width="32.08" height="9.72"/>
        <rect class="cls-13" x="278.54" y="191.53" width="32.08" height="9.72"/>
        <rect class="cls-13" x="339.79" y="186.67" width="32.08" height="9.72"/>
        <line class="cls-17" x1="325.21" y1="176.94" x2="325.21" y2="196.39"/>
        <line class="cls-17" x1="386.46" y1="181.81" x2="386.46" y2="191.53"/>
        <line class="cls-17" x1="374.79" y1="181.81" x2="386.46" y2="181.81"/>
        <line class="cls-17" x1="310.62" y1="176.94" x2="325.21" y2="176.94"/>
        <line class="cls-17" x1="310.62" y1="196.39" x2="325.21" y2="196.39"/>
        <line class="cls-17" x1="310.62" y1="186.67" x2="325.21" y2="186.67"/>
        <line class="cls-17" x1="374.79" y1="191.53" x2="386.46" y2="191.53"/>
        <line class="cls-17" x1="386.46" y1="186.67" x2="401.04" y2="186.67"/>
        <line class="cls-17" x1="325.21" y1="181.81" x2="336.87" y2="181.81"/>
        <line class="cls-17" x1="325.21" y1="191.53" x2="336.87" y2="191.53"/>
        
        
        
        <polygon class="cls-22" points="289.71 233.02 277.08 240.31 277.08 254.9 289.71 262.19 302.34 254.9 302.34 240.31 289.71 233.02"/>
        <polygon class="cls-23" points="333.79 233.02 321.16 240.31 321.16 254.9 333.79 262.19 346.42 254.9 346.42 240.31 333.79 233.02"/>
        <polygon class="cls-24" points="377.87 233.02 365.24 240.31 365.24 254.9 377.87 262.19 390.5 254.9 390.5 240.31 377.87 233.02"/>
        <polygon class="cls-25" points="421.95 233.02 409.32 240.31 409.32 254.9 421.95 262.19 434.58 254.9 434.58 240.31 421.95 233.02"/>
        

        <path class="cls-22" d="M267.14,187.07H248.79V161.3l-40.06,40.06a20.12,20.12,0,0,0,0,28.44L223.88,245a20.09,20.09,0,0,0,24.91,2.78V209.07h18.35a11,11,0,0,0,0-22Z"/>
    </g>
    <g id="bird">
        <line class="cls-22" x1="117.88" y1="234.66" x2="117.88" y2="259.74"/>
        <line class="cls-22" x1="129.37" y1="234.66" x2="129.37" y2="258.28"/>
        <path class="cls-26" d="M154.66,210a18.8,18.8,0,0,0-34.12-10.91l-.15-.06a26.17,26.17,0,0,1-36.62,5.59A39.39,39.39,0,0,0,123.15,244a31.51,31.51,0,0,0,31.51-31.51l-.17-.07A19.44,19.44,0,0,0,154.66,210Z"/>
        <polygon class="cls-22" points="166.18 209.96 151.73 215.81 145.89 209.96 151.73 204.12 166.18 209.96"/>
        <circle class="cls-16" cx="141.5" cy="202.09" r="2.72"/>
    </g>
    <path id="finger" class="cls-22" d="M250.9,187.07h25a11,11,0,0,1,0,22H240.21"/>
</svg>

