<svg id="Layer_1" data-name="Layer 1" 
    xmlns="http://www.w3.org/2000/svg" 
    xmlns:xlink="http://www.w3.org/1999/xlink" viewBox="0 0 700 350">
    <defs>
        <style>.cls-1,.cls-16{fill:none;}.cls-2,.cls-20,.cls-27,.cls-7,.cls-8{fill:#666e95;}.cls-2,.cls-6{opacity:0.3;}.cls-18,.cls-19,.cls-24,.cls-3{fill:#fff;}.cls-4{opacity:0.4;}.cls-5{clip-path:url(#clip-path);}.cls-10,.cls-6,.cls-9{fill:#4a4f80;}.cls-6,.cls-7,.cls-8,.cls-9{stroke:#4a4f80;}.cls-16,.cls-17,.cls-20,.cls-21,.cls-22,.cls-23,.cls-24,.cls-25,.cls-26,.cls-27,.cls-28,.cls-30,.cls-6,.cls-7,.cls-8,.cls-9{stroke-linecap:round;}.cls-14,.cls-16,.cls-17,.cls-18,.cls-20,.cls-21,.cls-22,.cls-23,.cls-24,.cls-25,.cls-26,.cls-27,.cls-28,.cls-30,.cls-6,.cls-7,.cls-8,.cls-9{stroke-linejoin:round;}.cls-6{stroke-width:2.92px;}.cls-12,.cls-13,.cls-14,.cls-16,.cls-17,.cls-18,.cls-20,.cls-21,.cls-22,.cls-23,.cls-24,.cls-25,.cls-26,.cls-28,.cls-30,.cls-7,.cls-8,.cls-9{stroke-width:3.5px;}.cls-7{opacity:0.5;}.cls-11{clip-path:url(#clip-path-2);}.cls-12,.cls-15,.cls-21{fill:#282c4c;}.cls-12,.cls-13,.cls-14,.cls-16,.cls-17,.cls-18,.cls-20,.cls-21,.cls-22,.cls-23,.cls-24,.cls-25,.cls-26,.cls-27,.cls-28,.cls-30{stroke:#282c4c;}.cls-12,.cls-13{stroke-miterlimit:10;}.cls-13,.cls-23{fill:#6cc7be;}.cls-14,.cls-17{fill:#f48667;}.cls-19{opacity:0.7;}.cls-22{fill:#56bcde;}.cls-25{fill:#545faa;}.cls-26{fill:#f1717e;}.cls-27{stroke-width:3.82px;}.cls-28{fill:#754381;}.cls-29{fill:#53aa9f;}.cls-30{fill:#b5445b;}</style>
        <clipPath id="clip-path">
            <path class="cls-1" d="M20.9,155.56H31a19.45,19.45,0,1,0,0-38.89H29.07a19.45,19.45,0,1,1,0-38.89H137a19.45,19.45,0,0,0,0-38.89H125.81a19.45,19.45,0,1,1,0-38.89H575.46a19.45,19.45,0,0,1,0,38.89H558a19.45,19.45,0,1,0,0,38.89h87.5a19.45,19.45,0,0,1,0,38.89h-7.78a19.45,19.45,0,0,0,0,38.89H679.1a19.44,19.44,0,0,1,0,38.88H629.32a19.45,19.45,0,0,0,0,38.89h20a19.45,19.45,0,0,1,0,38.89H593a19.45,19.45,0,1,0,0,38.89h17.5a19.45,19.45,0,0,1,0,38.89H73.79a19.45,19.45,0,0,1,0-38.89h17.5a19.45,19.45,0,1,0,0-38.89H34.9a19.45,19.45,0,0,1,0-38.89h35a19.45,19.45,0,1,0,0-38.89h-49a19.44,19.44,0,0,1,0-38.88Z"/>
        </clipPath>
        <clipPath id="clip-path-2">
            <rect class="cls-1" width="700" height="350"/>
        </clipPath>
    </defs>
    <title>badgr_plan</title>
    <rect class="cls-1" width="700" height="350"/>
    <path class="cls-2" d="M679.1,155.56H637.68a19.45,19.45,0,0,1,0-38.89h7.78a19.45,19.45,0,0,0,0-38.89H558a19.45,19.45,0,1,1,0-38.89h17.5a19.45,19.45,0,0,0,0-38.89H125.81a19.45,19.45,0,1,0,0,38.89H137a19.45,19.45,0,0,1,0,38.89H29.07a19.45,19.45,0,1,0,0,38.89H31a19.45,19.45,0,1,1,0,38.89H20.9a19.44,19.44,0,0,0,0,38.88h49a19.45,19.45,0,1,1,0,38.89h-35a19.45,19.45,0,0,0,0,38.89H91.29a19.45,19.45,0,1,1,0,38.89H73.79a19.45,19.45,0,0,0,0,38.89H610.46a19.45,19.45,0,0,0,0-38.89H593a19.45,19.45,0,1,1,0-38.89h56.39a19.45,19.45,0,0,0,0-38.89h-20a19.45,19.45,0,1,1,0-38.89H679.1a19.44,19.44,0,0,0,0-38.88Z"/>
    <path class="cls-3" d="M556.75,103.06l-.06-.17A15.87,15.87,0,0,0,541.5,92a15.55,15.55,0,0,0-7.74,2.22A26.13,26.13,0,0,0,489,78.71,55.73,55.73,0,0,0,380.69,94.23,15.71,15.71,0,0,0,372.91,92a15.87,15.87,0,0,0-15.25,10.93l-.06.17a6.55,6.55,0,0,0,6.28,8.54h186.6A6.54,6.54,0,0,0,556.75,103.06Z"/>
    <g class="cls-4">
        <g class="cls-5">
            <polygon class="cls-6" points="675.63 105.84 610.67 170.81 585.33 145.47 568.94 161.87 535.66 128.59 497.91 166.34 423.51 91.94 365.07 150.38 320.53 105.84 255.57 170.81 230.24 145.47 213.85 161.87 180.57 128.59 142.82 166.34 68.42 91.94 -17.01 177.37 -17.01 363.12 747.15 363.12 747.15 177.37 675.63 105.84"/>
            <path class="cls-7" d="M743.73,336.45a6,6,0,0,0-5.72-4.09,5.76,5.76,0,0,0-2.91.85,20.9,20.9,0,0,0-40.62-5.82,9.8,9.8,0,0,0-16.77,5.8,5.83,5.83,0,0,0-2.9-.83,5.49,5.49,0,0,0-1.63.22,8.56,8.56,0,0,0-7.12-3.64,8.66,8.66,0,0,0-4.25,1.22,14.34,14.34,0,0,0-24.55-8.49,30.59,30.59,0,0,0-59.46,8.52,8.51,8.51,0,0,0-11.92,3.19,5.72,5.72,0,0,0-3.39-1,5.82,5.82,0,0,0-2.92.85A20.89,20.89,0,0,0,519,327.39a9.8,9.8,0,0,0-16.77,5.8,5.86,5.86,0,0,0-2.9-.83,5.49,5.49,0,0,0-1.63.22,8.56,8.56,0,0,0-7.12-3.64,8.66,8.66,0,0,0-4.25,1.22,14.34,14.34,0,0,0-24.55-8.49,30.59,30.59,0,0,0-59.46,8.52A8.53,8.53,0,0,0,390.06,334a5.74,5.74,0,0,0-4.09-1.59,5.82,5.82,0,0,0-2.92.85,20.89,20.89,0,0,0-40.61-5.82,9.8,9.8,0,0,0-16.77,5.8,5.9,5.9,0,0,0-2.91-.83,5.47,5.47,0,0,0-1.62.22,8.56,8.56,0,0,0-7.12-3.64,8.66,8.66,0,0,0-4.25,1.22,14.34,14.34,0,0,0-24.55-8.49,30.59,30.59,0,0,0-59.46,8.52,8.52,8.52,0,0,0-11.93,3.19,5.67,5.67,0,0,0-3.38-1,5.82,5.82,0,0,0-2.92.85,20.89,20.89,0,0,0-40.61-5.82,9.8,9.8,0,0,0-16.77,5.8,5.9,5.9,0,0,0-2.91-.83,5.47,5.47,0,0,0-1.62.22,8.57,8.57,0,0,0-7.12-3.64,8.66,8.66,0,0,0-4.25,1.22,14.34,14.34,0,0,0-24.55-8.49,30.59,30.59,0,0,0-59.46,8.52A8.59,8.59,0,0,0,46,328.94a8.71,8.71,0,0,0-8.37,6l0,.09v57.64H743.75V336.52Z"/>
            <rect class="cls-8" x="94.82" y="221.8" width="8.59" height="134.03"/>
            <path class="cls-9" d="M94.82,253.09a9.19,9.19,0,0,0,8.59,0V218.61H94.82Z"/>
            <rect class="cls-8" x="47.84" y="130.73" width="102.55" height="102.55" rx="10" ry="10" transform="translate(-99.67 123.39) rotate(-45)"/>
            <path class="cls-8" d="M99.11,122.4a2.1,2.1,0,0,0-1.5.62L40.13,180.5a2.14,2.14,0,0,0,0,3L97.61,241a2.25,2.25,0,0,0,3,0l57.48-57.48a2.14,2.14,0,0,0,0-3L100.62,123A2.14,2.14,0,0,0,99.11,122.4Z"/>
            <circle class="cls-10" cx="99.11" cy="228.48" r="1.49"/>
            <circle class="cls-10" cx="99.11" cy="135.48" r="1.49"/>
            <path class="cls-10" d="M125.08,178.07a1.51,1.51,0,0,0-1.07-.45H108.92a1.52,1.52,0,0,0-1.07,2.58l15.09,15.09a1.51,1.51,0,0,0,1.07.44,1.66,1.66,0,0,0,.58-.11,1.53,1.53,0,0,0,.93-1.4V179.13A1.5,1.5,0,0,0,125.08,178.07Z"/>
            <path class="cls-10" d="M105.53,206.2a3.77,3.77,0,0,1-3.78-3.77c0-7.33,4.54-14.08,12.78-19a3.77,3.77,0,0,1,3.87,6.48c-5.87,3.5-9.1,7.94-9.1,12.51A3.77,3.77,0,0,1,105.53,206.2Z"/>
            <path class="cls-10" d="M73.15,178.07a1.47,1.47,0,0,1,1.06-.45H89.3a1.51,1.51,0,0,1,1.07,2.58L75.28,195.29a1.5,1.5,0,0,1-1.07.44,1.6,1.6,0,0,1-.57-.11,1.51,1.51,0,0,1-.93-1.4V179.13A1.46,1.46,0,0,1,73.15,178.07Z"/>
            <path class="cls-10" d="M92.7,206.2a3.77,3.77,0,0,0,3.77-3.77c0-7.33-4.54-14.08-12.78-19a3.77,3.77,0,1,0-3.86,6.48c5.86,3.5,9.1,7.94,9.1,12.51A3.76,3.76,0,0,0,92.7,206.2Z"/>
            <path class="cls-10" d="M110.85,166.75l-10.67-10.67a1.48,1.48,0,0,0-1.07-.44,1.5,1.5,0,0,0-1.07.44L87.38,166.75a1.5,1.5,0,0,0,1.06,2.57h6.9v18a3.78,3.78,0,0,0,7.55,0v-18h6.89a1.5,1.5,0,0,0,1.07-2.57Z"/>
        </g>
    </g>
    <g class="cls-11">
        <path class="cls-12" d="M504.67,278.6V232.25a27,27,0,0,1,54,.11V278.6Z"/>
        <path class="cls-13" d="M634.45,276.84a6.33,6.33,0,0,0-8.56.45,50.29,50.29,0,0,1-47.83,12.94,17.48,17.48,0,0,1-11.42-9.47,24.48,24.48,0,0,0-22.07-13.88H521.66a24.5,24.5,0,0,0-24.5,24.5v64.45h59.66V297.34a1.74,1.74,0,0,1,2.59-1.53,62.66,62.66,0,0,0,75.32-10A6.13,6.13,0,0,0,634.45,276.84Z"/>
        <path class="cls-14" d="M541.65,270.63s-.09,6.94-8.59,6.94-8.49-6.94-8.49-6.94V256.32h17.08Z"/>
        <path class="cls-14" d="M550.7,236.5V244a17.59,17.59,0,0,1-35.17-.08V236.5c0-11.51,17.42-12.08,17.42-18.33C533,224.42,550.7,225.68,550.7,236.5Z"/>
        <path class="cls-15" d="M537.46,249.68a4.63,4.63,0,0,1-9.25,0Z"/>
        <polyline class="cls-16" points="535 239.16 535 244.29 531.12 244.29"/>
        <circle class="cls-15" cx="542.01" cy="238.89" r="2.05"/>
        <circle class="cls-15" cx="524.66" cy="238.89" r="2.05"/>
        <path class="cls-14" d="M638.77,269.39a4.76,4.76,0,0,1,1.42-2.87l6.3-6.3c1.67-1.68,4.15-1.93,5.51-.56a3.17,3.17,0,0,1,.86,2.64,4.76,4.76,0,0,1-1.42,2.87l-6.3,6.3c-1.67,1.67-4.15,1.92-5.51.56A3.18,3.18,0,0,1,638.77,269.39Z"/>
        <polygon class="cls-17" points="615.74 288.16 584.7 270.23 584.7 234.39 615.74 216.47 646.78 234.39 646.78 270.23 615.74 288.16"/>
        <path class="cls-18" d="M630,251.59l.9-13.1-7.12,5.9a15.09,15.09,0,0,0-16,.26l-7.43-6.16.9,13.1s-.41,3.68-.41,5.79c0,8.38,11.94,12.25,15.17,12.25s15.18-3.87,15.18-12.25A27.27,27.27,0,0,0,630,251.59Z"/>
        <polygon class="cls-15" points="619.57 259.66 615.98 263.24 612.4 259.66 619.57 259.66"/>
        <path class="cls-17" d="M612.79,254.81a3.65,3.65,0,0,0-5.17,0"/>
        <path class="cls-17" d="M623.75,254.81a3.65,3.65,0,0,0-5.17,0"/>
        <line class="cls-16" x1="615.74" y1="199.37" x2="615.74" y2="180.12"/>
        <line class="cls-16" x1="653.17" y1="214.88" x2="666.78" y2="201.27"/>
        <line class="cls-16" x1="564.69" y1="201.27" x2="578.31" y2="214.88"/>
        <line class="cls-16" x1="598.59" y1="210.9" x2="597.45" y2="208.17"/>
        <line class="cls-16" x1="593.48" y1="198.58" x2="592.35" y2="195.85"/>
        <line class="cls-16" x1="657.15" y1="235.16" x2="659.89" y2="234.03"/>
        <line class="cls-16" x1="669.47" y1="230.06" x2="672.2" y2="228.92"/>
        <line class="cls-16" x1="632.89" y1="210.9" x2="634.02" y2="208.17"/>
        <line class="cls-16" x1="637.99" y1="198.58" x2="639.13" y2="195.85"/>
        <path class="cls-14" d="M645.65,276.6a4.76,4.76,0,0,1-2.87-1.42l-6.3-6.3c-1.68-1.67-1.93-4.15-.56-5.51a3.17,3.17,0,0,1,2.64-.86,4.76,4.76,0,0,1,2.87,1.42l6.3,6.3c1.67,1.67,1.92,4.15.56,5.51A3.18,3.18,0,0,1,645.65,276.6Z"/>
        <path class="cls-14" d="M640.7,281.55a4.76,4.76,0,0,1-2.87-1.42l-6.3-6.3c-1.68-1.67-1.93-4.15-.56-5.51a3.17,3.17,0,0,1,2.64-.86,4.76,4.76,0,0,1,2.87,1.42l6.3,6.3c1.67,1.67,1.92,4.15.56,5.51A3.18,3.18,0,0,1,640.7,281.55Z"/>
        <path class="cls-14" d="M635.75,286.5a4.76,4.76,0,0,1-2.87-1.42l-6.3-6.3c-1.68-1.67-1.93-4.15-.56-5.51a3.17,3.17,0,0,1,2.64-.86,4.76,4.76,0,0,1,2.87,1.42l6.3,6.3c1.67,1.67,1.92,4.15.56,5.51A3.18,3.18,0,0,1,635.75,286.5Z"/>
        <line class="cls-16" x1="509.41" y1="355.83" x2="509.41" y2="303.04"/>
        <line class="cls-16" x1="556.82" y1="355.83" x2="556.82" y2="303.04"/>
        <path class="cls-15" d="M542.82,299.92l-2.93-1.18a4.52,4.52,0,0,0-8-1.44l0,0a6.29,6.29,0,0,1-8.81,1.35,9.48,9.48,0,0,0,9.48,9.48,7.58,7.58,0,0,0,7.55-7.05Z"/>
        <path class="cls-13" d="M510,228.77a4.82,4.82,0,0,1-2.87-1.42l-1.82-1.83c-1.68-1.67-1.93-4.15-.57-5.51a3.19,3.19,0,0,1,2.64-.86,4.82,4.82,0,0,1,2.88,1.42l1.82,1.83c1.68,1.67,1.93,4.14.57,5.51A3.2,3.2,0,0,1,510,228.77Z"/>
        <path class="cls-19" d="M329.47,29.4a.76.76,0,0,1,0-.11,10.4,10.4,0,0,0-10-7.16,10.18,10.18,0,0,0-5.07,1.45,17.12,17.12,0,0,0-29.32-10.13,36.52,36.52,0,0,0-71,10.17,10.2,10.2,0,0,0-5.1-1.49,10.39,10.39,0,0,0-10,7.16.36.36,0,0,0,0,.11,4.29,4.29,0,0,0,4.11,5.6H325.35A4.3,4.3,0,0,0,329.47,29.4Z"/>
        <rect class="cls-20" x="145.83" y="256.21" width="14.58" height="99.17"/>
        <rect class="cls-21" x="145.83" y="280.51" width="14.58" height="17.5"/>
        <rect class="cls-20" x="437.5" y="256.21" width="14.58" height="99.17"/>
        <rect class="cls-21" x="437.5" y="280.51" width="14.58" height="17.5"/>
    </g>
    <line class="cls-17" x1="419.19" y1="55.77" x2="419.19" y2="70.04"/>
    <line class="cls-17" x1="412.25" y1="55.77" x2="412.25" y2="70.04"/>
    <path class="cls-22" d="M397,40.86a11.36,11.36,0,0,1,20.61-6.59l.08,0a15.81,15.81,0,0,0,22.12,3.38A23.78,23.78,0,0,1,416,61.39a19,19,0,0,1-19-19l.1,0A11.67,11.67,0,0,1,397,40.86Z"/>
    <polygon class="cls-17" points="390.02 40.86 398.75 44.39 402.28 40.86 398.75 37.33 390.02 40.86"/>
    <circle class="cls-15" cx="404.93" cy="36.1" r="1.64"/>
    <rect class="cls-23" x="123.96" y="69.3" width="350" height="218.75" rx="10" ry="10"/>
    <rect class="cls-23" x="138.54" y="83.88" width="320.83" height="189.58" rx="2" ry="2"/>
    <circle class="cls-15" cx="153.13" cy="261.43" r="2.05"/>
    <circle class="cls-15" cx="153.13" cy="95.91" r="2.05"/>
    <circle class="cls-15" cx="444.79" cy="261.43" r="2.05"/>
    <circle class="cls-15" cx="444.79" cy="95.91" r="2.05"/>
    <path class="cls-24" d="M194.24,147.06A31.85,31.85,0,0,1,228,168.34a5.82,5.82,0,0,0,5.51,3.95h96a30.27,30.27,0,0,1-5.67-17.73c0-9.71-8.13-17.48-17.85-17.48h-3.23a5.81,5.81,0,0,0-5.5,3.94,31.81,31.81,0,1,1,0-20.68,5.83,5.83,0,0,0,5.51,4h2.64c16.66,0,31.29,13.62,31.21,30.28a17.63,17.63,0,0,0,17.6,17.7h10.31a5.83,5.83,0,0,0,5.51-3.95A31.81,31.81,0,1,1,370,189a5.85,5.85,0,0,0-5.52-4H354.39c-9.7,0-17.9,7.75-17.85,17.45A30.41,30.41,0,0,1,306.17,233h-3.48a5.81,5.81,0,0,0-5.5,3.95,31.81,31.81,0,1,1,0-20.69,5.84,5.84,0,0,0,5.52,4h3.22c9.72,0,17.89-7.77,17.85-17.49a30.23,30.23,0,0,1,5.67-17.72h-96a5.84,5.84,0,0,0-5.52,4,31.82,31.82,0,1,1-33.71-42Z"/>
    <circle class="cls-1" cx="197.86" cy="178.67" r="31.81"/>
    <circle class="cls-1" cx="400.05" cy="178.67" r="31.81"/>
    <circle class="cls-1" cx="267.09" cy="130.7" r="31.81"/>
    <circle class="cls-1" cx="267.09" cy="226.65" r="31.81"/>
    <polygon class="cls-25" points="267.09 247.79 285.4 237.22 285.4 216.08 267.09 205.5 248.78 216.08 248.78 237.22 267.09 247.79"/>
    <polygon class="cls-24" points="267.09 215.86 263.58 222.96 255.75 224.1 261.42 229.63 260.08 237.44 267.09 233.75 274.1 237.44 272.76 229.63 278.43 224.1 270.6 222.96 267.09 215.86"/>
    <polygon class="cls-26" points="400.05 199.82 418.37 189.25 418.37 168.1 400.05 157.53 381.74 168.1 381.74 189.25 400.05 199.82"/>
    <path class="cls-27" d="M404.92,183.81a5.71,5.71,0,0,0-4.87,3,5.68,5.68,0,0,0-4.86-3,5.09,5.09,0,0,0-2.46.64,10.94,10.94,0,0,1-.3-2.52c0-5,3.41-9.09,7.62-9.09s7.63,4.07,7.63,9.09a10.94,10.94,0,0,1-.3,2.52A5.09,5.09,0,0,0,404.92,183.81Z"/>
    <polygon class="cls-20" points="400.05 177.62 412.01 174.06 400.05 170.5 388.1 174.06 400.05 177.62"/>
    <polygon class="cls-17" points="197.86 199.82 216.18 189.25 216.18 168.1 197.86 157.53 179.55 168.1 179.55 189.25 197.86 199.82"/>
    <path class="cls-18" d="M189.44,178.25l-.53-7.73,4.2,3.48a8.9,8.9,0,0,1,9.47.15l4.38-3.63-.53,7.73s.24,2.17.24,3.41c0,4.94-7,7.23-8.95,7.23s-8.95-2.29-8.95-7.23A16.17,16.17,0,0,1,189.44,178.25Z"/>
    <polygon class="cls-28" points="267.09 151.84 285.4 141.27 285.4 120.12 267.09 109.55 248.78 120.12 248.78 141.27 267.09 151.84"/>
    <path class="cls-24" d="M262.73,130.36v-2.44h8.72v2.44a4,4,0,0,1,2.14,3.54v4.5a2,2,0,0,1-2,2h-9a2,2,0,0,1-2-2v-4.5A4,4,0,0,1,262.73,130.36Z"/>
    <rect class="cls-17" x="261.72" y="120.97" width="10.74" height="6.94" transform="translate(534.18 248.89) rotate(180)"/>
    <circle class="cls-29" cx="366.28" cy="220.72" r="7.78"/>
    <circle class="cls-29" cx="419.76" cy="132.74" r="7.78"/>
    <circle class="cls-29" cx="432.88" cy="220.24" r="7.78"/>
    <circle class="cls-29" cx="181.08" cy="228.01" r="7.78"/>
    <circle class="cls-29" cx="377.47" cy="134.68" r="7.78"/>
    <circle class="cls-29" cx="305.52" cy="200.79" r="7.78"/>
    <circle class="cls-29" cx="349.27" cy="133.71" r="7.78"/>
    <circle class="cls-29" cx="353.16" cy="244.05" r="9.17"/>
    <circle class="cls-29" cx="208.78" cy="231.42" r="9.17"/>
    <circle class="cls-29" cx="324.48" cy="243.39" r="5.17"/>
    <circle class="cls-29" cx="216.08" cy="252.14" r="5.17"/>
    <circle class="cls-29" cx="393.02" cy="115.54" r="5.17"/>
    <circle class="cls-29" cx="305.03" cy="157.53" r="5.17"/>
    <circle class="cls-29" cx="352.19" cy="204.19" r="5.17"/>
    <circle class="cls-29" cx="354.13" cy="153.64" r="5.17"/>
    <path class="cls-15" d="M176.5,105.68l-2.32,4v2.58a1.39,1.39,0,1,1-2.77,0v-2.58l-2.32-4a1.23,1.23,0,0,1-.23-.73,1.32,1.32,0,0,1,1.31-1.32,1.27,1.27,0,0,1,1.17.74l1.44,2.87,1.47-2.87a1.28,1.28,0,0,1,1.16-.74,1.31,1.31,0,0,1,1.32,1.32A1.17,1.17,0,0,1,176.5,105.68Z"/>
    <path class="cls-15" d="M181.2,103.61c2.71,0,4.43,2.06,4.43,5s-1.72,5-4.43,5-4.44-2.08-4.44-5S178.48,103.61,181.2,103.61Zm0,2.44c-1.06,0-1.62,1.08-1.62,2.59s.56,2.6,1.62,2.6,1.63-1.09,1.63-2.6S182.25,106.05,181.2,106.05Z"/>
    <path class="cls-15" d="M186.59,105a1.4,1.4,0,1,1,2.79,0V110c0,.8.36,1.29,1.19,1.29s1.18-.49,1.18-1.29V105a1.4,1.4,0,1,1,2.79,0v4.9c0,2.36-1.53,3.75-4,3.75s-4-1.39-4-3.74Z"/>
    <path class="cls-15" d="M206.61,112.31a1.33,1.33,0,0,1-2.62.3l-.12-.51h-2.73l-.11.5a1.32,1.32,0,0,1-1.3,1.05,1.34,1.34,0,0,1-1.33-1.34,1.44,1.44,0,0,1,.06-.38l2-6.76a2.19,2.19,0,0,1,4.18,0l2,6.76A1.13,1.13,0,0,1,206.61,112.31Zm-3.28-2.56-.81-3.57-.84,3.57Z"/>
    <path class="cls-15" d="M215,112.22a1.36,1.36,0,0,1-2.58.68L211,110.32h-.73v1.93a1.38,1.38,0,1,1-2.75,0v-7a1.31,1.31,0,0,1,1.46-1.46h2.83a3.34,3.34,0,0,1,2,6l1.08,1.81A1.1,1.1,0,0,1,215,112.22ZM210.24,108h1.1a.93.93,0,0,0,0-1.85h-1.1Z"/>
    <path class="cls-15" d="M216.15,112v-6.8a1.31,1.31,0,0,1,1.46-1.46h3.64a1.18,1.18,0,0,1,0,2.35h-2.34v1.28h2.24a1.18,1.18,0,0,1,0,2.35h-2.24v1.4h2.34a1.18,1.18,0,0,1,0,2.35h-3.64A1.32,1.32,0,0,1,216.15,112Z"/>
    <path class="cls-15" d="M185.27,125.39v-2.57h-2.46v2.55a1.38,1.38,0,1,1-2.75,0v-7.23a1.38,1.38,0,1,1,2.75,0v2.27h2.46v-2.27a1.38,1.38,0,1,1,2.75,0v7.25a1.38,1.38,0,1,1-2.75,0Z"/>
    <path class="cls-15" d="M189.42,125.15v-6.79a1.31,1.31,0,0,1,1.46-1.46h3.65a1.16,1.16,0,0,1,1.16,1.16,1.17,1.17,0,0,1-1.16,1.19h-2.35v1.28h2.24a1.18,1.18,0,0,1,0,2.35h-2.24v1.4h2.35a1.16,1.16,0,0,1,1.16,1.16,1.17,1.17,0,0,1-1.16,1.19h-3.65A1.32,1.32,0,0,1,189.42,125.15Z"/>
    <path class="cls-15" d="M204.27,125.34a1.37,1.37,0,0,1-2.58.69l-1.48-2.58h-.73v1.92a1.38,1.38,0,1,1-2.75,0v-7a1.31,1.31,0,0,1,1.45-1.46H201a3.34,3.34,0,0,1,2,6l1.08,1.81A1,1,0,0,1,204.27,125.34Zm-4.79-4.24h1.1a.88.88,0,0,0,.9-.94.86.86,0,0,0-.9-.91h-1.1Z"/>
    <path class="cls-15" d="M205.39,125.15v-6.79a1.31,1.31,0,0,1,1.46-1.46h3.64a1.17,1.17,0,0,1,1.17,1.16,1.18,1.18,0,0,1-1.17,1.19h-2.35v1.28h2.25a1.18,1.18,0,0,1,0,2.35h-2.25v1.4h2.35a1.17,1.17,0,0,1,1.17,1.16,1.18,1.18,0,0,1-1.17,1.19h-3.64A1.32,1.32,0,0,1,205.39,125.15Z"/>
    <polygon class="cls-30" points="201.57 132.01 191.24 132.01 192.56 140.55 185.71 140.55 196.4 151.24 207.1 140.55 200.25 140.55 201.57 132.01"/>
    <path class="cls-15" d="M391.78,237.46v1.81A2,2,0,0,1,391,241a4.58,4.58,0,0,1-2.93,1c-2.7,0-4.47-2-4.47-5s1.78-5,4.47-5a3.37,3.37,0,0,1,2.8,1.39,1.1,1.1,0,0,1,.32.77,1.23,1.23,0,0,1-1.23,1.23,1.15,1.15,0,0,1-.93-.47,1.24,1.24,0,0,0-1-.48c-.95,0-1.65.79-1.65,2.6s.7,2.59,1.69,2.59a1.4,1.4,0,0,0,1.06-.36v-.66h-.3a1.2,1.2,0,0,1-1.18-1.18,1.24,1.24,0,0,1,1.18-1.24h1.6A1.26,1.26,0,0,1,391.78,237.46Z"/>
    <path class="cls-15" d="M397,231.94c2.71,0,4.43,2.06,4.43,5s-1.72,5-4.43,5-4.44-2.07-4.44-5S394.24,231.94,397,231.94Zm0,2.44c-1,0-1.62,1.08-1.62,2.6s.57,2.59,1.62,2.59,1.63-1.09,1.63-2.59S398,234.38,397,234.38Z"/>
    <path class="cls-15" d="M409.79,240.64a1.33,1.33,0,0,1-2.62.31l-.12-.52h-2.73l-.12.5a1.3,1.3,0,0,1-1.29,1,1.34,1.34,0,0,1-1.33-1.34,1.59,1.59,0,0,1,.06-.38l1.95-6.75a2.19,2.19,0,0,1,4.19,0l2,6.75A1,1,0,0,1,409.79,240.64Zm-3.28-2.55-.82-3.58-.83,3.58Z"/>
    <path class="cls-15" d="M410.66,240.36v-7a1.38,1.38,0,1,1,2.76,0v6.09h1.94a1.2,1.2,0,0,1,1.21,1.19,1.21,1.21,0,0,1-1.21,1.21h-3.24A1.32,1.32,0,0,1,410.66,240.36Z"/>
    <polygon class="cls-30" points="405.22 225.62 394.89 225.62 396.21 217.08 389.36 217.08 400.05 206.38 410.75 217.08 403.9 217.08 405.22 225.62"/>
    <circle class="cls-1" cx="195.68" cy="178.67" r="31.81"/>
</svg>