<svg id="Layer_1" data-name="Layer 1" xmlns="http://www.w3.org/2000/svg" xmlns:xlink="http://www.w3.org/1999/xlink" viewBox="0 0 700 350"><defs><style>.cls-1,.cls-13,.cls-17,.cls-22,.cls-23,.cls-34,.cls-39{fill:none;}.cls-2{opacity:0.4;}.cls-3{clip-path:url(#clip-path);}.cls-10,.cls-24,.cls-4,.cls-6,.cls-9{fill:#666e95;}.cls-4,.cls-7{opacity:0.3;}.cls-5{clip-path:url(#clip-path-2);}.cls-10,.cls-13,.cls-14,.cls-15,.cls-6,.cls-8,.cls-9{stroke:#4a4f80;}.cls-10,.cls-13,.cls-14,.cls-15,.cls-17,.cls-22,.cls-23,.cls-24,.cls-25,.cls-26,.cls-27,.cls-28,.cls-31,.cls-34,.cls-35,.cls-36,.cls-37,.cls-38,.cls-39,.cls-40,.cls-6,.cls-7,.cls-8,.cls-9{stroke-linecap:round;}.cls-10,.cls-13,.cls-14,.cls-15,.cls-17,.cls-20,.cls-22,.cls-23,.cls-24,.cls-25,.cls-26,.cls-27,.cls-28,.cls-31,.cls-34,.cls-35,.cls-36,.cls-37,.cls-38,.cls-39,.cls-40,.cls-6,.cls-7,.cls-8,.cls-9{stroke-linejoin:round;}.cls-14,.cls-15,.cls-17,.cls-18,.cls-19,.cls-20,.cls-22,.cls-24,.cls-25,.cls-26,.cls-27,.cls-28,.cls-29,.cls-30,.cls-33,.cls-35,.cls-37,.cls-38,.cls-40,.cls-6,.cls-7{stroke-width:3.5px;}.cls-14,.cls-18,.cls-21,.cls-28,.cls-32,.cls-7{fill:#282c4c;}.cls-17,.cls-18,.cls-19,.cls-20,.cls-22,.cls-23,.cls-24,.cls-25,.cls-26,.cls-27,.cls-28,.cls-29,.cls-30,.cls-31,.cls-32,.cls-33,.cls-34,.cls-35,.cls-36,.cls-37,.cls-38,.cls-39,.cls-40,.cls-7{stroke:#282c4c;}.cls-11,.cls-15,.cls-36,.cls-38,.cls-8{fill:#4a4f80;}.cls-10,.cls-13,.cls-39,.cls-8{stroke-width:2.92px;}.cls-9{stroke-width:3.21px;}.cls-12{clip-path:url(#clip-path-3);}.cls-16{clip-path:url(#clip-path-4);}.cls-17{stroke-dasharray:4.91 9.82;}.cls-18,.cls-19,.cls-29,.cls-30,.cls-32,.cls-33{stroke-miterlimit:10;}.cls-19,.cls-25{fill:#6cc7be;}.cls-20,.cls-26,.cls-33{fill:#f48667;}.cls-23{stroke-width:3.42px;}.cls-27{fill:#f1717e;}.cls-29,.cls-31,.cls-40{fill:#56bcde;}.cls-30,.cls-35{fill:#fff;}.cls-31{stroke-width:3.32px;}.cls-32{stroke-width:3.6px;}.cls-34{stroke-width:3.23px;}.cls-36{stroke-width:3.54px;}.cls-37{fill:#b5445b;}</style><clipPath id="clip-path"><path class="cls-1" d="M663.51-255.56h14.23a19.44,19.44,0,0,0,19.42-20.38c-.49-10.46-9.5-18.5-20-18.5H636.32a19.44,19.44,0,0,1-19.42-20.39c.49-10.46,9.5-18.5,20-18.5h4.31a19.44,19.44,0,0,0,19.42-20.39c-.49-10.46-9.5-18.5-20-18.5H527.43A19.44,19.44,0,0,1,508-392.61c.49-10.45,9.5-18.5,20-18.5H574.1a19.45,19.45,0,0,0,19.42-20.39c-.49-10.45-9.5-18.5-20-18.5H153.61a19.44,19.44,0,0,0-19.42,20.38c.49,10.46,9.5,18.51,20,18.51h25.21a19.45,19.45,0,0,1,19.43,20.38c-.5,10.46-9.5,18.51-20,18.51H27.71A19.44,19.44,0,0,0,8.29-351.84c.49,10.46,9.5,18.51,20,18.51H88a19.44,19.44,0,0,1,19.32,21.61c-1.08,10-9.87,17.28-19.87,17.28H19.54A19.44,19.44,0,0,0,.12-274.06c.49,10.46,9.5,18.5,20,18.5H46.67a19.45,19.45,0,0,1,19.42,20.39c-.49,10.46-9.5,18.5-20,18.5H33.54a19.44,19.44,0,0,0-19.42,20.39c.49,10.46,9.5,18.5,20,18.5H89.93a19.44,19.44,0,0,1,19.42,20.39c-.49,10.45-9.5,18.5-20,18.5H72.43A19.44,19.44,0,0,0,53-118.5C53.5-108,62.51-100,73-100H619.31a19.45,19.45,0,0,0,19.42-20.38c-.49-10.46-9.5-18.51-20-18.51h-5.29a19.44,19.44,0,0,1-19.42-20.38c.49-10.46,9.5-18.51,20-18.51h52.92a19.46,19.46,0,0,0,19.43-20.38c-.5-10.46-9.5-18.51-20-18.51H663A19.44,19.44,0,0,1,643.54-237C644-247.51,653-255.56,663.51-255.56Z"/></clipPath><clipPath id="clip-path-2"><path class="cls-1" d="M679.1,155.56H637.68a19.45,19.45,0,0,1,0-38.89h7.78a19.45,19.45,0,0,0,0-38.89H558a19.45,19.45,0,1,1,0-38.89h17.5a19.45,19.45,0,0,0,0-38.89H125.81a19.45,19.45,0,1,0,0,38.89H137a19.45,19.45,0,0,1,0,38.89H29.07a19.45,19.45,0,1,0,0,38.89H31a19.45,19.45,0,1,1,0,38.89H20.9a19.44,19.44,0,0,0,0,38.88h49a19.45,19.45,0,1,1,0,38.89h-35a19.45,19.45,0,0,0,0,38.89H91.29a19.45,19.45,0,1,1,0,38.89H73.79a19.45,19.45,0,0,0,0,38.89H610.46a19.45,19.45,0,0,0,0-38.89h-5.83a19.45,19.45,0,1,1,0-38.89h44.72a19.45,19.45,0,0,0,0-38.89h-20a19.45,19.45,0,1,1,0-38.89H679.1a19.44,19.44,0,0,0,0-38.88Z"/></clipPath><clipPath id="clip-path-3"><rect class="cls-1" x="350" width="350" height="350"/></clipPath><clipPath id="clip-path-4"><rect class="cls-1" width="700" height="350"/></clipPath></defs><title>badgr_share</title><path class="cls-4" d="M679.1,155.56H637.68a19.45,19.45,0,0,1,0-38.89h7.78a19.45,19.45,0,0,0,0-38.89H558a19.45,19.45,0,1,1,0-38.89h17.5a19.45,19.45,0,0,0,0-38.89H125.81a19.45,19.45,0,1,0,0,38.89H137a19.45,19.45,0,0,1,0,38.89H29.07a19.45,19.45,0,1,0,0,38.89H31a19.45,19.45,0,1,1,0,38.89H20.9a19.44,19.44,0,0,0,0,38.88h49a19.45,19.45,0,1,1,0,38.89h-35a19.45,19.45,0,0,0,0,38.89H91.29a19.45,19.45,0,1,1,0,38.89H73.79a19.45,19.45,0,0,0,0,38.89H610.46a19.45,19.45,0,0,0,0-38.89h-5.83a19.45,19.45,0,1,1,0-38.89h44.72a19.45,19.45,0,0,0,0-38.89h-20a19.45,19.45,0,1,1,0-38.89H679.1a19.44,19.44,0,0,0,0-38.88Z"/><g class="cls-2"><g class="cls-5"><rect class="cls-6" x="-4.59" y="197.12" width="10.1" height="109.13"/><rect class="cls-6" x="5.52" y="197.12" width="10.1" height="109.13"/><rect class="cls-6" x="15.62" y="197.12" width="10.1" height="109.13"/><rect class="cls-6" x="25.72" y="197.12" width="10.1" height="109.13"/><rect class="cls-6" x="35.83" y="197.12" width="10.1" height="109.13"/><rect class="cls-6" x="45.93" y="197.12" width="10.1" height="109.13"/><rect class="cls-6" x="56.03" y="197.12" width="10.1" height="109.13"/><rect class="cls-6" x="66.14" y="197.12" width="10.1" height="109.13"/><rect class="cls-6" x="76.24" y="197.12" width="10.1" height="109.13"/><rect class="cls-6" x="86.34" y="197.12" width="10.1" height="109.13"/><rect class="cls-6" x="96.44" y="197.12" width="10.1" height="109.13"/><rect class="cls-6" x="106.55" y="197.12" width="10.1" height="109.13"/><rect class="cls-6" x="116.65" y="197.12" width="10.1" height="109.13"/><rect class="cls-6" x="126.75" y="197.12" width="10.1" height="109.13"/><rect class="cls-6" x="136.86" y="197.12" width="10.1" height="109.13"/><rect class="cls-6" x="146.96" y="197.12" width="10.1" height="109.13"/><rect class="cls-6" x="157.06" y="197.12" width="10.1" height="109.13"/><rect class="cls-6" x="167.17" y="197.12" width="10.1" height="109.13"/><rect class="cls-6" x="177.27" y="197.12" width="10.1" height="109.13"/><rect class="cls-6" x="187.37" y="197.12" width="10.1" height="109.13"/><rect class="cls-6" x="197.47" y="197.12" width="10.1" height="109.13"/><rect class="cls-6" x="207.58" y="197.12" width="10.1" height="109.13"/><rect class="cls-6" x="217.68" y="197.12" width="10.1" height="109.13"/><rect class="cls-6" x="227.78" y="197.12" width="10.1" height="109.13"/><rect class="cls-6" x="237.89" y="197.12" width="10.1" height="109.13"/><rect class="cls-6" x="247.99" y="197.12" width="10.1" height="109.13"/><rect class="cls-6" x="258.09" y="197.12" width="10.1" height="109.13"/><rect class="cls-6" x="268.2" y="197.12" width="10.1" height="109.13"/><rect class="cls-6" x="278.3" y="197.12" width="10.1" height="109.13"/><rect class="cls-6" x="288.4" y="197.12" width="10.1" height="109.13"/><rect class="cls-6" x="298.5" y="197.12" width="10.1" height="109.13"/><rect class="cls-6" x="308.61" y="197.12" width="10.1" height="109.13"/><rect class="cls-6" x="318.71" y="197.12" width="10.1" height="109.13"/><rect class="cls-6" x="-381.47" y="184.92" width="713.35" height="12.21"/><rect class="cls-6" x="-378.4" y="197.12" width="707.21" height="3.05"/><circle class="cls-7" cx="142.81" cy="61.84" r="35.4"/><circle class="cls-8" cx="142.81" cy="58.03" r="35.4"/><circle class="cls-9" cx="142.81" cy="58.03" r="25.95"/><circle class="cls-10" cx="142.81" cy="58.03" r="3.45"/><circle class="cls-11" cx="142.81" cy="40.89" r="2.22"/><circle class="cls-11" cx="142.81" cy="75.18" r="2.22"/><circle class="cls-11" cx="159.95" cy="58.03" r="2.22"/><circle class="cls-11" cx="125.66" cy="58.03" r="2.22"/><circle class="cls-11" cx="154.93" cy="45.91" r="2.22"/><circle class="cls-11" cx="130.68" cy="70.16" r="2.22"/><circle class="cls-11" cx="154.93" cy="70.16" r="2.22"/><circle class="cls-11" cx="130.68" cy="45.91" r="2.22"/><g class="cls-12"><rect class="cls-10" x="416.19" y="17.5" width="105" height="121.04"/><rect class="cls-8" x="424.94" y="26.25" width="87.5" height="47.4"/><rect class="cls-8" x="424.94" y="82.4" width="87.5" height="47.4"/><rect class="cls-10" x="428.58" y="87.5" width="16.04" height="42.29"/><circle class="cls-10" cx="436.6" cy="121.04" r="2.92"/><line class="cls-13" x1="436.6" y1="93.33" x2="436.6" y2="112.29"/><rect class="cls-10" x="444.62" y="87.5" width="16.04" height="42.29"/><circle class="cls-10" cx="452.65" cy="121.04" r="2.92"/><line class="cls-13" x1="452.65" y1="93.33" x2="452.65" y2="112.29"/><rect class="cls-10" x="460.67" y="87.5" width="16.04" height="42.29"/><circle class="cls-10" cx="468.69" cy="121.04" r="2.92"/><line class="cls-13" x1="468.69" y1="93.33" x2="468.69" y2="112.29"/><rect class="cls-10" x="476.71" y="87.5" width="16.04" height="42.29"/><circle class="cls-10" cx="484.73" cy="121.04" r="2.92"/><line class="cls-13" x1="484.73" y1="93.33" x2="484.73" y2="112.29"/><rect class="cls-10" x="492.75" y="87.5" width="16.04" height="42.29"/><circle class="cls-10" cx="500.77" cy="121.04" r="2.92"/><line class="cls-13" x1="500.77" y1="93.33" x2="500.77" y2="112.29"/><rect class="cls-10" x="311.19" y="17.5" width="105" height="121.04"/><rect class="cls-8" x="319.94" y="26.25" width="87.5" height="47.4"/><rect class="cls-8" x="319.94" y="82.4" width="87.5" height="47.4"/><path class="cls-10" d="M377.22,47.86V43.6H362.05v4.26A7,7,0,0,0,358.34,54V70.15a3.5,3.5,0,0,0,3.5,3.5h15.59a3.5,3.5,0,0,0,3.5-3.5V54A7,7,0,0,0,377.22,47.86Z"/><rect class="cls-10" x="360.3" y="36.6" width="18.67" height="7"/><rect class="cls-10" x="366.64" y="55.42" width="14.29" height="9.92"/><rect class="cls-10" x="332.89" y="48.98" width="15.17" height="24.67"/><rect class="cls-8" x="331.14" y="44.89" width="18.67" height="4.08"/><path class="cls-10" d="M442.26,40.56V36.31h15.17v4.25a7,7,0,0,1,3.71,6.15V70.15a3.5,3.5,0,0,1-3.5,3.5H442.05a3.5,3.5,0,0,1-3.5-3.5V46.71A7,7,0,0,1,442.26,40.56Z"/><rect class="cls-8" x="440.51" y="32.23" width="18.67" height="4.08" transform="translate(899.69 68.54) rotate(180)"/><rect class="cls-10" x="438.55" y="48.12" width="9.92" height="17.21" transform="translate(887.01 113.46) rotate(180)"/><rect class="cls-10" x="490.39" y="48.98" width="15.17" height="24.67"/><rect class="cls-10" x="488.64" y="39.06" width="18.67" height="9.92"/><rect class="cls-10" x="472.89" y="40.23" width="10.79" height="33.42"/><rect class="cls-10" x="472.6" y="33.23" width="11.37" height="7"/><path class="cls-10" d="M374.3,104V96.83H344.55V104a7,7,0,0,0-3.71,6.15v16.14a3.5,3.5,0,0,0,3.5,3.5h30.18a3.5,3.5,0,0,0,3.5-3.5V110.15A7,7,0,0,0,374.3,104Z"/><rect class="cls-10" x="342.8" y="89.83" width="33.25" height="7"/><circle class="cls-10" cx="366.72" cy="120.6" r="3.65"/><circle class="cls-10" cx="359.43" cy="120.6" r="3.65"/><circle class="cls-10" cx="352.14" cy="120.6" r="3.65"/><circle class="cls-10" cx="352.14" cy="113.31" r="3.65"/><circle class="cls-10" cx="359.43" cy="113.31" r="3.65"/><circle class="cls-10" cx="366.72" cy="113.31" r="3.65"/><circle class="cls-10" cx="355.78" cy="106.02" r="3.65"/><circle class="cls-10" cx="363.07" cy="106.02" r="3.65"/></g><rect class="cls-6" x="663.16" y="196.24" width="116.48" height="110.01"/><rect class="cls-6" x="546.68" y="184.92" width="698.88" height="11.32"/><rect class="cls-14" x="672.86" y="207.57" width="97.07" height="88.98"/><rect class="cls-6" x="546.68" y="196.24" width="116.48" height="110.01"/><rect class="cls-14" x="556.38" y="207.57" width="97.07" height="24.27"/><rect class="cls-6" x="556.38" y="205.95" width="97.07" height="24.27"/><rect class="cls-6" x="588.74" y="205.95" width="32.36" height="6.47"/><rect class="cls-14" x="556.38" y="239.92" width="97.07" height="24.27"/><rect class="cls-6" x="556.38" y="238.3" width="97.07" height="24.27"/><rect class="cls-6" x="588.74" y="238.3" width="32.36" height="6.47"/><rect class="cls-14" x="556.38" y="272.28" width="97.07" height="24.27"/><rect class="cls-6" x="556.38" y="270.66" width="97.07" height="24.27"/><rect class="cls-6" x="588.74" y="270.66" width="32.36" height="6.47"/><rect class="cls-6" x="672.86" y="205.95" width="48.53" height="88.98"/><path class="cls-6" d="M658.6,154.75V150.5H643.44v4.25a7,7,0,0,0-3.72,6.15v20.52a3.5,3.5,0,0,0,3.5,3.5h15.6a3.5,3.5,0,0,0,3.5-3.5V160.9A7,7,0,0,0,658.6,154.75Z"/><rect class="cls-15" x="641.69" y="146.42" width="18.67" height="4.08"/><rect class="cls-6" x="652.4" y="162.31" width="9.92" height="14.29"/><rect class="cls-6" x="614.27" y="166.08" width="15.17" height="18.84"/><rect class="cls-15" x="612.52" y="162" width="18.67" height="4.08"/></g></g><g class="cls-16"><line class="cls-17" x1="350" y1="354.23" x2="350" y2="-9.14"/></g><path class="cls-18" d="M140.14,138.61s0-46.24,0-46.35a27,27,0,0,1,54,.11v46.24Z"/><path class="cls-19" d="M255.23,146.7a6.39,6.39,0,0,0-8.46.58,51,51,0,0,1-36.19,14.8,10.71,10.71,0,0,1-10.51-10.69c0-11.46-5.17-21-15.61-23.69a22.37,22.37,0,0,0-6-.81H155.76a24.49,24.49,0,0,0-24.5,24.5v67.37h59.06V171.21A63.68,63.68,0,0,0,255.72,156,6.23,6.23,0,0,0,255.23,146.7Z"/><path class="cls-20" d="M175.67,130.64s-.09,6.94-8.6,6.94-8.49-6.94-8.49-6.94V116.33h17.09Z"/><path class="cls-20" d="M184.71,96.51V104a17.59,17.59,0,0,1-35.17-.08V96.51C149.54,85,167,84.43,167,78.18,167,84.43,184.71,85.69,184.71,96.51Z"/><path class="cls-21" d="M171.47,109.69a4.63,4.63,0,0,1-9.25,0Z"/><polyline class="cls-22" points="169.02 99.16 169.02 104.3 165.13 104.3"/><circle class="cls-21" cx="176.02" cy="98.9" r="2.05"/><circle class="cls-21" cx="158.67" cy="98.9" r="2.05"/><path class="cls-21" d="M177.16,154.1l-2.93-1.19a4.52,4.52,0,0,0-8-1.44h0a6.3,6.3,0,0,1-8.81,1.35,9.48,9.48,0,0,0,9.48,9.47,7.57,7.57,0,0,0,7.55-7.05Z"/><path class="cls-19" d="M144.37,88.78a4.78,4.78,0,0,1-2.88-1.43l-1.82-1.82c-1.68-1.67-1.93-4.15-.56-5.51a3.17,3.17,0,0,1,2.64-.86,4.76,4.76,0,0,1,2.87,1.42l1.82,1.82c1.68,1.68,1.93,4.15.57,5.52A3.21,3.21,0,0,1,144.37,88.78Z"/><line class="cls-23" x1="143.93" y1="218.76" x2="143.93" y2="156.27"/><line class="cls-23" x1="190.32" y1="218.76" x2="190.32" y2="156.27"/><rect class="cls-24" x="260.53" y="112.68" width="29.32" height="47.03"/><rect class="cls-25" x="260.53" y="118.52" width="29.32" height="35.36"/><path class="cls-26" d="M265.85,136.75h-5.32v-7.48l-11.62,11.62a5.83,5.83,0,0,0,0,8.25l4.39,4.4a5.84,5.84,0,0,0,7.23.8V143.13h5.32a3.19,3.19,0,1,0,0-6.38Z"/><polygon class="cls-27" points="275.19 128.18 268.24 132.19 268.24 140.21 275.19 144.22 282.13 140.21 282.13 132.19 275.19 128.18"/><path class="cls-26" d="M261.14,136.75h4.71a3.19,3.19,0,1,1,0,6.38H258"/><rect class="cls-24" x="395.38" y="108.31" width="43.9" height="61.61" rx="2" ry="2"/><rect class="cls-28" x="401.21" y="117.06" width="32.23" height="44.11"/><polygon class="cls-27" points="417.33 131.09 410.38 135.1 410.38 143.13 417.33 147.14 424.28 143.13 424.28 135.1 417.33 131.09"/><path class="cls-29" d="M549.78,124H514.51a19,19,0,0,0-19,19v5a13.6,13.6,0,0,1-15.81,13.47,51,51,0,0,1-27.23-14,6.4,6.4,0,0,0-8.48-.61,6.23,6.23,0,0,0-.49,9.26,63.66,63.66,0,0,0,63.22,15.94v46.86h62V142.92A19,19,0,0,0,549.78,124Z"/><path class="cls-30" d="M516.23,218.75V124h-1.72a19,19,0,0,0-19,19v5a13.6,13.6,0,0,1-15.81,13.47,51,51,0,0,1-27.23-14,6.4,6.4,0,0,0-8.48-.61,6.23,6.23,0,0,0-.49,9.26,63.66,63.66,0,0,0,63.22,15.94v46.86Z"/><path class="cls-30" d="M549.78,124h-6.1v94.79h25.06V142.92A19,19,0,0,0,549.78,124Z"/><path class="cls-20" d="M540.47,124.8s-.12,6.94-10.58,6.94-10.44-6.94-10.44-6.94V113.41h21Z"/><line class="cls-23" x1="506.76" y1="218.75" x2="506.76" y2="153.34"/><line class="cls-23" x1="553.15" y1="218.75" x2="553.15" y2="153.34"/><polygon class="cls-31" points="529.96 132.6 522.77 140.49 511.27 123.72 516.16 119.78 529.96 132.6"/><polygon class="cls-31" points="529.96 132.6 537.14 140.49 548.64 123.72 543.75 119.78 529.96 132.6"/><circle class="cls-32" cx="515.01" cy="73.71" r="6.56"/><circle class="cls-32" cx="544.91" cy="73.71" r="6.56"/><ellipse class="cls-32" cx="529.96" cy="85.75" rx="25.16" ry="19.08"/><path class="cls-33" d="M547.52,86.66V79.52a4.69,4.69,0,0,0-.08-.84,17.56,17.56,0,0,0-35-.1,4.92,4.92,0,0,0-.1.94V95.78h0V99.5a17.57,17.57,0,0,0,35.13.08V95.79h0Z"/><polyline class="cls-22" points="531.9 89.87 531.9 99.9 528.02 99.9"/><path class="cls-34" d="M526.33,92a3.63,3.63,0,0,1,7.25,0"/><circle class="cls-33" cx="537.67" cy="92.32" r="4.22"/><circle class="cls-33" cx="522.24" cy="92.32" r="4.22"/><path class="cls-21" d="M534.58,105.3a4.63,4.63,0,1,1-9.25,0Z"/><line class="cls-22" x1="511.21" y1="90.87" x2="517.83" y2="90.87"/><line class="cls-22" x1="542.08" y1="90.87" x2="548.7" y2="90.87"/><path class="cls-26" d="M434,136.74h5.32v-7.47l11.62,11.61a5.83,5.83,0,0,1,0,8.25l-4.4,4.4a5.82,5.82,0,0,1-7.22.8V143.12H434a3.19,3.19,0,0,1,0-6.38Z"/><path class="cls-26" d="M438.67,136.74H434a3.19,3.19,0,0,0,0,6.38h7.81"/><path class="cls-35" d="M663.6,245.91l-8.27-29.78c-1.19-4.29-5.52-7.3-10.5-7.3H596.89c-5,0-9.31,3-10.5,7.3l-8.27,29.78a5.32,5.32,0,0,1-5.25,3.65h-1.58a2.56,2.56,0,0,0-2.7,2.39v5.59H673.14V252a2.56,2.56,0,0,0-2.71-2.39h-1.58A5.32,5.32,0,0,1,663.6,245.91Z"/><path class="cls-26" d="M578.12,269.17,586.39,299c1.19,4.28,5.52,7.29,10.5,7.29h47.94c5,0,9.31-3,10.5-7.29l8.27-29.79a5.31,5.31,0,0,1,5.25-3.64h1.58a2.57,2.57,0,0,0,2.71-2.4v-5.59H568.59v5.59a2.57,2.57,0,0,0,2.7,2.4h1.58A5.31,5.31,0,0,1,578.12,269.17Z"/><rect class="cls-36" x="596.36" y="222.54" width="49" height="70" rx="4" ry="4"/><path class="cls-35" d="M635.44,208.83h-6.38v-7.51a1.06,1.06,0,0,0-1.06-1.06H613.73a1.06,1.06,0,0,0-1.07,1.06v7.51h-6.38v-7.51a7.45,7.45,0,0,1,7.45-7.44H628a7.45,7.45,0,0,1,7.44,7.44Z"/><path class="cls-28" d="M645.36,264h5.76a1.07,1.07,0,0,0,1.07-1.06V252.16a1.07,1.07,0,0,0-1.07-1.07h-5.76Z"/><line class="cls-22" x1="606.16" y1="222.54" x2="606.16" y2="292.54"/><line class="cls-22" x1="615.96" y1="222.54" x2="615.96" y2="292.54"/><line class="cls-22" x1="625.76" y1="222.54" x2="625.76" y2="292.54"/><line class="cls-22" x1="635.56" y1="222.54" x2="635.56" y2="292.54"/><line class="cls-22" x1="596.36" y1="234.21" x2="645.36" y2="234.21"/><line class="cls-22" x1="596.36" y1="245.88" x2="645.36" y2="245.88"/><line class="cls-22" x1="596.36" y1="257.54" x2="645.36" y2="257.54"/><line class="cls-22" x1="596.36" y1="269.21" x2="645.36" y2="269.21"/><line class="cls-22" x1="596.36" y1="280.88" x2="645.36" y2="280.88"/><rect class="cls-37" x="99.95" y="197.12" width="250.05" height="109.13"/><rect class="cls-37" x="96.9" y="184.92" width="253.1" height="12.21"/><rect class="cls-38" x="99.95" y="197.12" width="250.05" height="3.05"/><line class="cls-39" x1="236.48" y1="224.31" x2="206.19" y2="254.6"/><line class="cls-39" x1="247.98" y1="228.68" x2="201.97" y2="274.69"/><line class="cls-39" x1="243.38" y1="249.16" x2="213.47" y2="279.06"/><rect class="cls-26" x="350" y="197.12" width="247.13" height="109.13"/><rect class="cls-26" x="350" y="184.92" width="250.18" height="12.21"/><rect class="cls-38" x="350" y="197.12" width="247.13" height="3.05"/><line class="cls-39" x1="485.07" y1="224.31" x2="454.78" y2="254.6"/><line class="cls-39" x1="496.57" y1="228.68" x2="450.56" y2="274.69"/><line class="cls-39" x1="491.97" y1="249.16" x2="462.06" y2="279.06"/><path class="cls-20" d="M23.07,304.57a4.55,4.55,0,0,1,6.33-1.14c11.41,7.92,16.9,2.41,26-6.73,7.73-7.76,18.11-18.19,32.8-10.2a19.57,19.57,0,0,1,14.93-6.9,36.11,36.11,0,0,1,4.37.49l39.1,9.7v13.7h31.22a5.6,5.6,0,1,1,0,11.19H93a5.61,5.61,0,0,1-5.6-5.59c0-.07,0-.14,0-.21-2.46-2.14-3.92-5.25-3.92-9.67a19.44,19.44,0,0,1,.55-4.6c-8.38-4.72-13.6-.14-22.22,8.52-6.16,6.19-13.14,13.2-22.64,13.2h0c-4.83,0-9.73-1.77-15-5.42a4.56,4.56,0,0,1-1.14-6.34Z"/><path class="cls-22" d="M97.16,303.49h15.1a5.61,5.61,0,0,1,5.59,5.6h0a5.61,5.61,0,0,1-5.59,5.59"/><path class="cls-22" d="M121.15,297.9a5.61,5.61,0,0,0,5.59,5.59h4.56a5.61,5.61,0,0,1,5.59,5.6h0a5.61,5.61,0,0,1-5.59,5.59"/><path class="cls-20" d="M135.75,287.1l-1-14.84,8.07,6.68a17.1,17.1,0,0,1,18.17.29l8.42-7-1,14.84s.46,4.18.46,6.56c0,9.49-13.53,13.88-17.19,13.88s-17.19-4.39-17.19-13.88A31,31,0,0,1,135.75,287.1Z"/><polygon class="cls-21" points="147.59 296.24 151.64 300.3 155.7 296.24 147.59 296.24"/><path class="cls-26" d="M155.27,289.54a4.15,4.15,0,0,0,5.85,0"/><path class="cls-26" d="M142.85,289.54a4.15,4.15,0,0,0,5.85,0"/><path class="cls-37" d="M428.53,248.94c-1-1-2.13-2-3.28-3a42.1,42.1,0,0,1-6-7.44,4.37,4.37,0,0,1-.08-4.58,15.47,15.47,0,0,1,1.43-2,4,4,0,0,1,5.06-.72c3.48,2,5.83,4.12,10.95,3.93a34,34,0,0,1,6-.22Z"/><path class="cls-37" d="M439.36,305h18.57c-2.42-8.15-4.09-16.09-7.23-24.27l20.81-20.8c11.07,9.85,26.81,16.47,39.38,13a68.34,68.34,0,0,1,17.24-2.76c9.55-.09,19.71,7,21.7,16.38a20.67,20.67,0,0,1,.3,7,3.47,3.47,0,0,0,2.49,3.8,19.17,19.17,0,0,0,24.08-18.52,21.67,21.67,0,0,0-1.55-7.15,20.52,20.52,0,0,1,0,29,25.66,25.66,0,0,1-27.88,5.59,4.33,4.33,0,0,0-3,0,5.78,5.78,0,0,0,.24,1.44l1.21,3.36a3.89,3.89,0,0,1-3.67,5.21H502.72a3.26,3.26,0,0,1-3.24-3.37,6.15,6.15,0,0,1,.13-1H475.36a8.13,8.13,0,0,1-7.22,4.42H434.36a3.18,3.18,0,0,1-3.18-3.17A8.18,8.18,0,0,1,439.36,305Z"/><path class="cls-28" d="M428.53,248.94c-1-1-2.13-2-3.28-3a42.1,42.1,0,0,1-6-7.44,4.37,4.37,0,0,1-.08-4.58,15.47,15.47,0,0,1,1.43-2,4,4,0,0,1,5.06-.72c3.48,2,5.83,4.12,10.95,3.93a34,34,0,0,1,6-.22Z"/><path class="cls-37" d="M439.36,305h18.57c-2.42-8.15-4.09-16.09-7.23-24.27l20.81-20.8c11.07,9.85,26.81,16.47,39.38,13a68.34,68.34,0,0,1,17.24-2.76c9.55-.09,19.71,7,21.7,16.38a20.67,20.67,0,0,1,.3,7,3.47,3.47,0,0,0,2.49,3.8,19.17,19.17,0,0,0,24.08-18.52,21.67,21.67,0,0,0-1.55-7.15,20.52,20.52,0,0,1,0,29,25.66,25.66,0,0,1-27.88,5.59,4.33,4.33,0,0,0-3,0,5.78,5.78,0,0,0,.24,1.44l1.21,3.36a3.89,3.89,0,0,1-3.67,5.21H502.72a3.26,3.26,0,0,1-3.24-3.37,6.15,6.15,0,0,1,.13-1H475.36a8.13,8.13,0,0,1-7.22,4.42H434.36a3.18,3.18,0,0,1-3.18-3.17A8.18,8.18,0,0,1,439.36,305Z"/><path class="cls-22" d="M542,316.33H502.72a3.26,3.26,0,0,1-3.24-3.37,8.17,8.17,0,0,1,8.17-8h9.59a15.39,15.39,0,0,1-1.66-12.7,15.67,15.67,0,0,1,6.13-8.35"/><path class="cls-22" d="M462.35,305h-23a8.18,8.18,0,0,0-8.18,8.18h0a3.18,3.18,0,0,0,3.18,3.17h33.78a8.17,8.17,0,0,0,8.17-8.17V305"/><polygon class="cls-35" points="448.1 283.32 473.94 257.48 453.98 223.49 414.11 263.36 448.1 283.32"/><polygon class="cls-27" points="350 99.3 318.96 81.37 318.96 45.53 350 27.6 381.04 45.53 381.04 81.37 350 99.3"/><path class="cls-24" d="M341.75,72.16A9.68,9.68,0,0,1,350,77.31a9.68,9.68,0,0,1,8.25-5.15,8.68,8.68,0,0,1,4.16,1.08,18,18,0,0,0,.52-4.27c0-8.51-5.79-15.4-12.93-15.4S337.07,60.46,337.07,69a18,18,0,0,0,.52,4.27A8.68,8.68,0,0,1,341.75,72.16Z"/><polygon class="cls-24" points="350 61.66 329.73 55.63 350 49.59 370.27 55.63 350 61.66"/><line class="cls-26" x1="118.07" y1="169.89" x2="118.07" y2="184.16"/><line class="cls-26" x1="125.01" y1="169.89" x2="125.01" y2="184.16"/><path class="cls-40" d="M140.29,155a11.36,11.36,0,0,0-20.61-6.59l-.09,0a15.81,15.81,0,0,1-22.11,3.38,23.78,23.78,0,0,0,23.78,23.78,19,19,0,0,0,19-19l-.11-.05A11.66,11.66,0,0,0,140.29,155Z"/><polygon class="cls-26" points="147.24 154.98 138.52 158.51 134.99 154.98 138.52 151.45 147.24 154.98"/><circle class="cls-21" cx="132.34" cy="150.22" r="1.64"/><path class="cls-37" d="M270.42,95.36c2.92,2.93,4.38,4.39,7.31,7.31,2.92-16.6,8.64-24.12,22.64-31.65l4.85,4.84a56.45,56.45,0,0,1,3.32-11.3,122.1,122.1,0,0,0-18.45-3.82c1.94,1.93,2.91,2.9,4.84,4.84C280.18,72.37,274.09,79.51,270.42,95.36Z"/><path class="cls-37" d="M396.86,62.65,389.55,70c16.6,2.92,24.12,8.64,31.66,22.64l-4.85,4.85a56.56,56.56,0,0,1,11.31,3.32,123.09,123.09,0,0,0,3.82-18.45l-4.85,4.85C419.86,72.4,412.71,66.31,396.86,62.65Z"/></svg>