<?xml version="1.0"?>
<svg xmlns="http://www.w3.org/2000/svg" xmlns:xlink="http://www.w3.org/1999/xlink" id="Layer_1" data-name="Layer 1" viewBox="0 0 700 350">
<link xmlns="" type="text/css" id="dark-mode" rel="stylesheet" href=""/>
<style xmlns="" type="text/css" id="dark-mode-custom-style"/>
<defs>
    <style>.cls-1,.cls-18{fill:none;}.cls-2{opacity:0.4;}.cls-3{clip-path:url(#clip-path);}.cls-4,.cls-6{fill:#666e95;}.cls-4,.cls-5,.cls-9{stroke:#4a4f80;}.cls-11,.cls-13,.cls-14,.cls-16,.cls-17,.cls-18,.cls-19,.cls-4,.cls-5,.cls-9{stroke-linecap:round;stroke-linejoin:round;}.cls-4,.cls-5{stroke-width:3.5px;}.cls-15,.cls-16,.cls-5{fill:#282c4c;}.cls-6{opacity:0.3;}.cls-7{opacity:0.1;}.cls-8{clip-path:url(#clip-path-2);}.cls-11,.cls-9{fill:#4a4f80;}.cls-9{stroke-width:2.04px;}.cls-10{clip-path:url(#clip-path-3);}.cls-11,.cls-12,.cls-13,.cls-14,.cls-16,.cls-17,.cls-18,.cls-19{stroke:#282c4c;stroke-width:5.1px;}.cls-12{fill:#fff;stroke-miterlimit:10;}.cls-13{fill:#f48667;}.cls-14{fill:#56bcde;}.cls-17{fill:#6cc7be;}.cls-19{fill:#f1717e;}</style>
    <clipPath id="clip-path">
        <path class="cls-1" d="M-120.9,155.56h-41.42a19.44,19.44,0,0,1-19.44-19.45,19.44,19.44,0,0,1,19.44-19.44h7.78A19.44,19.44,0,0,0-135.1,97.22a19.44,19.44,0,0,0-19.44-19.44H-242a19.45,19.45,0,0,1-19.45-19.45A19.44,19.44,0,0,1-242,38.89h17.5A19.44,19.44,0,0,0-205.1,19.44,19.44,19.44,0,0,0-224.54,0H-674.19a19.45,19.45,0,0,0-19.45,19.44,19.45,19.45,0,0,0,19.45,19.45H-663a19.44,19.44,0,0,1,19.44,19.44A19.45,19.45,0,0,1-663,77.78H-770.93a19.44,19.44,0,0,0-19.45,19.44,19.45,19.45,0,0,0,19.45,19.45H-769a19.44,19.44,0,0,1,19.45,19.44A19.45,19.45,0,0,1-769,155.56H-779.1A19.44,19.44,0,0,0-798.54,175a19.44,19.44,0,0,0,19.44,19.44h49a19.45,19.45,0,0,1,19.45,19.45,19.44,19.44,0,0,1-19.45,19.44h-35a19.44,19.44,0,0,0-19.44,19.45,19.44,19.44,0,0,0,19.44,19.44h56.39a19.45,19.45,0,0,1,19.45,19.45,19.44,19.44,0,0,1-19.45,19.44h-17.5a19.44,19.44,0,0,0-19.44,19.45A19.44,19.44,0,0,0-726.21,350h536.67a19.44,19.44,0,0,0,19.44-19.44,19.44,19.44,0,0,0-19.44-19.45h-5.83a19.44,19.44,0,0,1-19.45-19.44,19.45,19.45,0,0,1,19.45-19.45h44.72a19.44,19.44,0,0,0,19.44-19.44,19.44,19.44,0,0,0-19.44-19.45h-20a19.44,19.44,0,0,1-19.45-19.44,19.45,19.45,0,0,1,19.45-19.45h49.78A19.44,19.44,0,0,0-101.46,175,19.44,19.44,0,0,0-120.9,155.56Z"/>
    </clipPath>
    <clipPath id="clip-path-2">
        <path class="cls-1" d="M20.9,194.44H31a19.45,19.45,0,1,1,0,38.89H29.07a19.45,19.45,0,0,0,0,38.89H180.74a19.45,19.45,0,0,1,0,38.89H169.56a19.45,19.45,0,1,0,0,38.89H560.88a19.45,19.45,0,0,0,0-38.89H514.21a19.45,19.45,0,1,1,0-38.89H645.46a19.45,19.45,0,0,0,0-38.89h-7.78a19.45,19.45,0,0,1,0-38.89H679.1a19.44,19.44,0,0,0,0-38.88H629.32a19.45,19.45,0,0,1,0-38.89h20a19.45,19.45,0,0,0,0-38.89H512.75a19.45,19.45,0,0,1,0-38.89h83.13a19.45,19.45,0,0,0,0-38.89H146.71a19.45,19.45,0,1,0,0,38.89h17.5a19.45,19.45,0,0,1,0,38.89H34.9a19.45,19.45,0,0,0,0,38.89h78.75a19.45,19.45,0,1,1,0,38.89H20.9a19.44,19.44,0,0,0,0,38.88Z"/>
    </clipPath>
    <clipPath id="clip-path-3">
        <rect class="cls-1" width="700" height="350"/>
    </clipPath>
</defs>
<title>badgr_verify</title>
<g class="cls-2">
    <g class="cls-3">
        <rect class="cls-4" x="-253.32" y="184.92" width="698.88" height="11.32"/>
        <rect class="cls-4" x="-20.36" y="196.24" width="116.48" height="110.01"/>
        <rect class="cls-5" x="-10.66" y="207.57" width="97.07" height="24.27"/>
        <rect class="cls-4" x="-10.66" y="205.95" width="97.07" height="24.27"/>
        <rect class="cls-4" x="21.7" y="205.95" width="32.36" height="6.47"/>
        <rect class="cls-5" x="-10.66" y="239.92" width="97.07" height="24.27"/>
        <rect class="cls-4" x="-10.66" y="238.3" width="97.07" height="24.27"/>
        <rect class="cls-4" x="21.7" y="238.3" width="32.36" height="6.47"/>
        <rect class="cls-5" x="-10.66" y="272.28" width="97.07" height="24.27"/>
        <rect class="cls-4" x="-10.66" y="270.66" width="97.07" height="24.27"/>
        <rect class="cls-4" x="21.7" y="270.66" width="32.36" height="6.47"/>
        <rect class="cls-4" x="212.6" y="196.24" width="116.48" height="110.01"/>
        <rect class="cls-5" x="222.3" y="207.57" width="97.07" height="88.98"/>
        <rect class="cls-4" x="96.12" y="196.24" width="116.48" height="110.01"/>
        <rect class="cls-5" x="105.82" y="207.57" width="97.07" height="24.27"/>
        <rect class="cls-4" x="105.82" y="205.95" width="97.07" height="24.27"/>
        <rect class="cls-4" x="138.18" y="205.95" width="32.36" height="6.47"/>
        <rect class="cls-5" x="105.82" y="239.92" width="97.07" height="24.27"/>
        <rect class="cls-4" x="105.82" y="238.3" width="97.07" height="24.27"/>
        <rect class="cls-4" x="138.18" y="238.3" width="32.36" height="6.47"/>
        <rect class="cls-5" x="105.82" y="272.28" width="97.07" height="24.27"/>
        <rect class="cls-4" x="105.82" y="270.66" width="97.07" height="24.27"/>
        <rect class="cls-4" x="138.18" y="270.66" width="32.36" height="6.47"/>
        <rect class="cls-4" x="329.08" y="196.24" width="116.48" height="110.01"/>
        <rect class="cls-5" x="338.78" y="207.57" width="97.07" height="24.27"/>
        <rect class="cls-4" x="338.78" y="205.95" width="97.07" height="24.27"/>
        <rect class="cls-4" x="371.14" y="205.95" width="32.36" height="6.47"/>
        <rect class="cls-5" x="338.78" y="239.92" width="97.07" height="24.27"/>
        <rect class="cls-4" x="338.78" y="238.3" width="97.07" height="24.27"/>
        <rect class="cls-4" x="371.14" y="238.3" width="32.36" height="6.47"/>
        <rect class="cls-5" x="338.78" y="272.28" width="97.07" height="24.27"/>
        <rect class="cls-4" x="338.78" y="270.66" width="97.07" height="24.27"/>
        <rect class="cls-4" x="371.14" y="270.66" width="32.36" height="6.47"/>
        <rect class="cls-4" x="222.3" y="205.95" width="48.53" height="88.98"/>
        <rect class="cls-4" x="270.84" y="205.95" width="48.53" height="88.98"/>
        <rect class="cls-4" x="264.36" y="238.3" width="6.47" height="24.27"/>
        <rect class="cls-4" x="270.84" y="238.3" width="6.47" height="24.27"/>
    </g>
</g>
<path class="cls-6" d="M20.9,194.44H31a19.45,19.45,0,1,1,0,38.89H29.07a19.45,19.45,0,0,0,0,38.89H180.74a19.45,19.45,0,0,1,0,38.89H169.56a19.45,19.45,0,1,0,0,38.89H560.88a19.45,19.45,0,0,0,0-38.89H514.21a19.45,19.45,0,1,1,0-38.89H645.46a19.45,19.45,0,0,0,0-38.89h-7.78a19.45,19.45,0,0,1,0-38.89H679.1a19.44,19.44,0,0,0,0-38.88H629.32a19.45,19.45,0,0,1,0-38.89h20a19.45,19.45,0,0,0,0-38.89H512.75a19.45,19.45,0,0,1,0-38.89h83.13a19.45,19.45,0,0,0,0-38.89H146.71a19.45,19.45,0,1,0,0,38.89h17.5a19.45,19.45,0,0,1,0,38.89H34.9a19.45,19.45,0,0,0,0,38.89h78.75a19.45,19.45,0,1,1,0,38.89H20.9a19.44,19.44,0,0,0,0,38.88Z"/>
<g class="cls-7">
    <g class="cls-8">
        <path class="cls-9" d="M-4.22-13.69V-28l-12.41-7.16L-29-28v14.33l12.41,7.16Zm40.8,0V-28L24.17-35.18,11.76-28v14.33L24.17-6.53ZM-8.64,19.53,3.77,26.69l12.41-7.16V5.2L3.77-2-8.64,5.2Zm4.42,33.22V38.43l-12.41-7.17L-29,38.43V52.75l12.41,7.17Zm16-14.32V52.75l12.41,7.17,12.41-7.17V38.43L24.17,31.26ZM-8.64,71.65V86L3.77,93.14,16.18,86V71.65L3.77,64.49Zm4.42,47.55V104.88l-12.41-7.17L-29,104.88V119.2l12.41,7.17Zm16-14.32V119.2l12.41,7.17,12.41-7.17V104.88L24.17,97.71Zm-20.4,47.55,12.41,7.16,12.41-7.16V138.1L3.77,130.94-8.64,138.1Zm4.42,33.22V171.32l-12.41-7.16L-29,171.32v14.33l12.41,7.16Zm16,0,12.41,7.16,12.41-7.16V171.32l-12.41-7.16-12.41,7.16Zm-20.4,33.22L3.77,226l12.41-7.17V204.55L3.77,197.38l-12.41,7.17Zm4.42,33.23V237.77l-12.41-7.16L-29,237.77V252.1l12.41,7.16Zm40.8,0V237.77l-12.41-7.16-12.41,7.16V252.1l12.41,7.16ZM-8.64,285.32l12.41,7.17,12.41-7.17V271L3.77,263.83-8.64,271Zm4.42,18.9-12.41-7.16L-29,304.22v14.33l12.41,7.16,12.41-7.16Zm40.8,0-12.41-7.16-12.41,7.16v14.33l12.41,7.16,12.41-7.16ZM-8.64,337.44v14.33l12.41,7.16,12.41-7.16V337.44L3.77,330.28ZM75.05-13.69V-28L62.64-35.18,50.23-28v14.33L62.64-6.53ZM29.83,19.53l12.41,7.16,12.41-7.16V5.2L42.24-2,29.83,5.2Zm20.4,18.9V52.75l12.41,7.17,12.41-7.17V38.43L62.64,31.26ZM29.83,71.65V86l12.41,7.16L54.65,86V71.65L42.24,64.49Zm20.4,33.23V119.2l12.41,7.17,12.41-7.17V104.88L62.64,97.71ZM29.83,138.1v14.33l12.41,7.16,12.41-7.16V138.1l-12.41-7.16Zm45.22,47.55V171.32l-12.41-7.16-12.41,7.16v14.33l12.41,7.16Zm-20.4,33.22V204.55l-12.41-7.17-12.41,7.17v14.32L42.24,226Zm20.4,33.23V237.77l-12.41-7.16-12.41,7.16V252.1l12.41,7.16Zm-20.4,33.22V271l-12.41-7.17L29.83,271v14.32l12.41,7.17Zm20.4,18.9-12.41-7.16-12.41,7.16v14.33l12.41,7.16,12.41-7.16ZM29.83,337.44v14.33l12.41,7.16,12.41-7.16V337.44l-12.41-7.16ZM113.52-13.69V-28l-12.41-7.16L88.7-28v14.33l12.41,7.16ZM68.3,19.53l12.41,7.16,12.41-7.16V5.2L80.71-2,68.3,5.2Zm20.4,18.9V52.75l12.41,7.17,12.41-7.17V38.43l-12.41-7.17ZM68.3,71.65V86l12.41,7.16L93.12,86V71.65L80.71,64.49Zm20.4,33.23V119.2l12.41,7.17,12.41-7.17V104.88l-12.41-7.17ZM68.3,138.1v14.33l12.41,7.16,12.41-7.16V138.1l-12.41-7.16Zm45.22,47.55V171.32l-12.41-7.16L88.7,171.32v14.33l12.41,7.16Zm-20.4,33.22V204.55l-12.41-7.17L68.3,204.55v14.32L80.71,226Zm20.4,33.23V237.77l-12.41-7.16L88.7,237.77V252.1l12.41,7.16Zm-20.4,33.22V271l-12.41-7.17L68.3,271v14.32l12.41,7.17Zm20.4,18.9-12.41-7.16L88.7,304.22v14.33l12.41,7.16,12.41-7.16ZM68.3,337.44v14.33l12.41,7.16,12.41-7.16V337.44l-12.41-7.16ZM152-13.69V-28l-12.41-7.16L127.17-28v14.33l12.41,7.16ZM106.77,19.53l12.41,7.16,12.41-7.16V5.2L119.18-2,106.77,5.2Zm20.4,18.9V52.75l12.41,7.17L152,52.75V38.43l-12.41-7.17Zm-20.4,33.22V86l12.41,7.16L131.59,86V71.65l-12.41-7.16Zm20.4,33.23V119.2l12.41,7.17L152,119.2V104.88l-12.41-7.17Zm-20.4,33.22v14.33l12.41,7.16,12.41-7.16V138.1l-12.41-7.16ZM152,185.65V171.32l-12.41-7.16-12.41,7.16v14.33l12.41,7.16Zm-20.4,33.22V204.55l-12.41-7.17-12.41,7.17v14.32L119.18,226ZM152,252.1V237.77l-12.41-7.16-12.41,7.16V252.1l12.41,7.16Zm-20.4,33.22V271l-12.41-7.17L106.77,271v14.32l12.41,7.17Zm20.4,18.9-12.41-7.16-12.41,7.16v14.33l12.41,7.16L152,318.55Zm-45.22,33.22v14.33l12.41,7.16,12.41-7.16V337.44l-12.41-7.16ZM190.46-13.69V-28l-12.41-7.16L165.64-28v14.33l12.41,7.16ZM145.24,19.53l12.41,7.16,12.41-7.16V5.2L157.65-2,145.24,5.2Zm20.4,18.9V52.75l12.41,7.17,12.41-7.17V38.43l-12.41-7.17Zm-20.4,33.22V86l12.41,7.16L170.06,86V71.65l-12.41-7.16Zm20.4,33.23V119.2l12.41,7.17,12.41-7.17V104.88l-12.41-7.17Zm-20.4,33.22v14.33l12.41,7.16,12.41-7.16V138.1l-12.41-7.16Zm45.22,47.55V171.32l-12.41-7.16-12.41,7.16v14.33l12.41,7.16Zm-20.4,33.22V204.55l-12.41-7.17-12.41,7.17v14.32L157.65,226Zm20.4,33.23V237.77l-12.41-7.16-12.41,7.16V252.1l12.41,7.16Zm-20.4,33.22V271l-12.41-7.17L145.24,271v14.32l12.41,7.17Zm20.4,18.9-12.41-7.16-12.41,7.16v14.33l12.41,7.16,12.41-7.16Zm-45.22,33.22v14.33l12.41,7.16,12.41-7.16V337.44l-12.41-7.16ZM228.93-13.69V-28l-12.41-7.16L204.11-28v14.33l12.41,7.16ZM183.71,19.53l12.41,7.16,12.41-7.16V5.2L196.12-2,183.71,5.2Zm20.4,18.9V52.75l12.41,7.17,12.41-7.17V38.43l-12.41-7.17Zm-20.4,33.22V86l12.41,7.16L208.53,86V71.65l-12.41-7.16Zm20.4,33.23V119.2l12.41,7.17,12.41-7.17V104.88l-12.41-7.17Zm-20.4,33.22v14.33l12.41,7.16,12.41-7.16V138.1l-12.41-7.16Zm45.22,47.55V171.32l-12.41-7.16-12.41,7.16v14.33l12.41,7.16Zm-20.4,33.22V204.55l-12.41-7.17-12.41,7.17v14.32L196.12,226Zm20.4,33.23V237.77l-12.41-7.16-12.41,7.16V252.1l12.41,7.16Zm-20.4,33.22V271l-12.41-7.17L183.71,271v14.32l12.41,7.17Zm20.4,18.9-12.41-7.16-12.41,7.16v14.33l12.41,7.16,12.41-7.16Zm-45.22,33.22v14.33l12.41,7.16,12.41-7.16V337.44l-12.41-7.16ZM267.4-13.69V-28L255-35.18,242.58-28v14.33L255-6.53ZM222.18,19.53l12.41,7.16L247,19.53V5.2L234.59-2,222.18,5.2Zm20.4,18.9V52.75L255,59.92l12.41-7.17V38.43L255,31.26Zm-20.4,33.22V86l12.41,7.16L247,86V71.65l-12.41-7.16Zm20.4,33.23V119.2L255,126.37l12.41-7.17V104.88L255,97.71Zm-20.4,33.22v14.33l12.41,7.16L247,152.43V138.1l-12.41-7.16Zm45.22,47.55V171.32L255,164.16l-12.41,7.16v14.33L255,192.81ZM247,218.87V204.55l-12.41-7.17-12.41,7.17v14.32L234.59,226Zm20.4,33.23V237.77L255,230.61l-12.41,7.16V252.1L255,259.26ZM247,285.32V271l-12.41-7.17L222.18,271v14.32l12.41,7.17Zm20.4,18.9L255,297.06l-12.41,7.16v14.33L255,325.71l12.41-7.16Zm-45.22,33.22v14.33l12.41,7.16L247,351.77V337.44l-12.41-7.16ZM305.87-13.69V-28l-12.41-7.16L281.05-28v14.33l12.41,7.16ZM260.65,19.53l12.41,7.16,12.41-7.16V5.2L273.06-2,260.65,5.2Zm20.4,18.9V52.75l12.41,7.17,12.41-7.17V38.43l-12.41-7.17Zm-20.4,33.22V86l12.41,7.16L285.47,86V71.65l-12.41-7.16Zm20.4,33.23V119.2l12.41,7.17,12.41-7.17V104.88l-12.41-7.17Zm-20.4,33.22v14.33l12.41,7.16,12.41-7.16V138.1l-12.41-7.16Zm45.22,47.55V171.32l-12.41-7.16-12.41,7.16v14.33l12.41,7.16Zm-20.4,33.22V204.55l-12.41-7.17-12.41,7.17v14.32L273.06,226Zm20.4,33.23V237.77l-12.41-7.16-12.41,7.16V252.1l12.41,7.16Zm-20.4,33.22V271l-12.41-7.17L260.65,271v14.32l12.41,7.17Zm20.4,18.9-12.41-7.16-12.41,7.16v14.33l12.41,7.16,12.41-7.16Zm-45.22,33.22v14.33l12.41,7.16,12.41-7.16V337.44l-12.41-7.16ZM344.34-13.69V-28l-12.41-7.16L319.52-28v14.33l12.41,7.16ZM299.12,19.53l12.41,7.16,12.41-7.16V5.2L311.53-2,299.12,5.2Zm20.4,18.9V52.75l12.41,7.17,12.41-7.17V38.43l-12.41-7.17Zm-20.4,33.22V86l12.41,7.16L323.94,86V71.65l-12.41-7.16Zm20.4,33.23V119.2l12.41,7.17,12.41-7.17V104.88l-12.41-7.17Zm-20.4,33.22v14.33l12.41,7.16,12.41-7.16V138.1l-12.41-7.16Zm45.22,47.55V171.32l-12.41-7.16-12.41,7.16v14.33l12.41,7.16Zm-20.4,33.22V204.55l-12.41-7.17-12.41,7.17v14.32L311.53,226Zm20.4,33.23V237.77l-12.41-7.16-12.41,7.16V252.1l12.41,7.16Zm-20.4,33.22V271l-12.41-7.17L299.12,271v14.32l12.41,7.17Zm20.4,18.9-12.41-7.16-12.41,7.16v14.33l12.41,7.16,12.41-7.16Zm-45.22,33.22v14.33l12.41,7.16,12.41-7.16V337.44l-12.41-7.16ZM382.81-13.69V-28L370.4-35.18,358-28v14.33L370.4-6.53ZM337.59,19.53,350,26.69l12.41-7.16V5.2L350-2,337.59,5.2ZM358,38.43V52.75l12.41,7.17,12.41-7.17V38.43L370.4,31.26Zm-20.4,33.22V86L350,93.14,362.41,86V71.65L350,64.49ZM358,104.88V119.2l12.41,7.17,12.41-7.17V104.88L370.4,97.71Zm-20.4,33.22v14.33L350,159.59l12.41-7.16V138.1L350,130.94Zm45.22,47.55V171.32l-12.41-7.16L358,171.32v14.33l12.41,7.16Zm-20.4,33.22V204.55L350,197.38l-12.41,7.17v14.32L350,226Zm20.4,33.23V237.77l-12.41-7.16L358,237.77V252.1l12.41,7.16Zm-20.4,33.22V271L350,263.83,337.59,271v14.32L350,292.49Zm20.4,18.9-12.41-7.16L358,304.22v14.33l12.41,7.16,12.41-7.16Zm-45.22,33.22v14.33L350,358.93l12.41-7.16V337.44L350,330.28ZM421.28-13.69V-28l-12.41-7.16L396.46-28v14.33l12.41,7.16ZM376.06,19.53l12.41,7.16,12.41-7.16V5.2L388.47-2,376.06,5.2Zm20.4,18.9V52.75l12.41,7.17,12.41-7.17V38.43l-12.41-7.17Zm-20.4,33.22V86l12.41,7.16L400.88,86V71.65l-12.41-7.16Zm20.4,33.23V119.2l12.41,7.17,12.41-7.17V104.88l-12.41-7.17Zm-20.4,33.22v14.33l12.41,7.16,12.41-7.16V138.1l-12.41-7.16Zm45.22,47.55V171.32l-12.41-7.16-12.41,7.16v14.33l12.41,7.16Zm-20.4,33.22V204.55l-12.41-7.17-12.41,7.17v14.32L388.47,226Zm20.4,33.23V237.77l-12.41-7.16-12.41,7.16V252.1l12.41,7.16Zm-20.4,33.22V271l-12.41-7.17L376.06,271v14.32l12.41,7.17Zm20.4,18.9-12.41-7.16-12.41,7.16v14.33l12.41,7.16,12.41-7.16Zm-45.22,33.22v14.33l12.41,7.16,12.41-7.16V337.44l-12.41-7.16ZM459.75-13.69V-28l-12.41-7.16L434.93-28v14.33l12.41,7.16ZM414.53,19.53l12.41,7.16,12.41-7.16V5.2L426.94-2,414.53,5.2Zm20.4,18.9V52.75l12.41,7.17,12.41-7.17V38.43l-12.41-7.17Zm-20.4,33.22V86l12.41,7.16L439.35,86V71.65l-12.41-7.16Zm20.4,33.23V119.2l12.41,7.17,12.41-7.17V104.88l-12.41-7.17Zm-20.4,33.22v14.33l12.41,7.16,12.41-7.16V138.1l-12.41-7.16Zm45.22,47.55V171.32l-12.41-7.16-12.41,7.16v14.33l12.41,7.16Zm-20.4,33.22V204.55l-12.41-7.17-12.41,7.17v14.32L426.94,226Zm20.4,33.23V237.77l-12.41-7.16-12.41,7.16V252.1l12.41,7.16Zm-20.4,33.22V271l-12.41-7.17L414.53,271v14.32l12.41,7.17Zm20.4,18.9-12.41-7.16-12.41,7.16v14.33l12.41,7.16,12.41-7.16Zm-45.22,33.22v14.33l12.41,7.16,12.41-7.16V337.44l-12.41-7.16ZM498.22-13.69V-28l-12.41-7.16L473.4-28v14.33l12.41,7.16ZM453,19.53l12.41,7.16,12.41-7.16V5.2L465.41-2,453,5.2Zm20.4,18.9V52.75l12.41,7.17,12.41-7.17V38.43l-12.41-7.17ZM453,71.65V86l12.41,7.16L477.82,86V71.65l-12.41-7.16Zm20.4,33.23V119.2l12.41,7.17,12.41-7.17V104.88l-12.41-7.17ZM453,138.1v14.33l12.41,7.16,12.41-7.16V138.1l-12.41-7.16Zm45.22,47.55V171.32l-12.41-7.16-12.41,7.16v14.33l12.41,7.16Zm-20.4,33.22V204.55l-12.41-7.17L453,204.55v14.32L465.41,226Zm20.4,33.23V237.77l-12.41-7.16-12.41,7.16V252.1l12.41,7.16Zm-20.4,33.22V271l-12.41-7.17L453,271v14.32l12.41,7.17Zm20.4,18.9-12.41-7.16-12.41,7.16v14.33l12.41,7.16,12.41-7.16ZM453,337.44v14.33l12.41,7.16,12.41-7.16V337.44l-12.41-7.16ZM536.69-13.69V-28l-12.41-7.16L511.87-28v14.33l12.41,7.16ZM491.47,19.53l12.41,7.16,12.41-7.16V5.2L503.88-2,491.47,5.2Zm20.4,18.9V52.75l12.41,7.17,12.41-7.17V38.43l-12.41-7.17Zm-20.4,33.22V86l12.41,7.16L516.29,86V71.65l-12.41-7.16Zm20.4,33.23V119.2l12.41,7.17,12.41-7.17V104.88l-12.41-7.17Zm-20.4,33.22v14.33l12.41,7.16,12.41-7.16V138.1l-12.41-7.16Zm45.22,47.55V171.32l-12.41-7.16-12.41,7.16v14.33l12.41,7.16Zm-20.4,33.22V204.55l-12.41-7.17-12.41,7.17v14.32L503.88,226Zm20.4,33.23V237.77l-12.41-7.16-12.41,7.16V252.1l12.41,7.16Zm-20.4,33.22V271l-12.41-7.17L491.47,271v14.32l12.41,7.17Zm20.4,18.9-12.41-7.16-12.41,7.16v14.33l12.41,7.16,12.41-7.16Zm-45.22,33.22v14.33l12.41,7.16,12.41-7.16V337.44l-12.41-7.16ZM575.16-13.69V-28l-12.41-7.16L550.34-28v14.33l12.41,7.16ZM529.94,19.53l12.41,7.16,12.41-7.16V5.2L542.35-2,529.94,5.2Zm20.4,18.9V52.75l12.41,7.17,12.41-7.17V38.43l-12.41-7.17Zm-20.4,33.22V86l12.41,7.16L554.76,86V71.65l-12.41-7.16Zm20.4,33.23V119.2l12.41,7.17,12.41-7.17V104.88l-12.41-7.17Zm-20.4,33.22v14.33l12.41,7.16,12.41-7.16V138.1l-12.41-7.16Zm45.22,47.55V171.32l-12.41-7.16-12.41,7.16v14.33l12.41,7.16Zm-20.4,33.22V204.55l-12.41-7.17-12.41,7.17v14.32L542.35,226Zm20.4,33.23V237.77l-12.41-7.16-12.41,7.16V252.1l12.41,7.16Zm-20.4,33.22V271l-12.41-7.17L529.94,271v14.32l12.41,7.17Zm20.4,18.9-12.41-7.16-12.41,7.16v14.33l12.41,7.16,12.41-7.16Zm-45.22,33.22v14.33l12.41,7.16,12.41-7.16V337.44l-12.41-7.16ZM613.63-13.69V-28l-12.41-7.16L588.81-28v14.33l12.41,7.16ZM568.41,19.53l12.41,7.16,12.41-7.16V5.2L580.82-2,568.41,5.2Zm20.4,18.9V52.75l12.41,7.17,12.41-7.17V38.43l-12.41-7.17Zm-20.4,33.22V86l12.41,7.16L593.23,86V71.65l-12.41-7.16Zm20.4,33.23V119.2l12.41,7.17,12.41-7.17V104.88l-12.41-7.17Zm-20.4,33.22v14.33l12.41,7.16,12.41-7.16V138.1l-12.41-7.16Zm45.22,47.55V171.32l-12.41-7.16-12.41,7.16v14.33l12.41,7.16Zm-20.4,33.22V204.55l-12.41-7.17-12.41,7.17v14.32L580.82,226Zm20.4,33.23V237.77l-12.41-7.16-12.41,7.16V252.1l12.41,7.16Zm-20.4,33.22V271l-12.41-7.17L568.41,271v14.32l12.41,7.17Zm20.4,18.9-12.41-7.16-12.41,7.16v14.33l12.41,7.16,12.41-7.16Zm-45.22,33.22v14.33l12.41,7.16,12.41-7.16V337.44l-12.41-7.16ZM652.1-13.69V-28l-12.41-7.16L627.28-28v14.33l12.41,7.16ZM606.88,19.53l12.41,7.16,12.41-7.16V5.2L619.29-2,606.88,5.2Zm20.4,18.9V52.75l12.41,7.17,12.41-7.17V38.43l-12.41-7.17Zm-20.4,33.22V86l12.41,7.16L631.7,86V71.65l-12.41-7.16Zm20.4,33.23V119.2l12.41,7.17,12.41-7.17V104.88l-12.41-7.17Zm-20.4,33.22v14.33l12.41,7.16,12.41-7.16V138.1l-12.41-7.16Zm45.22,47.55V171.32l-12.41-7.16-12.41,7.16v14.33l12.41,7.16Zm-20.4,33.22V204.55l-12.41-7.17-12.41,7.17v14.32L619.29,226Zm20.4,33.23V237.77l-12.41-7.16-12.41,7.16V252.1l12.41,7.16Zm-20.4,33.22V271l-12.41-7.17L606.88,271v14.32l12.41,7.17Zm20.4,18.9-12.41-7.16-12.41,7.16v14.33l12.41,7.16,12.41-7.16Zm-45.22,33.22v14.33l12.41,7.16,12.41-7.16V337.44l-12.41-7.16ZM690.57-13.69V-28l-12.41-7.16L665.75-28v14.33l12.41,7.16ZM645.35,19.53l12.41,7.16,12.41-7.16V5.2L657.76-2,645.35,5.2Zm45.22,18.9-12.41-7.17-12.41,7.17V52.75l12.41,7.17,12.41-7.17ZM645.35,71.65V86l12.41,7.16L670.17,86V71.65l-12.41-7.16Zm45.22,33.23-12.41-7.17-12.41,7.17V119.2l12.41,7.17,12.41-7.17Zm-45.22,47.55,12.41,7.16,12.41-7.16V138.1l-12.41-7.16-12.41,7.16Zm45.22,33.22V171.32l-12.41-7.16-12.41,7.16v14.33l12.41,7.16Zm-20.4,33.22V204.55l-12.41-7.17-12.41,7.17v14.32L657.76,226Zm20.4,33.23V237.77l-12.41-7.16-12.41,7.16V252.1l12.41,7.16Zm-20.4,33.22V271l-12.41-7.17L645.35,271v14.32l12.41,7.17Zm20.4,18.9-12.41-7.16-12.41,7.16v14.33l12.41,7.16,12.41-7.16Zm-45.22,33.22v14.33l12.41,7.16,12.41-7.16V337.44l-12.41-7.16ZM716.63-35.18,704.22-28v14.33l12.41,7.16L729-13.69V-28Zm-8,40.38L696.23-2,683.82,5.2V19.53l12.41,7.16,12.41-7.16Zm-4.42,33.23V52.75l12.41,7.17L729,52.75V38.43l-12.41-7.17Zm4.42,33.22-12.41-7.16-12.41,7.16V86l12.41,7.16L708.64,86Zm-4.42,33.23V119.2l12.41,7.17L729,119.2V104.88l-12.41-7.17Zm4.42,33.22-12.41-7.16-12.41,7.16v14.33l12.41,7.16,12.41-7.16Zm-4.42,33.22v14.33l12.41,7.16L729,185.65V171.32l-12.41-7.16Zm4.42,33.23-12.41-7.17-12.41,7.17v14.32L696.23,226l12.41-7.17Zm-4.42,33.22V252.1l12.41,7.16L729,252.1V237.77l-12.41-7.16Zm4.42,47.55V271l-12.41-7.17L683.82,271v14.32l12.41,7.17Zm-4.42,18.9v14.33l12.41,7.16L729,318.55V304.22l-12.41-7.16Zm-20.4,33.22v14.33l12.41,7.16,12.41-7.16V337.44l-12.41-7.16Z"/>
    </g>
</g>
<g class="cls-10">
    <rect class="cls-11" x="248.79" y="37.77" width="214.08" height="274.46" rx="18.15" ry="18.15"/>
    <path class="wave2 cls-12" d="M619,301.52a199.76,199.76,0,0,0,199.92-198,19.57,19.57,0,0,0-19.39-19.75h-.18a19.58,19.58,0,0,0-19.57,19.4,159.86,159.86,0,0,1-47.09,112.24c-62.69,62.69-164.69,62.69-227.38,0a19.58,19.58,0,0,0-27.68,27.69A199.31,199.31,0,0,0,619,301.52Z"/>
    <g class="wave2">
        <line class="cls-13" x1="593.79" y1="234.66" x2="593.79" y2="259.74"/>
        <line class="cls-13" x1="582.3" y1="234.66" x2="582.3" y2="258.28"/>
        <path class="cls-14" d="M557,210a18.81,18.81,0,0,1,34.13-10.91l.14-.06a26.19,26.19,0,0,0,36.63,5.59A39.4,39.4,0,0,1,588.51,244,31.51,31.51,0,0,1,557,212.46l.18-.07A17.7,17.7,0,0,1,557,210Z"/>
        <polygon class="cls-13" points="545.48 209.96 559.94 215.81 565.78 209.96 559.94 204.12 545.48 209.96"/>
        <circle class="cls-15" cx="570.17" cy="202.09" r="2.72"/>
    </g>

    <rect class="cls-16" x="262.5" y="70" width="186.67" height="151.67" transform="translate(711.66 291.67) rotate(180)"/>
    <rect class="cls-17" x="262.5" y="221.67" width="186.67" height="58.33"/>
    <path class="cls-13" d="M444.53,187.07h18.34V161.3l40.06,40.06a20.1,20.1,0,0,1,0,28.44L487.78,245a20.09,20.09,0,0,1-24.91,2.78V209.07H444.53a11,11,0,0,1,0-22Z"/>
    <circle class="cls-15" cx="355.83" cy="296.11" r="3.65"/>
    <line class="cls-18" x1="362.15" y1="53.89" x2="349.51" y2="53.89"/>
    <circle class="cls-17" cx="291.67" cy="250.83" r="14.58"/>
    <polyline class="cls-18" points="293.9 250.83 289.43 255.31 286.42 252.29"/>
    <line class="cls-11" x1="296.92" y1="247.82" x2="293.9" y2="250.83"/>
    <g class="badgehat">
    <polygon class="cls-19" points="355.83 198.6 401.53 172.22 401.53 119.45 355.83 93.07 310.14 119.45 310.14 172.22 355.83 198.6"/>
    <path class="cls-11" d="M368,158.65c-5,0-9.47,3-12.14,7.59-2.66-4.59-7.1-7.59-12.14-7.59a12.73,12.73,0,0,0-6.13,1.6,27,27,0,0,1-.76-6.29c0-12.52,8.52-22.67,19-22.67s19,10.15,19,22.67a26.43,26.43,0,0,1-.76,6.29A12.73,12.73,0,0,0,368,158.65Z"/>
    <polygon class="cls-11" points="355.83 143.2 385.67 134.32 355.83 125.43 326 134.32 355.83 143.2"/>
    </g>
    <path class="cls-15" d="M327.2,257l-3.46-11.95a3.38,3.38,0,0,1-.1-.73,2.5,2.5,0,0,1,4.94-.58l2.39,10,2.36-10a2.52,2.52,0,0,1,5,.58,2.2,2.2,0,0,1-.13.73L334.71,257a3.92,3.92,0,0,1-7.51,0Z"/>
    <path class="cls-15" d="M340.43,256.92v-12.2a2.35,2.35,0,0,1,2.62-2.62h6.54a2.11,2.11,0,0,1,0,4.21h-4.21v2.31h4a2.11,2.11,0,0,1,0,4.22h-4v2.51h4.21a2.11,2.11,0,0,1,0,4.22h-6.54A2.37,2.37,0,0,1,340.43,256.92Z"/>
    <path class="cls-15" d="M367.75,257.26a2.46,2.46,0,0,1-2.49,2.57,2.49,2.49,0,0,1-2.15-1.34l-2.64-4.63h-1.31v3.45a2.48,2.48,0,1,1-5,0V244.72a2.35,2.35,0,0,1,2.62-2.62h5.08a6,6,0,0,1,3.53,10.74l1.94,3.24A1.92,1.92,0,0,1,367.75,257.26Zm-8.59-7.62h2a1.67,1.67,0,0,0,0-3.33h-2Z"/>
    <path class="cls-15" d="M370.42,257.31v-13a2.48,2.48,0,1,1,4.95,0v13a2.48,2.48,0,1,1-4.95,0Z"/>
    <path class="cls-15" d="M378.54,257.31V244.72a2.35,2.35,0,0,1,2.62-2.62h6.55a2.11,2.11,0,0,1,0,4.21h-4.22v2.31h4a2.11,2.11,0,0,1,0,4.22h-4v4.47a2.48,2.48,0,1,1-4.95,0Z"/>
    <path class="cls-15" d="M392.19,257.31v-13a2.48,2.48,0,1,1,4.95,0v13a2.48,2.48,0,1,1-4.95,0Z"/>
    <path class="cls-15" d="M400.31,256.92v-12.2a2.35,2.35,0,0,1,2.62-2.62h6.55a2.11,2.11,0,0,1,0,4.21h-4.22v2.31h4a2.11,2.11,0,0,1,0,4.22h-4v2.51h4.22a2.11,2.11,0,0,1,0,4.22h-6.55A2.38,2.38,0,0,1,400.31,256.92Z"/>
    <path class="cls-15" d="M414.09,256.92v-12.2a2.35,2.35,0,0,1,2.62-2.62h4c5.13,0,8.17,3.48,8.17,8.72s-3,8.75-8.14,8.75h-4A2.38,2.38,0,0,1,414.09,256.92Zm6.6-1.67c1.94,0,3.14-1.65,3.14-4.43,0-3-1.1-4.4-3.14-4.4H419v8.83Z"/>
</g>
</svg>
