<svg id="Layer_1" data-name="Layer 1" 
    xmlns="http://www.w3.org/2000/svg" 
    xmlns:xlink="http://www.w3.org/1999/xlink" viewBox="0 0 700 350">
    <defs>
        <style>.cls-1,.cls-10,.cls-20,.cls-31{fill:none;}.cls-12,.cls-2,.cls-28,.cls-5,.cls-8{fill:#666e95;}.cls-11,.cls-2{opacity:0.3;}.cls-3{opacity:0.4;}.cls-4{clip-path:url(#clip-path);}.cls-10,.cls-12,.cls-5,.cls-6,.cls-7,.cls-8,.cls-9{stroke:#4a4f80;}.cls-10,.cls-11,.cls-12,.cls-14,.cls-20,.cls-21,.cls-23,.cls-24,.cls-25,.cls-26,.cls-27,.cls-28,.cls-29,.cls-30,.cls-31,.cls-5,.cls-6,.cls-7,.cls-8,.cls-9{stroke-linecap:round;}.cls-10,.cls-11,.cls-12,.cls-14,.cls-18,.cls-20,.cls-21,.cls-22,.cls-23,.cls-24,.cls-25,.cls-26,.cls-27,.cls-28,.cls-29,.cls-30,.cls-31,.cls-5,.cls-6,.cls-7,.cls-8,.cls-9{stroke-linejoin:round;}.cls-11,.cls-14,.cls-15,.cls-16,.cls-17,.cls-18,.cls-20,.cls-21,.cls-22,.cls-23,.cls-25,.cls-26,.cls-27,.cls-28,.cls-29,.cls-5,.cls-6,.cls-7{stroke-width:3.5px;}.cls-11,.cls-16,.cls-19,.cls-25,.cls-6{fill:#282c4c;}.cls-13,.cls-24,.cls-26,.cls-7,.cls-9{fill:#4a4f80;}.cls-10,.cls-30,.cls-31,.cls-8,.cls-9{stroke-width:2.92px;}.cls-11,.cls-14,.cls-15,.cls-16,.cls-17,.cls-18,.cls-20,.cls-21,.cls-22,.cls-23,.cls-24,.cls-25,.cls-26,.cls-27,.cls-28,.cls-29,.cls-30,.cls-31{stroke:#282c4c;}.cls-12{stroke-width:3.21px;}.cls-14,.cls-17{fill:#6cc7be;}.cls-15{fill:#545faa;}.cls-15,.cls-16,.cls-17{stroke-miterlimit:10;}.cls-18,.cls-21{fill:#f48667;}.cls-22,.cls-23{fill:#fff;}.cls-24{stroke-width:3.54px;}.cls-27{fill:#56bcde;}.cls-29,.cls-30{fill:#b5445b;}</style>
        <clipPath id="clip-path">
            <path class="cls-1" d="M679,155.56H668.89a19.45,19.45,0,1,1,0-38.89h1.94a19.45,19.45,0,1,0,0-38.89H562.92a19.45,19.45,0,1,1,0-38.89H574.1A19.45,19.45,0,0,0,574.1,0H124.44a19.45,19.45,0,0,0,0,38.89h17.5a19.45,19.45,0,1,1,0,38.89H54.44a19.45,19.45,0,0,0,0,38.89h7.78a19.45,19.45,0,1,1,0,38.89H20.81a19.44,19.44,0,1,0,0,38.88H70.58a19.45,19.45,0,1,1,0,38.89h-20a19.45,19.45,0,1,0,0,38.89h56.38a19.45,19.45,0,1,1,0,38.89H89.44a19.45,19.45,0,0,0,0,38.89H626.11a19.45,19.45,0,1,0,0-38.89h-17.5a19.45,19.45,0,0,1,0-38.89H665a19.45,19.45,0,0,0,0-38.89H630a19.45,19.45,0,0,1,0-38.89h49a19.44,19.44,0,1,0,0-38.88Z"/>
        </clipPath>
    </defs>
    <title>badgr_create</title>
    <rect class="cls-1" width="700" height="350"/>
    <path class="cls-2" d="M630,194.44h49a19.44,19.44,0,1,0,0-38.88H668.89a19.45,19.45,0,1,1,0-38.89h1.94a19.45,19.45,0,1,0,0-38.89H562.92a19.45,19.45,0,1,1,0-38.89H574.1A19.45,19.45,0,0,0,574.1,0H124.44a19.45,19.45,0,0,0,0,38.89h17.5a19.45,19.45,0,1,1,0,38.89H54.44a19.45,19.45,0,0,0,0,38.89h7.78a19.45,19.45,0,1,1,0,38.89H20.81a19.44,19.44,0,1,0,0,38.88H70.58a19.45,19.45,0,1,1,0,38.89h-20a19.45,19.45,0,1,0,0,38.89h56.38a19.45,19.45,0,1,1,0,38.89H89.44a19.45,19.45,0,0,0,0,38.89H626.11a19.45,19.45,0,1,0,0-38.89h-17.5a19.45,19.45,0,0,1,0-38.89H665a19.45,19.45,0,0,0,0-38.89H630a19.45,19.45,0,0,1,0-38.89Z"/>
    <g class="cls-3">
        <g class="cls-4">
            <rect class="cls-5" x="117.04" y="196.24" width="116.48" height="110.01"/>
            <rect class="cls-5" x="0.56" y="184.92" width="698.88" height="11.32"/>
            <rect class="cls-6" x="126.75" y="207.57" width="97.07" height="88.98"/>
            <rect class="cls-5" x="0.56" y="196.24" width="116.48" height="110.01"/>
            <rect class="cls-6" x="10.27" y="207.57" width="97.07" height="24.27"/>
            <rect class="cls-5" x="10.27" y="205.95" width="97.07" height="24.27"/>
            <rect class="cls-5" x="42.62" y="205.95" width="32.36" height="6.47"/>
            <rect class="cls-6" x="10.27" y="239.92" width="97.07" height="24.27"/>
            <rect class="cls-5" x="10.27" y="238.3" width="97.07" height="24.27"/>
            <rect class="cls-5" x="42.62" y="238.3" width="32.36" height="6.47"/>
            <rect class="cls-6" x="10.27" y="272.28" width="97.07" height="24.27"/>
            <rect class="cls-5" x="10.27" y="270.66" width="97.07" height="24.27"/>
            <rect class="cls-5" x="42.62" y="270.66" width="32.36" height="6.47"/>
            <rect class="cls-5" x="233.52" y="196.24" width="116.48" height="110.01"/>
            <rect class="cls-6" x="243.23" y="207.57" width="97.07" height="24.27"/>
            <rect class="cls-5" x="243.23" y="205.95" width="97.07" height="24.27"/>
            <rect class="cls-5" x="275.58" y="205.95" width="32.36" height="6.47"/>
            <rect class="cls-6" x="243.23" y="239.92" width="97.07" height="24.27"/>
            <rect class="cls-5" x="243.23" y="238.3" width="97.07" height="24.27"/>
            <rect class="cls-5" x="275.58" y="238.3" width="32.36" height="6.47"/>
            <rect class="cls-6" x="243.23" y="272.28" width="97.07" height="24.27"/>
            <rect class="cls-5" x="243.23" y="270.66" width="97.07" height="24.27"/>
            <rect class="cls-5" x="275.58" y="270.66" width="32.36" height="6.47"/>
            <rect class="cls-5" x="126.75" y="205.95" width="48.53" height="88.98"/>
            <rect class="cls-5" x="175.28" y="205.95" width="48.53" height="88.98"/>
            <rect class="cls-5" x="168.81" y="238.3" width="6.47" height="24.27"/>
            <rect class="cls-5" x="175.28" y="238.3" width="6.47" height="24.27"/>
            <rect class="cls-5" x="466.48" y="196.24" width="116.48" height="110.01"/>
            <rect class="cls-6" x="476.19" y="207.57" width="97.07" height="88.98"/>
            <rect class="cls-5" x="350" y="196.24" width="116.48" height="110.01"/>
            <rect class="cls-6" x="359.71" y="207.57" width="97.07" height="24.27"/>
            <rect class="cls-5" x="359.71" y="205.95" width="97.07" height="24.27"/>
            <rect class="cls-5" x="392.06" y="205.95" width="32.36" height="6.47"/>
            <rect class="cls-6" x="359.71" y="239.92" width="97.07" height="24.27"/>
            <rect class="cls-5" x="359.71" y="238.3" width="97.07" height="24.27"/>
            <rect class="cls-5" x="392.06" y="238.3" width="32.36" height="6.47"/>
            <rect class="cls-6" x="359.71" y="272.28" width="97.07" height="24.27"/>
            <rect class="cls-5" x="359.71" y="270.66" width="97.07" height="24.27"/>
            <rect class="cls-5" x="392.06" y="270.66" width="32.36" height="6.47"/>
            <rect class="cls-5" x="582.96" y="196.24" width="116.48" height="110.01"/>
            <rect class="cls-6" x="592.67" y="207.57" width="97.07" height="24.27"/>
            <rect class="cls-5" x="592.67" y="205.95" width="97.07" height="24.27"/>
            <rect class="cls-5" x="625.02" y="205.95" width="32.36" height="6.47"/>
            <rect class="cls-6" x="592.67" y="239.92" width="97.07" height="24.27"/>
            <rect class="cls-5" x="592.67" y="238.3" width="97.07" height="24.27"/>
            <rect class="cls-5" x="625.02" y="238.3" width="32.36" height="6.47"/>
            <rect class="cls-6" x="592.67" y="272.28" width="97.07" height="24.27"/>
            <rect class="cls-5" x="592.67" y="270.66" width="97.07" height="24.27"/>
            <rect class="cls-5" x="625.02" y="270.66" width="32.36" height="6.47"/>
            <rect class="cls-5" x="476.19" y="205.95" width="48.53" height="88.98"/>
            <rect class="cls-5" x="524.72" y="205.95" width="48.53" height="88.98"/>
            <rect class="cls-5" x="518.25" y="238.3" width="6.47" height="24.27"/>
            <rect class="cls-5" x="524.72" y="238.3" width="6.47" height="24.27"/>
            <path class="cls-5" d="M619.71,159.13v-4.25H604.55v4.25a7,7,0,0,0-3.72,6.14v16.15a3.5,3.5,0,0,0,3.5,3.5h15.6a3.5,3.5,0,0,0,3.5-3.5V165.27A7,7,0,0,0,619.71,159.13Z"/>
            <rect class="cls-7" x="602.8" y="150.79" width="18.67" height="4.08"/>
            <rect class="cls-5" x="613.51" y="166.69" width="9.92" height="9.92"/>
            <rect class="cls-5" x="575.38" y="160.25" width="15.17" height="24.67"/>
            <rect class="cls-7" x="573.63" y="156.17" width="18.67" height="4.08"/>
            <rect class="cls-8" x="105.56" y="17.5" width="105" height="121.04"/>
            <rect class="cls-9" x="114.31" y="26.25" width="87.5" height="47.4"/>
            <rect class="cls-9" x="114.31" y="82.4" width="87.5" height="47.4"/>
            <rect class="cls-8" x="117.96" y="87.5" width="16.04" height="42.29"/>
            <circle class="cls-8" cx="125.98" cy="121.04" r="2.92"/>
            <line class="cls-10" x1="125.98" y1="93.33" x2="125.98" y2="112.29"/>
            <rect class="cls-8" x="134" y="87.5" width="16.04" height="42.29"/>
            <circle class="cls-8" cx="142.02" cy="121.04" r="2.92"/>
            <line class="cls-10" x1="142.02" y1="93.33" x2="142.02" y2="112.29"/>
            <rect class="cls-8" x="150.04" y="87.5" width="16.04" height="42.29"/>
            <circle class="cls-8" cx="158.06" cy="121.04" r="2.92"/>
            <line class="cls-10" x1="158.06" y1="93.33" x2="158.06" y2="112.29"/>
            <rect class="cls-8" x="166.08" y="87.5" width="16.04" height="42.29"/>
            <circle class="cls-8" cx="174.1" cy="121.04" r="2.92"/>
            <line class="cls-10" x1="174.1" y1="93.33" x2="174.1" y2="112.29"/>
            <rect class="cls-8" x="182.12" y="87.5" width="16.04" height="42.29"/>
            <circle class="cls-8" cx="190.15" cy="121.04" r="2.92"/>
            <line class="cls-10" x1="190.15" y1="93.33" x2="190.15" y2="112.29"/>
            <rect class="cls-8" x="0.56" y="17.5" width="105" height="121.04"/>
            <rect class="cls-9" x="9.31" y="26.25" width="87.5" height="47.4"/>
            <rect class="cls-9" x="9.31" y="82.4" width="87.5" height="47.4"/>
            <path class="cls-8" d="M66.59,47.86V43.6H51.43v4.26A7,7,0,0,0,47.71,54V70.15a3.5,3.5,0,0,0,3.5,3.5h15.6a3.5,3.5,0,0,0,3.5-3.5V54A7,7,0,0,0,66.59,47.86Z"/>
            <rect class="cls-8" x="49.68" y="36.6" width="18.67" height="7"/>
            <rect class="cls-8" x="56.02" y="55.42" width="14.29" height="9.92"/>
            <rect class="cls-8" x="22.26" y="48.98" width="15.17" height="24.67"/>
            <rect class="cls-9" x="20.51" y="44.89" width="18.67" height="4.08"/>
            <path class="cls-8" d="M131.64,40.56V36.31H146.8v4.25a7,7,0,0,1,3.72,6.15V70.15a3.5,3.5,0,0,1-3.5,3.5h-15.6a3.5,3.5,0,0,1-3.5-3.5V46.71A7,7,0,0,1,131.64,40.56Z"/>
            <rect class="cls-9" x="129.89" y="32.23" width="18.67" height="4.08" transform="translate(278.44 68.54) rotate(180)"/>
            <rect class="cls-8" x="127.92" y="48.12" width="9.92" height="17.21" transform="translate(265.76 113.46) rotate(180)"/>
            <rect class="cls-8" x="179.76" y="48.98" width="15.17" height="24.67"/>
            <rect class="cls-8" x="178.01" y="39.06" width="18.67" height="9.92"/>
            <rect class="cls-8" x="162.26" y="40.23" width="10.79" height="33.42"/>
            <rect class="cls-8" x="161.97" y="33.23" width="11.37" height="7"/>
            <path class="cls-8" d="M63.68,104V96.83H33.93V104a7,7,0,0,0-3.72,6.15v16.14a3.5,3.5,0,0,0,3.5,3.5H63.89a3.5,3.5,0,0,0,3.5-3.5V110.15A7,7,0,0,0,63.68,104Z"/>
            <rect class="cls-8" x="32.18" y="89.83" width="33.25" height="7"/>
            <circle class="cls-8" cx="56.1" cy="120.6" r="3.65"/>
            <circle class="cls-8" cx="48.8" cy="120.6" r="3.65"/>
            <circle class="cls-8" cx="41.51" cy="120.6" r="3.65"/>
            <circle class="cls-8" cx="41.51" cy="113.31" r="3.65"/>
            <circle class="cls-8" cx="48.8" cy="113.31" r="3.65"/>
            <circle class="cls-8" cx="56.1" cy="113.31" r="3.65"/>
            <circle class="cls-8" cx="45.16" cy="106.02" r="3.65"/>
            <circle class="cls-8" cx="52.45" cy="106.02" r="3.65"/>
            <circle class="cls-11" cx="532.18" cy="61.84" r="35.4"/>
            <circle class="cls-9" cx="532.18" cy="58.03" r="35.4"/>
            <circle class="cls-12" cx="532.18" cy="58.03" r="25.95"/>
            <circle class="cls-8" cx="532.18" cy="58.03" r="3.45"/>
            <circle class="cls-13" cx="532.18" cy="40.89" r="2.22"/>
            <circle class="cls-13" cx="532.18" cy="75.18" r="2.22"/>
            <circle class="cls-13" cx="549.33" cy="58.03" r="2.22"/>
            <circle class="cls-13" cx="515.04" cy="58.03" r="2.22"/>
            <circle class="cls-13" cx="544.31" cy="45.91" r="2.22"/>
            <circle class="cls-13" cx="520.06" cy="70.16" r="2.22"/>
            <circle class="cls-13" cx="544.31" cy="70.16" r="2.22"/>
            <circle class="cls-13" cx="520.06" cy="45.91" r="2.22"/>
        </g>
    </g>
    <path class="cls-14" d="M121.12,223.83c1.67-23.27,1.53-41.75-2.81-64.34-2.85-14.85-7-29.43-7.67-44.73a97.64,97.64,0,0,1,10.72-49.29c1.14-2.13,2.74-4.44,4.75-4.2,2.89.35,3.58,5.24,3.49,8.94l-.49,20.33c2.27-4.4,6.3-7.25,10.42-7.37a3.53,3.53,0,0,1,2.7.84c1.83,1.81.88,5.52-.23,8.16l-10.11,24.2c1.84-2.6,5.45.63,5.38,4.1s-2.14,6.28-3.79,9.08c-4.43,7.5-6.46,16.81-7.78,26-3.49,24.17.1,48.69.84,73.16Z"/>
    <path class="cls-14" d="M165.86,135.65c-3.22,7.77-17.31,20.53-18.36,27.35a19.76,19.76,0,0,1,10.73-5.38,2,2,0,0,1,2.46,2c-.23,5.2-10,9.27-14.48,13.25,2.27-.76,4.67-1.52,6.78-.81a5,5,0,0,1,2.84,6.18,9.24,9.24,0,0,1-3.09,3.9c-5.05,4.29-10.26,8.41-14.69,13.69a60.47,60.47,0,0,0-13.39,41.28c-2.56-19.21-.65-43.56,3.69-60.57a77.2,77.2,0,0,1,5-14.47c4.31-8.91,9-17.43,15.85-23.69A37.45,37.45,0,0,1,161.41,131,3.54,3.54,0,0,1,165.86,135.65Z"/>
    <path class="cls-14" d="M68.3,118.16c4.33,9.13,21.54,23.34,23.31,31.5a22.13,22.13,0,0,0-12.76-5.56,2.32,2.32,0,0,0-2.66,2.66c.7,6.27,12.22,10.35,17.71,14.78-2.67-.72-5.48-1.44-7.85-.39s-4,4.53-2.74,7.74a10.86,10.86,0,0,0,3.86,4.44c6.15,4.76,12.46,9.29,18,15.3,11.48,12.5,18.69,31.28,18.76,48.81,1.36-23.49-2.83-52.8-9.21-73a96.38,96.38,0,0,0-6.86-17.09C102.15,136.91,96,127,87.7,120A42.33,42.33,0,0,0,73,112.1C69.62,111.17,66.73,114.84,68.3,118.16Z"/>
    <path class="cls-15" d="M153.6,206.52H91.27L86.2,230.37a124.32,124.32,0,0,0,0,52l3.69,17.34c.79,3.75,5.25,6.51,10.48,6.51H144.5c5.23,0,9.69-2.76,10.48-6.51l3.69-17.34a124.32,124.32,0,0,0,0-52Z"/>
    <path class="cls-16" d="M319.81,143s0-46.23,0-46.35a27,27,0,0,1,54,.12V143Z"/>
    <path class="cls-17" d="M448.13,141.23a6.33,6.33,0,0,0-8.56.44,50.31,50.31,0,0,1-47.83,13,17.54,17.54,0,0,1-11.42-9.48,24.47,24.47,0,0,0-22.07-13.88H335.34a24.5,24.5,0,0,0-24.5,24.5v35.29H370.5V161.72a1.74,1.74,0,0,1,2.6-1.52,62.63,62.63,0,0,0,75.31-10A6.12,6.12,0,0,0,448.13,141.23Z"/>
    <path class="cls-18" d="M355.34,135s-.1,6.94-8.6,6.94-8.49-6.94-8.49-6.94V120.71h17.09Z"/>
    <path class="cls-18" d="M364.38,100.89v7.46a17.59,17.59,0,0,1-35.17-.07v-7.39c0-11.52,17.42-12.09,17.42-18.33C346.63,88.8,364.38,90.07,364.38,100.89Z"/>
    <path class="cls-19" d="M351.14,114.06a4.63,4.63,0,1,1-9.25,0Z"/>
    <polyline class="cls-20" points="348.69 103.54 348.69 108.68 344.8 108.68"/>
    <circle class="cls-19" cx="355.69" cy="103.27" r="2.05"/>
    <circle class="cls-19" cx="338.34" cy="103.27" r="2.05"/>
    <path class="cls-18" d="M452.45,133.77a4.82,4.82,0,0,1,1.42-2.87l6.3-6.3c1.68-1.67,4.15-1.92,5.51-.56a3.15,3.15,0,0,1,.86,2.64,4.76,4.76,0,0,1-1.42,2.87l-6.3,6.3c-1.67,1.68-4.15,1.93-5.51.56A3.17,3.17,0,0,1,452.45,133.77Z"/>
    <polygon class="cls-21" points="429.42 152.54 398.38 134.62 398.38 98.77 429.42 80.85 460.46 98.77 460.46 134.62 429.42 152.54"/>
    <path class="cls-22" d="M443.69,116l.9-13.1-7.11,5.89a15.11,15.11,0,0,0-16.05.26L414,102.88l.9,13.1s-.41,3.68-.41,5.78c0,8.38,11.94,12.25,15.18,12.25s15.17-3.87,15.17-12.25A27.13,27.13,0,0,0,443.69,116Z"/>
    <polygon class="cls-19" points="433.25 124.04 429.67 127.63 426.08 124.04 433.25 124.04"/>
    <path class="cls-21" d="M426.47,119.19a3.67,3.67,0,0,0-5.17,0"/>
    <path class="cls-21" d="M437.43,119.19a3.67,3.67,0,0,0-5.17,0"/>
    <line id="line0" class="cls-20" x1="429.42" y1="63.76" x2="429.42" y2="44.51"/>
    <line id="line1" class="cls-20" x1="466.85" y1="79.26" x2="480.47" y2="65.65"/>
    <line id="line2" class="cls-20" x1="378.38" y1="65.65" x2="391.99" y2="79.26"/>
    <line id="line3" class="cls-20" x1="412.27" y1="75.29" x2="411.14" y2="72.55"/>
    <line id="line4" class="cls-20" x1="407.17" y1="62.97" x2="406.03" y2="60.23"/>
    <line id="line5" class="cls-20" x1="470.83" y1="99.54" x2="473.57" y2="98.41"/>
    <line id="line6" class="cls-20" x1="483.15" y1="94.44" x2="485.89" y2="93.31"/>
    <line id="line7" class="cls-20" x1="446.57" y1="75.29" x2="447.71" y2="72.55"/>
    <line id="line8" class="cls-20" x1="451.68" y1="62.97" x2="452.81" y2="60.23"/>
    <path class="cls-18" d="M459.33,141a4.83,4.83,0,0,1-2.87-1.43l-6.3-6.29c-1.67-1.68-1.93-4.15-.56-5.52a3.21,3.21,0,0,1,2.64-.86,4.78,4.78,0,0,1,2.87,1.43l6.3,6.29c1.67,1.68,1.93,4.15.56,5.52A3.21,3.21,0,0,1,459.33,141Z"/>
    <path class="cls-18" d="M454.38,145.94a4.83,4.83,0,0,1-2.87-1.43l-6.3-6.29c-1.67-1.68-1.93-4.15-.56-5.52a3.21,3.21,0,0,1,2.64-.86,4.78,4.78,0,0,1,2.87,1.43l6.3,6.29c1.67,1.68,1.93,4.15.56,5.52A3.21,3.21,0,0,1,454.38,145.94Z"/>
    <path class="cls-18" d="M449.43,150.89a4.83,4.83,0,0,1-2.87-1.43l-6.3-6.29c-1.67-1.68-1.93-4.15-.56-5.52a3.21,3.21,0,0,1,2.64-.86,4.78,4.78,0,0,1,2.87,1.43l6.3,6.29c1.67,1.68,1.93,4.15.56,5.52A3.21,3.21,0,0,1,449.43,150.89Z"/>
    <line class="cls-20" x1="323.09" y1="191.05" x2="323.09" y2="167.43"/>
    <line class="cls-20" x1="370.5" y1="191.05" x2="370.5" y2="167.43"/>
    <path class="cls-19" d="M356.5,164.31l-2.93-1.19a4.52,4.52,0,0,0-8.05-1.44h0a6.3,6.3,0,0,1-8.82,1.34,9.48,9.48,0,0,0,9.48,9.48,7.57,7.57,0,0,0,7.55-7.05Z"/>
    <path class="cls-17" d="M323.71,93.15a4.79,4.79,0,0,1-2.88-1.42L319,89.91c-1.68-1.68-1.93-4.15-.56-5.52a3.21,3.21,0,0,1,2.64-.86A4.78,4.78,0,0,1,324,85l1.82,1.82c1.68,1.68,1.93,4.15.57,5.51A3.18,3.18,0,0,1,323.71,93.15Z"/>
    <path class="cls-23" d="M602.15,245.91l-8.26-29.78c-1.19-4.29-5.53-7.3-10.5-7.3H535.45c-5,0-9.32,3-10.5,7.3l-8.27,29.78a5.33,5.33,0,0,1-5.25,3.65h-1.58a2.56,2.56,0,0,0-2.71,2.39v5.59H611.69V252a2.56,2.56,0,0,0-2.7-2.39h-1.58A5.34,5.34,0,0,1,602.15,245.91Z"/>
    <path class="cls-21" d="M516.68,269.17,525,299c1.18,4.28,5.52,7.29,10.5,7.29h47.94c5,0,9.31-3,10.5-7.29l8.26-29.79a5.34,5.34,0,0,1,5.26-3.64H609a2.57,2.57,0,0,0,2.7-2.4v-5.59H507.14v5.59a2.57,2.57,0,0,0,2.71,2.4h1.58A5.32,5.32,0,0,1,516.68,269.17Z"/>
    <rect class="cls-24" x="534.92" y="222.54" width="49" height="70" rx="4" ry="4"/>
    <path class="cls-23" d="M574,208.83h-6.38v-7.51a1.06,1.06,0,0,0-1.07-1.06H552.28a1.05,1.05,0,0,0-1.06,1.06v7.51h-6.38v-7.51a7.45,7.45,0,0,1,7.44-7.44h14.27a7.45,7.45,0,0,1,7.45,7.44Z"/>
    <path class="cls-25" d="M583.92,264h5.76a1.06,1.06,0,0,0,1.06-1.06V252.16a1.06,1.06,0,0,0-1.06-1.07h-5.76Z"/>
    <line class="cls-20" x1="544.72" y1="222.54" x2="544.72" y2="292.54"/>
    <line class="cls-20" x1="554.52" y1="222.54" x2="554.52" y2="292.54"/>
    <line class="cls-20" x1="564.32" y1="222.54" x2="564.32" y2="292.54"/>
    <line class="cls-20" x1="574.12" y1="222.54" x2="574.12" y2="292.54"/>
    <line class="cls-20" x1="534.92" y1="234.21" x2="583.92" y2="234.21"/>
    <line class="cls-20" x1="534.92" y1="245.88" x2="583.92" y2="245.88"/>
    <line class="cls-20" x1="534.92" y1="257.54" x2="583.92" y2="257.54"/>
    <line class="cls-20" x1="534.92" y1="269.21" x2="583.92" y2="269.21"/>
    <line class="cls-20" x1="534.92" y1="280.87" x2="583.92" y2="280.87"/>
    <rect class="cls-21" x="180.74" y="197.12" width="338.51" height="109.13"/>
    <rect class="cls-21" x="177.69" y="184.92" width="344.62" height="12.21"/>
    <rect class="cls-26" x="180.74" y="197.12" width="338.51" height="3.05"/>
    <line class="cls-20" x1="365.26" y1="221.17" x2="325.08" y2="261.35"/>
    <line class="cls-20" x1="380.51" y1="221.17" x2="319.49" y2="282.2"/>
    <line class="cls-20" x1="374.41" y1="242.53" x2="334.74" y2="282.2"/>
    <path class="cls-18" d="M605.78,301.49a4.55,4.55,0,0,0-6.34-1.14c-11.41,7.92-16.89,2.4-26-6.73-7.73-7.77-18.11-18.19-32.8-10.2a19.57,19.57,0,0,0-14.93-6.9,36.83,36.83,0,0,0-4.37.48l-39.1,9.71v13.7H451a5.59,5.59,0,0,0,0,11.18h84.8a5.61,5.61,0,0,0,5.6-5.59c0-.07,0-.14,0-.2,2.46-2.14,3.92-5.25,3.92-9.67a19.31,19.31,0,0,0-.55-4.6c8.38-4.72,13.6-.15,22.22,8.52,6.16,6.19,13.14,13.2,22.64,13.2h0c4.83,0,9.73-1.78,15-5.43a4.55,4.55,0,0,0,1.14-6.33Z"/>
    <path class="cls-20" d="M531.69,300.41H519.51a5.61,5.61,0,0,0-5.6,5.59h0a5.61,5.61,0,0,0,5.6,5.59"/>
    <path class="cls-20" d="M509.16,294.81a5.61,5.61,0,0,1-5.59,5.6h-3.1a5.61,5.61,0,0,0-5.6,5.59h0a5.61,5.61,0,0,0,5.6,5.59"/>
    <path class="cls-18" d="M493.1,284l1-14.84-8.07,6.68a17,17,0,0,0-18.17.29l-8.42-7,1,14.84s-.47,4.17-.47,6.56c0,9.49,13.53,13.88,17.19,13.88s17.19-4.39,17.19-13.88A31.06,31.06,0,0,0,493.1,284Z"/>
    <polygon class="cls-19" points="481.26 293.16 477.2 297.22 473.14 293.16 481.26 293.16"/>
    <path class="cls-21" d="M473.58,286.45a4.13,4.13,0,0,1-5.85,0"/>
    <path class="cls-21" d="M486,286.45a4.14,4.14,0,0,1-5.86,0"/>
    <line class="cls-21" x1="228.54" y1="84.03" x2="228.54" y2="98.29"/>
    <line class="cls-21" x1="235.47" y1="84.03" x2="235.47" y2="98.29"/>
    <path class="cls-27" d="M250.75,69.11a11.36,11.36,0,0,0-20.61-6.59l-.09,0a15.8,15.8,0,0,1-22.11,3.37,23.79,23.79,0,0,0,23.78,23.79,19,19,0,0,0,19-19l-.11,0A10.17,10.17,0,0,0,250.75,69.11Z"/>
    <polygon class="cls-21" points="257.71 69.11 248.98 72.64 245.45 69.11 248.98 65.58 257.71 69.11"/>
    <circle class="cls-19" cx="242.8" cy="64.36" r="1.64"/>
    <rect class="cls-28" x="179" y="98.29" width="107.66" height="66.1"/>
    <path class="cls-26" d="M252.13,178.66l-6.91-50.83H220.43l-6.92,50.83h-12v6.26h61.09v-6.26Zm-19.31-28.79a6,6,0,1,1,6-6A6,6,0,0,1,232.82,149.87Z"/>
    <path class="cls-29" d="M217.76,245.85c1.05-1,2.13-2,3.28-3a41.92,41.92,0,0,0,6-7.44,4.36,4.36,0,0,0,.09-4.59,14.71,14.71,0,0,0-1.43-2,4,4,0,0,0-5.06-.73c-3.48,2-5.83,4.13-11,3.94a34,34,0,0,0-5.95-.22Z"/>
    <path class="cls-29" d="M206.93,301.9H188.36c2.42-8.16,4.09-16.1,7.23-24.27l-20.81-20.8c-11.07,9.85-26.81,16.47-39.38,13.05a68.35,68.35,0,0,0-17.24-2.77c-9.55-.09-19.71,7-21.7,16.39a20.66,20.66,0,0,0-.3,7,3.46,3.46,0,0,1-2.49,3.79A19.17,19.17,0,0,1,69.59,275.8a21.67,21.67,0,0,1,1.55-7.16,20.52,20.52,0,0,0,0,29A25.64,25.64,0,0,0,99,303.26a4.33,4.33,0,0,1,3,0,5.94,5.94,0,0,1-.24,1.44L100.58,308a3.9,3.9,0,0,0,3.67,5.21h39.32a3.26,3.26,0,0,0,3.24-3.37,6.27,6.27,0,0,0-.13-1.06h24.25a8.14,8.14,0,0,0,7.22,4.43h33.78a3.18,3.18,0,0,0,3.18-3.18A8.17,8.17,0,0,0,206.93,301.9Z"/>
    <path class="cls-25" d="M217.76,245.85c1.05-1,2.13-2,3.28-3a41.92,41.92,0,0,0,6-7.44,4.36,4.36,0,0,0,.09-4.59,14.71,14.71,0,0,0-1.43-2,4,4,0,0,0-5.06-.73c-3.48,2-5.83,4.13-11,3.94a34,34,0,0,0-5.95-.22Z"/>
    <path class="cls-29" d="M206.93,301.9H188.36c2.42-8.16,4.09-16.1,7.23-24.27l-20.81-20.8c-11.07,9.85-26.81,16.47-39.38,13.05a68.35,68.35,0,0,0-17.24-2.77c-9.55-.09-19.71,7-21.7,16.39a20.66,20.66,0,0,0-.3,7,3.46,3.46,0,0,1-2.49,3.79A19.17,19.17,0,0,1,69.59,275.8a21.67,21.67,0,0,1,1.55-7.16,20.52,20.52,0,0,0,0,29A25.64,25.64,0,0,0,99,303.26a4.33,4.33,0,0,1,3,0,5.94,5.94,0,0,1-.24,1.44L100.58,308a3.9,3.9,0,0,0,3.67,5.21h39.32a3.26,3.26,0,0,0,3.24-3.37,6.27,6.27,0,0,0-.13-1.06h24.25a8.14,8.14,0,0,0,7.22,4.43h33.78a3.18,3.18,0,0,0,3.18-3.18A8.17,8.17,0,0,0,206.93,301.9Z"/>
    <path class="cls-20" d="M104.25,313.25h39.32a3.26,3.26,0,0,0,3.24-3.37,8.17,8.17,0,0,0-8.17-8h-9.59a15.4,15.4,0,0,0,1.66-12.7,15.64,15.64,0,0,0-6.13-8.35"/>
    <path class="cls-20" d="M183.94,301.9h23a8.17,8.17,0,0,1,8.18,8.17h0a3.18,3.18,0,0,1-3.18,3.18H178.15a8.17,8.17,0,0,1-8.17-8.17V301.9"/>
    <polygon class="cls-23" points="198.19 280.23 172.35 254.4 192.31 220.4 232.18 260.27 198.19 280.23"/>
    <path class="cls-23" d="M495.76,154.75V150.5H480.59v4.25a7,7,0,0,0-3.71,6.15v20.52a3.5,3.5,0,0,0,3.49,3.5H496a3.5,3.5,0,0,0,3.5-3.5V160.9A7,7,0,0,0,495.76,154.75Z"/>
    <rect class="cls-21" x="478.84" y="143.5" width="18.67" height="7"/>
    <rect class="cls-21" x="489.55" y="162.31" width="9.92" height="14.29"/>
    <circle class="cls-30" cx="373.33" cy="298.67" r="14.58"/>
    <ellipse class="cls-30" cx="373.33" cy="298.67" rx="7.29" ry="14.58"/>
    <ellipse class="cls-31" cx="373.33" cy="298.67" rx="14.58" ry="7.29" transform="translate(-101.84 351.46) rotate(-45)"/>
    <line class="cls-31" x1="373.33" y1="284.08" x2="373.33" y2="313.25"/>
    <line class="cls-31" x1="373.33" y1="284.08" x2="373.33" y2="313.25"/>
    <path class="cls-31" d="M526.46,327.65c-4.53,0-4.53,2.92-9.05,2.92s-4.52-2.92-9-2.92-4.52,2.92-9,2.92-4.51-2.92-9-2.92-4.52,2.92-9,2.92H409.06c-9.26,0-16.77-1.88-16.77-4.2s7.51-4.73,16.77-4.73H412c9.26,0,16.77-1.88,16.77-4.2s-7.51-4.19-16.77-4.19H377"/>
</svg>