<svg id="Layer_1" data-name="Layer 1" 
    xmlns="http://www.w3.org/2000/svg" 
    xmlns:xlink="http://www.w3.org/1999/xlink" viewBox="0 0 700 350">
    <defs>
        <style>.cls-1,.cls-13,.cls-15,.cls-16,.cls-29,.cls-7,.cls-8,.cls-9{fill:none;}.cls-2,.cls-21,.cls-23,.cls-5{fill:#666e95;}.cls-2{opacity:0.3;}.cls-3{opacity:0.4;}.cls-4{clip-path:url(#clip-path);}.cls-5,.cls-6,.cls-7,.cls-8,.cls-9{stroke:#4a4f80;}.cls-13,.cls-15,.cls-16,.cls-19,.cls-21,.cls-22,.cls-23,.cls-24,.cls-25,.cls-26,.cls-27,.cls-28,.cls-29,.cls-32,.cls-5,.cls-6,.cls-7,.cls-8,.cls-9{stroke-linecap:round;}.cls-12,.cls-13,.cls-15,.cls-16,.cls-19,.cls-21,.cls-22,.cls-23,.cls-24,.cls-25,.cls-26,.cls-27,.cls-28,.cls-29,.cls-32,.cls-5,.cls-6,.cls-7,.cls-8,.cls-9{stroke-linejoin:round;}.cls-11,.cls-12,.cls-14,.cls-15,.cls-18,.cls-20,.cls-22,.cls-23,.cls-24,.cls-25,.cls-26,.cls-27,.cls-28,.cls-31,.cls-32,.cls-5,.cls-6,.cls-7{stroke-width:3.5px;}.cls-10,.cls-11,.cls-19,.cls-28,.cls-34,.cls-6{fill:#4a4f80;}.cls-8{stroke-width:3.1px;}.cls-29,.cls-9{stroke-width:2.92px;}.cls-11,.cls-12,.cls-13,.cls-14,.cls-15,.cls-16,.cls-18,.cls-19,.cls-20,.cls-21,.cls-22,.cls-23,.cls-24,.cls-25,.cls-26,.cls-27,.cls-28,.cls-29,.cls-31,.cls-32,.cls-34{stroke:#282c4c;}.cls-11,.cls-14,.cls-18,.cls-20,.cls-31,.cls-34{stroke-miterlimit:10;}.cls-12,.cls-14,.cls-25{fill:#f48667;}.cls-13{stroke-width:3.42px;}.cls-16{stroke-width:3.23px;}.cls-17,.cls-18,.cls-22{fill:#282c4c;}.cls-19{stroke-width:3.32px;}.cls-20,.cls-26{fill:#6cc7be;}.cls-21{stroke-width:2.92px;}.cls-24{fill:#f1717e;}.cls-27,.cls-31{fill:#b5445b;}.cls-30{clip-path:url(#clip-path-2);}.cls-32{fill:#56bcde;}.cls-33{clip-path:url(#clip-path-3);}.cls-34{stroke-width:5.1px;}</style>
        <clipPath id="clip-path">
            <path class="cls-1" d="M664.87,194.44H679.1a19.44,19.44,0,0,0,19.42-20.38c-.49-10.46-9.5-18.5-20-18.5H637.68a19.44,19.44,0,0,1-19.42-20.39c.49-10.46,9.5-18.5,20-18.5h4.31A19.44,19.44,0,0,0,662,96.28c-.49-10.46-9.5-18.5-20-18.5H528.79a19.44,19.44,0,0,1-19.42-20.39c.49-10.45,9.5-18.5,20-18.5h46.12A19.44,19.44,0,0,0,594.88,18.5c-.49-10.45-9.5-18.5-20-18.5H111.22A19.44,19.44,0,0,0,91.8,20.38c.49,10.46,9.5,18.51,20,18.51H137a19.45,19.45,0,0,1,19.42,20.38c-.49,10.46-9.5,18.51-20,18.51H29.07A19.44,19.44,0,0,0,9.65,98.16c.49,10.46,9.5,18.51,20,18.51H89.35a19.44,19.44,0,0,1,19.32,21.61c-1.07,9.95-9.87,17.28-19.87,17.28H20.9A19.44,19.44,0,0,0,1.48,175.94c.49,10.46,9.5,18.5,20,18.5H48a19.44,19.44,0,0,1,19.42,20.39c-.49,10.46-9.5,18.5-20,18.5H34.9a19.44,19.44,0,0,0-19.42,20.39c.49,10.46,9.5,18.5,20,18.5H91.29a19.44,19.44,0,0,1,19.42,20.39c-.49,10.45-9.5,18.5-20,18.5H73.79A19.44,19.44,0,0,0,54.37,331.5c.49,10.45,9.5,18.5,20,18.5H620.67a19.45,19.45,0,0,0,19.42-20.38c-.49-10.46-9.5-18.51-20-18.51h-5.29a19.45,19.45,0,0,1-19.42-20.38c.49-10.46,9.5-18.51,20-18.51h52.93a19.45,19.45,0,0,0,19.42-20.38c-.49-10.46-9.5-18.51-20-18.51h-3.44A19.44,19.44,0,0,1,644.9,213C645.39,202.49,654.4,194.44,664.87,194.44Z"/>
        </clipPath>
        <clipPath id="clip-path-2">
            <rect class="cls-1" width="700" height="350"/>
        </clipPath>
        <clipPath id="clip-path-3">
            <rect class="cls-1" x="800" width="700" height="350"/>
        </clipPath>
    </defs>
    <title>badgr_automate</title>
    <rect class="cls-1" width="700" height="350"/>
    <path class="cls-2" d="M664.87,194.44H679.1a19.44,19.44,0,0,0,19.42-20.38c-.49-10.46-9.5-18.5-20-18.5H637.68a19.44,19.44,0,0,1-19.42-20.39c.49-10.46,9.5-18.5,20-18.5h4.31A19.44,19.44,0,0,0,662,96.28c-.49-10.46-9.5-18.5-20-18.5H528.79a19.44,19.44,0,0,1-19.42-20.39c.49-10.45,9.5-18.5,20-18.5h46.12A19.44,19.44,0,0,0,594.88,18.5c-.49-10.45-9.5-18.5-20-18.5H111.22A19.44,19.44,0,0,0,91.8,20.38c.49,10.46,9.5,18.51,20,18.51H137a19.45,19.45,0,0,1,19.42,20.38c-.49,10.46-9.5,18.51-20,18.51H29.07A19.44,19.44,0,0,0,9.65,98.16c.49,10.46,9.5,18.51,20,18.51H89.35a19.44,19.44,0,0,1,19.32,21.61c-1.07,9.95-9.87,17.28-19.87,17.28H20.9A19.44,19.44,0,0,0,1.48,175.94c.49,10.46,9.5,18.5,20,18.5H48a19.44,19.44,0,0,1,19.42,20.39c-.49,10.46-9.5,18.5-20,18.5H34.9a19.44,19.44,0,0,0-19.42,20.39c.49,10.46,9.5,18.5,20,18.5H91.29a19.44,19.44,0,0,1,19.42,20.39c-.49,10.45-9.5,18.5-20,18.5H73.79A19.44,19.44,0,0,0,54.37,331.5c.49,10.45,9.5,18.5,20,18.5H620.67a19.45,19.45,0,0,0,19.42-20.38c-.49-10.46-9.5-18.51-20-18.51h-5.29a19.45,19.45,0,0,1-19.42-20.38c.49-10.46,9.5-18.51,20-18.51h52.93a19.45,19.45,0,0,0,19.42-20.38c-.49-10.46-9.5-18.51-20-18.51h-3.44A19.44,19.44,0,0,1,644.9,213C645.39,202.49,654.4,194.44,664.87,194.44Z"/>
    <g class="cls-3">
        <g class="cls-4">
            <rect class="cls-5" x="249.38" y="14.15" width="201.25" height="292.1"/>
            <rect class="cls-6" x="263.96" y="28.73" width="172.08" height="277.52"/>
            <rect class="cls-5" x="121.04" y="28.73" width="106.46" height="96.68"/>
            <rect class="cls-5" x="135.63" y="43.32" width="77.29" height="67.52"/>
            <rect class="cls-5" x="-7.29" y="28.73" width="106.46" height="96.68"/>
            <rect class="cls-5" x="7.29" y="43.32" width="77.29" height="67.52"/>
            <rect class="cls-5" x="600.83" y="28.73" width="106.46" height="96.68"/>
            <rect class="cls-5" x="615.42" y="43.32" width="77.29" height="67.52"/>
            <rect class="cls-5" x="472.5" y="28.73" width="106.46" height="96.68"/>
            <rect class="cls-5" x="487.08" y="43.32" width="77.29" height="67.52"/>
            <line class="cls-7" x1="135.63" y1="43.32" x2="121.04" y2="28.73"/>
            <line class="cls-7" x1="212.92" y1="43.32" x2="227.5" y2="28.73"/>
            <line class="cls-7" x1="135.63" y1="110.83" x2="121.04" y2="125.42"/>
            <line class="cls-7" x1="212.92" y1="110.83" x2="227.5" y2="125.42"/>
            <line class="cls-7" x1="615.42" y1="43.32" x2="600.83" y2="28.73"/>
            <line class="cls-7" x1="692.71" y1="43.32" x2="707.29" y2="28.73"/>
            <line class="cls-7" x1="615.42" y1="110.83" x2="600.83" y2="125.42"/>
            <line class="cls-7" x1="692.71" y1="110.83" x2="707.29" y2="125.42"/>
            <line class="cls-7" x1="487.08" y1="43.32" x2="472.5" y2="28.73"/>
            <line class="cls-7" x1="564.38" y1="43.32" x2="578.96" y2="28.73"/>
            <line class="cls-7" x1="487.08" y1="110.83" x2="472.5" y2="125.42"/>
            <line class="cls-7" x1="564.38" y1="110.83" x2="578.96" y2="125.42"/>
            <line class="cls-7" x1="7.29" y1="43.32" x2="-7.29" y2="28.73"/>
            <line class="cls-7" x1="84.58" y1="43.32" x2="99.17" y2="28.73"/>
            <line class="cls-7" x1="7.29" y1="110.83" x2="-7.29" y2="125.42"/>
            <line class="cls-7" x1="84.58" y1="110.83" x2="99.17" y2="125.42"/>
            <path class="cls-5" d="M256.17,30.54V68a666.53,666.53,0,0,0,187.66,0V30.54A666.53,666.53,0,0,1,256.17,30.54Zm11.37,17.22a4.91,4.91,0,0,1-4.12-4.71,3.52,3.52,0,0,1,4.12-3.56,4.88,4.88,0,0,1,4.12,4.68A3.54,3.54,0,0,1,267.54,47.76Zm164.92,0a3.54,3.54,0,0,1-4.12-3.59,4.88,4.88,0,0,1,4.12-4.68,3.52,3.52,0,0,1,4.12,3.56A4.91,4.91,0,0,1,432.46,47.76Z"/>
            <path class="cls-8" d="M432.57,29.12V41.76"/>
            <path class="cls-8" d="M267.54,29.14V41.77"/>
            <path class="cls-9" d="M434.44,31.36A7.92,7.92,0,0,1,427,28.5a7.13,7.13,0,0,1,.25-8.2,2.59,2.59,0,0,1,.81-.74c.92-.45,1.82.27,2.33,1,2.14,3.16,2.15,7.47,2.08,11.54a79.14,79.14,0,0,1,3.41-17.6,19.91,19.91,0,0,1,2.38-5,2.76,2.76,0,0,1,1.32-1.17,1.41,1.41,0,0,1,1.61.73,4,4,0,0,1,.34,1.93,29.32,29.32,0,0,1-7.75,19.27l-.45,1"/>
            <path class="cls-9" d="M265.56,31.36A7.92,7.92,0,0,0,273,28.5a7.13,7.13,0,0,0-.25-8.2,2.48,2.48,0,0,0-.81-.74c-.92-.45-1.82.27-2.33,1-2.14,3.16-2.15,7.47-2.08,11.54a79.14,79.14,0,0,0-3.41-17.6,19.91,19.91,0,0,0-2.38-5,2.76,2.76,0,0,0-1.32-1.17,1.41,1.41,0,0,0-1.61.73,4,4,0,0,0-.34,1.93,29.32,29.32,0,0,0,7.75,19.27l.45,1"/>
            <path class="cls-10" d="M298.63,58.66a1.21,1.21,0,0,1-1.33,1.23A1.51,1.51,0,0,1,296,58.74l-.12-.52L293.16,58c0,.19-.06.29-.11.48a1.18,1.18,0,0,1-1.3.93,1.5,1.5,0,0,1-1.32-1.47,1.44,1.44,0,0,1,.05-.37c.78-2.63,1.18-3.94,2-6.56a2,2,0,0,1,2.09-1.35,2.48,2.48,0,0,1,2.09,1.73l1.95,6.92A1,1,0,0,1,298.63,58.66Zm-3.28-2.84c-.33-1.45-.49-2.18-.82-3.64-.33,1.4-.49,2.1-.83,3.49Z"/>
            <path class="cls-10" d="M305.07,59.1l-.7-4.06c-.29,1.58-.43,2.37-.72,4A1.55,1.55,0,0,1,302,60.28a1.91,1.91,0,0,1-1.65-1.45l-1.62-7.07a1.39,1.39,0,0,1,0-.35,1.27,1.27,0,0,1,1.4-1.3,1.56,1.56,0,0,1,1.37,1.28c.3,1.86.45,2.79.74,4.65l1-4.7a1.12,1.12,0,0,1,1.21-.89,1.36,1.36,0,0,1,1.21,1.08c.38,1.93.58,2.9,1,4.83.29-1.81.44-2.71.73-4.52a1.31,1.31,0,0,1,1.39-1.09,1.53,1.53,0,0,1,1.38,1.5,1.55,1.55,0,0,1,0,.37l-1.6,6.82a1.56,1.56,0,0,1-1.65,1.19A1.87,1.87,0,0,1,305.07,59.1Z"/>
            <path class="cls-10" d="M318.31,60A1.25,1.25,0,0,1,317,61.27a1.43,1.43,0,0,1-1.29-1.1l-.12-.52-2.73-.16-.12.49a1.23,1.23,0,0,1-1.3,1,1.45,1.45,0,0,1-1.33-1.43,1.43,1.43,0,0,1,.06-.37c.78-2.65,1.18-4,2-6.63a2.06,2.06,0,0,1,2.1-1.42,2.37,2.37,0,0,1,2.09,1.67c.78,2.74,1.17,4.11,2,6.85A1.23,1.23,0,0,1,318.31,60ZM315,57.27c-.33-1.44-.49-2.17-.82-3.61-.33,1.4-.5,2.11-.83,3.52Z"/>
            <path class="cls-10" d="M326.75,60.3a1.33,1.33,0,0,1-1.39,1.37,1.46,1.46,0,0,1-1.2-.79l-1.47-2.65-.73,0v1.93a1.32,1.32,0,0,1-1.38,1.33A1.48,1.48,0,0,1,319.2,60V53a1.23,1.23,0,0,1,1.46-1.38l2.83.13a3.27,3.27,0,0,1,3.27,3.37,2.94,2.94,0,0,1-1.3,2.68c.44.74.65,1.11,1.08,1.85A1.18,1.18,0,0,1,326.75,60.3ZM322,55.85l1.09,0A.83.83,0,0,0,324,55a.92.92,0,0,0-.91-1L322,54Z"/>
            <path class="cls-10" d="M327.88,60.15V53.36A1.26,1.26,0,0,1,329.34,52l2.22.07c2.87.09,4.56,2.06,4.56,5s-1.68,4.83-4.54,4.75l-2.24-.08A1.37,1.37,0,0,1,327.88,60.15Zm3.68-.81c1.08,0,1.76-.87,1.76-2.41s-.62-2.47-1.76-2.5l-.92,0v4.91Z"/>
            <path class="cls-10" d="M339.65,57.08c0-3,1.73-5,4.43-5a3.49,3.49,0,0,1,3.07,1.63,1.09,1.09,0,0,1,.25.68,1.23,1.23,0,0,1-1.24,1.24,1.29,1.29,0,0,1-1-.54,1.27,1.27,0,0,0-1.08-.57c-1,0-1.61,1.06-1.61,2.57s.59,2.61,1.61,2.62a1.29,1.29,0,0,0,1.11-.62,1.18,1.18,0,0,1,1-.53,1.22,1.22,0,0,1,1.23,1.21,1.16,1.16,0,0,1-.22.66,3.48,3.48,0,0,1-3.12,1.71C341.38,62.14,339.65,60.06,339.65,57.08Z"/>
            <path class="cls-10" d="M348.43,60.55V53.76a1.31,1.31,0,0,1,1.46-1.46h3.66a1.17,1.17,0,0,1,1.17,1.16,1.19,1.19,0,0,1-1.17,1.19h-2.36v1.28h2.25a1.16,1.16,0,0,1,1.17,1.16,1.18,1.18,0,0,1-1.17,1.19h-2.25v1.4h2.36a1.15,1.15,0,0,1,1.17,1.15A1.18,1.18,0,0,1,353.55,62h-3.66A1.32,1.32,0,0,1,348.43,60.55Z"/>
            <path class="cls-10" d="M363.31,60.6a1.41,1.41,0,0,1-1.38,1.45,1.36,1.36,0,0,1-1.2-.72l-1.48-2.55h-.73v1.92a1.42,1.42,0,0,1-1.37,1.42,1.38,1.38,0,0,1-1.39-1.39v-7a1.33,1.33,0,0,1,1.46-1.47l2.84,0a3.06,3.06,0,0,1,3.27,3.17,3.19,3.19,0,0,1-1.3,2.77l1.08,1.78A1.05,1.05,0,0,1,363.31,60.6Zm-4.79-4.16,1.1,0a.89.89,0,0,0,.9-.94.85.85,0,0,0-.9-.91l-1.1,0Z"/>
            <path class="cls-10" d="M364.44,60.38V53.59a1.36,1.36,0,0,1,1.47-1.5l3.65-.1a1.12,1.12,0,0,1,1.17,1.12,1.22,1.22,0,0,1-1.17,1.22l-2.35.08v1.28l2.25-.07a1.13,1.13,0,0,1,1.17,1.13A1.23,1.23,0,0,1,369.46,58l-2.25.07v1.39l2.35-.07a1.13,1.13,0,0,1,1.17,1.13,1.22,1.22,0,0,1-1.17,1.22l-3.65.11A1.29,1.29,0,0,1,364.44,60.38Z"/>
            <path class="cls-10" d="M379.21,60.13V55.55c-.67,2.19-1,3.28-1.67,5.46a.83.83,0,0,1-.71.57.74.74,0,0,1-.72-.51l-1.65-5.31v4.56a1.43,1.43,0,0,1-1.34,1.41,1.3,1.3,0,0,1-1.35-1.3V53.82a2.16,2.16,0,0,1,2.06-2.13,1.94,1.94,0,0,1,2,1.39l1,3.43,1-3.55a2.19,2.19,0,0,1,2-1.53,1.94,1.94,0,0,1,2.06,2V60a1.43,1.43,0,0,1-1.34,1.41A1.26,1.26,0,0,1,379.21,60.13Z"/>
            <path class="cls-10" d="M387.29,51c2.72-.17,4.44,1.77,4.44,4.74s-1.72,5.15-4.44,5.32-4.44-1.82-4.44-4.78S384.57,51.17,387.29,51Zm0,2.43c-1.05.07-1.62,1.18-1.62,2.7s.57,2.56,1.62,2.49,1.64-1.19,1.64-2.69S388.34,53.37,387.29,53.43Z"/>
            <path class="cls-10" d="M397.69,59.44c-.91-1.64-1.36-2.46-2.26-4.11V59.1a1.52,1.52,0,0,1-1.38,1.48,1.26,1.26,0,0,1-1.35-1.28V52.37a1.86,1.86,0,0,1,1.69-1.83,1.51,1.51,0,0,1,1.49.82l2.05,3.76V51.64a1.51,1.51,0,0,1,1.36-1.48,1.25,1.25,0,0,1,1.36,1.26v7a1.76,1.76,0,0,1-1.58,1.72A1.41,1.41,0,0,1,397.69,59.44Z"/>
            <path class="cls-10" d="M409.25,51.32c-.92,1.69-1.39,2.53-2.31,4.21v2.58a1.58,1.58,0,0,1-1.39,1.52,1.25,1.25,0,0,1-1.38-1.27V55.78L401.85,52a1.09,1.09,0,0,1-.24-.71,1.48,1.48,0,0,1,1.32-1.44,1.16,1.16,0,0,1,1.16.64l1.45,2.75,1.47-3a1.42,1.42,0,0,1,1.15-.85,1.18,1.18,0,0,1,1.33,1.19A1.25,1.25,0,0,1,409.25,51.32Z"/>
            <line class="cls-7" x1="432.27" y1="43.8" x2="485.5" y2="-9.43"/>
            <line class="cls-7" x1="267.73" y1="43.8" x2="214.5" y2="-9.43"/>
            <rect class="cls-5" x="-3.61" y="197.12" width="10.1" height="109.13"/>
            <rect class="cls-5" x="6.5" y="197.12" width="10.1" height="109.13"/>
            <rect class="cls-5" x="16.6" y="197.12" width="10.1" height="109.13"/>
            <rect class="cls-5" x="26.7" y="197.12" width="10.1" height="109.13"/>
            <rect class="cls-5" x="36.81" y="197.12" width="10.1" height="109.13"/>
            <rect class="cls-5" x="46.91" y="197.12" width="10.1" height="109.13"/>
            <rect class="cls-5" x="57.01" y="197.12" width="10.1" height="109.13"/>
            <rect class="cls-5" x="67.12" y="197.12" width="10.1" height="109.13"/>
            <rect class="cls-5" x="77.22" y="197.12" width="10.1" height="109.13"/>
            <rect class="cls-5" x="87.32" y="197.12" width="10.1" height="109.13"/>
            <rect class="cls-5" x="97.42" y="197.12" width="10.1" height="109.13"/>
            <rect class="cls-5" x="107.53" y="197.12" width="10.1" height="109.13"/>
            <rect class="cls-5" x="117.63" y="197.12" width="10.1" height="109.13"/>
            <rect class="cls-5" x="127.73" y="197.12" width="10.1" height="109.13"/>
            <rect class="cls-5" x="137.84" y="197.12" width="10.1" height="109.13"/>
            <rect class="cls-5" x="147.94" y="197.12" width="10.1" height="109.13"/>
            <rect class="cls-5" x="158.04" y="197.12" width="10.1" height="109.13"/>
            <rect class="cls-5" x="168.15" y="197.12" width="10.1" height="109.13"/>
            <rect class="cls-5" x="178.25" y="197.12" width="10.1" height="109.13"/>
            <rect class="cls-5" x="188.35" y="197.12" width="10.1" height="109.13"/>
            <rect class="cls-5" x="198.45" y="197.12" width="10.1" height="109.13"/>
            <rect class="cls-5" x="208.56" y="197.12" width="10.1" height="109.13"/>
            <rect class="cls-5" x="218.66" y="197.12" width="10.1" height="109.13"/>
            <rect class="cls-5" x="228.76" y="197.12" width="10.1" height="109.13"/>
            <rect class="cls-5" x="238.87" y="197.12" width="10.1" height="109.13"/>
            <rect class="cls-5" x="248.97" y="197.12" width="10.1" height="109.13"/>
            <rect class="cls-5" x="259.07" y="197.12" width="10.1" height="109.13"/>
            <rect class="cls-5" x="269.18" y="197.12" width="10.1" height="109.13"/>
            <rect class="cls-5" x="279.28" y="197.12" width="10.1" height="109.13"/>
            <rect class="cls-5" x="289.38" y="197.12" width="10.1" height="109.13"/>
            <rect class="cls-5" x="299.48" y="197.12" width="10.1" height="109.13"/>
            <rect class="cls-5" x="309.59" y="197.12" width="10.1" height="109.13"/>
            <rect class="cls-5" x="319.69" y="197.12" width="10.1" height="109.13"/>
            <rect class="cls-5" x="329.79" y="197.12" width="10.1" height="109.13"/>
            <rect class="cls-5" x="339.9" y="197.12" width="10.1" height="109.13"/>
            <rect class="cls-5" x="350" y="197.12" width="10.1" height="109.13"/>
            <rect class="cls-5" x="360.1" y="197.12" width="10.1" height="109.13"/>
            <rect class="cls-5" x="370.21" y="197.12" width="10.1" height="109.13"/>
            <rect class="cls-5" x="380.31" y="197.12" width="10.1" height="109.13"/>
            <rect class="cls-5" x="390.41" y="197.12" width="10.1" height="109.13"/>
            <rect class="cls-5" x="400.52" y="197.12" width="10.1" height="109.13"/>
            <rect class="cls-5" x="410.62" y="197.12" width="10.1" height="109.13"/>
            <rect class="cls-5" x="420.72" y="197.12" width="10.1" height="109.13"/>
            <rect class="cls-5" x="430.82" y="197.12" width="10.1" height="109.13"/>
            <rect class="cls-5" x="440.93" y="197.12" width="10.1" height="109.13"/>
            <rect class="cls-5" x="451.03" y="197.12" width="10.1" height="109.13"/>
            <rect class="cls-5" x="461.13" y="197.12" width="10.1" height="109.13"/>
            <rect class="cls-5" x="471.24" y="197.12" width="10.1" height="109.13"/>
            <rect class="cls-5" x="481.34" y="197.12" width="10.1" height="109.13"/>
            <rect class="cls-5" x="491.44" y="197.12" width="10.1" height="109.13"/>
            <rect class="cls-5" x="501.55" y="197.12" width="10.1" height="109.13"/>
            <rect class="cls-5" x="511.65" y="197.12" width="10.1" height="109.13"/>
            <rect class="cls-5" x="521.75" y="197.12" width="10.1" height="109.13"/>
            <rect class="cls-5" x="531.85" y="197.12" width="10.1" height="109.13"/>
            <rect class="cls-5" x="541.96" y="197.12" width="10.1" height="109.13"/>
            <rect class="cls-5" x="552.06" y="197.12" width="10.1" height="109.13"/>
            <rect class="cls-5" x="562.16" y="197.12" width="10.1" height="109.13"/>
            <rect class="cls-5" x="572.27" y="197.12" width="10.1" height="109.13"/>
            <rect class="cls-5" x="582.37" y="197.12" width="10.1" height="109.13"/>
            <rect class="cls-5" x="592.47" y="197.12" width="10.1" height="109.13"/>
            <rect class="cls-5" x="602.58" y="197.12" width="10.1" height="109.13"/>
            <rect class="cls-5" x="612.68" y="197.12" width="10.1" height="109.13"/>
            <rect class="cls-5" x="622.78" y="197.12" width="10.1" height="109.13"/>
            <rect class="cls-5" x="632.88" y="197.12" width="10.1" height="109.13"/>
            <rect class="cls-5" x="642.99" y="197.12" width="10.1" height="109.13"/>
            <rect class="cls-5" x="653.09" y="197.12" width="10.1" height="109.13"/>
            <rect class="cls-5" x="663.19" y="197.12" width="10.1" height="109.13"/>
            <rect class="cls-5" x="673.3" y="197.12" width="10.1" height="109.13"/>
            <rect class="cls-5" x="683.4" y="197.12" width="10.1" height="109.13"/>
            <rect class="cls-5" x="693.5" y="197.12" width="10.1" height="109.13"/>
            <rect class="cls-5" x="-6.67" y="184.92" width="713.35" height="12.21"/>
            <rect class="cls-5" x="-3.61" y="197.12" width="707.21" height="3.05"/>
        </g>
    </g>
    <path class="cls-11" d="M491.54,122.51H456.27a19,19,0,0,0-19,19v5a13.6,13.6,0,0,1-15.81,13.46,50.92,50.92,0,0,1-27.22-14,6.4,6.4,0,0,0-8.48-.61,6.23,6.23,0,0,0-.5,9.26,63.67,63.67,0,0,0,63.23,15.94v17.69h62V141.47A19,19,0,0,0,491.54,122.51Z"/>
    <path class="cls-12" d="M482.23,123.35s-.11,6.94-10.58,6.94-10.44-6.94-10.44-6.94V112h21Z"/>
    <line class="cls-13" x1="448.53" y1="188.13" x2="448.53" y2="151.89"/>
    <line class="cls-13" x1="494.91" y1="188.13" x2="494.91" y2="151.89"/>
    <path class="cls-14" d="M489.29,78.07V98.13a17.57,17.57,0,0,1-35.14-.08v-20C454.15,67.28,489.29,67.51,489.29,78.07Z"/>
    <polyline class="cls-15" points="473.66 88.42 473.66 98.45 469.78 98.45"/>
    <path class="cls-16" d="M468.1,90.57a3.62,3.62,0,1,1,7.24,0"/>
    <circle class="cls-14" cx="479.44" cy="90.87" r="4.22"/>
    <circle class="cls-14" cx="464" cy="90.87" r="4.22"/>
    <path class="cls-17" d="M476.35,103.85a4.63,4.63,0,1,1-9.25,0Z"/>
    <line class="cls-15" x1="452.97" y1="89.42" x2="459.6" y2="89.42"/>
    <line class="cls-15" x1="483.84" y1="89.42" x2="490.47" y2="89.42"/>
    <path class="cls-18" d="M488.1,89.89c0,2.69,3.82,3.65,4.85,1.16a2.26,2.26,0,0,0,.17-.85V72.44c0-9.08-8-15.82-16.54-13.91-7.12,1.6-14.32,2.55-21.6.88a5.22,5.22,0,0,0-6.32,3.76c-2,8.5,1.4,15.78.79,27.23-.12,2.22,2.62,3.52,4.77,3.52h0V80.36a1,1,0,0,1,1.11-1c11.32,1.52,21.05-6.61,32-4a1,1,0,0,1,.73,1Z"/>
    <polygon class="cls-19" points="471.72 131.15 464.53 139.04 453.04 122.27 457.92 118.33 471.72 131.15"/>
    <polygon class="cls-19" points="471.72 131.15 478.91 139.04 490.4 122.27 485.52 118.33 471.72 131.15"/>
    <path class="cls-18" d="M198.57,137.15s0-46.24,0-46.35a27,27,0,0,1,54,.11v46.24Z"/>
    <path class="cls-20" d="M248.75,165.94h9.75v-16c0-13.53-8.05-24.5-21.58-24.5H214.19a24.5,24.5,0,0,0-24.5,24.5v38.2h59.06Z"/>
    <path class="cls-11" d="M209.33,126a24.48,24.48,0,0,0-19.64,24v38.2h19.64Z"/>
    <path class="cls-12" d="M234.1,129.18s-.09,6.94-8.6,6.94-8.49-6.94-8.49-6.94V114.87H234.1Z"/>
    <path class="cls-12" d="M243.14,95.05v7.47a17.59,17.59,0,0,1-35.17-.08V95.05c0-11.51,17.42-12.08,17.42-18.33C225.39,83,243.14,84.23,243.14,95.05Z"/>
    <path class="cls-17" d="M229.9,108.23a4.63,4.63,0,0,1-9.25,0Z"/>
    <polyline class="cls-15" points="227.45 97.7 227.45 102.84 223.56 102.84"/>
    <circle class="cls-17" cx="234.45" cy="97.44" r="2.05"/>
    <circle class="cls-17" cx="217.1" cy="97.44" r="2.05"/>
    <path class="cls-17" d="M235.59,152.64l-2.93-1.18a4.52,4.52,0,0,0-8-1.44l0,0a6.3,6.3,0,0,1-8.81,1.35,9.48,9.48,0,0,0,9.48,9.47,7.57,7.57,0,0,0,7.55-7Z"/>
    <path class="cls-20" d="M202.8,87.32a4.82,4.82,0,0,1-2.88-1.42l-1.82-1.83c-1.68-1.67-1.93-4.15-.56-5.51a3.17,3.17,0,0,1,2.64-.86,4.82,4.82,0,0,1,2.87,1.42L204.87,81c1.68,1.67,1.93,4.14.57,5.51A3.18,3.18,0,0,1,202.8,87.32Z"/>
    <path class="cls-21" d="M212.12,73.69A16.68,16.68,0,0,1,225,79.29a16.67,16.67,0,0,1,12.83-5.6,18,18,0,0,1,6.48,1.19,13.93,13.93,0,0,0,.81-4.64c0-9.23-9-16.71-20.12-16.71S204.84,61,204.84,70.24a14.18,14.18,0,0,0,.8,4.64A18.07,18.07,0,0,1,212.12,73.69Z"/>
    <path class="cls-22" d="M221.68,51.58a3.28,3.28,0,0,1,6.56,0v4h-6.56Z"/>
    <path class="cls-22" d="M209.44,59.6h31a21.31,21.31,0,0,0-12.23-5.83h-6.59A21.28,21.28,0,0,0,209.44,59.6Z"/>
    <line class="cls-15" x1="263.24" y1="50.85" x2="263.24" y2="90.23"/>
    <path class="cls-23" d="M260,93.87a3.28,3.28,0,1,1,6.56,0v6.93H260Z"/>
    <path class="cls-23" d="M186.68,50.85h76.56a0,0,0,0,1,0,0v2.83a3,3,0,0,1-3,3H189.68a3,3,0,0,1-3-3V50.85A0,0,0,0,1,186.68,50.85Z"/>
    <path class="cls-11" d="M313.66,145.24a6.4,6.4,0,0,0-8.46.59A51,51,0,0,1,269,160.62a10.71,10.71,0,0,1-10.51-10.69h0c0-11.86-5.52-21.71-16.72-24v62.17h7V169.75a63.68,63.68,0,0,0,65.4-15.25A6.23,6.23,0,0,0,313.66,145.24Z"/>
    
    <line class="line1 cls-13" x1="202.36" y1="188.13" x2="202.36" y2="154.81"/>
    <line class="line2 cls-13" x1="248.75" y1="188.13" x2="248.75" y2="154.81"/>
    <line class="line3 cls-15" x1="350" y1="86.38" x2="350" y2="67.14"/>
    <line class="line4 cls-15" x1="387.43" y1="101.89" x2="401.03" y2="88.28"/>
    <line class="line1 cls-15" x1="298.97" y1="88.28" x2="312.57" y2="101.89"/>
    <line class="line2 cls-15" x1="332.85" y1="97.91" x2="331.72" y2="95.17"/>
    <line class="line3 cls-15" x1="327.75" y1="85.59" x2="326.62" y2="82.86"/>
    <line class="line4 cls-15" x1="391.4" y1="122.16" x2="394.14" y2="121.03"/>
    <line class="line1 cls-15" x1="403.72" y1="117.06" x2="406.45" y2="115.93"/>
    <line class="line2 cls-15" x1="367.15" y1="97.91" x2="368.28" y2="95.17"/>
    <line class="line3 cls-15" x1="372.25" y1="85.59" x2="373.38" y2="82.86"/>
    <line class="line4 cls-15" x1="293.55" y1="115.93" x2="296.28" y2="117.06"/>
    <line class="line1 cls-15" x1="305.86" y1="121.03" x2="308.6" y2="122.16"/>
    
    
    <polygon class="cls-24" points="350 175.16 318.96 157.23 318.96 121.39 350 103.47 381.04 121.39 381.04 157.23 350 175.16"/>
    <path class="cls-23" d="M341.75,148a9.68,9.68,0,0,1,8.25,5.15,9.68,9.68,0,0,1,8.25-5.15,8.68,8.68,0,0,1,4.16,1.08,18,18,0,0,0,.52-4.27c0-8.51-5.79-15.4-12.93-15.4s-12.93,6.89-12.93,15.4a18,18,0,0,0,.52,4.27A8.68,8.68,0,0,1,341.75,148Z"/>
    <polygon class="cls-23" points="350 137.52 329.73 131.49 350 125.45 370.27 131.49 350 137.52"/>
    <path class="cls-25" d="M324.28,135.29H319v-7.47l-11.62,11.61a5.83,5.83,0,0,0,0,8.25l4.39,4.4a5.84,5.84,0,0,0,7.23.8V141.67h5.32a3.19,3.19,0,1,0,0-6.38Z"/>
    <path class="cls-25" d="M319.57,135.29h4.71a3.19,3.19,0,1,1,0,6.38h-7.81"/>
    <path class="cls-25" d="M375.72,135.29H381v-7.47l11.62,11.61a5.83,5.83,0,0,1,0,8.25l-4.39,4.4a5.84,5.84,0,0,1-7.23.8V141.67h-5.32a3.19,3.19,0,0,1,0-6.38Z"/>
    <path class="cls-25" d="M380.43,135.29h-4.71a3.19,3.19,0,0,0,0,6.38h7.81"/>
    <path class="cls-26" d="M576.48,210.75c-1.77-23.21-1.56-41.65,3.28-64.21,3.18-14.82,7.78-29.39,8.57-44.66A89.72,89.72,0,0,0,576.7,52.73c-1.24-2.13-3-4.43-5.21-4.18-3.18.35-3.94,5.24-3.86,8.93l.47,20.29a13.93,13.93,0,0,0-11.42-7.33,4.22,4.22,0,0,0-3,.85c-2,1.81-1,5.51.22,8.14l11,24.12c-2-2.59-6,.65-5.92,4.11s2.33,6.26,4.14,9c4.84,7.47,7,16.75,8.47,25.91,3.75,24.11-.26,48.58-1.15,73Z"/>
    <path class="cls-26" d="M533.29,122.53c3.22,7.77,17.31,20.52,18.37,27.34a19.8,19.8,0,0,0-10.74-5.37,2,2,0,0,0-2.46,2c.24,5.2,10,9.27,14.48,13.26-2.27-.76-4.67-1.52-6.78-.82a5,5,0,0,0-2.83,6.19,9.07,9.07,0,0,0,3.09,3.89c5.05,4.3,10.25,8.41,14.68,13.69A60.44,60.44,0,0,1,574.49,224c2.56-19.21.66-43.55-3.69-60.56A76.21,76.21,0,0,0,565.86,149c-4.32-8.92-9.06-17.43-15.85-23.7a37.77,37.77,0,0,0-12.27-7.42A3.54,3.54,0,0,0,533.29,122.53Z"/>
    <path class="cls-26" d="M627.56,174.84c-4.24,3.08-16.41,5.54-19.09,8.76a14.59,14.59,0,0,1,8,.37c.79.28,1.36,1,.85,1.77-1.7,2.62-8.69,1.86-12.55,2.6,1.57.28,3.22.59,4.26,1.57a2.73,2.73,0,0,1-.19,4,6.19,6.19,0,0,1-3,1.11,82,82,0,0,0-12.8,2.78c-8.76,3-16.58,9.68-20.35,17.42,4.27-10.69,12.73-22.72,20.42-30.25a45.92,45.92,0,0,1,7.28-6c5.23-3.34,10.6-6.36,16.5-7.61a27.75,27.75,0,0,1,9.49-.24C628.34,171.46,629.1,173.73,627.56,174.84Z"/>
    <path class="cls-26" d="M630.75,92.7c-4.32,10.06-21.52,25.71-23.28,34.71,3.89-3.67,8.4-5.83,12.75-6.12a2.44,2.44,0,0,1,2.66,2.93c-.69,6.92-12.21,11.4-17.69,16.28,2.66-.8,5.48-1.58,7.85-.43s4,5,2.75,8.54a11.8,11.8,0,0,1-3.86,4.89c-6.15,5.24-12.45,10.23-18,16.85-11.47,13.77-18.66,34.46-18.72,53.79-1.38-25.89,2.78-58.2,9.15-80.49a112.48,112.48,0,0,1,6.84-18.83c5.68-11.48,11.8-22.39,20.11-30.08A41.2,41.2,0,0,1,626,86C629.42,85,632.32,89.05,630.75,92.7Z"/>
    <path class="cls-27" d="M545.55,206.52h62.33L613,230.37a124.65,124.65,0,0,1,0,52l-3.7,17.34c-.79,3.75-5.24,6.51-10.48,6.51H554.66c-5.24,0-9.69-2.76-10.49-6.51l-3.69-17.34a124.32,124.32,0,0,1,0-52Z"/>
    <path class="cls-26" d="M120.93,210.67c2.11-23.2,1.65-41.65-5-64.26-4.36-14.86-10.59-29.48-11.79-44.76A71.76,71.76,0,0,1,119.1,52.6c1.62-2.12,3.92-4.4,6.84-4.13,4.22.39,5.28,5.28,5.21,9l-.43,20.29c3.24-4.36,9.07-7.15,15.05-7.21a6.85,6.85,0,0,1,3.95.88c2.69,1.83,1.35,5.52-.22,8.13l-14.38,24c2.64-2.57,7.94.71,7.88,4.17s-3,6.24-5.39,9c-6.34,7.43-9.16,16.7-11,25.84-4.74,24.08.81,48.6,2.22,73Z"/>
    <path class="cls-26" d="M166.68,122.53c-3.22,7.77-17.31,20.52-18.37,27.34a19.8,19.8,0,0,1,10.74-5.37,2,2,0,0,1,2.46,2c-.24,5.2-10,9.27-14.48,13.26,2.27-.76,4.67-1.52,6.78-.82a5,5,0,0,1,2.83,6.19,9.07,9.07,0,0,1-3.09,3.89c-5.05,4.3-10.25,8.41-14.68,13.69A60.44,60.44,0,0,0,125.48,224c-2.56-19.21-.66-43.55,3.69-60.56A76.21,76.21,0,0,1,134.11,149c4.32-8.92,9-17.43,15.85-23.7a37.77,37.77,0,0,1,12.27-7.42A3.54,3.54,0,0,1,166.68,122.53Z"/>
    <path class="cls-26" d="M59.76,115c5.06,8.36,25.11,21.38,27.19,28.85a29.7,29.7,0,0,0-14.85-5.11c-1.68-.08-3.34.7-3.09,2.42.82,5.74,14.24,9.49,20.63,13.55-3.11-.66-6.38-1.32-9.13-.37a5.16,5.16,0,0,0-3.18,7.07c.91,1.8,2.76,3,4.51,4.07,7.16,4.36,14.51,8.51,20.94,14,13.37,11.45,21.8,28.63,21.92,44.66,1.53-21.47-3.4-48.28-10.87-66.78a78,78,0,0,0-8-15.63c-6.63-9.54-13.79-18.6-23.47-25a55,55,0,0,0-17.1-7.26C61.29,108.6,57.93,112,59.76,115Z"/>
    <path class="cls-27" d="M154.42,206.52H92.09L87,230.37a124.65,124.65,0,0,0,0,52l3.69,17.34c.8,3.75,5.25,6.51,10.49,6.51h44.12c5.24,0,9.69-2.76,10.49-6.51l3.69-17.34a124.32,124.32,0,0,0,0-52Z"/>
    <rect class="cls-25" x="151.58" y="197.12" width="396.85" height="109.13"/>
    <rect class="cls-25" x="148.53" y="184.92" width="402.95" height="12.21"/>
    <rect class="cls-28" x="151.58" y="197.12" width="396.85" height="3.05"/>
    <line class="cls-29" x1="361.5" y1="224.31" x2="331.21" y2="254.6"/>
    <line class="cls-29" x1="373" y1="228.68" x2="327" y2="274.69"/>
    <line class="cls-29" x1="368.4" y1="249.16" x2="338.5" y2="279.06"/>
    <g class="cls-30">
        <path class="cls-22" d="M451.53,290.38a40.71,40.71,0,0,1-5.64-20.29V243.55a27,27,0,0,0-54-.11c0,.06,0,14.06,0,26.65a40.8,40.8,0,0,1-5.63,20.29A24.32,24.32,0,0,0,383,302.57v35.29h71.73V302.57A24.41,24.41,0,0,0,451.53,290.38Z"/>
        <path class="cls-22" d="M538,279.81c-10.47,0-20.09,8.73-20.09,19.2v43.75H595.5V299c0-10.47-9.63-19.2-20.1-19.2l-2.92-2.36a2.92,2.92,0,0,0-3.82.14l-1.43,1.33V269.5h0a17.5,17.5,0,0,0,7.06-13.83v-.42a17.68,17.68,0,0,0,5.77-12.81c0-5.92-3.16-11.2-8.13-14.78a17.52,17.52,0,0,0-30.4,0c-5,3.58-8.13,8.86-8.13,14.78a17.69,17.69,0,0,0,5.76,12.8v.35a17.52,17.52,0,0,0,7.07,13.91h0v9.42l-1.44-1.33a2.92,2.92,0,0,0-3.82-.14Z"/>
        <path class="cls-22" d="M299.78,282.69l-2.92-2.36a2.93,2.93,0,0,0-3.82.13l-1.44,1.34v-8a17.52,17.52,0,0,0,7-13.19c.48-.52.93-1.07,1.36-1.63l.1-.14c.39-.52.77-1.05,1.12-1.6l.29-.51c.26-.44.53-.88.77-1.34l.29-.63c.21-.44.42-.87.6-1.32.1-.25.18-.51.27-.76.15-.42.32-.84.45-1.28.08-.28.14-.58.22-.86s.22-.83.31-1.26.1-.63.15-.94.14-.83.19-1.25,0-.68.06-1,.06-.78.07-1.18v-.09h0v-7.68a11.57,11.57,0,0,0-7-10.68,41.5,41.5,0,0,0-12.69-3.09l-.57-.05-1.35-.08c-.56,0-1.12,0-1.69-.05h-1c-.57,0-1.14,0-1.69.05l-1.35.08-.58.05a41.65,41.65,0,0,0-12.69,3.09,11.58,11.58,0,0,0-7,10.68v7.68h0v.09c0,.4.05.78.07,1.18s0,.68.06,1,.12.83.19,1.25.08.63.15.94.2.84.31,1.26.13.58.22.86c.13.44.29.86.45,1.28.09.25.17.51.27.76.18.45.39.88.6,1.32.1.21.18.42.29.63.24.46.5.9.77,1.34l.29.51c.35.55.72,1.08,1.12,1.6l.09.14c.44.56.89,1.11,1.37,1.63a17.55,17.55,0,0,0,7,13.19v8l-1.43-1.34a2.93,2.93,0,0,0-3.82-.13l-2.92,2.36h-1.14a19.17,19.17,0,0,0-19,19.2v40.83h77.56V301.89C319.87,291.42,310.25,282.69,299.78,282.69Z"/>
        <path class="cls-11" d="M329.79,325.14c0-25.05-21.8-34.39-48.7-34.39s-48.69,9.34-48.69,34.39v32.21h97.39Z"/>
        <path class="cls-11" d="M467.6,325.14c0-25.05-21.8-34.39-48.69-34.39s-48.7,9.34-48.7,34.39v32.21H467.6Z"/>
        <path class="cls-11" d="M605.41,325.14c0-25.05-21.8-34.39-48.69-34.39S508,300.09,508,325.14v32.21h97.39Z"/>
        <path class="cls-22" d="M188.15,284.83a15,15,0,0,0-6.84-12.36,4.34,4.34,0,0,1-1.84-5,9.06,9.06,0,0,0,.51-2.77,7.7,7.7,0,0,0-1.69-4.86c-3.3-4.27-6-4.83-8.54-4.56v-.25c.41-15.23-11.75-28.27-27-28a26.44,26.44,0,0,0-26,26.51c0,.61,0,1.17,0,1.73a8.94,8.94,0,0,0-3.92.46A9.21,9.21,0,0,0,107,267.26a4.43,4.43,0,0,1-1.92,5.06,14.7,14.7,0,0,0-6.67,12.51,14.9,14.9,0,0,0,14.21,14.83,24.33,24.33,0,0,0-5.2,15.06v28h71.73v-28a24.34,24.34,0,0,0-5.21-15.06A14.9,14.9,0,0,0,188.15,284.83Z"/>
        <path class="cls-11" d="M192,325.14c0-25.05-21.81-34.39-48.7-34.39s-48.69,9.34-48.69,34.39v32.21H192Z"/>
    </g>
    <circle class="cls-31" cx="514.41" cy="172.61" r="12.31"/>
    <path class="cls-20" d="M525.73,160.87c-4,3.95-10.73,3.57-10.73,3.57s-.37-6.77,3.58-10.72,10.73-3.58,10.73-3.58S529.68,156.92,525.73,160.87Z"/>
    <line class="cls-25" x1="63.81" y1="95.22" x2="63.81" y2="109.48"/>
    <line class="cls-25" x1="70.75" y1="95.22" x2="70.75" y2="109.48"/>
    <path class="cls-32" d="M86,80.3a11.36,11.36,0,0,0-20.61-6.59l-.09,0a15.8,15.8,0,0,1-22.11,3.37A23.78,23.78,0,0,0,67,100.84a19,19,0,0,0,19-19l-.11,0A11.82,11.82,0,0,0,86,80.3Z"/>
    <polygon class="cls-25" points="92.98 80.3 84.26 83.83 80.73 80.3 84.26 76.77 92.98 80.3"/>
    <circle class="cls-17" cx="78.08" cy="75.55" r="1.64"/>
    <g class="cls-33">
        <path class="cls-34" d="M892.72,301.52a199.76,199.76,0,0,1-199.93-198,19.58,19.58,0,0,1,19.4-19.75h.18a19.58,19.58,0,0,1,19.57,19.4A159.85,159.85,0,0,0,779,215.37c62.69,62.69,164.7,62.69,227.39,0a19.58,19.58,0,0,1,27.68,27.69A199.35,199.35,0,0,1,892.72,301.52Z"/>
    </g>
</svg>