<svg xmlns="http://www.w3.org/2000/svg" width="600" height="277" viewBox="0 0 600 277">
    <g fill="none" fill-rule="evenodd">
        <path fill="#D9D6EB" d="M436.437 276.104l-1.631-2.445c45.507-30.29 67.804-55.896 68.165-78.286.184-11.417-1.91-16.553-3.44-20.303-.944-2.316-1.69-4.145-1.475-6.483.485-5.253 9.814-6.809 10.876-6.97 9.516-1.888 12.917-4.35 12.917-5.88 0-3.551-18.694-8.711-47.99-8.711-29.294 0-47.99 5.16-47.99 8.712 0 1.129 3.112 3.851 14.888 6.07l.69.125c.601.143 12.801 3.208 12.801 13.065 0 34.935-77.407 56.4-128.63 70.604-11.92 3.306-22.217 6.162-29.393 8.618a1.46 1.46 0 0 1-.476.079h-.328a1.46 1.46 0 0 1-.477-.08c-13.36-4.574-26.18-8.735-38.58-12.758-63.49-20.606-109.361-35.493-109.361-68.02 0-23.59 26.806-30.201 50.456-36.035 16.976-4.188 33.01-8.143 33.01-17.74 0-7.675-14.151-11.272-25.523-14.163-10.114-2.571-18.104-4.601-18.104-9.34 0-4.596 7.055-8.103 21.568-10.72 11.286-2.036 24.174-2.963 31.373-2.963v2.938c-19.288 0-50 4.917-50 10.745 0 2.455 8.81 4.694 15.889 6.494 13.002 3.305 27.739 7.05 27.739 17.01 0 11.896-16.334 15.925-35.247 20.59-22.602 5.576-48.22 11.895-48.22 33.184 0 30.392 45.02 45.003 107.329 65.225 12.314 3.998 25.043 8.128 38.312 12.668 7.241-2.46 17.451-5.292 29.246-8.563 47.304-13.117 126.476-35.072 126.476-67.773 0-7.571-10.366-10.167-10.472-10.192l-.615-.11c-11.477-2.161-17.292-5.174-17.292-8.958 0-8.548 30.458-11.65 50.932-11.65 20.472 0 50.93 3.102 50.93 11.65 0 3.801-5.165 6.753-15.352 8.773-2.709.414-8.236 2.003-8.454 4.346-.149 1.623.416 3.009 1.27 5.105 1.534 3.76 3.852 9.441 3.658 21.46-.378 23.426-23.103 49.816-69.475 80.682"/>
        <path fill="#F4F3F8" d="M353.268 214.078c0 3.103-26.436 11.495-59.046 11.495s-59.046-8.392-59.046-11.495c0-3.105 26.437-12.475 59.046-12.475 32.61 0 59.046 9.37 59.046 12.475M588.663 128.945c0 3.976-9.336 7.199-20.854 7.199-11.518 0-20.856-3.223-20.856-7.2 0-3.975 9.338-7.198 20.856-7.198 11.518 0 20.854 3.223 20.854 7.199M513.448 154.964c0 3.396-17.785 6.149-39.726 6.149-21.939 0-39.724-2.753-39.724-6.15 0-3.395 17.785-6.148 39.724-6.148 21.94 0 39.726 2.753 39.726 6.149"/>
        <path fill="#D9D6EB" d="M148.323 276.104c-46.37-30.866-69.096-57.256-69.474-80.683l.073-7.483c0-39.541 53.1-50.023 91.871-57.675 18.634-3.679 36.234-7.153 36.234-12.555 0-3.402-7.836-5.958-14.748-8.214-9.552-3.116-19.429-6.338-19.429-13.503 0-12.86 51.2-13.511 61.464-13.511v2.938c-42.634 0-58.523 6.486-58.523 10.573 0 5.034 9.244 8.05 17.401 10.71 8.627 2.815 16.776 5.473 16.776 11.007 0 7.817-16.193 11.012-38.604 15.436-37.77 7.455-89.501 17.667-89.501 54.807l-.073 7.46c.361 22.352 22.657 47.959 68.164 78.248l-1.631 2.445z"/>
        <path fill="#F4F3F8" d="M82.682 128.262c0 3.575-8.396 6.473-18.755 6.473-10.357 0-18.754-2.898-18.754-6.473 0-3.576 8.397-6.474 18.754-6.474 10.36 0 18.755 2.898 18.755 6.474M153.108 110.784c0 2.598-6.1 4.703-13.624 4.703-7.523 0-13.622-2.105-13.622-4.703 0-2.597 6.099-4.702 13.622-4.702 7.524 0 13.624 2.105 13.624 4.702"/>
        <path fill="#FFF" d="M568.086 34.094l17.174 79.762h-36.134z"/>
        <path fill="#D9D6EB" d="M550.986 112.387h32.454l-15.425-71.636-17.029 71.636zm36.093 2.938h-39.813l20.89-87.888 18.923 87.888z"/>
        <path fill="#D9D6EB" d="M566.615 129.23h2.94V34.092h-2.94z"/>
        <path fill="#D9D6EB" d="M567.4 108.007l-14.51-7.656 1.373-2.598 14.509 7.656zM568.8 100.44l-1.429-2.569 12.514-6.942 1.429 2.569zM567.26 79.015l-8.948-6.062 1.651-2.432 8.948 6.063zM2.441 85.418h260.691V82.48H2.442zM297.667 85.418H441.23V82.48H297.667zM504.53 85.418h52.516V82.48H504.53zM578.82 85.418h20.71V82.48h-20.71zM28.105 183.811a1.47 1.47 0 0 1-1.47-1.469c0-3.77-7.374-8.196-9.957-9.45l1.284-2.644c.946.458 7.739 3.863 10.475 8.402a44.808 44.808 0 0 1 2.446-3.708c3.492-4.728 6.955-7.126 10.293-7.126v2.938c-4.867 0-10.127 8.82-11.744 12.22a1.47 1.47 0 0 1-1.327.837"/>
        <path fill="#D9D6EB" d="M29.533 182.69l-2.857-.695c2.756-11.32-4.007-22.604-4.075-22.717l2.51-1.532c.307.502 7.473 12.417 4.422 24.944M225.98 85.418c-3.893 0-8.373-3.947-13.117-8.125-4.682-4.123-9.988-8.796-14.088-8.796-1.174 0-2.351.897-3.845 2.033-2.536 1.932-6.01 4.578-12.087 4.578-4.896 0-8.64-1.586-12.26-3.119-3.649-1.544-7.093-3.002-11.76-3.002-4.652 0-7.257 2.116-10.016 4.357-2.597 2.11-5.284 4.293-9.51 4.293-3.88 0-7.877-1.962-12.109-4.04-4.837-2.376-10.321-5.07-16.348-5.07-1.932 0-4.423.74-7.307 1.596-4.78 1.419-10.73 3.185-18.545 3.185-6.758 0-16.16-1.652-25.252-3.249-7.984-1.401-15.524-2.726-20.21-2.726-7.833 0-22.195 12.74-27.068 17.65l-2.09-2.068c.752-.756 18.5-18.52 29.158-18.52 4.942 0 12.606 1.346 20.72 2.771 8.968 1.575 18.241 3.204 24.742 3.204 7.387 0 13.11-1.699 17.707-3.063 3.104-.921 5.784-1.717 8.145-1.717 6.71 0 12.52 2.853 17.646 5.37 3.916 1.924 7.614 3.74 10.811 3.74 3.18 0 5.254-1.685 7.655-3.635 2.894-2.351 6.173-5.016 11.872-5.016 5.263 0 9.149 1.644 12.906 3.236 3.504 1.483 6.814 2.885 11.113 2.885 5.084 0 7.858-2.113 10.305-3.975 1.778-1.356 3.46-2.636 5.627-2.636 5.211 0 10.713 4.845 16.033 9.53 4.125 3.634 8.391 7.39 11.172 7.39v2.939z"/>
        <path fill="#FFF" d="M138.981 56.668l9.333 43.345h-19.636z"/>
        <path fill="#D9D6EB" d="M139.123 43.354l-3.003 12.635-10.304 43.345-.859 3.617H151.955l-.765-3.555-9.334-43.346-2.733-12.696zm-.142 13.313l9.333 43.346h-19.635l10.302-43.346z"/>
        <path fill="#D9D6EB" d="M137.51 108.367h2.942v-51.7h-2.941z"/>
        <path fill="#D9D6EB" d="M138.295 95.299l-9.525-5.025 1.374-2.598 9.523 5.025zM139.695 87.454l-1.428-2.568 7.346-4.076 1.428 2.568zM138.156 77.377l-5.536-3.751 1.65-2.43 5.537 3.75z"/>
        <path fill="#FFF" d="M63.603 26.892l-18.155 84.317h38.197z"/>
        <path fill="#D9D6EB" d="M47.269 109.74h34.516L63.673 33.549l-16.404 76.19zm38.237 2.938H43.628l19.904-92.443 21.974 92.443z"/>
        <path fill="#D9D6EB" d="M62.457 127.46h2.941V28.85h-2.941z"/>
        <path fill="#D9D6EB" d="M64.29 100.81l-1.373-2.597 15.337-8.094 1.374 2.598zM62.889 85.565L51.85 79.441l1.429-2.568 11.038 6.123zM64.428 66.027l-1.65-2.431 7.763-5.26 1.651 2.43zM425.123 85.418c-2.47 0-4.79-1.994-7.475-4.302-3.231-2.778-6.893-5.925-11.21-5.925-2.926 0-5.858-1.483-8.692-2.917-2.53-1.28-4.919-2.488-6.94-2.488-2.025 0-5.34 1.638-8.546 3.223-3.665 1.81-7.454 3.683-10.392 3.683-4.342 0-5.883 1.888-7.668 4.073-1.781 2.181-3.8 4.653-8.503 4.653V82.48c3.307 0 4.594-1.577 6.225-3.572 1.874-2.296 4.207-5.154 9.946-5.154 2.25 0 5.726-1.718 9.088-3.379 3.67-1.813 7.137-3.527 9.85-3.527 2.722 0 5.542 1.426 8.269 2.805 2.526 1.279 5.139 2.6 7.363 2.6 5.408 0 9.688 3.68 13.129 6.636 2.148 1.847 4.178 3.59 5.556 3.59v2.939zM0 124.726h27.451v-2.938H0zM46.732 248.12h25.49v-2.938h-25.49zM11.438 217.434h23.53v-2.938h-23.53zM524.51 195.89h20.262v-2.939H524.51zM538.235 183.158h30.066v-2.938h-30.066zM317.647 156.39h15.196v-2.937h-15.196zM384.804 107.425h20.098v-2.938h-20.098zM355.392 117.218h17.157v-2.938h-17.157z"/>
        <path fill="#FFF" d="M287.99 211.232h11.52V107.67h-11.52z"/>
        <path fill="#D9D6EB" d="M302.451 104.732H285.049V214.17H302.451V104.732zm-14.46 106.5h11.519V107.67h-11.52v103.562z"/>
        <path fill="#FFF" d="M353.757 71.312l-53.025 52.966c-3.828 3.824-10.035 3.824-13.864 0l-53.024-52.966a9.786 9.786 0 0 1 0-13.85l53.024-52.965c3.83-3.824 10.036-3.824 13.864 0l53.025 52.966a9.786 9.786 0 0 1 0 13.85"/>
        <path fill="#B299DD" d="M293.8 3.102a8.31 8.31 0 0 0-5.892 2.434L234.884 58.5a8.27 8.27 0 0 0-2.44 5.887c0 2.223.867 4.314 2.44 5.885l53.024 52.966a8.283 8.283 0 0 0 5.893 2.438 8.282 8.282 0 0 0 5.892-2.438l53.024-52.966 1.04 1.04-1.04-1.04a8.265 8.265 0 0 0 2.44-5.885 8.27 8.27 0 0 0-2.44-5.887L299.693 5.536a8.316 8.316 0 0 0-5.892-2.434m0 125.513a11.204 11.204 0 0 1-7.973-3.299l-53.023-52.965a11.18 11.18 0 0 1-3.302-7.963c0-3.009 1.172-5.837 3.302-7.964l53.023-52.965c4.396-4.39 11.547-4.393 15.944 0l53.025 52.965a11.182 11.182 0 0 1 3.302 7.964 11.18 11.18 0 0 1-3.302 7.963l-53.025 52.965a11.203 11.203 0 0 1-7.971 3.3"/>
        <path fill="#D9D6EB" d="M293.8 10.152a4.89 4.89 0 0 0-3.466 1.434l-49.393 49.34a4.892 4.892 0 0 0 0 6.924l49.393 49.34a4.89 4.89 0 0 0 3.467 1.433 4.89 4.89 0 0 0 3.465-1.434l49.395-49.339a4.894 4.894 0 0 0 0-6.924l-49.395-49.34a4.89 4.89 0 0 0-3.465-1.434m-.001 2.938c.524 0 1.016.204 1.387.573l49.393 49.34a1.958 1.958 0 0 1 0 2.77l-49.393 49.338a1.95 1.95 0 0 1-1.387.574 1.95 1.95 0 0 1-1.386-.574L243.02 65.772a1.96 1.96 0 0 1 0-2.77l49.394-49.34c.37-.368.863-.572 1.386-.572"/>
        <path fill="#B299DD" d="M317.566 43.849h-15.473a2.94 2.94 0 0 0-2.718 1.814 2.932 2.932 0 0 0 .639 3.201l4.059 4.055-8.378 8.232a20.138 20.138 0 0 0-1.76 1.734 19.991 19.991 0 0 0-1.759-1.734l-8.377-8.232 4.059-4.055a2.934 2.934 0 0 0 .638-3.201 2.94 2.94 0 0 0-2.718-1.814h-15.472a2.94 2.94 0 0 0-2.941 2.938v15.455a2.939 2.939 0 0 0 2.94 2.938c.766 0 1.519-.298 2.081-.86l4.225-4.22 8.55 8.404.077.073.11.1.075.065a9.879 9.879 0 0 1 3.41 6.425 19.68 19.68 0 0 0-.036 1.13v21.687a2.94 2.94 0 0 0 2.941 2.938H296.133a2.94 2.94 0 0 0 2.942-2.938V76.298c0-.353-.012-.717-.036-1.13a9.879 9.879 0 0 1 3.41-6.426c.052-.043.102-.089.149-.137l8.663-8.505 4.224 4.22a2.944 2.944 0 0 0 3.205.637 2.938 2.938 0 0 0 1.817-2.715V46.787a2.94 2.94 0 0 0-2.941-2.938m0 2.938v15.455l-6.288-6.28-10.74 10.548a12.849 12.849 0 0 0-4.45 8.602c.027.393.045.789.045 1.186v21.686H291.74V76.298c0-.397.018-.793.044-1.186a12.849 12.849 0 0 0-4.449-8.602l-.109-.1-10.632-10.448-6.287 6.28V46.787h15.472l-6.155 6.149 10.555 10.373a17.174 17.174 0 0 1 3.757 4.602 17.212 17.212 0 0 1 3.757-4.602l10.557-10.373-6.156-6.15h15.473"/>
        <path fill="#D9D6EB" d="M222.223 163.646h22.221v-2.938h-22.221zM194.044 178.589h32.026v-2.938h-32.026z"/>
        <path fill="#FFF" d="M473.108 152.119l-37.236-21.475v-42.95l37.236-21.475 37.236 21.474v42.951z"/>
        <path fill="#B299DD" d="M438.322 129.23l34.786 20.062 34.786-20.062V89.107l-34.786-20.062-34.786 20.062v40.123zm34.786 25.715l-39.688-22.887V86.28l39.688-22.888 39.688 22.888v45.778l-39.688 22.887z"/>
        <path fill="#B299DD" d="M496.868 124.27l-16.655-21.566-10.679 15.175-6.858-9.745-12.866 16.18h25.732l-.032-.045zM466.995 97.496a4.377 4.377 0 0 1-4.38 4.374 4.377 4.377 0 0 1-4.38-4.374 4.377 4.377 0 0 1 4.38-4.375 4.377 4.377 0 0 1 4.38 4.375"/>
        <path fill="#D9D6EB" d="M169.826 39.57h-17.352l.662-1.943a22.613 22.613 0 0 0 1.201-7.3c0-12.502-10.182-22.672-22.697-22.672a22.732 22.732 0 0 0-18.641 9.743l-.566.812-.966-.218a12.794 12.794 0 0 0-2.81-.323c-6.989 0-12.673 5.679-12.673 12.658 0 2.49.722 4.897 2.087 6.962l-2.455 1.62a15.522 15.522 0 0 1-2.573-8.582c0-8.6 7.004-15.596 15.614-15.596.82 0 1.655.07 2.494.207a25.675 25.675 0 0 1 20.489-10.22c14.137 0 25.638 11.488 25.638 25.61 0 2.14-.262 4.253-.782 6.303h13.33v2.938z"/>
        <path fill="#D9D6EB" d="M82.315 39.568h31.999V36.63h-32zM72.51 39.568h4.549V36.63H72.51zM100.588 50.164h24.3v-2.938h-24.3zM163.815 46.985h18.032v-2.938h-18.032zM186.364 46.985h5.287v-2.938h-5.287zM413.976 47.36h-31.699c-2.48 0-3.971-1.03-4.785-1.895-1.036-1.101-1.608-2.59-1.608-4.195 0-3.132 2.282-6.46 6.506-6.46 2.463 0 4.733 1.34 6.017 2.275 6.128-5.516 11.567-4.722 14.459-3.618 1.122-7.823 7.875-13.854 16.012-13.854 8.92 0 16.177 7.249 16.177 16.159 0 2.845-.752 5.645-2.175 8.096l-2.544-1.473a13.21 13.21 0 0 0 1.778-6.623c0-7.29-5.938-13.221-13.236-13.221-7.298 0-13.235 5.93-13.235 13.22v2.98l-2.366-1.814c-.24-.18-6.164-4.441-13.75 3.138l-1.01 1.006-1.038-.975c-.023-.022-2.564-2.358-5.089-2.358-2.449 0-3.565 1.825-3.565 3.522 0 .853.288 1.628.81 2.181.605.645 1.494.97 2.642.97h31.7v2.939z"/>
        <path fill="#D9D6EB" d="M423.749 44.6h15.718v-2.937h-15.718zM443.847 44.6h3.953v-2.937h-3.953zM418.878 52.257h31.537v-2.938h-31.537zM455.807 52.257h5.065v-2.938h-5.065zM510.918 267.402c-.524 0-1.013-.28-1.277-.74-2.32-4.057-7.009-5.269-7.056-5.28l.713-2.85c.206.05 4.34 1.12 7.386 4.566 1.59-2.711 4.905-6.823 10.394-6.823v2.938c-5.968 0-8.756 7.166-8.784 7.238a1.473 1.473 0 0 1-1.376.95"/>
        <path fill="#D9D6EB" d="M509.514 266.368c-3.019-9.74 1.655-19.485 1.857-19.894l2.643 1.287c-.044.09-4.358 9.129-1.691 17.738l-2.81.869zM377.772 155.99a1.469 1.469 0 0 1-1.457-1.26c-.77-5.38-8.507-8.703-8.585-8.736l1.14-2.709c.307.13 6.177 2.64 8.981 7.281 1.715-3.313 4.982-7.755 10.172-7.755v2.938c-5.926 0-8.818 9.114-8.846 9.205a1.472 1.472 0 0 1-1.405 1.036"/>
        <path fill="#D9D6EB" d="M379.213 154.81l-2.884-.576c1.67-8.349-2.385-20.8-3.285-22.133.031.046.064.078.09.103l2.079-2.078c1.414 1.413 5.858 15.396 4 24.684M100 99.1h12.475v-2.937H100zM221.318 97.484h7.862v-2.938h-7.862zM550.98 85.418c-3.865 0-5.932-3.098-7.929-6.093-2.075-3.109-4.033-6.047-7.923-6.047-1.135 0-1.929.64-3.235 1.774-1.615 1.401-3.625 3.146-7.144 3.146-2.025 0-2.983 1.298-4.32 3.434-1.111 1.774-2.37 3.786-4.868 3.786V82.48c.826 0 1.44-.914 2.373-2.405 1.272-2.032 3.013-4.815 6.815-4.815 2.42 0 3.778-1.179 5.216-2.426 1.347-1.169 2.873-2.494 5.163-2.494 5.463 0 8.185 4.08 10.37 7.357 1.986 2.976 3.345 4.783 5.482 4.783v2.938z"/>
    </g>
</svg>
