<svg xmlns="http://www.w3.org/2000/svg" width="736" height="339" viewBox="0 0 736 339">
    <g fill="none" fill-rule="evenodd">
        <path fill="#D9D6EB" d="M535.363 339.059l-2.001-3.002c55.822-37.196 83.173-68.642 83.615-96.136.226-14.021-2.342-20.328-4.22-24.932-1.157-2.845-2.073-5.091-1.808-7.962.595-6.45 12.038-8.362 13.341-8.559 11.673-2.318 15.845-5.342 15.845-7.22 0-4.362-22.932-10.699-58.867-10.699s-58.868 6.337-58.868 10.699c0 1.386 3.817 4.73 18.262 7.454l.845.154c.739.175 15.704 3.94 15.704 16.044 0 42.9-94.952 69.26-157.785 86.702-14.624 4.06-27.254 7.567-36.056 10.583a1.79 1.79 0 0 1-.585.097h-.402a1.79 1.79 0 0 1-.585-.097c-16.388-5.617-32.114-10.727-47.325-15.668-77.88-25.304-134.15-43.586-134.15-83.53 0-28.967 32.882-37.087 61.893-44.251 20.825-5.142 40.493-10 40.493-21.784 0-9.425-17.36-13.842-31.308-17.392-12.407-3.158-22.208-5.651-22.208-11.47 0-5.645 8.654-9.951 26.456-13.165 13.845-2.5 29.654-3.639 38.485-3.639v3.608c-23.66 0-61.333 6.038-61.333 13.195 0 3.015 10.805 5.764 19.49 7.975 15.949 4.058 34.026 8.658 34.026 20.888 0 14.61-20.035 19.557-43.236 25.286-27.725 6.847-59.15 14.607-59.15 40.75 0 37.321 55.225 55.264 131.657 80.097 15.106 4.91 30.72 9.982 46.997 15.556 8.882-3.021 21.406-6.498 35.875-10.514 58.026-16.11 155.143-43.07 155.143-83.227 0-9.298-12.715-12.486-12.845-12.516l-.755-.136c-14.078-2.653-21.21-6.353-21.21-11 0-10.497 37.36-14.307 62.475-14.307 25.113 0 62.475 3.81 62.475 14.307 0 4.668-6.336 8.293-18.832 10.774-3.323.507-10.103 2.46-10.37 5.336-.183 1.994.51 3.696 1.558 6.27 1.881 4.616 4.724 11.594 4.486 26.352-.463 28.768-28.34 61.176-85.222 99.079"/>
        <path fill="#F4F3F8" d="M433.342 262.89c0 3.811-32.428 14.116-72.43 14.116-40 0-72.429-10.305-72.429-14.116 0-3.812 32.429-15.319 72.429-15.319 40.002 0 72.43 11.507 72.43 15.319M722.094 158.346c0 4.883-11.453 8.84-25.581 8.84-14.13 0-25.583-3.957-25.583-8.84s11.453-8.84 25.583-8.84c14.128 0 25.58 3.957 25.58 8.84M629.83 190.297c0 4.171-21.817 7.552-48.73 7.552-26.913 0-48.73-3.38-48.73-7.552 0-4.169 21.817-7.55 48.73-7.55 26.913 0 48.73 3.381 48.73 7.55"/>
        <path fill="#D9D6EB" d="M181.942 339.059c-56.88-37.903-84.757-70.311-85.22-99.079l.089-9.19c0-48.557 65.136-61.429 112.695-70.826 22.857-4.517 44.447-8.784 44.447-15.417 0-4.178-9.612-7.317-18.091-10.087-11.717-3.826-23.833-7.783-23.833-16.581 0-15.793 62.806-16.593 75.396-16.593v3.608c-52.298 0-71.788 7.965-71.788 12.985 0 6.181 11.34 9.884 21.345 13.151 10.582 3.457 20.578 6.72 20.578 13.517 0 9.599-19.863 13.523-47.354 18.955-46.332 9.156-109.788 21.695-109.788 67.305l-.089 9.161c.443 27.447 27.793 58.893 83.615 96.089l-2.002 3.002z"/>
        <path fill="#F4F3F8" d="M101.424 157.507c0 4.391-10.3 7.95-23.006 7.95-12.705 0-23.005-3.559-23.005-7.95 0-4.39 10.3-7.95 23.005-7.95 12.706 0 23.006 3.56 23.006 7.95M187.812 136.045c0 3.19-7.482 5.775-16.711 5.775-9.23 0-16.71-2.586-16.71-5.775 0-3.19 7.48-5.775 16.71-5.775 9.229 0 16.711 2.585 16.711 5.775"/>
        <path fill="#FFF" d="M696.852 41.868l21.067 97.95h-44.325z"/>
        <path fill="#D9D6EB" d="M675.876 138.013h39.81l-18.921-87.97-20.889 87.97zm44.275 3.608h-48.839L696.94 33.694l23.212 107.927z"/>
        <path fill="#D9D6EB" d="M695.047 158.695h3.608V41.867h-3.608z"/>
        <path fill="#D9D6EB" d="M696.01 132.634l-17.8-9.401 1.686-3.19 17.797 9.401zM697.728 123.342l-1.752-3.155 15.35-8.525 1.752 3.154zM695.84 97.031l-10.977-7.444 2.025-2.986 10.976 7.445zM2.995 104.894h319.78v-3.608H2.996zM365.138 104.894h176.105v-3.608H365.138zM618.89 104.894h64.42v-3.608h-64.42zM710.02 104.894h25.403v-3.608H710.02zM34.475 225.723a1.804 1.804 0 0 1-1.804-1.804c0-4.63-9.044-10.066-12.212-11.605l1.574-3.247c1.16.562 9.494 4.744 12.85 10.318a55.03 55.03 0 0 1 3-4.554c4.283-5.806 8.532-8.75 12.627-8.75v3.607c-5.971 0-12.423 10.831-14.406 15.005a1.802 1.802 0 0 1-1.629 1.03"/>
        <path fill="#D9D6EB" d="M36.228 224.345l-3.505-.852c3.38-13.903-4.916-27.76-5-27.897l3.08-1.881c.376.615 9.167 15.248 5.425 30.63M277.203 104.894c-4.776 0-10.272-4.846-16.091-9.977-5.743-5.063-12.251-10.802-17.282-10.802-1.44 0-2.884 1.102-4.715 2.497-3.112 2.373-7.372 5.621-14.827 5.621-6.006 0-10.6-1.947-15.04-3.83-4.475-1.896-8.7-3.686-14.424-3.686-5.708 0-8.903 2.599-12.288 5.35-3.185 2.592-6.482 5.272-11.665 5.272-4.76 0-9.663-2.41-14.853-4.962-5.934-2.917-12.662-6.224-20.054-6.224-2.37 0-5.426.908-8.963 1.959-5.864 1.742-13.163 3.91-22.749 3.91-8.29 0-19.824-2.027-30.976-3.988-9.794-1.721-19.043-3.349-24.79-3.349-9.61 0-27.226 15.646-33.204 21.675l-2.563-2.54c.921-.928 22.692-22.742 35.767-22.742 6.061 0 15.463 1.653 25.415 3.403 11.001 1.934 22.377 3.934 30.351 3.934 9.062 0 16.082-2.086 21.72-3.76 3.808-1.132 7.096-2.11 9.992-2.11 8.23 0 15.359 3.504 21.646 6.595 4.803 2.362 9.34 4.592 13.261 4.592 3.901 0 6.445-2.069 9.39-4.463 3.55-2.888 7.573-6.16 14.563-6.16 6.456 0 11.222 2.019 15.832 3.973 4.298 1.822 8.358 3.543 13.632 3.543 6.236 0 9.639-2.594 12.64-4.881 2.182-1.665 4.244-3.236 6.902-3.236 6.393 0 13.142 5.949 19.668 11.703 5.06 4.462 10.293 9.075 13.705 9.075v3.608z"/>
        <path fill="#FFF" d="M170.483 69.589l11.45 53.228h-24.088z"/>
        <path fill="#D9D6EB" d="M170.657 53.239l-3.683 15.516-12.64 53.229-1.053 4.441h33.117l-.939-4.365-11.449-53.23-3.353-15.591zm-.174 16.35l11.449 53.228h-24.086l12.637-53.229z"/>
        <path fill="#D9D6EB" d="M168.68 133.076h3.608V69.587h-3.608z"/>
        <path fill="#D9D6EB" d="M169.641 117.028l-11.683-6.17 1.685-3.191 11.682 6.171zM171.36 107.395l-1.753-3.154 9.012-5.006 1.752 3.155zM169.471 95.02l-6.791-4.606 2.024-2.985 6.792 4.606z"/>
        <path fill="#FFF" d="M78.02 33.023L55.75 136.566h46.855z"/>
        <path fill="#D9D6EB" d="M57.983 134.762h42.34L78.106 41.198l-20.123 93.564zm46.904 3.608h-51.37L77.933 24.849l26.954 113.52z"/>
        <path fill="#D9D6EB" d="M76.614 156.522h3.608V35.428h-3.608z"/>
        <path fill="#D9D6EB" d="M78.862 123.796l-1.684-3.19 18.814-9.939 1.685 3.19zM77.144 105.075l-13.54-7.52 1.751-3.154 13.54 7.52zM79.032 81.081l-2.025-2.984 9.523-6.46 2.025 2.985zM521.484 104.894c-3.03 0-5.875-2.448-9.17-5.283-3.963-3.41-8.455-7.276-13.75-7.276-3.59 0-7.185-1.82-10.662-3.581-3.104-1.572-6.034-3.056-8.513-3.056-2.484 0-6.55 2.012-10.484 3.958-4.495 2.223-9.143 4.523-12.747 4.523-5.326 0-7.216 2.319-9.406 5.002-2.185 2.678-4.661 5.713-10.43 5.713v-3.608c4.056 0 5.635-1.936 7.635-4.386 2.3-2.82 5.162-6.329 12.2-6.329 2.76 0 7.025-2.11 11.149-4.149 4.502-2.227 8.755-4.332 12.083-4.332 3.34 0 6.798 1.751 10.142 3.444 3.1 1.571 6.305 3.193 9.033 3.193 6.634 0 11.884 4.519 16.104 8.15 2.635 2.267 5.126 4.41 6.816 4.41v3.607zM0 153.166h33.673v-3.608H0zM57.325 304.695h31.268v-3.608H57.325zM14.03 267.012h28.864v-3.608H14.03zM643.399 240.555h24.854v-3.608H643.4zM660.235 224.92h36.88v-3.607h-36.88zM389.647 192.05h18.64v-3.608h-18.64zM472.026 131.919h24.654v-3.608h-24.654zM435.948 143.945h21.045v-3.608h-21.045z"/>
        <path fill="#FFF" d="M353.268 259.396h14.13V132.22h-14.13z"/>
        <path fill="#D9D6EB" d="M371.007 128.612H349.66v134.392h21.347V128.612zm-17.739 130.784h14.13V132.22h-14.13v127.176z"/>
        <path fill="#FFF" d="M433.942 87.573l-65.044 65.042c-4.696 4.696-12.31 4.696-17.007 0l-65.042-65.042c-4.696-4.697-4.696-12.312 0-17.008L351.89 5.522c4.697-4.695 12.311-4.695 17.007 0l65.044 65.043c4.696 4.696 4.696 12.311 0 17.008"/>
        <path fill="#B299DD" d="M360.396 3.81c-2.62 0-5.237.995-7.23 2.988L288.126 71.84a10.16 10.16 0 0 0-2.994 7.229c0 2.73 1.063 5.297 2.994 7.228l65.042 65.042a10.155 10.155 0 0 0 7.229 2.994c2.73 0 5.296-1.063 7.227-2.994l65.044-65.042 1.275 1.276-1.275-1.276a10.156 10.156 0 0 0 2.993-7.228 10.16 10.16 0 0 0-2.993-7.229L367.623 6.798a10.195 10.195 0 0 0-7.227-2.989m0 154.132a13.736 13.736 0 0 1-9.78-4.051l-65.042-65.043a13.737 13.737 0 0 1-4.05-9.778 13.74 13.74 0 0 1 4.05-9.78l65.042-65.042c5.392-5.391 14.164-5.394 19.558 0l65.043 65.042a13.74 13.74 0 0 1 4.05 9.78c0 3.693-1.437 7.168-4.05 9.778l-65.043 65.043a13.735 13.735 0 0 1-9.778 4.051"/>
        <path fill="#D9D6EB" d="M360.396 12.467c-1.54 0-3.08.587-4.253 1.76l-60.589 60.59a6.012 6.012 0 0 0 0 8.504l60.59 60.59a5.995 5.995 0 0 0 4.252 1.76 5.994 5.994 0 0 0 4.25-1.76l60.591-60.59a6.014 6.014 0 0 0 0-8.503l-60.59-60.59a5.994 5.994 0 0 0-4.251-1.761m-.002 3.608c.644 0 1.248.25 1.702.703l60.589 60.59a2.407 2.407 0 0 1 0 3.401l-60.589 60.59a2.39 2.39 0 0 1-1.702.704 2.39 2.39 0 0 1-1.7-.705L298.105 80.77a2.41 2.41 0 0 1 0-3.4l60.589-60.59a2.395 2.395 0 0 1 1.7-.704"/>
        <path fill="#B299DD" d="M389.547 53.847h-18.98a3.607 3.607 0 0 0-2.55 6.159l4.979 4.98-10.277 10.108a24.716 24.716 0 0 0-2.158 2.13 24.535 24.535 0 0 0-2.158-2.13l-10.276-10.108 4.979-4.98a3.606 3.606 0 0 0-2.551-6.159h-18.98a3.608 3.608 0 0 0-3.608 3.608v18.98a3.609 3.609 0 0 0 6.16 2.55l5.182-5.18 10.49 10.32c.03.03.062.06.093.088l.135.123.091.08a12.135 12.135 0 0 1 4.183 7.89c-.029.508-.043.956-.043 1.388v26.631a3.608 3.608 0 0 0 3.608 3.608h5.391a3.608 3.608 0 0 0 3.608-3.608v-26.63c0-.433-.015-.88-.044-1.388a12.135 12.135 0 0 1 4.183-7.89c.064-.054.125-.11.183-.17l10.626-10.444 5.182 5.182a3.61 3.61 0 0 0 6.16-2.55v-18.98a3.608 3.608 0 0 0-3.608-3.608m0 3.608v18.98l-7.712-7.713-13.176 12.954a15.784 15.784 0 0 0-5.457 10.562c.032.484.055.97.055 1.456v26.631h-5.391v-26.63c0-.488.022-.973.055-1.457a15.784 15.784 0 0 0-5.458-10.562l-.133-.123-13.042-12.83-7.713 7.712v-18.98h18.98l-7.551 7.551 12.948 12.738a21.086 21.086 0 0 1 4.609 5.651 21.131 21.131 0 0 1 4.608-5.65l12.95-12.739-7.551-7.551h18.98"/>
        <path fill="#D9D6EB" d="M272.593 200.96h27.258v-3.608h-27.258zM238.027 219.31h39.285V215.7h-39.285z"/>
        <path fill="#FFF" d="M580.346 186.804l-45.677-26.371v-52.745l45.677-26.37 45.676 26.37v52.745z"/>
        <path fill="#B299DD" d="M537.676 158.696l42.67 24.636 42.67-24.636v-49.272l-42.67-24.635-42.67 24.635v49.272zm42.67 31.579l-48.684-28.107v-56.215l48.684-28.107 48.684 28.107v56.215l-48.684 28.107z"/>
        <path fill="#B299DD" d="M609.492 152.604l-20.43-26.483-13.1 18.636-8.413-11.967-15.781 19.87h31.563l-.038-.056zM572.847 119.726a5.372 5.372 0 1 1-10.744 0 5.372 5.372 0 0 1 10.744 0"/>
        <path fill="#D9D6EB" d="M208.32 48.591h-21.285l.812-2.384a27.796 27.796 0 0 0 1.473-8.965c0-15.352-12.49-27.841-27.842-27.841a27.876 27.876 0 0 0-22.866 11.965l-.694.996-1.185-.268a15.678 15.678 0 0 0-3.448-.397c-8.572 0-15.545 6.974-15.545 15.545 0 3.057.886 6.013 2.56 8.55l-3.01 1.989a19.077 19.077 0 0 1-3.157-10.539c0-10.56 8.591-19.152 19.152-19.152 1.006 0 2.032.085 3.06.255a31.484 31.484 0 0 1 25.133-12.552c17.342 0 31.45 14.108 31.45 31.45 0 2.628-.321 5.222-.96 7.74h16.352v3.608z"/>
        <path fill="#D9D6EB" d="M100.973 48.59h39.252v-3.608h-39.252zM88.947 48.59h5.578v-3.608h-5.578zM123.388 61.602h29.808v-3.608h-29.808zM200.946 57.698h22.12v-3.607h-22.12zM228.606 57.698h6.486v-3.607h-6.486zM507.811 58.158h-38.884c-3.042 0-4.872-1.265-5.87-2.327-1.271-1.351-1.972-3.18-1.972-5.15 0-3.848 2.798-7.934 7.98-7.934 3.021 0 5.806 1.646 7.38 2.794 7.518-6.774 14.19-5.798 17.737-4.443 1.377-9.606 9.66-17.013 19.642-17.013 10.941 0 19.843 8.901 19.843 19.843 0 3.495-.922 6.933-2.667 9.943l-3.121-1.81a16.236 16.236 0 0 0 2.18-8.133c0-8.952-7.283-16.235-16.235-16.235-8.952 0-16.235 7.283-16.235 16.235v3.658l-2.902-2.227c-.295-.22-7.562-5.454-16.868 3.853l-1.237 1.236-1.274-1.197c-.029-.027-3.146-2.896-6.243-2.896-3.004 0-4.373 2.241-4.373 4.326 0 1.047.353 1.998.993 2.678.743.791 1.834 1.192 3.242 1.192h38.884v3.607z"/>
        <path fill="#D9D6EB" d="M519.799 54.77h19.28v-3.608H519.8zM544.452 54.77h4.85v-3.608h-4.85zM513.824 64.172h38.685v-3.608h-38.685zM559.123 64.172h6.213v-3.608h-6.213zM626.726 328.373a1.805 1.805 0 0 1-1.567-.908c-2.845-4.983-8.597-6.47-8.655-6.484l.875-3.5c.252.062 5.324 1.375 9.06 5.607 1.95-3.33 6.017-8.38 12.75-8.38v3.608c-7.32 0-10.74 8.801-10.775 8.889a1.807 1.807 0 0 1-1.688 1.168"/>
        <path fill="#D9D6EB" d="M625.004 327.103c-3.703-11.961 2.03-23.927 2.277-24.43l3.243 1.58c-.054.112-5.346 11.211-2.075 21.783l-3.445 1.067zM463.4 191.558a1.803 1.803 0 0 1-1.787-1.548c-.944-6.606-10.435-10.687-10.53-10.728l1.397-3.326c.377.159 7.578 3.241 11.017 8.941 2.104-4.068 6.112-9.523 12.477-9.523v3.608c-7.268 0-10.816 11.191-10.85 11.303a1.806 1.806 0 0 1-1.724 1.273"/>
        <path fill="#D9D6EB" d="M465.168 190.108l-3.537-.707c2.049-10.252-2.926-25.542-4.03-27.179.038.057.078.095.11.126l2.55-2.552c1.735 1.736 7.187 18.907 4.907 30.312M122.667 121.697h15.303v-3.608h-15.303zM271.483 119.711h9.645v-3.608h-9.645zM675.87 104.894c-4.743 0-7.278-3.804-9.727-7.481-2.545-3.819-4.948-7.426-9.719-7.426-1.392 0-2.367.786-3.968 2.177-1.981 1.721-4.448 3.864-8.764 3.864-2.484 0-3.66 1.594-5.3 4.217-1.362 2.179-2.907 4.65-5.97 4.65v-3.609c1.013 0 1.766-1.122 2.91-2.953 1.56-2.496 3.696-5.912 8.36-5.912 2.968 0 4.635-1.448 6.398-2.98 1.652-1.435 3.525-3.062 6.334-3.062 6.701 0 10.04 5.009 12.72 9.034 2.437 3.654 4.104 5.873 6.725 5.873v3.608z"/>
    </g>
</svg>
