<svg xmlns="http://www.w3.org/2000/svg" xmlns:xlink="http://www.w3.org/1999/xlink" width="72" height="18" viewBox="0 0 72 18">
    <defs>
        <path id="a" d="M0 .363v3.482h4.844a4.15 4.15 0 0 1-1.796 2.717v2.257h2.908c1.702-1.566 2.683-3.874 2.683-6.615 0-.637-.056-1.251-.162-1.841H0z"/>
        <path id="c" d="M.957.71v2.332A8.996 8.996 0 0 0 9 8c2.429 0 4.467-.806 5.956-2.181l-2.908-2.257c-.806.54-1.837.859-3.048.859-2.344 0-4.328-1.584-5.036-3.711H.957z"/>
        <path id="e" d="M.957.958a9.008 9.008 0 0 0 0 8.084L3.964 6.71A5.411 5.411 0 0 1 3.681 5c0-.593.103-1.17.283-1.71V.958H.957z"/>
        <path id="g" d="M.957 4.958L3.964 7.29C4.672 5.163 6.656 3.58 9 3.58c1.322 0 2.508.453 3.44 1.345l2.581-2.581C13.462.892 11.426 0 9 0A8.998 8.998 0 0 0 .957 4.958z"/>
    </defs>
    <g fill="none" fill-rule="evenodd">
        <g transform="translate(9 7)">
            <mask id="b" fill="#fff">
                <use xlink:href="#a"/>
            </mask>
            <path fill="#3E82F1" d="M-5 13.82h18.64V-4.636H-5z" mask="url(#b)"/>
        </g>
        <g transform="translate(0 10)">
            <mask id="d" fill="#fff">
                <use xlink:href="#c"/>
            </mask>
            <path fill="#32A753" d="M-4.043 13h23.999V-4.29H-4.043z" mask="url(#d)"/>
        </g>
        <g transform="translate(0 4)">
            <mask id="f" fill="#fff">
                <use xlink:href="#e"/>
            </mask>
            <path fill="#F9BB00" d="M-5 14.042H8.964V-4.042H-5z" mask="url(#f)"/>
        </g>
        <mask id="h" fill="#fff">
            <use xlink:href="#g"/>
        </mask>
        <path fill="#E74133" d="M-4.043 12.29h24.064V-5H-4.043z" mask="url(#h)"/>
        <path fill="#6F6F6F" d="M35.64 12.708c-.36.47-.858.825-1.496 1.066-.638.242-1.363.363-2.174.363-.834 0-1.573-.19-2.215-.568a3.78 3.78 0 0 1-1.487-1.623c-.349-.704-.53-1.526-.543-2.465v-.779c0-1.504.36-2.678 1.08-3.524.72-.845 1.725-1.268 3.014-1.268 1.108 0 1.987.274 2.639.82.652.547 1.044 1.336 1.176 2.366h-1.696c-.19-1.199-.886-1.798-2.084-1.798-.775 0-1.364.279-1.768.837-.403.559-.611 1.378-.625 2.458v.765c0 1.076.227 1.911.68 2.506.454.594 1.084.892 1.89.892.884 0 1.513-.2 1.887-.602v-1.948h-2.05V8.894h3.773v3.814zm1.43-2.475c0-.724.143-1.377.43-1.958a3.145 3.145 0 0 1 1.21-1.34c.52-.312 1.116-.468 1.791-.468.998 0 1.808.321 2.43.964.622.642.958 1.494 1.008 2.556l.007.39c0 .73-.14 1.38-.42 1.955a3.108 3.108 0 0 1-1.203 1.333c-.522.314-1.125.472-1.808.472-1.044 0-1.88-.348-2.506-1.043-.626-.695-.94-1.621-.94-2.779v-.082zm1.66.144c0 .761.158 1.357.472 1.788.315.43.752.646 1.313.646.56 0 .997-.22 1.309-.657.312-.437.468-1.077.468-1.92 0-.748-.16-1.34-.482-1.778-.321-.437-.758-.656-1.309-.656-.542 0-.973.215-1.292.646-.319.43-.479 1.074-.479 1.931zm6.31-.144c0-.724.144-1.377.43-1.958a3.145 3.145 0 0 1 1.21-1.34c.52-.312 1.117-.468 1.792-.468.998 0 1.808.321 2.43.964.622.642.958 1.494 1.008 2.556l.007.39c0 .73-.14 1.38-.42 1.955a3.108 3.108 0 0 1-1.204 1.333c-.521.314-1.124.472-1.808.472-1.043 0-1.878-.348-2.505-1.043s-.94-1.621-.94-2.779v-.082zm1.661.144c0 .761.157 1.357.472 1.788.314.43.752.646 1.312.646s.997-.22 1.31-.657c.312-.437.468-1.077.468-1.92 0-.748-.16-1.34-.482-1.778-.322-.437-.758-.656-1.31-.656-.542 0-.972.215-1.291.646-.32.43-.479 1.074-.479 1.931zm6.33-.13c0-1.148.27-2.066.81-2.751.54-.686 1.257-1.03 2.15-1.03.843 0 1.506.295 1.99.883l.075-.745h1.497v7.17c0 .971-.302 1.737-.906 2.297-.604.56-1.418.841-2.444.841a3.939 3.939 0 0 1-1.59-.338c-.516-.226-.91-.52-1.178-.886l.786-.998c.51.607 1.139.91 1.886.91.552 0 .987-.15 1.306-.448.32-.299.479-.737.479-1.316v-.5c-.479.534-1.117.8-1.914.8-.866 0-1.574-.343-2.123-1.032-.55-.688-.824-1.64-.824-2.857zm1.655.144c0 .742.151 1.327.454 1.753.303.426.724.64 1.261.64.67 0 1.167-.288 1.49-.862V8.668c-.314-.56-.806-.84-1.476-.84-.547 0-.972.216-1.275.649-.303.433-.454 1.07-.454 1.914zM63.026 14h-1.662V3.5h1.661V14zm5.065.137c-1.053 0-1.906-.332-2.56-.995-.654-.663-.981-1.546-.981-2.649v-.205c0-.738.142-1.398.427-1.979a3.252 3.252 0 0 1 1.2-1.357 3.172 3.172 0 0 1 1.722-.485c1.008 0 1.786.321 2.335.964.549.642.824 1.551.824 2.727v.67h-4.833c.05.61.254 1.094.611 1.45.358.355.808.533 1.35.533.762 0 1.381-.308 1.86-.923l.895.854a2.99 2.99 0 0 1-1.186 1.029 3.713 3.713 0 0 1-1.664.366zM67.893 7.8c-.456 0-.824.16-1.104.478-.28.32-.46.764-.537 1.333h3.165v-.123c-.036-.556-.185-.976-.444-1.26-.26-.286-.62-.428-1.08-.428z"/>
    </g>
</svg>
