<svg xmlns="http://www.w3.org/2000/svg" width="96" height="96" viewBox="0 0 96 96">
    <g fill="none" fill-rule="evenodd">
        <path fill="#FFF" d="M0 96h96V0H0z"/>
        <path stroke="#494E80" stroke-linecap="round" stroke-linejoin="round" d="M13.2 6h72a4.8 4.8 0 0 1 4.8 4.8v60a4.8 4.8 0 0 1-4.8 4.8h-72V6z"/>
        <path fill="#FFF" d="M13.2 6h72a4.8 4.8 0 0 1 4.8 4.8v60a4.8 4.8 0 0 1-4.8 4.8h-72V6z"/>
        <path stroke="#494E80" stroke-linecap="round" stroke-linejoin="round" d="M13.2 6h72a4.8 4.8 0 0 1 4.8 4.8v60a4.8 4.8 0 0 1-4.8 4.8h-72V6zM16.8 80.4h68.4M16.8 82.8h68.4M16.8 85.2h68.4M27.6 22.8V60M27.6 10.8v2.4M27.6 16.8v2.4M27.6 62.4v2.4M27.6 68.4v2.4M90 70.8v12"/>
        <path stroke="#494E80" stroke-linecap="round" stroke-linejoin="round" d="M20.4 67.2c0-1.989-3.223-3.6-7.2-3.6-3.977 0-7.2 1.611-7.2 3.6v14.4M13.2 85.2c-3.977 0-7.2-1.612-7.2-3.6"/>
        <path stroke="#494E80" stroke-linecap="round" stroke-linejoin="round" d="M22.8 67.2c0 .662-1.074 1.2-2.4 1.2-1.325 0-2.4-.538-2.4-1.2 0-.663 1.075-1.2 2.4-1.2 1.326 0 2.4.537 2.4 1.2zM20.4 14.4c0-1.989-3.223-3.6-7.2-3.6-3.977 0-7.2 1.611-7.2 3.6v14.4M13.2 32.4c-3.977 0-7.2-1.612-7.2-3.6"/>
        <path stroke="#494E80" stroke-linecap="round" stroke-linejoin="round" d="M22.8 14.4c0 .662-1.074 1.2-2.4 1.2-1.325 0-2.4-.538-2.4-1.2 0-.663 1.075-1.2 2.4-1.2 1.326 0 2.4.537 2.4 1.2zM20.4 32c0-1.988-3.223-3.6-7.2-3.6C9.223 28.4 6 30.012 6 32v14.4M13.2 50C9.223 50 6 48.39 6 46.4"/>
        <path stroke="#494E80" stroke-linecap="round" stroke-linejoin="round" d="M22.8 32c0 .663-1.074 1.2-2.4 1.2-1.325 0-2.4-.537-2.4-1.2 0-.662 1.075-1.2 2.4-1.2 1.326 0 2.4.538 2.4 1.2zM20.4 23.2c0-1.988-3.223-3.6-7.2-3.6-3.977 0-7.2 1.612-7.2 3.6v14.4M13.2 41.2c-3.977 0-7.2-1.612-7.2-3.6"/>
        <path stroke="#494E80" stroke-linecap="round" stroke-linejoin="round" d="M22.8 23.2c0 .662-1.074 1.2-2.4 1.2-1.325 0-2.4-.538-2.4-1.2 0-.662 1.075-1.2 2.4-1.2 1.326 0 2.4.538 2.4 1.2zM20.4 40.8c0-1.989-3.223-3.6-7.2-3.6-3.977 0-7.2 1.611-7.2 3.6v14.4M13.2 58.8c-3.977 0-7.2-1.612-7.2-3.6"/>
        <path stroke="#494E80" stroke-linecap="round" stroke-linejoin="round" d="M22.8 40.8c0 .662-1.074 1.2-2.4 1.2-1.325 0-2.4-.538-2.4-1.2 0-.663 1.075-1.2 2.4-1.2 1.326 0 2.4.537 2.4 1.2zM20.4 49.6c0-1.988-3.223-3.6-7.2-3.6C9.223 46 6 47.612 6 49.6V64M13.2 67.6C9.223 67.6 6 65.988 6 64"/>
        <path stroke="#494E80" stroke-linecap="round" stroke-linejoin="round" d="M22.8 49.6c0 .662-1.074 1.2-2.4 1.2-1.325 0-2.4-.538-2.4-1.2 0-.662 1.075-1.2 2.4-1.2 1.326 0 2.4.538 2.4 1.2zM20.4 58.4c0-1.988-3.223-3.6-7.2-3.6-3.977 0-7.2 1.612-7.2 3.6v14.4M13.2 76.4C9.223 76.4 6 74.79 6 72.8"/>
        <path stroke="#494E80" stroke-linecap="round" stroke-linejoin="round" d="M22.8 58.4c0 .663-1.074 1.2-2.4 1.2-1.325 0-2.4-.537-2.4-1.2 0-.662 1.075-1.2 2.4-1.2 1.326 0 2.4.538 2.4 1.2z"/>
        <path fill="#FFF" d="M85.2 75.6h-72V78h72a4.8 4.8 0 0 0 4.8-4.8v-2.4a4.8 4.8 0 0 1-4.8 4.8"/>
        <path stroke="#494E80" stroke-linecap="round" stroke-linejoin="round" d="M85.2 75.6h-72V78h72a4.8 4.8 0 0 0 4.8-4.8v-2.4a4.8 4.8 0 0 1-4.8 4.8z"/>
        <path fill="#FFF" d="M85.2 87.6h-72V90h72a4.8 4.8 0 0 0 4.8-4.8v-2.4a4.8 4.8 0 0 1-4.8 4.8"/>
        <path stroke="#494E80" stroke-linecap="round" stroke-linejoin="round" d="M85.2 87.6h-72V90h72a4.8 4.8 0 0 0 4.8-4.8v-2.4a4.8 4.8 0 0 1-4.8 4.8zM13.2 75.6V90"/>
        <path fill="#515DC6" d="M51.602 26.401L51.6 26.4l-14.4 6.49V48.71l.393.178L51.6 55.2l14.008-6.315.392-.176V32.891z"/>
        <path stroke="#494E80" stroke-linecap="round" stroke-linejoin="round" d="M51.602 26.401L51.6 26.4l-14.4 6.49V48.71l.393.178L51.6 55.2l14.008-6.315.392-.176V32.891z"/>
        <path fill="#6CC7BE" d="M51.601 31.2H51.6L42 35.528v10.545l.263.118L51.6 50.4l9.34-4.211.26-.117V35.528z"/>
        <path stroke="#494E80" stroke-linecap="round" stroke-linejoin="round" d="M51.601 31.2H51.6L42 35.528v10.545l.263.118L51.6 50.4l9.34-4.211.26-.117V35.528z"/>
        <path fill="#FF8765" d="M51.6 36l-4.8 2.164v5.273l.131.059 4.67 2.104 4.669-2.104.13-.06v-5.272z"/>
        <path stroke="#494E80" stroke-linecap="round" stroke-linejoin="round" d="M51.6 36l-4.8 2.164v5.273l.131.059 4.67 2.104 4.669-2.104.13-.06v-5.272z"/>
    </g>
</svg>
