<svg xmlns="http://www.w3.org/2000/svg" width="96" height="96" viewBox="0 0 96 96">
    <g fill="none" fill-rule="evenodd">
        <path fill="#FFF" d="M96 96H0V0h96z"/>
        <path stroke="#494E80" stroke-linecap="round" stroke-linejoin="round" d="M12.01 46.651c1.522-11.455.668-19.242 3.9-23.473a18.32 18.32 0 0 1 1.628-3.17c-9.431 2.329-7.128 11.115-9.191 26.643-2.436 18.337-15.466 43.711 1.31 43.711h3.663c-16.775 0-3.745-25.374-1.31-43.71z"/>
        <path stroke="#494E80" stroke-linecap="round" stroke-linejoin="round" d="M14.782 87.905c-11.917-1.953-3.707-20.72-.154-36.608V29.91c0-2.473.493-4.83 1.381-6.98-3.346 4.055-2.46 11.61-3.998 22.78l.114.03c-.038.303-.073.601-.114.911-2.437 18.337-15.467 43.711 1.308 43.711h2.29a9.115 9.115 0 0 1-.827-2.457z"/>
        <path fill="#CCC" d="M80.118 66.18c-1.184.24-2.41.368-3.663.368h3.663v-.368z"/>
        <path stroke="#494E80" d="M80.118 66.18c-1.184.24-2.41.368-3.663.368h3.663v-.368z"/>
        <path stroke="#494E80" stroke-linecap="round" stroke-linejoin="round" d="M80.118 66.18c-1.184.24-2.41.368-3.663.368H56.76c-10.117 0-18.318-8.201-18.318-18.32a7.327 7.327 0 0 0-7.328-7.326 7.327 7.327 0 0 0-7.327 7.326V86.24c0 5.06 4.1 9.16 9.16 9.16h38.01c5.06 0 9.16-4.1 9.16-9.16V66.18z"/>
        <path stroke="#494E80" stroke-linecap="round" stroke-linejoin="round" d="M80.118 86.24v-4.579h-47.17v4.58c0 5.059 4.1 9.16 9.159 9.16h28.852c5.059 0 9.16-4.101 9.16-9.16z"/>
        <path stroke="#494E80" d="M32.947 86.24v-4.579H14.628v4.58a9.16 9.16 0 0 0 9.16 9.16h18.319c-5.06 0-9.16-4.101-9.16-9.16z"/>
        <path stroke="#494E80" stroke-linecap="round" stroke-linejoin="round" d="M23.788 81.661v4.58c0 5.058 4.1 9.159 9.16 9.159h3.663"/>
        <path stroke="#494E80" stroke-linecap="round" stroke-linejoin="round" d="M23.788 86.24V29.91c0-10.117 8.202-18.319 18.319-18.319h-9.16c-10.117 0-18.319 8.202-18.319 18.32v56.33a9.16 9.16 0 0 0 9.16 9.16h9.16c-5.06 0-9.16-4.101-9.16-9.16z"/>
        <path stroke="#494E80" stroke-linecap="round" stroke-linejoin="round" d="M23.788 48.228a7.327 7.327 0 0 1 7.327-7.326 7.327 7.327 0 0 1 7.328 7.326M27.451 48.228a3.664 3.664 0 0 1 7.328 0"/>
        <path stroke="#494E80" stroke-linecap="round" stroke-linejoin="round" d="M72.79 66.547H53.097c-10.117 0-18.318-8.2-18.318-18.319"/>
        <path stroke="#494E80" stroke-linecap="round" stroke-linejoin="round" d="M31.115 40.902a7.327 7.327 0 0 1 7.327 7.326c0 10.118 8.202 18.32 18.32 18.32h19.692c10.117 0 18.319-8.202 18.319-18.32a7.327 7.327 0 0 0-7.327-7.326h-56.33z"/>
        <path stroke="#494E80" stroke-linecap="round" stroke-linejoin="round" d="M83.782 40.902H34.779a7.327 7.327 0 0 1 7.328 7.326c0 8.082 6.574 14.656 14.654 14.656h19.694c8.08 0 14.654-6.574 14.654-14.656a7.326 7.326 0 0 0-7.327-7.326z"/>
        <path stroke="#494E80" stroke-linecap="round" stroke-linejoin="round" d="M83.782 40.902h-2.748a7.326 7.326 0 0 1 7.327 7.326c0 8.082-6.574 14.656-14.654 14.656h2.748c8.08 0 14.654-6.574 14.654-14.656a7.326 7.326 0 0 0-7.327-7.326zM27.451 52.656v6.411M27.451 62.847v.915"/>
        <path stroke="#494E80" d="M42.52 11.591V6.779c0-.954.777-1.73 1.731-1.73h9.782c.954 0 1.729.776 1.729 1.73v4.812h4.45V6.779A6.185 6.185 0 0 0 54.031.6h-9.78a6.185 6.185 0 0 0-6.18 6.179v4.812h4.449z"/>
        <path stroke="#494E80" stroke-linecap="round" stroke-linejoin="round" d="M54.032 5.048h-3.537c.954 0 1.73.777 1.73 1.73v4.813h3.538V6.779c0-.954-.777-1.73-1.73-1.73zM44.251.6h-3.537a6.186 6.186 0 0 0-6.18 6.179v4.812h3.538V6.779A6.186 6.186 0 0 1 44.252.6zM76.454 40.902V29.91c0-8.08-6.575-14.654-14.654-14.654H42.107c-8.081 0-14.656 6.573-14.656 14.654v10.992h49.003z"/>
        <path stroke="#494E80" stroke-linecap="round" stroke-linejoin="round" d="M76.454 40.902V29.91c0-8.08-6.575-14.654-14.654-14.654H42.107c-8.081 0-14.656 6.573-14.656 14.654v10.992h49.003z"/>
        <path stroke="#494E80" stroke-linecap="round" stroke-linejoin="round" d="M53.4 15.255h8.4c8.08 0 14.654 6.575 14.654 14.655v10.992h-8.4V29.91c0-8.08-6.574-14.655-14.655-14.655z"/>
        <path fill="#515DC6" d="M67.081 40.902l-.385-4.404-12.453-5.807-11.253 7.882.204 2.329z"/>
        <path stroke="#494E80" stroke-linecap="round" stroke-linejoin="round" d="M67.081 40.902l-.385-4.404-12.453-5.807-11.253 7.882.204 2.329z"/>
        <path stroke="#494E80" stroke-linecap="round" stroke-linejoin="round" d="M61.388 21.532l-12.538 5.62-.807 7.881 6.201-4.341 12.452 5.806.385 4.404h4.281l1.162-11.322z"/>
        <path fill="#FF8765" d="M61.388 21.532l-12.538 5.62-.807 7.881 6.201-4.341 12.452 5.806.385 4.404h4.281l1.162-11.322z"/>
        <path stroke="#494E80" stroke-linecap="round" stroke-linejoin="round" d="M61.388 21.532l-12.538 5.62-.807 7.881 6.201-4.341 12.452 5.806.385 4.404h4.281l1.162-11.322z"/>
        <path fill="#6CC7BE" d="M48.043 35.033l.807-7.88 2.338-1.048-9.164-2.455-9.716 9.714 2.02 7.538h8.866l-.204-2.33z"/>
        <path stroke="#494E80" stroke-linecap="round" stroke-linejoin="round" d="M48.043 35.033l.807-7.88 2.338-1.048-9.164-2.455-9.716 9.714 2.02 7.538h8.866l-.204-2.33z"/>
        <path stroke="#494E80" d="M76.454 66.547H56.761c-10.117 0-18.318-8.2-18.318-18.319a7.327 7.327 0 0 0-7.328-7.326h49.003V29.91c0-10.117-8.2-18.32-18.318-18.32H42.107c-10.118 0-18.32 8.203-18.32 18.32v56.33a9.16 9.16 0 0 0 9.16 9.16h38.011c5.06 0 9.16-4.1 9.16-9.16V66.18a18.327 18.327 0 0 1-3.664.367z"/>
        <path stroke="#494E80" stroke-linecap="round" stroke-linejoin="round" d="M53.098 66.547c-4.73 0-9.04-1.791-12.29-4.734v11.452a3.664 3.664 0 0 0 3.664 3.664h24.12a3.664 3.664 0 0 0 3.664-3.664v-6.718H53.098z"/>
        <path stroke="#494E80" stroke-linecap="round" stroke-linejoin="round" d="M53.098 66.547c-4.73 0-9.04-1.791-12.29-4.734v11.452a3.664 3.664 0 0 0 3.664 3.664h13.13a3.664 3.664 0 0 0 3.663-3.664v-6.718h-8.167z"/>
        <path stroke="#494E80" stroke-linecap="round" stroke-linejoin="round" d="M53.098 66.547a18.25 18.25 0 0 1-7.709-1.7v8.418a3.664 3.664 0 0 0 3.664 3.664h19.54a3.664 3.664 0 0 0 3.663-3.664v-6.718H53.098z"/>
    </g>
</svg>
