<svg xmlns="http://www.w3.org/2000/svg" width="96" height="96" viewBox="0 0 96 96">
    <g fill="none" fill-rule="evenodd">
        <path d="M0 96h96V0H0z"/>
        <path stroke="#494E80" stroke-linecap="round" stroke-linejoin="round" d="M83.99 46.651c-1.522-11.455-.668-19.242-3.9-23.473a18.32 18.32 0 0 0-1.628-3.17c9.431 2.329 7.128 11.115 9.191 26.643 2.436 18.337 15.466 43.711-1.31 43.711H82.68c16.775 0 3.745-25.374 1.31-43.71z"/>
        <path stroke="#494E80" stroke-linecap="round" stroke-linejoin="round" d="M81.218 87.905c11.917-1.953 3.707-20.72.154-36.608V29.91c0-2.473-.493-4.83-1.381-6.98 3.346 4.055 2.46 11.61 3.998 22.78l-.114.03c.038.303.073.601.114.911 2.437 18.337 15.467 43.711-1.308 43.711h-2.29a9.115 9.115 0 0 0 .827-2.457z"/>
        <path fill="#CCC" d="M15.882 66.18c1.184.24 2.41.368 3.663.368h-3.663v-.368z"/>
        <path stroke="#494E80" d="M15.882 66.18c1.184.24 2.41.368 3.663.368h-3.663v-.368z"/>
        <path stroke="#494E80" stroke-linecap="round" stroke-linejoin="round" d="M15.882 66.18c1.184.24 2.41.368 3.663.368H39.24c10.117 0 18.318-8.201 18.318-18.32a7.327 7.327 0 0 1 7.328-7.326 7.327 7.327 0 0 1 7.327 7.326V86.24c0 5.06-4.1 9.16-9.16 9.16h-38.01c-5.06 0-9.16-4.1-9.16-9.16V66.18z"/>
        <path stroke="#494E80" stroke-linecap="round" stroke-linejoin="round" d="M15.882 86.24v-4.579h47.17v4.58c0 5.059-4.1 9.16-9.159 9.16H25.041c-5.059 0-9.16-4.101-9.16-9.16z"/>
        <path stroke="#494E80" d="M63.053 86.24v-4.579h18.319v4.58a9.16 9.16 0 0 1-9.16 9.16H53.893c5.06 0 9.16-4.101 9.16-9.16z"/>
        <path stroke="#494E80" stroke-linecap="round" stroke-linejoin="round" d="M72.212 81.661v4.58c0 5.058-4.1 9.159-9.16 9.159H59.39"/>
        <path stroke="#494E80" stroke-linecap="round" stroke-linejoin="round" d="M72.212 86.24V29.91c0-10.117-8.202-18.319-18.319-18.319h9.16c10.117 0 18.319 8.202 18.319 18.32v56.33a9.16 9.16 0 0 1-9.16 9.16h-9.16c5.06 0 9.16-4.101 9.16-9.16z"/>
        <path stroke="#494E80" stroke-linecap="round" stroke-linejoin="round" d="M72.212 48.228a7.327 7.327 0 0 0-7.327-7.326 7.327 7.327 0 0 0-7.328 7.326M68.549 48.228a3.664 3.664 0 0 0-7.328 0"/>
        <path stroke="#494E80" stroke-linecap="round" stroke-linejoin="round" d="M23.21 66.547h19.693c10.117 0 18.318-8.2 18.318-18.319"/>
        <path stroke="#494E80" stroke-linecap="round" stroke-linejoin="round" d="M64.885 40.902a7.327 7.327 0 0 0-7.327 7.326c0 10.118-8.202 18.32-18.32 18.32H19.546c-10.117 0-18.319-8.202-18.319-18.32a7.327 7.327 0 0 1 7.327-7.326h56.33z"/>
        <path stroke="#494E80" stroke-linecap="round" stroke-linejoin="round" d="M12.218 40.902h49.003a7.327 7.327 0 0 0-7.328 7.326c0 8.082-6.574 14.656-14.654 14.656H19.545c-8.08 0-14.654-6.574-14.654-14.656a7.326 7.326 0 0 1 7.327-7.326z"/>
        <path stroke="#494E80" stroke-linecap="round" stroke-linejoin="round" d="M12.218 40.902h2.748a7.326 7.326 0 0 0-7.327 7.326c0 8.082 6.574 14.656 14.654 14.656h-2.748c-8.08 0-14.654-6.574-14.654-14.656a7.326 7.326 0 0 1 7.327-7.326zM68.549 52.656v6.411M68.549 62.847v.915"/>
        <path stroke="#494E80" d="M53.48 11.591V6.779c0-.954-.777-1.73-1.731-1.73h-9.782c-.954 0-1.729.776-1.729 1.73v4.812h-4.45V6.779A6.185 6.185 0 0 1 41.969.6h9.78a6.185 6.185 0 0 1 6.18 6.179v4.812h-4.449z"/>
        <path stroke="#494E80" stroke-linecap="round" stroke-linejoin="round" d="M41.968 5.048h3.537c-.954 0-1.73.777-1.73 1.73v4.813h-3.538V6.779c0-.954.777-1.73 1.73-1.73zM51.749.6h3.537a6.186 6.186 0 0 1 6.18 6.179v4.812h-3.538V6.779A6.186 6.186 0 0 0 51.748.6zM19.546 40.902V29.91c0-8.08 6.575-14.654 14.654-14.654h19.693c8.081 0 14.656 6.573 14.656 14.654v10.992H19.546z"/>
        <path stroke="#494E80" stroke-linecap="round" stroke-linejoin="round" d="M19.546 40.902V29.91c0-8.08 6.575-14.654 14.654-14.654h19.693c8.081 0 14.656 6.573 14.656 14.654v10.992H19.546z"/>
        <path stroke="#494E80" stroke-linecap="round" stroke-linejoin="round" d="M42.6 15.255h-8.4c-8.08 0-14.654 6.575-14.654 14.655v10.992h8.4V29.91c0-8.08 6.574-14.655 14.655-14.655z"/>
        <path fill="#515DC6" d="M28.919 40.902l.385-4.404 12.453-5.807 11.253 7.882-.204 2.329z"/>
        <path stroke="#494E80" stroke-linecap="round" stroke-linejoin="round" d="M28.919 40.902l.385-4.404 12.453-5.807 11.253 7.882-.204 2.329z"/>
        <path stroke="#494E80" stroke-linecap="round" stroke-linejoin="round" d="M34.612 21.532l12.538 5.62.807 7.881-6.201-4.341-12.452 5.806-.385 4.404h-4.281L23.476 29.58z"/>
        <path fill="#FF8765" d="M34.612 21.532l12.538 5.62.807 7.881-6.201-4.341-12.452 5.806-.385 4.404h-4.281L23.476 29.58z"/>
        <path stroke="#494E80" stroke-linecap="round" stroke-linejoin="round" d="M34.612 21.532l12.538 5.62.807 7.881-6.201-4.341-12.452 5.806-.385 4.404h-4.281L23.476 29.58z"/>
        <path fill="#6CC7BE" d="M47.957 35.033l-.807-7.88-2.338-1.048 9.164-2.455 9.716 9.714-2.02 7.538h-8.866l.204-2.33z"/>
        <path stroke="#494E80" stroke-linecap="round" stroke-linejoin="round" d="M47.957 35.033l-.807-7.88-2.338-1.048 9.164-2.455 9.716 9.714-2.02 7.538h-8.866l.204-2.33z"/>
        <path stroke="#494E80" d="M19.546 66.547h19.693c10.117 0 18.318-8.2 18.318-18.319a7.327 7.327 0 0 1 7.328-7.326H15.882V29.91c0-10.117 8.2-18.32 18.318-18.32h19.693c10.118 0 18.32 8.203 18.32 18.32v56.33a9.16 9.16 0 0 1-9.16 9.16H25.042c-5.06 0-9.16-4.1-9.16-9.16V66.18c1.183.241 2.409.367 3.664.367z"/>
        <path stroke="#494E80" stroke-linecap="round" stroke-linejoin="round" d="M42.902 66.547c4.73 0 9.04-1.791 12.29-4.734v11.452a3.664 3.664 0 0 1-3.664 3.664h-24.12a3.664 3.664 0 0 1-3.664-3.664v-6.718h19.158z"/>
        <path stroke="#494E80" stroke-linecap="round" stroke-linejoin="round" d="M42.902 66.547c4.73 0 9.04-1.791 12.29-4.734v11.452a3.664 3.664 0 0 1-3.664 3.664h-13.13a3.664 3.664 0 0 1-3.663-3.664v-6.718h8.167z"/>
        <path stroke="#494E80" stroke-linecap="round" stroke-linejoin="round" d="M42.902 66.547a18.25 18.25 0 0 0 7.709-1.7v8.418a3.664 3.664 0 0 1-3.664 3.664h-19.54a3.664 3.664 0 0 1-3.663-3.664v-6.718h19.158z"/>
    </g>
</svg>
