<svg xmlns="http://www.w3.org/2000/svg" width="212" height="212" viewBox="0 0 212 212">
    <g fill="none" fill-rule="evenodd">
        <path d="M0 212h211.999V.001H0z"/>
        <path stroke="#282C4C" stroke-width="3" d="M167.83 146.304H125.04c-21.984 0-39.807-17.822-39.807-39.807 0-8.794-7.13-15.922-15.922-15.922h106.483V66.691c0-21.985-17.822-39.807-39.807-39.807H93.194c-21.985 0-39.806 17.822-39.806 39.807v122.406c0 10.992 8.91 19.903 19.903 19.903h82.599c10.992 0 19.903-8.91 19.903-19.903v-43.59a39.92 39.92 0 0 1-7.962.797z"/>
        <path stroke="#282C4C" stroke-linecap="round" stroke-linejoin="round" stroke-width="3" d="M27.796 103.068c3.306-24.892 1.448-41.811 8.474-51.005a39.647 39.647 0 0 1 3.537-6.888c-20.494 5.06-15.49 24.15-19.974 57.893-5.293 39.848-33.606 94.985 2.846 94.985h7.96c-36.451 0-8.139-55.137-2.843-94.985z"/>
        <path fill="#282C4C" d="M33.817 192.712c-25.896-4.24-8.055-45.022-.334-79.547V66.691a39.667 39.667 0 0 1 3.001-15.17c-7.272 8.815-5.349 25.233-8.688 49.503l.247.064c-.082.66-.159 1.31-.247 1.98-5.295 39.847-33.608 94.985 2.843 94.985h4.975a19.738 19.738 0 0 1-1.797-5.34"/>
        <path stroke="#282C4C" stroke-linecap="round" stroke-linejoin="round" stroke-width="3" d="M33.817 192.712c-25.896-4.24-8.055-45.022-.334-79.547V66.691a39.667 39.667 0 0 1 3.001-15.17c-7.272 8.815-5.349 25.233-8.688 49.503l.247.064c-.082.66-.159 1.31-.247 1.98-5.295 39.847-33.608 94.985 2.843 94.985h4.975a19.738 19.738 0 0 1-1.797-5.34z"/>
        <path fill="#CCC" d="M175.793 145.505a40.002 40.002 0 0 1-7.962.8h7.962v-.8z"/>
        <path stroke="#282C4C" stroke-linecap="round" stroke-linejoin="round" stroke-width="3" d="M175.793 145.505a40.002 40.002 0 0 1-7.962.8h-42.792c-21.984 0-39.807-17.823-39.807-39.808 0-8.794-7.128-15.923-15.922-15.923s-15.923 7.13-15.923 15.923v82.6c0 10.992 8.91 19.903 19.903 19.903h82.6c10.992 0 19.903-8.91 19.903-19.903v-43.592z"/>
        <path fill="#282C4C" d="M135.986 34.845H93.194c-17.56 0-31.846 14.286-31.846 31.846v5.97c0-17.558 14.286-31.844 31.846-31.844h42.792c17.559 0 31.845 14.286 31.845 31.844v-5.97c0-17.56-14.286-31.846-31.845-31.846"/>
        <path stroke="#282C4C" stroke-linecap="round" stroke-linejoin="round" stroke-width="3" d="M135.986 34.845H93.194c-17.56 0-31.846 14.286-31.846 31.846v5.97c0-17.558 14.286-31.844 31.846-31.844h42.792c17.559 0 31.845 14.286 31.845 31.844v-5.97c0-17.56-14.286-31.846-31.845-31.846zM175.793 189.097v-9.952H73.29v9.952C73.29 200.089 82.2 209 93.194 209h62.696c10.992 0 19.903-8.911 19.903-19.903zM53.386 179.145v9.952c0 10.992 8.911 19.903 19.903 19.903h7.962"/>
        <path stroke="#282C4C" stroke-linecap="round" stroke-linejoin="round" stroke-width="3" d="M53.386 189.097V66.691c0-21.985 17.822-39.807 39.808-39.807H73.29c-21.984 0-39.806 17.822-39.806 39.807v122.406c0 10.992 8.911 19.903 19.903 19.903H73.29c-10.992 0-19.903-8.911-19.903-19.903z"/>
        <path stroke="#282C4C" stroke-linecap="round" stroke-linejoin="round" stroke-width="3" d="M53.386 106.497c0-8.794 7.13-15.923 15.923-15.923 8.794 0 15.923 7.13 15.923 15.923M61.348 106.497a7.961 7.961 0 0 1 15.923 0M159.87 146.304h-42.792c-21.985 0-39.807-17.82-39.807-39.807"/>
        <path stroke="#282C4C" stroke-linecap="round" stroke-linejoin="round" stroke-width="3" d="M69.31 90.575c8.793 0 15.922 7.129 15.922 15.923 0 21.985 17.822 39.806 39.806 39.806h42.792c21.986 0 39.808-17.821 39.808-39.806 0-8.794-7.129-15.923-15.923-15.923H69.31z"/>
        <path stroke="#282C4C" stroke-linecap="round" stroke-linejoin="round" stroke-width="3" d="M183.754 90.575H77.272c8.793 0 15.921 7.129 15.921 15.923 0 17.559 14.287 31.846 31.846 31.846h42.791c17.56 0 31.846-14.287 31.846-31.846 0-8.794-7.128-15.923-15.922-15.923z"/>
        <path fill="#282C4C" d="M183.754 90.575h-5.971c8.794 0 15.923 7.129 15.923 15.923 0 17.559-14.286 31.846-31.846 31.846h5.97c17.56 0 31.846-14.287 31.846-31.846 0-8.794-7.128-15.923-15.922-15.923"/>
        <path stroke="#282C4C" stroke-linecap="round" stroke-linejoin="round" stroke-width="3" d="M183.754 90.575h-5.971c8.794 0 15.923 7.129 15.923 15.923 0 17.559-14.286 31.846-31.846 31.846h5.97c17.56 0 31.846-14.287 31.846-31.846 0-8.794-7.128-15.923-15.922-15.923zM61.348 116.118v13.933M61.348 138.26v1.99M94.094 26.884V16.427a3.765 3.765 0 0 1 3.76-3.76h21.254a3.764 3.764 0 0 1 3.76 3.76v10.457h9.666V16.427C132.534 9.023 126.511 3 119.108 3H97.854C90.45 3 84.427 9.023 84.427 16.427v10.457h9.667z"/>
        <path fill="#282C4C" d="M119.108 12.667h-7.686a3.764 3.764 0 0 1 3.759 3.76v10.457h7.687V16.427a3.765 3.765 0 0 0-3.76-3.76"/>
        <path stroke="#282C4C" stroke-linecap="round" stroke-linejoin="round" stroke-width="3" d="M119.108 12.667h-7.686a3.764 3.764 0 0 1 3.759 3.76v10.457h7.687V16.427a3.765 3.765 0 0 0-3.76-3.76z"/>
        <path fill="#282C4C" d="M97.854 3h-7.686c-7.404 0-13.427 6.022-13.427 13.427v10.457h7.686V16.427C84.427 9.022 90.45 3 97.854 3"/>
        <path stroke="#282C4C" stroke-linecap="round" stroke-linejoin="round" stroke-width="3" d="M97.854 3h-7.686c-7.404 0-13.427 6.022-13.427 13.427v10.457h7.686V16.427C84.427 9.022 90.45 3 97.854 3z"/>
        <path fill="#282C4C" d="M135.986 34.845h-.072c8.062 6.04 13.763 15.044 15.459 25.406l7.917 5.722-2.523 24.601h11.064V66.691c0-17.56-14.285-31.846-31.845-31.846"/>
        <path stroke="#282C4C" stroke-linecap="round" stroke-linejoin="round" stroke-width="3" d="M135.986 34.845h-.072c8.062 6.04 13.763 15.044 15.459 25.406l7.917 5.722-2.523 24.601h11.064V66.691c0-17.56-14.285-31.846-31.845-31.846z"/>
        <path stroke="#282C4C" stroke-linecap="round" stroke-linejoin="round" stroke-width="3" d="M167.83 90.575V66.69c0-17.56-14.284-31.845-31.844-31.845H93.194c-17.56 0-31.845 14.286-31.845 31.845v23.884H167.83z"/>
        <path stroke="#282C4C" stroke-linecap="round" stroke-linejoin="round" stroke-width="3" d="M167.83 90.575V66.69c0-17.56-14.284-31.845-31.844-31.845H93.194c-17.56 0-31.845 14.286-31.845 31.845v23.884H167.83z"/>
        <path fill="#5C67E0" d="M147.464 90.575l-.839-9.568-27.058-12.62-24.455 17.126.444 5.062z"/>
        <path stroke="#282C4C" stroke-linecap="round" stroke-linejoin="round" stroke-width="3" d="M147.464 90.575l-.839-9.568-27.058-12.62-24.455 17.126.444 5.062z"/>
        <path fill="#FF8765" d="M135.092 48.487L107.85 60.699l-1.756 17.125 13.475-9.436 27.057 12.619.838 9.568h9.304l2.522-24.602z"/>
        <path stroke="#282C4C" stroke-linecap="round" stroke-linejoin="round" stroke-width="3" d="M135.092 48.487L107.85 60.699l-1.756 17.125 13.475-9.436 27.057 12.619.838 9.568h9.304l2.522-24.602z"/>
        <path stroke="#282C4C" stroke-linecap="round" stroke-linejoin="round" stroke-width="3" d="M119.568 68.388l-13.475 9.436 1.756-17.125 27.243-12.212 16.28 11.764c-1.695-10.362-7.397-19.367-15.458-25.406h-42.72c-17.56 0-31.846 14.286-31.846 31.846v23.884h86.116l-.838-9.569-27.058-12.618z"/>
        <path fill="#6CC7BE" d="M106.093 77.824l1.756-17.125 5.078-2.276-19.915-5.336-21.11 21.11 4.388 16.378h19.265l-.443-5.062z"/>
        <path stroke="#282C4C" stroke-linecap="round" stroke-linejoin="round" stroke-width="3" d="M106.093 77.824l1.756-17.125 5.078-2.276-19.915-5.336-21.11 21.11 4.388 16.378h19.265l-.443-5.062zM117.078 146.304c-10.276 0-19.642-3.895-26.704-10.288V160.9a7.962 7.962 0 0 0 7.962 7.962h52.412a7.962 7.962 0 0 0 7.96-7.962v-14.596h-41.63z"/>
        <path stroke="#282C4C" stroke-linecap="round" stroke-linejoin="round" stroke-width="3" d="M117.078 146.304c-10.276 0-19.642-3.895-26.704-10.288V160.9a7.962 7.962 0 0 0 7.962 7.962h28.528a7.962 7.962 0 0 0 7.96-7.962v-14.596H117.079z"/>
        <path stroke="#282C4C" stroke-linecap="round" stroke-linejoin="round" stroke-width="3" d="M117.078 146.304a39.639 39.639 0 0 1-16.752-3.696V160.9a7.962 7.962 0 0 0 7.96 7.962h42.462a7.962 7.962 0 0 0 7.96-7.962v-14.596h-41.63zM73.29 189.097v-9.952H33.484v9.952c0 10.992 8.912 19.903 19.905 19.903h39.806c-10.993 0-19.903-8.911-19.903-19.903z"/>
    </g>
</svg>
