<svg id="ICC_Logo" xmlns="http://www.w3.org/2000/svg" viewBox="0 0 246.92 90.85"><defs><style>.cls-1{fill:#0b5940;}</style></defs><title>ICC_Horz_RGB_ol</title><path class="cls-1" d="M32.89,117.69a68.2,68.2,0,0,1,18,18.32c1.2,1.75,2.33,3.55,3.42,5.42H69.82q-1.26-1.38-2.58-2.7A85.39,85.39,0,0,0,32.89,117.69Z" transform="translate(-21.02 -98.14)"/><path class="cls-1" d="M34.81,145.7A165.89,165.89,0,0,1,39,165h20.7a100.06,100.06,0,0,0-7.94-19.3Z" transform="translate(-21.02 -98.14)"/><path class="cls-1" d="M33.51,141.43H49.27C41.8,129.38,32,120.49,21,116.29v.76c4,4.58,7.67,11.11,10.77,19.42C32.39,138.07,33,139.73,33.51,141.43Z" transform="translate(-21.02 -98.14)"/><path class="cls-1" d="M56.6,145.7A105.65,105.65,0,0,1,64.16,165H85.22A85.31,85.31,0,0,0,73.5,145.7Z" transform="translate(-21.02 -98.14)"/><path class="cls-1" d="M35.3,169.28H21V189h16C36.76,182.2,36.17,175.6,35.3,169.28Z" transform="translate(-21.02 -98.14)"/><path class="cls-1" d="M21,98.14v12.32A89.54,89.54,0,0,1,70.26,135.7,89.52,89.52,0,0,1,96.06,189h15.81V98.14Zm55.66,29.18H73.05v-21.1h3.63Zm13.76-14.06H86.81v-1.63c0-1.79-.81-2.55-1.75-2.55-1.46,0-1.93.76-1.93,2.34v10.7c0,1.57.47,2.33,1.93,2.33s1.75-.76,1.75-2.13v-2.54h3.63v2.42c0,3-1.76,5.41-5.38,5.41-3.8,0-5.55-2.43-5.55-5.41V111.33c0-3,1.75-5.4,5.55-5.4,3.62,0,5.38,2.63,5.38,5.78Zm13.44,0h-3.63v-1.63c0-1.79-.81-2.55-1.75-2.55-1.46,0-1.93.76-1.93,2.34v10.7c0,1.57.47,2.33,1.93,2.33s1.75-.76,1.75-2.13v-2.54h3.63v2.42c0,3-1.76,5.41-5.38,5.41-3.8,0-5.55-2.43-5.55-5.41V111.33c0-3,1.75-5.4,5.55-5.4,3.62,0,5.38,2.63,5.38,5.78Z" transform="translate(-21.02 -98.14)"/><path class="cls-1" d="M64.13,189a118.72,118.72,0,0,0-3.27-19.71H39.61c.85,6.33,1.43,12.93,1.73,19.71Z" transform="translate(-21.02 -98.14)"/><path class="cls-1" d="M87,169.28H65.29A124.67,124.67,0,0,1,68.42,189H91.76A85.51,85.51,0,0,0,87,169.28Z" transform="translate(-21.02 -98.14)"/><path class="cls-1" d="M27.79,138A70.08,70.08,0,0,0,21,124.14v17.29h8C28.62,140.25,28.21,139.09,27.79,138Z" transform="translate(-21.02 -98.14)"/><path class="cls-1" d="M30.36,145.7H21V165H34.66A154.4,154.4,0,0,0,30.36,145.7Z" transform="translate(-21.02 -98.14)"/><path class="cls-1" d="M125.42,107.61v18.8h-2v-18.8Z" transform="translate(-21.02 -98.14)"/><path class="cls-1" d="M132.27,107.61l4.86,13.86h.06V107.61h2v18.8H137l-5.86-16.35h-.06v16.35h-2v-18.8Z" transform="translate(-21.02 -98.14)"/><path class="cls-1" d="M151.37,107.61v1.72H147.5v17.08h-2V109.33h-3.87v-1.72Z" transform="translate(-21.02 -98.14)"/><path class="cls-1" d="M162.5,107.61v1.72h-6.6v6.41h4.87v1.71H155.9v7.24h6.91v1.72h-8.95v-18.8Z" transform="translate(-21.02 -98.14)"/><path class="cls-1" d="M165.66,107.61h4.55c3,0,5.18,1.77,5.18,4.87a4.52,4.52,0,0,1-3,4.61l3.19,9.32H173.4l-3-8.9-2.67.1v8.8h-2Zm2,8.23h1.78c2.93,0,3.87-1.15,3.87-3.26s-.94-3.25-3.87-3.25H167.7Z" transform="translate(-21.02 -98.14)"/><path class="cls-1" d="M181.73,107.61l4.87,13.86h.05V107.61h2v18.8H186.5l-5.87-16.35h0v16.35h-2v-18.8Z" transform="translate(-21.02 -98.14)"/><path class="cls-1" d="M198.07,107.61l4.16,18.8h-2l-1.13-5.57h-4.81l-1.13,5.57h-2l4.16-18.8Zm-3.54,11.51h4.24L196.68,109h-.05Z" transform="translate(-21.02 -98.14)"/><path class="cls-1" d="M211.86,107.61v1.72H208v17.08h-2V109.33h-3.87v-1.72Z" transform="translate(-21.02 -98.14)"/><path class="cls-1" d="M216.46,107.61v18.8h-2v-18.8Z" transform="translate(-21.02 -98.14)"/><path class="cls-1" d="M225.12,126.68c-3.19,0-5.34-2.66-5.34-9.67s2.15-9.66,5.34-9.66,5.34,2.66,5.34,9.66S228.31,126.68,225.12,126.68Zm0-17.61c-1.83,0-3.3,1.56-3.3,7.94s1.47,7.95,3.3,7.95,3.3-1.57,3.3-7.95S227,109.07,225.12,109.07Z" transform="translate(-21.02 -98.14)"/><path class="cls-1" d="M236.77,107.61l4.87,13.86h.05V107.61h2v18.8h-2.2l-5.86-16.35h0v16.35h-2v-18.8Z" transform="translate(-21.02 -98.14)"/><path class="cls-1" d="M253.1,107.61l4.16,18.8h-2l-1.12-5.57h-4.82l-1.12,5.57h-2l4.17-18.8Zm-3.53,11.51h4.24L251.72,109h-.06Z" transform="translate(-21.02 -98.14)"/><path class="cls-1" d="M261.82,107.61v17.08h6.12v1.72h-8.16v-18.8Z" transform="translate(-21.02 -98.14)"/><path class="cls-1" d="M131,139.32c-.26-3-1.2-4.21-2.8-4.21-2.38,0-3.43,2.08-3.43,7.94s1.05,7.94,3.43,7.94c1.91,0,3-1.3,3.06-4.79h2c-.05,4.17-1.88,6.51-5.1,6.51-3.38,0-5.47-2.55-5.47-9.66s2.09-9.66,5.47-9.66c2.8,0,4.53,1.92,4.84,5.93Z" transform="translate(-21.02 -98.14)"/><path class="cls-1" d="M141.33,152.71c-3.19,0-5.34-2.66-5.34-9.66s2.15-9.66,5.34-9.66,5.34,2.65,5.34,9.66S144.52,152.71,141.33,152.71Zm0-17.6c-1.83,0-3.3,1.56-3.3,7.94s1.47,7.94,3.3,7.94,3.3-1.56,3.3-7.94S143.16,135.11,141.33,135.11Z" transform="translate(-21.02 -98.14)"/><path class="cls-1" d="M149.91,133.65h3.51c4,0,6.38,2.18,6.38,9.4s-2.4,9.4-6.38,9.4h-3.51Zm2,17.08h1.1c3,0,4.71-1.25,4.71-7.68s-1.72-7.68-4.71-7.68H152Z" transform="translate(-21.02 -98.14)"/><path class="cls-1" d="M171.78,133.65v1.72h-6.6v6.4h4.87v1.72h-4.87v7.24h6.91v1.72h-9v-18.8Z" transform="translate(-21.02 -98.14)"/><path class="cls-1" d="M131,165.36c-.26-3-1.2-4.22-2.8-4.22-2.38,0-3.43,2.08-3.43,7.94s1.05,7.95,3.43,7.95c1.91,0,3-1.3,3.06-4.79h2c-.05,4.16-1.88,6.51-5.1,6.51-3.38,0-5.47-2.56-5.47-9.67s2.09-9.66,5.47-9.66c2.8,0,4.53,1.93,4.84,5.94Z" transform="translate(-21.02 -98.14)"/><path class="cls-1" d="M141.33,178.75c-3.19,0-5.34-2.66-5.34-9.67s2.15-9.66,5.34-9.66,5.34,2.66,5.34,9.66S144.52,178.75,141.33,178.75Zm0-17.61c-1.83,0-3.3,1.56-3.3,7.94s1.47,7.95,3.3,7.95,3.3-1.57,3.3-7.95S143.16,161.14,141.33,161.14Z" transform="translate(-21.02 -98.14)"/><path class="cls-1" d="M151.88,159.68v13.81c0,1.9.55,3.54,2.77,3.54s2.78-1.64,2.78-3.54V159.68h2v13.86c0,3-1.42,5.21-4.82,5.21s-4.81-2.19-4.81-5.21V159.68Z" transform="translate(-21.02 -98.14)"/><path class="cls-1" d="M166.25,159.68l4.86,13.86h.06V159.68h2v18.81H171l-5.86-16.36h-.05v16.36h-2V159.68Z" transform="translate(-21.02 -98.14)"/><path class="cls-1" d="M184.59,165.36c-.26-3-1.2-4.22-2.8-4.22-2.38,0-3.42,2.08-3.42,7.94s1,7.95,3.42,7.95c1.91,0,3-1.3,3.07-4.79h2c-.05,4.16-1.89,6.51-5.11,6.51-3.37,0-5.46-2.56-5.46-9.67s2.09-9.66,5.46-9.66c2.8,0,4.53,1.93,4.85,5.94Z" transform="translate(-21.02 -98.14)"/><path class="cls-1" d="M192.09,159.68v18.81h-2V159.68Z" transform="translate(-21.02 -98.14)"/><path class="cls-1" d="M197.91,159.68v17.09H204v1.72h-8.17V159.68Z" transform="translate(-21.02 -98.14)"/><path class="cls-1" d="M205.47,159.68a3.71,3.71,0,1,1-3.78,3.7A3.7,3.7,0,0,1,205.47,159.68Zm0,.61a3.11,3.11,0,1,0,3,3.09A3,3,0,0,0,205.47,160.29Zm-.79,5.24H204v-4.28h1.64c1,0,1.52.39,1.52,1.22a1.11,1.11,0,0,1-1.12,1.18l1.22,1.88h-.72l-1.14-1.86h-.74Zm0-2.39h.78c.8,0,1.06-.24,1.06-.71s-.2-.64-1-.64h-.89Z" transform="translate(-21.02 -98.14)"/></svg>