<svg xmlns="http://www.w3.org/2000/svg" xmlns:xlink="http://www.w3.org/1999/xlink" width="480" height="136" viewBox="0 0 480 136">
    <defs>
        <path id="a" d="M0 108h480V0H0z"/>
    </defs>
    <g fill="none" fill-rule="evenodd">
        <path fill="#282C4C" d="M0 136h480v-2H0z"/>
        <g transform="translate(0 28)">
            <path fill="#282C4C" d="M372.839 66.309a7.608 7.608 0 0 1-7.61-7.608 7.608 7.608 0 0 1 7.61-7.61 7.608 7.608 0 0 1 7.608 7.61 7.608 7.608 0 0 1-7.608 7.608zm24.453 36.462l-8.761-64.36h-31.385l-8.761 64.36h-11.187a3.99 3.99 0 0 0-3.99 3.989v.24h77.358v-.24a3.99 3.99 0 0 0-3.99-3.99h-9.284z"/>
            <path fill="#292D4D" d="M372.839 52.092a6.616 6.616 0 0 0-6.61 6.608 6.616 6.616 0 0 0 6.61 6.609 6.616 6.616 0 0 0 6.608-6.61 6.616 6.616 0 0 0-6.608-6.607zm0 15.217c-4.747 0-8.61-3.862-8.61-8.61 0-4.746 3.863-8.607 8.61-8.607s8.608 3.86 8.608 8.608c0 4.747-3.861 8.609-8.608 8.609zm-38.532 38.69h75.16a2.995 2.995 0 0 0-2.891-2.228h-10.157l-8.761-64.361h-29.64l-8.76 64.36h-12.06a2.995 2.995 0 0 0-2.891 2.23zm77.259 2h-79.357v-1.24a4.995 4.995 0 0 1 4.989-4.988h10.314l8.76-64.361h33.132l8.76 64.36h8.412a4.995 4.995 0 0 1 4.99 4.99V108z"/>
            <path fill="#FFF" d="M438.34 84.697H307.337a2.658 2.658 0 0 1-2.66-2.659V3.66A2.658 2.658 0 0 1 307.337 1H438.34A2.658 2.658 0 0 1 441 3.66v78.378a2.658 2.658 0 0 1-2.66 2.66"/>
            <path fill="#282C4C" d="M307.336 2a1.66 1.66 0 0 0-1.66 1.659v78.379a1.66 1.66 0 0 0 1.66 1.659H438.34A1.66 1.66 0 0 0 440 82.038V3.659A1.66 1.66 0 0 0 438.34 2H307.337zM438.34 85.697H307.336a3.663 3.663 0 0 1-3.66-3.659V3.659A3.663 3.663 0 0 1 307.337 0H438.34A3.664 3.664 0 0 1 442 3.659v78.379a3.663 3.663 0 0 1-3.66 3.659z"/>
            <mask id="b" fill="#fff">
                <use xlink:href="#a"/>
            </mask>
            <path fill="#FFF" d="M309.677 79.697H436V6H309.677z" mask="url(#b)"/>
            <path fill="#282C4C" d="M310.677 78.697H435V7H310.677v71.697zm-2 2H437V5H308.677v75.697z" mask="url(#b)"/>
            <path fill="#282C4C" d="M397.169 40.906c-3.93-3.836-8.12-6.693-12.462-8.492a.449.449 0 0 0-.094-.056c-1.485-.826-2.874-2.005-3.387-2.58-.888-.993-2.757-2.37-3.746-2.59a1.6 1.6 0 0 0-.348-.039c-.91 0-1.93.728-3.22 1.65-.25.177-.508.362-.775.548-.67.466-1.016.662-1.194.743a31.945 31.945 0 0 0-3.239.273c-3.57.487-7.772 3.008-10.84 4.85-1.363.816-2.65 1.588-3.168 1.723l-1.583.416V30.11l22.029-12.738 22.027 12.738v10.796zm-23.892-10.544l.078-.055.077-.055.223-.158c.135-.093.262-.184.393-.278.13-.092.267-.187.392-.277.208-.149.412-.294.609-.432.196-.137.387-.266.568-.385.608-.395 1.128-.663 1.515-.663.054 0 .103.006.15.016.41.092 1.11.512 1.785 1.012.097.072.193.145.288.218a1.32 1.32 0 0 0-.028.142 2.594 2.594 0 0 0-.03.331.889.889 0 0 1-.06.31c-.03.07-.067.106-.102.106a.171.171 0 0 1-.07-.02c-.143-.08-.21-.348-.223-.435l-.034-.252-.227.113c-.096.048-.196.108-.296.166a5.152 5.152 0 0 1-.18.105 1.487 1.487 0 0 1-.17.082.786.786 0 0 0-.06-.33.969.969 0 0 0-.073-.149 1.586 1.586 0 0 0-.366-.422l-.158-.125-.032-.026-.092.224c-.308.745-2.457 1.24-3.742 1.24-.047 0-.092 0-.135-.003zm-9.081 9.331a.757.757 0 0 0-.166-.247h-.002a.468.468 0 0 0-.107-.014c-.018 0-.034.003-.051.005a.94.94 0 0 1 .087-.054.754.754 0 0 0-.475-.164c-.028 0-.054.005-.082.008a1.37 1.37 0 0 1 .366-.193c.115-.039.223-.056.325-.056.148 0 .282.033.4.074.062.021.118.044.17.067.054.022.104.045.15.062.369.15 1.034.518 1.034.518-.066.01-.127.026-.19.048a1.754 1.754 0 0 0-.353.183c-.234.152-.473.345-.772.487a1.905 1.905 0 0 1-.236.095c-.087.03-.188.047-.295.058a.771.771 0 0 0 .197-.877zm17.018-1.202c-.215 0-.473-.1-.676-.2a3.536 3.536 0 0 1-.354-.2 1.06 1.06 0 0 0 .302-.29c.02-.029.039-.056.056-.084a1.708 1.708 0 0 0 .177-.395c.008-.023.013-.045.019-.064l.025-.104c.009-.04.01-.065.01-.065a.726.726 0 0 1-.758.276l-.013-.003a.712.712 0 0 0 .028-.437c-.028-.12-.073-.2-.073-.2a.859.859 0 0 1-.265.276.884.884 0 0 1-.476.132c-.088 0-.163-.01-.218-.023-.054-.01-.086-.02-.086-.02.089-.29.079-.613.047-.867l-.006-.039a3.17 3.17 0 0 0-.064-.335l-.016-.058-.007-.022a.292.292 0 0 1-.031.056c-.164.256-.858.762-1.62 1.17-.458.243-.941.451-1.347.55a2.157 2.157 0 0 1-.476.071c-.12 0-.185-.024-.218-.06a.095.095 0 0 1-.026-.063.213.213 0 0 1 .023-.108.455.455 0 0 1 .038-.069l.038-.055.03-.036s.043-.076.132-.199a3.754 3.754 0 0 1 .556-.61 4.05 4.05 0 0 1 1.584-.874c.119-.034.24-.066.364-.095a7.554 7.554 0 0 1 1.235-.2c.138-.01.275-.017.41-.017.503 0 .979.075 1.375.26.098.046.192.1.28.16a1.645 1.645 0 0 1 .606.756 16.125 16.125 0 0 1 .516 1.481 11.128 11.128 0 0 1 .23.915c.062.313.1.604.1.85a1.627 1.627 0 0 1-.038.386c-.057.218-.177.347-.382.347a.625.625 0 0 1-.153-.02c-.727-.182-1.545-1.138-1.545-1.138.187-.067.355-.194.493-.324a2.59 2.59 0 0 0 .37-.449.48.48 0 0 1-.196.037zm1.955.62c-.131-1.038-.584-2.267-.845-2.91-.28-.69-.988-1.517-2.766-1.517-.824 0-1.628.181-2.16.333a4.669 4.669 0 0 0-.408.14 14.61 14.61 0 0 0-1.713-.343c-1.544-.227-3.997-.592-9.221 1.001s-10.993 4.55-11.903 5.506c-.908.955.09 2.32.91 2.912.817.591 1.68 1.593 1.999.774.317-.82.18-1 1.362-.91 1.18.09 7.767.82 10.857.09 3.089-.727 6.178-1.593 6.769-2.229 0 0-.045.773-.273 1.182 0 0 1.318-.18 1.772-.5 0 0-.046.546-.363.774 0 0 .772.273 1.362-.09 0 0-.5.454-.363.863.136.41 1.408.546 4.088.865 2.43.29 8.219 4.28 12.765 11.767l-.703.406.65-.376-1.31.758a7065.323 7065.323 0 0 0-7.177-4.319c-4.315-2.594-11.356-5.369-17.535-5.597-4.44-.164-8.013-.42-9.671-.553a60.15 60.15 0 0 0-.822-.129 77.388 77.388 0 0 1-3.671-.618c1.31.113 2.835.204 3.998.162.47-.017.923-.039 1.356-.06 1.866-.09 3.339-.162 4.355.225a.273.273 0 0 0 .193-.51c-1.121-.427-2.644-.354-4.573-.26-.433.02-.883.043-1.351.06-1.777.065-4.244-.129-5.664-.277a17.186 17.186 0 0 1-1.204-.154l-.228-.042-.021-.009a6.682 6.682 0 0 1-.892-.438c.157-.456.612-1.78.892-2.837.158-.598.262-1.112.223-1.33-.026-.138-.108-.305-.223-.482-.342-.526-.972-1.154-1.261-1.429l1.26-.334 1.454-.383 1.813-.476c1.888-.494 8.763-5.85 13.9-6.553a32.104 32.104 0 0 1 2.19-.22 2.584 2.584 0 0 0 .433-.015c.453.005 1.16.027 2.048.096a58.35 58.35 0 0 1 3.524.456c.6.096 1.598.313 2.697.571 2.38.627 4.883 1.602 7.008 3.117 5.515 3.932 8.676 6.825 8.858 7.235.175.394-9.098-.479-12.415-3.393zm-8.027 29.214l-22.03-12.738v-8.644c1.317.336 2.999.635 5.224.966l.045.007.045.007c6.159.927 8.924 2.4 9.12 2.507a32.81 32.81 0 0 1 11.1 11.595 31.493 31.493 0 0 1 1.612 3.288l.017.043-5.133 2.97zm22.754-39.477L375.868 16.11a1.457 1.457 0 0 0-1.454 0l-22.027 12.738a1.461 1.461 0 0 0-.727 1.262v7.625c-1.237.326-2.05.542-2.137.566-1.246.324-2 .866-2.316 1.658-.467 1.176.219 2.535.952 3.71.85 1.361 1.746 2.192 3.5 2.833v9.085c0 .52.279 1.001.728 1.261l22.027 12.74a1.457 1.457 0 0 0 1.454 0l22.028-12.74c.449-.26.726-.74.726-1.26V30.11a1.46 1.46 0 0 0-.726-1.262zM320.677 46.974v3.875l8-8-8-8v3.875h-30v8.25z" mask="url(#b)"/>
            <path fill="#292D4D" d="M291.677 45.974h29a1 1 0 0 1 1 1v1.46l5.586-5.585-5.586-5.586v1.46a1 1 0 0 1-1 1h-29v6.25zm29 5.875a.999.999 0 0 1-1-1v-2.875h-29a1 1 0 0 1-1-1v-8.25a1 1 0 0 1 1-1h29v-2.875a.999.999 0 0 1 1.707-.707l8 8a.999.999 0 0 1 0 1.414l-8 8a1 1 0 0 1-.707.293z" mask="url(#b)"/>
            <path fill="#FF8765" d="M152.518 26.407l-24.08-10.854-24.08 10.854a5.46 5.46 0 0 0-3.216 4.977v22.93a5.46 5.46 0 0 0 3.216 4.976l24.08 10.854 24.08-10.854a5.46 5.46 0 0 0 3.217-4.977V31.384a5.46 5.46 0 0 0-3.217-4.977" mask="url(#b)"/>
            <path fill="#282C4C" d="M128.438 16.65l-23.67 10.67a4.466 4.466 0 0 0-2.627 4.063v22.93a4.467 4.467 0 0 0 2.627 4.065l23.67 10.67 23.669-10.67a4.466 4.466 0 0 0 2.627-4.065v-22.93a4.465 4.465 0 0 0-2.627-4.064l-23.67-10.67zm0 54.591l-24.491-11.039a6.472 6.472 0 0 1-3.806-5.889v-22.93a6.468 6.468 0 0 1 3.805-5.887l24.492-11.04 24.49 11.04a6.472 6.472 0 0 1 3.806 5.887v22.93a6.473 6.473 0 0 1-3.805 5.89L128.437 71.24z" mask="url(#b)"/>
            <path fill="#282C4C" d="M122.076 46.567l1.524 6.237c.076.306-.114.556-.42.556h-1.872c-.305 0-.617-.25-.69-.556l-4.868-19.91c-.075-.307.114-.557.42-.557h1.872c.305 0 .616.25.691.556l.286 1.17c7.222 2.537 11.456-4.336 19.067-.574l3.056 12.505c-7.61-3.762-11.844 3.11-19.066.573" mask="url(#b)"/>
            <path fill="#5C67E0" d="M214.66 26.407l-24.08-10.854-24.082 10.854a5.46 5.46 0 0 0-3.215 4.977v22.93a5.46 5.46 0 0 0 3.215 4.976l24.081 10.854 24.08-10.854a5.46 5.46 0 0 0 3.216-4.977V31.384a5.46 5.46 0 0 0-3.216-4.977" mask="url(#b)"/>
            <path fill="#282C4C" d="M190.58 16.65l-23.67 10.67a4.465 4.465 0 0 0-2.627 4.063v22.93a4.467 4.467 0 0 0 2.626 4.065l23.67 10.67 23.67-10.67a4.466 4.466 0 0 0 2.626-4.065v-22.93a4.464 4.464 0 0 0-2.627-4.064L190.58 16.65zm0 54.591l-24.493-11.039a6.473 6.473 0 0 1-3.804-5.889v-22.93a6.469 6.469 0 0 1 3.804-5.887l24.492-11.04 24.491 11.04a6.47 6.47 0 0 1 3.805 5.887v22.93a6.471 6.471 0 0 1-3.805 5.89L190.58 71.24z" mask="url(#b)"/>
            <path fill="#282C4C" d="M191.088 43.986a1.8 1.8 0 0 1-1.018 0l-7.888-2.35c-.943 1.884-1.436 4.015-1.436 6.238 0 .46.023.922.068 1.384a9.256 9.256 0 0 1 2.356-.303c2.789 0 5.428 1.243 7.409 3.413 1.982-2.17 4.62-3.413 7.409-3.413a9.27 9.27 0 0 1 2.357.303c.045-.462.067-.924.067-1.384 0-2.223-.493-4.354-1.435-6.239l-7.89 2.351zm13.885-6.369l-14.394-4.288-14.393 4.288 14.393 4.287 14.394-4.287z" mask="url(#b)"/>
            <path fill="#6CC7BE" d="M90.377 26.407l-24.08-10.854-24.081 10.854A5.46 5.46 0 0 0 39 31.384v22.93a5.46 5.46 0 0 0 3.216 4.976l24.081 10.854 24.08-10.854a5.46 5.46 0 0 0 3.216-4.977V31.384a5.46 5.46 0 0 0-3.216-4.977" mask="url(#b)"/>
            <path fill="#282C4C" d="M66.297 16.65l-23.67 10.67A4.466 4.466 0 0 0 40 31.382v22.93a4.467 4.467 0 0 0 2.627 4.065l23.67 10.67 23.669-10.67a4.467 4.467 0 0 0 2.627-4.065v-22.93a4.468 4.468 0 0 0-2.627-4.065L66.296 16.65zm0 54.591L41.805 60.202A6.472 6.472 0 0 1 38 54.313v-22.93a6.468 6.468 0 0 1 3.805-5.887l24.492-11.04 24.49 11.04a6.468 6.468 0 0 1 3.806 5.887v22.93a6.47 6.47 0 0 1-3.805 5.888l-24.491 11.04z" mask="url(#b)"/>
            <path fill="#282C4C" d="M61.951 53.712h8.69a4.346 4.346 0 0 0-8.69 0" mask="url(#b)"/>
            <path fill="#282C4C" d="M76.99 37.176a2.174 2.174 0 0 1-2.003 1.327v-4.345a2.176 2.176 0 0 1 2.002 3.018zm-19.385 1.327a2.173 2.173 0 0 1 0-4.345v4.345zm17.382-6.518H57.605a4.345 4.345 0 0 0 0 8.69 8.692 8.692 0 1 0 17.382 0 4.346 4.346 0 0 0 0-8.69z" mask="url(#b)"/>
            <path fill="#CE4C66" d="M276.8 26.407l-24.08-10.854-24.08 10.854a5.46 5.46 0 0 0-3.215 4.977v22.93a5.46 5.46 0 0 0 3.215 4.976l24.08 10.854L276.8 59.29a5.46 5.46 0 0 0 3.217-4.977V31.384a5.46 5.46 0 0 0-3.216-4.977" mask="url(#b)"/>
            <path fill="#282C4C" d="M252.72 16.65l-23.67 10.67a4.465 4.465 0 0 0-2.625 4.063v22.93a4.467 4.467 0 0 0 2.626 4.065l23.67 10.67 23.669-10.67a4.467 4.467 0 0 0 2.627-4.065v-22.93a4.468 4.468 0 0 0-2.627-4.065L252.72 16.65zm0 54.591L228.23 60.202a6.473 6.473 0 0 1-3.804-5.889v-22.93a6.469 6.469 0 0 1 3.804-5.887l24.492-11.04 24.49 11.04a6.468 6.468 0 0 1 3.806 5.887v22.93a6.47 6.47 0 0 1-3.805 5.888l-24.491 11.04z" mask="url(#b)"/>
            <path fill="#282C4C" d="M260.48 53.79l-7.76-5.639-7.76 5.638 2.964-9.12-7.758-5.639h9.59l2.964-9.122 2.965 9.122h9.59l-7.76 5.638z" mask="url(#b)"/>
        </g>
    </g>
</svg>
