<svg xmlns="http://www.w3.org/2000/svg" xmlns:xlink="http://www.w3.org/1999/xlink" width="704" height="400" viewBox="0 0 704 400">
    <defs>
        <path id="a" d="M0 .308h704V45.44H0z"/>
        <path id="c" d="M0 .29h704v41.15H0z"/>
    </defs>
    <g fill="none" fill-rule="evenodd">
        <path fill="#CCC" d="M0 123.063h1.151c13.035 0 25.667-4.043 36.594-11.148 20.156-13.11 44.676-16.747 67.254-10.91 14.115 3.65 27.47 11.002 38.525 22.058 16.503 16.502 43.259 16.502 59.762 0 16.502-16.502 43.258-16.502 59.761 0 8.229 8.228 19.007 12.352 29.792 12.374h118.322c10.785-.022 21.563-4.146 29.792-12.375a42.088 42.088 0 0 1 26.093-12.207c12.04-1.077 24.453 2.992 33.668 12.207 16.503 16.504 43.259 16.504 59.762 0 8.251-8.25 17.784-14.438 27.958-18.564 22.244-9.022 47.551-8.18 69.224 2.52a83.705 83.705 0 0 1 8.245 4.668c11.384 7.323 24.561 11.376 38.097 11.376V360c0 22.091-17.909 40-40 40H40c-22.091 0-40-17.909-40-40V123.062z"/>
        <g transform="translate(0 98)">
            <mask id="b" fill="#fff">
                <use xlink:href="#a"/>
            </mask>
            <path fill="#E6E6E6" d="M665.903 13.687a83.835 83.835 0 0 0-8.246-4.668c-21.672-10.702-46.98-11.543-69.223-2.522-10.174 4.127-19.707 10.314-27.959 18.566-16.502 16.503-43.259 16.503-59.76 0-9.216-9.215-21.629-13.284-33.668-12.208a42.089 42.089 0 0 0-26.094 12.207c-8.229 8.23-19.008 12.354-29.793 12.375H292.84c-10.786-.021-21.564-4.145-29.793-12.374-16.503-16.503-43.259-16.503-59.762 0-16.502 16.503-43.258 16.503-59.76 0-11.056-11.055-24.412-18.407-38.527-22.057C82.421-2.832 57.901.805 37.744 13.915 26.818 21.02 14.185 25.063 1.151 25.063H.001v8h1.15c13.034 0 25.667-4.043 36.593-11.149 20.157-13.11 44.677-16.746 67.254-10.909 14.115 3.65 27.471 11.002 38.526 22.058 16.503 16.502 43.26 16.502 59.761 0 16.503-16.503 43.26-16.503 59.762 0 8.23 8.228 19.007 12.352 29.792 12.374H411.16c10.785-.021 21.564-4.145 29.793-12.374a42.089 42.089 0 0 1 26.094-12.209c12.04-1.075 24.452 2.994 33.667 12.209 16.502 16.502 43.26 16.502 59.761 0 8.252-8.252 17.785-14.44 27.96-18.566 22.242-9.02 47.55-8.18 69.222 2.521a83.835 83.835 0 0 1 8.246 4.668C677.287 29.01 690.464 33.063 704 33.063v-8c-13.536 0-26.713-4.053-38.097-11.376" mask="url(#b)"/>
        </g>
        <g transform="translate(0 96)">
            <mask id="d" fill="#fff">
                <use xlink:href="#c"/>
            </mask>
            <path fill="#B3B3B3" d="M545.914 34.424a40.245 40.245 0 0 1-5.423 1.786 2.002 2.002 0 0 0 .488 3.94c.162 0 .327-.02.49-.061a44.375 44.375 0 0 0 5.965-1.966 1.998 1.998 0 1 0-1.52-3.7zm107.68-27.45a86.658 86.658 0 0 0-5.746-2.161h-.003a86.717 86.717 0 0 0-60.162 1.83c-10.733 4.353-20.363 10.748-28.621 19.006a40.321 40.321 0 0 1-8.533 6.52 2.002 2.002 0 0 0 .993 3.738c.336 0 .677-.084.989-.262a44.36 44.36 0 0 0 9.379-7.168c7.878-7.877 17.062-13.976 27.296-18.126a82.731 82.731 0 0 1 62.869.314 2 2 0 0 0 1.539-3.691zM534.868 37.212a40.11 40.11 0 0 1-5.71.202 2.001 2.001 0 0 0-.142 3.998 44.915 44.915 0 0 0 6.274-.221 2.002 2.002 0 0 0 1.778-2.202c-.117-1.098-1.101-1.88-2.2-1.777zm-11.391-.401a40.161 40.161 0 0 1-5.535-1.401 2 2 0 1 0-1.254 3.799 44.152 44.152 0 0 0 6.088 1.539 2 2 0 0 0 .701-3.937zm-10.814-3.572a40.236 40.236 0 0 1-4.917-2.903 2 2 0 1 0-2.274 3.291 43.939 43.939 0 0 0 5.408 3.193 1.999 1.999 0 0 0 1.783-3.581zm190.27-8.185c-1.104-.034-2.013.863-2.031 1.968a2 2 0 0 0 1.968 2.032c.377.006.753.009 1.13.009v-4c-.355 0-.711-.003-1.066-.01zm-200.804.595a44.743 44.743 0 0 0-3.348-3.028 2 2 0 0 0-2.528 3.1 40.643 40.643 0 0 1 3.047 2.756c.418.418.843.826 1.273 1.223.385.356.872.532 1.357.532a2 2 0 0 0 1.358-3.469 41.82 41.82 0 0 1-1.16-1.114zm194.994-.946a66.83 66.83 0 0 1-5.76-.858 2.004 2.004 0 0 0-2.343 1.583 2.002 2.002 0 0 0 1.583 2.345c2.02.39 4.075.697 6.105.909a2.002 2.002 0 0 0 .415-3.979zm-11.426-2.213a68.59 68.59 0 0 1-5.532-1.832 2 2 0 1 0-1.417 3.74 73.187 73.187 0 0 0 5.855 1.94 2.001 2.001 0 0 0 1.094-3.848zm-21.14-9.991a86.37 86.37 0 0 0-5.382-2.96 2 2 0 1 0-1.8 3.573 81.98 81.98 0 0 1 5.13 2.82 2 2 0 0 0 2.052-3.434zm10.246 5.867a71.807 71.807 0 0 1-5.156-2.73 2 2 0 0 0-2.015 3.455 75.253 75.253 0 0 0 5.447 2.885 2 2 0 0 0 1.724-3.61zM17.29 22.922a64.06 64.06 0 0 1-5.681 1.246 1.999 1.999 0 0 0 .336 3.97c.113 0 .227-.008.342-.028 2.01-.345 4.04-.79 6.035-1.323a2 2 0 0 0-1.032-3.865zm21.143-9.81c-.596.368-1.19.743-1.778 1.125-1.07.696-2.17 1.37-3.27 2.002a2 2 0 0 0 1.994 3.467 73.892 73.892 0 0 0 3.455-2.115 86.472 86.472 0 0 1 1.699-1.074 2 2 0 0 0-2.1-3.405zm10.886-5.676a86.26 86.26 0 0 0-5.544 2.642 2 2 0 0 0 1.848 3.547 82.48 82.48 0 0 1 5.287-2.52 2 2 0 0 0-1.591-3.67zM28.215 18.932a67.058 67.058 0 0 1-5.377 2.235 2.002 2.002 0 0 0 .687 3.88c.228 0 .46-.04.686-.122a71.555 71.555 0 0 0 5.699-2.37 2 2 0 0 0-1.695-3.623zm202.659-6.188a44.717 44.717 0 0 0-6.23.766c-8.645 1.688-16.52 5.886-22.772 12.139-7.604 7.603-17.713 11.79-28.467 11.79-10.753 0-20.863-4.187-28.466-11.79-10.925-10.925-24.564-18.733-39.44-22.58-16.772-4.336-34.26-3.587-50.572 2.167a1.998 1.998 0 0 0-1.221 2.55 1.997 1.997 0 0 0 2.55 1.22c15.56-5.485 32.242-6.198 48.242-2.063 14.186 3.667 27.192 11.114 37.613 21.534 8.359 8.359 19.472 12.963 31.294 12.963s22.936-4.604 31.295-12.963c5.688-5.688 12.85-9.506 20.71-11.041a40.692 40.692 0 0 1 5.67-.698 2 2 0 0 0-.207-3.994zM5.843 24.883c-1.557.119-3.136.18-4.691.18H0v4h1.152a65.7 65.7 0 0 0 4.996-.192 2 2 0 0 0-.305-3.988zm268.242 7.887a39.927 39.927 0 0 1-4.84-3.027 2 2 0 0 0-2.358 3.233 44.265 44.265 0 0 0 5.326 3.329 1.996 1.996 0 0 0 2.703-.832 1.998 1.998 0 0 0-.831-2.703zm219.563-13.762a44.18 44.18 0 0 0-5.596-2.848 2.001 2.001 0 0 0-1.555 3.686 40.065 40.065 0 0 1 5.088 2.588 1.999 1.999 0 0 0 2.063-3.426zm-11.54-4.87a44.563 44.563 0 0 0-15.239-1.277 44.305 44.305 0 0 0-27.33 12.788c-7.58 7.58-17.66 11.766-28.378 11.789H292.844a40.157 40.157 0 0 1-15.106-2.962 2 2 0 1 0-1.506 3.705 44.145 44.145 0 0 0 16.608 3.257h118.325c11.789-.025 22.87-4.628 31.203-12.961a40.296 40.296 0 0 1 24.857-11.63 40.455 40.455 0 0 1 8.255.106h.006c1.887.219 3.774.575 5.607 1.055a2 2 0 0 0 1.015-3.869zm-217.646 11.51a44.704 44.704 0 0 0-4.23-3.727 1.998 1.998 0 0 0-2.804.357 1.999 1.999 0 0 0 .356 2.805 40.943 40.943 0 0 1 3.85 3.395c.152.15.305.302.459.45a1.998 1.998 0 0 0 2.782-2.873l-.413-.406zm-21.115-11.782a44.952 44.952 0 0 0-6.196-1.002 2 2 0 1 0-.359 3.985c1.893.17 3.789.476 5.64.912a2 2 0 0 0 .915-3.895zm11.663 4.575a43.737 43.737 0 0 0-5.668-2.705 2 2 0 1 0-1.46 3.724 40.057 40.057 0 0 1 5.152 2.457 1.999 1.999 0 0 0 1.976-3.476z" mask="url(#d)"/>
        </g>
        <path fill="#E6E6E6" d="M476.637 322.938c0-10.236-6.926-18.854-16.347-21.424l-.055-.024c-4.657-2.928-11.623-4.923-20.6-6.505-18.05-3.685-50.536-6.146-87.635-6.146-37.095 0-69.58 2.46-87.631 6.146-8.978 1.582-15.946 3.577-20.605 6.505l-.055.024c-9.42 2.57-16.345 11.188-16.345 21.423a22.13 22.13 0 0 1-1.298 7.423 23.184 23.184 0 0 1 7.53-7.678c2.716-1.704 6.157-1.483 8.712.454 6.35 4.818 18.203 7.307 34.492 9.344 20.158 2.52 46.864 3.906 75.199 3.906 28.337 0 55.043-1.387 75.2-3.906 16.29-2.037 28.142-4.526 34.494-9.344 2.554-1.937 5.996-2.158 8.712-.454a23.191 23.191 0 0 1 7.53 7.676 22.12 22.12 0 0 1-1.298-7.42"/>
        <path fill="#B3B3B3" d="M205.16 347.14a2 2 0 0 1 0-4c11.14 0 20.204-9.062 20.204-20.202a2 2 0 1 1 4 0c0 13.346-10.858 24.203-24.204 24.203"/>
        <path fill="#B3B3B3" d="M227.363 324.938a2 2 0 0 1-2-2c0-10.715 7.182-20.276 17.464-23.253 3.544-1.026 6.757-2.16 9.823-3.468 13.167-5.608 53.093-9.377 99.35-9.377 6.053 0 12.124.067 18.043.198a2 2 0 1 1-.043 3.999h-.045A811.353 811.353 0 0 0 352 290.84c-45.054 0-85.263 3.725-97.782 9.058-3.216 1.37-6.578 2.557-10.279 3.628-8.582 2.484-14.576 10.467-14.576 19.411a2 2 0 0 1-2 2M440.191 297.094a2.05 2.05 0 0 1-.409-.042c-.927-.192-1.893-.383-2.899-.57a2 2 0 0 1 .73-3.933c1.035.192 2.03.389 2.983.587a2 2 0 0 1-.405 3.958M384.729 291.506a2 2 0 0 1-7.863-2.291c.038-1.105.993-1.992 2.067-1.931 1.984.068 3.944.143 5.879.224a2 2 0 0 1-.083 3.998m11.718.595a1.63 1.63 0 0 1-.121-.004 650.852 650.852 0 0 0-5.839-.323 2.001 2.001 0 0 1 .202-3.995c1.991.1 3.95.209 5.876.326a2 2 0 0 1-.118 3.996m11.705.826c-.055 0-.111-.002-.166-.007a486.625 486.625 0 0 0-5.826-.442 2 2 0 0 1-1.855-2.135c.077-1.102 1.031-1.914 2.134-1.856 2.001.14 3.959.29 5.874.447a2 2 0 0 1-.161 3.993m11.68 1.11a2.37 2.37 0 0 1-.221-.01 379.61 379.61 0 0 0-5.807-.594 2.001 2.001 0 0 1-1.802-2.181 2.013 2.013 0 0 1 2.18-1.802c2.015.192 3.971.392 5.866.6a2 2 0 0 1-.216 3.988m11.635 1.507c-.1 0-.201-.007-.303-.022a243.235 243.235 0 0 0-5.764-.807 2 2 0 0 1-1.729-2.237 1.99 1.99 0 0 1 2.238-1.73c2.018.258 3.988.534 5.857.819a2.001 2.001 0 0 1-.299 3.977"/>
        <path fill="#B3B3B3" d="M373.003 291.11c-.018 0-.036 0-.054-.002-.992-.026-1.99-.05-2.993-.07a2.002 2.002 0 0 1-1.957-2.044c.024-1.106.97-1.946 2.042-1.957 1.01.022 2.015.047 3.014.073a2 2 0 0 1-.052 3.999M476.637 324.938a2 2 0 0 1-2-2c0-8.945-5.994-16.928-14.576-19.411-3.701-1.072-7.063-2.258-10.28-3.63-2.313-.984-5.678-1.942-10-2.844a2 2 0 1 1 .817-3.916c4.579.955 8.196 1.991 10.75 3.08 3.068 1.308 6.28 2.442 9.825 3.468 10.282 2.976 17.464 12.538 17.464 23.252a2 2 0 0 1-2 2"/>
        <path fill="#B3B3B3" d="M498.84 347.14c-13.346 0-24.204-10.856-24.204-24.202a2 2 0 0 1 4 0c0 11.14 9.064 20.203 20.204 20.203a2 2 0 0 1 0 4"/>
        <path fill="#B3B3B3" d="M476.637 324.938a2 2 0 0 1-2-2c0-8.945-5.994-16.928-14.576-19.411a2 2 0 1 1 1.112-3.842c10.282 2.976 17.464 12.538 17.464 23.252a2 2 0 0 1-2 2"/>
        <path fill="#B3B3B3" d="M498.84 347.14c-13.346 0-24.204-10.856-24.204-24.202a2 2 0 0 1 4 0c0 11.14 9.064 20.203 20.204 20.203a2 2 0 0 1 0 4"/>
        <path fill="#CCC" d="M456.505 311.317c0 7.214-46.789 13.063-104.505 13.063-57.717 0-104.506-5.849-104.506-13.063 0-7.215 46.79-13.063 104.506-13.063s104.505 5.848 104.505 13.063"/>
        <path fill="#B3B3B3" d="M249.532 311.317c.413.59 4.023 4.29 30.451 7.452 19.462 2.329 45.038 3.61 72.017 3.61 26.978 0 52.555-1.281 72.016-3.61 26.43-3.163 30.04-6.863 30.452-7.452-.413-.589-4.022-4.29-30.45-7.452-19.462-2.329-45.039-3.612-72.018-3.612-26.98 0-52.556 1.284-72.018 3.613-26.428 3.161-30.037 6.863-30.45 7.452zM352 326.38c-27.995 0-54.326-1.365-74.145-3.841-28.682-3.585-32.36-7.88-32.36-11.221 0-3.342 3.678-7.637 32.36-11.222 19.818-2.478 46.15-3.843 74.145-3.843 27.995 0 54.327 1.365 74.144 3.843 28.683 3.584 32.361 7.88 32.361 11.221s-3.678 7.637-32.36 11.221c-19.819 2.477-46.15 3.841-74.145 3.841z"/>
        <path fill="#B3B3B3" d="M252.869 315.462c13.863 5.183 53.005 8.918 99.13 8.918 46.127 0 85.27-3.735 99.133-8.918-13.863-5.183-53.006-8.92-99.132-8.92-46.126 0-85.268 3.737-99.131 8.92"/>
        <path fill="#B3B3B3" d="M259.94 315.462c17.587 4.207 52.808 6.918 92.06 6.918s74.474-2.711 92.06-6.918c-17.587-4.207-52.81-6.92-92.06-6.92s-74.473 2.713-92.06 6.92M352 326.38c-45.241 0-85.361-3.635-99.832-9.045a2 2 0 0 1 0-3.746c14.472-5.411 54.591-9.046 99.832-9.046 45.24 0 85.36 3.635 99.832 9.046a2 2 0 0 1 0 3.746c-14.47 5.41-54.59 9.045-99.832 9.045"/>
        <path fill="#B3B3B3" d="M352 233.975c-25.343 0-45.888 20.544-45.888 45.888v43.193c13.853.848 29.425 1.324 45.888 1.324 16.463 0 32.035-.476 45.888-1.324v-43.193c0-25.344-20.545-45.888-45.888-45.888"/>
        <path fill="#B3B3B3" d="M308.112 321.172c13.785.802 28.54 1.208 43.888 1.208 15.348 0 30.103-.406 43.887-1.208v-41.31c0-24.2-19.688-43.887-43.887-43.887-24.2 0-43.888 19.687-43.888 43.887v41.31zM352 326.38c-16.13 0-31.61-.447-46.01-1.328a2 2 0 0 1-1.878-1.996v-43.194c0-26.405 21.482-47.887 47.888-47.887 26.405 0 47.887 21.482 47.887 47.887v43.194a2 2 0 0 1-1.878 1.996c-14.4.88-29.88 1.328-46.009 1.328z"/>
        <path fill="#FFF" d="M352 233.975c-25.343 0-45.888 20.544-45.888 45.888 0 2.702.247 5.345.696 7.92 11.399 1.722 21.417 7.64 28.441 16.129a11.568 11.568 0 0 0 7.475 4.092 75.116 75.116 0 0 0 18.552 0 11.571 11.571 0 0 0 7.475-4.091c7.024-8.49 17.042-14.408 28.441-16.13.449-2.575.696-5.218.696-7.92 0-25.344-20.545-45.888-45.888-45.888"/>
        <path fill="#B3B3B3" d="M308.557 286.047c11.038 2.017 21.018 7.871 28.232 16.59a9.514 9.514 0 0 0 6.181 3.382 73.532 73.532 0 0 0 18.06 0 9.512 9.512 0 0 0 6.181-3.383c7.213-8.718 17.193-14.57 28.231-16.589.296-2.075.445-4.15.445-6.185 0-24.2-19.688-43.888-43.887-43.888-24.2 0-43.888 19.688-43.888 43.888 0 2.035.15 4.11.445 6.185zM352 310.58c-3.169 0-6.373-.198-9.523-.59a13.497 13.497 0 0 1-8.77-4.804c-6.9-8.34-16.56-13.818-27.199-15.425a2.001 2.001 0 0 1-1.67-1.635 48.32 48.32 0 0 1-.726-8.263c0-26.405 21.482-47.888 47.888-47.888 26.405 0 47.887 21.483 47.887 47.888 0 2.721-.244 5.5-.725 8.263a2.001 2.001 0 0 1-1.67 1.635c-10.64 1.607-20.3 7.086-27.2 15.426a13.495 13.495 0 0 1-8.769 4.802 77.23 77.23 0 0 1-9.523.591z"/>
        <path fill="#E6E6E6" d="M391.523 252.944a7.698 7.698 0 0 1-10.886-10.886c3.006-3.006 12.067-7.192 15.073-4.186 3.005 3.006-1.18 12.066-4.187 15.072"/>
        <path fill="#B3B3B3" d="M392.696 238.85c-2.77 0-7.97 1.949-10.644 4.623a5.705 5.705 0 0 0 0 8.058 5.707 5.707 0 0 0 8.058 0c3.385-3.386 5.609-10.822 4.186-12.244-.3-.3-.864-.437-1.6-.437m-6.615 18.345a9.667 9.667 0 0 1-6.857-2.836c-3.781-3.781-3.781-9.933 0-13.714 3.373-3.374 13.634-8.453 17.9-4.187 4.267 4.267-.813 14.528-4.186 17.9a9.669 9.669 0 0 1-6.857 2.837"/>
        <path fill="#FFF" d="M391.523 252.944a7.698 7.698 0 0 1-10.886-10.886c3.006-3.006 12.067-7.192 15.073-4.186 3.005 3.006-1.18 12.066-4.187 15.072"/>
        <path fill="#B3B3B3" d="M392.696 238.85c-2.77 0-7.97 1.949-10.644 4.623a5.705 5.705 0 0 0 0 8.058 5.707 5.707 0 0 0 8.058 0c3.385-3.386 5.609-10.822 4.186-12.244-.3-.3-.864-.437-1.6-.437m-6.615 18.345a9.667 9.667 0 0 1-6.857-2.836c-3.781-3.781-3.781-9.933 0-13.714 3.373-3.374 13.634-8.453 17.9-4.187 4.267 4.267-.813 14.528-4.186 17.9a9.669 9.669 0 0 1-6.857 2.837"/>
        <path fill="#B3B3B3" d="M386.993 255.139a7.66 7.66 0 0 0 4.53-2.194c2.57-2.57 6-9.562 5.063-13.416-3.573.827-7.614 3.078-9.435 4.899-2.95 2.949-2.998 7.694-.158 10.71"/>
        <path fill="#B3B3B3" d="M394.65 242.224c-2.538.982-4.94 2.472-6.084 3.618a5.659 5.659 0 0 0-.771 7.09 5.62 5.62 0 0 0 2.314-1.401c1.763-1.763 4.038-6.094 4.542-9.307m-7.658 14.915a2.003 2.003 0 0 1-1.456-.63 9.646 9.646 0 0 1 .2-13.495c2.244-2.245 6.714-4.581 10.398-5.434a1.997 1.997 0 0 1 2.394 1.477c1.142 4.697-2.61 12.32-5.591 15.302a9.597 9.597 0 0 1-5.708 2.766 2.093 2.093 0 0 1-.237.014"/>
        <path fill="#E6E6E6" d="M312.477 252.944a7.698 7.698 0 0 0 10.886-10.886c-3.007-3.006-12.067-7.192-15.073-4.186-3.006 3.006 1.18 12.066 4.187 15.072"/>
        <path fill="#B3B3B3" d="M311.304 238.85c-.737 0-1.301.138-1.6.437-1.423 1.422.802 8.858 4.187 12.244a5.707 5.707 0 0 0 8.058 0 5.705 5.705 0 0 0 0-8.058c-2.675-2.674-7.876-4.623-10.645-4.623m6.616 18.345a9.667 9.667 0 0 1-6.857-2.836c-3.374-3.373-8.454-13.634-4.187-17.901 4.265-4.266 14.527.813 17.9 4.187 3.782 3.78 3.782 9.933 0 13.714a9.669 9.669 0 0 1-6.856 2.836"/>
        <path fill="#FFF" d="M312.477 252.944a7.698 7.698 0 0 0 10.886-10.886c-3.007-3.006-12.067-7.192-15.073-4.186-3.006 3.006 1.18 12.066 4.187 15.072"/>
        <path fill="#B3B3B3" d="M311.304 238.85c-.737 0-1.301.138-1.6.437-1.423 1.422.802 8.858 4.187 12.244a5.707 5.707 0 0 0 8.058 0 5.705 5.705 0 0 0 0-8.058c-2.675-2.674-7.876-4.623-10.645-4.623m6.616 18.345a9.667 9.667 0 0 1-6.857-2.836c-3.374-3.373-8.454-13.634-4.187-17.901 4.265-4.266 14.527.813 17.9 4.187 3.782 3.78 3.782 9.933 0 13.714a9.669 9.669 0 0 1-6.856 2.836"/>
        <path fill="#B3B3B3" d="M317.007 255.139a7.658 7.658 0 0 1-4.53-2.194c-2.57-2.57-6-9.562-5.063-13.416 3.572.827 7.614 3.078 9.435 4.899 2.95 2.949 2.998 7.694.158 10.71"/>
        <path fill="#B3B3B3" d="M309.35 242.224c.503 3.213 2.778 7.544 4.541 9.307a5.62 5.62 0 0 0 2.314 1.402 5.66 5.66 0 0 0-.77-7.091c-1.146-1.145-3.547-2.636-6.086-3.618m7.658 14.915c-.079 0-.158-.005-.237-.014a9.597 9.597 0 0 1-5.708-2.766c-2.98-2.981-6.733-10.605-5.59-15.302a1.998 1.998 0 0 1 2.393-1.477c3.684.853 8.154 3.189 10.4 5.434a9.647 9.647 0 0 1 .198 13.496c-.38.403-.908.629-1.456.629"/>
        <path fill="#B3B3B3" d="M352 233.975c-21.565 0-39.647 14.88-44.561 34.93 11.08 1.249 19.693 10.646 19.693 22.059 0 2.029.277 3.992.787 5.86a46.2 46.2 0 0 1 7.33 7.088 11.568 11.568 0 0 0 7.475 4.092 75.116 75.116 0 0 0 18.552 0 11.567 11.567 0 0 0 7.475-4.091 46.162 46.162 0 0 1 7.33-7.09c.51-1.867.787-3.83.787-5.86 0-11.412 8.613-20.81 19.693-22.057-4.914-20.051-22.996-34.931-44.561-34.931"/>
        <path fill="#B3B3B3" d="M329.688 295.669a48.183 48.183 0 0 1 7.101 6.967 9.516 9.516 0 0 0 6.183 3.384 73.516 73.516 0 0 0 18.057 0 9.52 9.52 0 0 0 6.182-3.382 48.1 48.1 0 0 1 7.101-6.97c.37-1.543.556-3.122.556-4.704 0-11.55 8.098-21.351 19.183-23.68-5.514-18.542-22.506-31.31-42.051-31.31s-36.536 12.768-42.05 31.31c11.084 2.329 19.182 12.13 19.182 23.68 0 1.582.186 3.16.555 4.705M352 310.579c-3.168 0-6.373-.198-9.522-.591a13.491 13.491 0 0 1-8.77-4.802 44.242 44.242 0 0 0-7.013-6.781 2 2 0 0 1-.705-1.055 24.254 24.254 0 0 1-.858-6.386c0-10.292-7.702-18.921-17.916-20.071a2 2 0 0 1-1.72-2.464c5.26-21.464 24.384-36.454 46.504-36.454 22.12 0 41.243 14.99 46.503 36.454a2.001 2.001 0 0 1-1.719 2.464c-10.214 1.15-17.916 9.779-17.916 20.07 0 2.154-.288 4.303-.858 6.387a2 2 0 0 1-.705 1.055 44.206 44.206 0 0 0-7.012 6.782 13.496 13.496 0 0 1-8.77 4.8c-3.15.394-6.355.592-9.524.592"/>
        <path fill="#FFF" d="M372.528 238.824a45.675 45.675 0 0 0-20.528-4.85 45.68 45.68 0 0 0-20.529 4.85 22.112 22.112 0 0 1 7.8 5.048c8.67 8.672 8.67 22.73 0 31.401-8.672 8.671-8.672 22.73 0 31.401.201.202.407.398.615.59.906.361 1.857.618 2.838.74a75.104 75.104 0 0 0 18.552 0 11.5 11.5 0 0 0 2.837-.74c.208-.192.415-.388.617-.59 8.671-8.67 8.671-22.73 0-31.4-8.67-8.672-8.67-22.73 0-31.402a22.108 22.108 0 0 1 7.798-5.048"/>
        <path fill="#B3B3B3" d="M340.966 305.535a9.436 9.436 0 0 0 2.005.484 73.426 73.426 0 0 0 18.058 0 9.436 9.436 0 0 0 2.005-.484c.095-.09.189-.183.282-.275 7.877-7.878 7.877-20.695 0-28.573-9.437-9.436-9.437-24.792 0-34.229a24.142 24.142 0 0 1 4.494-3.543c-5.03-1.953-10.33-2.94-15.81-2.94s-10.78.987-15.81 2.94a24.11 24.11 0 0 1 4.494 3.543c9.437 9.437 9.437 24.793 0 34.23-7.877 7.877-7.877 20.694 0 28.572.094.092.187.184.282.275M352 310.58a77.23 77.23 0 0 1-9.523-.59 13.592 13.592 0 0 1-3.33-.866 2.006 2.006 0 0 1-.62-.39 25.44 25.44 0 0 1-.671-.645c-9.437-9.437-9.437-24.792 0-34.229 7.877-7.877 7.877-20.695 0-28.573a20.05 20.05 0 0 0-7.095-4.593 2 2 0 0 1-.185-3.657c6.7-3.358 13.909-5.062 21.424-5.062 7.515 0 14.724 1.704 21.424 5.062a2 2 0 0 1-.185 3.657 20.058 20.058 0 0 0-7.095 4.593c-7.877 7.878-7.877 20.696 0 28.573 9.437 9.437 9.437 24.792 0 34.23-.22.22-.445.434-.672.644-.181.167-.39.3-.62.39a13.61 13.61 0 0 1-3.33.865c-3.15.393-6.353.591-9.522.591"/>
        <path fill="#B3B3B3" d="M358.049 291.906c2.343 0 3.906 2.49 2.832 4.572a9.985 9.985 0 0 1-8.881 5.414 9.985 9.985 0 0 1-8.881-5.414c-1.074-2.083.49-4.572 2.832-4.572h12.098z"/>
        <path fill="#B3B3B3" d="M345.951 293.906c-.593 0-.9.4-1.005.572a1.08 1.08 0 0 0-.05 1.083 7.964 7.964 0 0 0 7.104 4.331 7.963 7.963 0 0 0 7.103-4.33 1.077 1.077 0 0 0-.049-1.084 1.164 1.164 0 0 0-1.005-.572h-12.098zm6.05 9.986a11.948 11.948 0 0 1-10.659-6.497 5.07 5.07 0 0 1 .188-4.999 5.144 5.144 0 0 1 4.421-2.49h12.098c1.818 0 3.471.931 4.421 2.49a5.073 5.073 0 0 1 .188 5A11.948 11.948 0 0 1 352 303.891z"/>
        <path fill="#FFF" d="M374.258 267.344a4.5 4.5 0 1 0-9 0 4.5 4.5 0 0 0 9 0"/>
        <path fill="#B3B3B3" d="M369.758 264.844a2.503 2.503 0 0 0-2.5 2.5c0 1.379 1.122 2.5 2.5 2.5s2.5-1.121 2.5-2.5c0-1.38-1.122-2.5-2.5-2.5m0 9a6.508 6.508 0 0 1-6.5-6.5c0-3.584 2.916-6.5 6.5-6.5s6.5 2.916 6.5 6.5-2.916 6.5-6.5 6.5"/>
        <path fill="#FFF" d="M338.742 267.344a4.5 4.5 0 1 0-9 0 4.5 4.5 0 0 0 9 0"/>
        <path fill="#B3B3B3" d="M334.242 264.844a2.503 2.503 0 0 0-2.5 2.5c0 1.379 1.122 2.5 2.5 2.5s2.5-1.121 2.5-2.5c0-1.38-1.122-2.5-2.5-2.5m0 9a6.508 6.508 0 0 1-6.5-6.5c0-3.584 2.916-6.5 6.5-6.5s6.5 2.916 6.5 6.5-2.916 6.5-6.5 6.5"/>
        <path fill="#E6E6E6" d="M578.85 188.625a12.542 12.542 0 0 1-.735-4.205c0-5.799-3.924-10.682-9.262-12.138l-.031-.012c-2.64-1.66-6.585-2.79-11.67-3.686-10.227-2.088-28.633-3.481-49.651-3.481-21.017 0-39.422 1.393-49.65 3.48-5.085.896-9.033 2.027-11.673 3.687l-.031.013c-5.337 1.456-9.26 6.338-9.26 12.137 0 1.477-.268 2.889-.736 4.205a13.141 13.141 0 0 1 4.266-4.35c1.539-.964 3.489-.839 4.936.258 3.599 2.73 10.313 4.14 19.542 5.294 11.42 1.427 26.55 2.213 42.605 2.213 16.055 0 31.185-.786 42.606-2.213 9.229-1.154 15.944-2.564 19.542-5.294 1.447-1.097 3.397-1.222 4.935-.258a13.135 13.135 0 0 1 4.267 4.35"/>
        <path fill="#B3B3B3" d="M424.306 199a2 2 0 0 1 0-4c5.834 0 10.58-4.746 10.58-10.58a2 2 0 0 1 4 0c0 8.039-6.54 14.58-14.58 14.58"/>
        <path fill="#B3B3B3" d="M436.886 186.42a2 2 0 0 1-2-2c0-6.455 4.326-12.215 10.52-14.006a47.322 47.322 0 0 0 5.466-1.93c7.558-3.218 30.315-5.381 56.628-5.381 5.52 0 10.98.095 16.225.284a2 2 0 0 1 1.927 2.07 1.997 1.997 0 0 1-2.071 1.928 447.17 447.17 0 0 0-16.081-.282c-25.421 0-48.062 2.08-55.06 5.06a51.06 51.06 0 0 1-5.922 2.093c-4.494 1.3-7.632 5.479-7.632 10.164a2 2 0 0 1-2 2M578.114 186.42a2 2 0 0 1-2-2c0-.848-.1-1.69-.298-2.504a2 2 0 0 1 1.472-2.415 1.995 1.995 0 0 1 2.416 1.472c.272 1.123.41 2.282.41 3.447a2 2 0 0 1-2 2M539.165 168.272c-.054 0-.109-.002-.164-.007a313.895 313.895 0 0 0-6.208-.438 2 2 0 0 1 .245-3.992c2.173.131 4.273.28 6.286.444a2 2 0 0 1-.159 3.993m12.45 1.36a2.04 2.04 0 0 1-.29-.02 168.23 168.23 0 0 0-6.141-.768 1.999 1.999 0 1 1 .428-3.976c2.235.24 4.351.505 6.287.785a2 2 0 0 1-.284 3.978m12.154 2.874a1.98 1.98 0 0 1-.759-.151 20.649 20.649 0 0 1-.463-.196c-1.192-.506-2.941-1.01-5.185-1.49a1.999 1.999 0 0 1-1.537-2.375 1.996 1.996 0 0 1 2.374-1.537c2.493.534 4.488 1.115 5.928 1.728l.403.17a1.999 1.999 0 0 1-.761 3.85m11.083 5.464c-.544 0-1.086-.22-1.481-.655a10.623 10.623 0 0 0-4.344-2.883 2 2 0 1 1 1.32-3.775 14.635 14.635 0 0 1 5.985 3.969 2 2 0 0 1-1.48 3.344"/>
        <path fill="#B3B3B3" d="M526.652 167.506l-.088-.002a332.97 332.97 0 0 0-2.98-.118 2.001 2.001 0 0 1-1.93-2.068c.039-1.105.999-1.998 2.068-1.93 1.017.035 2.022.077 3.015.12a2 2 0 0 1-.085 3.998M590.694 199c-8.04 0-14.58-6.541-14.58-14.58a2 2 0 1 1 4 0c0 5.834 4.746 10.58 10.58 10.58a2 2 0 0 1 0 4"/>
        <path fill="#B3B3B3" d="M578.114 186.42a2 2 0 0 1-2-2c0-4.685-3.138-8.864-7.632-10.164a2.001 2.001 0 0 1-1.366-2.477 2.001 2.001 0 0 1 2.477-1.365c6.195 1.79 10.521 7.55 10.521 14.006a2 2 0 0 1-2 2"/>
        <path fill="#B3B3B3" d="M590.694 199c-6.796 0-12.785-4.812-14.24-11.441a1.999 1.999 0 0 1 1.524-2.382 1.998 1.998 0 0 1 2.383 1.524c1.055 4.809 5.401 8.299 10.333 8.299a2 2 0 0 1 0 4"/>
        <path fill="#B3B3B3" d="M578.405 189.13a2 2 0 0 1-1.95-1.57 14.604 14.604 0 0 1-.34-3.14 2 2 0 0 1 4 0c0 .77.082 1.538.245 2.28a2 2 0 0 1-1.955 2.43"/>
        <path fill="#CCC" d="M566.709 178.837c0 4.088-26.509 7.4-59.209 7.4s-59.209-3.312-59.209-7.4c0-4.088 26.509-7.401 59.209-7.401s59.209 3.313 59.209 7.4"/>
        <path fill="#B3B3B3" d="M450.807 178.837c4.25 2.412 24.736 5.4 56.693 5.4 31.956 0 52.444-2.988 56.693-5.4-4.249-2.412-24.737-5.401-56.693-5.401-31.957 0-52.444 2.989-56.693 5.4zm56.693 9.4c-15.896 0-30.853-.774-42.115-2.182-16.78-2.098-19.094-4.708-19.094-7.218s2.313-5.12 19.094-7.218c11.262-1.408 26.22-2.183 42.115-2.183 15.896 0 30.852.775 42.115 2.183 16.781 2.098 19.094 4.708 19.094 7.218s-2.313 5.12-19.094 7.218c-11.263 1.408-26.219 2.183-42.115 2.183z"/>
        <path fill="#B3B3B3" d="M507.5 186.238c23.06 0 43.025-1.649 52.802-4.055-9.779-2.403-29.747-4.05-52.802-4.05s-43.023 1.647-52.802 4.05c9.777 2.406 29.742 4.055 52.802 4.055"/>
        <path fill="#B3B3B3" d="M466.628 182.185c10.74 1.3 25.264 2.054 40.872 2.054s30.132-.753 40.872-2.054c-10.741-1.3-25.265-2.053-40.872-2.053s-30.131.753-40.872 2.053m40.872 6.054c-22.553 0-42.97-1.576-53.28-4.113a2 2 0 0 1 0-3.884c10.315-2.536 30.73-4.11 53.28-4.11s42.965 1.574 53.28 4.11a1.998 1.998 0 0 1 0 3.884c-10.311 2.537-30.727 4.113-53.28 4.113"/>
        <path fill="#E6E6E6" d="M267.85 188.625a12.518 12.518 0 0 1-.735-4.205c0-5.799-3.925-10.682-9.262-12.138l-.031-.012c-2.64-1.66-6.586-2.79-11.671-3.686-10.226-2.088-28.632-3.481-49.651-3.481-21.017 0-39.421 1.393-49.648 3.48-5.086.896-9.034 2.027-11.674 3.687a.703.703 0 0 0-.031.013c-5.337 1.456-9.261 6.338-9.261 12.137 0 1.477-.267 2.889-.735 4.205a13.132 13.132 0 0 1 4.266-4.35c1.539-.964 3.489-.839 4.936.258 3.599 2.73 10.313 4.14 19.542 5.294 11.42 1.427 26.55 2.213 42.605 2.213 16.055 0 31.185-.786 42.605-2.213 9.23-1.154 15.944-2.564 19.543-5.294 1.447-1.097 3.397-1.222 4.935-.258a13.135 13.135 0 0 1 4.267 4.35"/>
        <path fill="#B3B3B3" d="M113.306 199a2 2 0 0 1 0-4c5.833 0 10.58-4.746 10.58-10.58a2 2 0 1 1 4 0c0 8.039-6.541 14.58-14.58 14.58"/>
        <path fill="#B3B3B3" d="M267.114 186.42a2 2 0 0 1-2-2c0-4.685-3.138-8.864-7.632-10.164a51.145 51.145 0 0 1-5.923-2.092c-6.997-2.98-29.638-5.061-55.059-5.061-25.422 0-48.063 2.08-55.06 5.06a51.194 51.194 0 0 1-5.922 2.093c-4.494 1.3-7.633 5.479-7.633 10.164a2 2 0 0 1-4 0c0-6.455 4.326-12.215 10.521-14.006a47.219 47.219 0 0 0 5.466-1.93c7.558-3.218 30.315-5.381 56.628-5.381s49.07 2.163 56.627 5.38a47.358 47.358 0 0 0 5.467 1.93c6.194 1.792 10.52 7.552 10.52 14.007a2 2 0 0 1-2 2"/>
        <path fill="#B3B3B3" d="M279.694 199c-8.04 0-14.58-6.541-14.58-14.58a2 2 0 1 1 4 0c0 5.834 4.746 10.58 10.58 10.58a2 2 0 0 1 0 4"/>
        <path fill="#B3B3B3" d="M267.114 186.42a2 2 0 0 1-2-2c0-4.685-3.138-8.864-7.632-10.164a2.001 2.001 0 0 1-1.366-2.477 2.001 2.001 0 0 1 2.477-1.365c6.195 1.79 10.521 7.55 10.521 14.006a2 2 0 0 1-2 2"/>
        <path fill="#B3B3B3" d="M279.694 199c-8.04 0-14.58-6.541-14.58-14.58a2 2 0 1 1 4 0c0 5.834 4.746 10.58 10.58 10.58a2 2 0 0 1 0 4"/>
        <path fill="#CCC" d="M255.709 178.837c0 4.088-26.509 7.4-59.209 7.4s-59.209-3.312-59.209-7.4c0-4.088 26.509-7.401 59.209-7.401s59.209 3.313 59.209 7.4"/>
        <path fill="#B3B3B3" d="M139.807 178.837c4.25 2.412 24.736 5.4 56.693 5.4 31.956 0 52.444-2.988 56.693-5.4-4.249-2.412-24.737-5.401-56.693-5.401-31.957 0-52.444 2.989-56.693 5.4zm56.693 9.4c-15.896 0-30.853-.774-42.115-2.182-16.78-2.098-19.094-4.708-19.094-7.218s2.313-5.12 19.094-7.218c11.262-1.408 26.22-2.183 42.115-2.183 15.896 0 30.852.775 42.115 2.183 16.781 2.098 19.094 4.708 19.094 7.218s-2.313 5.12-19.094 7.218c-11.263 1.408-26.219 2.183-42.115 2.183z"/>
        <path fill="#B3B3B3" d="M196.5 186.238c23.06 0 43.025-1.649 52.802-4.055-9.779-2.403-29.747-4.05-52.802-4.05s-43.023 1.647-52.802 4.05c9.777 2.406 29.742 4.055 52.802 4.055"/>
        <path fill="#B3B3B3" d="M155.628 182.185c10.74 1.3 25.264 2.054 40.872 2.054s30.132-.753 40.872-2.054c-10.741-1.3-25.265-2.053-40.872-2.053s-30.131.753-40.872 2.053m40.872 6.054c-22.553 0-42.97-1.576-53.28-4.113a2 2 0 0 1 0-3.884c10.314-2.536 30.73-4.11 53.28-4.11s42.965 1.574 53.28 4.11a1.998 1.998 0 0 1 0 3.884c-10.311 2.537-30.727 4.113-53.28 4.113"/>
        <path fill="#E6E6E6" d="M654.955 250.822c0-6.82-4.615-12.563-10.893-14.275l-.036-.016c-3.103-1.95-7.745-3.28-13.726-4.334-12.028-2.456-33.674-4.096-58.394-4.096-24.718 0-46.364 1.64-58.392 4.095-5.982 1.055-10.625 2.384-13.729 4.335a.59.59 0 0 1-.037.016c-6.277 1.712-10.89 7.455-10.89 14.275a14.74 14.74 0 0 1-.866 4.945 15.449 15.449 0 0 1 5.017-5.115c1.81-1.136 4.103-.988 5.805.303 4.233 3.21 12.13 4.87 22.984 6.225 13.431 1.68 31.226 2.604 50.107 2.604 18.882 0 36.677-.925 50.11-2.604 10.853-1.356 18.75-3.015 22.982-6.225 1.702-1.29 3.995-1.439 5.805-.303a15.443 15.443 0 0 1 5.018 5.115 14.74 14.74 0 0 1-.865-4.945M216.008 255.768a14.74 14.74 0 0 1-.865-4.945c0-6.821-4.615-12.563-10.892-14.276l-.037-.015c-3.103-1.951-7.745-3.281-13.726-4.335-12.027-2.455-33.674-4.094-58.394-4.094-24.718 0-46.363 1.639-58.39 4.094-5.984 1.054-10.627 2.384-13.73 4.335l-.037.016c-6.278 1.712-10.892 7.454-10.892 14.275a14.74 14.74 0 0 1-.865 4.945 15.433 15.433 0 0 1 5.018-5.115c1.81-1.136 4.102-.99 5.805.303 4.232 3.209 12.13 4.868 22.983 6.225 13.432 1.679 31.227 2.604 50.107 2.604 18.882 0 36.677-.925 50.11-2.604 10.853-1.357 18.75-3.016 22.982-6.225 1.702-1.292 3.995-1.44 5.805-.303a15.424 15.424 0 0 1 5.018 5.115"/>
        <path fill="#B3B3B3" d="M34.25 267.617a2 2 0 0 1 0-4c7.055 0 12.795-5.74 12.795-12.795a2 2 0 0 1 4 0c0 9.261-7.534 16.795-16.795 16.795"/>
        <path fill="#B3B3B3" d="M49.045 252.822a2 2 0 0 1-2-2c0-7.436 4.983-14.07 12.119-16.135a56.317 56.317 0 0 0 6.469-2.283c3.33-1.419 9.104-2.662 17.158-3.696a1.994 1.994 0 0 1 2.239 1.728 2.001 2.001 0 0 1-1.73 2.24c-9.578 1.23-14.042 2.532-16.1 3.408a60.186 60.186 0 0 1-6.925 2.445c-5.434 1.573-9.23 6.628-9.23 12.293a2 2 0 0 1-2 2M135.664 230.113h-.012c-.99-.006-1.986-.01-2.987-.01a2 2 0 0 1 .002-4h.002a597.6 597.6 0 0 1 3.006.01 2.001 2.001 0 0 1-.01 4M119.32 230.251a2 2 0 0 1-.046-3.999c2.197-.052 4.431-.091 6.696-.116 1.095-.027 2.01.873 2.023 1.977a2.001 2.001 0 0 1-1.978 2.023c-2.249.025-4.467.064-6.649.114l-.047.001m-13.338.495a2 2 0 0 1-.1-3.997c2.177-.112 4.411-.211 6.695-.296 1.102-.056 2.031.821 2.072 1.925a2 2 0 0 1-1.925 2.073 465.814 465.814 0 0 0-6.742.295m-13.317.917a2 2 0 0 1-.174-3.992c2.124-.188 4.376-.363 6.694-.522a2.008 2.008 0 0 1 2.132 1.859 2.001 2.001 0 0 1-1.86 2.132c-2.29.157-4.516.33-6.613.515-.06.005-.12.008-.179.008"/>
        <path fill="#B3B3B3" d="M83.043 232.691a2 2 0 0 1-.253-3.983 217.51 217.51 0 0 1 3.007-.365 2 2 0 0 1 .452 3.975c-1.01.115-1.995.233-2.948.356a1.884 1.884 0 0 1-.258.017M215.144 252.822a2 2 0 0 1-2-2c0-5.665-3.796-10.72-9.23-12.293a59.986 59.986 0 0 1-6.926-2.445c-7.824-3.333-33.047-5.788-61.337-5.97a2 2 0 0 1-1.987-2.014 2.003 2.003 0 0 1 2.013-1.987c29.22.188 54.489 2.717 62.879 6.291a56.372 56.372 0 0 0 6.469 2.283c7.136 2.065 12.119 8.7 12.119 16.135a2 2 0 0 1-2 2"/>
        <path fill="#B3B3B3" d="M229.939 267.617c-9.261 0-16.796-7.534-16.796-16.795a2 2 0 0 1 4 0c0 7.055 5.74 12.795 12.796 12.795a2 2 0 0 1 0 4"/>
        <path fill="#B3B3B3" d="M215.144 252.822a2 2 0 0 1-2-2c0-5.665-3.796-10.72-9.23-12.293a2 2 0 1 1 1.11-3.842c7.137 2.065 12.12 8.7 12.12 16.135a2 2 0 0 1-2 2"/>
        <path fill="#CCC" d="M201.73 244.08c0 4.807-31.177 8.704-69.635 8.704-38.46 0-69.636-3.897-69.636-8.705 0-4.807 31.176-8.704 69.636-8.704 38.458 0 69.635 3.897 69.635 8.704"/>
        <path fill="#B3B3B3" d="M64.757 244.079c3.862 2.867 28.701 6.705 67.337 6.705s63.475-3.838 67.337-6.705c-3.863-2.867-28.702-6.704-67.337-6.704-38.635 0-63.474 3.837-67.337 6.704zm67.337 10.705c-18.68 0-36.256-.911-49.488-2.565-19.464-2.433-22.147-5.35-22.147-8.14 0-2.789 2.683-5.706 22.147-8.139 13.233-1.654 30.808-2.565 49.488-2.565s36.255.911 49.488 2.565c19.464 2.433 22.147 5.35 22.147 8.139 0 2.79-2.683 5.707-22.147 8.14-13.233 1.654-30.808 2.565-49.488 2.565z"/>
        <path fill="#B3B3B3" d="M132.094 252.783c27.676 0 51.58-2.018 62.808-4.94-11.226-2.925-35.126-4.945-62.808-4.945-27.682 0-51.582 2.02-62.808 4.944 11.23 2.923 35.132 4.941 62.808 4.941"/>
        <path fill="#B3B3B3" d="M80.055 247.842c12.935 1.834 31.904 2.94 52.04 2.94 20.134 0 39.103-1.106 52.037-2.94-12.934-1.835-31.904-2.943-52.038-2.943-20.135 0-39.104 1.108-52.039 2.943m52.04 6.94c-27.195 0-51.454-1.917-63.313-5.004a2.002 2.002 0 0 1 0-3.872c11.86-3.088 36.12-5.007 63.312-5.007s51.452 1.919 63.311 5.007a2 2 0 0 1 0 3.872c-11.858 3.087-36.118 5.005-63.31 5.005M474.062 267.617a2 2 0 0 1 0-4c7.054 0 12.794-5.74 12.794-12.795a2 2 0 0 1 4 0c0 9.261-7.534 16.795-16.794 16.795"/>
        <path fill="#B3B3B3" d="M654.955 252.822a2 2 0 0 1-2-2c0-5.665-3.796-10.72-9.23-12.293a60.254 60.254 0 0 1-6.926-2.445c-8.267-3.522-34.952-5.982-64.893-5.982-29.942 0-56.627 2.46-64.894 5.982a60.169 60.169 0 0 1-6.925 2.445c-5.435 1.573-9.23 6.628-9.23 12.293a2 2 0 0 1-4 0c0-7.436 4.983-14.07 12.12-16.135a56.367 56.367 0 0 0 6.467-2.283c8.848-3.769 35.557-6.302 66.462-6.302 30.904 0 57.613 2.533 66.461 6.302a56.452 56.452 0 0 0 6.47 2.283c7.135 2.065 12.118 8.7 12.118 16.135a2 2 0 0 1-2 2"/>
        <path fill="#B3B3B3" d="M669.75 267.617c-9.261 0-16.795-7.534-16.795-16.795a2 2 0 0 1 4 0c0 7.055 5.74 12.795 12.795 12.795a2 2 0 0 1 0 4"/>
        <path fill="#B3B3B3" d="M654.955 252.822a2 2 0 0 1-2-2c0-5.665-3.796-10.72-9.23-12.293a2 2 0 1 1 1.111-3.842c7.136 2.065 12.12 8.7 12.12 16.135a2 2 0 0 1-2 2"/>
        <path fill="#B3B3B3" d="M669.75 267.617c-9.261 0-16.795-7.534-16.795-16.795a2 2 0 0 1 4 0c0 7.055 5.74 12.795 12.795 12.795a2 2 0 0 1 0 4"/>
        <path fill="#CCC" d="M641.541 244.08c0 4.807-31.177 8.704-69.635 8.704-38.459 0-69.636-3.897-69.636-8.705 0-4.807 31.177-8.704 69.636-8.704 38.458 0 69.635 3.897 69.635 8.704"/>
        <path fill="#B3B3B3" d="M504.569 244.079c3.862 2.867 28.7 6.705 67.337 6.705 38.636 0 63.475-3.838 67.337-6.705-3.863-2.867-28.702-6.704-67.337-6.704-38.635 0-63.474 3.837-67.337 6.704zm67.337 10.705c-18.681 0-36.255-.911-49.488-2.565-19.464-2.433-22.147-5.35-22.147-8.14 0-2.789 2.683-5.706 22.147-8.139 13.233-1.654 30.808-2.565 49.488-2.565s36.255.911 49.488 2.565c19.464 2.433 22.147 5.35 22.147 8.139 0 2.79-2.683 5.707-22.147 8.14-13.233 1.654-30.807 2.565-49.488 2.565z"/>
        <path fill="#B3B3B3" d="M571.906 252.783c27.676 0 51.579-2.018 62.808-4.94-11.226-2.925-35.126-4.945-62.808-4.945-27.682 0-51.582 2.02-62.808 4.944 11.229 2.923 35.132 4.941 62.808 4.941"/>
        <path fill="#B3B3B3" d="M519.867 247.842c12.934 1.834 31.903 2.94 52.04 2.94 20.134 0 39.103-1.106 52.037-2.94-12.934-1.835-31.904-2.943-52.038-2.943-20.135 0-39.104 1.108-52.039 2.943m52.04 6.94c-27.195 0-51.455-1.917-63.313-5.004a2.002 2.002 0 0 1 0-3.872c11.86-3.088 36.12-5.007 63.312-5.007s51.452 1.919 63.311 5.007a2.002 2.002 0 0 1 0 3.872c-11.858 3.087-36.118 5.005-63.31 5.005M439.5 267h-27.982a2 2 0 0 1 0-4H439.5a2 2 0 0 1 0 4M292.482 267H265.5a2 2 0 0 1 0-4h26.982a2 2 0 0 1 0 4M394.085 224.915a2 2 0 0 1-1.414-3.414l15.164-15.165a2 2 0 0 1 2.83 2.828l-15.166 15.165a1.99 1.99 0 0 1-1.414.586M309.915 224.915a1.992 1.992 0 0 1-1.414-.586l-14.665-14.665a2 2 0 1 1 2.829-2.828l14.664 14.665a2 2 0 0 1-1.414 3.414M322.637 196.11c-.785 0-1.53-.465-1.849-1.235l-2.296-5.543a2 2 0 0 1 3.695-1.532l2.297 5.543a2 2 0 0 1-1.847 2.767M327.852 208.698c-.785 0-1.53-.465-1.85-1.235l-2.606-6.294a2 2 0 1 1 3.695-1.532l2.608 6.294a2 2 0 0 1-1.847 2.767M332.754 220.536c-.785 0-1.53-.466-1.849-1.235l-2.296-5.544a2 2 0 0 1 3.695-1.532l2.297 5.544a2 2 0 0 1-1.847 2.767M436.238 232.108a2.001 2.001 0 0 1-.766-3.849l5.543-2.296a2 2 0 0 1 1.531 3.696l-5.544 2.296c-.25.103-.509.153-.764.153M423.525 237.374a2.001 2.001 0 0 1-.766-3.849l6.356-2.632a2 2 0 0 1 1.531 3.695l-6.357 2.633c-.25.103-.509.153-.764.153M411.626 242.304a2.001 2.001 0 0 1-.767-3.85l5.544-2.296a1.998 1.998 0 0 1 2.613 1.083 2 2 0 0 1-1.082 2.613l-5.543 2.297c-.251.103-.51.153-.765.153M378.802 202.292a2 2 0 0 1-1.847-2.767l2.297-5.543a2 2 0 0 1 3.695 1.532l-2.296 5.543a2.003 2.003 0 0 1-1.849 1.235M371.246 220.536a2.003 2.003 0 0 1-1.847-2.767l2.297-5.544a2 2 0 0 1 3.695 1.532l-2.296 5.544a2.003 2.003 0 0 1-1.85 1.235M292.55 242.376c-.254 0-.513-.05-.763-.153l-5.544-2.295a2 2 0 0 1 1.53-3.696l5.544 2.295a2 2 0 0 1-.766 3.849M280.592 237.423c-.255 0-.514-.05-.764-.153l-6.416-2.658a2 2 0 1 1 1.53-3.695l6.416 2.657a2.001 2.001 0 0 1-.766 3.849M267.762 232.108c-.255 0-.514-.05-.764-.153l-5.544-2.296a2 2 0 0 1 1.53-3.696l5.544 2.296a2.001 2.001 0 0 1-.766 3.85M517.307 355.5a2 2 0 0 1-2-2c0-5.277 2.198-10.16 5.791-13.662-5.15 2.395-8.729 7.618-8.729 13.662a2 2 0 0 1-4 0c0-10.508 8.548-19.057 19.056-19.057 1.302 0 2.606.133 3.874.395a2 2 0 0 1 0 3.918c-6.949 1.435-11.992 7.637-11.992 14.744a2 2 0 0 1-2 2"/>
        <path fill="#B3B3B3" d="M509.58 355.5a2 2 0 0 1-2-2c0-15.413 5.483-28.846 13.902-35.358-10.846 1.619-19.377 16.859-19.377 35.358a2 2 0 0 1-4 0c0-21.78 11.345-39.5 25.29-39.5 1.81 0 3.615.297 5.37.881a2 2 0 0 1-.002 3.795c-9.957 3.312-17.184 17.958-17.184 34.824a2 2 0 0 1-2 2M205.121 355.5a2 2 0 0 1-2-2c0-23.538-11.345-42.77-25.45-43.479 10.818 7.413 17.955 24.148 17.955 43.479a2 2 0 0 1-4 0c0-20.642-8.89-38.582-21.142-42.659a2 2 0 0 1 .001-3.795 20.177 20.177 0 0 1 6.378-1.046c16.684 0 30.258 21.309 30.258 47.5a2 2 0 0 1-2 2"/>
        <path fill="#B3B3B3" d="M192.121 355.5a2 2 0 0 1-2-2c0-12.704-8.578-23.039-19.12-23.039a2 2 0 0 1 0-4c12.748 0 23.12 12.13 23.12 27.039a2 2 0 0 1-2 2M149.309 355.5a2 2 0 0 1-2-2c0-4.021-5.133-8.251-13.486-10.245 4.348 2.722 6.903 6.308 6.903 10.245a2 2 0 0 1-4 0c0-5.207-8.142-10-18.938-11.151a2.001 2.001 0 0 1 0-3.977c1.798-.192 3.65-.29 5.504-.29 15.71 0 28.017 6.772 28.017 15.418a2 2 0 0 1-2 2"/>
        <path fill="#B3B3B3" d="M159.61 355.5a2 2 0 0 1-2-2c0-13.703-7.833-25.098-18.04-27.165 7.564 5.546 12.531 15.811 12.531 27.165a2 2 0 0 1-4 0c0-13.03-7.203-24.365-17.127-26.952a2.002 2.002 0 0 1 0-3.871 20.861 20.861 0 0 1 5.26-.677c13.992 0 25.376 14.131 25.376 31.5a2 2 0 0 1-2 2M576.485 355.5a2 2 0 0 1-2-2c0-2.35 1.043-4.541 2.895-6.401-3.67 1.46-6.317 3.703-6.317 6.401a2 2 0 0 1-4 0c0-6.86 8.893-12.234 20.247-12.234 1.327 0 2.654.076 3.942.226a2 2 0 0 1 0 3.973c-7.279.843-12.767 4.298-12.767 8.035a2 2 0 0 1-2 2M524.348 355.501c-.246 0-.495-.046-.737-.143a1.998 1.998 0 0 1-1.121-2.596c2.233-5.626 7.582-9.262 13.627-9.262 4.25 0 8.212 1.816 10.976 4.951a11.973 11.973 0 0 1 17.632 4.114 1.999 1.999 0 0 1-.833 2.703 1.998 1.998 0 0 1-2.703-.833 7.986 7.986 0 0 0-7.072-4.268 7.914 7.914 0 0 0-5.857 2.566 1.998 1.998 0 0 1-3.152-.286c-1.976-3.097-5.337-4.947-8.991-4.947-4.395 0-8.285 2.645-9.91 6.738a2.003 2.003 0 0 1-1.86 1.263M652.348 285.001c-.246 0-.495-.046-.737-.143a1.998 1.998 0 0 1-1.121-2.596c2.233-5.626 7.582-9.262 13.627-9.262 4.25 0 8.212 1.816 10.976 4.951a11.973 11.973 0 0 1 17.632 4.114 1.999 1.999 0 0 1-.833 2.703 1.999 1.999 0 0 1-2.703-.833 7.986 7.986 0 0 0-7.072-4.268 7.914 7.914 0 0 0-5.857 2.566 1.998 1.998 0 0 1-3.152-.286c-1.976-3.097-5.337-4.947-8.991-4.947-4.395 0-8.285 2.645-9.91 6.738a2.003 2.003 0 0 1-1.86 1.263M101.958 199.69a2 2 0 0 1-1.86-1.263 6.483 6.483 0 0 0-6.052-4.117 6.49 6.49 0 0 0-5.493 3.024 2.001 2.001 0 0 1-1.506.917 2.015 2.015 0 0 1-1.646-.632 4.669 4.669 0 0 0-3.457-1.516 4.717 4.717 0 0 0-4.176 2.521 2 2 0 0 1-3.536-1.87 8.708 8.708 0 0 1 12.336-3.316 10.457 10.457 0 0 1 7.478-3.128 10.46 10.46 0 0 1 9.77 6.641 2 2 0 0 1-1.858 2.74M80.279 285.001a2.001 2.001 0 0 1-1.901-1.38A12.468 12.468 0 0 0 66.5 275c-3.906 0-7.52 1.789-9.913 4.91-.757.987-2.417.987-3.174 0-2.393-3.121-6.006-4.91-9.913-4.91-3.906 0-7.52 1.789-9.913 4.91-.757.987-2.417.987-3.174 0-2.393-3.121-6.006-4.91-9.913-4.91a2 2 0 0 1 0-4c4.357 0 8.436 1.683 11.5 4.684A16.344 16.344 0 0 1 43.5 271c4.357 0 8.436 1.683 11.5 4.684A16.344 16.344 0 0 1 66.5 271a16.46 16.46 0 0 1 15.68 11.379 2 2 0 0 1-1.901 2.622M192.167 355.5a1.992 1.992 0 0 1-1.413-.586c-5.654-5.652-14.853-5.652-20.507 0a2 2 0 1 1-2.829-2.828c7.213-7.213 18.95-7.213 26.163 0a2 2 0 0 1-1.413 3.414M102.784 355.501a2 2 0 0 1-1.86-1.263c-1.624-4.093-5.514-6.738-9.91-6.738-3.653 0-7.014 1.85-8.99 4.947a1.998 1.998 0 0 1-3.152.286 7.914 7.914 0 0 0-5.857-2.566 7.99 7.99 0 0 0-7.073 4.268 2 2 0 0 1-3.536-1.87 11.977 11.977 0 0 1 17.633-4.114 14.578 14.578 0 0 1 10.976-4.951c6.045 0 11.394 3.636 13.627 9.262a1.998 1.998 0 0 1-1.858 2.739M639.827 355.501a2.001 2.001 0 0 1-1.866-1.279 5.455 5.455 0 0 0-5.117-3.517c-1.676 0-3.24.756-4.292 2.072a1.985 1.985 0 0 1-1.763.743 2.001 2.001 0 0 1-1.58-1.078 7.563 7.563 0 0 0-6.75-4.133 7.587 7.587 0 0 0-6.681 3.989 2.002 2.002 0 0 1-1.6 1.044 2.032 2.032 0 0 1-1.747-.778 5.454 5.454 0 0 0-4.354-2.158 2 2 0 1 1 0-4c2.074 0 4.039.662 5.653 1.868a11.577 11.577 0 0 1 8.73-3.965c3.488 0 6.712 1.545 8.885 4.152a9.43 9.43 0 0 1 5.499-1.756c3.948 0 7.42 2.384 8.848 6.073a2 2 0 0 1-1.865 2.723"/>
        <path fill="#CCC" d="M591.627 103.285c.168-4.29 1.02-8.536 2.596-12.552 1.138-2.898 1.785-6.227 1.785-9.769 0-8.089-3.376-15.073-8.262-18.336-3.03-2.024-4.873-5.406-4.852-9.05l.001-.172c0-11.213-6.489-20.303-14.493-20.303-8.004 0-14.493 9.09-14.493 20.303l.001.172c.021 3.644-1.823 7.026-4.852 9.05-4.886 3.263-8.263 10.247-8.263 18.336 0 3.542.647 6.871 1.786 9.77 2.14 5.451 2.955 11.325 2.518 17.167a24.527 24.527 0 0 0-.067 1.81c0 6.847 2.858 12.76 6.995 15.522a9.29 9.29 0 0 1 2.628 2.681"/>
        <path fill="#B3B3B3" d="M554.657 129.914a1.998 1.998 0 0 1-1.68-.912 7.263 7.263 0 0 0-2.06-2.106c-4.864-3.248-7.885-9.833-7.885-17.185 0-.65.024-1.31.073-1.959.42-5.612-.406-11.244-2.386-16.288-1.258-3.204-1.923-6.835-1.923-10.5 0-8.566 3.507-16.229 9.152-19.999 2.498-1.669 3.98-4.426 3.962-7.375v-.184c0-12.298 7.398-22.303 16.492-22.303 9.094 0 16.493 10.005 16.493 22.303v.184c-.018 2.95 1.463 5.706 3.962 7.375 5.645 3.77 9.152 11.433 9.152 20 0 3.664-.665 7.295-1.924 10.5-1.469 3.741-2.296 7.745-2.459 11.898-.044 1.105-.98 1.99-2.077 1.92a1.999 1.999 0 0 1-1.92-2.076c.18-4.602 1.1-9.045 2.733-13.204 1.077-2.744 1.647-5.869 1.647-9.039 0-7.137-2.895-13.68-7.374-16.673-3.62-2.418-5.766-6.427-5.74-10.725l2-.16h-2c0-10.092-5.604-18.303-12.493-18.303s-12.493 8.211-12.493 18.303l.001.154c.025 4.304-2.12 8.313-5.74 10.731-4.48 2.992-7.374 9.536-7.374 16.673 0 3.17.57 6.295 1.647 9.038 2.198 5.6 3.115 11.841 2.651 18.05a22.376 22.376 0 0 0-.062 1.66c0 5.941 2.396 11.381 6.106 13.858a11.245 11.245 0 0 1 3.195 3.256 2 2 0 0 1-1.676 3.088"/>
        <path fill="#CCC" d="M591.627 103.285c-1.07.384-2.136.783-3.193 1.212-10.174 4.126-19.707 10.314-27.959 18.565a42.391 42.391 0 0 1-5.82 4.852"/>
        <path fill="#B3B3B3" d="M554.657 129.914a2 2 0 0 1-1.143-3.643 40.563 40.563 0 0 0 5.547-4.623c8.258-8.257 17.888-14.65 28.621-19.005a89.067 89.067 0 0 1 3.27-1.24 2.002 2.002 0 0 1 1.351 3.766c-1.17.418-2.189.805-3.118 1.182-10.234 4.15-19.418 10.25-27.296 18.126a44.75 44.75 0 0 1-6.093 5.08 1.994 1.994 0 0 1-1.139.357"/>
        <path fill="#CCC" d="M151.393 69.525c0-6.155 2.57-11.47 6.288-13.954 2.306-1.539 3.71-4.113 3.692-6.886v-.13c0-8.534 4.938-15.452 11.03-15.452 6.09 0 11.028 6.918 11.028 15.451v.131c-.017 2.773 1.387 5.347 3.692 6.886 3.718 2.484 6.288 7.8 6.288 13.954 0 2.695-.493 5.23-1.359 7.436-1.629 4.15-2.249 8.62-1.917 13.064.034.452.052.912.052 1.377 0 5.211-2.176 9.71-5.324 11.812-1.95 1.304-3.139 3.484-3.125 5.831v.11c0 7.224-4.18 13.08-9.336 13.08-5.156 0-9.336-5.856-9.336-13.08v-.11c.014-2.347-1.174-4.527-3.125-5.83-3.148-2.103-5.324-6.602-5.324-11.813 0-.465.017-.925.052-1.377.332-4.445-.288-8.915-1.917-13.064-.866-2.207-1.359-4.74-1.359-7.436"/>
        <path fill="#B3B3B3" d="M163.374 48.674c.02 3.432-1.692 6.632-4.582 8.56-3.28 2.192-5.399 7.016-5.399 12.292 0 2.352.422 4.67 1.22 6.705 1.7 4.328 2.409 9.149 2.05 13.944-.03.404-.046.813-.046 1.228 0 4.366 1.742 8.35 4.435 10.149 2.53 1.69 4.031 4.497 4.014 7.505 0 6.104 3.36 11.178 7.337 11.178 3.976 0 7.335-5.074 7.335-11.08-.018-3.107 1.483-5.912 4.014-7.603 2.694-1.8 4.434-5.783 4.434-10.15 0-.415-.014-.825-.044-1.228-.358-4.795.35-9.617 2.048-13.944.8-2.034 1.221-4.352 1.221-6.704 0-5.276-2.12-10.1-5.4-12.291-2.887-1.93-4.6-5.13-4.58-8.561v-.12c0-7.29-4.135-13.45-9.029-13.45s-9.028 6.16-9.028 13.45l-2 .132 2-.012zm9.029 75.56c-6.251 0-11.338-6.764-11.338-15.08l.001-.136c.01-1.645-.827-3.198-2.237-4.14-3.83-2.56-6.212-7.723-6.212-13.475 0-.516.02-1.027.058-1.528.313-4.197-.304-8.411-1.785-12.183-.98-2.495-1.496-5.32-1.496-8.166 0-6.676 2.75-12.66 7.177-15.618 1.768-1.18 2.816-3.128 2.803-5.211v-.142c0-9.623 5.844-17.451 13.029-17.451 7.184 0 13.029 7.828 13.029 17.45l-.001.154c-.013 2.072 1.035 4.02 2.802 5.2 4.428 2.958 7.178 8.943 7.178 15.618 0 2.847-.518 5.67-1.496 8.166-1.481 3.77-2.099 7.985-1.784 12.184.036.502.055 1.012.055 1.527 0 5.752-2.38 10.916-6.212 13.475-1.41.942-2.245 2.495-2.236 4.155v.122c0 8.315-5.084 15.08-11.335 15.08z"/>
        <path fill="#B3B3B3" d="M172.625 77.144a2 2 0 0 1-2-2v-7.942a2 2 0 0 1 4 0v7.942a2 2 0 0 1-2 2"/>
        <path fill="#B3B3B3" d="M172.625 85.088a2 2 0 0 1-2-2v-7.943a2 2 0 0 1 4 0v7.943a2 2 0 0 1-2 2"/>
        <path fill="#B3B3B3" d="M172.625 93.03a2 2 0 0 1-2-2v-7.942a2 2 0 0 1 4 0v7.942a2 2 0 0 1-2 2M172.625 61.259a2 2 0 0 1-2-2v-7.943a2 2 0 0 1 4 0v7.943a2 2 0 0 1-2 2"/>
        <path fill="#B3B3B3" d="M172.625 69.202a2 2 0 0 1-2-2V59.26a2 2 0 0 1 4 0v7.943a2 2 0 0 1-2 2M172.625 100.974a2 2 0 0 1-2-2V91.03a2 2 0 0 1 4 0v7.943a2 2 0 0 1-2 2"/>
        <path fill="#B3B3B3" d="M172.625 137a2 2 0 0 1-2-2V98.974a2 2 0 0 1 4 0V135a2 2 0 0 1-2 2M172.625 77.144c-5.483 0-9.943-4.46-9.943-9.942a2 2 0 1 1 4 0 5.95 5.95 0 0 0 5.943 5.942 2 2 0 0 1 0 4"/>
        <path fill="#B3B3B3" d="M172.625 100.974c-5.483 0-9.943-4.461-9.943-9.943a2 2 0 1 1 4 0 5.95 5.95 0 0 0 5.943 5.943 2 2 0 0 1 0 4M172.625 93.03a2 2 0 0 1 0-4 5.95 5.95 0 0 0 5.943-5.942 2 2 0 1 1 4 0c0 5.482-4.461 9.942-9.943 9.942M568.695 90.348a2 2 0 0 1-2-2V77.91a2 2 0 0 1 4 0v10.438a2 2 0 0 1-2 2"/>
        <path fill="#B3B3B3" d="M568.695 100.785a2 2 0 0 1-2-2V88.347a2 2 0 0 1 4 0v10.438a2 2 0 0 1-2 2"/>
        <path fill="#B3B3B3" d="M568.695 116.223a2 2 0 0 1-2-2V98.786a2 2 0 0 1 4 0v15.437a2 2 0 0 1-2 2M568.695 69.473a2 2 0 0 1-2-2V57.035a2 2 0 0 1 4 0v10.438a2 2 0 0 1-2 2"/>
        <path fill="#B3B3B3" d="M568.695 79.91a2 2 0 0 1-2-2V67.472a2 2 0 0 1 4 0V77.91a2 2 0 0 1-2 2M568.695 90.348c-6.858 0-12.438-5.58-12.438-12.438a2 2 0 0 1 4 0c0 4.653 3.786 8.438 8.438 8.438a2 2 0 0 1 0 4M568.695 104.223a2 2 0 0 1 0-4c4.652 0 8.438-3.785 8.438-8.438a2 2 0 0 1 4 0c0 6.859-5.58 12.438-12.438 12.438M633.698 99.387c.021-.35.048-.696.048-1.053 0-4.79-1.999-8.923-4.892-10.855-1.794-1.197-2.885-3.2-2.872-5.358v-.101c0-6.64-3.842-12.02-8.58-12.02-4.739 0-8.58 5.38-8.58 12.02l.001.1c.012 2.159-1.08 4.162-2.873 5.359-2.893 1.932-4.892 6.066-4.892 10.855 0 .73.062 1.439.152 2.133"/>
        <path fill="#B3B3B3" d="M601.207 102.467a1.999 1.999 0 0 1-1.98-1.745 18.298 18.298 0 0 1-.168-2.388c0-5.34 2.215-10.136 5.78-12.518 1.251-.835 1.992-2.212 1.983-3.683v-.113c0-7.731 4.746-14.02 10.58-14.02s10.58 6.289 10.58 14.02v.113c-.009 1.472.733 2.848 1.983 3.683 3.565 2.38 5.781 7.178 5.781 12.518 0 .344-.02.682-.041 1.018l-.01.158a1.999 1.999 0 1 1-3.992-.246l.01-.167c.016-.252.034-.505.034-.763 0-3.96-1.572-7.568-4.003-9.192-2.373-1.583-3.779-4.212-3.763-7.032.001-5.521-3.011-10.11-6.578-10.11s-6.58 4.589-6.58 10.02c.017 2.91-1.39 5.539-3.762 7.122-2.432 1.624-4.003 5.232-4.003 9.192 0 .566.043 1.162.135 1.878a1.999 1.999 0 0 1-1.986 2.255M633.698 99.387a84.976 84.976 0 0 0-32.488 1.08"/>
        <path fill="#B3B3B3" d="M601.208 102.467a2 2 0 0 1-.446-3.95 86.552 86.552 0 0 1 33.253-1.105 2 2 0 1 1-.634 3.95 82.533 82.533 0 0 0-31.723 1.054 2.05 2.05 0 0 1-.45.05M627 198.903a2 2 0 0 1-1.865-1.28 3.826 3.826 0 0 0-3.59-2.466 3.831 3.831 0 0 0-3.008 1.453 1.999 1.999 0 0 1-3.343-.334 5.47 5.47 0 0 0-4.883-2.992 5.488 5.488 0 0 0-4.834 2.887 2.006 2.006 0 0 1-1.6 1.044 2.027 2.027 0 0 1-1.746-.777 3.826 3.826 0 0 0-3.054-1.515 2 2 0 0 1 0-4c1.578 0 3.082.464 4.351 1.316a9.484 9.484 0 0 1 6.884-2.955 9.44 9.44 0 0 1 7.014 3.101 7.823 7.823 0 0 1 4.22-1.228 7.799 7.799 0 0 1 7.32 5.024 1.999 1.999 0 0 1-1.865 2.722"/>
        <path fill="#FFF" d="M403 132c0-28.167-22.833-51-51-51s-51 22.833-51 51c0 24.779 17.674 45.423 41.103 50.032L352 218.477l9.897-36.445C385.326 177.423 403 156.779 403 132"/>
        <path fill="#B3B3B3" d="M352 83c-27.019 0-49 21.981-49 49 0 23.352 16.607 43.568 39.489 48.07a2.001 2.001 0 0 1 1.544 1.438L352 210.846l7.967-29.338c.2-.734.798-1.291 1.544-1.438C384.393 175.568 401 155.352 401 132c0-27.019-21.981-49-49-49m0 137.477a2 2 0 0 1-1.93-1.476l-9.576-35.262C316.375 178.4 299 156.84 299 132c0-29.225 23.776-53 53-53s53 23.775 53 53c0 24.84-17.375 46.4-41.494 51.739l-9.576 35.262a2 2 0 0 1-1.93 1.476"/>
        <path fill="#B3B3B3" d="M342.559 158.125c0-2.538.737-4.496 2.213-5.875 1.475-1.379 3.647-2.068 6.516-2.068 2.757 0 4.875.696 6.35 2.089 1.476 1.393 2.214 3.344 2.214 5.854 0 2.51-.766 4.454-2.296 5.833-1.531 1.379-3.62 2.068-6.268 2.068-2.73 0-4.87-.682-6.413-2.047-1.545-1.366-2.316-3.317-2.316-5.854zm1.778-16.48v-3.558c0-2.703.552-4.985 1.656-6.847 1.102-1.862 3.06-3.675 5.875-5.44 2.233-1.407 3.839-2.675 4.819-3.807.978-1.13 1.469-2.427 1.469-3.889 0-1.158-.525-2.075-1.573-2.75-1.048-.676-2.414-1.014-4.095-1.014-4.165 0-9.033 1.475-14.604 4.427l-5.751-11.253c6.867-3.916 14.038-5.875 21.513-5.875 6.15 0 10.977 1.351 14.48 4.054 3.502 2.703 5.254 6.385 5.254 11.046 0 3.338-.78 6.227-2.338 8.667-1.558 2.442-4.047 4.752-7.466 6.93-2.897 1.876-4.71 3.248-5.441 4.116-.731.869-1.097 1.898-1.097 3.083v2.11h-12.701z"/>
        <path fill="#B3B3B3" d="M346.337 139.644h8.7v-.109c0-1.664.528-3.135 1.568-4.37.552-.657 1.764-1.84 5.883-4.507 3.168-2.018 5.474-4.144 6.869-6.327 1.342-2.103 2.023-4.657 2.023-7.591 0-4.043-1.464-7.138-4.476-9.463-3.128-2.414-7.59-3.638-13.258-3.638-6.483 0-12.814 1.58-18.845 4.7l3.956 7.742c5.11-2.484 9.723-3.741 13.73-3.741 2.065 0 3.807.449 5.18 1.332 1.628 1.05 2.488 2.583 2.488 4.433 0 1.95-.658 3.698-1.957 5.198-1.116 1.29-2.84 2.66-5.264 4.19-2.534 1.589-4.288 3.192-5.221 4.766-.913 1.54-1.376 3.5-1.376 5.828v1.558zm10.7 4h-12.7a2 2 0 0 1-2-2v-3.558c0-3.054.65-5.7 1.935-7.866 1.277-2.156 3.414-4.157 6.532-6.114 2.055-1.295 3.527-2.446 4.37-3.421.66-.763.98-1.606.98-2.58 0-.4-.11-.718-.655-1.07-.715-.461-1.728-.695-3.012-.695-3.816 0-8.414 1.41-13.667 4.195a2.001 2.001 0 0 1-2.717-.858l-5.751-11.253a1.998 1.998 0 0 1 .79-2.647c7.142-4.072 14.713-6.138 22.504-6.138 6.574 0 11.857 1.504 15.702 4.472 4.003 3.089 6.032 7.338 6.032 12.629 0 3.71-.893 6.987-2.652 9.743-1.71 2.679-4.428 5.215-8.078 7.54-3.55 2.299-4.647 3.316-4.985 3.718-.428.507-.627 1.077-.627 1.794v2.11a2 2 0 0 1-2 2zm-5.75 8.537c-2.331 0-4.064.515-5.15 1.53-1.062.993-1.578 2.436-1.578 4.413 0 1.957.536 3.38 1.64 4.356 1.16 1.026 2.873 1.547 5.089 1.547 2.155 0 3.768-.51 4.929-1.555 1.1-.99 1.635-2.413 1.635-4.347 0-1.952-.52-3.391-1.587-4.4-1.085-1.023-2.76-1.543-4.977-1.543zm0 15.845c-3.22 0-5.824-.858-7.737-2.55-1.984-1.754-2.991-4.227-2.991-7.352 0-3.101.958-5.57 2.847-7.334 1.85-1.731 4.503-2.608 7.882-2.608 3.272 0 5.87.887 7.722 2.635 1.886 1.78 2.842 4.239 2.842 7.308 0 3.088-.995 5.55-2.957 7.319-1.904 1.714-4.463 2.583-7.607 2.583z"/>
        <path fill="#FFF" d="M416.716 158.884l-5.65-3.262v-6.524l5.65-3.262 5.65 3.262v6.524z"/>
        <path fill="#B3B3B3" d="M413.066 154.468l3.65 2.106 3.65-2.106v-4.216l-3.65-2.106-3.65 2.106v4.216zm3.65 6.416c-.345 0-.69-.09-1-.268l-5.65-3.261a2.001 2.001 0 0 1-1-1.733v-6.524c0-.715.381-1.375 1-1.733l5.65-3.261a1.996 1.996 0 0 1 2 0l5.65 3.26c.618.359 1 1.019 1 1.734v6.524c0 .715-.382 1.375-1 1.733l-5.65 3.26c-.31.18-.655.269-1 .269z"/>
        <path fill="#FFF" d="M309 151a6 6 0 0 1-12 0 6 6 0 0 1 12 0"/>
        <path fill="#B3B3B3" d="M303 147c-2.206 0-4 1.794-4 4s1.794 4 4 4 4-1.794 4-4-1.794-4-4-4m0 12c-4.411 0-8-3.589-8-8s3.589-8 8-8 8 3.589 8 8-3.589 8-8 8M390 169a4 4 0 1 1-8 0 4 4 0 0 1 8 0"/>
        <path fill="#B3B3B3" d="M386 167c-1.103 0-2 .897-2 2s.897 2 2 2 2-.897 2-2-.897-2-2-2m0 8c-3.309 0-6-2.691-6-6s2.691-6 6-6 6 2.691 6 6-2.691 6-6 6M285 116a3 3 0 1 1-6 0 3 3 0 0 1 6 0"/>
        <path fill="#B3B3B3" d="M282 115a1.001 1.001 0 0 0 0 2 1.001 1.001 0 0 0 0-2m0 6c-2.757 0-5-2.243-5-5s2.243-5 5-5 5 2.243 5 5-2.243 5-5 5M311 81a4 4 0 1 1-8 0 4 4 0 0 1 8 0"/>
        <path fill="#B3B3B3" d="M307 79c-1.103 0-2 .897-2 2s.897 2 2 2 2-.897 2-2-.897-2-2-2m0 8c-3.309 0-6-2.691-6-6s2.691-6 6-6 6 2.691 6 6-2.691 6-6 6M419 98h-12a2 2 0 0 1 0-4h12a2 2 0 0 1 0 4"/>
        <path fill="#B3B3B3" d="M413 104a2 2 0 0 1-2-2V90a2 2 0 0 1 4 0v12a2 2 0 0 1-2 2M104.999 101.006a83.986 83.986 0 0 1 32.239 16.367 34.972 34.972 0 0 1 1.38-4.327c1.067-2.72 1.674-5.841 1.674-9.162 0-7.586-3.167-14.136-7.75-17.196-2.84-1.898-4.569-5.071-4.549-8.487v-.161c0-10.515-6.084-19.04-13.59-19.04-7.508 0-13.592 8.525-13.592 19.04v.16c.02 3.417-1.709 6.59-4.55 8.488-3.447 2.302-6.091 6.58-7.19 11.788v.02a84.757 84.757 0 0 1 15.928 2.51"/>
        <path fill="#B3B3B3" d="M91.61 96.685a86.558 86.558 0 0 1 13.89 2.385c11.196 2.895 21.495 7.9 30.654 14.896.188-.556.389-1.107.602-1.65 1.005-2.56 1.536-5.476 1.536-8.432 0-6.653-2.692-12.75-6.86-15.533-3.43-2.291-5.462-6.09-5.438-10.161l2-.15h-2c0-9.395-5.2-17.04-11.591-17.04-6.392 0-11.592 7.645-11.592 17.04v.143c.025 4.079-2.01 7.877-5.438 10.168-2.553 1.706-4.59 4.677-5.763 8.334m45.628 22.688c-.456 0-.905-.156-1.267-.453-9.284-7.602-19.873-12.978-31.473-15.977-4.994-1.292-10.227-2.115-15.552-2.45a2.002 2.002 0 0 1-1.875-1.996c0-.138.014-.298.043-.434 1.197-5.674 4.127-10.426 8.037-13.038 2.308-1.542 3.677-4.088 3.66-6.812v-.173c0-11.601 6.995-21.04 15.592-21.04 8.597 0 15.59 9.439 15.59 21.04v.173c-.016 2.724 1.353 5.27 3.66 6.812 5.329 3.558 8.639 10.785 8.639 18.859 0 3.45-.626 6.872-1.812 9.893a33.345 33.345 0 0 0-1.302 4.08 2 2 0 0 1-1.94 1.516"/>
    </g>
</svg>
