<svg xmlns="http://www.w3.org/2000/svg" width="704" height="400" viewBox="0 0 704 400">
    <g fill="none" fill-rule="evenodd">
        <path fill="#E6E6E6" d="M181.235 202h-61.177a2 2 0 0 1 0-4h61.177a2 2 0 0 1 0 4M622.059 178.47h-562a2 2 0 0 1 0-4h562a2 2 0 0 1 0 4M668.059 202H191.824a2 2 0 0 1 0-4h476.235a2 2 0 0 1 0 4M592.059 225.53H168.294a2 2 0 0 1 0-4h423.765a2 2 0 0 1 0 4M108.294 202h-23.53a2 2 0 0 1 0-4h23.53a2 2 0 0 1 0 4M585.353 143.177H462.412a2 2 0 0 1 0-4h122.941a2 2 0 0 1 0 4M498.294 119.647H203.588a2 2 0 0 1 0-4h294.706a2 2 0 0 1 0 4M451.824 143.177H113.059a2 2 0 0 1 0-4h338.765a2 2 0 0 1 0 4M630.647 143.177h-23.529a2 2 0 0 1 0-4h23.529a2 2 0 0 1 0 4M570.647 260.823H425.941a2 2 0 0 1 0-4h144.706a2 2 0 0 1 0 4M477.118 284.352h-98.235a2 2 0 0 1 0-4h98.235a2 2 0 0 1 0 4M624.765 260.823h-37.647a2 2 0 0 1 0-4h37.647a2 2 0 0 1 0 4M655.353 260.823h-14.118a2 2 0 0 1 0-4h14.118a2 2 0 0 1 0 4M257.123 65.752l9.406 5.43 9.406-5.43V54.89l-9.406-5.43-9.406 5.43v10.862zm9.406 9.739c-.344 0-.69-.089-1-.267l-11.405-6.585a2.001 2.001 0 0 1-1-1.733V53.735a2 2 0 0 1 1-1.732l11.405-6.585a2.001 2.001 0 0 1 2 0l11.406 6.585c.618.357 1 1.018 1 1.732v13.171c0 .715-.382 1.375-1 1.733l-11.406 6.585c-.31.178-.654.267-1 .267z"/>
        <path fill="#E6E6E6" d="M525.359 214.575l9.406 5.43 9.406-5.43v-10.86l-9.406-5.432-9.406 5.431v10.861zm9.406 9.74c-.345 0-.691-.09-1-.268l-11.406-6.585a2.001 2.001 0 0 1-1-1.733v-13.17a2 2 0 0 1 1-1.732l11.406-6.586a2.001 2.001 0 0 1 2 0l11.406 6.586c.618.357 1 1.018 1 1.732v13.17c0 .715-.382 1.375-1 1.733l-11.406 6.585c-.31.178-.655.267-1 .267zM455.359 344.575l6.23 3.597 6.232-3.597v-7.195l-6.231-3.598-6.231 3.598v7.195zm6.23 7.906c-.344 0-.69-.089-1-.267l-8.23-4.752a2.001 2.001 0 0 1-1-1.733v-9.504a2 2 0 0 1 1-1.732l8.23-4.753a2.001 2.001 0 0 1 2 0l8.232 4.753a2 2 0 0 1 1 1.732v9.504c0 .715-.381 1.375-1 1.733l-8.231 4.752c-.31.178-.655.267-1 .267zM175.947 153.987l6.231 3.597 6.231-3.597v-7.196l-6.23-3.597-6.232 3.597v7.196zm6.231 7.906c-.345 0-.69-.089-1-.267l-8.23-4.752a2.001 2.001 0 0 1-1-1.733v-9.505a2 2 0 0 1 1-1.732l8.23-4.752a2.001 2.001 0 0 1 2 0l8.231 4.752a2 2 0 0 1 1 1.732v9.505c0 .715-.38 1.375-1 1.733l-8.23 4.752c-.31.178-.656.267-1 .267zM145.359 243.693l15.569 8.987 15.569-8.987v-17.979l-15.57-8.988-15.568 8.988v17.98zm15.569 13.297c-.345 0-.691-.089-1-.268l-17.57-10.142a2.001 2.001 0 0 1-1-1.733V224.56c0-.715.382-1.375 1-1.732l17.57-10.144a2.001 2.001 0 0 1 2 0l17.569 10.144a2 2 0 0 1 1 1.732v20.287c0 .715-.382 1.375-1 1.733l-17.57 10.142c-.31.18-.654.268-1 .268z"/>
        <path fill="#E6E6E6" d="M160.928 229.644a5.065 5.065 0 0 0-5.06 5.06 5.064 5.064 0 0 0 5.06 5.058 5.064 5.064 0 0 0 5.059-5.058c0-2.79-2.27-5.06-5.06-5.06m0 14.118c-4.994 0-9.058-4.063-9.058-9.058 0-4.996 4.064-9.06 9.059-9.06 4.995 0 9.059 4.064 9.059 9.06 0 4.995-4.064 9.058-9.06 9.058M445.359 97.93l9.35 5.398 9.35-5.397V87.133l-9.35-5.397-9.35 5.397V97.93zm9.35 9.708c-.345 0-.69-.09-1-.268l-11.35-6.552a2.001 2.001 0 0 1-1-1.733V85.979c0-.715.38-1.375 1-1.733l11.35-6.552a1.996 1.996 0 0 1 2 0l11.35 6.552c.618.358 1 1.018 1 1.733v13.106c0 .715-.382 1.375-1 1.733l-11.35 6.552a1.995 1.995 0 0 1-1 .268z"/>
        <path fill="#E6E6E6" d="M459.269 94.532h-9.121a2 2 0 0 1 0-4h9.121a2 2 0 0 1 0 4"/>
        <path fill="#E6E6E6" d="M454.709 99.092a2 2 0 0 1-2-2v-9.12a2 2 0 0 1 4 0v9.12a2 2 0 0 1-2 2M221.824 346.117a5.065 5.065 0 0 0-5.06 5.06 5.064 5.064 0 0 0 5.06 5.058 5.064 5.064 0 0 0 5.059-5.058c0-2.79-2.27-5.06-5.06-5.06m0 14.118c-4.994 0-9.058-4.063-9.058-9.058 0-4.996 4.064-9.06 9.059-9.06 4.995 0 9.059 4.064 9.059 9.06 0 4.995-4.064 9.058-9.06 9.058M406.53 37.294a5.065 5.065 0 0 0-5.06 5.059 5.064 5.064 0 0 0 5.06 5.059 5.064 5.064 0 0 0 5.058-5.06 5.065 5.065 0 0 0-5.059-5.058m0 14.118c-4.995 0-9.059-4.064-9.059-9.06 0-4.995 4.064-9.058 9.06-9.058 4.994 0 9.058 4.063 9.058 9.059 0 4.995-4.064 9.059-9.059 9.059M517.118 291.412c-.843 0-1.53.687-1.53 1.53 0 .842.687 1.53 1.53 1.53s1.529-.688 1.529-1.53c0-.843-.686-1.53-1.53-1.53m0 7.06a5.536 5.536 0 0 1-5.528-5.53 5.535 5.535 0 0 1 5.529-5.53 5.535 5.535 0 0 1 5.529 5.53c0 3.048-2.48 5.53-5.53 5.53M139.47 109.294c-.843 0-1.53.687-1.53 1.529 0 .843.687 1.53 1.53 1.53.844 0 1.53-.687 1.53-1.53 0-.842-.686-1.53-1.53-1.53m0 7.06a5.537 5.537 0 0 1-5.53-5.53 5.536 5.536 0 0 1 5.53-5.53 5.535 5.535 0 0 1 5.53 5.53c0 3.049-2.48 5.53-5.53 5.53M140.059 265.53c-.844 0-1.53.686-1.53 1.528 0 .843.686 1.53 1.53 1.53.843 0 1.529-.687 1.529-1.53 0-.842-.686-1.529-1.53-1.529m0 7.06a5.537 5.537 0 0 1-5.53-5.53 5.536 5.536 0 0 1 5.53-5.53 5.535 5.535 0 0 1 5.53 5.53c0 3.048-2.48 5.53-5.53 5.53M590.059 207.883c-.843 0-1.53.687-1.53 1.529 0 .843.687 1.53 1.53 1.53.844 0 1.53-.687 1.53-1.53 0-.842-.686-1.53-1.53-1.53m0 7.06a5.536 5.536 0 0 1-5.53-5.53 5.535 5.535 0 0 1 5.53-5.53c3.049 0 5.53 2.48 5.53 5.53a5.537 5.537 0 0 1-5.53 5.53M483.588 314.059H469.47a2 2 0 0 1 0-4h14.118a2 2 0 0 1 0 4"/>
        <path fill="#E6E6E6" d="M476.53 321.117a2 2 0 0 1-2-2V305a2 2 0 0 1 4 0v14.117a2 2 0 0 1-2 2M50.059 216.117H35.94a2 2 0 0 1 0-4h14.118a2 2 0 0 1 0 4"/>
        <path fill="#E6E6E6" d="M43 223.177a2 2 0 0 1-2-2v-14.118a2 2 0 0 1 4 0v14.118a2 2 0 0 1-2 2M644.176 203.177h-14.118a2 2 0 0 1 0-4h14.118a2 2 0 0 1 0 4"/>
        <path fill="#E6E6E6" d="M637.118 210.235a2 2 0 0 1-2-2v-14.118a2 2 0 0 1 4 0v14.118a2 2 0 0 1-2 2"/>
        <path fill="#FFF" d="M97.882 267.059a3.529 3.529 0 1 1-7.058 0 3.529 3.529 0 0 1 7.058 0"/>
        <path fill="#FFF" d="M94.353 265.53c-.844 0-1.53.686-1.53 1.528 0 .843.686 1.53 1.53 1.53.843 0 1.529-.687 1.529-1.53 0-.842-.686-1.529-1.529-1.529m0 7.06a5.537 5.537 0 0 1-5.53-5.53 5.536 5.536 0 0 1 5.53-5.53 5.535 5.535 0 0 1 5.529 5.53c0 3.048-2.48 5.53-5.529 5.53"/>
        <path fill="#B3B3B3" d="M153.535 305.883h396.93V124.706h-396.93z"/>
        <path fill="#B3B3B3" d="M155.535 303.883h392.931V126.706H155.535v177.177zm394.93 4h-396.93a2 2 0 0 1-2-2V124.706a2 2 0 0 1 2-2h396.93a2 2 0 0 1 2 2v181.177a2 2 0 0 1-2 2z"/>
        <path fill="#B3B3B3" d="M370.465 315.294h-36.93a9.412 9.412 0 0 1-9.412-9.411V134.117h55.754v171.766c0 5.197-4.214 9.41-9.412 9.41"/>
        <path fill="#B3B3B3" d="M326.123 136.117v169.766c0 4.087 3.325 7.411 7.412 7.411h36.93c4.087 0 7.412-3.324 7.412-7.41V136.116h-51.754zm44.342 181.177h-36.93c-6.293 0-11.412-5.119-11.412-11.41V134.116a2 2 0 0 1 2-2h55.754a2 2 0 0 1 2 2v171.766c0 6.292-5.119 11.411-11.412 11.411z"/>
        <path fill="#E6E6E6" d="M167.653 296.471h178.465V115.294H167.653z"/>
        <path fill="#B3B3B3" d="M169.652 294.471h174.465V117.294H169.652v177.177zm176.466 4H167.652a2 2 0 0 1-2-2V115.294a2 2 0 0 1 2-2h178.466a2 2 0 0 1 2 2v181.177a2 2 0 0 1-2 2z"/>
        <path fill="#E6E6E6" d="M357.883 296.471h178.465V115.294H357.883z"/>
        <path fill="#B3B3B3" d="M359.882 294.471h174.465V117.294H359.882v177.177zm176.466 4H357.882a2 2 0 0 1-2-2V115.294a2 2 0 0 1 2-2h178.466a2 2 0 0 1 2 2v181.177a2 2 0 0 1-2 2z"/>
        <path fill="#E6E6E6" d="M346.118 291.765l-178.465-4.706V105.883l178.465 4.705z"/>
        <path fill="#B3B3B3" d="M169.652 285.11l174.465 4.601V112.536l-174.465-4.6V285.11zm176.465 8.654h-.052L167.6 289.056a2 2 0 0 1-1.947-1.999V105.882c0-.54.218-1.056.604-1.432.387-.377.91-.59 1.45-.567l178.464 4.706a1.999 1.999 0 0 1 1.947 2v181.175a2 2 0 0 1-2 2z"/>
        <path fill="#E6E6E6" d="M536.348 287.059l-178.465 4.706V110.588l178.465-4.705z"/>
        <path fill="#B3B3B3" d="M359.883 112.537V289.71l174.465-4.6V107.937l-174.465 4.6zm-2 181.228a2.001 2.001 0 0 1-2-2V110.588a2 2 0 0 1 1.947-2l178.465-4.704a1.998 1.998 0 0 1 2.053 1.999v181.176a2 2 0 0 1-1.947 1.999l-178.466 4.706h-.052z"/>
        <path fill="#E6E6E6" d="M346.118 287.059l-178.465-9.411V96.47l178.465 9.412z"/>
        <path fill="#B3B3B3" d="M169.652 275.75l174.465 9.2V107.78l-174.465-9.201V275.75zm176.465 13.309a1.84 1.84 0 0 1-.105-.003l-178.465-9.411a2 2 0 0 1-1.895-1.998V96.471a2 2 0 0 1 2.105-1.997l178.466 9.412a1.998 1.998 0 0 1 1.894 1.997v181.176a2.002 2.002 0 0 1-2 2z"/>
        <path fill="#E6E6E6" d="M536.348 277.648l-178.465 9.41V105.884l178.465-9.412z"/>
        <path fill="#B3B3B3" d="M359.883 107.78v177.17l174.465-9.2V98.58l-174.465 9.2zm-2 181.278a2 2 0 0 1-2-2V105.882a2 2 0 0 1 1.894-1.997l178.466-9.412a2.001 2.001 0 0 1 2.105 1.997v181.177a2 2 0 0 1-1.895 1.997l-178.465 9.411a1.84 1.84 0 0 1-.105.003z"/>
        <path fill="#F2F2F2" d="M357.882 105.883v7.059l178.465-9.413V96.47z"/>
        <path fill="#B3B3B3" d="M359.883 107.78v177.17l174.465-9.2V98.58l-174.465 9.2zm-2 181.278a2 2 0 0 1-2-2V105.882a2 2 0 0 1 1.894-1.997l178.466-9.412a2.001 2.001 0 0 1 2.105 1.997v181.177a2 2 0 0 1-1.895 1.997l-178.465 9.411a1.84 1.84 0 0 1-.105.003z"/>
        <path fill="#E6E6E6" d="M346.118 277.648l-137.29-23.53V72.942l137.29 23.529z"/>
        <path fill="#B3B3B3" d="M210.83 252.43l133.288 22.846V98.158L210.83 75.314V252.43zm135.288 27.218a2.02 2.02 0 0 1-.338-.03l-137.289-23.53a2 2 0 0 1-1.662-1.97V72.942a2 2 0 0 1 2.338-1.972l137.288 23.529c.96.165 1.663.997 1.663 1.972v181.177a2.002 2.002 0 0 1-2 2z"/>
        <path fill="#F2F2F2" d="M208.83 72.941v7.06l137.288 23.528V96.47z"/>
        <path fill="#B3B3B3" d="M210.83 252.43l133.288 22.846V98.158L210.83 75.314V252.43zm135.288 27.218a2.02 2.02 0 0 1-.338-.03l-137.289-23.53a2 2 0 0 1-1.662-1.97V72.942a2 2 0 0 1 2.338-1.972l137.288 23.529c.96.165 1.663.997 1.663 1.972v181.177a2.002 2.002 0 0 1-2 2z"/>
        <path fill="#E6E6E6" d="M374.353 107.883a2 2 0 0 1-2-2c0-11.872-9.658-21.53-21.529-21.53-9.571 0-18.086 6.42-20.707 15.613a1.996 1.996 0 0 1-2.472 1.374 2 2 0 0 1-1.375-2.472c3.108-10.901 13.206-18.515 24.554-18.515 14.077 0 25.529 11.453 25.529 25.53a2 2 0 0 1-2 2M374.353 186.706a2 2 0 0 1-2-2c0-11.87-9.658-21.529-21.529-21.529-9.571 0-18.086 6.42-20.707 15.612a1.997 1.997 0 0 1-2.472 1.374 2 2 0 0 1-1.375-2.472c3.109-10.9 13.206-18.514 24.554-18.514 14.077 0 25.529 11.452 25.529 25.53a2 2 0 0 1-2 2M374.353 265.53a2 2 0 0 1-2-2c0-11.872-9.658-21.53-21.529-21.53-9.571 0-18.086 6.42-20.707 15.613a2 2 0 1 1-3.847-1.098c3.108-10.9 13.206-18.515 24.554-18.515 14.077 0 25.529 11.452 25.529 25.53a2 2 0 0 1-2 2"/>
        <path fill="#B3B3B3" d="M374.353 112.588a2 2 0 0 1-2-2c0-11.871-9.658-21.53-21.529-21.53-9.571 0-18.086 6.42-20.707 15.614a1.996 1.996 0 0 1-2.472 1.374 2 2 0 0 1-1.375-2.472c3.108-10.901 13.206-18.515 24.554-18.515 14.077 0 25.529 11.452 25.529 25.529a2 2 0 0 1-2 2M374.353 191.412a2 2 0 0 1-2-2c0-11.87-9.658-21.529-21.529-21.529-9.571 0-18.086 6.42-20.707 15.612a1.996 1.996 0 0 1-2.472 1.374 2 2 0 0 1-1.375-2.472c3.108-10.9 13.205-18.514 24.554-18.514 14.077 0 25.529 11.452 25.529 25.53a2 2 0 0 1-2 2M374.353 270.235a2 2 0 0 1-2-2c0-11.87-9.658-21.529-21.529-21.529-9.571 0-18.086 6.42-20.707 15.612a1.997 1.997 0 0 1-2.472 1.374 2 2 0 0 1-1.375-2.472c3.109-10.9 13.206-18.514 24.554-18.514 14.077 0 25.529 11.452 25.529 25.53a2 2 0 0 1-2 2"/>
        <path fill="#E6E6E6" d="M277.473 211.627l-33.353-23.882v-36.334c11.118-4.15 22.235-8.301 33.353-12.449l33.353 23.882v36.333c-11.117 4.151-22.235 8.301-33.353 12.45"/>
        <path fill="#B3B3B3" d="M246.12 186.718l31.652 22.663 31.055-11.593V163.87l-31.652-22.663L246.12 152.8v33.918zm31.354 26.909a2 2 0 0 1-1.165-.374l-33.353-23.882a1.998 1.998 0 0 1-.835-1.626V151.41c0-.835.519-1.582 1.3-1.874l33.353-12.45a2.005 2.005 0 0 1 1.864.249l33.353 23.882c.525.375.836.98.836 1.626v36.333a2 2 0 0 1-1.301 1.874l-33.353 12.45a2.015 2.015 0 0 1-.7.126z"/>
        <path fill="#B3B3B3" d="M289.255 173.158v-11.55l-23.563-4.039v11.551c0 4.702 3.1 9.244 7.473 11.617v4.324c-2.81.516-4.716 2.131-4.716 4.364v2.984l18.049 3.094v-2.986c0-2.23-1.907-4.5-4.716-5.979v-4.323c4.373-.875 7.473-4.355 7.473-9.057"/>
        <path fill="#B3B3B3" d="M270.45 190.723l14.048 2.408v-.613c0-1.37-1.466-3.061-3.648-4.21a2 2 0 0 1-1.068-1.77v-4.323a2 2 0 0 1 1.607-1.961c3.563-.713 5.866-3.498 5.866-7.095v-9.865l-19.563-3.352v9.178c0 3.812 2.582 7.774 6.426 9.86a1.998 1.998 0 0 1 1.046 1.758v4.324a2 2 0 0 1-1.639 1.967c-1.487.273-3.076 1.046-3.076 2.396v1.298zm16.048 6.78c-.112 0-.226-.01-.338-.028l-18.049-3.094a2 2 0 0 1-1.662-1.971v-2.985c0-2.667 1.803-4.863 4.715-5.896v-1.65c-4.575-2.918-7.472-7.81-7.472-12.76v-11.55a2 2 0 0 1 2.338-1.971l23.563 4.038a2 2 0 0 1 1.662 1.972v11.55c0 4.94-2.942 9.015-7.473 10.583v1.645c2.975 1.885 4.716 4.489 4.716 7.132v2.985a2 2 0 0 1-2 2z"/>
        <path fill="#E6E6E6" d="M289.255 164.564v8.595a9.68 9.68 0 0 1-.426 2.788c.864.148 1.296.221 2.158.37 3.462.594 6.268-1.573 6.268-4.839v-5.543l-8-1.371"/>
        <path fill="#B3B3B3" d="M291.193 174.322l.131.022c1.172.2 2.223-.032 2.965-.657.632-.533.966-1.297.966-2.209v-3.857l-4-.686v6.223c0 .39-.02.776-.062 1.164m.907 4.09c-.478 0-.963-.04-1.45-.124l-2.158-.369a2.004 2.004 0 0 1-1.58-2.544 7.639 7.639 0 0 0 .343-2.217v-8.595a2 2 0 0 1 .71-1.529 2.014 2.014 0 0 1 1.627-.442l8 1.371c.96.165 1.663.997 1.663 1.971v5.544c0 2.1-.849 3.97-2.388 5.267-1.29 1.088-2.975 1.667-4.767 1.667"/>
        <path fill="#E6E6E6" d="M265.692 169.12v-8.595l-8-1.37v5.542c0 3.266 2.806 6.394 6.267 6.987l2.158.371c-.26-.96-.425-1.942-.425-2.935"/>
        <path fill="#B3B3B3" d="M259.692 161.526v3.171c0 2.105 1.782 4.217 4.009 4.877a11.535 11.535 0 0 1-.01-.454v-6.908l-4-.686zm6.425 12.528c-.112 0-.226-.009-.34-.029l-2.155-.369c-4.447-.764-7.93-4.698-7.93-8.959v-5.543a1.998 1.998 0 0 1 2.338-1.972l7.999 1.371a2 2 0 0 1 1.663 1.972v8.595c0 .737.116 1.526.356 2.413a2 2 0 0 1-1.931 2.521z"/>
        <path fill="#E6E6E6" d="M207.652 163.072h32.122c6.937 0 12.562 5.625 12.562 12.563 0 6.936-5.625 12.561-12.562 12.561H199.03"/>
        <path fill="#B3B3B3" d="M239.774 190.196H199.03a2 2 0 0 1 0-4h40.743c5.824 0 10.562-4.738 10.562-10.562 0-5.824-4.738-10.562-10.562-10.562h-32.122a2 2 0 0 1 0-4h32.122c8.029 0 14.562 6.532 14.562 14.562s-6.533 14.562-14.562 14.562"/>
        <path fill="#CCC" d="M447.115 152.598c-11.833 7.15-23.665 14.303-35.497 21.455v39.168c11.832 5.904 23.664 11.808 35.497 17.71 11.833-7.15 23.665-14.302 35.497-21.454v-39.168l-35.497-17.711"/>
        <path fill="#B3B3B3" d="M413.618 211.983l33.404 16.667 33.59-20.302v-36.803l-33.405-16.666-33.589 20.301v36.803zm33.497 20.948c-.306 0-.61-.069-.893-.21l-35.497-17.71a2.002 2.002 0 0 1-1.107-1.79v-39.169c0-.7.366-1.349.965-1.712l35.497-21.455a2 2 0 0 1 1.928-.078l35.496 17.712a2 2 0 0 1 1.107 1.79v39.167a2 2 0 0 1-.965 1.712l-35.497 21.455a1.996 1.996 0 0 1-1.034.288z"/>
        <path fill="#B3B3B3" d="M413.618 211.983l33.404 16.667 33.59-20.302v-36.803l-33.405-16.666-33.589 20.301v36.803zm33.497 20.948c-.306 0-.61-.069-.893-.21l-35.497-17.71a2.002 2.002 0 0 1-1.107-1.79v-39.169c0-.7.366-1.349.965-1.712l35.497-21.455a2 2 0 0 1 1.928-.078l35.496 17.712a2 2 0 0 1 1.107 1.79v39.167a2 2 0 0 1-.965 1.712l-35.497 21.455a1.996 1.996 0 0 1-1.034.288z"/>
        <path fill="#B3B3B3" d="M447.115 178.876l3.94 7.423 8.814.759-6.377 6.276 1.506 8.309-7.883-3.545-7.882 4.376 1.505-8.467-6.377-5.604 8.813-1.688 3.94-7.839"/>
        <path fill="#B3B3B3" d="M438.75 189.599l3.308 2.906a2 2 0 0 1 .649 1.852l-.77 4.328 4.207-2.335a1.997 1.997 0 0 1 1.79-.076l4.418 1.986-.828-4.57a2 2 0 0 1 .565-1.782l3.283-3.23-4.488-.387a1.997 1.997 0 0 1-1.594-1.054l-2.127-4.004-2.202 4.38c-.28.555-.8.95-1.411 1.066l-4.8.92zm.483 14.875c-.41 0-.816-.125-1.163-.372a2.005 2.005 0 0 1-.807-1.978l1.308-7.358-5.53-4.86a2.001 2.001 0 0 1 .944-3.466l7.845-1.504 3.485-6.932a2.021 2.021 0 0 1 1.77-1.114c.747-.052 1.445.387 1.796 1.048l3.43 6.462 7.729.666a2 2 0 0 1 1.232 3.418l-5.623 5.534 1.317 7.268a2 2 0 0 1-2.79 2.18l-6.967-3.133-7.006 3.89a1.998 1.998 0 0 1-.97.25zM193.452 193.982c-9.494-9.493-24.943-9.494-34.439-.003C115.813 237.173 56.09 254.017 0 244.514v49.255a234.585 234.585 0 0 0 30.584 2.01c61.596 0 119.437-23.92 162.868-67.355a24.195 24.195 0 0 0 7.135-17.222c0-6.505-2.534-12.62-7.135-17.22"/>
        <path fill="#CCC" d="M192.038 195.397c-8.732-8.732-22.878-8.73-31.611-.004C116.837 238.978 56.609 256.029 0 246.543v11.766c56.609 9.483 116.838-7.565 160.427-51.15 8.733-8.728 22.879-8.73 31.61.002a22.231 22.231 0 0 1 5.747 9.923c2.035-7.483.13-15.812-5.746-21.688"/>
        <path fill="#B3B3B3" d="M193.452 193.982c-9.494-9.493-24.943-9.494-34.439-.003C115.813 237.173 56.09 254.017 0 244.514v4.054a187.152 187.152 0 0 0 30.581 2.518c47.53-.005 95.075-18.098 131.26-54.278 7.937-7.933 20.85-7.93 28.782.002a20.218 20.218 0 0 1 5.964 14.392 20.222 20.222 0 0 1-5.964 14.394c-42.675 42.678-99.51 66.182-160.039 66.182-10.32 0-20.53-.7-30.584-2.045v4.036a234.585 234.585 0 0 0 30.584 2.01c61.596 0 119.437-23.92 162.868-67.355a24.195 24.195 0 0 0 7.135-17.222c0-6.505-2.534-12.62-7.135-17.22"/>
        <path fill="#E6E6E6" d="M229.78 163.072H208.83v-29.435l-45.75 45.75c-8.971 8.97-8.971 23.515 0 32.486l17.302 17.303c7.728 7.727 19.574 8.757 28.448 3.172v-44.152h20.952c6.937 0 12.562-5.625 12.562-12.562 0-6.937-5.625-12.562-12.562-12.562"/>
        <path fill="#B3B3B3" d="M206.83 138.466L164.492 180.8a20.836 20.836 0 0 0-6.143 14.829 20.834 20.834 0 0 0 6.143 14.829l17.302 17.303c6.695 6.693 16.846 8.046 25.034 3.45v-43.016a2 2 0 0 1 2-2h20.952c5.823 0 10.562-4.738 10.562-10.562 0-5.823-4.739-10.562-10.562-10.562H208.83a2 2 0 0 1-2-2v-24.606zm-10.273 99.45c-6.417 0-12.759-2.495-17.59-7.326l-17.302-17.303a24.805 24.805 0 0 1-7.315-17.657c0-6.67 2.598-12.941 7.315-17.657l45.75-45.75a2 2 0 0 1 3.414 1.414v27.435h18.952c8.03 0 14.562 6.533 14.562 14.562 0 8.03-6.533 14.562-14.562 14.562H210.83v42.153c0 .687-.353 1.326-.935 1.692-4.135 2.604-8.756 3.876-13.337 3.876z"/>
        <path fill="#F2F2F2" d="M163.08 193.504l45.75-45.75v-14.116l-45.75 45.749c-6.307 6.305-8.16 15.36-5.602 23.302a22.852 22.852 0 0 1 5.601-9.185"/>
        <path fill="#B3B3B3" d="M206.83 138.466L164.492 180.8a20.836 20.836 0 0 0-6.143 14.829 20.834 20.834 0 0 0 6.143 14.829l17.302 17.303c6.695 6.693 16.846 8.046 25.034 3.45v-43.016a2 2 0 0 1 2-2h20.952c5.823 0 10.562-4.738 10.562-10.562 0-5.823-4.739-10.562-10.562-10.562H208.83a2 2 0 0 1-2-2v-24.606zm-10.273 99.45c-6.417 0-12.759-2.495-17.59-7.326l-17.302-17.303a24.805 24.805 0 0 1-7.315-17.657c0-6.67 2.598-12.941 7.315-17.657l45.75-45.75a2 2 0 0 1 3.414 1.414v27.435h18.952c8.03 0 14.562 6.533 14.562 14.562 0 8.03-6.533 14.562-14.562 14.562H210.83v42.153c0 .687-.353 1.326-.935 1.692-4.135 2.604-8.756 3.876-13.337 3.876z"/>
        <path fill="#E6E6E6" d="M211.235 163.072h28.54c6.936 0 12.561 5.625 12.561 12.563 0 6.936-5.625 12.561-12.562 12.561H199.03"/>
        <path fill="#B3B3B3" d="M239.774 190.196h-40.743a2 2 0 0 1 0-4h40.743c5.823 0 10.562-4.738 10.562-10.562 0-5.824-4.739-10.562-10.562-10.562h-28.539a2 2 0 0 1 0-4h28.54c8.028 0 14.561 6.532 14.561 14.562s-6.533 14.562-14.562 14.562"/>
    </g>
</svg>
