<svg xmlns="http://www.w3.org/2000/svg" width="704" height="400" viewBox="0 0 704 400">
    <g fill="none" fill-rule="evenodd">
        <path fill="#E6E6E6" d="M193.176 202H132a2 2 0 0 1 0-4h61.176a2 2 0 0 1 0 4M275.53 178.47h-120a2 2 0 0 1 0-4h120a2 2 0 0 1 0 4M567.294 202h-363.53a2 2 0 0 1 0-4h363.53a2 2 0 0 1 0 4M312 225.53H180.235a2 2 0 0 1 0-4H312a2 2 0 0 1 0 4M120.235 202h-23.53a2 2 0 0 1 0-4h23.53a2 2 0 0 1 0 4M537.294 143.177h-62.941a2 2 0 0 1 0-4h62.94a2 2 0 0 1 0 4M500.235 119.647H415.53a2 2 0 0 1 0-4h84.706a2 2 0 0 1 0 4M463.765 143.177H284.942a2 2 0 0 1 0-4h178.823a2 2 0 0 1 0 4M582.588 143.177h-23.53a2 2 0 0 1 0-4h23.53a2 2 0 0 1 0 4M522.588 260.823h-84.706a2 2 0 0 1 0-4h84.706a2 2 0 0 1 0 4M499.059 284.352H390.824a2 2 0 0 1 0-4h108.235a2 2 0 0 1 0 4M576.706 260.823H539.06a2 2 0 0 1 0-4h37.647a2 2 0 0 1 0 4M607.294 260.823h-14.118a2 2 0 0 1 0-4h14.118a2 2 0 0 1 0 4M269.065 65.752l9.406 5.43 9.406-5.43V54.89l-9.406-5.43-9.406 5.43v10.862zm9.406 9.739c-.345 0-.691-.089-1-.267l-11.406-6.585a2.001 2.001 0 0 1-1-1.733V53.735a2 2 0 0 1 1-1.732l11.406-6.585a2.001 2.001 0 0 1 2 0l11.406 6.585c.618.357 1 1.018 1 1.732v13.171c0 .715-.382 1.375-1 1.733l-11.406 6.585c-.31.178-.655.267-1 .267z"/>
        <path fill="#E6E6E6" d="M527.3 214.575l9.406 5.43 9.406-5.43v-10.86l-9.406-5.432-9.406 5.431v10.861zm9.406 9.74c-.345 0-.69-.09-1-.268l-11.406-6.585a2.001 2.001 0 0 1-1-1.733v-13.17a2 2 0 0 1 1-1.732l11.406-6.586a2.001 2.001 0 0 1 2 0l11.406 6.586a2 2 0 0 1 1 1.732v13.17c0 .715-.381 1.375-1 1.733l-11.406 6.585a2.004 2.004 0 0 1-1 .267zM467.3 344.575l6.23 3.597 6.232-3.597v-7.195l-6.231-3.598-6.231 3.598v7.195zm6.23 7.906c-.344 0-.69-.089-1-.267l-8.23-4.752a2.001 2.001 0 0 1-1-1.733v-9.504a2 2 0 0 1 1-1.732l8.23-4.753a2.001 2.001 0 0 1 2 0l8.232 4.753a2 2 0 0 1 1 1.732v9.504c0 .715-.381 1.375-1 1.733l-8.231 4.752a2.001 2.001 0 0 1-1 .267zM187.888 153.987l6.231 3.597 6.231-3.597v-7.196l-6.23-3.597-6.232 3.597v7.196zm6.231 7.906c-.345 0-.69-.089-1-.267l-8.23-4.752a2.001 2.001 0 0 1-1-1.733v-9.505a2 2 0 0 1 1-1.732l8.23-4.752a2.001 2.001 0 0 1 2 0l8.231 4.752a2 2 0 0 1 1 1.732v9.505c0 .715-.38 1.375-1 1.733l-8.23 4.752c-.31.178-.656.267-1 .267zM157.3 243.693l15.569 8.987 15.569-8.987v-17.979l-15.57-8.988-15.568 8.988v17.98zm15.569 13.297c-.345 0-.69-.089-1-.268l-17.57-10.142a2.001 2.001 0 0 1-1-1.733V224.56c0-.715.382-1.375 1-1.732l17.57-10.144a2.001 2.001 0 0 1 2 0l17.569 10.144c.619.357 1 1.017 1 1.732v20.287c0 .715-.381 1.375-1 1.733l-17.57 10.142a1.992 1.992 0 0 1-1 .268z"/>
        <path fill="#E6E6E6" d="M172.87 229.644a5.065 5.065 0 0 0-5.06 5.06 5.064 5.064 0 0 0 5.06 5.058 5.064 5.064 0 0 0 5.058-5.058c0-2.79-2.269-5.06-5.059-5.06m0 14.118c-4.995 0-9.059-4.063-9.059-9.058 0-4.996 4.064-9.06 9.06-9.06 4.994 0 9.058 4.064 9.058 9.06 0 4.995-4.064 9.058-9.059 9.058M457.3 97.93l9.35 5.398L476 97.93V87.133l-9.35-5.397-9.35 5.397V97.93zm9.35 9.708c-.345 0-.69-.09-1-.268l-11.35-6.552a2.001 2.001 0 0 1-1-1.733V85.979c0-.715.38-1.375 1-1.733l11.35-6.552a1.996 1.996 0 0 1 2 0L479 84.246c.619.358 1 1.018 1 1.733v13.106c0 .715-.381 1.375-1 1.733l-11.35 6.552a1.995 1.995 0 0 1-1 .268z"/>
        <path fill="#E6E6E6" d="M471.21 94.532h-9.12a2 2 0 0 1 0-4h9.12a2 2 0 0 1 0 4"/>
        <path fill="#E6E6E6" d="M466.65 99.092a2 2 0 0 1-2-2v-9.12a2 2 0 0 1 4 0v9.12a2 2 0 0 1-2 2M233.765 346.117a5.065 5.065 0 0 0-5.06 5.06 5.064 5.064 0 0 0 5.06 5.058 5.064 5.064 0 0 0 5.059-5.058c0-2.79-2.27-5.06-5.06-5.06m0 14.118c-4.994 0-9.058-4.063-9.058-9.058 0-4.996 4.064-9.06 9.059-9.06 4.995 0 9.059 4.064 9.059 9.06 0 4.995-4.064 9.058-9.06 9.058M418.47 37.294a5.065 5.065 0 0 0-5.058 5.059 5.064 5.064 0 0 0 5.059 5.059 5.064 5.064 0 0 0 5.059-5.06 5.065 5.065 0 0 0-5.06-5.058m0 14.118c-4.994 0-9.058-4.064-9.058-9.06 0-4.995 4.064-9.058 9.059-9.058 4.995 0 9.059 4.063 9.059 9.059 0 4.995-4.064 9.059-9.06 9.059M529.059 291.412c-.843 0-1.53.687-1.53 1.53 0 .842.687 1.53 1.53 1.53.844 0 1.53-.688 1.53-1.53 0-.843-.686-1.53-1.53-1.53m0 7.06a5.536 5.536 0 0 1-5.53-5.53 5.535 5.535 0 0 1 5.53-5.53c3.049 0 5.53 2.48 5.53 5.53a5.537 5.537 0 0 1-5.53 5.53M151.412 109.294c-.844 0-1.53.687-1.53 1.529 0 .843.686 1.53 1.53 1.53s1.53-.687 1.53-1.53c0-.842-.686-1.53-1.53-1.53m0 7.06a5.537 5.537 0 0 1-5.53-5.53 5.536 5.536 0 0 1 5.53-5.53c3.049 0 5.53 2.48 5.53 5.53a5.537 5.537 0 0 1-5.53 5.53M152 265.53c-.843 0-1.529.686-1.529 1.528 0 .843.686 1.53 1.529 1.53.843 0 1.529-.687 1.529-1.53 0-.842-.686-1.529-1.529-1.529m0 7.06a5.536 5.536 0 0 1-5.529-5.53 5.535 5.535 0 0 1 5.529-5.53 5.535 5.535 0 0 1 5.529 5.53c0 3.048-2.48 5.53-5.529 5.53M602 207.883c-.843 0-1.529.687-1.529 1.529 0 .843.686 1.53 1.529 1.53.843 0 1.529-.687 1.529-1.53 0-.842-.686-1.53-1.529-1.53m0 7.06a5.536 5.536 0 0 1-5.529-5.53 5.535 5.535 0 0 1 5.529-5.53 5.535 5.535 0 0 1 5.529 5.53c0 3.049-2.48 5.53-5.529 5.53M495.53 314.059H481.41a2 2 0 0 1 0-4h14.118a2 2 0 0 1 0 4"/>
        <path fill="#E6E6E6" d="M488.47 321.117a2 2 0 0 1-2-2V305a2 2 0 0 1 4 0v14.117a2 2 0 0 1-2 2M62 216.117H47.882a2 2 0 0 1 0-4H62a2 2 0 0 1 0 4"/>
        <path fill="#E6E6E6" d="M54.941 223.177a2 2 0 0 1-2-2v-14.118a2 2 0 0 1 4 0v14.118a2 2 0 0 1-2 2M656.118 203.177H642a2 2 0 0 1 0-4h14.118a2 2 0 0 1 0 4"/>
        <path fill="#E6E6E6" d="M649.059 210.235a2 2 0 0 1-2-2v-14.118a2 2 0 0 1 4 0v14.118a2 2 0 0 1-2 2"/>
        <path fill="#B3B3B3" d="M334.428 102.978c-22.992 0-41.697 18.706-41.697 41.698v167.959c0 7.933 6.454 14.386 14.386 14.386h113.339c7.932 0 14.386-6.454 14.386-14.387V144.675c0-22.992-18.705-41.697-41.697-41.697h-58.717zm86.028 228.043h-113.34c-10.137 0-18.385-8.249-18.385-18.387V144.675c0-25.197 20.5-45.697 45.697-45.697h58.717c25.198 0 45.697 20.5 45.697 45.698v167.959c0 10.137-8.248 18.386-18.386 18.386z"/>
        <path fill="#B3B3B3" d="M255.615 194.59c7.265-54.676-3.633-81.321 46.385-81.321h-10.925c-50.017 0-39.119 25.725-46.384 78.517l.34.087c-.113.905-.218 1.796-.34 2.717-7.265 54.677-46.115 130.334 3.903 130.334h10.924v-6.827c-49.169 0-12.482-71.502-4.32-123.614l.417.107z"/>
        <path fill="#B3B3B3" d="M246.82 190.978c.171.343.246.736.195 1.141l-.099.806c-.078.638-.156 1.275-.243 1.927-2.009 15.124-6.412 31.83-10.67 47.984-8.134 30.86-15.817 60.005-5.85 72.94 3.706 4.81 9.738 7.147 18.441 7.147h8.924v-2.868c-9.002-.37-15.655-3.298-19.794-8.716-10.953-14.334-2.994-43.564 5.433-74.51 3.915-14.38 7.965-29.25 10.064-42.656.067-.43.272-.822.578-1.121 1.365-10.594 2.058-20.143 2.673-28.606 1.701-23.404 2.88-39.633 16.706-47.578-7.732 1.727-12.86 4.913-16.203 9.829-5.295 7.788-6.194 19.736-7.438 36.273-.622 8.268-1.324 17.602-2.718 28.008m12.7 135.945h-10.925c-9.888 0-17.158-2.928-21.609-8.704-11.168-14.493-3.242-44.564 5.15-76.401 4.226-16.036 8.597-32.618 10.574-47.492.072-.547.14-1.085.205-1.623a1.993 1.993 0 0 1-.204-1.19c1.475-10.719 2.2-20.346 2.838-28.843 2.494-33.143 3.868-51.401 45.527-51.401H302a2 2 0 0 1 0 4c-18.443 0-28.636 3.54-34.083 11.84-5.31 8.09-6.21 20.48-7.455 37.628-.644 8.855-1.373 18.893-2.865 30.117a1.997 1.997 0 0 1-.628 1.207c-2.182 13.282-6.13 27.781-9.953 41.82-8.159 29.964-15.865 58.268-6.114 71.03 3.695 4.836 9.784 7.185 18.616 7.185a2 2 0 0 1 2 2v6.827a2 2 0 0 1-2 2"/>
        <path fill="#CCC" d="M244.691 194.59c7.265-54.676-3.633-81.321 46.384-81.321h-10.924c-50.017 0-39.119 26.645-46.384 81.32-7.265 54.678-46.115 130.335 3.903 130.335h10.924c-50.018 0-11.168-75.657-3.903-130.334"/>
        <path fill="#B3B3B3" d="M262.078 116.969c-7.62 1.8-12.693 5.089-16.009 10.14-5.31 8.09-6.21 20.48-7.455 37.627-.644 8.856-1.373 18.894-2.865 30.118-2.009 15.123-6.412 31.828-10.67 47.983-8.135 30.859-15.817 60.005-5.85 72.94 2.75 3.569 6.781 5.777 12.234 6.678a19.698 19.698 0 0 1-4.478-4.236c-11.168-14.493-3.242-44.564 5.15-76.401 4.227-16.036 8.597-32.618 10.574-47.492 1.475-11.105 2.2-21.08 2.84-29.88 1.693-23.303 2.87-39.495 16.53-47.477m-13.485 209.955H237.67c-9.888 0-17.158-2.93-21.61-8.705-11.168-14.493-3.24-44.564 5.15-76.401 4.227-16.036 8.598-32.618 10.575-47.492 1.475-11.105 2.2-21.08 2.84-29.88 2.49-34.29 3.862-53.177 45.526-53.177h10.925a2 2 0 0 1 0 4c-18.443 0-28.636 3.54-34.082 11.84-5.31 8.09-6.21 20.48-7.456 37.627-.644 8.856-1.373 18.894-2.864 30.118-2.01 15.123-6.413 31.828-10.67 47.983-8.135 30.859-15.818 60.005-5.85 72.94 3.705 4.809 9.737 7.147 18.44 7.147a2 2 0 0 1 0 4M372.407 98.837a6.633 6.633 0 0 1-6.632-6.633v-16.5a5.165 5.165 0 0 0-5.159-5.157h-29.164a5.164 5.164 0 0 0-5.158 5.158v16.499a6.633 6.633 0 0 1-13.265 0v-16.5c0-10.157 8.265-18.422 18.423-18.422h29.164c10.16 0 18.424 8.265 18.424 18.423v16.499a6.633 6.633 0 0 1-6.633 6.633"/>
        <path fill="#B3B3B3" d="M331.453 68.547h29.164a7.166 7.166 0 0 1 7.158 7.158v16.499a4.638 4.638 0 0 0 4.633 4.633 4.638 4.638 0 0 0 4.632-4.633v-16.5c0-9.054-7.367-16.422-16.423-16.422h-29.164c-9.056 0-16.424 7.368-16.424 16.423v16.499a4.638 4.638 0 0 0 4.633 4.633 4.638 4.638 0 0 0 4.632-4.633v-16.5c0-3.946 3.212-7.157 7.159-7.157m40.955 32.29c-4.76 0-8.633-3.873-8.633-8.633v-16.5a3.162 3.162 0 0 0-3.158-3.157h-29.164a3.162 3.162 0 0 0-3.16 3.158v16.499c0 4.76-3.871 8.633-8.631 8.633s-8.633-3.873-8.633-8.633v-16.5c0-11.26 9.162-20.422 20.424-20.422h29.164c11.26 0 20.423 9.162 20.423 20.423v16.499c0 4.76-3.872 8.633-8.632 8.633"/>
        <path fill="#B3B3B3" d="M371.231 98.837a6.633 6.633 0 0 1-6.632-6.633v-16.5a5.165 5.165 0 0 0-5.159-5.157h-29.164a5.164 5.164 0 0 0-5.158 5.158v16.499a6.633 6.633 0 0 1-13.265 0v-16.5c0-10.157 8.264-18.422 18.423-18.422h29.164c10.159 0 18.423 8.265 18.423 18.423v16.499a6.633 6.633 0 0 1-6.632 6.633"/>
        <path fill="#B3B3B3" d="M330.276 68.547h29.164c3.947 0 7.159 3.21 7.159 7.158v16.499a4.638 4.638 0 0 0 4.632 4.633 4.638 4.638 0 0 0 4.632-4.633v-16.5c0-9.054-7.367-16.422-16.423-16.422h-29.164c-9.056 0-16.423 7.368-16.423 16.423v16.499a4.638 4.638 0 0 0 4.632 4.633 4.638 4.638 0 0 0 4.633-4.633v-16.5a7.166 7.166 0 0 1 7.158-7.157m40.955 32.29c-4.76 0-8.632-3.873-8.632-8.633v-16.5a3.162 3.162 0 0 0-3.16-3.157h-29.163a3.162 3.162 0 0 0-3.158 3.158v16.499c0 4.76-3.873 8.633-8.633 8.633-4.76 0-8.632-3.873-8.632-8.633v-16.5c0-11.26 9.162-20.422 20.423-20.422h29.164c11.26 0 20.423 9.162 20.423 20.423v16.499c0 4.76-3.872 8.633-8.632 8.633"/>
        <path fill="#E6E6E6" d="M381.777 98.837a6.633 6.633 0 0 1-6.632-6.633v-16.5a5.165 5.165 0 0 0-5.16-5.157h-29.163a5.164 5.164 0 0 0-5.158 5.158v16.499a6.633 6.633 0 0 1-13.265 0v-16.5c0-10.157 8.264-18.422 18.423-18.422h29.164c10.159 0 18.424 8.265 18.424 18.423v16.499a6.633 6.633 0 0 1-6.633 6.633"/>
        <path fill="#B3B3B3" d="M340.822 68.547h29.164a7.166 7.166 0 0 1 7.158 7.158v16.499a4.638 4.638 0 0 0 4.633 4.633 4.638 4.638 0 0 0 4.632-4.633v-16.5c0-9.054-7.367-16.422-16.423-16.422h-29.164c-9.056 0-16.424 7.368-16.424 16.423v16.499a4.638 4.638 0 0 0 4.633 4.633 4.638 4.638 0 0 0 4.632-4.633v-16.5c0-3.946 3.212-7.157 7.16-7.157m40.954 32.29c-4.76 0-8.633-3.873-8.633-8.633v-16.5a3.162 3.162 0 0 0-3.158-3.157h-29.164a3.162 3.162 0 0 0-3.159 3.158v16.499c0 4.76-3.872 8.633-8.632 8.633s-8.633-3.873-8.633-8.633v-16.5c0-11.26 9.162-20.422 20.424-20.422h29.164c11.261 0 20.423 9.162 20.423 20.423v16.499c0 4.76-3.872 8.633-8.632 8.633"/>
        <path fill="#CCC" d="M420.456 339.944h-140.65c-15.082 0-27.31-12.227-27.31-27.31V144.675c0-30.167 24.455-54.62 54.622-54.62h86.027c30.166 0 54.62 24.453 54.62 54.62v167.96c0 15.082-12.226 27.31-27.31 27.31"/>
        <path fill="#B3B3B3" d="M307.117 92.055c-29.015 0-52.62 23.605-52.62 52.62v167.96c0 13.956 11.353 25.31 25.31 25.31h140.648c13.956 0 25.31-11.354 25.31-25.31v-167.96c0-29.015-23.605-52.62-52.62-52.62h-86.028zm113.338 249.89H279.806c-16.162 0-29.31-13.15-29.31-29.31v-167.96c0-31.22 25.4-56.62 56.621-56.62h86.028c31.221 0 56.62 25.4 56.62 56.62v167.96c0 16.16-13.148 29.31-29.31 29.31z"/>
        <path fill="#E6E6E6" d="M393.145 90.055h-86.028c-30.166 0-54.621 24.454-54.621 54.62v17.648c0-30.166 24.455-54.622 54.621-54.622h86.028c30.166 0 54.621 24.456 54.621 54.622v-17.647c0-30.167-24.455-54.621-54.621-54.621"/>
        <path fill="#B3B3B3" d="M307.117 92.055c-29.015 0-52.62 23.605-52.62 52.62v167.96c0 13.956 11.353 25.31 25.31 25.31h140.648c13.956 0 25.31-11.354 25.31-25.31v-167.96c0-29.015-23.605-52.62-52.62-52.62h-86.028zm113.338 249.89H279.806c-16.162 0-29.31-13.15-29.31-29.31v-167.96c0-31.22 25.4-56.62 56.621-56.62h86.028c31.221 0 56.62 25.4 56.62 56.62v167.96c0 16.16-13.148 29.31-29.31 29.31z"/>
        <path fill="#E6E6E6" d="M420.456 339.944H307.118c-15.083 0-27.311-12.227-27.311-27.31V144.675c0-30.167 24.455-54.62 54.62-54.62h58.718c30.166 0 54.62 24.453 54.62 54.62v167.96c0 15.082-12.226 27.31-27.31 27.31"/>
        <path fill="#B3B3B3" d="M334.428 92.055c-29.016 0-52.621 23.605-52.621 52.62v167.96c0 13.956 11.354 25.31 25.31 25.31h113.339c13.956 0 25.31-11.354 25.31-25.31v-167.96c0-29.015-23.606-52.62-52.621-52.62h-58.717zm86.028 249.89h-113.34c-16.161 0-29.31-13.15-29.31-29.31v-167.96c0-31.22 25.4-56.62 56.622-56.62h58.717c31.22 0 56.62 25.4 56.62 56.62v167.96c0 16.16-13.148 29.31-29.31 29.31z"/>
        <path fill="#B3B3B3" d="M393.045 100.978h-58.618c-24.094 0-43.696 19.604-43.696 43.698v167.959c0 9.035 7.35 16.386 16.386 16.386h102.377c3.437-4.567 5.5-10.23 5.5-16.387V144.675c0-17.897-8.648-33.735-21.949-43.697"/>
        <path fill="#B3B3B3" d="M334.428 102.978c-22.992 0-41.697 18.706-41.697 41.698v167.959c0 7.933 6.454 14.386 14.386 14.386h101.356a25.031 25.031 0 0 0 4.52-14.387V144.675c0-16.468-7.506-31.628-20.62-41.697h-57.945zm75.066 228.043H307.117c-10.138 0-18.386-8.249-18.386-18.387V144.675c0-25.197 20.5-45.697 45.697-45.697h58.618c.432 0 .853.14 1.198.4 14.458 10.828 22.749 27.338 22.749 45.297v167.96c0 6.375-2.04 12.457-5.9 17.588a2 2 0 0 1-1.6.798z"/>
        <path fill="#B3B3B3" d="M393.145 100.978h-.1c13.302 9.963 21.948 25.8 21.948 43.698v167.959c0 6.156-2.062 11.819-5.499 16.386h10.962c9.035 0 16.386-7.351 16.386-16.387V144.675c0-24.094-19.603-43.697-43.697-43.697"/>
        <path fill="#B3B3B3" d="M413.197 327.02h7.258c7.933 0 14.387-6.452 14.387-14.385v-167.96c0-20.986-15.586-38.402-35.79-41.28 11.472 10.686 17.941 25.418 17.941 41.28v167.96a28.955 28.955 0 0 1-3.796 14.386m7.258 4h-10.96a2 2 0 1 1-1.598-3.202c3.333-4.433 5.096-9.683 5.096-15.185V144.675c0-16.687-7.708-32.03-21.147-42.096a2 2 0 0 1 1.2-3.6h.1c25.196 0 45.696 20.5 45.696 45.697v167.959c0 10.137-8.249 18.386-18.387 18.386"/>
        <path fill="#CCC" d="M355.385 205.147l-39.57-10.603-10.602-39.57 28.967-28.966 39.569 10.603 10.603 39.569z"/>
        <path fill="#B3B3B3" d="M317.448 192.911l37.339 10.005 27.334-27.334-10.005-37.339-37.338-10.005-27.334 27.334 10.004 37.34zm37.937 14.235c-.173 0-.347-.022-.518-.068l-39.57-10.603a1.993 1.993 0 0 1-1.413-1.414l-10.603-39.569a1.998 1.998 0 0 1 .518-1.932l28.967-28.966a1.997 1.997 0 0 1 1.932-.518l39.569 10.603c.69.184 1.229.723 1.414 1.414l10.603 39.57a1.998 1.998 0 0 1-.518 1.931l-28.967 28.966a2 2 0 0 1-1.414.586z"/>
        <path fill="#E6E6E6" d="M334.18 135.419l39.569 10.603 8.614 32.147 1.989-1.99-10.603-39.57-39.57-10.602-28.966 28.968 1.988 7.423z"/>
        <path fill="#B3B3B3" d="M317.448 192.911l37.339 10.005 27.334-27.334-10.005-37.339-37.338-10.005-27.334 27.334 10.004 37.34zm37.937 14.235c-.173 0-.347-.022-.518-.068l-39.57-10.603a1.993 1.993 0 0 1-1.413-1.414l-10.603-39.569a1.998 1.998 0 0 1 .518-1.932l28.967-28.966a1.997 1.997 0 0 1 1.932-.518l39.569 10.603c.69.184 1.229.723 1.414 1.414l10.603 39.57a1.998 1.998 0 0 1-.518 1.931l-28.967 28.966a2 2 0 0 1-1.414.586z"/>
        <path fill="#CCC" d="M383.562 201.2l-33.204-23.995 4.18-40.752 37.38-16.757 33.204 23.994-4.18 40.752z"/>
        <path fill="#B3B3B3" d="M352.466 176.26l31.33 22.643 35.275-15.813 3.943-38.455-31.331-22.642-35.274 15.813-3.943 38.455zm31.096 26.94c-.414 0-.825-.127-1.172-.378l-33.203-23.996a2 2 0 0 1-.818-1.825l4.179-40.752a2 2 0 0 1 1.17-1.621l37.383-16.757a2.002 2.002 0 0 1 1.989.204l33.203 23.995c.579.419.89 1.114.819 1.825l-4.18 40.752a2 2 0 0 1-1.171 1.62l-37.381 16.759c-.262.117-.54.174-.818.174z"/>
        <path fill="#E6E6E6" d="M354.537 145.865l37.381-16.758 32.305 23.346.898-8.763-33.203-23.994-37.38 16.757-4.18 40.752.9.65z"/>
        <path fill="#B3B3B3" d="M352.466 176.26l31.33 22.643 35.275-15.813 3.943-38.455-31.331-22.642-35.274 15.813-3.943 38.455zm31.096 26.94c-.414 0-.825-.127-1.172-.378l-33.203-23.996a2 2 0 0 1-.818-1.825l4.179-40.752a2 2 0 0 1 1.17-1.621l37.383-16.757a2.002 2.002 0 0 1 1.989.204l33.203 23.995c.579.419.89 1.114.819 1.825l-4.18 40.752a2 2 0 0 1-1.171 1.62l-37.381 16.759c-.262.117-.54.174-.818.174z"/>
        <path fill="#CCC" d="M377.758 228.624l-37.127-17.312-3.571-40.81 33.557-23.497 37.128 17.312 3.57 40.81z"/>
        <path fill="#B3B3B3" d="M342.522 209.987l35.035 16.336 31.665-22.172-3.369-38.51-35.035-16.336-31.665 22.172 3.369 38.51zm35.236 20.637c-.288 0-.576-.062-.845-.188l-37.128-17.312a2.001 2.001 0 0 1-1.147-1.639l-3.57-40.81a2 2 0 0 1 .845-1.812l33.557-23.497a2 2 0 0 1 1.992-.174l37.128 17.313a1.998 1.998 0 0 1 1.147 1.638l3.57 40.81a1.999 1.999 0 0 1-.845 1.812l-33.557 23.497c-.342.24-.743.362-1.147.362z"/>
        <path fill="#E6E6E6" d="M370.617 156.417l37.127 17.312 2.795 31.942.776-.544-3.57-40.81-37.128-17.312-33.557 23.497.776 8.868z"/>
        <path fill="#B3B3B3" d="M342.522 209.987l35.035 16.336 31.665-22.172-3.369-38.51-35.035-16.336-31.665 22.172 3.369 38.51zm35.236 20.637c-.288 0-.576-.062-.845-.188l-37.128-17.312a2.001 2.001 0 0 1-1.147-1.639l-3.57-40.81a2 2 0 0 1 .845-1.812l33.557-23.497a2 2 0 0 1 1.992-.174l37.128 17.313a1.998 1.998 0 0 1 1.147 1.638l3.57 40.81a1.999 1.999 0 0 1-.845 1.812l-33.557 23.497c-.342.24-.743.362-1.147.362z"/>
        <path fill="#CCC" d="M447.766 199.296v113.339c0 15.083-12.227 27.309-27.31 27.309H307.118c-15.083 0-27.311-12.226-27.311-27.31V199.297"/>
        <path fill="#B3B3B3" d="M420.456 341.944H307.118c-16.162 0-29.311-13.148-29.311-29.31V199.296a2 2 0 0 1 4 0v113.338c0 13.956 11.355 25.31 25.31 25.31h113.339c13.956 0 25.31-11.354 25.31-25.31V199.296a2 2 0 0 1 4 0v113.338c0 16.162-13.148 29.31-29.31 29.31"/>
        <path fill="#B3B3B3" d="M334.428 92.055c-29.016 0-52.621 23.605-52.621 52.62v167.96c0 13.956 11.354 25.31 25.31 25.31h113.339c13.956 0 25.31-11.354 25.31-25.31v-167.96c0-29.015-23.606-52.62-52.621-52.62h-58.717zm86.028 249.89h-113.34c-16.161 0-29.31-13.15-29.31-29.31v-167.96c0-31.22 25.4-56.62 56.622-56.62h58.717c31.22 0 56.62 25.4 56.62 56.62v167.96c0 16.16-13.148 29.31-29.31 29.31z"/>
        <path fill="#B3B3B3" d="M334.428 102.978c-22.992 0-41.697 18.706-41.697 41.698v167.959c0 7.933 6.454 14.386 14.386 14.386h113.339c7.932 0 14.386-6.454 14.386-14.387V144.675c0-22.992-18.705-41.697-41.697-41.697h-58.717zm86.028 228.043h-113.34c-10.137 0-18.385-8.249-18.385-18.387V144.675c0-25.197 20.5-45.697 45.697-45.697h58.717c25.198 0 45.697 20.5 45.697 45.698v167.959c0 10.137-8.248 18.386-18.386 18.386z"/>
        <path fill="#B3B3B3" d="M334.428 102.978c-22.992 0-41.697 18.706-41.697 41.698v167.959c0 7.933 6.454 14.386 14.386 14.386h113.339c7.932 0 14.386-6.454 14.386-14.387V144.675c0-22.992-18.705-41.697-41.697-41.697h-58.717zm86.028 228.043h-113.34c-10.137 0-18.385-8.249-18.385-18.387V144.675c0-25.197 20.5-45.697 45.697-45.697h58.717c25.198 0 45.697 20.5 45.697 45.698v167.959c0 10.137-8.248 18.386-18.386 18.386z"/>
        <path fill="#E6E6E6" d="M447.766 252.82a54.828 54.828 0 0 1-10.924 1.097h-58.718c-30.166 0-54.62-24.455-54.62-54.62 0-12.068-9.782-21.849-21.85-21.849-12.065 0-21.847 9.781-21.847 21.848V312.634c0 15.083 12.228 27.31 27.31 27.31h113.339c15.083 0 27.31-12.227 27.31-27.31V252.82z"/>
        <path fill="#B3B3B3" d="M301.655 179.448c-10.944 0-19.848 8.903-19.848 19.848v113.34c0 13.955 11.354 25.308 25.31 25.308h113.339c13.956 0 25.31-11.353 25.31-25.309v-57.42a57.217 57.217 0 0 1-8.924.702h-58.718c-31.22 0-56.62-25.4-56.62-56.62 0-10.946-8.904-19.849-19.85-19.849m118.802 162.496h-113.34c-16.161 0-29.31-13.148-29.31-29.309V199.296c0-13.15 10.699-23.848 23.849-23.848s23.849 10.698 23.849 23.848c0 29.015 23.605 52.621 52.62 52.621h58.718c3.53 0 7.073-.356 10.526-1.057a2 2 0 0 1 2.398 1.96v59.815c0 16.161-13.15 29.31-29.31 29.31"/>
        <path fill="#CCC" d="M447.766 252.82a54.828 54.828 0 0 1-10.924 1.097h10.924v-1.097zM306.865 312.635V199.296c0-6.952 3.258-13.133 8.32-17.134a21.73 21.73 0 0 0-13.53-4.714c-12.067 0-21.849 9.782-21.849 21.848v113.338c0 15.084 12.228 27.31 27.311 27.31h27.06c-15.084 0-27.312-12.226-27.312-27.31"/>
        <path fill="#CCC" d="M301.655 179.448c-10.944 0-19.849 8.903-19.849 19.848v113.34c0 13.955 11.355 25.308 25.311 25.308h12.29c-8.692-5.09-14.542-14.53-14.542-25.309V199.296a23.679 23.679 0 0 1 7.095-16.952 19.578 19.578 0 0 0-10.305-2.896m32.521 162.496h-27.059c-16.162 0-29.31-13.148-29.31-29.309V199.296c0-13.15 10.698-23.848 23.848-23.848 5.407 0 10.514 1.78 14.77 5.146a2 2 0 0 1 0 3.137c-4.805 3.798-7.56 9.471-7.56 15.565v113.34c0 13.955 11.354 25.308 25.311 25.308a2 2 0 0 1 0 4"/>
        <path fill="#B3B3B3" d="M301.655 179.448c-10.944 0-19.848 8.903-19.848 19.848v113.34c0 13.955 11.354 25.308 25.31 25.308h113.339c13.956 0 25.31-11.353 25.31-25.309v-57.42a57.217 57.217 0 0 1-8.924.702h-58.718c-31.22 0-56.62-25.4-56.62-56.62 0-10.946-8.904-19.849-19.85-19.849m118.802 162.496h-113.34c-16.161 0-29.31-13.148-29.31-29.309V199.296c0-13.15 10.699-23.848 23.849-23.848s23.849 10.698 23.849 23.848c0 29.015 23.605 52.621 52.62 52.621h58.718c3.53 0 7.073-.356 10.526-1.057a2 2 0 0 1 2.398 1.96v59.815c0 16.161-13.15 29.31-29.31 29.31"/>
        <path fill="#E6E6E6" d="M413.4 284.87h-71.917c-6.034 0-10.924-4.893-10.924-10.926v-46.428h93.765v46.428c0 6.033-4.89 10.925-10.924 10.925"/>
        <path fill="#B3B3B3" d="M332.559 229.517v44.428c0 4.92 4.003 8.925 8.924 8.925H413.4c4.92 0 8.925-4.004 8.925-8.925v-44.428h-89.766zm80.84 57.353h-71.916c-7.126 0-12.924-5.798-12.924-12.925v-46.428a2 2 0 0 1 2-2h93.766a2 2 0 0 1 2 2v46.428c0 7.127-5.798 12.925-12.925 12.925z"/>
        <path fill="#E6E6E6" d="M413.4 284.87h-58.262c-6.033 0-10.924-4.893-10.924-10.926v-46.428h80.11v46.428c0 6.033-4.89 10.925-10.924 10.925"/>
        <path fill="#B3B3B3" d="M346.214 229.517v44.428c0 4.92 4.003 8.925 8.924 8.925H413.4c4.92 0 8.924-4.004 8.924-8.925v-44.428h-76.11zM413.4 286.87h-58.262c-7.127 0-12.924-5.798-12.924-12.925v-46.428a2 2 0 0 1 2-2h80.11a2 2 0 0 1 2 2v46.428c0 7.127-5.797 12.925-12.924 12.925z"/>
        <path fill="#B3B3B3" d="M332.559 229.517v44.428c0 4.92 4.003 8.925 8.924 8.925h39.145c4.92 0 8.924-4.004 8.924-8.925v-44.428h-56.993zm48.069 57.353h-39.145c-7.126 0-12.924-5.798-12.924-12.925v-46.428a2 2 0 0 1 2-2h60.993a2 2 0 0 1 2 2v46.428c0 7.127-5.798 12.925-12.924 12.925z"/>
        <path fill="#B3B3B3" d="M447.766 266.476V252.82a54.828 54.828 0 0 1-10.924 1.096h-58.718c-30.166 0-54.62-24.455-54.62-54.621a21.76 21.76 0 0 0-1.603-8.193h-20.246c12.067 0 21.849 9.782 21.849 21.849 0 30.166 24.454 54.62 54.62 54.62h58.718c3.742 0 7.394-.38 10.924-1.096"/>
        <path fill="#B3B3B3" d="M314.863 193.102a24.05 24.05 0 0 1 6.643 6.644c-.002-.15-.002-.3-.002-.45 0-2.11-.335-4.189-.998-6.194h-5.643zm11.437 28.996c4.34 24.671 25.928 43.474 51.824 43.474h58.718c2.987 0 5.98-.254 8.924-.757v-9.601a57.096 57.096 0 0 1-8.924.703h-58.718c-23.112 0-43.035-13.922-51.824-33.819zm110.542 47.474h-58.718c-31.22 0-56.62-25.4-56.62-56.62 0-10.946-8.905-19.85-19.85-19.85a2 2 0 0 1 0-4h20.247a2 2 0 0 1 1.853 1.25 23.712 23.712 0 0 1 1.75 8.944c0 29.016 23.605 52.62 52.62 52.62h58.718c3.53 0 7.073-.355 10.526-1.055a2 2 0 0 1 2.398 1.96v13.655a2 2 0 0 1-1.602 1.96 57.043 57.043 0 0 1-11.322 1.137zM393.145 100.978h-58.717c-24.095 0-43.697 19.604-43.697 43.698v8.193c0-24.095 19.602-43.698 43.697-43.698h58.717c24.094 0 43.697 19.603 43.697 43.697v-8.193c0-24.094-19.603-43.697-43.697-43.697"/>
        <path fill="#B3B3B3" d="M334.428 102.978c-16.875 0-31.441 10.078-37.997 24.529 8.205-12.254 22.175-20.336 37.997-20.336h58.717c15.823 0 29.792 8.082 37.997 20.335-6.556-14.45-21.122-24.528-37.997-24.528h-58.717zm102.414 51.89a2 2 0 0 1-2-2c0-22.992-18.705-41.697-41.697-41.697h-58.717c-22.992 0-41.697 18.705-41.697 41.697a2 2 0 0 1-4 0v-8.193c0-25.197 20.5-45.697 45.697-45.697h58.717c25.198 0 45.697 20.5 45.697 45.698v8.193a2 2 0 0 1-2 2zM252.496 298.98v13.654c0 15.083 12.228 27.31 27.311 27.31h140.648c15.083 0 27.311-12.227 27.311-27.31V298.98h-195.27z"/>
        <path fill="#B3B3B3" d="M254.496 300.98v11.654c0 13.957 11.354 25.31 25.311 25.31h140.648c13.957 0 25.311-11.353 25.311-25.31V300.98h-191.27zm165.96 40.964H279.806c-16.163 0-29.31-13.149-29.31-29.31V298.98a2 2 0 0 1 2-2h195.27a2 2 0 0 1 2 2v13.656c0 16.16-13.15 29.31-29.312 29.31z"/>
        <path fill="#CCC" d="M447.766 312.635V298.98H307.118v13.655c0 15.083 12.227 27.31 27.31 27.31h86.028c15.083 0 27.31-12.227 27.31-27.31"/>
        <path fill="#B3B3B3" d="M309.117 300.98v11.654c0 13.957 11.354 25.31 25.311 25.31h86.027c13.956 0 25.31-11.353 25.31-25.31V300.98H309.117zm111.338 40.964h-86.027c-16.163 0-29.31-13.149-29.31-29.31V298.98a2 2 0 0 1 2-2h140.647a2 2 0 0 1 2 2v13.656c0 16.16-13.148 29.31-29.31 29.31z"/>
        <path fill="#B3B3B3" d="M318.041 341.944h-10.924c-16.162 0-29.31-13.148-29.31-29.31V298.98a2 2 0 0 1 4 0v13.655c0 13.956 11.354 25.31 25.31 25.31h10.924a2 2 0 0 1 0 4"/>
        <path fill="#B3B3B3" d="M307.117 92.055c-29.015 0-52.62 23.605-52.62 52.62v167.96c0 13.956 11.353 25.31 25.31 25.31h12.54c-8.69-5.091-14.54-14.531-14.54-25.31v-167.96c0-23.84 14.81-44.286 35.713-52.62h-6.403zm0 249.89h-27.31c-16.163 0-29.31-13.15-29.31-29.31v-167.96c0-31.22 25.4-56.62 56.62-56.62h27.311a2 2 0 0 1 0 4c-29.016 0-52.622 23.605-52.622 52.62v167.96c0 13.956 11.355 25.31 25.311 25.31a2 2 0 0 1 0 4z"/>
        <path fill="#CCC" d="M279.807 199.296c0-12.066 9.782-21.848 21.848-21.848 12.067 0 21.849 9.782 21.849 21.848"/>
        <path fill="#B3B3B3" d="M323.503 201.296a2 2 0 0 1-2-2c0-10.944-8.904-19.848-19.849-19.848-10.944 0-19.848 8.904-19.848 19.848a2 2 0 0 1-4 0c0-13.15 10.698-23.848 23.848-23.848 13.151 0 23.85 10.699 23.85 23.848a2 2 0 0 1-2 2"/>
        <path fill="#B3B3B3" d="M312.58 201.296a2 2 0 0 1-2-2c0-4.921-4.004-8.924-8.925-8.924-4.92 0-8.924 4.003-8.924 8.924a2 2 0 0 1-4 0c0-7.126 5.797-12.924 12.924-12.924 7.126 0 12.924 5.798 12.924 12.924a2 2 0 0 1-2 2"/>
        <path fill="#CCC" d="M480.538 199.296c0 30.167-24.455 54.62-54.62 54.62H367.2c-30.166 0-54.62-24.453-54.62-54.62"/>
        <path fill="#B3B3B3" d="M425.918 255.917H367.2c-31.22 0-56.62-25.4-56.62-56.621a2 2 0 1 1 4 0c0 29.016 23.606 52.621 52.62 52.621h58.718c29.014 0 52.62-23.605 52.62-52.621a2 2 0 1 1 4 0c0 31.221-25.4 56.621-56.62 56.621"/>
        <path fill="#E6E6E6" d="M301.655 177.448c12.067 0 21.849 9.781 21.849 21.848 0 30.167 24.454 54.621 54.62 54.621h58.718c30.166 0 54.62-24.454 54.62-54.62 0-12.068-9.781-21.849-21.848-21.849h-167.96z"/>
        <path fill="#B3B3B3" d="M314.863 179.448c6.41 4.28 10.64 11.578 10.64 19.848 0 29.015 23.606 52.621 52.62 52.621h58.719c29.015 0 52.62-23.606 52.62-52.62 0-10.946-8.903-19.849-19.848-19.849H314.863zm121.979 76.47h-58.718c-31.22 0-56.62-25.402-56.62-56.622 0-10.945-8.904-19.848-19.85-19.848a2 2 0 0 1 0-4h167.96c13.15 0 23.849 10.698 23.849 23.848 0 31.22-25.4 56.621-56.621 56.621z"/>
        <path fill="#F2F2F2" d="M469.614 177.447h-157.37c8.425 0 15.724 4.778 19.37 11.766H450.79c12.067 0 21.848 9.781 21.848 21.847 0 15.543-6.502 29.56-16.922 39.505 20.864-7.683 35.746-27.737 35.746-51.269 0-12.067-9.782-21.849-21.848-21.849"/>
        <path fill="#B3B3B3" d="M314.863 179.448c6.41 4.28 10.64 11.578 10.64 19.848 0 29.015 23.606 52.621 52.62 52.621h58.719c29.015 0 52.62-23.606 52.62-52.62 0-10.946-8.903-19.849-19.848-19.849H314.863zm121.979 76.47h-58.718c-31.22 0-56.62-25.402-56.62-56.622 0-10.945-8.904-19.848-19.85-19.848a2 2 0 0 1 0-4h167.96c13.15 0 23.849 10.698 23.849 23.848 0 31.22-25.4 56.621-56.621 56.621z"/>
        <path fill="#B3B3B3" d="M325.787 179.448c6.411 4.28 10.641 11.578 10.641 19.848 0 22.992 18.705 41.697 41.696 41.697h58.718c22.991 0 41.696-18.705 41.696-41.697 0-10.945-8.904-19.848-19.848-19.848H325.787zm111.055 65.545h-58.718c-25.197 0-45.696-20.5-45.696-45.697 0-10.945-8.905-19.848-19.849-19.848a2 2 0 0 1 0-4H458.69c13.15 0 23.848 10.698 23.848 23.848 0 25.197-20.5 45.697-45.696 45.697z"/>
        <path fill="#B3B3B3" d="M325.787 179.448c6.411 4.28 10.641 11.578 10.641 19.848 0 22.992 18.705 41.697 41.696 41.697h58.718c22.991 0 41.696-18.705 41.696-41.697 0-10.945-8.904-19.848-19.848-19.848H325.787zm111.055 65.545h-58.718c-25.197 0-45.696-20.5-45.696-45.697 0-10.945-8.905-19.848-19.849-19.848a2 2 0 0 1 0-4H458.69c13.15 0 23.848 10.698 23.848 23.848 0 25.197-20.5 45.697-45.696 45.697z"/>
        <path fill="#B3B3B3" d="M458.69 177.448h-8.193c12.067 0 21.848 9.781 21.848 21.848 0 24.093-19.603 43.697-43.697 43.697h8.194c24.094 0 43.696-19.604 43.696-43.697 0-12.067-9.782-21.848-21.848-21.848"/>
        <path fill="#B3B3B3" d="M465.229 180.555c5.548 4.37 9.116 11.147 9.116 18.74 0 15.823-8.083 29.793-20.336 37.999 14.453-6.555 24.529-21.122 24.529-37.998 0-8.654-5.567-16.032-13.309-18.741m-28.387 64.438h-8.194a2 2 0 0 1 0-4c22.992 0 41.697-18.705 41.697-41.697 0-10.944-8.904-19.847-19.848-19.847a2 2 0 0 1 0-4h8.193c13.15 0 23.848 10.698 23.848 23.847 0 25.197-20.499 45.697-45.696 45.697M290.731 233.613a2 2 0 0 1-2-2v-19.117a2 2 0 0 1 4 0v19.117a2 2 0 0 1-2 2M290.731 247.61a2 2 0 0 1-2-2v-2.73a2 2 0 0 1 4 0v2.73a2 2 0 0 1-2 2"/>
    </g>
</svg>
