<svg xmlns="http://www.w3.org/2000/svg" xmlns:xlink="http://www.w3.org/1999/xlink" width="450" height="168" viewBox="0 0 450 168">
    <defs>
        <path id="a" d="M.827.28h50.916v26H.827z"/>
    </defs>
    <g fill="none" fill-rule="evenodd">
        <path fill="#282C4C" d="M436.556 132.614c-.324-1.215-.672-2.466-1.911-3.522-2.483-2.12-7.556-2.344-6.173.656-3.972.069-7.186-2.881-11.606-3.165-5.38-.345-11.668 1.56-15.093 3.477-1.582.885-3.06 1.966-5.37 2.242-1.364.163-2.82.009-4.186.167-4.02.465-4.954 3.166-4.04 5.178.915 2.012 2.799 4.122 1.296 6.044-.302.386-.742.765-.727 1.179.017.498.698.934 1.495 1.233 3.67 1.376 8.88.389 12.914-.704 4.034-1.093 8.922-2.274 12.949-1.175 4.31 1.177 4.716 4.156 7.37 6.22 2.336 1.817 7.485 2.904 11.127 1.746 1.237-.394 2.155-.988 3.046-1.57l5.473-3.577c2.414-1.577 4.915-3.26 5.38-5.23.898-3.81-5.853-6.868-11.944-9.2m-38.114-7.617c-3.11-.656-6.456-.984-9.642-1.543-3.187-.558-6.338-1.402-8.227-2.801-.79-.585-1.327-1.244-1.977-1.87-1.87-1.801-9.18-6.341-13.754-5.253 1.192 1.252 3.269 2.63 4.722 3.954 5.933 5.4 18.089 8.94 30.41 8.854.853-.436-.407-1.103-1.532-1.341m-13.817-7.081c1.099.799 2.915 1.267 4.7 1.646 2.158.458 4.782.814 6.726.159 1.329-.448 5.758-3.512 6.067-4.176.594-1.281-.261-1.208-2.817-1.467-4.144-.42-19.423.388-14.676 3.838m-11.298-3.376c2.507-.656 1.37-2.562-.194-3.741-1.565-1.18-3.104-2.94-.878-3.812 3.088.015 4.528 2.145 7.529 2.508 2.985.362 5.65-1.412 5.112-2.924-.538-1.512-3.14-2.624-5.823-3.37-2.408-1.317 1.069-3.423 4.588-3.721 3.52-.298 7.368.204 10.558-.598 3.822-.96 5.1-3.482 4.229-5.576-.87-2.094-3.353-3.912-5.383-5.795-1.733-1.608-2.59-4.117.78-4.824.9-.19 1.91-.18 2.888-.2 12.742-.27 23.285-7.016 20.728-13.263-.482-1.177-1.392-2.347-3.073-3.205-3.03-1.546-8.17-1.91-10.433-3.755-2.767-2.256.656-5.25 5.087-6.7 4.43-1.45 9.845-2.078 13.984-3.73 1.103-.013 1.694-.554 1.895-1.096.127-.341-.041-.69-.046-1.037-.016-.95 1.342-1.865 3.166-2.134 1.824-.268 3.957.133 4.974.936 1.255.99.749 2.298-.161 3.379-.911 1.08-2.198 2.115-2.434 3.282-.236 1.166 1.086 2.537 3.416 2.668 2.849.16 4.69-1.53 4.876-2.96.185-1.431-.371-2.992 1.166-4.202 2.337-1.84 8.794-2.271 8.96-4.45.136-1.76-4.298-2.794-5.093-4.512-.321-.693-.003-1.414.128-2.122.488-2.643-1.84-5.375-5.988-7.031-4.15-1.655-9.995-2.182-15.04-1.357-1.643.269-3.197.67-4.87.89-2.47.324-5.07.239-7.617.152l-13.673-.467c-4.078-.14-8.4-.255-12.018.696-5.287 1.39-8.286 4.853-14.215 5.212-4.182.254-7.908-1.191-11.825-1.966-6.334-1.254-13.981-.664-19.265 1.485-1.986-.506-1.373-1.984-2.073-3.043-.731-1.105-3.105-1.771-5.423-1.873-2.318-.101-4.61.252-6.821.614-4.764.778-10.305 2.105-10.746 4.6-.124.703.192 1.45-.4 2.092-.844.91-3.124 1.215-4.542 1.926-1.693.848-1.96 2.157-2.03 3.354-.07 1.198-.092 2.483-1.478 3.46-1.386.977-8.673 1.47-10.39.634-3.312-1.613-8.724-.053-12.165 1.49l-10.26 4.606c-2.57 1.153-5.336 2.355-8.741 2.64-3.405.286-7.501-.794-7.641-2.52 2.33-1.096 6.972.534 9.099-.662 1.887-1.06-.903-2.576-3.361-3.286-4.493-1.298-9.134-2.621-14.276-2.971-5.141-.35-10.97.509-13.64 2.734-2.284 1.904-1.865 4.389-4.128 6.299-1.416 1.196-3.751 2.05-5.36 3.184-1.607 1.134-2.296 2.846-.326 3.826 1.59.792 4.294.793 5.868 1.594 1.21.615 1.624 1.644 3.212 1.983 1.816.388 3.868-.486 4.302-1.45.435-.963-.176-1.955-.492-2.93-.943-2.913 1.98-6.495 7.825-6.911 1.33.025 1.772.976 1.175 1.57-.597.596-1.76 1.008-2.387 1.595-1.186 1.107.19 2.683 2.618 3 2.53.332 6.76.065 6.427 1.363-.355 1.378-5.453.475-7.103 1.593-.973.659-.112 1.578-.135 2.397-.046 1.602-3.581 2.646-6.777 2.759-3.196.114-6.397-.36-9.588-.214-3.191.145-6.665 1.275-6.52 2.876a145.566 145.566 0 0 1-13.727 2.51c.2 1.735 6.743 1.896 6.717 3.633-.015 1.043-2.597 1.585-4.676 1.508-2.08-.076-4.177-.49-6.192-.223-3.483.459-4.703 2.908-2.775 4.429 1.928 1.52 5.892 2.125 9.482 1.982 1.439-.056 2.98-.248 3.88-.812.86-.54.93-1.28 1.29-1.944.81-1.49 3.35-2.71 6.359-3.053 1.697-.194 3.775-.21 4.686-.95 3.882 1.05 6.612 3.098 7.057 5.294 1.249.805 4.03-.233 3.759-1.244-.273-1.01-2.057-1.711-3.475-2.444-1.418-.732-2.601-1.87-1.49-2.725 6.634.975 11.996 3.857 13.46 7.236 2.313-.23 3.59-1.795 2.26-2.77.718-.805 3.352-.344 4.11.454.757.797.689 1.78 1.772 2.478 3.13 2.019 11.516-.443 14.08 1.766 1.798 1.548-2.253 3.353-5.832 3.298-3.58-.055-6.847-1.078-10.41-1.256-3.933-.196-7.754.649-11.68.878-3.926.228-8.765-.538-9.593-2.471-.223-.52-.133-1.092-.684-1.548-.784-.648-2.547-.798-4.051-.712-6.53.37-13.158 3.739-18.553 1.863-3.447 3.357-11.881 4.618-16.586 7.569-5.12 3.212-4.69 8.17.28 11.439 4.972 3.269 13.756 4.813 21.904 4.297 1.866-.117 3.832-.326 5.57.033 1.72.355 2.823 1.188 4.259 1.78 1.437.594 3.82.889 5.01.173-1.364 1.689-.985 3.704.984 5.237 2.126 1.654 6.089 2.962 6.006 4.928-.042 1.018-1.226 1.927-1.78 2.907-2.536 4.488 8.07 8.15 9.747 12.738.45 1.235.449 2.723 2.536 3.42.96.32 2.164.386 3.317.424 5.915.193 13.362-.686 14.592-3.586.348-.82.099-1.67.15-2.507.15-2.505 3.215-4.914 7.689-6.044 1.213-.307 2.548-.536 3.517-1.012 2.136-1.051 1.663-2.831.566-4.225-1.097-1.393-2.692-2.8-2.308-4.285.616-2.384 5.736-3.643 9.615-5.065 5.84-2.14 9.849-5.488 10.862-9.073-5.384.845-11.978 1.568-16.082-.37-1.422-.671-2.298-1.575-3.142-2.458a58353.67 58353.67 0 0 1-7.608-7.948c-.334-.35-.675-.748-.401-1.111.742-.983 3.696-.163 4.835.72 4.067 3.155 7.718 6.442 10.92 9.835 6.55-.594 12.817-1.957 18.153-3.947 1.704-.634 3.395-1.394 3.97-2.417.576-1.022-.481-2.333-2.574-2.515-.81-.07-1.634.032-2.452.075-4.938.258-9.23-1.623-12.458-3.51 2.213-1.24 6.234-.521 9.254.173 5.41 1.242 11.144 2.132 17.009 2.64 1.463.128 2.963.236 4.28.576.924.239 1.72.582 2.484.935 6.767 3.117 11.774 7.18 14.299 11.605 2.584.29 4.4-1.303 4.605-2.623.205-1.32-.105-2.842 1.796-3.764 1.492-.724 3.948-.823 5.258-1.631 1.65-1.018.788-2.733 2.717-3.62 2.418-1.112 6.328.248 7.618 1.758 1.289 1.51 1.759 3.368 4.476 4.292l4.393-.317c.023 3.707 2.596 7.398 7.188 10.308M201.833 32.712c.61-.872 1.03-1.787.988-2.711-.136-2.981-5.16-5.46-10.785-6.452-6.944-1.226-13.96-.457-21.085-.62-3.875-.087-8.156-.907-11.906-.12-5.784 1.214-4.086 4.066-7.876 5.759-3.28 1.464-9.331.315-11.966 2.326-1.852 1.413.222 3.339 2.917 4.357 2.696 1.018 6.07 1.629 8.202 2.939 3.426 2.107 2.452 5.22.575 7.769-1.877 2.548-4.523 5.124-3.88 7.82.305 1.272 1.342 2.478 2.695 3.564 1.31 1.053 3.096 2.067 5.507 2.357 3.065.37 6.169-.532 8.493-1.597 2.323-1.066 4.342-2.355 7.173-3.05 4.076-.998 9.32-.626 12.87-2.041 4.397-1.751 3.746-5.091 4.955-7.835 2.03-4.608 10.004-8.012 13.123-12.465m-40.092 85.23c-2.975-.827-6.542-.85-9.944-.9-3.402-.048-7.007-.177-9.786-1.158-2.546-.9-3.986-2.372-5.998-3.562-3.396-2.008-8.333-3.168-13.11-4.27-1.803-.414-3.826-.837-5.712-.527-.743.122-1.413.353-2.181.427-2.11.202-3.814-.795-5.704-1.305-3.922-1.058-9.554.475-9.904 2.696-2.028.35-5.785.048-6.936-.857-.828-.651-1.16-1.563-2.586-1.86-.762-.158-1.714-.098-2.334-.37-1.026-.452-.228-1.27-.044-1.948.292-1.081-1.322-2.11-3.292-2.58-1.97-.47-4.225-.51-6.406-.544-2.182-.035-4.44-.085-6.392-.573-3.8-.953-5.356-3.53-3.69-5.485 1.668-1.954 6.03-3.16 10.278-3.1 4.162.06 8.557 1.582 8.604 3.664.013.528 1.703.587 2.62.326.918-.261 1.397-.79 1.622-1.306.225-.515.257-1.052.572-1.556.73-1.166 3.094-2.024 5.538-2.01 2.55.014 4.34-1.258 6.149-2.156 1.81-.898 2.894-2.253 2.178-3.478-.385-.66-1.266-1.326-.825-1.977.345-.51 1.393-.806 2.387-1.015 2.75-.576 5.758-.846 8.739-.783 2.597.055 3.932-.761 5.257-1.88.958-.807 1.384-1.83 2.91-2.377 2.283-.82 5.439-.096 8.244-.19 4.094-.138 7.292-2.436 6.129-4.403-.553-.936-1.862-1.703-2.926-2.521-1.466-1.127-2.502-2.393-3.035-3.71-.491-1.211-.63-2.544-2.226-3.487-2.496.059-5.52.022-7.74.595-.44-1.27-.923-2.596-2.492-3.62-1.57-1.022-4.585-1.615-6.806-.96-2.17.64-2.64 2.129-2.238 3.373.4 1.244 1.432 2.448 1.365 3.707-.067 1.26-1.818 2.652-4.337 2.618-1.312-.018-2.487-.418-3.41-.885-1.323-.668-2.37-1.522-4.07-1.923-1.301-.308-2.801-.302-4.206-.46-4.791-.537-8.077-3.286-6.754-5.65 1.323-2.365 6.986-3.862 11.639-3.077 5.635-1.034 7.93-4.588 5.682-7.371-2.25-2.782-8.293-4.51-14.29-4.642-1.756-.038-3.544.039-5.247-.176-4.813-.61-7.332-3.255-11.521-4.588-2.755-.877-9.124-.037-12.18-.615a25.476 25.476 0 0 0-5.937-.388c-1.766.837-5.068 1.074-7.496 1.155-2.498-1.216-5.511-2.346-8.618-3.135-2.076-.528-4.501-1.084-5.142-2.203-1.023-1.788-7.143-2.51-10.772-2.1-4.601-.621-9.853.18-13.547 1.687-1.631.665.204 2.314 1.612 3.097 1.408.782 3.158 1.655 2.829 2.695-1.703.435-4.013.458-5.924.415-1.123-.026-2.277-.135-3.351.032-1.074.166-2.01.748-1.595 1.27-.738.644-1.626.98-.77 1.585.668.47 1.802.859 1.794 1.436-.007.459-.78.828-1.601 1.034-.82.207-1.742.31-2.517.556-2.425.77-2.447 2.505-2.19 3.935 1.569.963 1.814 2.62 1.06 3.803-.288.45-.751.929-.427 1.374.37.509 1.569.71 2.618.846 2.24.289 4.879.54 6.662-.2 4.702-1.944 12-.936 17.955-.266 2.056.23 4.22.61 5.42 1.476 1.603 1.154.919 2.756-.4 3.996-1.318 1.24-3.21 2.344-4.046 3.685-.783 1.257-.564 2.608-.338 3.92.279 1.615.618 3.316 2.49 4.64 1.964 1.388 3.2 3.459 3.044 5.157-.126 1.362-1.087 2.702-.837 4.06.453 2.464 4.71 4.312 9.053 5.498 4.545 1.24 8.463 3.353 10.029 5.82.787 1.24 1.02 2.55 1.714 3.804 1.2 2.17 3.806 4.14 7.33 5.54 2.568 1.022 6.784 1.384 10.01 1.678 1.675.153 3.48.274 4.743.844.582.264 1.003.605 1.56.88 2.698 1.335 7.664.787 10.392 2.106.704.34 1.187.776 1.806 1.155 1.665 1.02 4.372 1.59 6.995 1.474-.613 1 1.789 2.178 1.047 3.157-.598.79-2.403 1.137-3.644 1.709-2.152.993-2.487 2.692-1.56 4.08.929 1.39 2.889 2.538 4.85 3.626 3.642 2.019 8.019 2.999 11.968 4.867 3.659 1.73 4.493 4.533 3.688 7.019-.804 2.487-2.983 4.8-4.54 7.195-2.907 4.475-3.61 9.392-.831 13.887 2.779 4.495 9.286 8.502 18.006 10.269.964.196 2.148-.143 2.855-.524.707-.381.86-.993.363-1.45-1.575-1.448-4.374-2.684-6.416-3.978-.641-.407-1.318-.868-1.236-1.384.093-.58 1.092-1 1.828-1.45 1.116-.682 1.72-1.57 1.672-2.451-.046-.83-1.012-1.64-.955-2.468.056-.83.95-1.702 2.52-1.97.717-.121 1.51-.11 2.202-.262 2.27-.501 1.91-2.233 3.552-3.164.762-.432 1.886-.647 2.924-.897 4.392-1.055 8.005-3.15 8.406-5.577.32-1.943-1.093-4.302 1.86-5.575 2.71-1.168 6.884-.393 10.418-.68 1.437-.116 2.396-.785 3.069-1.43.673-.646.75-1.414.508-2.131-.297-.884-1.055-1.747-.888-2.64.235-1.254 2.199-2.221 3.718-3.227 1.795-1.188 3.082-2.568 3.75-4.02.763-1.658-1.36-3.616-4.333-4.443"/>
        <path fill="#515DC6" d="M47.841 65a1 1 0 0 1-1-1V3a1 1 0 1 1 2 0v61a1 1 0 0 1-1 1"/>
        <g transform="translate(46 .72)">
            <mask id="b" fill="#fff">
                <use xlink:href="#a"/>
            </mask>
            <path fill="#515DC6" d="M40.157 13.28L51.45 1.987A1 1 0 0 0 50.743.28H1.827a1 1 0 0 0-1 1v24a1 1 0 0 0 1 1h48.916a1 1 0 0 0 .707-1.707L40.157 13.28z" mask="url(#b)"/>
        </g>
        <path fill="#FFF" d="M68.509 14.82c.609-1.972.979-3.208 1.107-3.708.032.14.083.332.156.574.072.242.395 1.287.969 3.135h-2.232zm2.209-5.038h-2.221l-3.023 8.602h1.957l.62-2.04h3.124l.62 2.04h1.958l-3.035-8.602zm-8.174 1.424c.313 0 .63.056.955.17.324.113.647.246.967.398l.586-1.476c-.84-.403-1.676-.604-2.508-.604-.816 0-1.528.179-2.136.536a3.518 3.518 0 0 0-1.397 1.54c-.324.67-.486 1.45-.486 2.342 0 1.414.33 2.499.99 3.255.66.756 1.613 1.134 2.859 1.134.867 0 1.653-.147 2.356-.44v-1.523c-.856.3-1.584.45-2.186.45-1.433 0-2.15-.954-2.15-2.864 0-.918.187-1.634.562-2.148.375-.513.905-.77 1.588-.77z"/>
        <path fill="#515DC6" d="M108.157 56l11.293-11.293a1 1 0 0 0-.707-1.707H69.827a1 1 0 0 0-1 1v24a1 1 0 0 0 1 1h48.916a1 1 0 0 0 .707-1.707L108.157 56z"/>
        <path fill="#515DC6" d="M69.841 85a1 1 0 0 1-1-1V43a1 1 0 1 1 2 0v41a1 1 0 0 1-1 1"/>
        <path fill="#FFF" d="M94.587 56.59c-.297-.386-.846-.77-1.646-1.152-.606-.289-.99-.49-1.152-.6a1.218 1.218 0 0 1-.354-.347.767.767 0 0 1-.112-.419c0-.257.092-.466.276-.627.183-.16.447-.24.791-.24.289 0 .583.037.882.112.298.074.676.205 1.133.392l.586-1.412a8.74 8.74 0 0 0-1.268-.445 5.01 5.01 0 0 0-1.275-.159c-.906 0-1.616.217-2.13.651-.513.433-.77 1.03-.77 1.787 0 .402.078.754.234 1.055.157.3.366.564.627.791.262.226.655.463 1.178.71.559.264.929.458 1.11.58.182.12.32.246.413.377.094.131.141.28.141.448 0 .301-.106.527-.319.68-.213.152-.519.228-.917.228-.332 0-.699-.053-1.099-.158-.4-.106-.89-.287-1.468-.545v1.688c.703.343 1.512.515 2.426.515.992 0 1.767-.223 2.323-.668.557-.445.835-1.055.835-1.828 0-.559-.148-1.03-.445-1.415zm-8.52.46c0 .663-.133 1.15-.401 1.461-.267.31-.698.466-1.292.466-.613 0-1.053-.155-1.318-.463-.266-.309-.399-.793-.399-1.453v-5.244h-1.81v5.52c0 .98.304 1.752.914 2.316.609.565 1.465.847 2.566.847.731 0 1.364-.127 1.899-.38a2.765 2.765 0 0 0 1.227-1.096c.283-.477.425-1.032.425-1.664v-5.543h-1.811v5.232z"/>
        <path fill="#515DC6" d="M255.157 43l11.293-11.293a1 1 0 0 0-.707-1.707h-48.916a1 1 0 0 0-1 1v24a1 1 0 0 0 1 1h48.916a1 1 0 0 0 .707-1.707L255.157 43z"/>
        <path fill="#515DC6" d="M216.841 72a1 1 0 0 1-1-1V30a1 1 0 1 1 2 0v41a1 1 0 0 1-1 1"/>
        <path fill="#FFF" d="M227.905 47.383h4.934v-1.5h-3.118v-2.209h2.901v-1.488h-2.9v-1.88h3.117v-1.489h-4.934v8.566zm11.883-8.566v5.232c0 .664-.134 1.151-.402 1.462-.267.31-.698.466-1.292.466-.613 0-1.052-.155-1.318-.463-.266-.309-.398-.793-.398-1.453v-5.244h-1.81v5.52c0 .98.304 1.752.913 2.317.61.564 1.465.846 2.567.846.73 0 1.363-.127 1.898-.38a2.773 2.773 0 0 0 1.228-1.096c.283-.477.424-1.032.424-1.664v-5.543h-1.81z"/>
        <path fill="#515DC6" d="M434.157 110l11.293-11.293a1 1 0 0 0-.707-1.707h-48.916a1 1 0 0 0-1 1v24a1 1 0 0 0 1 1h48.916a1 1 0 0 0 .707-1.707L434.157 110z"/>
        <path fill="#515DC6" d="M395.841 139a1 1 0 0 1-1-1V97a1 1 0 1 1 2 0v41a1 1 0 0 1-1 1"/>
        <path fill="#FFF" d="M420.347 105.817v5.232c0 .664-.134 1.152-.401 1.462-.268.311-.7.466-1.292.466-.614 0-1.053-.154-1.32-.463-.264-.308-.397-.793-.397-1.453v-5.244h-1.811v5.52c0 .98.305 1.752.914 2.317.61.564 1.465.847 2.567.847.73 0 1.363-.127 1.898-.381a2.764 2.764 0 0 0 1.228-1.096c.283-.477.425-1.031.425-1.664v-5.543h-1.811zm-11.484 5.004c.609-1.973.978-3.209 1.107-3.709.03.141.083.332.155.574.073.242.396 1.287.97 3.135h-2.232zm-.012-5.039l-3.024 8.601h1.957l.622-2.039h3.123l.62 2.039h1.958l-3.035-8.601h-2.221z"/>
    </g>
</svg>
