<svg xmlns="http://www.w3.org/2000/svg" xmlns:xlink="http://www.w3.org/1999/xlink" width="704" height="400" viewBox="0 0 704 400">
    <defs>
        <path id="a" d="M.884.45H225v108.916H.884z"/>
        <path id="c" d="M0 .45h224.116v108.916H0z"/>
    </defs>
    <g fill="none" fill-rule="evenodd">
        <path fill="#E6E6E6" d="M89.235 147.883a2.709 2.709 0 0 0-2.706 2.705 2.71 2.71 0 0 0 2.706 2.706 2.71 2.71 0 0 0 2.706-2.706 2.709 2.709 0 0 0-2.706-2.705m0 9.41a6.714 6.714 0 0 1-6.706-6.705 6.713 6.713 0 0 1 6.706-6.705 6.713 6.713 0 0 1 6.706 6.705 6.714 6.714 0 0 1-6.706 6.706M135.706 60.823a5.065 5.065 0 0 0-5.06 5.06 5.064 5.064 0 0 0 5.06 5.058 5.064 5.064 0 0 0 5.059-5.058c0-2.79-2.27-5.06-5.06-5.06m0 14.118c-4.994 0-9.058-4.063-9.058-9.058 0-4.996 4.064-9.06 9.059-9.06 4.995 0 9.059 4.064 9.059 9.06 0 4.995-4.064 9.058-9.06 9.058M629 106.941a2.709 2.709 0 0 0-2.706 2.705 2.71 2.71 0 0 0 2.706 2.707 2.71 2.71 0 0 0 2.706-2.707 2.709 2.709 0 0 0-2.706-2.705m0 9.412a6.715 6.715 0 0 1-6.706-6.707 6.714 6.714 0 0 1 6.706-6.705 6.713 6.713 0 0 1 6.706 6.705 6.714 6.714 0 0 1-6.706 6.707M220 335.941a2.709 2.709 0 0 0-2.706 2.705 2.71 2.71 0 0 0 2.706 2.707 2.71 2.71 0 0 0 2.706-2.707 2.709 2.709 0 0 0-2.706-2.705m0 9.412a6.715 6.715 0 0 1-6.706-6.707 6.714 6.714 0 0 1 6.706-6.705 6.713 6.713 0 0 1 6.706 6.705 6.714 6.714 0 0 1-6.706 6.707M204.765 202h-61.177a2 2 0 0 1 0-4h61.177a2 2 0 0 1 0 4M287.118 178.47h-120a2 2 0 0 1 0-4h120a2 2 0 0 1 0 4M588.882 202H215.353a2 2 0 0 1 0-4h373.53a2 2 0 0 1 0 4M323.588 225.53H191.823a2 2 0 0 1 0-4h131.765a2 2 0 0 1 0 4M131.823 202h-23.53a2 2 0 0 1 0-4h23.53a2 2 0 0 1 0 4M548.882 143.177h-62.94a2 2 0 0 1 0-4h62.94a2 2 0 0 1 0 4M511.823 119.647H227.117a2 2 0 0 1 0-4h284.706a2 2 0 0 1 0 4M475.353 143.177H296.529a2 2 0 0 1 0-4h178.824a2 2 0 0 1 0 4M594.176 143.177h-23.529a2 2 0 0 1 0-4h23.53a2 2 0 0 1 0 4M534.176 260.823H449.47a2 2 0 0 1 0-4h84.706a2 2 0 0 1 0 4M500.647 284.352h-98.235a2 2 0 0 1 0-4h98.235a2 2 0 0 1 0 4M608.294 260.823h-57.647a2 2 0 0 1 0-4h57.647a2 2 0 0 1 0 4M638.882 260.823h-14.118a2 2 0 0 1 0-4h14.118a2 2 0 0 1 0 4M280.653 65.752l9.406 5.43 9.406-5.43V54.89l-9.406-5.43-9.406 5.43v10.862zm9.406 9.739c-.345 0-.691-.089-1-.267l-11.406-6.585a2.001 2.001 0 0 1-1-1.733V53.735a2 2 0 0 1 1-1.732l11.406-6.585a2.001 2.001 0 0 1 2 0l11.406 6.585c.618.357 1 1.018 1 1.732v13.171c0 .715-.382 1.375-1 1.733l-11.406 6.585c-.31.178-.655.267-1 .267z"/>
        <path fill="#E6E6E6" d="M548.888 214.575l9.406 5.43 9.406-5.43v-10.86l-9.406-5.432-9.406 5.431v10.861zm9.406 9.74c-.345 0-.69-.09-1-.268l-11.406-6.585a2.001 2.001 0 0 1-1-1.733v-13.17a2 2 0 0 1 1-1.732l11.406-6.586a2.001 2.001 0 0 1 2 0l11.406 6.586c.618.357 1 1.018 1 1.732v13.17c0 .715-.382 1.375-1 1.733l-11.406 6.585c-.31.178-.655.267-1 .267zM478.888 344.575l6.231 3.597 6.231-3.597v-7.195l-6.23-3.598-6.232 3.598v7.195zm6.231 7.906c-.345 0-.69-.089-1-.267l-8.23-4.752a2.001 2.001 0 0 1-1-1.733v-9.504a2 2 0 0 1 1-1.732l8.23-4.753a2.001 2.001 0 0 1 2 0l8.231 4.753a2 2 0 0 1 1 1.732v9.504c0 .715-.38 1.375-1 1.733l-8.23 4.752c-.31.178-.656.267-1 .267zM199.477 153.987l6.23 3.597 6.232-3.597v-7.196l-6.231-3.597-6.231 3.597v7.196zm6.23 7.906c-.344 0-.69-.089-1-.267l-8.23-4.752a2.001 2.001 0 0 1-1-1.733v-9.505a2 2 0 0 1 1-1.732l8.23-4.752a2.001 2.001 0 0 1 2 0l8.232 4.752a2 2 0 0 1 1 1.732v9.505c0 .715-.381 1.375-1 1.733l-8.231 4.752c-.31.178-.655.267-1 .267zM168.888 243.693l15.57 8.987 15.568-8.987v-17.979l-15.569-8.988-15.569 8.988v17.98zm15.57 13.297c-.346 0-.692-.089-1-.268l-17.57-10.142a2.001 2.001 0 0 1-1-1.733V224.56c0-.715.381-1.375 1-1.732l17.57-10.144a2.001 2.001 0 0 1 2 0l17.568 10.144a2 2 0 0 1 1 1.732v20.287c0 .715-.382 1.375-1 1.733l-17.569 10.142c-.31.18-.655.268-1 .268z"/>
        <path fill="#E6E6E6" d="M184.457 229.644a5.065 5.065 0 0 0-5.059 5.06 5.064 5.064 0 0 0 5.059 5.058 5.064 5.064 0 0 0 5.059-5.058c0-2.79-2.269-5.06-5.059-5.06m0 14.118c-4.995 0-9.059-4.063-9.059-9.058 0-4.996 4.064-9.06 9.059-9.06 4.995 0 9.059 4.064 9.059 9.06 0 4.995-4.064 9.058-9.059 9.058M468.888 97.93l9.35 5.398 9.35-5.397V87.133l-9.35-5.397-9.35 5.397V97.93zm9.35 9.708c-.345 0-.69-.09-1-.268l-11.35-6.552a2.001 2.001 0 0 1-1-1.733V85.979c0-.715.381-1.375 1-1.733l11.35-6.552a1.996 1.996 0 0 1 2 0l11.35 6.552c.62.358 1 1.018 1 1.733v13.106c0 .715-.38 1.375-1 1.733l-11.35 6.552a1.995 1.995 0 0 1-1 .268z"/>
        <path fill="#E6E6E6" d="M482.798 94.532h-9.12a2 2 0 0 1 0-4h9.12a2 2 0 0 1 0 4"/>
        <path fill="#E6E6E6" d="M478.238 99.092a2 2 0 0 1-2-2v-9.12a2 2 0 0 1 4 0v9.12a2 2 0 0 1-2 2M245.353 346.117a5.065 5.065 0 0 0-5.059 5.06 5.064 5.064 0 0 0 5.059 5.058 5.064 5.064 0 0 0 5.059-5.058c0-2.79-2.269-5.06-5.059-5.06m0 14.118c-4.995 0-9.059-4.063-9.059-9.058 0-4.996 4.064-9.06 9.059-9.06 4.995 0 9.059 4.064 9.059 9.06 0 4.995-4.064 9.058-9.059 9.058M430.059 37.294a5.065 5.065 0 0 0-5.06 5.059 5.064 5.064 0 0 0 5.06 5.059 5.064 5.064 0 0 0 5.059-5.06 5.065 5.065 0 0 0-5.06-5.058m0 14.118c-4.994 0-9.058-4.064-9.058-9.06 0-4.995 4.064-9.058 9.059-9.058 4.995 0 9.059 4.063 9.059 9.059 0 4.995-4.064 9.059-9.06 9.059M540.647 291.412c-.843 0-1.529.687-1.529 1.53 0 .842.686 1.53 1.529 1.53.843 0 1.529-.688 1.529-1.53 0-.843-.686-1.53-1.529-1.53m0 7.06a5.536 5.536 0 0 1-5.529-5.53 5.535 5.535 0 0 1 5.529-5.53 5.535 5.535 0 0 1 5.529 5.53c0 3.048-2.48 5.53-5.529 5.53M163 109.294c-.843 0-1.529.687-1.529 1.529 0 .843.686 1.53 1.529 1.53.843 0 1.529-.687 1.529-1.53 0-.842-.686-1.53-1.529-1.53m0 7.06a5.536 5.536 0 0 1-5.529-5.53 5.535 5.535 0 0 1 5.529-5.53 5.535 5.535 0 0 1 5.529 5.53c0 3.049-2.48 5.53-5.529 5.53M163.588 265.53c-.844 0-1.53.686-1.53 1.528 0 .843.686 1.53 1.53 1.53.843 0 1.53-.687 1.53-1.53 0-.842-.687-1.529-1.53-1.529m0 7.06a5.537 5.537 0 0 1-5.53-5.53 5.536 5.536 0 0 1 5.53-5.53 5.535 5.535 0 0 1 5.53 5.53c0 3.048-2.48 5.53-5.53 5.53M613.588 207.883c-.844 0-1.53.687-1.53 1.529 0 .843.686 1.53 1.53 1.53.843 0 1.53-.687 1.53-1.53 0-.842-.687-1.53-1.53-1.53m0 7.06a5.537 5.537 0 0 1-5.53-5.53 5.536 5.536 0 0 1 5.53-5.53 5.535 5.535 0 0 1 5.53 5.53c0 3.049-2.48 5.53-5.53 5.53M507.118 314.059H493a2 2 0 0 1 0-4h14.118a2 2 0 0 1 0 4"/>
        <path fill="#E6E6E6" d="M500.059 321.117a2 2 0 0 1-2-2V305a2 2 0 0 1 4 0v14.117a2 2 0 0 1-2 2M73.588 216.117H59.47a2 2 0 0 1 0-4h14.118a2 2 0 0 1 0 4"/>
        <path fill="#E6E6E6" d="M66.53 223.177a2 2 0 0 1-2-2v-14.118a2 2 0 0 1 4 0v14.118a2 2 0 0 1-2 2M667.706 203.177h-14.117a2 2 0 0 1 0-4h14.117a2 2 0 0 1 0 4"/>
        <path fill="#E6E6E6" d="M660.647 210.235a2 2 0 0 1-2-2v-14.118a2 2 0 0 1 4 0v14.118a2 2 0 0 1-2 2"/>
        <path fill="#CCC" d="M520.044 225.981c-8.732-8.726-22.878-8.729-31.611.003-8.732 8.73-8.732 22.882 0 31.614 44.51 44.513 102.985 66.768 161.454 66.768 18.178 0 36.355-2.154 54.113-6.455V271.57c-62.931 19.294-134.258 4.106-183.956-45.588"/>
        <path fill="#E6E6E6" d="M704 271.57c-62.931 19.293-134.258 4.105-183.956-45.589-8.732-8.725-22.878-8.729-31.611.003-5.878 5.876-7.781 14.205-5.746 21.69a22.226 22.226 0 0 1 5.746-9.924c8.733-8.733 22.879-8.73 31.611-.004C569.742 287.44 641.069 302.628 704 283.334V271.57z"/>
        <g transform="translate(479 217)">
            <mask id="b" fill="#fff">
                <use xlink:href="#a"/>
            </mask>
            <path fill="#B3B3B3" d="M25.24 4.448c5.21 0 10.422 1.983 14.39 5.947C89.713 60.475 161.528 75.89 225 56.661v-4.186c-62.39 19.36-133.23 4.4-182.543-44.909-9.496-9.488-24.946-9.488-34.438.004C3.42 12.17.884 18.285.884 24.79a24.198 24.198 0 0 0 7.134 17.222c43.431 43.434 101.272 67.354 162.868 67.354 18.474 0 36.604-2.167 54.114-6.35v-4.112c-17.496 4.26-35.63 6.462-54.114 6.462-60.527 0-117.364-23.504-160.039-66.182A20.225 20.225 0 0 1 4.884 24.79a20.22 20.22 0 0 1 5.963-14.392c3.968-3.967 9.18-5.95 14.392-5.95" mask="url(#b)"/>
        </g>
        <path fill="#CCC" d="M183.956 225.981c8.732-8.726 22.878-8.729 31.611.003 8.732 8.73 8.732 22.882 0 31.614-44.51 44.513-102.985 66.768-161.454 66.768A229.942 229.942 0 0 1 0 317.911V271.57c62.931 19.294 134.258 4.106 183.956-45.588"/>
        <path fill="#E6E6E6" d="M0 271.57c62.931 19.293 134.258 4.105 183.956-45.589 8.732-8.725 22.878-8.729 31.611.003 5.878 5.876 7.781 14.205 5.746 21.69a22.226 22.226 0 0 0-5.746-9.924c-8.733-8.733-22.879-8.73-31.611-.004C134.258 287.44 62.931 302.628 0 283.334V271.57z"/>
        <g transform="translate(0 217)">
            <mask id="d" fill="#fff">
                <use xlink:href="#c"/>
            </mask>
            <path fill="#B3B3B3" d="M199.76 4.448c-5.21 0-10.422 1.983-14.39 5.947C135.287 60.475 63.472 75.89 0 56.661v-4.186c62.39 19.36 133.23 4.4 182.543-44.909 9.496-9.488 24.946-9.488 34.438.004 4.6 4.6 7.135 10.715 7.135 17.22a24.198 24.198 0 0 1-7.134 17.222C173.55 85.446 115.71 109.366 54.114 109.366c-18.474 0-36.604-2.167-54.114-6.35v-4.112c17.496 4.26 35.63 6.462 54.114 6.462 60.527 0 117.364-23.504 160.039-66.182a20.225 20.225 0 0 0 5.963-14.394 20.22 20.22 0 0 0-5.963-14.392c-3.968-3.967-9.18-5.95-14.392-5.95" mask="url(#d)"/>
        </g>
        <path fill="#CCC" d="M352 61.85l-119.642 69.075v138.15L352 338.152l119.642-69.075V130.925z"/>
        <path fill="#B3B3B3" d="M234.358 267.92L352 335.84l117.641-67.92V132.08l-117.64-67.92-117.643 67.92V267.92zM352 340.15a1.99 1.99 0 0 1-1-.267l-119.642-69.075a2.001 2.001 0 0 1-1-1.733v-138.15c0-.715.381-1.375 1-1.733L351 60.117a2.001 2.001 0 0 1 2 0l119.641 69.075c.62.358 1 1.018 1 1.733v138.15c0 .715-.38 1.375-1 1.733l-119.64 69.075c-.31.179-.656.267-1 .267z"/>
        <path fill="#E6E6E6" d="M352 61.85l-119.642 69.075v8.236L352 70.085l119.642 69.076v-8.236z"/>
        <path fill="#B3B3B3" d="M234.358 267.92L352 335.84l117.641-67.92V132.08l-117.64-67.92-117.643 67.92V267.92zM352 340.15a1.99 1.99 0 0 1-1-.267l-119.642-69.075a2.001 2.001 0 0 1-1-1.733v-138.15c0-.715.381-1.375 1-1.733L351 60.117a2.001 2.001 0 0 1 2 0l119.641 69.075c.62.358 1 1.018 1 1.733v138.15c0 .715-.38 1.375-1 1.733l-119.64 69.075c-.31.179-.656.267-1 .267z"/>
        <path fill="#CCC" d="M352 86.009l-102.794 59.349v118.697L352 323.403l102.794-59.348V145.358z"/>
        <path fill="#E6E6E6" d="M251.206 262.9L352 321.092 452.795 262.9V146.511L352 88.318l-100.794 58.193v116.39zM352 325.402c-.345 0-.69-.089-1-.268l-102.794-59.347a2.001 2.001 0 0 1-1-1.733V145.357c0-.715.38-1.375 1-1.732L351 84.276a2.001 2.001 0 0 1 2 0l102.795 59.35c.619.356 1 1.016 1 1.731v118.697c0 .715-.381 1.375-1 1.733L353 325.134a1.992 1.992 0 0 1-1 .268z"/>
        <path fill="#B3B3B3" d="M251.206 258.194L352 316.387l100.795-58.193V141.805L352 83.612l-100.794 58.193v116.39zM352 320.697c-.345 0-.69-.089-1-.268l-102.794-59.348a2.001 2.001 0 0 1-1-1.733V140.651c0-.715.38-1.375 1-1.732L351 79.57a2.001 2.001 0 0 1 2 0l102.795 59.35c.619.356 1 1.016 1 1.731v118.697c0 .715-.381 1.375-1 1.733L353 320.43a1.992 1.992 0 0 1-1 .268z"/>
        <path fill="#B3B3B3" d="M352 154.54l13.284 26.916 29.702 4.315-21.493 20.952 5.074 29.582L352 222.338l-26.567 13.967 5.074-29.582-21.493-20.952 29.702-4.315z"/>
        <path fill="#B3B3B3" d="M352 220.338c.32 0 .639.076.931.229l22.98 12.082-4.389-25.588a2.003 2.003 0 0 1 .575-1.771l18.591-18.122-25.692-3.732a2.002 2.002 0 0 1-1.506-1.095L352 159.06l-11.49 23.28c-.292.592-.855 1-1.506 1.096l-25.692 3.732 18.591 18.122c.471.46.686 1.122.575 1.77l-4.389 25.589 22.98-12.082c.292-.153.611-.23.931-.23m26.567 17.968a2 2 0 0 1-.931-.23L352 224.598l-25.636 13.477a2 2 0 0 1-2.902-2.108l4.896-28.546-20.74-20.217a2 2 0 0 1 1.108-3.412l28.662-4.164 12.819-25.973a2 2 0 0 1 3.586 0l12.819 25.973 28.662 4.164a2 2 0 0 1 1.108 3.412l-20.74 20.217 4.896 28.546a2 2 0 0 1-1.971 2.338M352 136.454a2 2 0 0 1-2-2v-23.259a2 2 0 0 1 4 0v23.26a2 2 0 0 1-2 2M352 290.805a2 2 0 0 1-2-2v-23.26a2 2 0 0 1 4 0v23.26a2 2 0 0 1-2 2M440.804 202h-23.258a2 2 0 0 1 0-4h23.258a2 2 0 0 1 0 4M286.454 202h-23.258a2 2 0 0 1 0-4h23.258a2 2 0 0 1 0 4M398.348 155.652a2 2 0 0 1-1.414-3.414l16.446-16.446a2 2 0 1 1 2.828 2.828l-16.446 16.446a1.99 1.99 0 0 1-1.414.586M289.206 264.794a2 2 0 0 1-1.414-3.414l16.446-16.446a2 2 0 1 1 2.828 2.828l-16.446 16.446a1.99 1.99 0 0 1-1.414.586M414.794 264.794a1.992 1.992 0 0 1-1.414-.586l-16.446-16.446a2 2 0 1 1 2.828-2.828l16.446 16.446a2 2 0 0 1-1.414 3.414M305.652 155.652a1.992 1.992 0 0 1-1.414-.586l-16.446-16.446a2 2 0 1 1 2.828-2.828l16.446 16.446a2 2 0 0 1-1.414 3.414M322.727 131.327c-.785 0-1.53-.465-1.849-1.235l-2.296-5.543a2 2 0 0 1 3.695-1.532l2.297 5.543a2 2 0 0 1-1.847 2.767M328.7 145.745c-.786 0-1.53-.466-1.85-1.235l-2.296-5.543a2.001 2.001 0 0 1 3.696-1.532l2.296 5.543a2 2 0 0 1-1.847 2.767M377.599 263.8c-.785 0-1.53-.466-1.85-1.235l-2.295-5.543a2.001 2.001 0 0 1 3.696-1.532l2.296 5.543a2 2 0 0 1-1.847 2.767M383.571 278.218c-.785 0-1.53-.465-1.849-1.235l-2.296-5.543a2 2 0 0 1 3.695-1.532l2.297 5.543a2 2 0 0 1-1.847 2.767M422.675 172.727a2.002 2.002 0 0 1-.767-3.849l5.543-2.296a2 2 0 0 1 1.532 3.696l-5.543 2.297c-.251.103-.51.153-.765.153M408.256 178.7a2.001 2.001 0 0 1-.766-3.849l5.544-2.297a2 2 0 1 1 1.53 3.696l-5.544 2.296c-.25.103-.51.153-.764.153M290.202 227.599a2.001 2.001 0 0 1-.766-3.849l5.544-2.296a2 2 0 0 1 1.53 3.696l-5.544 2.296c-.25.103-.509.153-.764.153M275.784 233.571a2.002 2.002 0 0 1-.767-3.849l5.543-2.297a2 2 0 0 1 1.532 3.696l-5.543 2.297c-.25.103-.51.153-.765.153M381.273 131.327a2 2 0 0 1-1.847-2.767l2.297-5.543a2 2 0 1 1 3.695 1.532l-2.296 5.543a2.003 2.003 0 0 1-1.85 1.235M375.3 145.745a2.003 2.003 0 0 1-1.846-2.767l2.296-5.543a2.001 2.001 0 0 1 3.696 1.532l-2.296 5.543a2.003 2.003 0 0 1-1.85 1.235M326.401 263.8a2.003 2.003 0 0 1-1.847-2.767l2.296-5.543a2.001 2.001 0 0 1 3.696 1.532l-2.296 5.543a2.003 2.003 0 0 1-1.849 1.235M320.429 278.218a2 2 0 0 1-1.847-2.767l2.297-5.543a2 2 0 1 1 3.695 1.532l-2.296 5.543a2.003 2.003 0 0 1-1.85 1.235M428.216 233.571c-.255 0-.514-.05-.765-.153l-5.543-2.297a2 2 0 0 1 1.532-3.696l5.543 2.297a2.002 2.002 0 0 1-.767 3.85M413.798 227.599c-.255 0-.514-.05-.764-.153l-5.544-2.296a2 2 0 0 1 1.53-3.696l5.544 2.296a2.001 2.001 0 0 1-.766 3.849M295.744 178.7c-.255 0-.514-.05-.764-.154l-5.544-2.296a2 2 0 0 1 1.53-3.696l5.544 2.296a2.001 2.001 0 0 1-.766 3.85M281.325 172.727c-.255 0-.514-.05-.765-.153l-5.543-2.297a2 2 0 0 1 1.532-3.695l5.543 2.297a2.002 2.002 0 0 1-.767 3.849"/>
        <path fill="#CCC" d="M365.732 200c0 7.584-6.148 13.732-13.732 13.732s-13.732-6.148-13.732-13.732 6.148-13.732 13.732-13.732 13.732 6.148 13.732 13.732"/>
        <path fill="#B3B3B3" d="M352 188.268c-6.469 0-11.732 5.263-11.732 11.732 0 6.47 5.263 11.733 11.732 11.733 6.469 0 11.732-5.263 11.732-11.733 0-6.47-5.263-11.732-11.732-11.732m0 27.465c-8.675 0-15.732-7.058-15.732-15.733 0-8.674 7.057-15.732 15.732-15.732 8.675 0 15.732 7.058 15.732 15.732 0 8.675-7.057 15.733-15.732 15.733"/>
        <path fill="#E6E6E6" d="M253.31 193.661h-20.952v-29.436l-45.75 45.75c-8.97 8.971-8.97 23.516 0 32.487l17.303 17.302c7.727 7.727 19.573 8.757 28.447 3.172v-44.152h20.952c6.938 0 12.563-5.625 12.563-12.562 0-6.937-5.625-12.56-12.563-12.56"/>
        <path fill="#B3B3B3" d="M230.358 169.054l-42.335 42.335a20.835 20.835 0 0 0-6.144 14.83 20.834 20.834 0 0 0 6.143 14.829l17.302 17.302c6.695 6.693 16.845 8.046 25.034 3.45v-43.016a2 2 0 0 1 2-2h20.952c5.824 0 10.562-4.738 10.562-10.562 0-5.823-4.738-10.561-10.562-10.561h-20.952a2 2 0 0 1-2-2v-24.607zm-10.272 99.45c-6.417 0-12.759-2.495-17.59-7.326l-17.302-17.302a24.805 24.805 0 0 1-7.315-17.657c0-6.67 2.598-12.941 7.315-17.658l45.75-45.75a1.998 1.998 0 0 1 3.414 1.415v27.435h18.952c8.03 0 14.562 6.533 14.562 14.56 0 8.03-6.533 14.563-14.562 14.563h-18.952v42.153c0 .687-.353 1.326-.935 1.692-4.135 2.604-8.756 3.876-13.337 3.876z"/>
        <path fill="#F2F2F2" d="M186.609 224.093l45.75-45.75v-14.117l-45.75 45.749c-6.306 6.306-8.16 15.36-5.601 23.303a22.823 22.823 0 0 1 5.6-9.185"/>
        <path fill="#B3B3B3" d="M230.358 169.054l-42.335 42.335a20.835 20.835 0 0 0-6.144 14.83 20.834 20.834 0 0 0 6.143 14.829l17.302 17.302c6.695 6.693 16.845 8.046 25.034 3.45v-43.016a2 2 0 0 1 2-2h20.952c5.824 0 10.562-4.738 10.562-10.562 0-5.823-4.738-10.561-10.562-10.561h-20.952a2 2 0 0 1-2-2v-24.607zm-10.272 99.45c-6.417 0-12.759-2.495-17.59-7.326l-17.302-17.302a24.805 24.805 0 0 1-7.315-17.657c0-6.67 2.598-12.941 7.315-17.658l45.75-45.75a1.998 1.998 0 0 1 3.414 1.415v27.435h18.952c8.03 0 14.562 6.533 14.562 14.56 0 8.03-6.533 14.563-14.562 14.563h-18.952v42.153c0 .687-.353 1.326-.935 1.692-4.135 2.604-8.756 3.876-13.337 3.876z"/>
        <path fill="#E6E6E6" d="M234.765 193.661h28.539c6.937 0 12.562 5.624 12.562 12.562 0 6.937-5.625 12.561-12.562 12.561H222.56"/>
        <path fill="#B3B3B3" d="M263.304 220.784H222.56a2 2 0 0 1 0-4h40.743c5.824 0 10.562-4.738 10.562-10.562 0-5.823-4.738-10.56-10.562-10.56h-28.54a2 2 0 0 1 0-4h28.54c8.029 0 14.562 6.531 14.562 14.56 0 8.03-6.533 14.562-14.562 14.562M450.69 193.661h20.952v-29.436l45.75 45.75c8.97 8.971 8.97 23.516 0 32.487l-17.303 17.302c-7.728 7.727-19.574 8.758-28.447 3.172v-44.152H450.69c-6.938 0-12.563-5.625-12.563-12.562 0-6.937 5.625-12.56 12.563-12.56"/>
        <path fill="#B3B3B3" d="M473.642 261.8c8.188 4.598 18.339 3.244 25.034-3.45l17.3-17.302a20.83 20.83 0 0 0 6.145-14.83 20.835 20.835 0 0 0-6.144-14.83l-42.335-42.334v24.607a2 2 0 0 1-2 2H450.69c-5.824 0-10.562 4.738-10.562 10.56 0 5.825 4.738 10.563 10.562 10.563h20.952a2 2 0 0 1 2 2V261.8zm10.272 6.705c-4.582 0-9.201-1.272-13.337-3.876a1.999 1.999 0 0 1-.935-1.692v-42.153H450.69c-8.03 0-14.562-6.532-14.562-14.562 0-8.028 6.533-14.561 14.562-14.561h18.952v-27.435a2 2 0 0 1 3.414-1.414l45.75 45.749c4.717 4.717 7.315 10.988 7.315 17.658 0 6.67-2.598 12.94-7.315 17.657l-17.302 17.302c-4.831 4.83-11.174 7.327-17.59 7.327z"/>
        <path fill="#CCC" d="M517.391 224.093l-45.75-45.75v-14.117l45.75 45.749c6.306 6.306 8.16 15.36 5.601 23.303a22.823 22.823 0 0 0-5.6-9.185"/>
        <path fill="#B3B3B3" d="M473.642 261.8c8.188 4.598 18.339 3.244 25.034-3.45l17.3-17.302a20.83 20.83 0 0 0 6.145-14.83 20.835 20.835 0 0 0-6.144-14.83l-42.335-42.334v24.607a2 2 0 0 1-2 2H450.69c-5.824 0-10.562 4.738-10.562 10.56 0 5.825 4.738 10.563 10.562 10.563h20.952a2 2 0 0 1 2 2V261.8zm10.272 6.705c-4.582 0-9.201-1.272-13.337-3.876a1.999 1.999 0 0 1-.935-1.692v-42.153H450.69c-8.03 0-14.562-6.532-14.562-14.562 0-8.028 6.533-14.561 14.562-14.561h18.952v-27.435a2 2 0 0 1 3.414-1.414l45.75 45.749c4.717 4.717 7.315 10.988 7.315 17.658 0 6.67-2.598 12.94-7.315 17.657l-17.302 17.302c-4.831 4.83-11.174 7.327-17.59 7.327z"/>
        <path fill="#B3B3B3" d="M469.235 193.661h-28.539c-6.937 0-12.562 5.624-12.562 12.562 0 6.937 5.625 12.561 12.562 12.561h40.743"/>
        <path fill="#B3B3B3" d="M481.44 220.784h-40.743c-8.03 0-14.563-6.532-14.563-14.562 0-8.029 6.534-14.56 14.563-14.56h28.538a2 2 0 0 1 0 4h-28.538c-5.825 0-10.563 4.737-10.563 10.56 0 5.824 4.738 10.562 10.563 10.562h40.743a2 2 0 0 1 0 4"/>
    </g>
</svg>
