<svg xmlns="http://www.w3.org/2000/svg" xmlns:xlink="http://www.w3.org/1999/xlink" width="480" height="136" viewBox="0 0 480 136">
    <defs>
        <path id="a" d="M.375.806h109.644v89.113H.375z"/>
    </defs>
    <g fill="none" fill-rule="evenodd">
        <path fill="#FFF" d="M189.2 53.474c-9.288 0-4.22-3.16-4.22-19.667C184.98 16.241 170.74 2 153.171 2c-17.568 0-31.809 14.098-31.809 31.808 0 17.711 6.261 19.667-4.169 19.667s-17.819 8.02-17.819 17.82 8.018 17.82 17.82 17.82h72.004c9.801 0 17.82-8.02 17.82-17.82s-8.533-17.82-17.82-17.82"/>
        <g transform="translate(98 .194)">
            <mask id="b" fill="#fff">
                <use xlink:href="#a"/>
            </mask>
            <path fill="#292D4D" d="M91.199 89.919H19.194c-10.376 0-18.82-8.442-18.82-18.82 0-10.728 8.092-18.818 18.82-18.818 2.23 0 4.362-.08 4.843-.662.4-.483.097-2.101-.288-4.15-.552-2.934-1.386-7.368-1.386-13.855C22.363 15.524 37.08.806 55.172.806c18.09 0 32.808 14.718 32.808 32.808 0 5.557-.565 9.6-.977 12.55-.391 2.8-.648 4.65-.05 5.339.468.538 1.778.778 4.246.778 10.026 0 18.82 8.794 18.82 18.819 0 10.377-8.443 18.819-18.82 18.819" mask="url(#b)"/>
            <path fill="#292D4D" d="M55.172 2.806c-16.988 0-30.81 13.82-30.81 30.808 0 6.3.814 10.625 1.352 13.486.538 2.862.863 4.59-.137 5.797-.976 1.177-2.837 1.384-6.383 1.384-9.588 0-16.82 7.23-16.82 16.819 0 9.274 7.546 16.819 16.82 16.819h72.005c9.275 0 16.82-7.545 16.82-16.82 0-8.96-7.86-16.818-16.82-16.818-2.766 0-4.694-.246-5.755-1.464-1.197-1.376-.905-3.466-.421-6.928.404-2.894.957-6.856.957-12.275 0-16.988-13.821-30.808-30.808-30.808"/>
        </g>
        <path fill="#282C4C" d="M166.83 77.753h-27.266c-16.23 0-29.388 13.157-29.388 29.389v27.052h86.042v-27.052c0-16.232-13.158-29.39-29.389-29.39"/>
        <path fill="#292D4D" d="M111.176 133.194h84.042v-26.053c0-15.653-12.735-28.388-28.39-28.388h-27.263c-15.654 0-28.39 12.735-28.39 28.388v26.053zm86.042 2h-88.042v-28.053c0-16.757 13.632-30.388 30.389-30.388h27.264c16.757 0 30.389 13.631 30.389 30.388v28.053z"/>
        <path fill="#FFF" d="M124.87 134.194v-21.807"/>
        <path fill="#292D4D" d="M124.87 135.194a1 1 0 0 1-1-1v-21.807a1 1 0 1 1 2 0v21.807a1 1 0 0 1-1 1"/>
        <path fill="#FFF" d="M181.74 134.194v-21.807"/>
        <path fill="#292D4D" d="M181.74 135.194a1 1 0 0 1-1-1v-21.807a1 1 0 1 1 2 0v21.807a1 1 0 0 1-1 1"/>
        <path fill="#FFF" d="M163.443 76.64V65.093H142.95V76.64c0 1.82-.56 3.604-1.634 5.073-1.338 1.83-2.114 3.99-2.114 6.305 0 6.606 6.265 10.214 13.994 10.214 7.73 0 13.995-3.608 13.995-10.214 0-2.316-.776-4.476-2.114-6.305a8.592 8.592 0 0 1-1.634-5.073"/>
        <path fill="#292D4D" d="M143.95 66.094V76.64c0 2.041-.648 4.052-1.826 5.663-1.258 1.72-1.922 3.695-1.922 5.715 0 6.365 6.526 9.214 12.994 9.214 6.47 0 12.995-2.849 12.995-9.214 0-2.02-.664-3.996-1.922-5.714-1.177-1.612-1.826-3.623-1.826-5.664V66.094H143.95zm9.246 33.137c-8.969 0-14.994-4.507-14.994-11.214 0-2.447.798-4.832 2.307-6.896.93-1.27 1.441-2.863 1.441-4.482V65.094a1 1 0 0 1 1-1h20.493a1 1 0 0 1 1 1V76.64c0 1.62.512 3.212 1.442 4.483 1.508 2.063 2.306 4.448 2.306 6.895 0 6.707-6.026 11.214-14.995 11.214z"/>
        <path fill="#FFF" d="M174.292 41.318c0 4.655-.001 8.864-.002 8.955-.146 11.524-9.534 20.821-21.094 20.821-11.589 0-20.995-9.345-21.093-20.912l-.001-8.864c0-13.811 20.9-14.494 20.9-21.987 0 7.493 21.29 9.009 21.29 21.987"/>
        <path fill="#292D4D" d="M152.999 22.352c-1.473 2.05-4.396 3.568-7.627 5.247-5.752 2.987-12.27 6.373-12.27 13.72l.001 8.863c.093 10.976 9.107 19.912 20.093 19.912 10.941 0 19.955-8.897 20.094-19.834.001-.134.002-4.318.002-8.942 0-6.775-6.524-10.262-12.281-13.338-3.41-1.822-6.492-3.47-8.012-5.628m.197 49.742c-12.079 0-21.991-9.826-22.093-21.903l-.001-8.873c0-8.56 7.401-12.404 13.348-15.494 4.052-2.105 7.552-3.922 7.552-6.493a1 1 0 1 1 2 0c0 2.635 3.684 4.605 7.951 6.884 5.942 3.177 13.339 7.13 13.339 15.103 0 4.661-.001 8.875-.002 8.966-.153 12.027-10.064 21.81-22.094 21.81"/>
        <path fill="#282C4C" d="M158.41 57.122a5.548 5.548 0 0 1-11.097 0h11.096z"/>
        <path fill="#FFF" d="M155.464 44.499v6.164h-4.657"/>
        <path fill="#292D4D" d="M155.464 51.663h-4.657a1 1 0 1 1 0-2h3.657v-5.164a1 1 0 1 1 2 0v6.164a1 1 0 0 1-1 1"/>
        <path fill="#282C4C" d="M166.33 44.177a2.46 2.46 0 1 1-4.92-.001 2.46 2.46 0 0 1 4.92.001M145.514 44.177a2.46 2.46 0 1 1-4.92-.001 2.46 2.46 0 0 1 4.92.001"/>
        <path fill="#FFF" d="M305.503 111.891H174.498a2.659 2.659 0 0 1-2.66-2.659V30.853a2.658 2.658 0 0 1 2.66-2.659h131.005a2.658 2.658 0 0 1 2.659 2.66v78.378a2.659 2.659 0 0 1-2.66 2.66"/>
        <path fill="#282C4C" d="M174.498 29.194a1.66 1.66 0 0 0-1.659 1.659v78.379a1.66 1.66 0 0 0 1.659 1.659h131.005a1.66 1.66 0 0 0 1.659-1.659V30.853a1.66 1.66 0 0 0-1.659-1.659H174.498zm131.005 83.697H174.498a3.663 3.663 0 0 1-3.659-3.659V30.853a3.663 3.663 0 0 1 3.659-3.659h131.005a3.664 3.664 0 0 1 3.659 3.659v78.379a3.663 3.663 0 0 1-3.659 3.659z"/>
        <path fill="#282C4C" d="M240.001 93.503a7.608 7.608 0 0 1-7.609-7.608 7.608 7.608 0 0 1 7.609-7.61 7.608 7.608 0 0 1 7.608 7.61 7.608 7.608 0 0 1-7.608 7.608zm24.453 36.462l-8.761-64.36h-31.385l-8.761 64.36H204.36a3.99 3.99 0 0 0-3.989 3.989v.24h77.357v-.24a3.99 3.99 0 0 0-3.99-3.99h-9.284z"/>
        <path fill="#292D4D" d="M240.001 79.286a6.616 6.616 0 0 0-6.609 6.608 6.616 6.616 0 0 0 6.609 6.609 6.616 6.616 0 0 0 6.608-6.61 6.616 6.616 0 0 0-6.608-6.607zm0 15.217c-4.747 0-8.609-3.862-8.609-8.61 0-4.746 3.862-8.607 8.609-8.607s8.608 3.86 8.608 8.608c0 4.747-3.861 8.609-8.608 8.609zm-38.532 38.69h75.161a2.995 2.995 0 0 0-2.892-2.228h-10.157l-8.761-64.361h-29.639l-8.761 64.36h-12.06a2.995 2.995 0 0 0-2.891 2.23zm77.259 2h-79.357v-1.24a4.995 4.995 0 0 1 4.989-4.988h10.314l8.761-64.361h33.131l8.761 64.36h8.411a4.995 4.995 0 0 1 4.99 4.99v1.24z"/>
        <path fill="#282C4C" d="M0 136h480v-2H0z"/>
        <path fill="#282C4C" d="M90.837 110.452h-1.935v-5.271h1.935a2.639 2.639 0 0 1 2.636 2.635 2.64 2.64 0 0 1-2.636 2.636m0-9.663h-1.935v-3.056H62.015v19.555c0 5.704 3.554 10.575 8.567 12.528a13.483 13.483 0 0 0-5.814 4.378H86.15a13.495 13.495 0 0 0-5.816-4.378c5.014-1.953 8.568-6.824 8.568-12.528v-2.444h1.935c3.875 0 7.027-3.153 7.027-7.028a7.035 7.035 0 0 0-7.027-7.027"/>
        <path fill="#292D4D" d="M89.902 109.452h.935a1.636 1.636 0 0 0 0-3.271h-.935v3.27zm.935 2h-2.935v-7.271h2.935a3.64 3.64 0 0 1 3.635 3.635 3.64 3.64 0 0 1-3.635 3.636zm-23.81 21.742h16.862a12.436 12.436 0 0 0-3.919-2.446l-2.39-.932 2.39-.931c4.82-1.877 7.932-6.43 7.932-11.597v-3.444h2.935a6.035 6.035 0 0 0 6.027-6.028 6.034 6.034 0 0 0-6.027-6.027h-2.935v-3.056H63.014v18.555c0 5.168 3.114 9.72 7.931 11.597l2.391.93-2.39.933a12.454 12.454 0 0 0-3.92 2.446zm21.144 2H62.747l1.225-1.606a14.457 14.457 0 0 1 4.295-3.77c-4.466-2.546-7.253-7.262-7.253-12.53V96.733h28.888v3.056h.935c4.426 0 8.027 3.6 8.027 8.027s-3.6 8.028-8.027 8.028h-.935v1.444c0 5.268-2.787 9.984-7.254 12.53a14.485 14.485 0 0 1 4.296 3.77l1.227 1.606z"/>
        <path fill="#282C4C" d="M65.348 93.863h-2c0-2.201 1.956-3.246 3.528-4.086 1.538-.821 2.472-1.388 2.472-2.323 0-.938-.934-1.504-2.472-2.326-1.572-.841-3.528-1.887-3.528-4.09 0-2.204 1.956-3.251 3.528-4.092 1.538-.822 2.472-1.39 2.472-2.328 0-.94-.934-1.506-2.472-2.328-1.572-.841-3.528-1.888-3.528-4.092h2c0 .938.934 1.506 2.472 2.328 1.572.84 3.528 1.888 3.528 4.092 0 2.204-1.956 3.25-3.528 4.092-1.538.822-2.472 1.389-2.472 2.328 0 .937.934 1.504 2.472 2.326 1.572.84 3.528 1.887 3.528 4.09 0 2.202-1.957 3.247-3.53 4.087-1.536.82-2.47 1.387-2.47 2.322M73.458 93.863h-2c0-2.201 1.956-3.246 3.528-4.086 1.538-.821 2.472-1.388 2.472-2.323 0-.938-.934-1.504-2.472-2.326-1.572-.841-3.528-1.887-3.528-4.09 0-2.204 1.956-3.251 3.528-4.092 1.538-.822 2.472-1.39 2.472-2.328 0-.94-.934-1.506-2.472-2.328-1.572-.841-3.528-1.888-3.528-4.092h2c0 .938.934 1.506 2.472 2.328 1.572.84 3.528 1.888 3.528 4.092 0 2.204-1.956 3.25-3.528 4.092-1.538.822-2.472 1.389-2.472 2.328 0 .937.934 1.504 2.472 2.326 1.572.84 3.528 1.887 3.528 4.09 0 2.202-1.957 3.247-3.529 4.087-1.537.82-2.471 1.387-2.471 2.322M81.57 93.863h-2c0-2.201 1.955-3.246 3.527-4.086 1.538-.821 2.472-1.388 2.472-2.323 0-.938-.934-1.504-2.472-2.326-1.572-.841-3.528-1.887-3.528-4.09 0-2.204 1.956-3.251 3.528-4.092 1.538-.822 2.472-1.39 2.472-2.328 0-.94-.934-1.506-2.472-2.328-1.572-.841-3.528-1.888-3.528-4.092h2c0 .938.934 1.506 2.472 2.328 1.572.84 3.528 1.888 3.528 4.092 0 2.204-1.956 3.25-3.528 4.092-1.538.822-2.472 1.389-2.472 2.328 0 .937.934 1.504 2.472 2.326 1.572.84 3.528 1.887 3.528 4.09 0 2.202-1.957 3.247-3.529 4.087-1.537.82-2.47 1.387-2.47 2.322M374.908 26.056c-20.86-.9-38.675 12.723-44.2 31.597-.774 2.645-2.9 4.674-5.593 5.265l-32.438 7.124 32.44 7.124a7.496 7.496 0 0 1 5.581 5.232c5.341 18.3 22.233 31.673 42.258 31.673 24.888 0 44.953-20.65 43.995-45.75-.866-22.728-19.32-41.284-42.043-42.265"/>
        <path fill="#292D4D" d="M297.339 70.043l27.993 6.147a8.496 8.496 0 0 1 6.326 5.928c5.32 18.225 22.3 30.953 41.298 30.953 11.805 0 22.816-4.685 31.004-13.192 8.185-8.503 12.443-19.697 11.992-31.521-.846-22.202-18.893-40.343-41.087-41.302-19.855-.85-37.624 11.84-43.197 30.879-.881 3.01-3.31 5.296-6.34 5.96l-27.99 6.148zm75.617 45.028c-19.88 0-37.651-13.32-43.218-32.392a6.495 6.495 0 0 0-4.836-4.535l-32.44-7.124a1 1 0 0 1 0-1.954l32.439-7.124c2.314-.507 4.17-2.258 4.847-4.57 5.832-19.923 24.405-33.191 45.203-32.314 23.227 1.003 42.114 19.989 42.999 43.224.473 12.372-3.984 24.086-12.548 32.984-8.57 8.902-20.092 13.805-32.446 13.805z"/>
        <path fill="#282C4C" d="M404.807 70.043c0 17.59-14.26 31.85-31.851 31.85-17.59 0-31.85-14.26-31.85-31.85 0-17.591 14.26-31.851 31.85-31.851 17.59 0 31.85 14.26 31.85 31.85"/>
        <path fill="#292D4D" d="M372.956 39.192c-17.01 0-30.85 13.84-30.85 30.851 0 17.01 13.84 30.849 30.85 30.849 17.011 0 30.851-13.839 30.851-30.849 0-17.011-13.84-30.851-30.85-30.851m0 63.7c-18.114 0-32.85-14.736-32.85-32.849 0-18.115 14.736-32.851 32.85-32.851 18.113 0 32.85 14.736 32.85 32.851 0 18.113-14.737 32.849-32.85 32.849"/>
        <path fill="#FFF" d="M380.54 80.488c-.435.4-1.051.602-1.851.602h-.5v2.185h-1.78v-6.59h2.28c.832 0 1.458.184 1.875.547.418.363.626.88.626 1.55 0 .736-.216 1.305-.65 1.706zm-8.451 2.787h1.789v-6.59h-1.789v6.59zm-2.235 0h-5.132v-1.1l2.852-4.051h-2.784v-1.438h4.992v1.096l-2.852 4.056h2.924v1.437zm25.554-11.36h-7.131V46.383h-15.321v2.553h3.83v2.554h-3.83v2.553h3.83v2.553h-3.83v2.554h3.83v10.214a2.552 2.552 0 0 1-2.553 2.553h-2.553a2.553 2.553 0 0 1-2.554-2.553v-7.66h3.83v-2.554h-3.83v-2.554h3.83v-2.553h-3.83v-2.553h3.83v-2.554h-3.83v-2.553h-11.49v25.534h-7.132c-1.137 0-1.707 1.375-.902 2.179l23.354 23.356 23.355-23.356c.804-.804.235-2.18-.903-2.18zm-23.728-2.552h2.554v-2.554h-2.554v2.554zm6.969 8.76h-.46v1.515h.325c.267 0 .48-.075.637-.225.159-.15.238-.358.238-.622 0-.445-.246-.667-.74-.667z"/>
    </g>
</svg>
