<svg xmlns="http://www.w3.org/2000/svg" width="288" height="160" viewBox="0 0 288 160">
    <g fill="none" fill-rule="evenodd">
        <path fill="#FFF" d="M0 160h288V0H0z"/>
        <path fill="#6CC7BE" d="M224 80c0 44.183-35.817 80-80 80s-80-35.817-80-80S99.817 0 144 0s80 35.817 80 80"/>
        <path fill="#FFF" d="M108.092 86.747c-.72 0-1.436.12-2.11.326-1.863-5.493-9.66-9.937-17.452-9.937-6.304 0-10.678 2.907-11.18 6.924-1.86-.949-4.068-1.525-6.277-1.525-.923 0-1.78.102-2.553.287-3.882-6.665-13.805-11.729-23.731-11.729-8.975 0-15.204 4.14-15.917 9.861-2.648-1.353-5.793-2.173-8.94-2.173-6.915 0-11.21 3.956-9.59 8.836.447 1.351 1.302 2.63 2.449 3.774h97.932c.422-.422.737-.893.902-1.39.596-1.797-.986-3.254-3.533-3.254"/>
        <path stroke="#6CC7BE" stroke-linecap="round" stroke-linejoin="round" stroke-width="1.5" d="M56.525 91.39h54.197c.422-.421.738-.892.903-1.39.595-1.796-.987-3.253-3.534-3.253-.718 0-1.435.12-2.11.327-1.265-3.732-5.268-6.98-10.147-8.678M51.675 71.88a33.024 33.024 0 0 0-1.963-.383"/>
        <path stroke="#6CC7BE" stroke-dasharray="3.237,3.237" stroke-linecap="round" stroke-linejoin="round" stroke-width="1.5" d="M46.497 71.143a29.485 29.485 0 0 0-1.708-.05c-3.634 0-6.817.679-9.366 1.866"/>
        <path stroke="#6CC7BE" stroke-linecap="round" stroke-linejoin="round" stroke-width="1.5" d="M33.992 73.718c-.589.354-1.134.74-1.631 1.155"/>
        <path stroke="#6CC7BE" stroke-width="1.5" d="M102.568 82.235c-3.436-3.044-8.737-5.1-14.039-5.1-6.304 0-10.678 2.908-11.179 6.925-1.859-.949-4.068-1.525-6.277-1.525-.924 0-1.779.101-2.554.287-2.974-5.107-9.494-9.274-16.845-10.942"/>
        <path fill="#FFF" d="M179.908 85.618c.719 0 1.437.12 2.111.326 1.862-5.493 9.658-9.937 17.451-9.937 6.304 0 10.678 2.907 11.179 6.924 1.861-.949 4.069-1.525 6.279-1.525.922 0 1.778.102 2.552.288 3.883-6.666 13.806-11.73 23.732-11.73 8.975 0 15.204 4.14 15.917 9.861 2.648-1.352 5.793-2.173 8.938-2.173 6.916 0 11.21 3.956 9.592 8.836-.448 1.351-1.303 2.63-2.449 3.774h-97.932c-.423-.42-.737-.893-.902-1.39-.597-1.797.985-3.254 3.532-3.254"/>
        <path stroke="#6CC7BE" stroke-linecap="round" stroke-linejoin="round" stroke-width="1.5" d="M229.442 90.262h-52.164c-.423-.421-.737-.893-.902-1.39-.597-1.797.985-3.254 3.532-3.254.72 0 1.436.12 2.111.327a9.48 9.48 0 0 1 .891-1.885"/>
        <path stroke="#6CC7BE" stroke-dasharray="4" stroke-linecap="round" stroke-linejoin="round" stroke-width="1.5" d="M250.718 71.093c4.815 1.604 7.92 4.794 8.41 8.732 2.65-1.351 5.794-2.172 8.94-2.172 2.46 0 4.588.5 6.237 1.365"/>
        <path stroke="#6CC7BE" stroke-width="1.5" d="M183.766 82.844c3.188-3.972 9.446-6.837 15.704-6.837 6.304 0 10.678 2.907 11.18 6.925 1.86-.95 4.067-1.525 6.277-1.525.923 0 1.778.1 2.553.288 3.883-6.666 13.806-11.731 23.731-11.731 2.796 0 5.326.402 7.506 1.129"/>
        <path fill="#FFF" d="M161.54 17.857c.899 0 1.797.15 2.64.408 2.33-6.872 12.083-12.432 21.833-12.432 7.885 0 13.358 3.637 13.985 8.664 2.326-1.188 5.089-1.909 7.853-1.909 6.076 0 9.849 3.476 8.427 7.763-.393 1.187-1.144 2.31-2.152 3.316H158.25c-.53-.528-.923-1.118-1.13-1.739-.745-2.249 1.233-4.07 4.42-4.07"/>
        <path stroke="#6CC7BE" stroke-linecap="round" stroke-linejoin="round" stroke-width="1.5" d="M210.417 23.667H158.25c-.53-.527-.923-1.117-1.13-1.738-.745-2.249 1.234-4.072 4.42-4.072.899 0 1.797.15 2.64.409.547-1.61 1.499-3.147 2.763-4.558"/>
        <path stroke="#6CC7BE" stroke-dasharray="4" stroke-linecap="round" stroke-linejoin="round" stroke-width="1.5" d="M198.39 10.658c.88 1.14 1.432 2.435 1.607 3.84 2.327-1.189 5.09-1.909 7.853-1.909 3.038 0 5.501.868 7.025 2.273"/>
        <path stroke="#6CC7BE" stroke-width="1.5" d="M166.943 13.708c4.135-4.614 11.603-7.875 19.07-7.875 5.682 0 10.112 1.89 12.377 4.825"/>
        <path fill="#FFF" d="M151.883 29.822c-.88 0-1.758.146-2.584.398-2.277-6.72-11.817-12.16-21.354-12.16-7.714 0-13.067 3.558-13.68 8.475-2.276-1.162-4.978-1.867-7.682-1.867-1.13 0-2.177.124-3.124.351-4.751-8.156-16.892-14.352-29.04-14.352-10.981 0-18.603 5.065-19.476 12.065-3.241-1.653-7.088-2.657-10.938-2.657-8.463 0-13.718 4.841-11.737 10.811.548 1.653 1.594 3.217 2.997 4.618H155.102c.516-.516.9-1.092 1.103-1.7.73-2.2-1.206-3.982-4.322-3.982"/>
        <path stroke="#6CC7BE" stroke-linecap="round" stroke-linejoin="round" stroke-width="1.5" d="M66.608 35.504h88.493c.517-.516.902-1.092 1.104-1.7.73-2.2-1.206-3.982-4.323-3.982-.879 0-1.757.146-2.584.399-.71-2.1-2.13-4.074-4.039-5.797"/>
        <path stroke="#6CC7BE" stroke-dasharray="4" stroke-linecap="round" stroke-linejoin="round" stroke-width="1.5" d="M65.9 11.837c-6.27 1.886-10.335 5.898-10.958 10.896-3.24-1.654-7.088-2.658-10.938-2.658-8.462 0-13.717 4.84-11.737 10.812"/>
        <path stroke="#6CC7BE" stroke-width="1.5" d="M156.205 33.804c.729-2.2-1.206-3.981-4.322-3.981a8.87 8.87 0 0 0-2.584.398c-2.278-6.722-11.818-12.16-21.355-12.16-7.714 0-13.066 3.557-13.68 8.474-2.275-1.162-4.977-1.867-7.681-1.867-1.13 0-2.177.124-3.124.352-4.751-8.156-16.893-14.353-29.04-14.353-3.141 0-6.007.414-8.52 1.17"/>
        <path fill="#C5C6D6" d="M175.396 100.498h-21.729c-11.164 0-20.212-9.05-20.212-20.213a8.086 8.086 0 0 0-8.085-8.085h54.07V60.072c0-11.163-9.05-20.213-20.214-20.213h-21.729c-11.164 0-20.213 9.05-20.213 20.213v62.155c0 5.582 4.525 10.106 10.106 10.106h41.943c5.581 0 10.106-4.524 10.106-10.106v-22.134a20.322 20.322 0 0 1-4.043.405"/>
        <path stroke="#282C4C" stroke-linecap="round" stroke-linejoin="round" stroke-width="1.5" d="M175.396 100.498h-21.729c-11.164 0-20.212-9.05-20.212-20.213a8.086 8.086 0 0 0-8.085-8.085h54.07V60.072c0-11.163-9.05-20.213-20.214-20.213h-21.729c-11.164 0-20.213 9.05-20.213 20.213v62.155c0 5.582 4.525 10.106 10.106 10.106h41.943c5.581 0 10.106-4.524 10.106-10.106v-22.134a20.322 20.322 0 0 1-4.043.405z"/>
        <path fill="#C5C6D6" d="M104.29 78.478c1.68-12.64.736-21.23 4.303-25.898.486-1.23 1.09-2.4 1.796-3.497-10.406 2.569-7.866 12.261-10.142 29.395-2.688 20.234-17.064 48.23 1.444 48.23h4.043c-18.51 0-4.132-27.996-1.444-48.23"/>
        <path stroke="#282C4C" stroke-linecap="round" stroke-linejoin="round" stroke-width="1.5" d="M104.29 78.478c1.68-12.64.736-21.23 4.303-25.898.486-1.23 1.09-2.4 1.796-3.497-10.406 2.569-7.866 12.261-10.142 29.395-2.688 20.234-17.064 48.23 1.444 48.23h4.043c-18.51 0-4.132-27.996-1.444-48.23z"/>
        <path fill="#282C4C" d="M107.347 123.998c-13.149-2.154-4.09-22.861-.169-40.393V60.007c0-2.728.543-5.328 1.523-7.703-3.693 4.476-2.715 12.813-4.412 25.136l.126.033c-.042.335-.08.665-.126 1.005-2.688 20.234-17.065 48.231 1.445 48.231h2.525a10.017 10.017 0 0 1-.912-2.711"/>
        <path stroke="#282C4C" stroke-linecap="round" stroke-linejoin="round" stroke-width="1.5" d="M107.347 123.998c-13.149-2.154-4.09-22.861-.169-40.393V60.007c0-2.728.543-5.328 1.523-7.703-3.693 4.476-2.715 12.813-4.412 25.136l.126.033c-.042.335-.08.665-.126 1.005-2.688 20.234-17.065 48.231 1.445 48.231h2.525a10.017 10.017 0 0 1-.912-2.711z"/>
        <path fill="#CCC" d="M179.438 100.027a20.305 20.305 0 0 1-4.042.405h4.042v-.405z"/>
        <path stroke="#282C4C" stroke-linecap="round" stroke-linejoin="round" stroke-width="1.5" d="M179.438 100.027a20.305 20.305 0 0 1-4.042.405h-21.729c-11.164 0-20.212-9.05-20.212-20.213a8.087 8.087 0 0 0-16.17 0v41.942c0 5.582 4.524 10.106 10.105 10.106h41.943c5.581 0 10.105-4.524 10.105-10.106v-22.134z"/>
        <path fill="#282C4C" d="M159.226 43.837h-21.729c-8.917 0-16.17 7.254-16.17 16.17v3.032c0-8.916 7.253-16.17 16.17-16.17h21.73c8.915 0 16.17 7.254 16.17 16.17v-3.032c0-8.916-7.255-16.17-16.17-16.17"/>
        <path stroke="#282C4C" stroke-linecap="round" stroke-linejoin="round" stroke-width="1.5" d="M159.226 43.837h-21.729c-8.917 0-16.17 7.254-16.17 16.17v3.032c0-8.916 7.253-16.17 16.17-16.17h21.73c8.915 0 16.17 7.254 16.17 16.17v-3.032c0-8.916-7.255-16.17-16.17-16.17zM179.438 122.161v-5.053H127.39v5.053c0 5.582 4.526 10.106 10.107 10.106h31.836c5.581 0 10.105-4.524 10.105-10.106zM117.284 117.108v5.053c0 5.582 4.525 10.106 10.106 10.106h4.043"/>
        <path fill="#C5C6D6" d="M117.284 122.161V60.007c0-11.163 9.05-20.213 20.213-20.213H127.39c-11.163 0-20.212 9.05-20.212 20.213v62.154c0 5.582 4.525 10.106 10.106 10.106h10.106c-5.581 0-10.106-4.524-10.106-10.106"/>
        <path stroke="#282C4C" stroke-linecap="round" stroke-linejoin="round" stroke-width="1.5" d="M117.284 122.161V60.007c0-11.163 9.05-20.213 20.213-20.213H127.39c-11.163 0-20.212 9.05-20.212 20.213v62.154c0 5.582 4.525 10.106 10.106 10.106h10.106c-5.581 0-10.106-4.524-10.106-10.106z"/>
        <path stroke="#282C4C" stroke-linecap="round" stroke-linejoin="round" stroke-width="1.5" d="M127.39 122.161v-5.053h-20.212v5.053c0 5.582 4.524 10.106 10.106 10.106h20.212c-5.58 0-10.106-4.524-10.106-10.106zM117.284 80.22c0-4.291 3.62-8.085 8.086-8.085a8.085 8.085 0 0 1 8.085 8.085M121.327 80.22a4.043 4.043 0 0 1 8.085 0M171.353 100.433h-21.729c-11.163 0-20.212-9.05-20.212-20.213"/>
        <path fill="#C5C6D6" d="M125.37 72.135a8.085 8.085 0 0 1 8.085 8.085c0 11.163 9.05 20.213 20.213 20.213h21.728c11.163 0 20.213-9.05 20.213-20.213a8.085 8.085 0 0 0-8.085-8.085H125.37z"/>
        <path stroke="#282C4C" stroke-linecap="round" stroke-linejoin="round" stroke-width="1.5" d="M125.37 72.135a8.085 8.085 0 0 1 8.085 8.085c0 11.163 9.05 20.213 20.213 20.213h21.728c11.163 0 20.213-9.05 20.213-20.213a8.085 8.085 0 0 0-8.085-8.085H125.37z"/>
        <path stroke="#282C4C" stroke-linecap="round" stroke-linejoin="round" stroke-width="1.5" d="M183.481 72.135h-54.069a8.085 8.085 0 0 1 8.085 8.085c0 8.916 7.255 16.17 16.171 16.17h21.728c8.916 0 16.17-7.254 16.17-16.17a8.085 8.085 0 0 0-8.085-8.085z"/>
        <path fill="#282C4C" d="M183.481 72.135h-3.032a8.085 8.085 0 0 1 8.086 8.085c0 8.916-7.255 16.17-16.17 16.17h3.031c8.916 0 16.17-7.254 16.17-16.17a8.085 8.085 0 0 0-8.085-8.085"/>
        <path stroke="#282C4C" stroke-linecap="round" stroke-linejoin="round" stroke-width="1.5" d="M183.481 72.135h-3.032a8.085 8.085 0 0 1 8.086 8.085c0 8.916-7.255 16.17-16.17 16.17h3.031c8.916 0 16.17-7.254 16.17-16.17a8.085 8.085 0 0 0-8.085-8.085zM121.327 85.105v7.075M121.327 96.348v1.01"/>
        <path fill="#C5C6D6" d="M137.955 39.794v-5.31c0-1.052.856-1.91 1.908-1.91h10.793c1.053 0 1.909.858 1.909 1.91v5.31h4.909v-5.31a6.825 6.825 0 0 0-6.818-6.817h-10.793a6.825 6.825 0 0 0-6.817 6.817v5.31h4.909z"/>
        <path stroke="#282C4C" stroke-linecap="round" stroke-linejoin="round" stroke-width="1.5" d="M137.955 39.794v-5.31c0-1.052.856-1.91 1.908-1.91h10.793c1.053 0 1.909.858 1.909 1.91v5.31h4.909v-5.31a6.825 6.825 0 0 0-6.818-6.817h-10.793a6.825 6.825 0 0 0-6.817 6.817v5.31h4.909z"/>
        <path fill="#282C4C" d="M150.656 32.575h-3.903c1.052 0 1.909.856 1.909 1.91v5.31h3.903v-5.31a1.91 1.91 0 0 0-1.909-1.91"/>
        <path stroke="#282C4C" stroke-linecap="round" stroke-linejoin="round" stroke-width="1.5" d="M150.656 32.575h-3.903c1.052 0 1.909.856 1.909 1.91v5.31h3.903v-5.31a1.91 1.91 0 0 0-1.909-1.91z"/>
        <path fill="#282C4C" d="M139.863 27.667h-3.902a6.825 6.825 0 0 0-6.818 6.817v5.31h3.903v-5.31a6.825 6.825 0 0 1 6.817-6.817"/>
        <path stroke="#282C4C" stroke-linecap="round" stroke-linejoin="round" stroke-width="1.5" d="M139.863 27.667h-3.902a6.825 6.825 0 0 0-6.818 6.817v5.31h3.903v-5.31a6.825 6.825 0 0 1 6.817-6.817z"/>
        <path fill="#282C4C" d="M159.226 43.837h-.037c4.094 3.066 6.988 7.639 7.85 12.9l4.02 2.906-1.28 12.492h5.617V60.007c0-8.916-7.254-16.17-16.17-16.17"/>
        <path stroke="#282C4C" stroke-linecap="round" stroke-linejoin="round" stroke-width="1.5" d="M159.226 43.837h-.037c4.094 3.066 6.988 7.639 7.85 12.9l4.02 2.906-1.28 12.492h5.617V60.007c0-8.916-7.254-16.17-16.17-16.17z"/>
        <path fill="#494E80" d="M150.89 60.87l-6.843 4.79.892-8.695 13.833-6.2 8.266 5.972c-.86-5.262-3.755-9.834-7.849-12.9h-21.693c-8.916 0-16.169 7.254-16.169 16.17v13.258a7.873 7.873 0 0 1 4.042-1.13h7.676v.054l32.008-.054-.425-4.859-13.739-6.407z"/>
        <path stroke="#282C4C" stroke-linecap="round" stroke-linejoin="round" stroke-width="1.5" d="M150.89 60.87l-6.843 4.79.892-8.695 13.833-6.2 8.266 5.972c-.86-5.262-3.755-9.834-7.849-12.9h-21.693c-8.916 0-16.169 7.254-16.169 16.17v13.258a7.873 7.873 0 0 1 4.042-1.13h7.676v.054l32.008-.054-.425-4.859-13.739-6.407z"/>
        <path fill="#515DC6" d="M165.054 72.135l-.425-4.858-13.74-6.408-12.418 8.696.225 2.57z"/>
        <path stroke="#282C4C" stroke-linecap="round" stroke-linejoin="round" stroke-width="1.5" d="M165.054 72.135l-.425-4.858-13.74-6.408-12.418 8.696.225 2.57z"/>
        <path fill="#FF8765" d="M158.772 50.764l-13.833 6.2-.892 8.696 6.842-4.791 13.74 6.408.424 4.858h4.725l1.281-12.492z"/>
        <path stroke="#282C4C" stroke-linecap="round" stroke-linejoin="round" stroke-width="1.5" d="M158.772 50.764l-13.833 6.2-.892 8.696 6.842-4.791 13.74 6.408.424 4.858h4.725l1.281-12.492z"/>
        <path fill="#6CC7BE" d="M144.048 65.66l.892-8.695 2.578-1.157-10.113-2.71-10.718 10.72 2.228 8.317h9.78l-.223-2.57z"/>
        <path stroke="#282C4C" stroke-linecap="round" stroke-linejoin="round" stroke-width="1.5" d="M144.048 65.66l.892-8.695 2.578-1.157-10.113-2.71-10.718 10.72 2.228 8.317h9.78l-.223-2.57zM149.625 100.433a20.14 20.14 0 0 1-13.56-5.224v12.635a4.043 4.043 0 0 0 4.043 4.043h26.614a4.043 4.043 0 0 0 4.043-4.043v-7.411h-21.14z"/>
        <path stroke="#282C4C" stroke-linecap="round" stroke-linejoin="round" stroke-width="1.5" d="M149.625 100.433a20.14 20.14 0 0 1-13.56-5.224v12.635a4.043 4.043 0 0 0 4.043 4.043h14.486a4.042 4.042 0 0 0 4.043-4.043v-7.411h-9.012z"/>
        <path stroke="#282C4C" stroke-linecap="round" stroke-linejoin="round" stroke-width="1.5" d="M149.625 100.433c-3.04 0-5.92-.675-8.506-1.877v9.288a4.042 4.042 0 0 0 4.042 4.043h21.56a4.043 4.043 0 0 0 4.044-4.043v-7.411h-21.14z"/>
        <path fill="#FFF" d="M223.452 50.792c10.226-10.226 10.226-26.805 0-37.031-10.227-10.226-26.806-10.226-37.031 0-8.996 8.996-10.074 22.908-3.242 33.087l-9.638 16.824 16.824-9.638c10.179 6.832 24.09 5.754 33.087-3.242"/>
        <path stroke="#282C4C" stroke-dasharray="4" stroke-linecap="round" stroke-linejoin="round" stroke-width="1.5" d="M230.715 27.666a26.072 26.072 0 0 0-7.263-13.905 26.172 26.172 0 0 0-6.871-4.946"/>
        <path stroke="#282C4C" stroke-linecap="round" stroke-linejoin="round" stroke-width="1.5" d="M216.58 8.815c-9.793-4.863-22-3.215-30.16 4.945-8.995 8.996-10.073 22.91-3.241 33.087l-9.638 16.824 16.824-9.637c10.179 6.832 24.09 5.754 33.087-3.242 6.29-6.29 8.71-14.986 7.263-23.126"/>
        <path fill="#6CC7BE" d="M219.821 47.162c-8.22 8.221-21.55 8.221-29.77 0-8.22-8.22-8.22-21.55 0-29.77 8.22-8.22 21.55-8.22 29.77 0 8.221 8.22 8.221 21.55 0 29.77"/>
        <path fill="#FFF" d="M210.996 24.276l-8.35 8.66-4.25-3.46-3.41 4.2 6.19 5.031 1.93 1.57 1.72-1.79 10.06-10.45zM238.164 46.08l-2.901-1.675v-3.349l2.9-1.675 2.9 1.675v3.35z"/>
        <path stroke="#282C4C" stroke-linecap="round" stroke-linejoin="round" stroke-width="1.5" d="M238.164 46.08l-2.901-1.675v-3.349l2.9-1.675 2.9 1.675v3.35z"/>
        <path fill="#FFF" d="M182.858 42.032a3.08 3.08 0 1 1-6.16 0 3.08 3.08 0 0 1 6.16 0"/>
        <path stroke="#282C4C" stroke-linecap="round" stroke-linejoin="round" stroke-width="1.5" d="M182.858 42.032a3.08 3.08 0 1 1-6.16 0 3.08 3.08 0 0 1 6.16 0z"/>
        <path fill="#282C4C" d="M224.446 51.273a2.053 2.053 0 1 1-4.106.002 2.053 2.053 0 0 1 4.106-.002"/>
        <path stroke="#282C4C" stroke-linecap="round" stroke-linejoin="round" stroke-width="1.5" d="M224.446 51.273a2.053 2.053 0 1 1-4.106.002 2.053 2.053 0 0 1 4.106-.002z"/>
        <path fill="#282C4C" d="M170.536 24.061a1.54 1.54 0 1 1-3.08.002 1.54 1.54 0 0 1 3.08-.002"/>
        <path stroke="#282C4C" stroke-linecap="round" stroke-linejoin="round" stroke-width="1.5" d="M170.536 24.061a1.54 1.54 0 1 1-3.08.002 1.54 1.54 0 0 1 3.08-.002z"/>
        <path fill="#282C4C" d="M183.886 6.092a2.055 2.055 0 1 1-4.11-.001 2.055 2.055 0 0 1 4.11 0"/>
        <path stroke="#282C4C" stroke-linecap="round" stroke-linejoin="round" stroke-width="1.5" d="M183.886 6.092a2.055 2.055 0 1 1-4.11-.001 2.055 2.055 0 0 1 4.11 0zM233.175 13.793h6.16M236.256 10.713v6.16"/>
    </g>
</svg>
