<svg xmlns="http://www.w3.org/2000/svg" width="704" height="400" viewBox="0 0 704 400">
    <g fill="none" fill-rule="evenodd">
        <path fill="#E6E6E6" d="M125.823 202H64.647a2 2 0 0 1 0-4h61.176a2 2 0 0 1 0 4M622.647 178.47H88.177a2 2 0 0 1 0-4h534.47a2 2 0 0 1 0 4M674.647 202H136.412a2 2 0 0 1 0-4h538.235a2 2 0 0 1 0 4M314.647 225.53H112.882a2 2 0 0 1 0-4h201.765a2 2 0 0 1 0 4M52.882 202H29.353a2 2 0 0 1 0-4h23.53a2 2 0 0 1 0 4M595.941 143.177h-118.94a2 2 0 0 1 0-4h118.94a2 2 0 0 1 0 4M572.882 119.647H138.176a2 2 0 0 1 0-4h434.706a2 2 0 0 1 0 4M466.412 143.177H287.589a2 2 0 0 1 0-4h178.823a2 2 0 0 1 0 4M635.235 143.177h-23.529a2 2 0 0 1 0-4h23.53a2 2 0 0 1 0 4M575.235 260.823H440.53a2 2 0 0 1 0-4h134.706a2 2 0 0 1 0 4M541.706 284.353H143.471a2 2 0 0 1 0-4h398.235a2 2 0 0 1 0 4M623.353 260.823h-31.647a2 2 0 0 1 0-4h31.647a2 2 0 0 1 0 4M653.941 260.823h-14.118a2 2 0 0 1 0-4h14.118a2 2 0 0 1 0 4M299.712 70.752l9.406 5.43 9.406-5.43V59.89l-9.406-5.43-9.406 5.43v10.862zm9.406 9.739c-.345 0-.691-.089-1-.267l-11.406-6.585a2.001 2.001 0 0 1-1-1.733V58.735a2 2 0 0 1 1-1.732l11.406-6.585a2.001 2.001 0 0 1 2 0l11.406 6.585c.618.357 1 1.018 1 1.732v13.171c0 .715-.382 1.375-1 1.733l-11.406 6.585c-.31.178-.655.267-1 .267zM545.947 227.575l9.406 5.43 9.406-5.43v-10.86l-9.406-5.432-9.406 5.431v10.861zm9.406 9.74c-.345 0-.69-.09-1-.268l-11.406-6.585a2.001 2.001 0 0 1-1-1.733v-13.17a2 2 0 0 1 1-1.732l11.406-6.586a2.001 2.001 0 0 1 2 0l11.406 6.586c.618.357 1 1.018 1 1.732v13.17c0 .715-.382 1.375-1 1.733l-11.406 6.585c-.31.178-.655.267-1 .267zM469.947 344.575l6.231 3.597 6.231-3.597v-7.195l-6.23-3.598-6.232 3.598v7.195zm6.231 7.906c-.345 0-.69-.089-1-.267l-8.23-4.752a2.001 2.001 0 0 1-1-1.733v-9.504a2 2 0 0 1 1-1.732l8.23-4.753a2.001 2.001 0 0 1 2 0l8.231 4.753a2 2 0 0 1 1 1.732v9.504c0 .715-.38 1.375-1 1.733l-8.23 4.752c-.31.178-.656.267-1 .267zM115.535 274.987l6.231 3.597 6.231-3.597v-7.196l-6.23-3.597-6.232 3.597v7.196zm6.231 7.906c-.345 0-.69-.089-1-.267l-8.23-4.752a2.001 2.001 0 0 1-1-1.733v-9.505a2 2 0 0 1 1-1.732l8.23-4.752a2.001 2.001 0 0 1 2 0l8.231 4.752a2 2 0 0 1 1 1.732v9.505c0 .715-.38 1.375-1 1.733l-8.23 4.752a2.004 2.004 0 0 1-1 .267zM259.947 322.693l15.57 8.987 15.568-8.987v-17.979l-15.569-8.988-15.569 8.988v17.98zm15.57 13.297c-.346 0-.692-.089-1-.268l-17.57-10.142a2.001 2.001 0 0 1-1-1.733V303.56c0-.715.381-1.375 1-1.732l17.57-10.144a2.001 2.001 0 0 1 2 0l17.568 10.144a2 2 0 0 1 1 1.732v20.287c0 .715-.382 1.375-1 1.733l-17.569 10.142c-.31.18-.655.268-1 .268z"/>
        <path fill="#E6E6E6" d="M275.516 308.644a5.065 5.065 0 0 0-5.059 5.06 5.064 5.064 0 0 0 5.06 5.058 5.064 5.064 0 0 0 5.058-5.058c0-2.79-2.269-5.06-5.059-5.06m0 14.118c-4.995 0-9.059-4.063-9.059-9.058s4.064-9.06 9.06-9.06c4.994 0 9.058 4.065 9.058 9.06s-4.064 9.058-9.059 9.058M379.947 62.93l9.35 5.398 9.35-5.397V52.133l-9.35-5.397-9.35 5.397V62.93zm9.35 9.708c-.346 0-.69-.09-1-.268l-11.35-6.552a2.001 2.001 0 0 1-1-1.733V50.979c0-.715.381-1.375 1-1.733l11.35-6.552a1.996 1.996 0 0 1 2 0l11.35 6.552c.618.358 1 1.018 1 1.733v13.106c0 .715-.382 1.375-1 1.733l-11.35 6.552c-.31.179-.655.268-1 .268z"/>
        <path fill="#E6E6E6" d="M393.857 59.532h-9.12a2 2 0 0 1 0-4h9.12a2 2 0 0 1 0 4"/>
        <path fill="#E6E6E6" d="M389.297 64.092a2 2 0 0 1-2-2v-9.12a2 2 0 0 1 4 0v9.12a2 2 0 0 1-2 2M236.412 346.117a5.065 5.065 0 0 0-5.06 5.06 5.064 5.064 0 0 0 5.06 5.058 5.064 5.064 0 0 0 5.059-5.058c0-2.79-2.27-5.06-5.06-5.06m0 14.118c-4.994 0-9.058-4.063-9.058-9.058 0-4.996 4.064-9.06 9.059-9.06 4.995 0 9.059 4.064 9.059 9.06 0 4.995-4.064 9.058-9.06 9.058M421.118 37.294a5.065 5.065 0 0 0-5.06 5.059 5.064 5.064 0 0 0 5.06 5.059 5.064 5.064 0 0 0 5.059-5.06 5.065 5.065 0 0 0-5.06-5.058m0 14.118c-4.994 0-9.058-4.064-9.058-9.06 0-4.995 4.064-9.058 9.059-9.058 4.995 0 9.059 4.063 9.059 9.059 0 4.995-4.064 9.059-9.06 9.059M571.706 291.412c-.844 0-1.53.687-1.53 1.53 0 .842.686 1.53 1.53 1.53.843 0 1.53-.688 1.53-1.53 0-.843-.687-1.53-1.53-1.53m0 7.06a5.537 5.537 0 0 1-5.53-5.53 5.536 5.536 0 0 1 5.53-5.53 5.535 5.535 0 0 1 5.53 5.53c0 3.048-2.48 5.53-5.53 5.53M144.059 109.294c-.844 0-1.53.687-1.53 1.529 0 .843.686 1.53 1.53 1.53.843 0 1.529-.687 1.529-1.53 0-.842-.686-1.53-1.53-1.53m0 7.06a5.537 5.537 0 0 1-5.53-5.53 5.536 5.536 0 0 1 5.53-5.53 5.535 5.535 0 0 1 5.53 5.53c0 3.049-2.48 5.53-5.53 5.53M135.647 249.53c-.843 0-1.529.686-1.529 1.528 0 .843.686 1.53 1.529 1.53.844 0 1.53-.687 1.53-1.53 0-.842-.686-1.529-1.53-1.529m0 7.06a5.536 5.536 0 0 1-5.529-5.53 5.535 5.535 0 0 1 5.529-5.53c3.049 0 5.53 2.48 5.53 5.53a5.537 5.537 0 0 1-5.53 5.53M604.647 207.883c-.843 0-1.529.687-1.529 1.529 0 .843.686 1.53 1.529 1.53.843 0 1.529-.687 1.529-1.53 0-.842-.686-1.53-1.529-1.53m0 7.06a5.536 5.536 0 0 1-5.529-5.53 5.535 5.535 0 0 1 5.529-5.53 5.535 5.535 0 0 1 5.529 5.53c0 3.049-2.48 5.53-5.529 5.53M498.176 314.059h-14.118a2 2 0 0 1 0-4h14.118a2 2 0 0 1 0 4"/>
        <path fill="#E6E6E6" d="M491.118 321.117a2 2 0 0 1-2-2V305a2 2 0 0 1 4 0v14.117a2 2 0 0 1-2 2M64.647 216.117H50.529a2 2 0 0 1 0-4h14.118a2 2 0 0 1 0 4"/>
        <path fill="#E6E6E6" d="M57.588 223.177a2 2 0 0 1-2-2v-14.118a2 2 0 0 1 4 0v14.118a2 2 0 0 1-2 2M658.765 223.177h-14.118a2 2 0 0 1 0-4h14.118a2 2 0 0 1 0 4"/>
        <path fill="#E6E6E6" d="M651.706 230.235a2 2 0 0 1-2-2v-14.118a2 2 0 0 1 4 0v14.118a2 2 0 0 1-2 2"/>
        <path fill="#B3B3B3" d="M520.84 269.977h-16.08a2 2 0 0 0-2 2V400h20.08V271.976a2 2 0 0 0-2-2m-321.601 0h-16.08a2 2 0 0 0-2 2V400h20.08V271.976a2 2 0 0 0-2-2"/>
        <path fill="#B3B3B3" d="M183.159 318.074h16.08v-19.296h-16.08z"/>
        <path fill="#B3B3B3" d="M185.159 316.074h12.08v-15.296h-12.08v15.296zm14.08 4h-16.08a2 2 0 0 1-2-2v-19.296a2 2 0 0 1 2-2h16.08a2 2 0 0 1 2 2v19.296a2 2 0 0 1-2 2z"/>
        <path fill="#F48667" d="M484.574 50.974v15.729"/>
        <path fill="#B3B3B3" d="M484.574 68.702a2 2 0 0 1-2-2V50.973a2 2 0 0 1 4 0v15.73a2 2 0 0 1-2 2"/>
        <path fill="#F48667" d="M476.924 50.974v15.729"/>
        <path fill="#B3B3B3" d="M476.924 68.702a2 2 0 0 1-2-2V50.973a2 2 0 0 1 4 0v15.73a2 2 0 0 1-2 2"/>
        <path fill="#CCC" d="M460.081 34.528c0-6.919 5.61-12.528 12.53-12.528 4.205 0 7.92 2.08 10.191 5.26l.098-.039c5.748 7.744 16.643 9.471 24.387 3.723 0 14.484-11.742 26.226-26.226 26.226-11.586 0-20.98-9.394-20.98-20.98l.116-.047a12.451 12.451 0 0 1-.116-1.615"/>
        <path fill="#B3B3B3" d="M462.09 36.788c.317 10.19 8.705 18.382 18.971 18.382 12.115 0 22.182-8.94 23.95-20.57-7.962 3.64-17.675 1.451-23.33-5.683a2.023 2.023 0 0 1-.507-.493A10.552 10.552 0 0 0 472.61 24c-5.806 0-10.529 4.723-10.529 10.528 0 .404.031.835.1 1.36.04.31.005.617-.09.9m18.97 22.382c-12.67 0-22.98-10.309-22.98-22.98 0-.162.02-.32.056-.473-.038-.42-.056-.808-.056-1.189 0-8.01 6.517-14.528 14.53-14.528 4.456 0 8.681 2.073 11.43 5.578.174.121.332.272.465.451 5.102 6.873 14.787 8.357 21.588 3.31a1.999 1.999 0 0 1 3.192 1.605c0 15.564-12.66 28.226-28.225 28.226"/>
        <path fill="#B3B3B3" d="M452.41 34.528l9.625 3.89 3.889-3.89-3.89-3.89z"/>
        <path fill="#B3B3B3" d="M457.747 34.528l3.81 1.54 1.538-1.54-1.539-1.539-3.809 1.54zm4.287 5.89c-.252 0-.507-.048-.749-.146l-9.625-3.89a1.999 1.999 0 0 1 0-3.708l9.625-3.89a2.006 2.006 0 0 1 2.163.44l3.89 3.89a2 2 0 0 1 0 2.828l-3.89 3.89a1.996 1.996 0 0 1-1.414.586zM471.053 30.389a2.205 2.205 0 1 0 4.41 0 2.205 2.205 0 0 0-4.41 0"/>
        <path fill="#E6E6E6" d="M533.935 307.086h-363.87c-6.09 0-11.026-4.937-11.026-11.026V76.91c0-6.09 4.937-11.025 11.027-11.025h363.869c6.09 0 11.026 4.936 11.026 11.026V296.06c0 6.089-4.936 11.026-11.026 11.026"/>
        <path fill="#B3B3B3" d="M170.065 67.885c-4.977 0-9.026 4.049-9.026 9.026V296.06c0 4.977 4.05 9.026 9.026 9.026h363.87c4.976 0 9.026-4.05 9.026-9.026V76.91c0-4.976-4.05-9.025-9.027-9.025H170.065zm363.87 241.2h-363.87c-7.183 0-13.026-5.843-13.026-13.025V76.91c0-7.181 5.843-13.025 13.026-13.025h363.87c7.182 0 13.026 5.844 13.026 13.026V296.06c0 7.182-5.844 13.026-13.027 13.026z"/>
        <path fill="#B3B3B3" d="M177.325 83.965a.206.206 0 0 0-.206.205V288.8c0 .114.093.206.206.206h349.35a.205.205 0 0 0 .206-.205V84.17a.205.205 0 0 0-.205-.205H177.325zm349.35 209.04h-349.35a4.21 4.21 0 0 1-4.206-4.204V84.17a4.21 4.21 0 0 1 4.206-4.205h349.35a4.21 4.21 0 0 1 4.206 4.205V288.8a4.21 4.21 0 0 1-4.205 4.206z"/>
        <path fill="#B3B3B3" d="M193.46 277.74a2.26 2.26 0 1 1-4.52 0 2.26 2.26 0 0 1 4.52 0M193.46 95.231a2.26 2.26 0 1 1-4.52 0 2.26 2.26 0 0 1 4.52 0M515.061 277.74a2.26 2.26 0 1 1-4.52 0 2.26 2.26 0 0 1 4.52 0M515.061 95.231a2.26 2.26 0 1 1-4.52 0 2.26 2.26 0 0 1 4.52 0"/>
        <path fill="#F2F2F2" d="M236.531 151.63c17.083-1.888 32.048 8.506 37.182 23.467a6.424 6.424 0 0 0 6.074 4.35h105.826c-3.943-5.516-6.28-12.255-6.25-19.545.042-10.714-8.973-19.28-19.688-19.28h-3.557a6.424 6.424 0 0 0-6.073 4.352c-5.134 14.96-20.098 25.353-37.182 23.465-16.107-1.781-29.079-14.752-30.858-30.86-2.337-21.161 14.167-39.07 34.855-39.07 15.374 0 28.438 9.892 33.175 23.657.898 2.61 3.325 4.38 6.085 4.38h2.9c18.373 0 34.511 15.018 34.418 33.39-.054 10.749 8.675 19.51 19.411 19.51h11.364a6.425 6.425 0 0 0 6.074-4.35c5.133-14.96 20.098-25.354 37.181-23.465 16.108 1.78 29.08 14.753 30.858 30.86 2.337 21.16-14.167 39.07-34.855 39.07-15.374 0-28.438-9.891-33.174-23.658-.898-2.61-3.326-4.38-6.086-4.38h-11.087c-10.703 0-19.738 8.547-19.687 19.252.088 18.54-14.969 33.65-33.488 33.65h-3.83a6.423 6.423 0 0 0-6.074 4.35c-5.134 14.96-20.099 25.355-37.183 23.465-16.107-1.78-29.078-14.753-30.857-30.86-2.337-21.16 14.168-39.07 34.855-39.07 15.375 0 28.438 9.892 33.175 23.659.898 2.609 3.325 4.38 6.085 4.38h3.555c10.714 0 19.73-8.566 19.687-19.28-.029-7.29 2.308-14.03 6.251-19.545H279.788c-2.759 0-5.187 1.77-6.085 4.379-4.737 13.767-17.8 23.659-33.175 23.659-20.687 0-37.192-17.91-34.854-39.071 1.778-16.107 14.75-29.08 30.857-30.86"/>
        <path fill="#B3B3B3" d="M316.86 206.31a33.125 33.125 0 0 0-24.646 11.018c-6.357 7.097-9.277 16.272-8.22 25.833 1.675 15.178 13.91 27.415 29.088 29.09 15.584 1.736 30.01-7.374 35.071-22.126a8.429 8.429 0 0 1 7.965-5.7h3.831c8.425 0 16.347-3.299 22.307-9.288 5.96-5.988 9.221-13.927 9.181-22.353-.026-5.546 2.151-10.803 6.131-14.8 4.085-4.107 9.755-6.46 15.556-6.46h11.087c3.592 0 6.797 2.302 7.977 5.728 4.591 13.344 17.163 22.31 31.283 22.31a33.13 33.13 0 0 0 24.647-11.019c6.357-7.097 9.276-16.272 8.22-25.833-1.676-15.178-13.91-27.414-29.089-29.09-15.593-1.732-30.009 7.374-35.07 22.126a8.429 8.429 0 0 1-7.966 5.701H412.85c-5.73 0-11.119-2.243-15.172-6.317-4.052-4.073-6.268-9.472-6.239-15.205.04-7.973-3.189-15.632-9.093-21.566-6.205-6.237-14.707-9.814-23.325-9.814h-2.9c-3.592 0-6.798-2.302-7.976-5.729-4.592-13.343-17.164-22.308-31.284-22.308a33.128 33.128 0 0 0-24.647 11.018c-6.357 7.097-9.276 16.271-8.22 25.833 1.677 15.18 13.91 27.413 29.09 29.091 15.586 1.732 30.008-7.375 35.07-22.126a8.43 8.43 0 0 1 7.965-5.702h3.557c5.791 0 11.454 2.35 15.535 6.448 3.99 4.005 6.174 9.275 6.151 14.84-.025 6.603 2.007 12.957 5.88 18.374a1.999 1.999 0 0 1-1.628 3.163H279.787a8.43 8.43 0 0 1-7.966-5.7c-5.062-14.753-19.486-23.853-35.07-22.128-15.18 1.677-27.413 13.913-29.09 29.091-1.056 9.561 1.864 18.736 8.22 25.833a33.13 33.13 0 0 0 24.647 11.018c14.121 0 26.692-8.965 31.284-22.309 1.18-3.426 4.384-5.729 7.976-5.729h105.825a2 2 0 0 1 1.627 3.163c-3.872 5.417-5.904 11.77-5.879 18.374.022 5.564-2.162 10.835-6.15 14.84-4.083 4.097-9.746 6.448-15.537 6.448h-3.554c-3.592 0-6.797-2.303-7.976-5.729-4.592-13.344-17.163-22.309-31.284-22.309m.004 70.151a38.59 38.59 0 0 1-4.222-.233c-17.024-1.882-30.745-15.605-32.625-32.629-1.182-10.706 2.091-20.983 9.217-28.94a37.132 37.132 0 0 1 27.626-12.349c15.828 0 29.92 10.05 35.066 25.008.624 1.813 2.31 3.03 4.194 3.03h3.554c4.736 0 9.365-1.92 12.702-5.27 3.233-3.246 5.004-7.508 4.985-12.001a35.1 35.1 0 0 1 4.602-17.553H279.788c-1.885 0-3.57 1.218-4.194 3.03-5.147 14.958-19.239 25.007-35.066 25.007a37.133 37.133 0 0 1-27.626-12.349c-7.126-7.956-10.399-18.233-9.216-28.94 1.88-17.024 15.601-30.746 32.625-32.63 17.461-1.93 33.62 8.27 39.293 24.805a4.43 4.43 0 0 0 4.183 3h102.176a35.108 35.108 0 0 1-4.602-17.554c.02-4.493-1.752-8.755-4.985-12-3.336-3.35-7.966-5.27-12.7-5.27h-3.558a4.43 4.43 0 0 0-4.182 3c-5.673 16.536-21.833 26.726-39.293 24.804-17.024-1.882-30.745-15.603-32.626-32.628-1.182-10.708 2.091-20.986 9.216-28.942a37.136 37.136 0 0 1 27.627-12.349c15.827 0 29.918 10.05 35.066 25.007.623 1.813 2.31 3.03 4.194 3.03h2.9c9.675 0 19.21 4.007 26.161 10.993 6.66 6.694 10.303 15.362 10.257 24.407a17.288 17.288 0 0 0 5.074 12.365c3.297 3.314 7.678 5.137 12.337 5.137h11.364a4.429 4.429 0 0 0 4.182-3c5.673-16.534 21.833-26.734 39.293-24.804 17.025 1.882 30.746 15.605 32.626 32.629 1.182 10.707-2.09 20.984-9.217 28.94a37.133 37.133 0 0 1-27.626 12.35c-15.827 0-29.919-10.05-35.066-25.008-.624-1.813-2.309-3.03-4.194-3.03h-11.087a18.07 18.07 0 0 0-12.722 5.28c-3.223 3.238-4.986 7.487-4.965 11.96.045 9.5-3.629 18.447-10.346 25.195-6.716 6.749-15.646 10.465-25.142 10.465h-3.83a4.429 4.429 0 0 0-4.183 3c-5.213 15.192-19.279 25.037-35.072 25.037"/>
        <path fill="#B3B3B3" d="M316.86 262.702l20.192-11.658v-23.316L316.86 216.07l-20.192 11.658v23.316z"/>
        <path fill="#B3B3B3" d="M298.668 249.89l18.192 10.503 18.193-10.503v-21.007L316.86 218.38l-18.192 10.503v21.007zm18.192 14.813c-.345 0-.69-.09-1-.268l-20.192-11.658a2.001 2.001 0 0 1-1-1.733v-23.315c0-.715.381-1.375 1-1.733l20.192-11.658a2.001 2.001 0 0 1 2 0l20.193 11.658c.618.358 1 1.018 1 1.733v23.315c0 .715-.382 1.375-1 1.733l-20.193 11.658a1.992 1.992 0 0 1-1 .268zM463.472 209.802l20.192-11.658v-23.317l-20.192-11.658-20.192 11.658v23.317z"/>
        <path fill="#B3B3B3" d="M445.28 196.99l18.191 10.502 18.193-10.503v-21.008l-18.193-10.503-18.192 10.503v21.008zm18.191 14.812c-.345 0-.69-.089-1-.268l-20.192-11.658a2.001 2.001 0 0 1-1-1.733v-23.316c0-.715.381-1.375 1-1.733l20.192-11.658a2.001 2.001 0 0 1 2 0l20.193 11.658c.618.358 1 1.018 1 1.733v23.316c0 .715-.382 1.375-1 1.733l-20.193 11.658a1.992 1.992 0 0 1-1 .268zM240.528 209.802l20.192-11.658v-23.317l-20.192-11.658-20.192 11.658v23.317z"/>
        <path fill="#B3B3B3" d="M222.336 196.99l18.192 10.502 18.193-10.503v-21.008l-18.193-10.503-18.192 10.503v21.008zm18.192 14.812c-.345 0-.69-.089-1-.268l-20.192-11.658a2.001 2.001 0 0 1-1-1.733v-23.316c0-.715.38-1.375 1-1.733l20.192-11.658a2.001 2.001 0 0 1 2 0l20.193 11.658c.618.358 1 1.018 1 1.733v23.316c0 .715-.382 1.375-1 1.733l-20.193 11.658a1.992 1.992 0 0 1-1 .268zM316.86 156.9l20.192-11.658v-23.316l-20.192-11.658-20.192 11.658v23.316z"/>
        <path fill="#B3B3B3" d="M298.668 144.088l18.192 10.503 18.193-10.503V123.08l-18.193-10.503-18.192 10.503v21.007zM316.86 158.9c-.345 0-.69-.09-1-.268l-20.192-11.658a2.001 2.001 0 0 1-1-1.733v-23.315c0-.715.381-1.375 1-1.733l20.192-11.658a2.001 2.001 0 0 1 2 0l20.193 11.658c.618.358 1 1.018 1 1.733v23.315c0 .715-.382 1.375-1 1.733l-20.193 11.658a1.992 1.992 0 0 1-1 .268z"/>
        <path fill="#F2F2F2" d="M240.528 180.767a5.725 5.725 0 0 0-5.718 5.719 5.725 5.725 0 0 0 5.718 5.719 5.725 5.725 0 0 0 5.718-5.72 5.725 5.725 0 0 0-5.718-5.718m0 15.438c-5.359 0-9.718-4.36-9.718-9.72s4.36-9.718 9.718-9.718c5.36 0 9.718 4.359 9.718 9.719 0 5.359-4.359 9.719-9.718 9.719M323.476 135.584h-13.232a2 2 0 0 1 0-4h13.232a2 2 0 0 1 0 4"/>
        <path fill="#F2F2F2" d="M316.86 142.2a2 2 0 0 1-2-2v-13.23a2 2 0 0 1 4 0v13.23a2 2 0 0 1-2 2M323.476 235.873h-13.232a2 2 0 0 1 0-4h13.232a2 2 0 0 1 0 4M323.476 246.9h-13.232a2 2 0 0 1 0-4h13.232a2 2 0 0 1 0 4M463.472 175.82l-3.465 7.021-7.75 1.126 5.608 5.466-1.324 7.717 6.93-3.643 6.932 3.643-1.324-7.717 5.607-5.466-7.75-1.126z"/>
        <path fill="#CCC" d="M417.66 232.85a8.577 8.577 0 1 0 17.153-.001 8.577 8.577 0 0 0-17.153 0M476.62 135.833a8.576 8.576 0 1 0 17.153 0 8.576 8.576 0 1 0-17.152 0M491.093 232.314a8.576 8.576 0 1 0 17.152 0 8.576 8.576 0 1 0-17.152 0M213.443 240.89a8.577 8.577 0 1 0 17.153-.001 8.577 8.577 0 0 0-17.153 0M429.988 137.978a8.577 8.577 0 1 0 17.153-.002 8.577 8.577 0 0 0-17.153.002M350.66 210.873a8.575 8.575 0 0 0 8.576 8.576 8.575 8.575 0 0 0 8.576-8.576 8.575 8.575 0 0 0-8.576-8.575 8.575 8.575 0 0 0-8.576 8.575M398.9 136.905a8.576 8.576 0 1 0 17.152 0 8.576 8.576 0 1 0-17.152 0M401.653 258.578c0 5.584 4.527 10.11 10.111 10.11 5.584 0 10.111-4.526 10.111-10.11s-4.527-10.11-10.11-10.11c-5.585 0-10.112 4.526-10.112 10.11M242.46 244.642c0 5.584 4.528 10.11 10.112 10.11 5.584 0 10.11-4.526 10.11-10.11s-4.526-10.11-10.11-10.11-10.111 4.526-10.111 10.11M374.439 257.847a5.7 5.7 0 1 0 11.402 0 5.701 5.701 0 0 0-11.402 0M254.91 267.495a5.702 5.702 0 1 0 11.404-.002 5.702 5.702 0 0 0-11.404.002M450.015 116.878a5.702 5.702 0 1 0 11.404 0 5.702 5.702 0 0 0-11.404 0M352.998 163.169a5.702 5.702 0 1 0 11.405 0 5.702 5.702 0 0 0-11.405 0M404.99 214.626a5.702 5.702 0 1 0 11.405-.002 5.702 5.702 0 0 0-11.404.002M407.135 158.88a5.702 5.702 0 1 0 11.404 0 5.702 5.702 0 0 0-11.404 0"/>
        <path fill="#B3B3B3" d="M244.743 110.491l.917-3.939.9 3.94h-1.817zm5.437 2.814c0-.143-.017-.288-.065-.417l-2.155-7.447a2.424 2.424 0 0 0-2.3-1.705 2.427 2.427 0 0 0-2.316 1.705l-2.156 7.447a1.764 1.764 0 0 0-.064.417c0 .822.66 1.481 1.464 1.481.708 0 1.303-.498 1.43-1.157l.13-.547h3.008l.128.562c.146.644.74 1.142 1.432 1.142.82 0 1.464-.675 1.464-1.48zm4.277 7.654c.707 0 1.286-.578 1.286-1.303a1.29 1.29 0 0 0-1.286-1.287h-4.021c-1.046 0-1.61.563-1.61 1.608v7.496c0 1.045.564 1.625 1.61 1.625h4.02c.708 0 1.287-.58 1.287-1.303a1.29 1.29 0 0 0-1.286-1.287h-2.59v-1.545h2.478a1.294 1.294 0 0 0 0-2.588h-2.478v-1.416h2.59zm-10.934 2.042h-1.207v-2.042h1.207c.546 0 .997.37.997 1.012 0 .645-.451 1.03-.997 1.03zm4.085-1.062c0-1.977-1.383-3.57-3.603-3.57h-3.12c-1.046 0-1.61.563-1.61 1.608v7.738c0 .836.676 1.544 1.529 1.544.837 0 1.512-.708 1.512-1.544v-2.124h.804l1.625 2.847c.24.466.756.821 1.319.821.868 0 1.576-.708 1.528-1.577a1.17 1.17 0 0 0-.225-.723l-1.191-1.996c.676-.45 1.432-1.367 1.432-3.024zm7.78-13.41h-1.206v-2.043h1.207c.546 0 .998.37.998 1.014 0 .643-.452 1.03-.998 1.03zm4.086-1.06c0-1.98-1.383-3.572-3.603-3.572h-3.12c-1.046 0-1.61.563-1.61 1.61v7.735c0 .837.677 1.544 1.529 1.544.837 0 1.512-.707 1.512-1.544v-2.123h.805l1.625 2.847c.24.466.756.82 1.319.82.867 0 1.576-.707 1.527-1.576 0-.257-.064-.515-.225-.724l-1.191-1.995c.677-.45 1.432-1.366 1.432-3.023zm6.849 4.566h-2.59v-1.544h2.478a1.294 1.294 0 0 0 0-2.589h-2.478v-1.416h2.59c.708 0 1.287-.578 1.287-1.303a1.29 1.29 0 0 0-1.287-1.286h-4.021c-1.045 0-1.608.563-1.608 1.61V113c0 1.046.563 1.625 1.608 1.625h4.02c.709 0 1.288-.579 1.288-1.303a1.29 1.29 0 0 0-1.287-1.288zm-45.956-2.765c0-1.674.626-2.864 1.785-2.864 1.157 0 1.8 1.19 1.8 2.864 0 1.657-.643 2.862-1.8 2.862-1.16 0-1.785-1.205-1.785-2.862zm6.675 0c0-3.282-1.9-5.55-4.89-5.55-2.992 0-4.89 2.268-4.89 5.55 0 3.265 1.898 5.55 4.89 5.55 2.99 0 4.89-2.285 4.89-5.55zm9.807 11.69c.707 0 1.287-.579 1.287-1.304 0-.708-.58-1.287-1.287-1.287h-4.021c-1.045 0-1.608.563-1.608 1.608v7.496c0 1.045.563 1.625 1.608 1.625h4.02a1.295 1.295 0 0 0 0-2.59h-2.588v-1.545h2.477c.708 0 1.287-.578 1.287-1.303a1.29 1.29 0 0 0-1.287-1.285h-2.477v-1.416h2.589zm-21.08-17.224c-.531 0-1.03.305-1.271.82l-1.625 3.17-1.592-3.17a1.41 1.41 0 0 0-1.287-.82c-.788 0-1.447.644-1.447 1.464 0 .273.064.53.257.804l2.558 4.391v2.847c0 .837.69 1.544 1.527 1.544s1.528-.707 1.528-1.544v-2.847l2.558-4.39c.192-.275.257-.532.257-.805 0-.82-.66-1.464-1.463-1.464zm16.723 11.083c2.686 0 4.375-1.528 4.375-4.134v-5.405c0-.836-.692-1.544-1.53-1.544-.851 0-1.543.708-1.543 1.544v5.438c0 .883-.42 1.43-1.302 1.43-.917 0-1.32-.547-1.32-1.43v-5.438c0-.836-.691-1.544-1.528-1.544-.853 0-1.544.708-1.544 1.544v5.421c0 2.59 1.688 4.118 4.392 4.118zm-4.341 3.39c-.837 0-1.512.691-1.512 1.527v2.51h-2.703v-2.51c0-.82-.675-1.527-1.512-1.527-.852 0-1.528.707-1.528 1.527v7.98c0 .835.676 1.543 1.528 1.543.837 0 1.512-.708 1.512-1.544V124.9h2.703v2.831c0 .821.675 1.53 1.512 1.53.853 0 1.528-.709 1.528-1.53v-7.994c0-.836-.675-1.527-1.528-1.527zM244.615 135.03h-11.391l1.455 9.416h-7.553l11.794 11.794 11.793-11.794h-7.553z"/>
        <path fill="#B3B3B3" d="M231.954 146.446l6.965 6.966 6.966-6.966h-2.725a2.001 2.001 0 0 1-1.977-2.306l1.1-7.11h-6.726l1.1 7.11a2.003 2.003 0 0 1-1.978 2.306h-2.725zm6.965 11.794a2 2 0 0 1-1.414-.586l-11.794-11.794a2 2 0 0 1 1.414-3.414h5.221l-1.099-7.11a2.003 2.003 0 0 1 1.977-2.307h11.391a2 2 0 0 1 1.976 2.306l-1.098 7.111h5.22a1.998 1.998 0 0 1 1.414 3.414l-11.794 11.794a1.999 1.999 0 0 1-1.414.586zM480.35 253.477h-2.14v-6.708c0-.82-.674-1.527-1.527-1.527-.837 0-1.512.708-1.512 1.527v7.737c0 1.045.563 1.625 1.609 1.625h3.57c.724 0 1.335-.595 1.335-1.336 0-.74-.611-1.318-1.335-1.318zm-20.293.16c-1.16 0-1.785-1.206-1.785-2.862 0-1.673.626-2.863 1.785-2.863 1.158 0 1.8 1.19 1.8 2.863 0 1.656-.642 2.863-1.8 2.863zm0-8.412c-2.991 0-4.89 2.269-4.89 5.55 0 3.264 1.899 5.549 4.89 5.549 2.99 0 4.89-2.285 4.89-5.55 0-3.28-1.9-5.55-4.89-5.55zm8.714 6.773l.918-3.942.9 3.942h-1.818zm3.218-5.051a2.423 2.423 0 0 0-2.3-1.705 2.426 2.426 0 0 0-2.316 1.705l-2.156 7.447a1.7 1.7 0 0 0-.065.418c0 .82.66 1.479 1.465 1.479.707 0 1.303-.5 1.43-1.157l.129-.548h3.008l.129.564c.145.642.74 1.14 1.432 1.14.82 0 1.463-.674 1.463-1.478 0-.145-.016-.29-.065-.418l-2.154-7.447zm-19.071 2.894h-1.77c-.707 0-1.302.644-1.302 1.367 0 .708.595 1.304 1.303 1.304h.338v.724c-.241.24-.612.402-1.174.402-1.094 0-1.866-.885-1.866-2.863 0-1.994.772-2.863 1.818-2.863.45 0 .788.209 1.062.53.225.306.61.515 1.029.515.756 0 1.35-.611 1.35-1.351 0-.338-.144-.643-.353-.853-.692-.917-1.69-1.528-3.088-1.528-2.96 0-4.922 2.172-4.922 5.55 0 3.346 1.945 5.549 4.922 5.549 1.319 0 2.364-.402 3.232-1.078.66-.515.853-1.125.853-1.946v-1.994c0-.853-.58-1.465-1.432-1.465zM469.168 238.248h-11.392l1.455-9.417h-7.553l11.793-11.794 11.794 11.794h-7.553z"/>
        <path fill="#B3B3B3" d="M460.109 236.248h6.726l-1.1-7.111a2.003 2.003 0 0 1 1.977-2.306h2.725l-6.965-6.966-6.966 6.966h2.726a2 2 0 0 1 1.976 2.306l-1.1 7.111zm9.059 4h-11.392a2.001 2.001 0 0 1-1.977-2.306l1.1-7.111h-5.221a2 2 0 0 1-1.414-3.414l11.794-11.794c.75-.75 2.078-.75 2.828 0l11.793 11.794a2 2 0 0 1-1.414 3.414h-5.22l1.099 7.111a2 2 0 0 1-1.976 2.306z"/>
    </g>
</svg>
