<svg width="704" height="244" viewBox="0 0 704 244" fill="none" xmlns="http://www.w3.org/2000/svg">
<g clip-path="url(#clip0)">
<path d="M125.798 129.2H64.5977C63.4977 129.2 62.5977 128.3 62.5977 127.2C62.5977 126.1 63.4977 125.2 64.5977 125.2H125.798C126.898 125.2 127.798 126.1 127.798 127.2C127.798 128.3 126.898 129.2 125.798 129.2Z" fill="#E6E6E6"/>
<path d="M622.599 105.6H88.1992C87.0992 105.6 86.1992 104.7 86.1992 103.6C86.1992 102.5 87.0992 101.6 88.1992 101.6H622.699C623.799 101.6 624.699 102.5 624.699 103.6C624.699 104.7 623.799 105.6 622.599 105.6Z" fill="#E6E6E6"/>
<path d="M674.598 129.2H136.398C135.298 129.2 134.398 128.3 134.398 127.2C134.398 126.1 135.298 125.2 136.398 125.2H674.598C675.698 125.2 676.598 126.1 676.598 127.2C676.598 128.3 675.798 129.2 674.598 129.2Z" fill="#E6E6E6"/>
<path d="M314.598 152.7H112.898C111.798 152.7 110.898 151.8 110.898 150.7C110.898 149.6 111.798 148.7 112.898 148.7H314.698C315.798 148.7 316.698 149.6 316.698 150.7C316.698 151.8 315.798 152.7 314.598 152.7Z" fill="#E6E6E6"/>
<path d="M52.8984 129.2H29.3984C28.2984 129.2 27.3984 128.3 27.3984 127.2C27.3984 126.1 28.2984 125.2 29.3984 125.2H52.8984C53.9984 125.2 54.8984 126.1 54.8984 127.2C54.8984 128.3 53.9984 129.2 52.8984 129.2Z" fill="#E6E6E6"/>
<path d="M595.9 70.4001H477C475.9 70.4001 475 69.5001 475 68.4001C475 67.3001 475.9 66.4001 477 66.4001H595.9C597 66.4001 597.9 67.3001 597.9 68.4001C597.9 69.5001 597 70.4001 595.9 70.4001Z" fill="#E6E6E6"/>
<path d="M572.899 46.8H138.199C137.099 46.8 136.199 45.9 136.199 44.8C136.199 43.7 137.099 42.8 138.199 42.8H572.899C573.999 42.8 574.899 43.7 574.899 44.8C574.899 45.9 573.999 46.8 572.899 46.8Z" fill="#E6E6E6"/>
<path d="M466.398 70.4001H287.598C286.498 70.4001 285.598 69.5001 285.598 68.4001C285.598 67.3001 286.498 66.4001 287.598 66.4001H466.398C467.498 66.4001 468.398 67.3001 468.398 68.4001C468.398 69.5001 467.498 70.4001 466.398 70.4001Z" fill="#E6E6E6"/>
<path d="M635.199 70.4001H611.699C610.599 70.4001 609.699 69.5001 609.699 68.4001C609.699 67.3001 610.599 66.4001 611.699 66.4001H635.199C636.299 66.4001 637.199 67.3001 637.199 68.4001C637.199 69.5001 636.299 70.4001 635.199 70.4001Z" fill="#E6E6E6"/>
<path d="M575.2 188H440.5C439.4 188 438.5 187.1 438.5 186C438.5 184.9 439.4 184 440.5 184H575.2C576.3 184 577.2 184.9 577.2 186C577.2 187.1 576.3 188 575.2 188Z" fill="#E6E6E6"/>
<path d="M413 211.5H143.5C142.4 211.5 141.5 210.6 141.5 209.5C141.5 208.4 142.4 207.5 143.5 207.5H413C414.1 207.5 415 208.4 415 209.5C415 210.6 414.1 211.5 413 211.5Z" fill="#E6E6E6"/>
<path d="M623.401 188H591.801C590.701 188 589.801 187.1 589.801 186C589.801 184.9 590.701 184 591.801 184H623.401C624.501 184 625.401 184.9 625.401 186C625.401 187.1 624.501 188 623.401 188Z" fill="#E6E6E6"/>
<path d="M653.901 188H639.801C638.701 188 637.801 187.1 637.801 186C637.801 184.9 638.701 184 639.801 184H653.901C655.001 184 655.901 184.9 655.901 186C655.901 187.1 655.001 188 653.901 188Z" fill="#E6E6E6"/>
<path d="M555.4 164.5C555.1 164.5 554.7 164.4 554.4 164.2L543 157.6C542.4 157.2 542 156.6 542 155.9V142.7C542 142 542.4 141.3 543 141L554.4 134.4C555 134 555.8 134 556.4 134.4L567.8 141C568.4 141.4 568.8 142 568.8 142.7V155.9C568.8 156.6 568.4 157.3 567.8 157.6L556.4 164.2C556 164.4 555.7 164.5 555.4 164.5ZM545.9 154.8L555.3 160.2L564.7 154.8V143.9L555.3 138.5L545.9 143.9V154.8Z" fill="#E6E6E6"/>
<path d="M121.798 210.1C121.498 210.1 121.098 210 120.798 209.8L112.598 205C111.998 204.6 111.598 204 111.598 203.3V193.8C111.598 193.1 111.998 192.4 112.598 192.1L120.798 187.3C121.398 186.9 122.198 186.9 122.798 187.3L130.998 192.1C131.598 192.5 131.998 193.1 131.998 193.8V203.3C131.998 204 131.598 204.7 130.998 205L122.798 209.8C122.498 210 122.098 210.1 121.798 210.1ZM115.498 202.2L121.698 205.8L127.898 202.2V195L121.698 191.4L115.498 195V202.2Z" fill="#E6E6E6"/>
<path d="M164.098 39.5C161.098 39.5 158.598 37 158.598 34C158.598 31 161.098 28.5 164.098 28.5C167.098 28.5 169.598 31 169.598 34C169.598 37 167.098 39.5 164.098 39.5ZM164.098 32.5C163.298 32.5 162.598 33.2 162.598 34C162.598 34.8 163.298 35.5 164.098 35.5C164.898 35.5 165.598 34.8 165.598 34C165.598 33.2 164.898 32.5 164.098 32.5Z" fill="#E6E6E6"/>
<path d="M135.598 183.8C132.598 183.8 130.098 181.3 130.098 178.3C130.098 175.3 132.598 172.8 135.598 172.8C138.598 172.8 141.098 175.3 141.098 178.3C141.098 181.3 138.698 183.8 135.598 183.8ZM135.598 176.7C134.798 176.7 134.098 177.4 134.098 178.2C134.098 179 134.798 179.7 135.598 179.7C136.398 179.7 137.098 179 137.098 178.2C137.098 177.4 136.498 176.7 135.598 176.7Z" fill="#E6E6E6"/>
<path d="M604.598 142.1C601.598 142.1 599.098 139.6 599.098 136.6C599.098 133.6 601.598 131.1 604.598 131.1C607.598 131.1 610.098 133.6 610.098 136.6C610.198 139.6 607.698 142.1 604.598 142.1ZM604.598 135.1C603.798 135.1 603.098 135.8 603.098 136.6C603.098 137.4 603.798 138.1 604.598 138.1C605.398 138.1 606.098 137.4 606.098 136.6C606.198 135.7 605.498 135.1 604.598 135.1Z" fill="#E6E6E6"/>
<path d="M64.6 143.3H50.5C49.4 143.3 48.5 142.4 48.5 141.3C48.5 140.2 49.4 139.3 50.5 139.3H64.6C65.7 139.3 66.6 140.2 66.6 141.3C66.6 142.4 65.8 143.3 64.6 143.3Z" fill="#E6E6E6"/>
<path d="M57.6016 150.4C56.5016 150.4 55.6016 149.5 55.6016 148.4V134.3C55.6016 133.2 56.5016 132.3 57.6016 132.3C58.7016 132.3 59.6016 133.2 59.6016 134.3V148.4C59.6016 149.5 58.7016 150.4 57.6016 150.4Z" fill="#E6E6E6"/>
<path d="M658.799 150.4H644.699C643.599 150.4 642.699 149.5 642.699 148.4C642.699 147.3 643.599 146.4 644.699 146.4H658.799C659.899 146.4 660.799 147.3 660.799 148.4C660.799 149.5 659.899 150.4 658.799 150.4Z" fill="#E6E6E6"/>
<path d="M651.699 157.4C650.599 157.4 649.699 156.5 649.699 155.4V141.3C649.699 140.2 650.599 139.3 651.699 139.3C652.799 139.3 653.699 140.2 653.699 141.3V155.4C653.699 156.5 652.799 157.4 651.699 157.4Z" fill="#E6E6E6"/>
<path d="M704.002 154.1C653.602 189.2 583.602 184.3 538.602 139.3C531.702 132.5 520.602 132.5 513.702 139.3C510.402 142.6 508.602 147 508.602 151.7C508.602 156.4 510.402 160.8 513.702 164.1C544.702 195.1 586.002 212.2 630.002 212.2C656.102 212.2 681.202 206.2 703.902 194.8V154.1H704.002Z" fill="#B3B3B3"/>
<path d="M327.201 21.7002H414.101L396.601 222.3H309.701H222.801L240.301 21.7002H327.201Z" fill="#C5C6D6"/>
<path d="M398.402 224.3H220.602L238.502 19.6001H416.302L398.402 224.3ZM225.002 220.3H394.802L412.002 23.6001H242.202L225.002 220.3Z" fill="#B3B3B3"/>
<path d="M327.201 21.7002H414.101L396.601 222.3H309.701H222.801L240.301 21.7002H327.201Z" fill="#CCCCCC"/>
<path d="M398.402 224.3H220.602L238.502 19.6001H416.302L398.402 224.3ZM225.002 220.3H394.802L412.002 23.6001H242.202L225.002 220.3Z" fill="#B3B3B3"/>
<path d="M344.298 21.7002H327.198H257.398L239.898 222.3H309.698H326.798H396.598L414.098 21.7002H344.298Z" fill="#B3B3B3"/>
<path d="M398.399 224.3H237.699L255.599 19.6001H416.299L398.399 224.3ZM242.099 220.3H394.799L411.999 23.6001H259.299L242.099 220.3Z" fill="#B3B3B3"/>
<path d="M328.498 21.7H241.598L259.098 222.3H345.998H432.898L415.398 21.7H328.498Z" fill="#E6E6E6"/>
<path d="M435.098 224.3H257.298L239.398 19.7H417.198L435.098 224.3ZM260.998 220.3H430.798L413.498 23.7H243.798L260.998 220.3Z" fill="#B3B3B3"/>
<path d="M260.199 38.8L274.699 205.2H414.299L399.799 38.8H260.199Z" fill="white"/>
<path d="M333.7 85.1001C331.6 85.1001 329.8 83.5001 329.6 81.4001L329 74.6001C328.8 72.4001 330.5 70.4001 332.7 70.2001C334.9 70.0001 336.9 71.7001 337.1 73.9001L337.7 80.7001C337.9 82.9001 336.2 84.9001 334 85.1001C333.9 85.1001 333.8 85.1001 333.7 85.1001Z" fill="#CCCCCC"/>
<path d="M334.901 98.6999C334.601 98.6999 334.401 98.6999 334.101 98.5999C333.801 98.4999 333.601 98.4999 333.301 98.3999C333.101 98.2999 332.801 98.1999 332.601 97.9999C332.401 97.7999 332.201 97.6999 332.001 97.4999C331.801 97.2999 331.601 97.0999 331.501 96.8999C331.401 96.6999 331.201 96.3999 331.101 96.1999C331.001 95.9999 330.901 95.6999 330.901 95.3999C330.801 95.0999 330.801 94.8999 330.801 94.5999C330.801 94.2999 330.801 94.0999 330.901 93.7999C330.901 93.4999 331.001 93.2999 331.101 92.9999C331.201 92.7999 331.301 92.4999 331.501 92.2999C331.701 92.0999 331.801 91.8999 332.001 91.6999C332.201 91.4999 332.401 91.2999 332.601 91.1999C332.801 91.0999 333.101 90.8999 333.301 90.7999C333.501 90.6999 333.801 90.5999 334.101 90.5999C334.601 90.4999 335.201 90.4999 335.701 90.5999C336.001 90.5999 336.201 90.6999 336.501 90.7999C336.701 90.8999 337.001 90.9999 337.201 91.1999C337.401 91.3999 337.601 91.4999 337.801 91.6999C338.001 91.8999 338.201 92.0999 338.301 92.2999C338.401 92.4999 338.601 92.7999 338.701 92.9999C338.801 93.1999 338.901 93.4999 338.901 93.7999C338.901 94.0999 339.001 94.2999 339.001 94.5999C339.001 94.8999 339.001 95.0999 338.901 95.3999C338.801 95.6999 338.801 95.8999 338.701 96.1999C338.601 96.3999 338.501 96.6999 338.301 96.8999C338.201 97.0999 338.001 97.2999 337.801 97.4999C337.601 97.6999 337.401 97.8999 337.201 97.9999C337.001 98.0999 336.701 98.2999 336.501 98.3999C336.301 98.4999 336.001 98.5999 335.701 98.5999C335.401 98.6999 335.101 98.6999 334.901 98.6999Z" fill="#CCCCCC"/>
<path d="M336.1 112.4C335.8 112.4 335.6 112.4 335.3 112.3C335 112.2 334.8 112.2 334.5 112.1C334.3 112 334 111.9 333.8 111.7C333.6 111.5 333.4 111.4 333.2 111.2C333 111 332.8 110.8 332.7 110.6C332.6 110.4 332.4 110.1 332.3 109.9C332.2 109.7 332.1 109.4 332.1 109.1C332 108.8 332 108.6 332 108.3C332 107.2 332.4 106.2 333.2 105.4C333.4 105.2 333.6 105 333.8 104.9C334 104.8 334.3 104.6 334.5 104.5C334.7 104.4 335 104.3 335.3 104.3C336.6 104 338 104.5 339 105.4C339.2 105.6 339.4 105.8 339.5 106C339.6 106.2 339.8 106.5 339.9 106.7C340 106.9 340.1 107.2 340.1 107.5C340.2 107.8 340.2 108 340.2 108.3C340.2 108.6 340.2 108.8 340.1 109.1C340.1 109.4 340 109.6 339.9 109.9C339.8 110.1 339.7 110.4 339.5 110.6C339.4 110.8 339.2 111 339 111.2C338.8 111.4 338.6 111.6 338.4 111.7C338.2 111.8 337.9 112 337.7 112.1C337.5 112.2 337.2 112.3 336.9 112.3C336.6 112.4 336.3 112.4 336.1 112.4Z" fill="#CCCCCC"/>
<path d="M340.202 160.3C339.102 160.3 338.102 159.9 337.302 159.1C337.102 158.9 336.902 158.7 336.802 158.5C336.702 158.3 336.502 158 336.402 157.8C336.302 157.6 336.202 157.3 336.202 157C336.102 156.7 336.102 156.5 336.102 156.2C336.102 155.9 336.102 155.7 336.202 155.4C336.202 155.1 336.302 154.9 336.402 154.6C336.502 154.4 336.602 154.1 336.802 153.9C336.902 153.7 337.102 153.5 337.302 153.3C337.502 153.1 337.702 152.9 337.902 152.8C338.102 152.7 338.402 152.5 338.602 152.4C338.802 152.3 339.102 152.2 339.402 152.2C340.702 151.9 342.102 152.4 343.102 153.3C343.302 153.5 343.502 153.7 343.602 153.9C343.702 154.1 343.902 154.4 344.002 154.6C344.102 154.8 344.202 155.1 344.202 155.4C344.302 155.7 344.302 155.9 344.302 156.2C344.302 157.3 343.902 158.3 343.102 159.1C342.402 159.8 341.302 160.3 340.202 160.3Z" fill="#CCCCCC"/>
<path d="M341.401 173.9C341.101 173.9 340.901 173.9 340.601 173.8C340.301 173.7 340.101 173.7 339.801 173.6C339.601 173.5 339.301 173.4 339.101 173.2C338.901 173.1 338.701 172.9 338.501 172.7C338.301 172.5 338.101 172.3 338.001 172.1C337.901 171.9 337.701 171.6 337.601 171.4C337.501 171.2 337.401 170.9 337.401 170.6C337.301 170.3 337.301 170.1 337.301 169.8C337.301 169.5 337.301 169.3 337.401 169C337.501 168.7 337.501 168.5 337.601 168.2C337.701 168 337.801 167.7 338.001 167.5C338.101 167.3 338.301 167.1 338.501 166.9C339.401 165.9 340.801 165.5 342.201 165.8C342.501 165.9 342.701 165.9 343.001 166C343.201 166.1 343.501 166.2 343.701 166.4C343.901 166.6 344.101 166.7 344.301 166.9C344.501 167.1 344.701 167.3 344.801 167.5C344.901 167.7 345.101 168 345.201 168.2C345.301 168.4 345.401 168.7 345.401 169C345.401 169.3 345.501 169.5 345.501 169.8C345.501 170.1 345.501 170.3 345.401 170.6C345.301 170.9 345.301 171.1 345.201 171.4C345.101 171.6 345.001 171.9 344.801 172.1C344.601 172.3 344.501 172.5 344.301 172.7C343.601 173.5 342.501 173.9 341.401 173.9Z" fill="#CCCCCC"/>
<path d="M352.1 135.7L352.8 142.5C352.8 142.5 352.8 142.6 352.7 142.6H339.2C339.2 142.6 339.1 142.6 339.1 142.5L338.5 135.8C338.5 135.8 338.5 135.7 338.6 135.7H352.1Z" fill="white"/>
<path d="M352.699 146.6H339.199C336.999 146.6 335.299 145 335.099 142.8L334.499 136.1C334.399 135 334.799 133.8 335.599 133C336.399 132.2 337.499 131.7 338.699 131.7H352.199C354.299 131.7 356.199 133.4 356.299 135.5L356.899 142.2C356.999 143.3 356.599 144.5 355.799 145.4C354.899 146.1 353.799 146.6 352.699 146.6Z" fill="#CCCCCC"/>
<path d="M353.901 160.3C353.601 160.3 353.401 160.3 353.101 160.2C352.801 160.1 352.601 160.1 352.301 160C352.101 159.9 351.801 159.8 351.601 159.6C351.401 159.5 351.201 159.3 351.001 159.1C350.801 158.9 350.601 158.7 350.501 158.5C350.401 158.3 350.201 158 350.101 157.8C350.001 157.6 349.901 157.3 349.901 157C349.901 156.7 349.801 156.5 349.801 156.2C349.801 155.9 349.801 155.7 349.901 155.4C349.901 155.1 350.001 154.9 350.101 154.6C350.201 154.4 350.301 154.1 350.501 153.9C350.601 153.7 350.801 153.5 351.001 153.3C351.201 153.1 351.401 152.9 351.601 152.8C351.801 152.7 352.101 152.5 352.301 152.4C352.501 152.3 352.801 152.2 353.101 152.2C353.601 152.1 354.201 152.1 354.701 152.2C355.001 152.2 355.201 152.3 355.501 152.4C355.701 152.5 356.001 152.6 356.201 152.8C356.401 153 356.601 153.1 356.801 153.3C357.601 154.1 358.001 155.1 358.001 156.2C358.001 157.3 357.601 158.3 356.801 159.1C356.001 159.8 355.001 160.3 353.901 160.3Z" fill="#CCCCCC"/>
<path d="M355.101 173.9H341.401C339.201 173.9 337.301 172.1 337.301 169.8C337.301 167.5 339.101 165.7 341.401 165.7H355.101C357.301 165.7 359.201 167.5 359.201 169.8C359.201 172.1 357.401 173.9 355.101 173.9Z" fill="#CCCCCC"/>
<path d="M366.4 146.6C364.3 146.6 362.5 145 362.3 142.9L361.7 136.1C361.5 133.9 363.2 131.9 365.4 131.7C367.6 131.5 369.6 133.2 369.8 135.4L370.4 142.2C370.6 144.4 368.9 146.4 366.7 146.6C366.6 146.6 366.5 146.6 366.4 146.6Z" fill="#CCCCCC"/>
<path d="M347.101 160.3C345.001 160.3 343.201 158.7 343.001 156.6L341.801 142.9C341.601 140.7 343.301 138.7 345.501 138.5C347.701 138.3 349.701 140 349.901 142.2L351.101 155.9C351.301 158.1 349.601 160.1 347.401 160.3C347.301 160.2 347.201 160.3 347.101 160.3Z" fill="#CCCCCC"/>
<path d="M352.101 139.7C350.001 139.7 348.201 138.1 348.001 136L346.801 122.3C346.601 120.1 348.301 118.1 350.501 117.9C352.701 117.7 354.701 119.4 354.901 121.6L356.101 135.3C356.301 137.5 354.601 139.5 352.401 139.7C352.401 139.7 352.201 139.7 352.101 139.7Z" fill="#CCCCCC"/>
<path d="M341.402 173.9C339.302 173.9 337.502 172.3 337.302 170.2L336.102 156.5C335.902 154.3 337.602 152.3 339.802 152.1C342.002 151.9 344.002 153.6 344.202 155.8L345.402 169.5C345.602 171.7 343.902 173.7 341.702 173.9C341.702 173.9 341.602 173.9 341.402 173.9Z" fill="#CCCCCC"/>
<path d="M355.101 173.9C353.001 173.9 351.201 172.3 351.001 170.2L349.801 156.5C349.601 154.3 351.301 152.3 353.501 152.1C355.701 151.9 357.701 153.6 357.901 155.8L359.101 169.5C359.301 171.7 357.601 173.7 355.401 173.9C355.301 173.9 355.201 173.9 355.101 173.9Z" fill="#CCCCCC"/>
<path d="M381.299 160.3C379.199 160.3 377.399 158.7 377.199 156.6L375.399 136.1C375.199 133.9 376.899 131.9 379.099 131.7C381.299 131.5 383.299 133.2 383.499 135.4L385.299 155.9C385.499 158.1 383.799 160.1 381.599 160.3C381.499 160.2 381.399 160.3 381.299 160.3Z" fill="#CCCCCC"/>
<path d="M367.599 160.3H340.299C338.099 160.3 336.199 158.5 336.199 156.2C336.199 153.9 337.999 152.1 340.299 152.1H367.599C369.799 152.1 371.699 153.9 371.699 156.2C371.699 158.5 369.799 160.3 367.599 160.3Z" fill="#CCCCCC"/>
<path d="M382.499 173.9H368.799C366.599 173.9 364.699 172.1 364.699 169.8C364.699 167.5 366.499 165.7 368.799 165.7H382.499C384.699 165.7 386.599 167.5 386.599 169.8C386.599 172.1 384.699 173.9 382.499 173.9Z" fill="#CCCCCC"/>
<path d="M380.102 142.5L379.402 135.7C379.402 135.7 379.402 135.6 379.502 135.6H386.202C386.202 135.6 386.302 135.6 386.302 135.7L386.902 142.4C386.902 142.4 386.902 142.5 386.802 142.5H380.102Z" fill="white"/>
<path d="M386.802 146.6H380.102C377.902 146.6 376.202 145 376.002 142.8L375.402 136.1C375.302 135 375.702 133.8 376.502 133C377.302 132.2 378.402 131.7 379.602 131.7H386.302C388.402 131.7 390.302 133.4 390.402 135.5L391.002 142.2C391.102 143.3 390.702 144.5 389.902 145.4C389.102 146.1 388.002 146.6 386.802 146.6Z" fill="#CCCCCC"/>
<path d="M388.099 160.3H381.299C379.099 160.3 377.199 158.5 377.199 156.2C377.199 153.9 378.999 152.1 381.299 152.1H388.099C390.299 152.1 392.199 153.9 392.199 156.2C392.199 158.5 390.299 160.3 388.099 160.3Z" fill="#CCCCCC"/>
<path d="M389.298 173.9H382.498C380.298 173.9 378.398 172.1 378.398 169.8C378.398 167.5 380.198 165.7 382.498 165.7H389.298C391.498 165.7 393.398 167.5 393.398 169.8C393.398 172.1 391.498 173.9 389.298 173.9Z" fill="#CCCCCC"/>
<path d="M337.299 126.1C336.199 126.1 335.199 125.7 334.399 124.9C334.199 124.7 333.999 124.5 333.899 124.3C333.699 124.1 333.599 123.8 333.499 123.6C333.399 123.4 333.299 123.1 333.299 122.8C333.299 122.5 333.199 122.3 333.199 122C333.199 121.7 333.199 121.5 333.299 121.2C333.399 120.9 333.399 120.7 333.499 120.4C333.599 120.2 333.699 119.9 333.899 119.7C333.999 119.5 334.199 119.3 334.399 119.1C335.199 118.3 336.199 117.9 337.299 117.9C338.399 117.9 339.399 118.3 340.199 119.1C340.399 119.3 340.599 119.5 340.699 119.7C340.899 119.9 340.999 120.2 341.099 120.4C341.199 120.6 341.299 120.9 341.299 121.2C341.299 121.5 341.399 121.7 341.399 122C341.399 122.3 341.399 122.5 341.299 122.8C341.199 123.1 341.199 123.3 341.099 123.6C340.999 123.8 340.899 124.1 340.699 124.3C340.599 124.5 340.399 124.7 340.199 124.9C339.399 125.6 338.299 126.1 337.299 126.1Z" fill="#CCCCCC"/>
<path d="M303.101 126.1H289.401C287.201 126.1 285.301 124.3 285.301 122C285.301 119.7 287.101 117.9 289.401 117.9H303.101C305.301 117.9 307.201 119.7 307.201 122C307.201 124.3 305.301 126.1 303.101 126.1Z" fill="#CCCCCC"/>
<path d="M323.599 126.1H316.799C314.599 126.1 312.699 124.3 312.699 122C312.699 119.7 314.499 117.9 316.799 117.9H323.599C325.799 117.9 327.699 119.7 327.699 122C327.699 124.3 325.799 126.1 323.599 126.1Z" fill="#CCCCCC"/>
<path d="M364.601 126.1H350.901C348.701 126.1 346.801 124.3 346.801 122C346.801 119.7 348.601 117.9 350.901 117.9H364.601C366.801 117.9 368.701 119.7 368.701 122C368.701 124.3 366.801 126.1 364.601 126.1Z" fill="#CCCCCC"/>
<path d="M385.099 126.1H378.299C376.099 126.1 374.199 124.3 374.199 122C374.199 119.7 375.999 117.9 378.299 117.9H385.099C387.299 117.9 389.199 119.7 389.199 122C389.199 124.3 387.399 126.1 385.099 126.1Z" fill="#CCCCCC"/>
<path d="M346.798 74.2C346.798 74.2 346.698 74.2 346.798 74.2L349.698 108.3C349.698 108.3 349.698 108.4 349.798 108.4H383.798C383.798 108.4 383.898 108.4 383.898 108.3L380.898 74.3C380.898 74.3 380.898 74.2 380.798 74.2H346.798Z" fill="white"/>
<path d="M383.799 112.4H349.799C347.599 112.4 345.899 110.8 345.699 108.6L342.699 74.5C342.599 73.4 342.999 72.2 343.799 71.3C344.599 70.5 345.699 70 346.899 70H380.899C383.099 70 384.799 71.6 384.999 73.8L387.999 107.8C388.099 108.9 387.699 110.1 386.899 110.9C386.099 111.9 384.999 112.4 383.799 112.4ZM353.499 104.3H379.499L377.199 78.3H351.199L353.499 104.3Z" fill="#CCCCCC"/>
<path d="M361.696 87.8C361.596 87.8 361.596 87.9 361.696 87.8L362.196 94.6C362.196 94.6 362.196 94.7 362.296 94.7H368.996C368.996 94.7 369.096 94.7 369.096 94.6L368.496 87.9C368.496 87.9 368.496 87.8 368.396 87.8H361.696Z" fill="white"/>
<path d="M368.997 98.7H362.297C360.097 98.7 358.397 97.1 358.197 94.9L357.597 88.2C357.497 87.1 357.897 85.9 358.697 85.1C359.497 84.3 360.597 83.8 361.797 83.8H368.497C370.697 83.8 372.397 85.4 372.597 87.6L373.197 94.3C373.297 95.4 372.897 96.6 372.097 97.5C371.297 98.2 370.097 98.7 368.997 98.7Z" fill="#CCCCCC"/>
<path d="M285.298 74.2002C285.298 74.2002 285.198 74.2002 285.298 74.2002L288.198 108.3C288.198 108.3 288.198 108.4 288.298 108.4H322.298C322.298 108.4 322.398 108.4 322.398 108.3L319.398 74.3002C319.398 74.3002 319.398 74.2002 319.298 74.2002H285.298Z" fill="white"/>
<path d="M322.299 112.4H288.299C286.199 112.4 284.299 110.7 284.199 108.6L281.199 74.6001C281.099 73.5001 281.499 72.3001 282.299 71.4001C283.099 70.6001 284.199 70.1001 285.299 70.1001H319.299C321.499 70.1001 323.299 71.8001 323.399 73.9001L326.399 107.9C326.499 109 326.099 110.2 325.299 111.1C324.599 111.9 323.499 112.4 322.299 112.4ZM292.299 107.8C292.299 107.9 292.299 107.9 292.299 107.8V107.8ZM291.899 104.3H317.899L315.599 78.3001H289.599L291.899 104.3ZM315.299 74.6001C315.299 74.6001 315.399 74.6001 315.299 74.6001V74.6001Z" fill="#CCCCCC"/>
<path d="M300.196 87.8C300.096 87.8 300.096 87.9 300.196 87.8L300.696 94.6C300.696 94.6 300.696 94.7 300.796 94.7H307.496C307.496 94.7 307.596 94.7 307.596 94.6L306.996 87.9C306.996 87.9 306.996 87.8 306.896 87.8H300.196Z" fill="white"/>
<path d="M307.497 98.7H300.797C298.597 98.7 296.897 97.1 296.697 94.9L296.097 88.2C295.997 87.1 296.397 85.9 297.197 85.1C297.997 84.3 299.097 83.8 300.297 83.8H306.997C309.197 83.8 310.897 85.4 311.097 87.6L311.697 94.3C311.797 95.4 311.397 96.6 310.597 97.5C309.697 98.2 308.597 98.7 307.497 98.7Z" fill="#CCCCCC"/>
<path d="M290.7 135.7C290.6 135.7 290.6 135.7 290.7 135.7L293.6 169.8C293.6 169.8 293.6 169.9 293.7 169.9H327.7C327.7 169.9 327.8 169.9 327.8 169.8L324.8 135.8C324.8 135.8 324.8 135.7 324.7 135.7H290.7Z" fill="white"/>
<path d="M327.701 173.9H293.701C291.501 173.9 289.801 172.3 289.601 170.1L286.601 136C286.501 134.9 286.901 133.7 287.701 132.9C288.501 132.1 289.601 131.6 290.801 131.6H324.801C327.001 131.6 328.701 133.2 328.901 135.4L331.901 169.5C332.001 170.6 331.601 171.8 330.801 172.6C330.001 173.4 328.801 173.9 327.701 173.9ZM297.301 165.8H323.301L321.001 139.8H295.001L297.301 165.8Z" fill="#CCCCCC"/>
<path d="M305.5 149.3C305.5 149.3 305.5 149.4 305.5 149.3L306 156.1C306 156.1 306 156.2 306.1 156.2H312.8C312.8 156.2 312.9 156.2 312.9 156.1L312.3 149.4C312.3 149.4 312.3 149.3 312.2 149.3H305.5Z" fill="white"/>
<path d="M312.802 160.3H306.102C303.902 160.3 302.202 158.7 302.002 156.5L301.402 149.8C301.302 148.7 301.702 147.5 302.502 146.7C303.302 145.9 304.402 145.4 305.602 145.4H312.302C314.502 145.4 316.202 147 316.402 149.2L317.002 155.9C317.102 157 316.702 158.2 315.902 159.1C315.102 159.8 314.002 160.3 312.802 160.3Z" fill="#CCCCCC"/>
<path d="M424.8 44.7H488.2C496.4 44.7 503 51.3 503 59.5V188.4C503 196.6 496.4 203.2 488.2 203.2H424.8C416.6 203.2 410 196.6 410 188.4V59.5C410 51.3 416.6 44.7 424.8 44.7Z" fill="#B3B3B3"/>
<path d="M488.2 205.2H424.8C415.5 205.2 408 197.7 408 188.4V59.5C408 50.2 415.5 42.7 424.8 42.7H488.2C497.5 42.7 505 50.2 505 59.5V188.4C505 197.6 497.4 205.2 488.2 205.2ZM424.8 46.7C417.7 46.7 412 52.4 412 59.5V188.4C412 195.5 417.7 201.2 424.8 201.2H488.2C495.3 201.2 501 195.5 501 188.4V59.5C501 52.4 495.3 46.7 488.2 46.7H424.8Z" fill="#B3B3B3"/>
<path d="M421.162 176.87H491.762V70.9704L421.162 70.9704V176.87Z" fill="white"/>
<path d="M491.799 178.9H421.199C420.099 178.9 419.199 178 419.199 176.9V71C419.199 69.9 420.099 69 421.199 69H491.799C492.899 69 493.799 69.9 493.799 71V176.9C493.799 178 492.899 178.9 491.799 178.9ZM423.199 174.9H489.799V73H423.199V174.9Z" fill="#B3B3B3"/>
<path d="M488 117.5H503V96.5L535.6 129.1C542 135.5 542 145.9 535.6 152.3L523.3 164.6C517.8 170.1 509.3 170.8 503 166.9V135.4H488C483.1 135.4 479 131.4 479 126.4C479 121.5 483.1 117.5 488 117.5Z" fill="#E6E6E6"/>
<path d="M511.7 171.4C508.3 171.4 504.9 170.5 501.9 168.5C501.3 168.1 501 167.5 501 166.8V137.3H488C482 137.3 477 132.4 477 126.3C477 120.3 481.9 115.3 488 115.3H501V96.3001C501 95.5001 501.5 94.8001 502.2 94.5001C502.9 94.2001 503.8 94.4001 504.4 94.9001L537 127.5C544.2 134.7 544.2 146.3 537 153.5L524.7 165.8C521.1 169.6 516.4 171.4 511.7 171.4ZM505 165.8C510.6 168.8 517.4 167.8 521.9 163.3L534.2 151C539.8 145.4 539.8 136.3 534.2 130.6L505 101.3V117.5C505 118.6 504.1 119.5 503 119.5H488C484.2 119.5 481 122.6 481 126.5C481 130.4 484.1 133.5 488 133.5H503C504.1 133.5 505 134.4 505 135.5V165.8Z" fill="#B3B3B3"/>
<path d="M456.5 193C458.157 193 459.5 191.657 459.5 190C459.5 188.343 458.157 187 456.5 187C454.843 187 453.5 188.343 453.5 190C453.5 191.657 454.843 193 456.5 193Z" fill="#CCCCCC"/>
<path d="M456.5 195C453.8 195 451.5 192.8 451.5 190C451.5 187.2 453.7 185 456.5 185C459.3 185 461.5 187.2 461.5 190C461.5 192.8 459.2 195 456.5 195ZM456.5 189.1C456 189.1 455.5 189.5 455.5 190.1C455.5 190.7 455.9 191.1 456.5 191.1C457.1 191.1 457.5 190.7 457.5 190.1C457.5 189.5 457 189.1 456.5 189.1Z" fill="#CCCCCC"/>
<path d="M461.601 59.8H451.301C450.201 59.8 449.301 58.9 449.301 57.8C449.301 56.7 450.201 55.8 451.301 55.8H461.601C462.701 55.8 463.601 56.7 463.601 57.8C463.601 58.9 462.701 59.8 461.601 59.8Z" fill="#CCCCCC"/>
<path d="M450.299 224.3H197.699C196.599 224.3 195.699 223.4 195.699 222.3C195.699 221.2 196.599 220.3 197.699 220.3H450.399C451.499 220.3 452.399 221.2 452.399 222.3C452.399 223.4 451.399 224.3 450.299 224.3Z" fill="#B3B3B3"/>
<path d="M493.698 224.3H462.398C461.298 224.3 460.398 223.4 460.398 222.3C460.398 221.2 461.298 220.3 462.398 220.3H493.698C494.798 220.3 495.698 221.2 495.698 222.3C495.698 223.4 494.798 224.3 493.698 224.3Z" fill="#B3B3B3"/>
<path d="M516.999 224.3H505.699C504.599 224.3 503.699 223.4 503.699 222.3C503.699 221.2 504.599 220.3 505.699 220.3H516.999C518.099 220.3 518.999 221.2 518.999 222.3C518.999 223.4 518.099 224.3 516.999 224.3Z" fill="#B3B3B3"/>
<path d="M186.3 224.3H167C165.9 224.3 165 223.4 165 222.3C165 221.2 165.9 220.3 167 220.3H186.3C187.4 220.3 188.3 221.2 188.3 222.3C188.3 223.4 187.4 224.3 186.3 224.3Z" fill="#B3B3B3"/>
<path d="M456.5 98.6001L431.5 113V141.8L456.5 156.2L481.5 141.8V113L456.5 98.6001Z" fill="#B3B3B3"/>
<path d="M451.5 142.3H461.5C461.5 139.5 459.3 137.3 456.5 137.3C453.7 137.3 451.5 139.6 451.5 142.3ZM466.5 117.4H446.5C443.7 117.4 441.5 119.6 441.5 122.4C441.5 125.2 443.7 127.4 446.5 127.4C446.5 132.9 451 137.4 456.5 137.4C462 137.4 466.5 132.9 466.5 127.4C469.3 127.4 471.5 125.2 471.5 122.4C471.5 119.6 469.2 117.4 466.5 117.4ZM446.5 124.9C445.1 124.9 444 123.8 444 122.4C444 121 445.1 119.9 446.5 119.9V124.9ZM466.5 124.9V119.9C467.9 119.9 469 121 469 122.4C469 123.7 467.8 124.9 466.5 124.9Z" fill="white"/>
<path d="M458.002 133.2H455.002V124H451.102V121.5H461.902V124H458.002V133.2Z" fill="#B3B3B3"/>
<path d="M472 110.6C477.247 110.6 481.5 106.347 481.5 101.1C481.5 95.8534 477.247 91.6001 472 91.6001C466.753 91.6001 462.5 95.8534 462.5 101.1C462.5 106.347 466.753 110.6 472 110.6Z" fill="#E6E6E6"/>
<path d="M472 112.6C465.7 112.6 460.5 107.4 460.5 101.1C460.5 94.8001 465.7 89.6001 472 89.6001C478.3 89.6001 483.5 94.8001 483.5 101.1C483.5 107.4 478.3 112.6 472 112.6ZM472 93.6001C467.9 93.6001 464.5 97.0001 464.5 101.1C464.5 105.2 467.9 108.6 472 108.6C476.1 108.6 479.5 105.2 479.5 101.1C479.5 97.0001 476.1 93.6001 472 93.6001Z" fill="#B3B3B3"/>
<path fill-rule="evenodd" clip-rule="evenodd" d="M474.7 97.5L470.9 101.4L469 99.8L467.5 101.7L470.3 104L471.2 104.7L471.9 103.9L476.5 99.2L474.7 97.5Z" fill="#B3B3B3"/>
</g>
<defs>
<clipPath id="clip0">
<rect width="704" height="244" fill="white"/>
</clipPath>
</defs>
</svg>
