<svg xmlns="http://www.w3.org/2000/svg" xmlns:xlink="http://www.w3.org/1999/xlink" width="704" height="400" viewBox="0 0 704 400">
    <defs>
        <path id="a" d="M.953 44.9v89.002l77.077 44.5 77.078-44.5V44.9L78.03.399"/>
        <path id="c" d="M.953 44.9v89.002l77.077 44.5 77.078-44.5V44.9L78.03.399"/>
        <path id="e" d="M.953 44.9v89.002l77.077 44.5 77.078-44.5V44.9L78.03.399z"/>
        <path id="g" d="M.953 44.9v89.002l77.077 44.5 77.078-44.5V44.9L78.03.399z"/>
        <path id="i" d="M.953 44.9v89.002l77.077 44.5 77.078-44.5V44.9L78.03.399z"/>
        <path id="k" d="M.953 44.9v89.002l77.077 44.5 77.078-44.5V44.9L78.03.399"/>
        <path id="m" d="M.953 44.9v89.002l77.077 44.5 77.078-44.5V44.9L78.03.399z"/>
        <path id="o" d="M.892 44.9v89.002l77.078 44.5 77.078-44.5V44.9L77.97.399"/>
        <path id="q" d="M.892 44.9v89.002l77.078 44.5 77.078-44.5V44.9L77.97.399"/>
        <path id="s" d="M.892 44.9v89.002l77.078 44.5 77.078-44.5V44.9L77.97.399"/>
        <path id="u" d="M.892 44.9v89.002l77.078 44.5 77.078-44.5V44.9L77.97.399"/>
        <path id="w" d="M.892 44.9v89.002l77.078 44.5 77.078-44.5V44.9L77.97.399z"/>
        <path id="y" d="M.892 44.9v89.002l77.078 44.5 77.078-44.5V44.9L77.97.399"/>
        <path id="A" d="M.892 44.9v89.002l77.078 44.5 77.078-44.5V44.9L77.97.399z"/>
        <path id="C" d="M.922 45.099v89.002L78 178.6l77.078-44.499V45.099L78 .597z"/>
        <path id="E" d="M.922 45.099v89.002L78 178.6l77.078-44.499V45.099L78 .597z"/>
        <path id="G" d="M.922 45.099v89.002L78 178.6l77.078-44.499V45.099L78 .597"/>
        <path id="I" d="M.922 45.099v89.002L78 178.6l77.078-44.499V45.099L78 .597"/>
        <path id="K" d="M.922 45.099v89.002L78 178.6l77.078-44.499V45.099L78 .597z"/>
        <path id="M" d="M.922 45.099v89.002L78 178.6l77.078-44.499V45.099L78 .597z"/>
        <path id="O" d="M.922 45.099v89.002L78 178.6l77.078-44.499V45.099L78 .597z"/>
        <path id="Q" d="M.922 45.099v89.002L78 178.6l77.078-44.499V45.099L78 .597"/>
        <path id="S" d="M.922 45.099v89.002L78 178.6l77.078-44.499V45.099L78 .597"/>
        <path id="U" d="M.922 45.099v89.002L78 178.6l77.078-44.499V45.099L78 .597z"/>
        <path id="W" d="M.922 45.099v89.002L78 178.6l77.078-44.499V45.099L78 .597"/>
        <path id="Y" d="M.922 45.099v89.002L78 178.6l77.078-44.499V45.099L78 .597"/>
        <path id="aa" d="M.922 45.099v89.002L78 178.6l77.078-44.499V45.099L78 .597"/>
        <path id="ac" d="M.922 45.099v89.002L78 178.6l77.078-44.499V45.099L78 .597z"/>
    </defs>
    <g fill="none" fill-rule="evenodd">
        <path fill="#E6E6E6" d="M186 202h-61.177a2 2 0 0 1 0-4H186a2 2 0 0 1 0 4M668.353 178.47h-600a2 2 0 0 1 0-4h600a2 2 0 0 1 0 4M570.118 202h-373.53a2 2 0 0 1 0-4h373.53a2 2 0 0 1 0 4M304.824 225.53H173.059a2 2 0 0 1 0-4h131.765a2 2 0 0 1 0 4M113.059 202h-23.53a2 2 0 0 1 0-4h23.53a2 2 0 0 1 0 4M530.118 143.177h-62.941a2 2 0 0 1 0-4h62.94a2 2 0 0 1 0 4M354.824 119.647H78.353a2 2 0 0 1 0-4h276.47a2 2 0 0 1 0 4M615.824 119.647H373.353a2 2 0 0 1 0-4h242.47a2 2 0 0 1 0 4M318.824 143.177H27.764a2 2 0 0 1 0-4h291.06a2 2 0 0 1 0 4M633.412 143.177h-81.53a2 2 0 0 1 0-4h81.53a2 2 0 0 1 0 4M515.412 260.823h-84.706a2 2 0 0 1 0-4h84.706a2 2 0 0 1 0 4M481.882 284.352H225.823a2 2 0 0 1 0-4h256.06a2 2 0 0 1 0 4M589.53 260.823h-57.648a2 2 0 0 1 0-4h57.647a2 2 0 0 1 0 4M620.118 260.823H606a2 2 0 0 1 0-4h14.118a2 2 0 0 1 0 4M57.118 178.47H43a2 2 0 0 1 0-4h14.118a2 2 0 0 1 0 4M261.888 55.752l9.406 5.43 9.406-5.43V44.89l-9.406-5.43-9.406 5.43v10.862zm9.406 9.739c-.345 0-.69-.089-1-.267l-11.406-6.585a2.001 2.001 0 0 1-1-1.733V43.735a2 2 0 0 1 1-1.732l11.406-6.585a2.001 2.001 0 0 1 2 0l11.406 6.585a2 2 0 0 1 1 1.732v13.171c0 .715-.38 1.375-1 1.733l-11.406 6.585c-.31.178-.655.267-1 .267zM548.124 227.575l9.405 5.43 9.407-5.43v-10.86l-9.407-5.432-9.405 5.431v10.861zm9.405 9.74c-.345 0-.69-.09-1-.268l-11.405-6.585a2.001 2.001 0 0 1-1-1.733v-13.17a2 2 0 0 1 1-1.732l11.405-6.586a2.001 2.001 0 0 1 2 0l11.407 6.586a2 2 0 0 1 1 1.732v13.17c0 .715-.382 1.375-1 1.733l-11.407 6.585c-.31.178-.654.267-1 .267zM460.123 344.575l6.231 3.597 6.232-3.597v-7.195l-6.232-3.598-6.23 3.598v7.195zm6.231 7.906c-.344 0-.69-.089-1-.267l-8.23-4.752a2.001 2.001 0 0 1-1-1.733v-9.504a2 2 0 0 1 1-1.732l8.23-4.753a2.001 2.001 0 0 1 2 0l8.232 4.753a2 2 0 0 1 1 1.732v9.504c0 .715-.382 1.375-1 1.733l-8.232 4.752c-.31.178-.654.267-1 .267zM115.712 274.987l6.23 3.597 6.232-3.597v-7.196l-6.231-3.597-6.231 3.597v7.196zm6.23 7.906c-.344 0-.69-.089-1-.267l-8.23-4.752a2.001 2.001 0 0 1-1-1.733v-9.505a2 2 0 0 1 1-1.732l8.23-4.752a2.001 2.001 0 0 1 2 0l8.232 4.752a2 2 0 0 1 1 1.732v9.505c0 .715-.381 1.375-1 1.733l-8.231 4.752a2.004 2.004 0 0 1-1 .267zM170.124 293.693l15.569 8.987 15.569-8.987v-17.979l-15.57-8.988-15.569 8.988v17.98zm15.569 13.297c-.346 0-.692-.089-1-.268l-17.57-10.142a2.001 2.001 0 0 1-1-1.733V274.56c0-.715.382-1.375 1-1.732l17.57-10.144a2.001 2.001 0 0 1 2 0l17.569 10.144c.619.357 1 1.017 1 1.732v20.287c0 .715-.381 1.375-1 1.733l-17.57 10.142c-.31.18-.655.268-1 .268z"/>
        <path fill="#E6E6E6" d="M185.692 279.644a5.065 5.065 0 0 0-5.059 5.06 5.064 5.064 0 0 0 5.06 5.058 5.064 5.064 0 0 0 5.058-5.058c0-2.79-2.269-5.06-5.059-5.06m0 14.118c-4.995 0-9.059-4.063-9.059-9.058 0-4.996 4.064-9.06 9.06-9.06 4.994 0 9.058 4.064 9.058 9.06 0 4.995-4.064 9.058-9.059 9.058M450.123 67.93l9.35 5.398 9.35-5.397V57.133l-9.35-5.397-9.35 5.397V67.93zm9.35 9.708c-.345 0-.69-.09-1-.268l-11.35-6.552a2.001 2.001 0 0 1-1-1.733V55.979c0-.715.382-1.375 1-1.733l11.35-6.552a1.996 1.996 0 0 1 2 0l11.35 6.552c.62.358 1 1.018 1 1.733v13.106c0 .715-.38 1.375-1 1.733l-11.35 6.552a1.995 1.995 0 0 1-1 .268z"/>
        <path fill="#E6E6E6" d="M464.034 64.532h-9.12a2 2 0 0 1 0-4h9.12a2 2 0 0 1 0 4"/>
        <path fill="#E6E6E6" d="M459.474 69.092a2 2 0 0 1-2-2v-9.12a2 2 0 0 1 4 0v9.12a2 2 0 0 1-2 2M226.588 346.117a5.065 5.065 0 0 0-5.059 5.06 5.064 5.064 0 0 0 5.06 5.058 5.064 5.064 0 0 0 5.058-5.058c0-2.79-2.269-5.06-5.059-5.06m0 14.118c-4.995 0-9.059-4.063-9.059-9.058 0-4.996 4.064-9.06 9.06-9.06 4.994 0 9.058 4.064 9.058 9.06 0 4.995-4.064 9.058-9.059 9.058M411.294 37.294a5.065 5.065 0 0 0-5.059 5.059 5.064 5.064 0 0 0 5.06 5.059 5.064 5.064 0 0 0 5.058-5.06 5.065 5.065 0 0 0-5.059-5.058m0 14.118c-4.995 0-9.059-4.064-9.059-9.06 0-4.995 4.064-9.058 9.06-9.058 4.994 0 9.058 4.063 9.058 9.059 0 4.995-4.064 9.059-9.059 9.059M521.882 291.412c-.843 0-1.529.687-1.529 1.53 0 .842.686 1.53 1.53 1.53.842 0 1.528-.688 1.528-1.53 0-.843-.686-1.53-1.529-1.53m0 7.06a5.536 5.536 0 0 1-5.529-5.53 5.535 5.535 0 0 1 5.53-5.53 5.535 5.535 0 0 1 5.528 5.53c0 3.048-2.48 5.53-5.529 5.53M144.235 109.294c-.843 0-1.529.687-1.529 1.529 0 .843.686 1.53 1.53 1.53.843 0 1.53-.687 1.53-1.53 0-.842-.687-1.53-1.53-1.53m0 7.06a5.536 5.536 0 0 1-5.53-5.53 5.535 5.535 0 0 1 5.53-5.53c3.048 0 5.53 2.48 5.53 5.53a5.537 5.537 0 0 1-5.53 5.53M144.823 265.53c-.843 0-1.529.686-1.529 1.528 0 .843.686 1.53 1.53 1.53.843 0 1.53-.687 1.53-1.53 0-.842-.687-1.529-1.53-1.529m0 7.06a5.536 5.536 0 0 1-5.53-5.53 5.535 5.535 0 0 1 5.53-5.53c3.048 0 5.53 2.48 5.53 5.53a5.537 5.537 0 0 1-5.53 5.53M594.824 207.883c-.843 0-1.53.687-1.53 1.529 0 .843.687 1.53 1.53 1.53s1.529-.687 1.529-1.53c0-.842-.686-1.53-1.53-1.53m0 7.06a5.536 5.536 0 0 1-5.528-5.53 5.535 5.535 0 0 1 5.529-5.53 5.535 5.535 0 0 1 5.529 5.53c0 3.049-2.48 5.53-5.53 5.53M488.353 314.059h-14.118a2 2 0 0 1 0-4h14.118a2 2 0 0 1 0 4"/>
        <path fill="#E6E6E6" d="M481.294 321.117a2 2 0 0 1-2-2V305a2 2 0 0 1 4 0v14.117a2 2 0 0 1-2 2M54.823 216.117H40.706a2 2 0 0 1 0-4h14.117a2 2 0 0 1 0 4"/>
        <path fill="#E6E6E6" d="M47.765 223.177a2 2 0 0 1-2-2v-14.118a2 2 0 0 1 4 0v14.118a2 2 0 0 1-2 2M648.941 203.177h-14.118a2 2 0 0 1 0-4h14.118a2 2 0 0 1 0 4"/>
        <path fill="#E6E6E6" d="M641.882 210.235a2 2 0 0 1-2-2v-14.118a2 2 0 0 1 4 0v14.118a2 2 0 0 1-2 2M657.412 140.823a5.065 5.065 0 0 0-5.059 5.06 5.064 5.064 0 0 0 5.06 5.058 5.064 5.064 0 0 0 5.058-5.058c0-2.79-2.269-5.06-5.059-5.06m0 14.118c-4.995 0-9.059-4.063-9.059-9.058 0-4.996 4.064-9.06 9.06-9.06 4.994 0 9.058 4.064 9.058 9.06 0 4.995-4.064 9.058-9.059 9.058M671.53 72.588a2.71 2.71 0 0 0-2.706 2.706A2.71 2.71 0 0 0 671.53 78a2.71 2.71 0 0 0 2.706-2.706 2.71 2.71 0 0 0-2.706-2.706m0 9.412a6.714 6.714 0 0 1-6.706-6.706 6.714 6.714 0 0 1 6.706-6.706 6.714 6.714 0 0 1 6.706 6.706A6.714 6.714 0 0 1 671.53 82"/>
        <path fill="#F2F2F2" d="M205.03 254.204l89.03-51.402V100l-89.03-51.402L116 100v102.803z"/>
        <path fill="#B3B3B3" d="M118 201.648l87.03 50.246 87.031-50.246V101.153L205.03 50.906 118 101.154v100.495zm87.03 54.556c-.345 0-.69-.089-1-.268L115 204.535a2.001 2.001 0 0 1-1-1.733V100c0-.716.381-1.376 1-1.734l89.03-51.402a1.996 1.996 0 0 1 2 0l89.031 51.402c.618.358 1 1.018 1 1.733v102.803c0 .715-.382 1.375-1 1.733l-89.031 51.401a1.995 1.995 0 0 1-1 .268z"/>
        <path fill="#CCC" d="M205.03 62.4l-77.078 44.5V195.9l77.078 44.501 77.078-44.5v-89.003z"/>
        <g transform="translate(127 62)">
            <mask id="b" fill="#fff">
                <use xlink:href="#a"/>
            </mask>
            <path fill="#CCC" d="M101.244 107.019H54.816c-12.26 0-22.2 9.94-22.2 22.202v59.527h90.83V129.22c0-12.262-9.94-22.202-22.202-22.202" mask="url(#b)"/>
            <mask id="d" fill="#fff">
                <use xlink:href="#c"/>
            </mask>
            <path fill="#E6E6E6" d="M101.244 107.019H54.816c-12.26 0-22.2 9.94-22.2 22.202v9.368c0-12.261 9.94-22.201 22.2-22.201h46.428c12.262 0 22.202 9.94 22.202 22.2v-9.367c0-12.262-9.94-22.202-22.202-22.202" mask="url(#d)"/>
            <mask id="f" fill="#fff">
                <use xlink:href="#e"/>
            </mask>
            <path fill="#B3B3B3" d="M34.615 186.748h86.83v-57.527c0-11.14-9.061-20.202-20.201-20.202H54.817c-11.14 0-20.202 9.062-20.202 20.202v57.527zm90.83 4h-94.83v-61.527c0-13.345 10.857-24.202 24.202-24.202h46.427c13.345 0 24.202 10.857 24.202 24.202v61.527z" mask="url(#f)"/>
            <mask id="h" fill="#fff">
                <use xlink:href="#g"/>
            </mask>
            <path fill="#F2F2F2" d="M90.338 108.002s-.134 8.128-12.387 8.128-12.229-8.128-12.229-8.128V94.661h24.616v13.341z" mask="url(#h)"/>
            <mask id="j" fill="#fff">
                <use xlink:href="#i"/>
            </mask>
            <path fill="#B3B3B3" d="M67.723 96.661v11.341c.015.61.429 6.128 10.229 6.128 9.743 0 10.35-5.448 10.387-6.167V96.661H67.723zm10.229 21.47c-5.042 0-8.873-1.28-11.388-3.803-2.771-2.779-2.842-5.977-2.841-6.332V94.661a2 2 0 0 1 2-2h24.616a2 2 0 0 1 2 2v13.341l-.001.033c-.057 3.491-3.138 10.095-14.386 10.095z" mask="url(#j)"/>
            <mask id="l" fill="#fff">
                <use xlink:href="#k"/>
            </mask>
            <path fill="#CCC" d="M50.869 188.748v-47.32" mask="url(#l)"/>
            <mask id="n" fill="#fff">
                <use xlink:href="#m"/>
            </mask>
            <path fill="#B3B3B3" d="M48.869 188.748h4v-47.32h-4z" mask="url(#n)"/>
            <path fill="#CCC" d="M105.192 188.748v-47.32" mask="url(#n)"/>
            <path fill="#B3B3B3" d="M103.192 188.748h4v-47.32h-4z" mask="url(#n)"/>
            <path fill="#CCC" d="M78.03 117.137l-8.416 9.24-13.464-19.636 5.722-4.622z" mask="url(#n)"/>
            <path fill="#B3B3B3" d="M58.845 107.135l10.991 16.029 5.383-5.91-13.438-12.49-2.936 2.37zm10.548 22.457l-15.939-23.246 8.51-6.871 18.878 17.545-11.449 12.572z" mask="url(#n)"/>
            <path fill="#CCC" d="M78.03 117.137l8.416 9.24 13.465-19.636-5.723-4.622z" mask="url(#n)"/>
            <path fill="#B3B3B3" d="M80.842 117.254l5.382 5.91 10.992-16.03-2.936-2.37-13.438 12.49zm5.826 12.338l-11.45-12.572 18.879-17.545 8.51 6.87-15.94 23.247z" mask="url(#n)"/>
            <path fill="#F2F2F2" d="M98.015 57.94l-.001 22.813c-.14 10.918-9.033 19.726-19.983 19.726-10.98 0-19.891-8.854-19.984-19.81l-.001-22.729c0-12.286 39.969-12.022 39.969 0" mask="url(#n)"/>
            <path fill="#B3B3B3" d="M77.868 50.824c-10.16 0-17.822 3.06-17.822 7.116v22.722c.085 9.82 8.152 17.817 17.985 17.817 9.79 0 17.858-7.963 17.983-17.75V57.94c0-2.424-2.747-4.04-5.053-4.97-3.385-1.364-8.157-2.146-13.093-2.146m.163 51.655c-12.02 0-21.881-9.777-21.984-21.795l-.001-22.744c0-7.678 10.96-11.116 21.822-11.116 11.024 0 22.147 3.438 22.147 11.116l-.001 22.836C99.86 92.746 90 102.48 78.03 102.48" mask="url(#n)"/>
            <path fill="#F2F2F2" d="M79.065 81.123h-2.07" mask="url(#n)"/>
            <path fill="#B3B3B3" d="M79.065 83.123h-2.07a2 2 0 0 1 0-4h2.07a2 2 0 0 1 0 4" mask="url(#n)"/>
            <path fill="#F2F2F2" d="M73.909 72.16a4.121 4.121 0 0 1 8.243 0" mask="url(#n)"/>
            <path fill="#B3B3B3" d="M84.152 72.16h-4c0-1.17-.952-2.12-2.122-2.12s-2.121.95-2.121 2.12h-4a6.128 6.128 0 0 1 6.12-6.12 6.128 6.128 0 0 1 6.123 6.12" mask="url(#n)"/>
            <path fill="#F2F2F2" d="M91.614 72.502a4.804 4.804 0 1 1-9.609 0 4.804 4.804 0 0 1 9.609 0" mask="url(#n)"/>
            <path fill="#B3B3B3" d="M86.81 69.697a2.808 2.808 0 0 0-2.805 2.805 2.807 2.807 0 0 0 2.805 2.803 2.806 2.806 0 0 0 2.804-2.803 2.808 2.808 0 0 0-2.804-2.805m0 9.608c-3.752 0-6.805-3.05-6.805-6.803a6.813 6.813 0 0 1 6.805-6.805 6.812 6.812 0 0 1 6.804 6.805 6.81 6.81 0 0 1-6.804 6.803" mask="url(#n)"/>
            <path fill="#F2F2F2" d="M74.056 72.502a4.804 4.804 0 1 1-9.609 0 4.804 4.804 0 0 1 9.609 0" mask="url(#n)"/>
            <path fill="#B3B3B3" d="M69.251 69.697a2.808 2.808 0 0 0-2.803 2.805 2.806 2.806 0 0 0 2.803 2.803 2.806 2.806 0 0 0 2.804-2.803 2.808 2.808 0 0 0-2.804-2.805m0 9.608a6.81 6.81 0 0 1-6.804-6.803 6.812 6.812 0 0 1 6.804-6.805 6.812 6.812 0 0 1 6.804 6.805 6.81 6.81 0 0 1-6.804 6.803M83.291 87.267a5.261 5.261 0 1 1-10.522 0h10.522z" mask="url(#n)"/>
            <path fill="#B3B3B3" d="M64.24 72.843h-7.535a2 2 0 0 1 0-4h7.535a2 2 0 0 1 0 4M99.356 72.843H91.82a2 2 0 0 1 0-4h7.535a2 2 0 0 1 0 4" mask="url(#n)"/>
            <path fill="#B3B3B3" d="M96.664 71.376c0 3.066 4.35 4.163 5.517 1.327.128-.311.198-.637.198-.971V51.527c0-10.328-9.14-17.995-18.816-15.82-8.108 1.822-16.296 2.902-24.578.995-3.173-.73-6.438 1.116-7.19 4.284-2.298 9.673 1.596 17.946.895 30.97-.136 2.534 2.99 4.01 5.432 4.01V60.537c0-.673.599-1.165 1.266-1.076 12.876 1.726 23.943-7.522 36.44-4.541.49.117.836.572.836 1.076v15.38z" mask="url(#n)"/>
            <path fill="#B3B3B3" d="M57.584 38.542c-1.809 0-3.43 1.169-3.844 2.906-1.181 4.978-.599 9.637.075 15.031.56 4.48 1.197 9.557.872 15.584-.01.181.019.431.33.76.266.282.655.53 1.104.723V60.537c0-.887.383-1.73 1.05-2.314a3.117 3.117 0 0 1 2.48-.744c5.72.768 11.05-.789 16.694-2.433 6.337-1.847 12.888-3.753 19.947-2.071a3.09 3.09 0 0 1 2.371 3.021v15.38c0 .741.71.919.853.946.61.125.757-.243.814-.38a.562.562 0 0 0 .049-.21V51.527c0-4.461-1.94-8.57-5.32-11.276-3.15-2.52-7.181-3.467-11.058-2.593-7.452 1.675-16.305 3.102-25.465.993a4.23 4.23 0 0 0-.953-.109zm2.537 39.424h-2c-2.273 0-4.63-.939-6.008-2.392-1.004-1.058-1.495-2.347-1.42-3.725.305-5.671-.28-10.349-.846-14.873-.694-5.539-1.348-10.771.002-16.452.99-4.171 5.29-6.762 9.585-5.771 8.379 1.929 16.678.577 23.69-.997 5.072-1.138 10.332.09 14.434 3.372 4.334 3.469 6.82 8.718 6.82 14.399v20.205c0 .585-.117 1.167-.347 1.731-.872 2.118-3 3.229-5.29 2.784-2.4-.475-4.078-2.477-4.078-4.871V56.712c-5.775-1.151-11.33.464-17.198 2.174-5.502 1.603-11.18 3.259-17.344 2.672v16.408z" mask="url(#n)"/>
        </g>
        <g>
            <path fill="#F2F2F2" d="M498.97 254.204L588 202.802V100l-89.03-51.402L409.94 100v102.803z"/>
            <path fill="#B3B3B3" d="M411.94 201.648l87.03 50.246L586 201.648V101.154l-87.03-50.247-87.03 50.247v100.494zm87.03 54.556c-.345 0-.69-.089-1-.268l-89.03-51.401a2.001 2.001 0 0 1-1-1.733V100c0-.715.38-1.376 1-1.733l89.03-51.402a1.996 1.996 0 0 1 2 0L589 98.267c.619.358 1 1.018 1 1.733v102.802c0 .715-.381 1.375-1 1.733l-89.03 51.402a1.995 1.995 0 0 1-1 .268z"/>
            <path fill="#CCC" d="M498.97 62.4l-77.078 44.5V195.9l77.078 44.501 77.078-44.5v-89.003z"/>
        </g>
        <g transform="translate(421 62)">
            <mask id="p" fill="#fff">
                <use xlink:href="#o"/>
            </mask>
            <path fill="#B3B3B3" d="M113.118 85.589c-9.066 0-4.12-3.085-4.12-19.2 0-17.15-13.902-31.053-31.052-31.053-17.151 0-31.054 13.764-31.054 31.053 0 17.29 6.112 19.2-4.07 19.2-10.183 0-17.396 7.829-17.396 17.396 0 9.569 7.828 17.397 17.396 17.397h70.296c9.568 0 17.396-7.828 17.396-17.397 0-9.567-8.33-17.396-17.396-17.396" mask="url(#p)"/>
            <mask id="r" fill="#fff">
                <use xlink:href="#q"/>
            </mask>
            <path fill="#B3B3B3" d="M77.945 37.336c-16.02 0-29.053 13.033-29.053 29.053 0 6.055.782 10.22 1.301 12.976.561 2.984.931 4.954-.353 6.502-1.326 1.599-3.745 1.722-7.019 1.722-8.777 0-15.396 6.619-15.396 15.396 0 8.49 6.907 15.397 15.396 15.397h70.296c8.49 0 15.397-6.907 15.397-15.397 0-8.202-7.195-15.396-15.397-15.396-2.988 0-5.1-.298-6.39-1.781-1.475-1.695-1.148-4.034-.654-7.576.391-2.795.925-6.624.925-11.843 0-16.02-13.033-29.053-29.053-29.053m35.172 85.046H42.821c-10.695 0-19.396-8.701-19.396-19.397 0-11.057 8.338-19.396 19.396-19.396 2.507 0 3.51-.145 3.89-.287.048-.552-.215-1.95-.45-3.197-.545-2.903-1.369-7.29-1.369-13.716 0-18.226 14.827-33.053 33.053-33.053s33.053 14.827 33.053 33.053c0 5.497-.556 9.484-.963 12.395-.259 1.859-.553 3.964-.284 4.406.064.057.577.399 3.366.399 10.515 0 19.397 8.883 19.397 19.396 0 10.696-8.7 19.397-19.397 19.397" mask="url(#r)"/>
            <mask id="t" fill="#fff">
                <use xlink:href="#s"/>
            </mask>
            <path fill="#CCC" d="M91.279 109.291H64.66c-15.846 0-28.691 12.845-28.691 28.691v44.498h84v-44.498c0-15.846-12.846-28.691-28.691-28.691" mask="url(#t)"/>
            <mask id="v" fill="#fff">
                <use xlink:href="#u"/>
            </mask>
            <path fill="#E6E6E6" d="M91.279 109.291H64.66c-15.846 0-28.691 12.845-28.691 28.691v9.369c0-15.846 12.845-28.692 28.69-28.692H91.28c15.845 0 28.69 12.846 28.69 28.692v-9.369c0-15.846-12.845-28.691-28.69-28.691" mask="url(#v)"/>
            <mask id="x" fill="#fff">
                <use xlink:href="#w"/>
            </mask>
            <path fill="#B3B3B3" d="M37.97 180.48h80v-42.498c0-14.718-11.974-26.69-26.691-26.69H64.66c-14.717 0-26.691 11.972-26.691 26.69v42.499zm84 4h-88v-46.498c0-16.922 13.768-30.69 30.69-30.69H91.28c16.923 0 30.69 13.767 30.69 30.69v46.499z" mask="url(#x)"/>
            <mask id="z" fill="#fff">
                <use xlink:href="#y"/>
            </mask>
            <path fill="#CCC" d="M50.21 182.48v-39.376" mask="url(#z)"/>
            <mask id="B" fill="#fff">
                <use xlink:href="#A"/>
            </mask>
            <path fill="#B3B3B3" d="M48.21 182.48h4v-39.377h-4z" mask="url(#B)"/>
            <path fill="#CCC" d="M105.73 182.48v-39.376" mask="url(#B)"/>
            <path fill="#B3B3B3" d="M103.729 182.48h4v-39.377h-4z" mask="url(#B)"/>
            <path fill="#F2F2F2" d="M87.973 108.204v-11.27H67.966v11.27a8.387 8.387 0 0 1-1.595 4.953c-1.306 1.786-2.064 3.893-2.064 6.155 0 6.45 6.117 9.971 13.663 9.971 7.545 0 13.662-3.52 13.662-9.97 0-2.263-.758-4.37-2.064-6.156a8.387 8.387 0 0 1-1.595-4.953" mask="url(#B)"/>
            <path fill="#B3B3B3" d="M69.966 98.934v9.27c0 2.24-.685 4.36-1.98 6.133-1.099 1.503-1.679 3.223-1.679 4.976 0 5.883 6.283 7.97 11.662 7.97 5.38 0 11.663-2.087 11.663-7.97 0-1.753-.58-3.473-1.679-4.975-1.296-1.774-1.98-3.894-1.98-6.133v-9.271H69.966zm8.003 32.35c-9.368 0-15.662-4.811-15.662-11.971 0-2.607.847-5.144 2.45-7.336a6.43 6.43 0 0 0 1.21-3.772V96.934a2 2 0 0 1 2-2h20.006a2 2 0 0 1 2 2v11.27c0 1.366.43 2.706 1.21 3.774 1.602 2.19 2.45 4.728 2.45 7.335 0 7.16-6.295 11.97-15.664 11.97z" mask="url(#B)"/>
            <path fill="#F2F2F2" d="M98.564 73.722c0 4.545-.001 8.653-.002 8.742-.143 11.25-9.308 20.326-20.592 20.326-11.315 0-20.498-9.123-20.594-20.415v-8.653c0-13.483 20.404-14.15 20.404-21.466 0 7.316 20.784 8.796 20.784 21.466" mask="url(#B)"/>
            <path fill="#B3B3B3" d="M77.769 56.78c-1.704 1.724-4.292 3.067-6.965 4.456-5.618 2.918-11.428 5.936-11.428 12.485v8.644c.087 10.156 8.428 18.425 18.594 18.425 10.123 0 18.464-8.233 18.592-18.352 0-.16.002-4.225.002-8.717 0-6-5.82-9.11-11.448-12.119-2.835-1.514-5.576-2.98-7.347-4.823m.2 48.011c-12.352 0-22.487-10.048-22.592-22.399l-.001-8.67c0-8.979 7.85-13.057 13.584-16.035 3.507-1.82 6.82-3.543 6.82-5.43a2 2 0 0 1 4 0c0 1.96 3.67 3.921 7.22 5.82 6.044 3.228 13.564 7.247 13.564 15.645 0 4.557-.001 8.675-.002 8.765-.156 12.3-10.291 22.304-22.592 22.304" mask="url(#B)"/>
            <path fill="#B3B3B3" d="M83.058 89.15a5.416 5.416 0 0 1-10.832 0h10.832zM77.97 84.844h-2.205a2 2 0 0 1 0-4h.205v-4.018a2 2 0 0 1 4 0v6.018a2 2 0 0 1-2 2M90.53 76.513a2.4 2.4 0 1 1-4.8-.002 2.4 2.4 0 0 1 4.8.002M70.21 76.513a2.4 2.4 0 1 1-4.802-.002 2.4 2.4 0 0 1 4.802.002" mask="url(#B)"/>
        </g>
        <g>
            <path fill="#F2F2F2" d="M352 351.403l89.03-51.402V197.198L352 145.796l-89.03 51.402v102.803z"/>
            <path fill="#B3B3B3" d="M264.97 298.847L352 349.094l87.03-50.247V198.353L352 148.106l-87.03 50.247v100.494zM352 353.404c-.345 0-.69-.09-1-.268l-89.03-51.402a2.001 2.001 0 0 1-1-1.733V197.199c0-.715.38-1.375 1-1.733L351 144.064a1.996 1.996 0 0 1 2 0l89.03 51.402c.619.358 1 1.018 1 1.733V300c0 .715-.381 1.375-1 1.733L353 353.136a1.995 1.995 0 0 1-1 .268z"/>
            <path fill="#CCC" d="M352 159.598l-77.078 44.5v89.003L352 337.6l77.078-44.5v-89.002z"/>
        </g>
        <g transform="translate(274 159)">
            <mask id="D" fill="#fff">
                <use xlink:href="#C"/>
            </mask>
            <path fill="#B3B3B3" d="M46.402 121.001l.002-54.278C46.624 49.461 60.686 35.535 78 35.535c17.36 0 31.45 13.998 31.596 31.323l.001 54.143H46.402z" mask="url(#D)"/>
            <mask id="F" fill="#fff">
                <use xlink:href="#E"/>
            </mask>
            <path fill="#B3B3B3" d="M48.402 119.001h59.195V66.862C107.458 50.697 94.181 37.535 78 37.535c-16.114 0-29.39 13.105-29.596 29.213l-.002 52.253zm63.195 4H44.402v-2l.002-54.3C44.637 48.411 59.708 33.535 78 33.535c18.37 0 33.44 14.942 33.596 33.307l.001 54.159v2z" mask="url(#F)"/>
            <mask id="H" fill="#fff">
                <use xlink:href="#G"/>
            </mask>
            <path fill="#CCC" d="M91.31 107.275H64.69c-15.846 0-28.69 12.846-28.69 28.691v53.038h84v-53.038c0-15.845-12.846-28.69-28.692-28.69" mask="url(#H)"/>
            <mask id="J" fill="#fff">
                <use xlink:href="#I"/>
            </mask>
            <path fill="#E6E6E6" d="M91.31 107.275H64.69c-15.846 0-28.69 12.846-28.69 28.691v9.37c0-15.846 12.844-28.692 28.69-28.692H91.31c15.846 0 28.691 12.846 28.691 28.692v-9.37c0-15.845-12.845-28.69-28.69-28.69" mask="url(#J)"/>
            <mask id="L" fill="#fff">
                <use xlink:href="#K"/>
            </mask>
            <path fill="#B3B3B3" d="M38 187.005h80v-51.038c0-14.718-11.974-26.691-26.691-26.691H64.691c-14.717 0-26.691 11.973-26.691 26.69v51.039zm84 4H34v-55.038c0-16.923 13.768-30.691 30.691-30.691h26.618c16.923 0 30.691 13.768 30.691 30.69v55.039z" mask="url(#L)"/>
            <mask id="N" fill="#fff">
                <use xlink:href="#M"/>
            </mask>
            <path fill="#F2F2F2" d="M88.003 111.674s-.109 8.129-10.067 8.129c-9.959 0-9.94-8.13-9.94-8.13V94.919h20.007v16.756z" mask="url(#N)"/>
            <mask id="P" fill="#fff">
                <use xlink:href="#O"/>
            </mask>
            <path fill="#B3B3B3" d="M69.997 96.918v14.756c.009.617.31 6.129 7.939 6.129 7.809 0 8.06-5.777 8.068-6.146V96.918H69.997zm7.939 24.885c-3.84 0-6.865-1.082-8.993-3.216-2.922-2.929-2.946-6.757-2.946-6.918V94.918a2 2 0 0 1 2-2h20.007a2 2 0 0 1 2 2V111.7c-.002.102-.272 10.103-12.068 10.103z" mask="url(#P)"/>
            <g>
                <mask id="R" fill="#fff">
                    <use xlink:href="#Q"/>
                </mask>
                <path fill="#F2F2F2" d="M98.594 71.706c0 4.545 0 8.653-.002 8.742C98.45 91.7 89.284 100.775 78 100.775c-11.314 0-20.497-9.124-20.594-20.415v-8.654c0-13.482 20.404-14.15 20.404-21.466 0 7.316 20.784 8.796 20.784 21.466" mask="url(#R)"/>
            </g>
            <g>
                <mask id="T" fill="#fff">
                    <use xlink:href="#S"/>
                </mask>
                <path fill="#B3B3B3" d="M77.799 54.764c-1.704 1.725-4.292 3.068-6.966 4.457-5.618 2.919-11.427 5.937-11.427 12.485v8.645C59.494 90.507 67.835 98.776 78 98.776c10.123 0 18.464-8.234 18.592-18.353.002-.19.002-4.242.002-8.717 0-6.001-5.82-9.111-11.448-12.12-2.835-1.513-5.576-2.98-7.347-4.822m.2 48.012c-12.351 0-22.487-10.048-22.592-22.4l-.001-8.67c0-8.978 7.85-13.056 13.583-16.034 3.508-1.822 6.82-3.544 6.82-5.431a2 2 0 0 1 4 0c0 1.96 3.672 3.92 7.222 5.819 6.043 3.229 13.563 7.248 13.563 15.646 0 8.64-.001 8.739-.002 8.776C100.436 92.77 90.3 102.776 78 102.776" mask="url(#T)"/>
            </g>
            <g>
                <mask id="V" fill="#fff">
                    <use xlink:href="#U"/>
                </mask>
                <path fill="#B3B3B3" d="M83.416 87.135a5.416 5.416 0 0 1-10.832 0h10.832z" mask="url(#V)"/>
            </g>
            <g>
                <mask id="X" fill="#fff">
                    <use xlink:href="#W"/>
                </mask>
                <path fill="#B3B3B3" d="M78 82.83h-2.205a2 2 0 0 1 0-4H76V74.81a2 2 0 0 1 4 0v6.018a2 2 0 0 1-2 2" mask="url(#X)"/>
            </g>
            <g>
                <mask id="Z" fill="#fff">
                    <use xlink:href="#Y"/>
                </mask>
                <path fill="#B3B3B3" d="M90.561 74.497a2.401 2.401 0 1 1-4.802 0 2.401 2.401 0 0 1 4.802 0" mask="url(#Z)"/>
            </g>
            <g>
                <mask id="ab" fill="#fff">
                    <use xlink:href="#aa"/>
                </mask>
                <path fill="#B3B3B3" d="M70.24 74.497a2.401 2.401 0 1 1-4.802 0 2.401 2.401 0 0 1 4.802 0" mask="url(#ab)"/>
            </g>
            <mask id="ad" fill="#fff">
                <use xlink:href="#ac"/>
            </mask>
            <path fill="#B3B3B3" d="M48.838 189.005h4v-47.32h-4zM103.162 189.005h4v-47.32h-4zM89.751 139.147l-3.436-1.39a5.298 5.298 0 0 0-5.111-3.912 5.29 5.29 0 0 0-4.313 2.226l-.041-.017c-2.432 3.278-7.042 4.007-10.319 1.576 0 6.127 4.969 11.096 11.097 11.096 4.693 0 8.525-3.643 8.846-8.256l3.277-1.323z" mask="url(#ad)"/>
            <path fill="#F2F2F2" d="M51.346 62.648c-1.22-.124-2.415-.717-3.365-1.667l-2.135-2.135c-1.962-1.962-2.258-4.858-.66-6.457.773-.774 1.871-1.132 3.091-1.007 1.22.124 2.415.717 3.365 1.667l2.135 2.135c1.963 1.963 2.258 4.86.661 6.457-.775.775-1.873 1.132-3.092 1.007" mask="url(#ad)"/>
            <path fill="#B3B3B3" d="M47.805 53.358c-.392 0-.854.094-1.205.445-.79.791-.482 2.487.66 3.63l2.135 2.134c.627.626 1.39 1.014 2.154 1.092h.002c.427.037 1.036.004 1.473-.432.79-.79.482-2.486-.661-3.629l-2.134-2.135c-.627-.626-1.391-1.013-2.153-1.09a2.886 2.886 0 0 0-.271-.015m4.022 11.315a6.33 6.33 0 0 1-.683-.036c-1.676-.17-3.301-.966-4.577-2.242l-2.135-2.135c-2.741-2.74-3.038-6.906-.661-9.285 1.207-1.208 2.878-1.772 4.71-1.582 1.675.17 3.3.967 4.576 2.242l2.135 2.135c2.742 2.742 3.038 6.908.66 9.285-1.055 1.056-2.465 1.618-4.025 1.618" mask="url(#ad)"/>
        </g>
    </g>
</svg>
