<svg xmlns="http://www.w3.org/2000/svg" xmlns:xlink="http://www.w3.org/1999/xlink" width="480" height="136" viewBox="0 0 480 136">
    <defs>
        <path id="a" d="M0 108h480V0H0z"/>
    </defs>
    <g fill="none" fill-rule="evenodd">
        <path fill="#282C4C" d="M0 136h480v-2H0z"/>
        <g transform="translate(0 28)">
            <path fill="#282C4C" d="M240.001 66.309a7.609 7.609 0 1 1 0-15.218 7.609 7.609 0 0 1 0 15.218zm24.453 36.462l-8.761-64.36h-31.385l-8.761 64.36H204.36a3.99 3.99 0 0 0-3.989 3.989v.24h77.357v-.24a3.99 3.99 0 0 0-3.99-3.99h-9.284z"/>
            <path fill="#292D4D" d="M240.001 52.09a6.616 6.616 0 0 0-6.609 6.61 6.616 6.616 0 0 0 6.609 6.609 6.616 6.616 0 0 0 6.608-6.61 6.616 6.616 0 0 0-6.608-6.608zm0 15.219c-4.747 0-8.609-3.862-8.609-8.61 0-4.746 3.862-8.608 8.609-8.608s8.608 3.862 8.608 8.609-3.861 8.609-8.608 8.609zm-38.532 38.69h75.161a2.995 2.995 0 0 0-2.892-2.228h-10.157L254.82 39.41h-29.639l-8.761 64.36h-12.06a2.995 2.995 0 0 0-2.891 2.23zm77.259 2h-79.357v-1.24a4.995 4.995 0 0 1 4.989-4.988h10.314l8.761-64.361h33.131l8.761 64.36h8.411a4.995 4.995 0 0 1 4.99 4.99V108z"/>
            <path fill="#FFF" d="M305.503 84.696H174.498a2.658 2.658 0 0 1-2.66-2.659V3.66A2.658 2.658 0 0 1 174.499 1h131.005a2.658 2.658 0 0 1 2.659 2.66v78.377a2.658 2.658 0 0 1-2.66 2.66"/>
            <path fill="#282C4C" d="M174.498 2a1.66 1.66 0 0 0-1.659 1.659v78.378a1.66 1.66 0 0 0 1.659 1.659h131.005a1.66 1.66 0 0 0 1.659-1.659V3.659A1.66 1.66 0 0 0 305.503 2H174.498zm131.005 83.696H174.498a3.663 3.663 0 0 1-3.659-3.659V3.659A3.663 3.663 0 0 1 174.498 0h131.005a3.664 3.664 0 0 1 3.659 3.659v78.378a3.663 3.663 0 0 1-3.659 3.659z"/>
            <mask id="b" fill="#fff">
                <use xlink:href="#a"/>
            </mask>
            <path fill="#FFF" d="M176.839 79.696h126.323V6H176.839z" mask="url(#b)"/>
            <path fill="#282C4C" d="M177.839 78.696h124.323V7H177.839v71.696zm-2 2h128.323V5H175.839v75.696z" mask="url(#b)"/>
            <path fill="#282C4C" d="M264.331 40.906c-3.929-3.836-8.119-6.694-12.462-8.492a.501.501 0 0 0-.094-.057c-1.485-.825-2.874-2.004-3.388-2.579-.887-.994-2.756-2.37-3.745-2.592a1.664 1.664 0 0 0-.348-.037c-.91 0-1.929.728-3.219 1.65-.25.176-.509.362-.776.547-.67.467-1.016.663-1.194.743a31.943 31.943 0 0 0-3.239.274c-3.57.487-7.772 3.008-10.84 4.85-1.363.816-2.65 1.588-3.168 1.723l-1.583.415V30.11l22.028-12.738 22.028 12.738v10.797zM240.44 30.362l.078-.055.077-.055.223-.158c.135-.094.261-.185.393-.278.131-.093.267-.187.392-.277.208-.15.412-.294.61-.432.195-.138.386-.266.567-.386.608-.394 1.128-.662 1.515-.662.054 0 .103.005.15.016.41.091 1.11.512 1.785 1.012.097.071.193.144.288.218a1.622 1.622 0 0 0-.05.36 9.77 9.77 0 0 1-.007.112.89.89 0 0 1-.06.31c-.03.07-.068.106-.103.106a.171.171 0 0 1-.069-.02c-.144-.08-.21-.348-.224-.435l-.034-.252-.227.114c-.096.047-.196.107-.296.166a7.44 7.44 0 0 1-.18.105 1.573 1.573 0 0 1-.17.082.783.783 0 0 0-.06-.33 1.07 1.07 0 0 0-.073-.149 1.586 1.586 0 0 0-.366-.422l-.158-.126-.032-.026-.093.225c-.307.745-2.456 1.24-3.74 1.24-.048 0-.093-.002-.136-.003zm-9.08 9.331a.747.747 0 0 0-.167-.247h-.002a.418.418 0 0 0-.107-.014c-.018 0-.034.003-.05.005a.686.686 0 0 1 .086-.054.75.75 0 0 0-.475-.164c-.028 0-.054.004-.082.008a1.37 1.37 0 0 1 .366-.193.98.98 0 0 1 .325-.056c.147 0 .282.032.401.074.061.021.116.043.17.067.053.021.103.044.15.062.368.15 1.032.518 1.032.518-.065.01-.126.025-.188.047a1.812 1.812 0 0 0-.354.184c-.235.152-.473.345-.772.487a1.905 1.905 0 0 1-.236.095c-.087.03-.189.046-.295.057a.768.768 0 0 0 .197-.876zm17.017-1.202c-.215 0-.473-.1-.677-.2a3.584 3.584 0 0 1-.353-.2 1.12 1.12 0 0 0 .358-.374 1.708 1.708 0 0 0 .177-.396c.008-.022.013-.044.02-.064l.024-.103c.008-.04.011-.065.011-.065a.727.727 0 0 1-.759.276l-.013-.004a.595.595 0 0 0 .037-.118.717.717 0 0 0-.009-.319c-.028-.12-.074-.2-.074-.2a.85.85 0 0 1-.264.277.882.882 0 0 1-.476.131 1.103 1.103 0 0 1-.304-.043c.09-.29.08-.613.047-.866l-.006-.04a3.142 3.142 0 0 0-.08-.393l-.007-.02a.26.26 0 0 1-.03.054c-.165.257-.859.763-1.62 1.17-.459.243-.942.452-1.348.55a2.22 2.22 0 0 1-.476.072c-.119 0-.185-.024-.218-.062a.091.091 0 0 1-.026-.062.205.205 0 0 1 .023-.108.627.627 0 0 1 .106-.159s.043-.077.132-.199a3.431 3.431 0 0 1 .28-.339 4.037 4.037 0 0 1 1.861-1.145c.118-.034.24-.066.363-.096.401-.097.821-.17 1.235-.2.137-.01.275-.016.41-.016.503 0 .98.074 1.375.26.098.046.192.1.28.158a1.65 1.65 0 0 1 .606.758 15.431 15.431 0 0 1 .66 2.013c.032.131.06.258.086.383.062.313.1.604.101.85a1.758 1.758 0 0 1-.039.386c-.057.218-.177.347-.382.347a.625.625 0 0 1-.153-.02c-.727-.182-1.545-1.138-1.545-1.138.187-.068.355-.194.493-.325a2.48 2.48 0 0 0 .23-.252c.09-.113.14-.196.14-.196a.48.48 0 0 1-.196.037zm1.955.62c-.13-1.039-.584-2.267-.845-2.91-.28-.692-.988-1.517-2.766-1.517-.824 0-1.628.181-2.159.332a4.67 4.67 0 0 0-.409.141 14.682 14.682 0 0 0-1.713-.344c-1.544-.227-3.997-.59-9.22 1.001-5.225 1.593-10.994 4.551-11.904 5.506-.908.956.091 2.321.91 2.913.817.591 1.68 1.592 1.998.773.318-.819.181-1 1.363-.91 1.181.091 7.767.82 10.857.091 3.09-.728 6.178-1.593 6.77-2.229 0 0-.047.773-.274 1.182 0 0 1.318-.18 1.772-.5 0 0-.046.546-.363.774 0 0 .772.272 1.362-.09 0 0-.499.453-.363.863s1.408.546 4.088.865c2.43.29 8.218 4.28 12.765 11.766l-.703.407.651-.377-1.31.758c-2.006-1.207-4.786-2.882-7.178-4.318-4.315-2.594-11.357-5.369-17.535-5.597-4.44-.164-8.013-.422-9.67-.554a60.344 60.344 0 0 0-.823-.128 78.697 78.697 0 0 1-3.67-.618c1.31.113 2.834.204 3.997.162.471-.017.923-.039 1.356-.06 1.866-.09 3.34-.162 4.355.225a.273.273 0 0 0 .193-.511c-1.122-.427-2.644-.353-4.574-.26-.432.021-.882.043-1.35.061-1.777.064-4.245-.129-5.664-.277a19.015 19.015 0 0 1-1.064-.13 3.361 3.361 0 0 1-.14-.025l-.228-.04-.02-.01a6.448 6.448 0 0 1-.893-.439c.157-.455.612-1.78.892-2.837.158-.597.262-1.11.223-1.33-.026-.138-.108-.304-.223-.482-.342-.526-.972-1.154-1.262-1.429l1.262-.333 1.453-.383c.56-.148 1.168-.308 1.813-.476 1.888-.495 8.763-5.85 13.9-6.553a31.45 31.45 0 0 1 2.191-.22c.04.001.083.004.136.004.094 0 .195-.009.297-.02a33.21 33.21 0 0 1 2.047.097c1.401.131 2.82.343 3.524.456.6.096 1.598.313 2.696.57 2.381.628 4.884 1.603 7.01 3.117 5.514 3.933 8.674 6.825 8.857 7.236.175.394-9.098-.479-12.415-3.393zm-8.028 29.214l-22.028-12.738v-8.645c1.316.337 2.998.635 5.223.966l.045.008.045.007c6.16.927 8.924 2.4 9.12 2.507a32.801 32.801 0 0 1 11.1 11.595 31.396 31.396 0 0 1 1.612 3.288l.017.043-5.134 2.97zm22.755-39.477L243.03 16.11a1.45 1.45 0 0 0-1.454 0L219.55 28.848a1.46 1.46 0 0 0-.727 1.261v7.625c-1.237.326-2.05.542-2.138.567-1.245.323-1.999.866-2.315 1.658-.467 1.176.22 2.535.952 3.71.85 1.36 1.746 2.191 3.501 2.833v9.085c0 .52.278 1.001.727 1.26l22.027 12.74a1.447 1.447 0 0 0 1.454 0l22.028-12.74c.45-.259.726-.74.726-1.26V30.11c0-.519-.277-1-.726-1.26zM345.042 83.257h1.936v-5.271h-1.936a2.639 2.639 0 0 0-2.635 2.636 2.638 2.638 0 0 0 2.635 2.635m0-9.662h1.936v-3.056h26.886v19.555c0 5.704-3.553 10.575-8.567 12.527a13.502 13.502 0 0 1 5.815 4.379h-21.383a13.51 13.51 0 0 1 5.816-4.38c-5.014-1.951-8.567-6.822-8.567-12.526V87.65h-1.936c-3.875 0-7.027-3.153-7.027-7.028a7.035 7.035 0 0 1 7.027-7.027" mask="url(#b)"/>
            <path fill="#292D4D" d="M345.042 78.986c-.901 0-1.635.733-1.635 1.636 0 .901.734 1.635 1.635 1.635h.936v-3.27h-.936zm2.936 5.271h-2.936a3.64 3.64 0 0 1-3.635-3.635 3.64 3.64 0 0 1 3.635-3.636h2.936v7.271zM351.989 106h16.864a12.507 12.507 0 0 0-3.919-2.448l-2.39-.932 2.39-.93c4.817-1.877 7.93-6.429 7.93-11.597V71.54h-24.886v3.055h-2.936a6.035 6.035 0 0 0-6.027 6.028 6.034 6.034 0 0 0 6.027 6.027h2.936v3.444c0 5.168 3.113 9.72 7.93 11.596l2.39.931-2.39.932a12.507 12.507 0 0 0-3.919 2.448zm21.145 2h-25.426l1.227-1.607a14.467 14.467 0 0 1 4.295-3.769c-4.465-2.545-7.252-7.262-7.252-12.53v-1.445h-.936c-4.427 0-8.027-3.6-8.027-8.027s3.6-8.028 8.027-8.028h.936V69.54h28.886v20.554c0 5.27-2.787 9.986-7.253 12.531a14.483 14.483 0 0 1 4.296 3.77l1.227 1.606z" mask="url(#b)"/>
            <path fill="#282C4C" d="M350.31 66.669h-2c0-2.202 1.957-3.247 3.53-4.087 1.537-.821 2.47-1.388 2.47-2.323 0-.937-.933-1.503-2.47-2.325-1.572-.841-3.53-1.887-3.53-4.09 0-2.204 1.957-3.251 3.529-4.092 1.538-.822 2.471-1.39 2.471-2.328 0-.94-.933-1.506-2.471-2.328-1.572-.841-3.529-1.888-3.529-4.092h2c0 .938.935 1.506 2.473 2.328 1.571.84 3.527 1.888 3.527 4.092 0 2.204-1.956 3.25-3.527 4.092-1.538.822-2.473 1.389-2.473 2.328 0 .937.935 1.504 2.473 2.326 1.571.84 3.527 1.886 3.527 4.089 0 2.202-1.957 3.247-3.529 4.087-1.536.82-2.47 1.387-2.47 2.323M358.42 66.669h-2c0-2.202 1.958-3.247 3.53-4.087 1.537-.821 2.47-1.388 2.47-2.323 0-.937-.933-1.503-2.47-2.325-1.572-.841-3.53-1.887-3.53-4.09 0-2.204 1.957-3.251 3.529-4.092 1.538-.822 2.472-1.39 2.472-2.328 0-.94-.934-1.506-2.472-2.328-1.572-.841-3.528-1.888-3.528-4.092h2c0 .938.934 1.506 2.472 2.328 1.572.84 3.528 1.888 3.528 4.092 0 2.204-1.956 3.25-3.528 4.092-1.538.822-2.472 1.389-2.472 2.328 0 .937.934 1.504 2.472 2.326 1.572.84 3.528 1.886 3.528 4.089 0 2.202-1.957 3.247-3.53 4.087-1.536.82-2.47 1.387-2.47 2.323M366.531 66.669h-2c0-2.202 1.957-3.247 3.53-4.087 1.536-.821 2.47-1.388 2.47-2.323 0-.937-.934-1.503-2.47-2.325-1.573-.841-3.53-1.887-3.53-4.09 0-2.204 1.956-3.251 3.528-4.092 1.538-.822 2.472-1.39 2.472-2.328 0-.94-.934-1.506-2.472-2.328-1.572-.841-3.528-1.888-3.528-4.092h2c0 .938.934 1.506 2.472 2.328 1.572.84 3.528 1.888 3.528 4.092 0 2.204-1.956 3.25-3.528 4.092-1.538.822-2.472 1.389-2.472 2.328 0 .937.934 1.504 2.472 2.326 1.572.84 3.528 1.886 3.528 4.089 0 2.202-1.957 3.247-3.529 4.087-1.537.82-2.47 1.387-2.47 2.323" mask="url(#b)"/>
        </g>
    </g>
</svg>
