<svg xmlns="http://www.w3.org/2000/svg" width="496" height="240" viewBox="0 0 496 240">
    <g fill="none" fill-rule="evenodd">
        <path fill="#494E80" d="M0 240h496V0H0z"/>
        <path fill="#282C4C" d="M454.714 166.614c-.324-1.215-.672-2.466-1.91-3.522-2.484-2.119-7.557-2.344-6.174.656-3.972.07-7.186-2.88-11.606-3.165-5.38-.345-11.668 1.561-15.093 3.477-1.582.885-3.06 1.966-5.369 2.242-1.365.163-2.82.01-4.187.167-4.02.465-4.954 3.166-4.039 5.178.914 2.012 2.798 4.122 1.295 6.044-.302.386-.742.765-.727 1.18.017.497.698.933 1.495 1.232 3.67 1.376 8.88.39 12.914-.704 4.034-1.093 8.922-2.274 12.95-1.175 4.31 1.177 4.715 4.156 7.37 6.221 2.335 1.816 7.484 2.903 11.126 1.745 1.237-.394 2.155-.988 3.046-1.57l5.473-3.577c2.414-1.577 4.915-3.259 5.38-5.23.898-3.809-5.853-6.868-11.944-9.199m-38.114-7.618c-3.11-.656-6.456-.984-9.642-1.543-3.187-.558-6.338-1.402-8.227-2.8-.789-.586-1.327-1.245-1.977-1.87-1.87-1.802-9.179-6.342-13.754-5.254 1.192 1.252 3.27 2.631 4.722 3.954 5.933 5.401 18.09 8.94 30.41 8.854.853-.436-.407-1.103-1.532-1.34m-13.817-7.082c1.1.8 2.915 1.267 4.701 1.646 2.157.458 4.781.814 6.725.16 1.33-.449 5.758-3.513 6.067-4.177.594-1.28-.26-1.208-2.817-1.467-4.144-.42-19.423.388-14.676 3.838m-11.298-3.376c2.507-.656 1.371-2.562-.194-3.74-1.565-1.18-3.104-2.94-.878-3.813 3.088.015 4.528 2.145 7.53 2.508 2.984.362 5.65-1.412 5.111-2.924-.538-1.512-3.139-2.624-5.823-3.37-2.408-1.317 1.07-3.423 4.588-3.72 3.52-.299 7.368.203 10.558-.599 3.822-.96 5.1-3.482 4.23-5.576-.87-2.094-3.354-3.912-5.384-5.795-1.733-1.608-2.589-4.117.78-4.824.901-.189 1.911-.18 2.888-.2 12.742-.27 23.285-7.016 20.728-13.263-.482-1.177-1.392-2.347-3.073-3.205-3.029-1.546-8.17-1.909-10.433-3.755-2.767-2.256.656-5.25 5.087-6.699 4.431-1.449 9.845-2.079 13.984-3.73 1.103-.014 1.694-.555 1.895-1.097.127-.34-.04-.69-.046-1.037-.016-.95 1.342-1.865 3.166-2.134 1.824-.268 3.957.133 4.974.936 1.255.99.75 2.298-.16 3.38-.912 1.08-2.199 2.114-2.435 3.281-.236 1.166 1.086 2.537 3.416 2.668 2.85.16 4.69-1.53 4.876-2.96.185-1.43-.37-2.992 1.166-4.202 2.337-1.84 8.794-2.27 8.961-4.449.135-1.76-4.299-2.795-5.094-4.513-.32-.693-.003-1.414.128-2.122.488-2.643-1.839-5.375-5.988-7.03-4.15-1.656-9.995-2.183-15.04-1.358-1.643.27-3.197.67-4.87.89-2.469.324-5.07.24-7.617.153l-13.673-.468c-4.078-.139-8.399-.255-12.018.696-5.287 1.39-8.286 4.853-14.215 5.212-4.182.254-7.908-1.19-11.825-1.966-6.334-1.254-13.98-.664-19.265 1.485-1.986-.506-1.373-1.984-2.073-3.043-.73-1.104-3.105-1.77-5.423-1.873-2.318-.1-4.609.252-6.82.614-4.765.778-10.306 2.105-10.747 4.601-.124.702.192 1.45-.4 2.091-.844.911-3.124 1.215-4.542 1.926-1.693.848-1.96 2.157-2.03 3.354-.07 1.198-.092 2.483-1.478 3.46-1.386.977-8.673 1.47-10.389.634-3.313-1.613-8.725-.053-12.166 1.491l-10.26 4.605c-2.57 1.153-5.336 2.355-8.74 2.64-3.406.286-7.502-.794-7.642-2.519 2.33-1.097 6.972.533 9.1-.663 1.886-1.059-.904-2.576-3.362-3.286-4.493-1.298-9.134-2.62-14.276-2.97-5.14-.35-10.97.508-13.639 2.733-2.285 1.904-1.866 4.39-4.129 6.3-1.416 1.195-3.75 2.05-5.359 3.183-1.608 1.134-2.297 2.846-.327 3.826 1.591.792 4.294.793 5.868 1.594 1.21.615 1.624 1.644 3.212 1.983 1.816.388 3.868-.486 4.302-1.45.435-.963-.176-1.955-.492-2.93-.943-2.913 1.981-6.495 7.825-6.91 1.331.024 1.772.975 1.175 1.57-.597.595-1.759 1.007-2.387 1.594-1.186 1.107.19 2.683 2.618 3 2.531.332 6.761.065 6.427 1.363-.355 1.378-5.453.475-7.103 1.593-.973.66-.112 1.578-.135 2.397-.046 1.602-3.58 2.646-6.777 2.76-3.196.113-6.397-.36-9.588-.215-3.19.145-6.665 1.275-6.519 2.876a145.566 145.566 0 0 1-13.728 2.51c.201 1.735 6.743 1.896 6.717 3.633-.015 1.043-2.597 1.585-4.676 1.508-2.079-.076-4.177-.489-6.192-.223-3.483.46-4.703 2.908-2.775 4.43 1.928 1.52 5.892 2.124 9.482 1.981 1.44-.056 2.98-.248 3.881-.812.86-.539.93-1.279 1.29-1.944.81-1.489 3.35-2.709 6.358-3.053 1.697-.194 3.775-.209 4.686-.95 3.882 1.05 6.612 3.098 7.057 5.294 1.25.805 4.031-.233 3.76-1.244-.274-1.01-2.058-1.71-3.476-2.444-1.418-.732-2.6-1.87-1.49-2.725 6.634.975 11.996 3.857 13.46 7.236 2.313-.23 3.59-1.795 2.26-2.769.718-.806 3.352-.345 4.11.453.757.797.69 1.781 1.772 2.478 3.131 2.02 11.516-.443 14.081 1.766 1.797 1.548-2.254 3.353-5.833 3.298-3.579-.055-6.847-1.078-10.41-1.256-3.933-.196-7.754.65-11.68.878-3.926.228-8.765-.538-9.593-2.47-.223-.52-.133-1.093-.684-1.549-.784-.648-2.547-.798-4.05-.712-6.53.37-13.159 3.74-18.554 1.863-3.447 3.357-11.88 4.618-16.586 7.57-5.119 3.211-4.69 8.17.281 11.438 4.971 3.27 13.755 4.813 21.903 4.297 1.866-.117 3.832-.326 5.57.033 1.721.355 2.823 1.188 4.26 1.781 1.436.593 3.82.888 5.01.172-1.365 1.69-.986 3.704.983 5.237 2.126 1.654 6.09 2.962 6.006 4.928-.042 1.018-1.226 1.927-1.78 2.907-2.536 4.488 8.071 8.15 9.747 12.738.451 1.235.45 2.723 2.536 3.42.96.321 2.164.386 3.317.424 5.915.194 13.362-.686 14.592-3.586.348-.82.1-1.67.15-2.507.15-2.505 3.215-4.914 7.69-6.044 1.212-.307 2.547-.536 3.516-1.012 2.136-1.05 1.663-2.83.566-4.225-1.097-1.393-2.692-2.799-2.308-4.285.616-2.384 5.736-3.643 9.615-5.065 5.84-2.139 9.85-5.488 10.862-9.073-5.384.845-11.978 1.568-16.082-.369-1.422-.672-2.298-1.576-3.142-2.459a58353.67 58353.67 0 0 1-7.608-7.948c-.334-.349-.675-.748-.4-1.11.741-.984 3.695-.164 4.834.72 4.067 3.154 7.718 6.441 10.921 9.834 6.55-.594 12.816-1.957 18.152-3.947 1.704-.634 3.395-1.394 3.971-2.417.575-1.022-.482-2.333-2.575-2.515-.81-.07-1.634.032-2.452.075-4.938.258-9.229-1.623-12.458-3.509 2.213-1.24 6.234-.522 9.254.172 5.411 1.242 11.144 2.132 17.01 2.641 1.462.127 2.962.235 4.28.575.923.24 1.72.582 2.483.935 6.767 3.117 11.774 7.18 14.3 11.605 2.583.29 4.4-1.303 4.604-2.623.205-1.319-.105-2.842 1.796-3.764 1.492-.724 3.948-.823 5.258-1.63 1.651-1.019.788-2.734 2.717-3.62 2.418-1.113 6.328.247 7.618 1.757 1.29 1.511 1.76 3.368 4.476 4.292l4.393-.317c.023 3.707 2.596 7.398 7.188 10.308M219.991 66.712c.61-.872 1.03-1.787.988-2.71-.136-2.982-5.159-5.46-10.785-6.453-6.944-1.226-13.959-.457-21.085-.619-3.875-.088-8.156-.908-11.906-.12-5.784 1.213-4.086 4.065-7.876 5.758-3.279 1.464-9.33.315-11.966 2.326-1.852 1.413.222 3.34 2.917 4.357 2.696 1.018 6.07 1.63 8.202 2.94 3.426 2.106 2.452 5.22.575 7.768s-4.523 5.124-3.879 7.82c.304 1.272 1.341 2.478 2.694 3.565 1.31 1.052 3.096 2.066 5.507 2.356 3.065.37 6.17-.532 8.493-1.597 2.323-1.066 4.342-2.355 7.173-3.049 4.076-.999 9.321-.627 12.871-2.042 4.396-1.75 3.745-5.09 4.954-7.835 2.03-4.608 10.004-8.012 13.123-12.465m-40.092 85.23c-2.975-.827-6.542-.85-9.944-.899-3.402-.049-7.007-.178-9.786-1.159-2.546-.9-3.986-2.372-5.998-3.562-3.396-2.008-8.333-3.168-13.11-4.269-1.803-.415-3.826-.838-5.712-.528-.743.122-1.413.353-2.18.427-2.11.202-3.815-.795-5.705-1.305-3.922-1.058-9.554.475-9.904 2.696-2.028.35-5.785.048-6.936-.857-.828-.65-1.16-1.563-2.586-1.859-.762-.159-1.714-.099-2.334-.37-1.026-.453-.228-1.27-.044-1.949.292-1.08-1.322-2.11-3.292-2.58-1.969-.47-4.225-.509-6.406-.544-2.182-.035-4.44-.085-6.392-.573-3.799-.953-5.356-3.53-3.689-5.485 1.667-1.954 6.03-3.16 10.277-3.099 4.162.06 8.557 1.581 8.604 3.663.013.528 1.703.587 2.621.326.917-.26 1.396-.79 1.621-1.306.225-.515.257-1.052.572-1.556.73-1.166 3.094-2.024 5.538-2.01 2.55.014 4.34-1.258 6.15-2.156 1.81-.898 2.893-2.253 2.177-3.478-.385-.659-1.266-1.326-.825-1.977.345-.51 1.393-.806 2.387-1.015 2.751-.576 5.758-.846 8.74-.783 2.596.055 3.931-.76 5.256-1.88.958-.807 1.384-1.829 2.91-2.377 2.283-.82 5.44-.096 8.244-.19 4.094-.138 7.292-2.436 6.13-4.403-.554-.936-1.863-1.703-2.927-2.52-1.466-1.128-2.502-2.394-3.035-3.71-.49-1.212-.63-2.545-2.226-3.488-2.496.06-5.52.022-7.74.595-.439-1.27-.923-2.596-2.492-3.619-1.569-1.023-4.585-1.616-6.806-.96-2.17.64-2.64 2.128-2.238 3.372.401 1.244 1.432 2.448 1.365 3.707-.067 1.26-1.818 2.652-4.337 2.618-1.312-.018-2.487-.418-3.41-.885-1.323-.668-2.369-1.522-4.069-1.923-1.302-.308-2.802-.302-4.207-.459-4.79-.538-8.077-3.287-6.754-5.65 1.323-2.366 6.986-3.863 11.64-3.078 5.634-1.034 7.93-4.588 5.681-7.37-2.249-2.783-8.293-4.51-14.29-4.643-1.756-.038-3.544.04-5.247-.176-4.813-.609-7.332-3.255-11.52-4.588-2.756-.877-9.125-.037-12.18-.615a25.476 25.476 0 0 0-5.938-.388c-1.766.837-5.068 1.074-7.496 1.155-2.498-1.216-5.51-2.346-8.618-3.135-2.076-.528-4.5-1.084-5.142-2.203-1.023-1.788-7.143-2.509-10.772-2.099-4.6-.622-9.853.18-13.547 1.686-1.63.665.204 2.314 1.612 3.097 1.408.782 3.158 1.655 2.83 2.695-1.704.435-4.014.458-5.925.415-1.123-.026-2.277-.135-3.35.032-1.075.166-2.01.748-1.596 1.271-.738.643-1.626.98-.769 1.584.667.47 1.801.86 1.793 1.436-.007.46-.78.828-1.6 1.034-.82.207-1.743.31-2.518.556-2.425.771-2.447 2.505-2.189 3.935 1.568.963 1.813 2.62 1.06 3.803-.289.451-.752.93-.428 1.374.37.51 1.57.71 2.618.846 2.241.29 4.88.54 6.662-.199 4.702-1.945 12.001-.937 17.955-.267 2.056.231 4.22.61 5.421 1.476 1.602 1.154.918 2.756-.4 3.997-1.319 1.24-3.21 2.343-4.047 3.684-.783 1.257-.564 2.608-.338 3.92.28 1.615.618 3.316 2.491 4.64 1.963 1.388 3.2 3.46 3.043 5.157-.126 1.362-1.087 2.702-.837 4.061.453 2.463 4.711 4.311 9.053 5.497 4.545 1.241 8.463 3.353 10.03 5.821.786 1.24 1.02 2.55 1.713 3.803 1.2 2.17 3.806 4.141 7.33 5.541 2.568 1.021 6.784 1.383 10.011 1.677 1.674.153 3.48.274 4.742.844.582.264 1.003.605 1.561.881 2.697 1.334 7.663.786 10.391 2.105.704.34 1.187.776 1.806 1.155 1.665 1.02 4.372 1.59 6.995 1.474-.613 1.001 1.79 2.178 1.047 3.157-.598.79-2.403 1.137-3.644 1.71-2.152.992-2.487 2.691-1.559 4.08.928 1.39 2.888 2.537 4.85 3.625 3.641 2.02 8.018 3 11.967 4.867 3.66 1.731 4.493 4.533 3.688 7.02-.804 2.486-2.983 4.8-4.539 7.194-2.908 4.475-3.61 9.392-.832 13.887 2.78 4.495 9.286 8.502 18.006 10.27.964.195 2.148-.144 2.855-.525.707-.38.86-.993.363-1.45-1.575-1.448-4.374-2.684-6.416-3.978-.64-.407-1.318-.867-1.236-1.384.093-.58 1.092-.999 1.828-1.449 1.116-.683 1.72-1.57 1.672-2.452-.046-.829-1.012-1.64-.955-2.468.056-.829.951-1.702 2.521-1.969.716-.122 1.51-.11 2.201-.263 2.271-.5 1.91-2.233 3.552-3.164.762-.432 1.886-.647 2.924-.897 4.392-1.055 8.005-3.149 8.406-5.577.321-1.943-1.093-4.302 1.86-5.575 2.711-1.168 6.884-.393 10.418-.679 1.437-.117 2.396-.786 3.07-1.43.672-.647.75-1.415.507-2.132-.297-.884-1.055-1.747-.888-2.639.235-1.255 2.2-2.222 3.718-3.228 1.795-1.188 3.082-2.568 3.75-4.019.763-1.659-1.359-3.617-4.333-4.444"/>
        <path fill="#515DC6" d="M66 99a1 1 0 0 1-1-1V37a1 1 0 1 1 2 0v61a1 1 0 0 1-1 1"/>
        <path fill="#515DC6" d="M104.315 48l11.293-11.293a1 1 0 0 0-.707-1.707H65.985a1 1 0 0 0-1 1v24a1 1 0 0 0 1 1h48.916a1 1 0 0 0 .707-1.707L104.315 48z"/>
        <path fill="#FFF" d="M86.668 48.821c.608-1.973.978-3.209 1.106-3.709.032.141.084.332.156.574.072.242.395 1.287.97 3.135h-2.233zm2.208-5.039h-2.22l-3.024 8.602h1.957l.621-2.04h3.124l.62 2.04h1.958l-3.036-8.602zm-8.174 1.424c.314 0 .632.056.956.17.323.113.647.246.966.398l.587-1.476c-.84-.403-1.676-.604-2.508-.604-.817 0-1.529.18-2.137.536a3.518 3.518 0 0 0-1.397 1.541c-.323.67-.485 1.45-.485 2.341 0 1.414.33 2.5.99 3.255.66.756 1.612 1.134 2.858 1.134.868 0 1.654-.147 2.356-.44v-1.523c-.856.301-1.584.451-2.186.451-1.432 0-2.15-.955-2.15-2.865 0-.918.188-1.634.563-2.148.375-.513.905-.77 1.588-.77z"/>
        <path fill="#515DC6" d="M126.315 90l11.293-11.293a1 1 0 0 0-.707-1.707H87.985a1 1 0 0 0-1 1v24a1 1 0 0 0 1 1h48.916a1 1 0 0 0 .707-1.707L126.315 90z"/>
        <path fill="#515DC6" d="M88 119a1 1 0 0 1-1-1V77a1 1 0 1 1 2 0v41a1 1 0 0 1-1 1"/>
        <path fill="#FFF" d="M112.746 90.59c-.297-.385-.846-.77-1.646-1.151-.606-.29-.99-.49-1.152-.601a1.218 1.218 0 0 1-.354-.346.767.767 0 0 1-.112-.42c0-.256.092-.465.276-.626.183-.16.447-.24.79-.24.29 0 .584.037.883.112.298.074.676.205 1.133.392l.586-1.412a8.74 8.74 0 0 0-1.268-.445 5.01 5.01 0 0 0-1.275-.16c-.906 0-1.616.218-2.13.652-.513.433-.77 1.029-.77 1.787 0 .402.078.754.234 1.055.157.3.366.564.627.79.262.227.655.464 1.178.71.559.265.929.459 1.11.58.182.12.32.247.413.378.094.13.14.28.14.448 0 .3-.105.527-.318.68-.213.152-.52.228-.917.228-.332 0-.7-.053-1.1-.158-.4-.106-.89-.287-1.467-.545v1.688c.703.343 1.512.515 2.426.515.992 0 1.767-.223 2.323-.668.557-.445.835-1.055.835-1.828 0-.56-.148-1.03-.445-1.415zm-8.52.46c0 .664-.133 1.15-.401 1.462-.267.31-.698.466-1.292.466-.613 0-1.053-.155-1.318-.463-.266-.31-.4-.793-.4-1.453v-5.244h-1.81v5.519c0 .98.305 1.753.915 2.317.609.565 1.465.847 2.566.847.73 0 1.364-.127 1.899-.381a2.765 2.765 0 0 0 1.227-1.095c.283-.477.425-1.032.425-1.664v-5.543h-1.811v5.232z"/>
        <path fill="#515DC6" d="M273.315 77l11.293-11.293a1 1 0 0 0-.707-1.707h-48.916a1 1 0 0 0-1 1v24a1 1 0 0 0 1 1h48.916a1 1 0 0 0 .707-1.707L273.315 77z"/>
        <path fill="#515DC6" d="M235 106a1 1 0 0 1-1-1V64a1 1 0 1 1 2 0v41a1 1 0 0 1-1 1"/>
        <path fill="#FFF" d="M246.064 81.384h4.934v-1.5h-3.118v-2.21h2.901v-1.487h-2.901v-1.881h3.118v-1.488h-4.934v8.566zm11.883-8.566v5.232c0 .664-.134 1.15-.402 1.462-.267.31-.698.466-1.292.466-.613 0-1.052-.155-1.318-.463-.266-.31-.398-.793-.398-1.453v-5.244h-1.811v5.519c0 .98.305 1.753.914 2.318.61.564 1.465.846 2.567.846.73 0 1.363-.127 1.898-.381a2.773 2.773 0 0 0 1.228-1.095c.283-.477.424-1.032.424-1.664v-5.543h-1.81z"/>
        <path fill="#515DC6" d="M452.315 144l11.293-11.293a1 1 0 0 0-.707-1.707h-48.916a1 1 0 0 0-1 1v24a1 1 0 0 0 1 1h48.916a1 1 0 0 0 .707-1.707L452.315 144z"/>
        <path fill="#515DC6" d="M414 173a1 1 0 0 1-1-1v-41a1 1 0 1 1 2 0v41a1 1 0 0 1-1 1"/>
        <path fill="#FFF" d="M438.505 139.817v5.232c0 .664-.134 1.152-.4 1.462-.269.311-.7.466-1.293.466-.614 0-1.053-.154-1.319-.463-.265-.308-.398-.793-.398-1.453v-5.244h-1.81v5.52c0 .98.304 1.752.913 2.317.61.564 1.465.847 2.567.847.73 0 1.363-.127 1.898-.38a2.764 2.764 0 0 0 1.228-1.097c.283-.477.425-1.03.425-1.664v-5.543h-1.81zm-11.484 5.004c.61-1.973.978-3.209 1.107-3.709.031.141.083.332.155.574.073.242.396 1.287.97 3.135h-2.232zm-.012-5.039l-3.024 8.601h1.957l.622-2.039h3.123l.621 2.04h1.957l-3.035-8.602h-2.22z"/>
    </g>
</svg>
