<svg width="139" height="40" viewBox="0 0 139 40" fill="none" xmlns="http://www.w3.org/2000/svg">
<path d="M0 40H14.0813C14.0813 35.2957 14.0813 30.5914 14.0813 25.887C9.38755 25.887 4.69378 25.887 0 25.887V40ZM0 24.4833H14.0813C14.0813 19.779 14.0813 15.0747 14.0813 10.3704H0V24.4833ZM60.4513 21.3345C60.4513 25.5835 60.4513 29.8326 60.4513 34.0817H63.4795C63.4795 29.8326 63.4795 25.5835 63.4795 21.3345C62.4575 21.3345 61.4355 21.3345 60.4513 21.3345ZM53.3349 16.2887C51.5937 20.6895 49.7768 25.0524 47.9977 29.4153C47.6191 28.5427 47.3163 27.6701 46.9378 26.7975C45.5751 23.3072 44.1745 19.779 42.8118 16.2887H38.383C38.383 22.207 38.383 28.1254 38.383 34.0817C39.3293 34.0817 40.3135 34.0817 41.2598 34.0817C41.2598 31.426 41.2598 28.7703 41.2598 26.1147C41.2598 24.2178 41.222 22.2829 41.2598 20.3481C41.2977 20.4239 41.3734 20.5378 41.4112 20.6136C43.2282 25.0903 45.0073 29.567 46.8242 34.0437C47.5434 34.0437 48.3005 34.0437 49.0197 34.0437C50.7609 29.567 52.5779 25.0903 54.3191 20.6136C54.357 20.4998 54.4327 20.4239 54.4705 20.3481C54.4705 20.5378 54.5084 20.7275 54.4705 20.9551C54.4705 25.318 54.4705 29.7188 54.4705 34.0817C55.4926 34.0817 56.5146 34.0817 57.5366 34.0817C57.5366 28.1633 57.5366 22.245 57.5366 16.2887C56.1739 16.2887 54.7355 16.2887 53.3349 16.2887ZM15.4819 40H29.5632V25.887C24.8694 25.887 20.1757 25.887 15.4819 25.887C15.4819 30.5914 15.5197 35.2957 15.4819 40ZM15.5197 24.4833C20.2135 24.4833 24.9073 24.4833 29.6011 24.4833C29.6011 19.779 29.6011 15.0747 29.6011 10.3704H15.4819C15.4819 15.0747 15.4819 19.779 15.5197 24.4833ZM71.9965 23.5349C73.2456 23.3831 74.4948 23.8384 75.479 24.5971C75.479 23.6107 75.479 22.6623 75.479 21.6759C75.214 21.5242 74.9112 21.4103 74.6083 21.2965C73.1321 20.8792 71.5422 20.8792 70.1038 21.2965C68.7411 21.6759 67.5298 22.5105 66.7349 23.6866C65.7886 25.0524 65.4479 26.7596 65.5236 28.4289C65.5993 30.0223 66.205 31.5777 67.3784 32.6779C68.4383 33.7023 69.8767 34.2713 71.353 34.3472C72.7914 34.4231 74.2677 34.2334 75.5168 33.4746C75.5168 32.5641 75.5168 31.6157 75.5168 30.7052C74.7219 31.2742 73.7756 31.7295 72.7914 31.8433C71.7694 31.9192 70.7095 31.6916 69.9524 31.0087C69.1954 30.3637 68.8168 29.4153 68.7411 28.4668C68.6276 27.2528 68.779 25.925 69.536 24.9386C70.0281 24.1419 70.9745 23.6487 71.9965 23.5349ZM119.426 21.7138C118.026 21.031 116.436 20.9171 114.922 21.1068C113.711 21.2586 112.499 21.7138 111.553 22.5485C110.417 23.5349 109.736 24.9765 109.547 26.4561C109.357 27.9357 109.433 29.4911 110.039 30.8949C110.607 32.2606 111.742 33.3608 113.143 33.892C114.505 34.4231 116.02 34.499 117.42 34.2713C118.859 34.0437 120.259 33.247 121.168 32.0709C122.114 30.8569 122.53 29.2635 122.53 27.746C122.568 26.7217 122.417 25.6594 122.076 24.711C121.584 23.4211 120.638 22.3209 119.426 21.7138ZM119.313 28.998C119.199 29.6808 118.972 30.3258 118.518 30.8569C118.064 31.3881 117.42 31.7295 116.739 31.8054C116.02 31.9192 115.263 31.8433 114.581 31.5777C113.862 31.2742 113.294 30.6293 112.991 29.9085C112.613 29.0359 112.575 28.0495 112.613 27.139C112.689 26.2285 112.953 25.318 113.521 24.5971C114.051 23.9522 114.884 23.5728 115.755 23.5349C116.625 23.459 117.534 23.6866 118.177 24.2557C118.783 24.7489 119.124 25.5077 119.275 26.2664C119.464 27.1769 119.464 28.0874 119.313 28.998ZM106.102 27.139C105.194 26.6079 104.172 26.3802 103.301 25.8112C102.809 25.5077 102.657 24.7868 102.847 24.2557C103.112 23.7246 103.717 23.459 104.285 23.459C105.421 23.4211 106.556 23.7625 107.465 24.4074C107.465 23.459 107.465 22.5485 107.465 21.6C106.14 21.1068 104.664 20.9171 103.263 21.1448C102.09 21.3724 100.916 21.9794 100.235 23.0037C99.6292 23.8763 99.5535 25.0145 99.8185 26.0388C99.9699 26.7217 100.386 27.3287 100.954 27.7839C101.749 28.3909 102.695 28.7324 103.566 29.1497C104.058 29.3773 104.55 29.605 104.891 30.0223C105.269 30.5534 105.156 31.4639 104.512 31.7674C103.869 32.0709 103.112 32.0709 102.43 31.9571C101.446 31.7674 100.5 31.3501 99.6671 30.781C99.6671 31.7674 99.6671 32.7538 99.6671 33.7402C100.651 34.1575 101.711 34.3852 102.771 34.461C104.247 34.499 105.875 34.2334 107.011 33.1711C108.184 32.1468 108.487 30.2878 107.805 28.8841C107.465 28.0495 106.783 27.5184 106.102 27.139ZM138.429 23.8004V21.3345C137.407 21.3345 136.422 21.3345 135.4 21.3345C135.362 20.0446 135.4 18.7926 135.4 17.5027C134.378 17.8062 133.394 18.1097 132.372 18.4132C132.334 19.3617 132.372 20.3481 132.372 21.2965C130.896 21.2965 129.42 21.2965 127.905 21.2965C127.905 20.5378 127.868 19.779 127.943 19.0202C128.019 18.4132 128.36 17.8442 128.965 17.6165C129.685 17.313 130.517 17.5027 131.199 17.8062C131.199 16.9336 131.199 16.0611 131.199 15.1885C129.722 14.7712 128.057 14.8471 126.77 15.7196C125.937 16.2508 125.331 17.1233 125.066 18.0718C124.726 19.1341 124.915 20.2343 124.839 21.3345C124.12 21.3345 123.439 21.3345 122.72 21.3345C122.72 22.1312 122.72 22.9658 122.72 23.7625C123.439 23.7625 124.12 23.7625 124.839 23.7625C124.839 27.1769 124.839 30.6293 124.839 34.0437H127.868C127.868 30.6293 127.868 27.1769 127.868 23.7625C129.344 23.7625 130.82 23.7625 132.334 23.7625C132.334 25.9629 132.334 28.1254 132.334 30.3258C132.334 31.3501 132.523 32.4124 133.205 33.247C133.773 33.9678 134.719 34.2713 135.59 34.3472C136.536 34.4231 137.52 34.3093 138.353 33.9299V31.426C137.672 31.8812 136.763 32.033 136.044 31.6536C135.627 31.426 135.438 30.8949 135.4 30.4396C135.325 29.6429 135.362 28.8462 135.362 28.0874C135.362 26.6458 135.362 25.2421 135.362 23.8004C136.422 23.8004 137.444 23.7625 138.429 23.8004ZM82.2547 21.5242C81.4976 21.9415 81.0055 22.7382 80.6648 23.5349C80.6648 22.814 80.6648 22.0932 80.6648 21.3345C79.6807 21.3345 78.6586 21.3345 77.6744 21.3345C77.6744 25.5835 77.6744 29.8326 77.6744 34.0817H80.6648C80.6648 32.033 80.6648 30.0223 80.6648 27.9736C80.627 27.101 80.7027 26.1905 81.0812 25.3559C81.4219 24.5971 82.1032 23.9143 82.9739 23.8384C83.6931 23.7625 84.4123 23.9143 85.0179 24.3316C85.0179 23.3072 85.0179 22.2829 85.0179 21.2965C84.1852 20.993 83.0874 21.031 82.2547 21.5242ZM61.7005 15.9093C60.8677 16.0231 60.1485 16.7819 60.1485 17.6545C60.1106 18.4891 60.7541 19.2099 61.549 19.3617C62.3061 19.5134 63.1767 19.2099 63.5553 18.527C63.8959 17.92 63.8202 17.0854 63.3281 16.5543C62.9875 16.0231 62.3061 15.8334 61.7005 15.9093ZM95.049 21.6C93.6863 20.993 92.1722 20.9171 90.6959 21.0689C89.1439 21.2586 87.6676 21.9794 86.6835 23.1934C85.8128 24.2936 85.3586 25.6973 85.2829 27.101C85.1693 28.7324 85.4343 30.4775 86.3806 31.8433C87.2134 33.0194 88.5004 33.854 89.901 34.1575C91.0744 34.3852 92.2857 34.4231 93.4592 34.1575C94.8219 33.892 96.1089 33.1332 96.9416 31.9951C97.7744 30.9328 98.1908 29.605 98.2665 28.2771C98.3801 26.9114 98.2286 25.5076 97.6608 24.2557C97.1688 23.1176 96.2224 22.1312 95.049 21.6ZM94.7462 30.174C94.4433 30.819 93.9134 31.3881 93.2699 31.6536C92.475 31.9571 91.6044 31.9571 90.8094 31.7674C89.9767 31.5398 89.2953 30.9707 88.9168 30.174C88.4247 29.1876 88.349 28.0495 88.4626 26.9872C88.5383 26.0008 88.8789 25.0145 89.636 24.3316C90.1659 23.8384 90.923 23.5728 91.6422 23.5349C92.5507 23.459 93.5349 23.7246 94.1784 24.4074C94.8976 25.0903 95.1625 26.1147 95.2383 27.0631C95.2383 28.0874 95.2004 29.1876 94.7462 30.174Z" fill="#282C4C"/>
</svg>
