<svg width="40" height="40" viewBox="0 0 40 40" fill="none" xmlns="http://www.w3.org/2000/svg">
<mask id="mask0" mask-type="alpha" maskUnits="userSpaceOnUse" x="0" y="0" width="39" height="40">
<path fill-rule="evenodd" clip-rule="evenodd" d="M0 0.000244141H38.3748V40H0V0.000244141Z" fill="white"/>
</mask>
<g mask="url(#mask0)">
<path fill-rule="evenodd" clip-rule="evenodd" d="M20.821 40.0002C20.48 40.0002 20.144 39.9092 19.849 39.7392L4.23797 30.7112C3.63897 30.3652 3.26697 29.7202 3.26697 29.0282V23.1992C2.25397 22.7282 1.56597 22.0912 0.924971 21.0632C0.284971 20.0382 -0.305029 18.8262 0.175971 17.6152C0.508971 16.7772 1.26897 16.1982 2.43397 15.8952C2.47497 15.8832 2.77897 15.8032 3.26697 15.6732V10.9712C3.26697 10.2792 3.63897 9.63524 4.23797 9.28924L19.85 0.260244C20.144 0.0902441 20.48 0.000244141 20.821 0.000244141C21.162 0.000244141 21.498 0.0902441 21.793 0.260244L37.405 9.28924C38.003 9.63524 38.375 10.2792 38.375 10.9712V29.0282C38.375 29.7202 38.003 30.3642 37.405 30.7102L21.793 39.7392C21.498 39.9092 21.162 40.0002 20.821 40.0002Z" fill="#9395A5"/>
</g>
<path fill-rule="evenodd" clip-rule="evenodd" d="M12.925 18.3851C13 18.3771 13.072 18.3651 13.134 18.3441C13.193 18.3251 13.248 18.3021 13.302 18.2771C13.513 18.1761 13.683 18.0391 13.849 17.9321C13.931 17.8791 14.013 17.8321 14.1 17.8021C14.143 17.7861 14.187 17.7751 14.233 17.7681C14.233 17.7681 13.762 17.5061 13.5 17.4011C13.467 17.3881 13.433 17.3721 13.395 17.3571C13.357 17.3411 13.318 17.3241 13.275 17.3101C13.19 17.2811 13.095 17.2571 12.99 17.2571C12.918 17.2571 12.841 17.2691 12.759 17.2971C12.677 17.3241 12.591 17.3681 12.5 17.4331C12.52 17.4311 12.538 17.4271 12.559 17.4271C12.634 17.4271 12.706 17.4431 12.773 17.4701C12.817 17.4891 12.858 17.5141 12.895 17.5441C12.912 17.5571 12.93 17.5721 12.946 17.5881V17.5891C12.996 17.6381 13.036 17.6981 13.065 17.7641C13.092 17.8291 13.108 17.9021 13.108 17.9781C13.108 18.0991 13.068 18.2111 13 18.3021C12.978 18.3321 12.952 18.3601 12.925 18.3851Z" fill="#9395A5"/>
<path fill-rule="evenodd" clip-rule="evenodd" d="M29.0302 14.6283C27.5242 13.5543 25.7512 12.8633 24.0632 12.4193C23.2862 12.2363 22.5782 12.0823 22.1522 12.0143C21.6542 11.9353 20.6472 11.7843 19.6552 11.6913C19.0262 11.6433 18.5242 11.6273 18.2052 11.6223C18.1322 11.6303 18.0602 11.6363 17.9942 11.6363C17.9562 11.6363 17.9252 11.6343 17.8972 11.6323C17.3412 11.6703 16.8202 11.7253 16.3452 11.7903C12.7032 12.2873 7.83116 16.0843 6.49316 16.4343C6.03616 16.5533 5.60516 16.6673 5.20916 16.7713C4.83016 16.8713 4.48316 16.9623 4.17816 17.0433C3.81516 17.1393 3.51116 17.2193 3.28516 17.2793C3.48916 17.4743 3.93616 17.9193 4.17816 18.2923C4.26016 18.4183 4.31816 18.5363 4.33616 18.6333C4.36416 18.7893 4.29116 19.1523 4.17816 19.5763C3.97916 20.3253 3.65716 21.2643 3.54616 21.5863C3.73216 21.6983 3.94216 21.8013 4.17816 21.8983C4.18316 21.8993 4.18816 21.9023 4.19316 21.9043C4.24116 21.9133 4.29516 21.9223 4.35416 21.9333C4.38616 21.9393 4.41916 21.9453 4.45416 21.9513C4.55516 21.9693 4.83016 22.0043 5.20916 22.0433C6.21516 22.1483 7.96316 22.2853 9.22216 22.2393C9.55416 22.2273 9.87416 22.2113 10.1792 22.1963C11.5472 22.1303 12.6262 22.0783 13.4212 22.3803C13.5212 22.4193 13.5712 22.5303 13.5332 22.6303C13.5042 22.7073 13.4302 22.7553 13.3522 22.7553C13.3302 22.7553 13.3062 22.7513 13.2842 22.7423C12.5642 22.4683 11.5202 22.5193 10.1982 22.5833C9.89016 22.5983 9.57016 22.6133 9.23716 22.6263C8.41216 22.6563 7.33316 22.5903 6.40316 22.5113C7.12116 22.6543 7.97416 22.7953 9.00516 22.9483C9.20416 22.9783 9.39716 23.0093 9.58816 23.0403C10.7622 23.1343 13.2952 23.3163 16.4412 23.4323C20.8202 23.5933 25.8112 25.5613 28.8702 27.3993C30.5642 28.4173 32.5352 29.6043 33.9572 30.4603L34.8852 29.9223L34.4242 30.1903L34.9232 29.9013C31.7002 24.5943 27.5972 21.7663 25.8762 21.5623C23.9752 21.3363 23.0742 21.2393 22.9772 20.9493C22.8812 20.6583 23.2352 20.3363 23.2352 20.3363C22.8162 20.5943 22.2692 20.4003 22.2692 20.4003C22.4952 20.2393 22.5272 19.8533 22.5272 19.8533C22.2052 20.0783 21.2712 20.2073 21.2712 20.2073C21.4322 19.9173 21.4652 19.3693 21.4652 19.3693C21.0462 19.8203 18.8562 20.4333 16.6672 20.9493C14.4772 21.4653 9.80916 20.9493 8.97216 20.8843C8.13416 20.8203 8.23116 20.9493 8.00716 21.5293C7.78116 22.1103 7.16916 21.4003 6.59016 20.9813C6.00916 20.5623 5.30116 19.5943 5.94616 18.9173C6.59016 18.2403 10.6782 16.1443 14.3812 15.0153C18.0842 13.8863 19.8222 14.1443 20.9172 14.3053C21.2392 14.3533 21.6542 14.4203 22.1312 14.5493C22.2232 14.5133 22.3192 14.4793 22.4212 14.4493C22.7972 14.3423 23.3672 14.2133 23.9512 14.2133C25.2112 14.2133 25.7132 14.7983 25.9112 15.2893C26.0952 15.7443 26.4182 16.6153 26.5092 17.3513C28.8612 19.4163 35.4322 20.0353 35.3082 19.7553C35.1792 19.4653 32.9402 17.4153 29.0302 14.6283Z" fill="#9395A5"/>
<path fill-rule="evenodd" clip-rule="evenodd" d="M12.8307 17.5829C12.8437 17.5819 12.8537 17.5789 12.8667 17.5789C12.8927 17.5789 12.9187 17.5829 12.9427 17.5879C12.9277 17.5719 12.9097 17.5579 12.8927 17.5439C12.8727 17.5549 12.8517 17.5679 12.8307 17.5829Z" fill="white"/>
<path fill-rule="evenodd" clip-rule="evenodd" d="M25.0009 17.2038C24.9039 17.2958 24.7849 17.3858 24.6519 17.4338C24.6519 17.4338 25.2309 18.1108 25.7469 18.2398C25.7859 18.2498 25.8219 18.2548 25.8549 18.2548C26.0009 18.2548 26.0859 18.1618 26.1259 18.0078C26.1329 17.9828 26.1379 17.9548 26.1429 17.9258C26.1499 17.8678 26.1539 17.8038 26.1539 17.7338C26.1529 17.5598 26.1259 17.3538 26.0819 17.1328C26.0639 17.0438 26.0439 16.9538 26.0209 16.8608C25.9899 16.7368 25.9559 16.6098 25.9189 16.4838C25.8819 16.3578 25.8429 16.2318 25.8019 16.1098C25.7199 15.8648 25.6339 15.6318 25.5539 15.4338C25.5219 15.3568 25.4839 15.2858 25.4409 15.2198C25.3549 15.0898 25.2479 14.9828 25.1239 14.8968C25.0619 14.8548 24.9949 14.8168 24.9249 14.7848C24.6459 14.6538 24.3079 14.6008 23.9509 14.6008C23.8549 14.6008 23.7579 14.6048 23.6599 14.6118C23.3669 14.6338 23.0689 14.6848 22.7849 14.7538C22.6969 14.7748 22.6109 14.7978 22.5269 14.8218C22.0339 14.9628 21.6639 15.2088 21.4039 15.4408C21.3299 15.5068 21.2649 15.5728 21.2079 15.6338C21.1799 15.6638 21.1529 15.6938 21.1299 15.7228C21.0809 15.7788 21.0419 15.8298 21.0109 15.8738C20.9469 15.9598 20.9169 16.0148 20.9169 16.0148C20.9169 16.0148 20.9079 16.0248 20.8959 16.0398C20.8879 16.0508 20.8779 16.0638 20.8679 16.0788C20.8579 16.0938 20.8499 16.1098 20.8419 16.1268C20.8299 16.1528 20.8219 16.1798 20.8249 16.2038C20.8259 16.2198 20.8319 16.2358 20.8439 16.2478C20.8669 16.2738 20.9139 16.2918 20.9979 16.2918C21.0759 16.2918 21.1849 16.2768 21.3359 16.2408C21.6239 16.1708 21.9659 16.0238 22.2899 15.8498C22.8299 15.5618 23.3219 15.2038 23.4389 15.0218C23.4469 15.0078 23.4559 14.9948 23.4609 14.9828C23.4609 14.9828 23.4619 14.9878 23.4649 14.9978C23.4679 15.0078 23.4719 15.0218 23.4769 15.0398C23.4889 15.0908 23.5079 15.1748 23.5219 15.2768C23.5239 15.2858 23.5249 15.2948 23.5259 15.3048C23.5499 15.4838 23.5559 15.7128 23.4929 15.9178C23.4929 15.9178 23.5159 15.9258 23.5539 15.9328C23.5929 15.9408 23.6469 15.9488 23.7089 15.9488C23.8099 15.9488 23.9329 15.9288 24.0459 15.8558C24.1139 15.8118 24.1789 15.7488 24.2329 15.6598C24.2329 15.6598 24.2659 15.7168 24.2859 15.8008C24.3009 15.8648 24.3099 15.9438 24.2919 16.0268C24.2859 16.0548 24.2769 16.0828 24.2659 16.1118C24.2659 16.1118 24.2689 16.1128 24.2739 16.1138C24.2929 16.1188 24.3359 16.1268 24.3939 16.1268C24.5079 16.1268 24.6779 16.0918 24.8129 15.9178C24.8129 15.9178 24.8109 15.9348 24.8049 15.9638C24.8009 15.9838 24.7949 16.0088 24.7869 16.0368C24.7829 16.0518 24.7789 16.0668 24.7739 16.0828C24.7589 16.1318 24.7379 16.1868 24.7119 16.2458C24.6929 16.2838 24.6729 16.3238 24.6479 16.3628C24.6369 16.3828 24.6229 16.4018 24.6089 16.4218C24.5809 16.4598 24.5499 16.4968 24.5139 16.5328C24.4789 16.5668 24.4389 16.5998 24.3949 16.6278C24.3949 16.6278 24.5009 16.6988 24.6459 16.7698C24.7899 16.8408 24.9729 16.9118 25.1239 16.9118C25.1749 16.9118 25.2229 16.9038 25.2639 16.8858C25.2639 16.8858 25.2279 16.9448 25.1629 17.0248C25.1209 17.0788 25.0659 17.1418 25.0009 17.2038Z" fill="#9395A5"/>
<path fill-rule="evenodd" clip-rule="evenodd" d="M18.5555 10.9574C18.5995 10.9374 18.6575 10.9074 18.7335 10.8644L18.5555 10.9574Z" fill="#C2202A"/>
<path fill-rule="evenodd" clip-rule="evenodd" d="M22.247 10.2738L22.312 10.1148L22.335 10.1328L22.446 10.2218C22.461 10.2338 22.517 10.2798 22.58 10.3508C22.622 10.3978 22.668 10.4558 22.707 10.5218C22.726 10.5548 22.743 10.5898 22.758 10.6258C22.787 10.6988 22.805 10.7778 22.801 10.8608C22.833 10.8488 22.876 10.8268 22.921 10.8028C22.965 10.7778 23.011 10.7508 23.049 10.7288C23.119 10.6868 23.191 10.6448 23.259 10.6108L23.419 10.5298L23.443 10.7088C23.452 10.7708 23.5 10.9598 23.602 11.0158C23.621 11.0258 23.638 11.0308 23.651 11.0308C23.676 11.0308 23.703 11.0048 23.725 10.9558C23.746 10.9058 23.763 10.8318 23.767 10.7358C23.768 10.7128 23.769 10.6858 23.77 10.6568C23.774 10.6088 23.779 10.5558 23.787 10.5028C23.792 10.4688 23.799 10.4348 23.807 10.4018C23.74 10.3498 23.672 10.2978 23.603 10.2468C23.124 9.8928 22.629 9.5948 22.338 9.5298C22.305 9.5228 22.269 9.5188 22.231 9.5188C21.957 9.5188 21.588 9.7088 21.158 9.9878C21.029 10.0718 20.894 10.1638 20.755 10.2618C20.615 10.3588 20.472 10.4618 20.324 10.5668C20.234 10.6308 20.139 10.6978 20.046 10.7638C19.953 10.8298 19.863 10.8948 19.768 10.9608C19.72 10.9938 19.666 11.0318 19.609 11.0728C19.592 11.0858 19.573 11.0988 19.555 11.1118C19.536 11.1248 19.518 11.1378 19.5 11.1508C19.53 11.1518 19.561 11.1518 19.595 11.1518C20.506 11.1518 22.028 10.8018 22.247 10.2738Z" fill="#9395A5"/>
<path fill-rule="evenodd" clip-rule="evenodd" d="M36.4323 18.6234C33.6483 15.9044 30.6783 13.8794 27.6003 12.6044C27.5783 12.5894 27.5563 12.5754 27.5343 12.5654C26.4813 11.9794 25.4963 11.1444 25.1323 10.7364C24.5033 10.0324 23.1783 9.05638 22.4773 8.90038C22.3993 8.88238 22.3163 8.87338 22.2313 8.87338C21.5863 8.87338 20.8643 9.38938 19.9503 10.0414C19.7733 10.1684 19.5893 10.2994 19.4003 10.4314C19.0873 10.6484 18.8753 10.7814 18.7313 10.8644C18.6553 10.9074 18.5973 10.9374 18.5533 10.9574C18.4373 10.9614 18.3203 10.9654 18.2033 10.9714C17.5353 11.0044 16.8983 11.0634 16.2583 11.1514C13.7273 11.4974 10.7493 13.2834 8.57534 14.5874C7.60933 15.1664 6.69733 15.7134 6.32933 15.8104C5.93634 15.9134 5.56033 16.0124 5.20833 16.1044V10.9714L20.8203 1.94338L36.4323 10.9714V18.6234ZM19.4993 11.1504C19.5173 11.1374 19.5363 11.1244 19.5543 11.1114C19.5733 11.0984 19.5913 11.0854 19.6093 11.0724C19.6653 11.0324 19.7193 10.9944 19.7673 10.9614C19.8633 10.8944 19.9533 10.8304 20.0453 10.7644C20.1383 10.6984 20.2343 10.6314 20.3243 10.5674C20.4713 10.4614 20.6153 10.3584 20.7543 10.2614C20.8943 10.1644 21.0293 10.0724 21.1583 9.98838C21.5873 9.70838 21.9563 9.51938 22.2313 9.51938C22.2693 9.51938 22.3043 9.52238 22.3373 9.52938C22.6283 9.59438 23.1233 9.89238 23.6033 10.2474C23.6713 10.2974 23.7403 10.3494 23.8063 10.4014C23.7983 10.4344 23.7913 10.4684 23.7863 10.5024C23.7793 10.5564 23.7743 10.6084 23.7703 10.6564C23.7693 10.6864 23.7673 10.7124 23.7663 10.7364C23.7623 10.8314 23.7453 10.9054 23.7243 10.9554C23.7033 11.0054 23.6753 11.0314 23.6513 11.0314C23.6373 11.0314 23.6203 11.0254 23.6023 11.0164C23.4993 10.9594 23.4523 10.7704 23.4433 10.7084L23.4183 10.5304L23.2583 10.6104C23.1913 10.6444 23.1193 10.6864 23.0483 10.7284C23.0103 10.7504 22.9643 10.7774 22.9203 10.8024C22.8753 10.8274 22.8323 10.8484 22.8003 10.8604C22.8043 10.7784 22.7863 10.6994 22.7573 10.6254C22.7433 10.5894 22.7253 10.5544 22.7063 10.5214C22.6673 10.4564 22.6213 10.3974 22.5793 10.3504C22.5163 10.2794 22.4603 10.2334 22.4463 10.2224L22.3343 10.1324L22.3123 10.1154L22.2463 10.2734C22.0283 10.8014 20.5053 11.1524 19.5943 11.1524C19.5613 11.1524 19.5303 11.1514 19.4993 11.1504ZM13.0633 17.7644C13.0353 17.6984 12.9953 17.6384 12.9453 17.5884C12.9453 17.5884 12.9453 17.5884 12.9443 17.5884C12.9193 17.5824 12.8943 17.5794 12.8683 17.5794C12.8553 17.5794 12.8443 17.5814 12.8313 17.5824C12.8533 17.5674 12.8733 17.5554 12.8933 17.5434C12.8563 17.5144 12.8153 17.4894 12.7713 17.4704C12.7043 17.4424 12.6323 17.4274 12.5573 17.4274C12.5363 17.4274 12.5183 17.4314 12.4983 17.4334C12.5893 17.3684 12.6753 17.3244 12.7573 17.2964C12.8393 17.2694 12.9163 17.2574 12.9893 17.2574C13.0933 17.2574 13.1883 17.2804 13.2733 17.3104C13.3163 17.3244 13.3553 17.3404 13.3933 17.3564C13.4313 17.3724 13.4653 17.3884 13.4983 17.4014C13.7603 17.5064 14.2313 17.7684 14.2313 17.7684C14.1853 17.7744 14.1413 17.7864 14.0983 17.8014C14.0113 17.8324 13.9293 17.8784 13.8473 17.9324C13.6813 18.0394 13.5113 18.1764 13.3003 18.2764C13.2463 18.3024 13.1913 18.3254 13.1323 18.3444C13.0713 18.3654 12.9983 18.3774 12.9233 18.3854C12.9513 18.3604 12.9763 18.3324 12.9983 18.3024C13.0663 18.2114 13.1063 18.0994 13.1063 17.9774C13.1063 17.9014 13.0903 17.8294 13.0633 17.7644ZM25.1233 16.9124C24.9723 16.9124 24.7893 16.8414 24.6453 16.7694C24.5003 16.6984 24.3943 16.6274 24.3943 16.6274C24.4383 16.5994 24.4783 16.5674 24.5133 16.5324C24.5493 16.4974 24.5803 16.4594 24.6093 16.4214C24.6223 16.4024 24.6363 16.3824 24.6483 16.3634C24.6723 16.3234 24.6933 16.2844 24.7113 16.2454C24.7383 16.1874 24.7583 16.1314 24.7743 16.0834C24.7793 16.0674 24.7833 16.0514 24.7863 16.0374C24.7943 16.0084 24.8003 15.9834 24.8043 15.9644C24.8103 15.9354 24.8123 15.9184 24.8123 15.9184C24.6773 16.0924 24.5073 16.1274 24.3933 16.1274C24.3353 16.1274 24.2923 16.1184 24.2743 16.1144C24.2683 16.1124 24.2653 16.1114 24.2653 16.1114C24.2773 16.0834 24.2863 16.0554 24.2913 16.0274C24.3093 15.9444 24.3003 15.8644 24.2863 15.8014C24.2653 15.7164 24.2333 15.6604 24.2333 15.6604C24.1783 15.7484 24.1143 15.8114 24.0453 15.8554C23.9323 15.9284 23.8093 15.9484 23.7083 15.9484C23.6463 15.9484 23.5923 15.9414 23.5533 15.9334C23.5153 15.9254 23.4933 15.9184 23.4933 15.9184C23.5553 15.7124 23.5493 15.4844 23.5263 15.3054C23.5253 15.2954 23.5243 15.2864 23.5223 15.2764C23.5073 15.1754 23.4893 15.0914 23.4763 15.0404C23.4713 15.0214 23.4673 15.0074 23.4643 14.9984C23.4613 14.9884 23.4603 14.9834 23.4603 14.9834C23.4553 14.9944 23.4473 15.0084 23.4383 15.0224C23.3223 15.2044 22.8293 15.5624 22.2893 15.8504C21.9653 16.0234 21.6233 16.1714 21.3353 16.2404C21.1843 16.2764 21.0763 16.2914 20.9973 16.2914C20.9133 16.2914 20.8673 16.2744 20.8433 16.2484C20.8313 16.2354 20.8263 16.2204 20.8253 16.2044C20.8223 16.1794 20.8293 16.1534 20.8413 16.1274C20.8493 16.1104 20.8583 16.0944 20.8683 16.0794C20.8773 16.0644 20.8873 16.0514 20.8953 16.0404C20.9083 16.0244 20.9163 16.0154 20.9163 16.0154C20.9163 16.0154 20.9473 15.9604 21.0103 15.8734C21.0413 15.8304 21.0803 15.7794 21.1293 15.7224C21.1533 15.6944 21.1793 15.6644 21.2073 15.6334C21.2643 15.5724 21.3293 15.5074 21.4043 15.4414C21.6633 15.2084 22.0343 14.9624 22.5273 14.8214C22.6113 14.7974 22.6973 14.7754 22.7853 14.7544C23.0693 14.6854 23.3673 14.6334 23.6603 14.6114C23.7573 14.6044 23.8553 14.6014 23.9513 14.6014C24.3073 14.6014 24.6453 14.6534 24.9243 14.7844C24.9943 14.8174 25.0613 14.8544 25.1233 14.8974C25.2473 14.9834 25.3553 15.0894 25.4413 15.2204C25.4843 15.2854 25.5213 15.3564 25.5533 15.4344C25.6333 15.6324 25.7193 15.8644 25.8013 16.1094C25.8423 16.2324 25.8813 16.3574 25.9183 16.4844C25.9553 16.6104 25.9903 16.7364 26.0203 16.8614C26.0433 16.9534 26.0643 17.0444 26.0813 17.1324C26.1253 17.3534 26.1533 17.5604 26.1543 17.7344C26.1543 17.8034 26.1503 17.8684 26.1423 17.9264C26.1373 17.9554 26.1323 17.9824 26.1253 18.0084C26.0853 18.1624 26.0003 18.2544 25.8553 18.2544C25.8223 18.2544 25.7863 18.2494 25.7463 18.2404C25.2313 18.1114 24.6523 17.4344 24.6523 17.4344C24.7853 17.3854 24.9043 17.2964 25.0003 17.2044C25.0663 17.1424 25.1203 17.0794 25.1623 17.0254C25.2273 16.9444 25.2633 16.8854 25.2633 16.8854C25.2223 16.9044 25.1743 16.9124 25.1233 16.9124ZM26.5093 17.3514C26.4173 16.6154 26.0953 15.7444 25.9113 15.2894C25.7123 14.7984 25.2103 14.2134 23.9513 14.2134C23.3673 14.2134 22.7963 14.3424 22.4203 14.4494C22.3193 14.4784 22.2233 14.5134 22.1303 14.5494C21.6543 14.4204 21.2393 14.3524 20.9163 14.3054C19.8223 14.1444 18.0833 13.8864 14.3803 15.0154C10.6783 16.1444 6.58933 18.2404 5.94633 18.9174C5.30133 19.5944 6.00934 20.5614 6.58933 20.9814C7.16833 21.4004 7.78134 22.1104 8.00634 21.5294C8.23134 20.9494 8.13434 20.8204 8.97233 20.8844C9.80933 20.9494 14.4773 21.4654 16.6663 20.9494C18.8563 20.4334 21.0453 19.8204 21.4643 19.3694C21.4643 19.3694 21.4323 19.9164 21.2713 20.2074C21.2713 20.2074 22.2043 20.0784 22.5273 19.8524C22.5273 19.8524 22.4943 20.2394 22.2693 20.4004C22.2693 20.4004 22.8163 20.5944 23.2353 20.3364C23.2353 20.3364 22.8803 20.6584 22.9773 20.9494C23.0743 21.2394 23.9753 21.3354 25.8753 21.5614C27.5973 21.7664 31.7003 24.5944 34.9223 29.9014L34.4233 30.1894L34.8853 29.9224L33.9563 30.4594C32.5353 29.6034 30.5643 28.4174 28.8703 27.3984C25.8113 25.5604 20.8203 23.5934 16.4413 23.4324C13.2943 23.3164 10.7623 23.1344 9.58733 23.0404C9.39734 23.0094 9.20333 22.9784 9.00433 22.9484C7.97433 22.7954 7.12034 22.6544 6.40334 22.5114C7.33233 22.5904 8.41133 22.6564 9.23734 22.6254C9.57034 22.6134 9.89034 22.5984 10.1983 22.5834C11.5203 22.5194 12.5643 22.4684 13.2843 22.7424C13.3063 22.7504 13.3293 22.7554 13.3523 22.7554C13.4303 22.7554 13.5033 22.7074 13.5333 22.6304C13.5713 22.5304 13.5213 22.4184 13.4203 22.3804C12.6253 22.0784 11.5463 22.1304 10.1793 22.1964C9.87333 22.2114 9.55433 22.2274 9.22233 22.2394C7.96233 22.2854 6.21433 22.1474 5.20833 22.0434C4.82933 22.0044 4.55534 21.9694 4.45334 21.9514C4.41833 21.9454 4.38634 21.9394 4.35434 21.9334C4.29434 21.9224 4.24134 21.9134 4.19334 21.9044C4.18833 21.9024 4.18334 21.8994 4.17833 21.8974C3.94234 21.8014 3.73234 21.6984 3.54534 21.5864C3.65734 21.2644 3.97934 20.3254 4.17833 19.5764C4.29034 19.1524 4.36434 18.7894 4.33534 18.6334C4.31834 18.5364 4.26033 18.4184 4.17833 18.2924C3.93634 17.9194 3.48934 17.4744 3.28534 17.2794C3.51134 17.2194 3.81534 17.1394 4.17833 17.0424C4.48334 16.9624 4.82933 16.8714 5.20833 16.7714C5.60534 16.6664 6.03633 16.5534 6.49333 16.4344C7.83034 16.0834 12.7033 12.2874 16.3453 11.7904C16.8203 11.7254 17.3403 11.6704 17.8973 11.6324C17.9243 11.6344 17.9553 11.6364 17.9943 11.6364C18.0603 11.6364 18.1313 11.6304 18.2043 11.6224C18.5243 11.6264 19.0263 11.6434 19.6553 11.6914C20.6473 11.7844 21.6543 11.9354 22.1523 12.0144C22.5783 12.0824 23.2863 12.2364 24.0633 12.4184C25.7503 12.8634 27.5243 13.5544 29.0303 14.6284C32.9403 17.4154 35.1793 19.4654 35.3083 19.7554C35.4323 20.0354 28.8613 19.4164 26.5093 17.3514ZM20.8203 38.0574L5.20833 29.0284V22.9014C6.14034 23.1404 7.33333 23.3524 8.91033 23.5864L8.94234 23.5914L8.97334 23.5964C13.3383 24.2534 15.2973 25.2974 15.4373 25.3734C19.5613 27.9594 21.9913 31.2694 23.3033 33.5914C23.7343 34.3534 24.1193 35.1374 24.4463 35.9224L24.4593 35.9524L20.8203 38.0574ZM36.9473 10.0784L21.3353 1.04938C21.1763 0.957377 20.9973 0.911377 20.8203 0.911377C20.6423 0.911377 20.4643 0.957377 20.3053 1.04938L4.69334 10.0784C4.37434 10.2624 4.17833 10.6024 4.17833 10.9714V16.3754C3.30133 16.6074 2.72533 16.7604 2.66233 16.7764C1.78133 17.0064 1.24533 17.3914 1.02233 17.9524C0.691335 18.7854 1.17733 19.7484 1.69733 20.5814C2.29833 21.5464 2.93433 22.1354 4.17833 22.5894V29.0284C4.17833 29.3974 4.37434 29.7374 4.69334 29.9224L20.3053 38.9504C20.4643 39.0424 20.6423 39.0884 20.8203 39.0884C20.9973 39.0884 21.1763 39.0424 21.3353 38.9504L36.9473 29.9224C37.2663 29.7374 37.4623 29.3974 37.4623 29.0284V10.9714C37.4623 10.6024 37.2663 10.2624 36.9473 10.0784Z" fill="#282C4C"/>
</svg>
