<svg width="119" height="40" viewBox="0 0 119 40" fill="none" xmlns="http://www.w3.org/2000/svg">
<path d="M35.9334 24.6446C38.2062 24.6096 39.0127 25.3794 39.0127 25.3794L40.0758 22.3353C38.2429 21.0407 32.7075 20.8307 30.2515 23.0001C28.1253 24.8895 28.1253 27.9336 28.162 28.7384C28.1253 29.5432 28.1253 32.5873 30.2515 34.4767C32.7075 36.6461 38.2429 36.4362 40.0758 35.1415L39.0127 32.0974C39.0127 32.0974 38.2062 32.8672 35.9334 32.8322C35.9334 32.8322 32.5609 33.0072 32.5609 28.8434V28.5985C32.5609 24.4697 35.9334 24.6446 35.9334 24.6446ZM22.1867 23.5599C21.087 22.1603 19.5107 21.2856 17.7878 21.2856C14.4153 21.2856 11.6659 24.1198 11.6659 28.7734C11.6659 33.392 14.4153 36.2612 17.7878 36.2612C19.5107 36.2612 21.087 35.3865 22.2234 33.9519L22.1867 35.7714H26.4024V21.6705H22.1867V23.5599ZM21.9668 30.173C21.9668 31.6076 20.6838 32.9372 19.1441 32.9372C17.5678 32.9372 16.3215 31.6076 16.3215 30.173V27.4788C16.3215 26.0442 17.6045 24.7146 19.1441 24.7146C20.7204 24.7146 21.9668 26.0442 21.9668 27.4788V30.173ZM7.89017 21.6355V18.9413C7.89017 17.2968 9.6864 17.5417 9.6864 17.5417H11.6659V14.0777H8.58667C8.58667 14.0777 6.46051 13.9377 4.84756 15.3723C3.23462 16.7719 3.63785 18.4864 3.63785 18.4864V21.6005H0.558594V25.2744H3.52788V35.7714H7.89017V25.3444H11.226L11.6659 21.6355H7.89017ZM65.1864 21.2856C63.4635 21.2856 61.8872 22.1603 60.7508 23.5949L60.7875 14.2876L56.4252 14.7425V35.8063L60.7875 35.8763V34.0219C61.8872 35.4215 63.4635 36.2962 65.1864 36.2962C68.5589 36.2962 71.3083 33.462 71.3083 28.8084C71.3083 24.1548 68.5589 21.2856 65.1864 21.2856ZM66.6527 30.068C66.6527 31.5026 65.3697 32.8322 63.8301 32.8322C62.2538 32.8322 61.0074 31.5026 61.0074 30.068V27.3738C61.0074 25.9392 62.2905 24.6096 63.8301 24.6096C65.4064 24.6096 66.6527 25.9392 66.6527 27.3738V30.068ZM114.198 28.7384L118.78 21.6355H114.088L109.616 28.0036V14.2177L105.217 14.6725V35.8763H109.616V28.6334L114.455 35.8413H119L114.198 28.7384ZM96.2356 21.4605C90.737 21.4605 88.9041 24.6096 88.9041 28.8434C88.9041 33.3221 91.2868 36.2262 96.2356 36.2262C100.305 36.2262 103.567 33.637 103.567 28.8434C103.604 24.7846 101.478 21.4605 96.2356 21.4605ZM99.095 30.103C99.095 31.5376 97.8119 32.8672 96.199 32.8672C94.586 32.8672 93.303 31.5376 93.303 30.103V27.4088C93.303 25.9742 94.586 24.6446 96.199 24.6446C97.8119 24.6446 99.095 25.9742 99.095 27.4088V30.103ZM79.9962 21.4605C74.4975 21.4605 72.6646 24.6096 72.6646 28.8434C72.6646 33.3221 75.0474 36.2262 79.9962 36.2262C84.0652 36.2262 87.3278 33.637 87.3278 28.8434C87.3644 24.7846 85.2749 21.4605 79.9962 21.4605ZM82.8922 30.103C82.8922 31.5376 81.6091 32.8672 79.9962 32.8672C78.3833 32.8672 77.1002 31.5376 77.1002 30.103V27.4088C77.1002 25.9742 78.3833 24.6446 79.9962 24.6446C81.6091 24.6446 82.8922 25.9742 82.8922 27.4088V30.103ZM47.8839 21.3906C39.4526 21.3556 40.6623 29.3682 40.6623 29.3682C40.8456 34.2318 43.1917 35.6664 47.2241 36.1212C51.2564 36.5761 54.299 35.1065 54.299 35.1065L53.3459 32.2724C53.3459 32.2724 50.12 33.2171 47.5173 33.0072C44.9513 32.7972 45.1346 30.278 45.1346 30.278H54.5556C54.5923 30.278 56.3519 21.4256 47.8839 21.3906ZM50.5599 27.4088H45.0979C45.0979 27.4088 44.878 24.2947 47.8106 24.2947C50.7799 24.2947 50.5599 27.4088 50.5599 27.4088Z" fill="#282C4C"/>
</svg>
