<svg xmlns="http://www.w3.org/2000/svg" xmlns:xlink="http://www.w3.org/1999/xlink" width="130" height="40" viewBox="0 0 130 40">
    <defs>
        <path id="a" d="M0 0h38.375v40H0z"/>
    </defs>
    <g fill="none" fill-rule="evenodd">
        <path fill-rule="nonzero" d="M0 0h130v40H0z"/>
        <path fill="#282C4C" d="M74.756 12v2.343h1.59v2.147a8.15 8.15 0 0 0-2.48-.368c-2.673.065-4.264 1.431-4.264 4.577v2.104c0 2.711.87 4.815 4.093 4.815.806 0 2.016-.26 3.076-.824l.191.63h4.009V25.08h-1.464V12h-4.751zM72.72 23.128v-2.516c0-1.606.551-1.974 1.866-1.974.721 0 1.252.087 1.76.217v6.008c-.572.13-1.314.24-1.76.24-1.484 0-1.866-.543-1.866-1.975zM44 12v2.343h1.59V27.25a32.82 32.82 0 0 0 4.922.368c4.157 0 4.984-2.104 4.984-4.815v-2.104c0-3.146-1.59-4.512-4.263-4.577a8.15 8.15 0 0 0-2.482.368V12H44zm4.751 13.015v-6.16a6.736 6.736 0 0 1 1.76-.217c1.316 0 1.868.368 1.868 1.974v2.516c0 1.432-.382 1.974-1.867 1.974-.446 0-1.146 0-1.76-.087zm50.504-7.744l-.276-.954h-4.2v2.343h1.591v6.42H94.95v2.343h5.981V25.08h-1.4v-5.683c1.103-.347 2.991-.412 3.755-.434v-2.841c-1.379 0-2.715.672-4.03 1.15zm-17.011 3.666v2.104c0 3.146 1.59 4.512 4.263 4.577.997 0 1.782-.173 2.397-.347-.021.781-.234 1.519-1.04 1.8-1.102.413-3.181.391-5.111.391V32h.912c1.251 0 3.203 0 4.9-.39 3.563-.933 3.584-3.471 3.584-5.64v-7.31h1.591v-2.343h-4.136l-.191.629c-1.06-.564-2.27-.824-3.076-.824-3.224 0-4.093 2.104-4.093 4.815zm3.117 2.191v-2.516c0-1.432.382-1.974 1.867-1.974.446 0 1.188.108 1.76.238v6.009c-.508.13-1.039.217-1.76.217-1.315 0-1.867-.369-1.867-1.974zm-25.283-6.746c-2.927.716-3.012 2.993-3.012 4.317v2.256c0 2.71.87 4.663 4.094 4.663.806 0 1.93-.26 2.99-.824l.191.63h3.946V25.08h-1.4v-8.243c-1.718-.499-3.16-.715-4.752-.715-.742 0-1.315.086-2.057.26zm.148 6.724v-2.32c0-1.432.234-2.148 1.867-2.148.424 0 1.06.043 1.633.13v6.009c-.53.173-1.23.303-1.633.303-1.506 0-1.845-.542-1.867-1.974z"/>
        <mask id="b" fill="#fff">
            <use xlink:href="#a"/>
        </mask>
        <path fill="#FFF" d="M20.82 40a1.95 1.95 0 0 1-.971-.26L4.238 30.71a1.949 1.949 0 0 1-.971-1.683V23.2c-1.013-.47-1.701-1.108-2.342-2.136-.64-1.025-1.23-2.237-.75-3.448.334-.838 1.094-1.417 2.259-1.72.04-.012.345-.092.833-.222v-4.702c0-.692.372-1.336.97-1.682L19.85.26a1.943 1.943 0 0 1 1.943 0l15.612 9.03c.598.345.97.99.97 1.681v18.057c0 .692-.372 1.336-.97 1.682l-15.612 9.03a1.95 1.95 0 0 1-.972.26" mask="url(#b)"/>
        <path fill="#FFF" d="M12.924 18.385a.992.992 0 0 0 .377-.108c.211-.101.381-.238.547-.345.082-.053.164-.1.251-.13a.666.666 0 0 1 .133-.034s-.47-.262-.733-.367l-.105-.044c-.038-.016-.077-.033-.12-.047a.876.876 0 0 0-.285-.053.711.711 0 0 0-.23.04.97.97 0 0 0-.26.136c.02-.002.038-.006.06-.006a.523.523 0 0 1 .387.161v.001a.56.56 0 0 1 .118.175.54.54 0 0 1-.14.621"/>
        <path fill="#FFF" d="M29.03 14.628c-1.505-1.074-3.278-1.765-4.966-2.209a31.387 31.387 0 0 0-1.911-.405 41.792 41.792 0 0 0-2.497-.323 24.254 24.254 0 0 0-1.45-.069 1.296 1.296 0 0 1-.308.01 23.11 23.11 0 0 0-1.552.158c-3.642.497-8.514 4.294-9.852 4.644l-1.284.337-1.031.272-.893.236c.204.195.65.64.893 1.013.082.126.14.244.158.341.028.156-.045.52-.158.943a32.743 32.743 0 0 1-.632 2.01c.186.112.396.215.632.312l.015.006c.048.01.102.018.16.03l.1.017c.102.018.377.053.756.092 1.006.105 2.754.242 4.013.196.332-.012.652-.028.957-.043 1.368-.066 2.447-.118 3.242.184a.194.194 0 0 1-.07.375.182.182 0 0 1-.067-.013c-.72-.274-1.764-.223-3.086-.159-.308.015-.628.03-.961.043-.825.03-1.904-.036-2.834-.115.718.143 1.57.284 2.602.437.199.03.392.061.583.092 1.174.094 3.707.276 6.853.392 4.379.161 9.37 2.13 12.429 3.967 1.694 1.018 3.665 2.205 5.087 3.061l.928-.538-.461.268.499-.289c-3.223-5.307-7.326-8.135-9.047-8.339-1.901-.226-2.802-.323-2.9-.613-.095-.29.259-.613.259-.613-.42.258-.966.064-.966.064.226-.16.258-.547.258-.547-.322.225-1.256.354-1.256.354.16-.29.194-.838.194-.838-.42.451-2.61 1.064-4.798 1.58-2.19.516-6.858 0-7.695-.065-.838-.064-.741.065-.965.645-.226.581-.838-.129-1.417-.548-.581-.419-1.29-1.387-.644-2.064.644-.677 4.732-2.773 8.435-3.902 3.703-1.129 5.44-.87 6.536-.71.322.048.737.115 1.214.244.092-.036.188-.07.29-.1.376-.107.946-.236 1.53-.236 1.26 0 1.762.585 1.96 1.076.184.455.507 1.326.598 2.062 2.352 2.065 8.923 2.684 8.799 2.404-.13-.29-2.368-2.34-6.278-5.127"/>
        <path fill="#FFF" d="M12.832 17.583c.013-.001.023-.004.036-.004.027 0 .053.004.076.009-.014-.016-.033-.03-.05-.044a.627.627 0 0 0-.062.039"/>
        <path fill="#B5445B" d="M24.46 35.952l-.014-.03a21.905 21.905 0 0 0-1.142-2.33 23.239 23.239 0 0 0-7.866-8.219c-.14-.076-2.099-1.12-6.464-1.777l-.032-.005-.032-.005c-1.576-.235-2.769-.447-3.7-.685v6.127l15.61 9.028 3.64-2.104z"/>
        <path fill="#FFF" d="M25.001 17.204a1.04 1.04 0 0 1-.349.23s.58.677 1.095.806c.04.01.075.015.108.015.146 0 .231-.093.271-.247a.843.843 0 0 0 .017-.082c.007-.058.011-.122.011-.192a3.285 3.285 0 0 0-.072-.601 9.65 9.65 0 0 0-.28-1.023 12.054 12.054 0 0 0-.248-.676 1.19 1.19 0 0 0-.629-.649c-.279-.131-.617-.184-.974-.184-.096 0-.193.004-.29.01a5.485 5.485 0 0 0-1.134.21 2.864 2.864 0 0 0-1.516 1.053c-.064.086-.094.14-.094.14s-.009.01-.02.026a.367.367 0 0 0-.054.087.148.148 0 0 0-.018.077.068.068 0 0 0 .02.044c.022.026.07.044.153.044.078 0 .187-.015.338-.051.288-.07.63-.217.954-.391.54-.288 1.032-.646 1.15-.828.007-.014.016-.027.021-.04l.004.016.012.042a2.508 2.508 0 0 1 .05.265c.023.179.03.408-.034.613a.777.777 0 0 0 .216.031c.101 0 .224-.02.337-.093a.6.6 0 0 0 .187-.196.574.574 0 0 0 .06.367.587.587 0 0 1-.027.085l.008.002a.516.516 0 0 0 .539-.196l-.008.046a.95.95 0 0 1-.018.073l-.013.046a1.24 1.24 0 0 1-.126.28c-.01.02-.025.039-.039.059a.752.752 0 0 1-.214.206s.106.07.251.142c.144.07.327.142.478.142a.35.35 0 0 0 .14-.026s-.036.059-.1.139a1.658 1.658 0 0 1-.163.179"/>
        <path fill="#B5445B" d="M19.4 10.431c.19-.132.374-.263.55-.39.915-.652 1.638-1.168 2.282-1.168.085 0 .168.01.246.027.7.156 2.027 1.132 2.655 1.836.365.408 1.349 1.243 2.402 1.83.022.01.045.023.066.038 3.078 1.275 6.048 3.3 8.832 6.02V10.97L20.82 1.943 5.21 10.971v5.133c.35-.092.727-.19 1.12-.295.368-.096 1.28-.643 2.246-1.222 2.175-1.304 5.152-3.09 7.683-3.436.64-.088 1.277-.147 1.945-.18.117-.006.234-.01.35-.014l.178-.093c.145-.083.357-.216.669-.433"/>
        <path fill="#C2202A" d="M18.554 10.957c.044-.02.102-.05.178-.093l-.178.093z"/>
        <path fill="#FFF" d="M22.247 10.274l.066-.16.023.019.11.089a1.138 1.138 0 0 1 .313.404.562.562 0 0 1 .043.235c.032-.012.075-.034.12-.058l.127-.074c.07-.042.143-.084.21-.118l.16-.081.024.179c.01.062.057.25.16.307.018.01.035.015.048.015.026 0 .052-.026.075-.075a.652.652 0 0 0 .041-.22 2.334 2.334 0 0 1 .02-.233c.006-.034.012-.068.02-.101a10.907 10.907 0 0 0-.203-.155c-.48-.354-.974-.652-1.265-.717a.517.517 0 0 0-.107-.011c-.274 0-.643.19-1.073.469-.13.084-.264.176-.403.274-.14.097-.284.2-.431.305l-.278.197-.279.197a9.269 9.269 0 0 0-.159.112l-.054.039-.055.039h.096c.91 0 2.433-.35 2.651-.877"/>
        <path fill="#282C4C" d="M36.433 18.623c-2.784-2.719-5.754-4.744-8.832-6.019a.456.456 0 0 0-.066-.039c-1.053-.586-2.038-1.42-2.402-1.829-.629-.704-1.954-1.68-2.655-1.836a1.098 1.098 0 0 0-.246-.027c-.645 0-1.367.516-2.28 1.168-.178.127-.362.258-.55.39-.314.217-.526.35-.67.433a2.365 2.365 0 0 1-.178.093c-.116.004-.233.008-.35.014-.668.033-1.305.092-1.945.18-2.53.346-5.509 2.132-7.683 3.436-.966.58-1.878 1.126-2.246 1.223l-1.12.294v-5.133L20.82 1.943l15.612 9.028v7.652zM19.5 11.15l.055-.039.055-.039a25.852 25.852 0 0 0 .436-.308l.28-.197c.146-.106.29-.209.43-.306s.274-.189.403-.273c.43-.28.798-.469 1.073-.469.038 0 .073.003.106.01.291.065.786.363 1.266.718.068.05.137.102.203.154a1.127 1.127 0 0 0-.02.101 3.378 3.378 0 0 0-.016.154c0 .03-.003.056-.004.08a.65.65 0 0 1-.042.22c-.02.05-.049.075-.073.075a.118.118 0 0 1-.049-.015c-.103-.057-.15-.246-.159-.308l-.025-.178-.16.08a3.856 3.856 0 0 0-.21.118c-.038.022-.084.05-.128.074a.971.971 0 0 1-.12.058.568.568 0 0 0-.043-.235.77.77 0 0 0-.05-.104 1.151 1.151 0 0 0-.26-.299l-.113-.09-.022-.017-.066.158c-.218.528-1.74.88-2.652.88-.033 0-.064-.002-.095-.003zm-6.436 6.614a.556.556 0 0 0-.118-.176.322.322 0 0 0-.077-.009c-.013 0-.024.002-.037.003l.062-.039a.553.553 0 0 0-.336-.116c-.02 0-.039.004-.059.006.091-.065.177-.109.26-.137a.737.737 0 0 1 .515.014c.043.014.082.03.12.046.038.016.072.032.105.045.262.105.733.367.733.367a.664.664 0 0 0-.133.033 1.18 1.18 0 0 0-.25.131c-.167.107-.337.244-.548.344a.98.98 0 0 1-.377.109.54.54 0 0 0 .14-.621zm12.06-.852c-.15 0-.334-.07-.478-.143-.145-.07-.25-.142-.25-.142a.7.7 0 0 0 .118-.095.99.99 0 0 0 .096-.11l.04-.059a1.237 1.237 0 0 0 .155-.399l.008-.046a.516.516 0 0 1-.538.196l-.009-.003a.53.53 0 0 0 .021-.31c-.02-.085-.053-.14-.053-.14a.608.608 0 0 1-.188.194.616.616 0 0 1-.337.093.787.787 0 0 1-.155-.015c-.038-.008-.06-.015-.06-.015a1.52 1.52 0 0 0 .03-.642 2.476 2.476 0 0 0-.059-.278l-.004-.015a.33.33 0 0 1-.022.04c-.116.181-.609.54-1.149.827-.324.173-.666.321-.954.39a1.528 1.528 0 0 1-.338.051c-.084 0-.13-.017-.154-.043a.069.069 0 0 1-.018-.044.145.145 0 0 1 .016-.077.372.372 0 0 1 .027-.048l.027-.039.021-.025s.031-.055.094-.142a2.236 2.236 0 0 1 .197-.24 2.845 2.845 0 0 1 1.32-.812c.084-.024.17-.046.258-.067.284-.069.582-.12.875-.143a4.06 4.06 0 0 1 .291-.01c.356 0 .694.052.973.183.07.033.137.07.2.113a1.179 1.179 0 0 1 .43.537 12.004 12.004 0 0 1 .364 1.05 7.828 7.828 0 0 1 .163.648c.044.221.072.428.073.602a.91.91 0 0 1-.029.274c-.04.154-.125.246-.27.246a.501.501 0 0 1-.109-.014c-.515-.129-1.094-.806-1.094-.806.133-.049.252-.138.348-.23.066-.062.12-.125.162-.179.065-.08.101-.14.101-.14a.333.333 0 0 1-.14.027zm1.386.44c-.092-.737-.414-1.608-.598-2.063-.199-.49-.7-1.076-1.96-1.076-.584 0-1.155.13-1.53.236a3.401 3.401 0 0 0-.29.1 10.08 10.08 0 0 0-1.215-.244c-1.094-.16-2.833-.419-6.536.71-3.702 1.13-7.79 3.225-8.434 3.902-.645.677.063 1.644.643 2.064.58.42 1.192 1.13 1.417.548.225-.58.128-.709.966-.645.837.065 5.505.581 7.694.065 2.19-.516 4.38-1.129 4.798-1.58 0 0-.032.547-.193.838 0 0 .933-.129 1.256-.355 0 0-.033.387-.258.548 0 0 .547.194.966-.064 0 0-.355.322-.258.613.097.29.998.386 2.898.612 1.722.205 5.825 3.033 9.047 8.34l-.499.288.462-.267-.929.537c-1.42-.856-3.392-2.042-5.086-3.06-3.059-1.839-8.05-3.806-12.429-3.967a165.324 165.324 0 0 1-6.854-.392c-.19-.03-.384-.062-.583-.092a54.787 54.787 0 0 1-2.6-.437c.928.08 2.007.145 2.833.114.333-.012.653-.027.961-.042 1.322-.064 2.366-.115 3.086.16a.2.2 0 0 0 .068.012.193.193 0 0 0 .068-.375c-.795-.302-1.874-.25-3.24-.184-.307.015-.626.031-.958.043-1.26.046-3.008-.092-4.014-.196a14.094 14.094 0 0 1-.755-.092l-.099-.018-.16-.029-.016-.007a4.61 4.61 0 0 1-.633-.31c.112-.323.434-1.262.633-2.01.112-.425.186-.788.157-.944a.999.999 0 0 0-.157-.34c-.242-.374-.689-.819-.893-1.014l.893-.237 1.03-.27c.397-.106.828-.219 1.285-.338 1.337-.35 6.21-4.147 9.852-4.644.475-.065.995-.12 1.552-.158.027.002.058.004.097.004.066 0 .137-.006.21-.014.32.004.822.021 1.451.07.992.092 2 .243 2.497.322.426.068 1.134.222 1.911.404 1.687.445 3.461 1.136 4.967 2.21 3.91 2.787 6.15 4.837 6.278 5.127.124.28-6.447-.339-8.799-2.404zm-5.689 20.705L5.21 29.028v-6.127c.932.24 2.125.451 3.702.685l.032.005.031.005c4.365.657 6.324 1.701 6.464 1.777a23.23 23.23 0 0 1 7.866 8.218c.431.762.816 1.546 1.143 2.331l.013.03-3.639 2.105zm16.127-27.979L21.336 1.05a1.03 1.03 0 0 0-1.03 0L4.694 10.08a1.03 1.03 0 0 0-.515.892v5.404l-1.516.401c-.88.23-1.417.615-1.64 1.176-.33.833.155 1.796.675 2.63.601.964 1.237 1.553 2.481 2.007v6.44c0 .368.196.708.515.893l15.612 9.028a1.028 1.028 0 0 0 1.03 0l15.612-9.028c.32-.185.515-.525.515-.894V10.971a1.03 1.03 0 0 0-.515-.893z"/>
    </g>
</svg>
