<svg xmlns="http://www.w3.org/2000/svg" xmlns:xlink="http://www.w3.org/1999/xlink" width="348" height="100" viewBox="0 0 348 100">
    <defs>
        <path id="a" d="M.6.1h25.6v47H.6z"/>
        <path id="c" d="M0 100h347.2V0H0z"/>
    </defs>
    <g fill="none" fill-rule="evenodd">
        <path fill="#FFF" d="M43.31 0L0 24.975v50.05L43.31 100l43.31-24.976V24.975L43.31 0zm5.55 50.05l-2.774-1.586V11.695l6.937 3.964v36.77l-4.163-2.38zM8.722 30.03l31.813-18.335v7.93L8.722 37.957V30.03zM58.474 55.6V18.83l6.937 3.964v36.77l-6.937-3.966zm12.488 7.235v-36.77l6.937 3.964V66.8l-6.937-3.964zM8.722 44.401l31.813-18.336v8.028L8.722 52.33v-7.928zm0 14.172l31.813-18.236v8.027l-2.774 1.587-6.938 3.964-5.55 3.171-6.938 3.965-5.55 3.17-4.063 2.38v-8.028zm27.65-1.388l4.163-2.477 2.775-1.586 2.776 1.586 6.937 3.964 5.55 3.172 6.937 3.963 5.55 3.173 4.163 2.377-6.937 3.965-31.913-18.137zm-12.487 7.136l6.938-3.964 31.814 18.335-6.938 3.964-31.814-18.335zm-12.388 7.234l6.937-3.963 31.814 18.335-6.938 3.963-31.813-18.335z"/>
        <path fill="#F38021" d="M44.103 8.028v41.328l35.382 21.803v-44.3z"/>
        <path fill="#AFCD38" d="M78.494 71.457L42.716 92.071 6.145 72.349 44.5 50.248z"/>
        <path fill="#5BC8E4" d="M42.32 8.028v41.328L6.936 71.159v-44.3z"/>
        <path fill="#073B5A" d="M68.186 75.52L36.273 57.186l4.163-2.477 2.775-1.587 2.776 1.587 6.936 3.962 5.55 3.172 6.939 3.965 5.55 3.171 4.162 2.379-6.938 4.162zm-12.488 7.234L23.886 64.321l6.938-3.965 31.813 18.336-6.938 4.063zM43.31 89.89L11.496 71.555l6.938-3.964 31.814 18.336-6.938 3.963zM8.721 58.773l31.814-18.335v8.027l-2.774 1.586-6.939 3.964-5.55 3.171-6.938 3.965-5.548 3.172L8.722 66.7v-7.93zm0-14.371l31.815-18.336v8.028L8.72 52.33v-7.928zm0-14.372l31.815-18.335v7.93L8.72 37.959v-7.93zm37.365-18.335l6.937 3.965v36.769L48.86 50.05l-2.774-1.586v-36.77zm12.388 7.136l6.938 3.965v36.768L58.473 55.6V18.831zm12.488 7.236l6.936 3.963V66.8l-6.936-3.965V26.066zm12.388.793l-5.55-3.172-6.938-3.965-5.45-3.27-6.939-3.965-5.55-3.171-6.937-3.964-2.775-1.586-2.774 1.587L3.172 26.858v46.383l2.775 1.584L43.31 96.433l5.55-3.172 6.938-3.965 5.55-3.17 6.938-3.965 5.55-3.17 6.936-3.965 2.775-1.586V26.86h-.197z"/>
        <path fill="#FFF" d="M131.5 71.8c0-6.2-4.5-8.3-9.9-8.3H114v16.2h6.5c6.5 0 11-1.6 11-7.9zm-17.4-12.6h7.1c5 0 8.7-2.5 8.7-7.2 0-5.4-3.9-6.9-10.5-6.9h-5.2l-.1 14.1zm23.2 12.6c0 9-6.9 12.3-16.8 12.3h-11.9V40.8h10.1c10.5 0 16.7 3.4 16.7 10.9 0 5.4-3.8 8.6-8.1 9.5 5.1.7 10 3.2 10 10.6zM159.9 75.4v-7.9h-4.7c-6.2 0-9.5 2.3-9.5 7.1 0 4 2.1 6.2 6 6.2 3.7 0 6.3-1.8 8.2-5.4m8.1 5.7l-1.3 3.7c-3.2-.4-5.3-1.8-6.2-5.1-2.2 3.4-6 5.3-10 5.1-6.5 0-10.5-4.1-10.5-10 0-7.1 5.3-10.9 14.4-10.9h5.4v-2.6c0-4.9-2.3-6.8-7.1-6.8-3.1.1-6.1.7-9 1.8l-1.3-3.9c3.6-1.4 7.4-2.2 11.2-2.2 7.9 0 11.5 4 11.5 10.9v15.4c.1 3 1.1 4 2.9 4.6M196.2 53.7l-2.6 3.5c-2-1.7-4.5-2.6-7.1-2.6-5.4 0-8.9 4.2-8.9 13.1 0 8.9 3.5 12.6 8.9 12.6 2.7 0 5.2-1 7.2-2.7l2.5 3.6c-2.8 2.4-6.3 3.7-10 3.6-8.8 0-14.4-6.4-14.4-17.1 0-10.7 5.5-17.5 14.4-17.5 3.6 0 7.2 1.2 10 3.5M226.7 84.1h-6.3L206.9 66l12.5-15h5.9l-12.6 14.7 14 18.4zm-25.6 0V37.7l5.3-.6v47h-5.3zM251.1 67.4c0-8.8-2.6-13-7.8-13-3.6 0-6.4 2.5-8.2 5.3v16.5c1.6 2.6 4.5 4.2 7.6 4.2 5.4.1 8.4-4.1 8.4-13m5.7 0c0 10.1-4.4 17.4-12.9 17.4-3.4.2-6.7-1.3-8.8-3.9v15.8l-5.3.6V51h4.6l.4 4.6c2.2-3.3 5.9-5.3 9.8-5.4 8.6.1 12.2 6.7 12.2 17.2M280.5 75.4v-7.9h-4.7c-6.2 0-9.5 2.3-9.5 7.1 0 4 2.1 6.2 6 6.2 3.6 0 6.3-1.8 8.2-5.4m8 5.7l-1.2 3.7c-3.2-.4-5.3-1.8-6.2-5.1-2.2 3.4-6 5.3-10 5.1-6.5 0-10.5-4.1-10.5-10 0-7.1 5.3-10.9 14.4-10.9h5.4v-2.6c0-4.9-2.3-6.8-7.1-6.8-3.1.1-6.1.7-9 1.8l-1.3-3.9c3.6-1.4 7.4-2.2 11.2-2.2 7.9 0 11.5 4 11.5 10.9v15.4c.1 3 1.1 4 2.8 4.6M316.6 53.7l-2.7 3.5c-2-1.7-4.5-2.6-7.1-2.6-5.4 0-8.9 4.2-8.9 13.1 0 8.9 3.5 12.6 8.9 12.6 2.7 0 5.2-1 7.2-2.7l2.5 3.6c-2.8 2.4-6.3 3.7-10 3.6-8.8 0-14.4-6.4-14.4-17.1 0-10.7 5.5-17.5 14.4-17.5 3.8 0 7.3 1.2 10.1 3.5"/>
        <g transform="translate(321 37)">
            <mask id="b" fill="#fff">
                <use xlink:href="#a"/>
            </mask>
            <path fill="#FFF" d="M26.2 47.1h-6.4L6.2 29l12.6-15h5.9L12.1 28.7l14.1 18.4zm-25.6 0V.7L5.9.1v47H.6z" mask="url(#b)"/>
        </g>
        <mask id="d" fill="#fff">
            <use xlink:href="#c"/>
        </mask>
        <path fill="#000" d="M108.7 31.8h97.899v-28H108.7z" mask="url(#d)"/>
        <path fill="#FFF" d="M135.5 23.4h1.6V26H132v-6.9c0-2.1-.7-2.9-2.1-2.9-1.7 0-2.4 1.2-2.4 2.9v4.3h1.6v2.7H124v-6.9c0-2.1-.7-2.9-2.1-2.9-1.7 0-2.4 1.2-2.4 2.9v4.3h2.3v2.7h-7.4v-2.7h1.6v-6.9h-1.6v-2.7h5.1v1.8c.7-1.3 2-2.1 3.7-2.1 1.8 0 3.4.8 4 2.6.7-1.6 2.1-2.6 4-2.6 2.2 0 4.2 1.3 4.2 4.2l.1 5.6zm9.6.2c-1.9 0-2.9-1.6-2.9-3.8 0-2.3 1.1-3.6 2.9-3.6 1.7 0 3 1.1 3 3.6.1 2.4-1.1 3.8-3 3.8zm.1-10c-4.4 0-6.6 3-6.6 6.6 0 3.9 2.6 6.2 6.4 6.2 3.9 0 6.7-2.5 6.7-6.4.1-3.5-2.1-6.4-6.5-6.4zm17.6 7.9l2.8.3-.8 4.3h-10.7l-.4-1.8 6.7-7.7h-3.8l-.5 1.9-2.5-.3.4-4.3h10.7l.3 1.8-6.8 7.7h4l.6-1.9zm5.3 4.6h3.7v-4.4h-3.7v4.4zm0-7.9h3.7v-4.4h-3.7v4.4zm14.7-10.8L177.5 26H174l5.3-18.7h3.5v.1zm7.1 0L184.6 26h-3.5l5.3-18.7c.1.1 3.5.1 3.5.1zm4.7 16.4c-1.1 0-1.4-.6-1.4-1.4 0-1.3 1.1-1.7 2.3-1.7.6 0 1.2.1 1.8.2-.1 2-1.4 2.9-2.7 2.9zm7.5.1c-.2.1-.4.1-.5.1-.6 0-.8-.2-.8-1v-5.3c0-2.8-2.2-4.2-4.9-4.2-2 0-3.1.2-5.2 1.1l-.4 2.8 2.8.3.4-1.4c.6-.3 1.1-.4 1.9-.4 2 0 2 1.5 2 2.7v.4c-.6-.1-1.3-.1-2-.1-2.8 0-5.7.7-5.7 3.7 0 2.6 2 3.5 3.8 3.5 2 0 3.2-1.2 3.9-2.4.2 1.5 1.1 2.4 2.7 2.4.8 0 1.5-.2 2.2-.6l-.2-1.6z" mask="url(#d)"/>
    </g>
</svg>
