<svg width="77" height="54" viewBox="0 0 77 54" fill="none" xmlns="http://www.w3.org/2000/svg">
<path d="M30.3349 30.1503C30.5107 30.6191 30.6866 30.9707 30.8624 31.1465C31.0383 31.3223 31.39 31.3809 31.8589 31.3809H34.0863C34.5552 31.3809 34.9069 31.3223 35.0828 31.1465C35.2586 30.9707 35.4345 30.6191 35.5517 30.1503L39.479 13.6255L43.4649 30.1503C43.5821 30.6777 43.758 30.9707 43.9338 31.1465C44.1097 31.3223 44.52 31.4395 44.9889 31.4395H47.2163C47.6267 31.4395 47.9784 31.3223 48.2128 31.2051C48.3887 31.0293 48.6231 30.7363 48.7404 30.2089L54.8951 10.3439C55.0123 10.051 55.0709 9.87516 55.0709 9.69936C55.0709 9.52357 55.1295 9.40637 55.1295 9.28917C55.1295 8.87898 54.8951 8.64459 54.4847 8.64459H52.0815C51.6126 8.64459 51.2609 8.76178 51.085 8.87898C50.9092 9.05478 50.7333 9.34777 50.5575 9.87516L46.1026 27.0446L42.1167 9.93376C41.9995 9.46497 41.8237 9.11338 41.6478 8.93758C41.472 8.76178 41.1203 8.70318 40.6513 8.70318H38.5998C38.1308 8.70318 37.7791 8.82038 37.6033 8.93758C37.4274 9.11338 37.2516 9.40637 37.1344 9.93376L33.1485 26.8688L28.7522 9.93376C28.5764 9.46497 28.4592 9.11338 28.2247 8.93758C28.0489 8.76178 27.6972 8.70318 27.2282 8.70318H24.7077C24.2974 8.70318 24.1216 8.93758 24.1216 9.34777C24.1216 9.52357 24.1802 9.87516 24.356 10.3439L30.3349 30.1503ZM57.8845 30.6191C58.5293 31.0293 59.5257 31.3223 60.8153 31.6153C62.1048 31.9083 63.453 32.0841 64.7426 32.0841C66.0321 32.0841 67.2631 31.9083 68.4354 31.5567C69.5491 31.2051 70.487 30.7363 71.3076 30.1503C72.1282 29.5643 72.7144 28.7439 73.1833 27.9236C73.5936 27.0446 73.8281 26.0484 73.8281 24.935C73.8281 23.5873 73.4178 22.4153 72.6558 21.3605C71.8351 20.3057 70.5456 19.4854 68.6699 18.8994L65.0357 17.7274C63.6875 17.3172 62.7496 16.7898 62.2221 16.321C61.6945 15.8522 61.4601 15.2076 61.4601 14.5045C61.4601 13.4497 61.8704 12.6879 62.691 12.2191C63.5116 11.7503 64.6253 11.5159 66.0907 11.5159C67.9078 11.5159 69.5491 11.8675 71.0145 12.5121C71.4248 12.6879 71.7765 12.8051 72.011 12.8051C72.4213 12.8051 72.5971 12.5121 72.5971 11.9847V10.7541C72.5971 10.4025 72.5385 10.1096 72.3627 9.93376C72.1868 9.69936 71.9524 9.52357 71.6007 9.28917C71.3662 9.11338 71.0145 8.99618 70.5456 8.82038C70.0766 8.64459 69.6077 8.52739 69.0802 8.41019C68.5526 8.29299 68.0251 8.23439 67.4389 8.1172C66.7941 8 66.208 8 65.6218 8C64.5081 8 63.3944 8.1172 62.3979 8.41019C61.4015 8.70318 60.5222 9.17197 59.7016 9.75796C58.9396 10.3439 58.2948 11.0471 57.8845 11.8675C57.4156 12.6879 57.1811 13.6255 57.1811 14.7389C57.1811 16.0866 57.5914 17.3172 58.4706 18.4306C59.2913 19.6025 60.6981 20.4815 62.5738 21.0675L66.2666 22.2395C67.4975 22.6497 68.3768 23.0599 68.8457 23.5873C69.3146 24.0561 69.5491 24.642 69.5491 25.4038C69.5491 26.4586 69.0802 27.279 68.2009 27.865C67.3217 28.451 66.0907 28.6854 64.4495 28.6854C63.453 28.6854 62.3979 28.5682 61.4015 28.3924C60.405 28.2166 59.4671 27.865 58.5879 27.5134C58.3534 27.3962 58.1189 27.3376 57.9431 27.279C57.7673 27.2204 57.65 27.2204 57.4742 27.2204C57.0639 27.2204 56.888 27.4548 56.888 28.0408V29.3299C56.888 29.5643 56.9466 29.7987 57.0639 30.0331C57.1811 30.0917 57.4742 30.3847 57.8845 30.6191ZM76.7003 37.7682C75.7624 36.6548 67.8492 35.6586 63.0427 39.0573C62.2807 39.5847 62.4565 40.2879 63.2186 40.2293C65.9735 39.8777 72.011 39.1745 73.0661 40.5809C74.1212 41.9287 71.8351 47.6713 70.8387 50.1911C70.5456 50.9529 71.1903 51.2459 71.8937 50.6599C76.4658 46.851 77.6381 38.9401 76.7003 37.7682ZM14.5085 18.1376C13.5707 18.0204 12.6914 17.9618 11.8122 17.9618C9.17445 17.9618 7.12289 18.6064 5.54025 19.9541C3.95762 21.3019 3.19561 23.0599 3.19561 25.228C3.19561 27.279 3.84038 28.9197 5.07132 30.1503C6.30226 31.3809 8.06075 31.9669 10.1709 31.9669C13.219 31.9669 15.6808 30.7949 17.7324 28.451C18.0255 29.0369 18.26 29.5057 18.553 29.9745C18.7875 30.3847 19.1392 30.7949 19.4909 31.2051C19.7254 31.4395 20.0184 31.5567 20.2529 31.5567C20.4288 31.5567 20.6632 31.4981 20.8977 31.3223L22.5389 30.2675C22.8906 30.0331 23.0079 29.7401 23.0079 29.5057C23.0079 29.3299 22.9492 29.0955 22.832 28.9197C22.4803 28.2752 22.2459 27.6306 22.0114 27.1032C21.8355 26.5172 21.7183 25.7554 21.7183 24.8178H21.6597V16.4382C21.6597 13.6255 20.9563 11.5159 19.5495 10.1096C18.1427 8.70318 15.8567 8.0586 12.8087 8.0586C11.4019 8.0586 10.0537 8.23439 8.82276 8.52739C7.59182 8.82038 6.47811 9.23057 5.59887 9.69936C5.24717 9.87516 5.01271 10.051 4.89547 10.2268C4.71963 10.4025 4.66101 10.6955 4.66101 11.1057V12.3363C4.66101 12.8637 4.83686 13.1567 5.18855 13.1567C5.30579 13.1567 5.42302 13.1567 5.59887 13.0981C5.77472 13.0395 6.0678 12.9223 6.47811 12.7465C7.35735 12.3949 8.29521 12.1019 9.23307 11.8675C10.1709 11.6331 11.1088 11.5159 11.988 11.5159C13.981 11.5159 15.3291 11.9261 16.1498 12.6879C16.9704 13.5083 17.3807 14.8561 17.3807 16.7898V18.665C16.3842 18.4892 15.4464 18.2548 14.5085 18.1376ZM17.4979 21.5949V22.6497C17.4979 23.5287 17.3807 24.2904 17.2635 24.8764C17.0876 25.4624 16.7946 26.0484 16.3842 26.5172C15.6808 27.279 14.8602 27.865 13.9224 28.158C12.9845 28.451 12.1053 28.6268 11.2846 28.6268C10.1123 28.6268 9.23307 28.3338 8.58829 27.6892C7.94351 27.1032 7.65043 26.1656 7.65043 24.9936C7.65043 23.7045 8.06075 22.7669 8.88137 22.0637C9.702 21.3605 10.9916 21.0675 12.6914 21.0675C13.512 21.0675 14.2741 21.1261 15.0947 21.2433C15.9153 21.2433 16.7359 21.4191 17.4979 21.5949ZM68.3768 42.5732C58.9396 46.558 48.6231 48.4917 39.3032 48.4917C25.4697 48.4917 12.0466 44.6828 1.20266 38.3541C0.264797 37.7682 -0.438596 38.7643 0.323414 39.4675C10.3468 48.5503 23.6526 54 38.4239 54C48.9748 54 61.2256 50.7185 69.6077 44.4484C71.0145 43.5108 69.7836 41.9287 68.3768 42.5732Z" fill="#282C4C"/>
</svg>
