<svg width="62" height="40" viewBox="0 0 62 40" fill="none" xmlns="http://www.w3.org/2000/svg">
<path d="M6.38925 33.6757C6.38925 37.1384 9.02474 39.2161 12.0003 39.2161C13.1905 39.2161 14.0832 38.9131 14.4232 38.8265V35.9265C14.2957 36.0131 13.4456 36.4892 12.1703 36.4892C10.385 36.4892 9.23728 35.234 9.23728 33.6325C9.23728 31.9877 10.4275 30.7757 12.1703 30.7757C13.4456 30.7757 14.2957 31.2951 14.4232 31.3384V28.4384C14.1682 28.3519 13.233 28.0489 12.0003 28.0489C8.7697 28.0922 6.38925 30.4728 6.38925 33.6757ZM18.1214 39.0429H20.7994V28.3086H18.1214V39.0429ZM2.26599 15.41C1.54335 15.41 0.948242 16.016 0.948242 16.7518V19.5653C0.948242 20.3011 1.54335 20.9071 2.26599 20.9071C2.98862 20.9071 3.58373 20.3011 3.58373 19.5653V16.7518C3.58373 16.016 2.98862 15.41 2.26599 15.41ZM16.7612 6.66675C16.0385 6.66675 15.4434 7.27272 15.4434 8.00854V22.2489C15.4434 22.9847 16.0385 23.5907 16.7612 23.5907C17.4838 23.5907 18.0789 22.9847 18.0789 22.2489V8.00854C18.0789 7.27272 17.4838 6.66675 16.7612 6.66675ZM53.0204 20.9071C53.7431 20.9071 54.3382 20.3011 54.3382 19.5653V13.0727C54.3382 12.3369 53.7431 11.7309 53.0204 11.7309C52.2978 11.7309 51.7027 12.3369 51.7027 13.0727V19.6086C51.7452 20.3444 52.2978 20.9071 53.0204 20.9071ZM9.53484 20.9071C10.2575 20.9071 10.8526 20.3011 10.8526 19.5653V13.0727C10.8526 12.3369 10.2575 11.7309 9.53484 11.7309C8.81221 11.7309 8.21709 12.3369 8.21709 13.0727V19.6086C8.21709 20.3444 8.81221 20.9071 9.53484 20.9071ZM25.3478 19.5653V13.0727C25.3478 12.3369 24.7527 11.7309 24.03 11.7309C23.3074 11.7309 22.7123 12.3369 22.7123 13.0727V19.6086C22.7123 20.3444 23.3074 20.9504 24.03 20.9504C24.7527 20.9071 25.3478 20.3444 25.3478 19.5653ZM38.5252 20.9071C39.2479 20.9071 39.843 20.3011 39.843 19.5653V13.0727C39.843 12.3369 39.2479 11.7309 38.5252 11.7309C37.8026 11.7309 37.2075 12.3369 37.2075 13.0727V19.6086C37.2075 20.3444 37.8026 20.9071 38.5252 20.9071ZM60.2893 15.41C59.5666 15.41 58.9715 16.016 58.9715 16.7518V19.5653C58.9715 20.3011 59.5666 20.9071 60.2893 20.9071C61.0119 20.9071 61.607 20.3011 61.607 19.5653V16.7518C61.607 16.016 61.0119 15.41 60.2893 15.41ZM50.5975 28.0922C47.3669 28.0922 45.0289 30.6026 45.0289 33.6325C45.0289 36.7056 47.3669 39.1728 50.5975 39.1728C53.8281 39.1728 56.166 36.6623 56.166 33.6325C56.166 30.6026 53.8281 28.0922 50.5975 28.0922ZM50.5975 36.4892C49.0247 36.4892 47.8345 35.234 47.8345 33.6757C47.8345 32.1175 49.0247 30.8623 50.5975 30.8623C52.1703 30.8623 53.3605 32.1175 53.3605 33.6757C53.318 35.234 52.1703 36.4892 50.5975 36.4892ZM58.9715 37.7877H59.4391V39.0429H59.6517V37.7877H60.1192V37.6146H58.9715V37.7877ZM60.9269 38.7832L60.5018 37.6146H60.2043V39.0429H60.4168V37.8743L60.8419 39.0429H61.0119L61.437 37.8743V39.0429H61.6495V37.6146H61.3095L60.9269 38.7832ZM29.0885 32.5504L28.3658 32.334C27.9408 32.2041 27.1331 31.9444 27.1331 31.2951C27.1331 30.7757 27.7282 30.4295 28.7909 30.4295C29.7261 30.4295 30.8313 30.7325 30.8738 30.7757V28.4817C30.7888 28.4817 29.5561 28.1354 28.2808 28.1354C25.8154 28.1354 24.3701 29.4772 24.3701 31.5116C24.3701 33.2862 25.6028 34.1519 27.0906 34.628C27.2606 34.6713 27.5157 34.7578 27.6432 34.8011C28.3233 35.0175 28.8334 35.3205 28.8334 35.8832C28.8334 36.4892 28.2383 36.8787 26.9206 36.8787C25.7729 36.8787 24.6251 36.5325 24.4126 36.4892V38.9564C24.5401 38.9996 25.8579 39.2593 27.3031 39.2593C29.3435 39.2593 31.6815 38.3504 31.6815 35.6668C31.5964 34.325 30.8313 33.1131 29.0885 32.5504ZM31.2989 15.41C30.5763 15.41 29.9811 16.016 29.9811 16.7518V19.5653C29.9811 20.3011 30.5763 20.9071 31.2989 20.9071C32.0215 20.9071 32.6166 20.3011 32.6166 19.5653V16.7518C32.6166 16.016 32.0215 15.41 31.2989 15.41ZM47.1118 22.2489V8.00854C47.1118 7.27272 46.5167 6.66675 45.7941 6.66675C45.0715 6.66675 44.4763 7.27272 44.4763 8.00854V22.2489C44.4763 22.9847 45.0715 23.5907 45.7941 23.5907C46.5167 23.5907 47.1118 22.9847 47.1118 22.2489ZM34.1894 33.6757C34.1894 37.1384 36.8249 39.2161 39.8005 39.2161C40.9907 39.2161 41.8834 38.9131 42.2234 38.8265V35.9265C42.0959 36.0131 41.2457 36.4892 39.9705 36.4892C38.1852 36.4892 37.0375 35.234 37.0375 33.6325C37.0375 31.9877 38.2277 30.7757 39.9705 30.7757C41.2457 30.7757 42.0959 31.2951 42.2234 31.3384V28.4384C41.9684 28.3519 41.0332 28.0489 39.8005 28.0489C36.5274 28.0922 34.1894 30.4728 34.1894 33.6757Z" fill="#282C4C"/>
</svg>
