<svg width="64" height="40" viewBox="0 0 64 40" fill="none" xmlns="http://www.w3.org/2000/svg">
<path d="M61.1307 37.5974C60.2512 36.6232 60.2912 35.6084 60.2912 35.6084V12.5925H51.6564V31.0215C51.5364 32.7669 49.8574 33.2134 48.938 33.1729C47.6188 33.1323 46.8193 32.361 46.8193 31.0621V12.5925H38.4243C36.4655 12.5925 34.9065 12.5925 32.5079 12.5925C27.9107 12.5925 23.5933 13.3232 22.1142 17.1795L21.2347 13.7697C21.0748 13.0796 20.3552 12.5925 19.6357 12.5925H18.5163H7.2831H4.64469C4.40483 12.5925 4.32488 12.6737 4.44481 12.8361C4.44481 12.8361 4.84457 13.242 5.60411 14.0944C6.64349 15.2716 6.24373 16.8547 6.24373 16.8547L0.727051 39.0993H8.72223L9.88154 34.2283H17.5969L18.7962 39.0993H29.3098C33.6272 39.0993 37.1451 38.6528 38.8641 35.9331C40.1433 38.4093 42.9416 39.5864 47.8587 39.1805C49.5776 39.0182 51.2566 38.2063 51.9762 36.9479L52.296 38.0033C52.5758 38.6528 53.1755 39.1399 54.0149 39.1399H62.0501C62.25 39.1399 62.3299 39.0587 62.21 38.937C62.29 38.8558 61.8502 38.3687 61.1307 37.5974ZM20.2753 17.3824C20.3152 17.3418 20.3952 17.3418 20.4752 17.3418L21.9143 18.2349C21.8743 18.4784 21.8343 18.6814 21.7944 18.9249V18.9655L21.7544 18.9249L20.2753 17.5448C20.2753 17.5042 20.2353 17.5042 20.2353 17.4636C20.2353 17.423 20.2353 17.3824 20.2753 17.3824ZM18.8361 19.2497C18.8761 19.2091 18.9561 19.1685 19.036 19.1685L21.7144 20.2645V20.3457C21.7144 20.6704 21.7144 20.9951 21.7544 21.2793V21.3199L21.7144 21.2793L18.8361 19.3715H18.7962C18.7562 19.3715 18.7562 19.3309 18.7562 19.2903C18.7962 19.3309 18.7962 19.2903 18.8361 19.2497ZM17.9167 21.2793L21.9143 22.1723C22.0342 22.6188 22.1541 23.0654 22.354 23.4713L22.394 23.5119L22.314 23.5525L17.8367 21.5634H17.7968C17.7568 21.5634 17.7568 21.5228 17.7568 21.5228C17.7568 21.4823 17.7568 21.4417 17.7568 21.4011C17.7568 21.3199 17.8367 21.2793 17.9167 21.2793ZM11.0808 29.3978L13.7592 18.519L16.4376 29.3978H11.0808ZM33.1475 32.9699C32.388 33.7006 30.9488 34.0253 29.4298 33.8629C28.9101 33.8223 28.2705 33.6194 27.6308 33.3352L26.6314 34.553L26.5915 34.5936L24.3928 37.3539C24.3528 37.3945 24.2729 37.4351 24.1929 37.3945C24.1529 37.3945 24.113 37.3539 24.113 37.3133C24.113 37.2727 24.113 37.2727 24.113 37.2321V37.1915L26.3116 32.6857C26.3116 32.6857 26.3116 32.6857 26.3116 32.6452C26.3116 32.6452 26.3116 32.6046 26.2717 32.6046C26.2317 32.6046 26.2317 32.6046 26.1917 32.6046L22.314 36.0955C22.2741 36.1361 22.1941 36.1361 22.1142 36.0955C22.0742 36.0549 22.0742 36.0143 22.0742 35.9737C22.0742 35.9331 22.0742 35.9331 22.0742 35.8925L25.1124 31.7927V31.7521C25.1124 31.7521 25.1124 31.7521 25.0724 31.7115C25.0324 31.7115 25.0324 31.7115 24.9924 31.7115L20.4752 34.5124C20.3952 34.5124 20.3152 34.5124 20.2753 34.4718C20.2353 34.4312 20.2353 34.3906 20.2353 34.35C20.2353 34.3094 20.2353 34.3094 20.2753 34.2688L24.073 30.6967C24.073 30.6967 24.073 30.6967 24.073 30.6561V30.6155C24.073 30.5749 24.033 30.5749 23.993 30.6155L18.996 32.6452C18.9161 32.6452 18.8361 32.6452 18.7962 32.564C18.7562 32.5234 18.7562 32.4828 18.7962 32.4422C18.7962 32.4016 18.8361 32.4016 18.8361 32.361L23.2735 29.4384C23.2735 29.4384 23.3134 29.4384 23.3134 29.3978V29.3572C23.3134 29.3166 23.2735 29.3166 23.2335 29.3166L17.9167 30.5344C17.8367 30.5344 17.7568 30.4938 17.7568 30.4532C17.7568 30.4126 17.7568 30.372 17.7568 30.3314C17.7568 30.2908 17.7968 30.2908 17.7968 30.2502H17.8367L22.7538 28.0582C22.7538 28.0582 22.7938 28.0582 22.7938 28.0176V27.977C22.7938 27.9364 22.7538 27.9364 22.7138 27.9364L17.2771 28.3018H17.2371C17.1572 28.3018 17.1172 28.2612 17.0772 28.18C17.0772 28.1394 17.0772 28.0988 17.1172 28.0582C17.1172 28.0176 17.1572 28.0176 17.1971 28.0176H17.2371L22.5139 26.6375H22.5539V26.5969C22.5539 26.5563 22.5139 26.5563 22.5139 26.5563L17.0772 26.0286H17.0372C16.9972 26.0286 16.9972 26.0286 16.9573 25.988C16.9173 25.9474 16.9173 25.9068 16.9173 25.9068C16.9173 25.8256 16.9573 25.785 17.0372 25.785H17.0772L22.5139 25.2573C22.5539 25.2573 22.5539 25.2168 22.5539 25.2168V25.1762H22.5139L17.2371 23.796H17.1971C17.1572 23.796 17.1572 23.7554 17.1172 23.7554C17.0772 23.7148 17.0772 23.6742 17.0772 23.6337C17.0772 23.5525 17.1572 23.5119 17.2371 23.5119H17.2771L22.5139 23.8366C23.8731 26.3127 26.7114 27.3276 29.1899 28.18C31.6284 29.0324 33.7072 29.7631 33.7072 31.6709C33.7472 32.158 33.5473 32.6046 33.1475 32.9699ZM40.8629 36.0955C40.8229 36.1361 40.7429 36.1361 40.663 36.0955L39.4237 34.9995C39.5037 34.7965 39.5836 34.553 39.6636 34.3094V34.2688L39.7036 34.3094L40.9028 35.8925C40.9028 35.9331 40.9428 35.9331 40.9428 35.9737C40.9028 36.0549 40.9028 36.0955 40.8629 36.0955ZM42.6618 34.4718C42.6218 34.5124 42.5419 34.5124 42.4619 34.5124L39.9834 33.0105C40.0234 32.6857 40.0634 32.3204 40.1033 31.9551V31.9145L40.1433 31.9551L42.6618 34.35C42.6618 34.3906 42.7018 34.3906 42.7018 34.4312C42.7018 34.3906 42.7018 34.4312 42.6618 34.4718ZM44.1409 32.564C44.1009 32.6046 44.021 32.6452 43.941 32.6452L40.1433 31.1026V31.0215V30.8997C40.1433 30.5344 40.1033 30.1284 40.0634 29.7631V29.7225L40.1033 29.7631L44.1009 32.4016C44.1409 32.4016 44.1409 32.4422 44.1409 32.4828C44.1409 32.4828 44.1409 32.5234 44.1409 32.564ZM46.0597 26.0286C46.0198 26.0692 46.0198 26.0692 45.9798 26.0692H45.9398L40.5031 26.5969C40.4631 26.5969 40.4631 26.6375 40.4631 26.6375V26.6781H40.5031L45.7799 28.0582H45.8199C45.8599 28.0582 45.8599 28.0988 45.8998 28.0988C45.9398 28.1394 45.9398 28.18 45.9398 28.2206C45.9398 28.3018 45.8599 28.3424 45.7799 28.3424L40.2233 28.0176C40.1833 28.0176 40.1833 28.0176 40.1433 28.0582V28.0988C40.1433 28.0988 40.1433 28.0988 40.1833 28.1394L45.1003 30.3314C45.1403 30.3314 45.1403 30.372 45.1403 30.4126C45.1403 30.4532 45.1403 30.4938 45.1403 30.5344C45.1003 30.6155 45.0603 30.6561 44.9804 30.6155L39.9834 29.4789C39.6636 27.8147 38.7441 26.4751 37.1851 25.3791C35.8259 24.4455 34.1469 23.796 32.7078 23.2277C31.5885 22.7812 30.5091 22.3753 29.7496 21.8882C28.9101 21.3605 28.5103 20.7516 28.5103 20.0209C28.5103 19.4932 28.6702 19.0467 29.03 18.722C29.6296 18.1537 30.709 17.8289 32.1481 17.8695C32.1881 17.8695 32.1881 17.8695 32.2281 17.8695C32.9476 17.8695 34.4667 18.1537 35.3862 18.6002L38.0646 15.231L38.1045 15.1904L38.6642 14.5004C38.7042 14.4598 38.7841 14.4192 38.8641 14.4598C38.904 14.5004 38.944 14.5004 38.944 14.541C38.944 14.5816 38.944 14.5816 38.944 14.6221L36.7054 19.1685C36.7054 19.1685 36.7054 19.1685 36.7054 19.2091C36.7054 19.2091 36.7054 19.2497 36.7453 19.2497C36.7853 19.2497 36.7853 19.2497 36.8253 19.2497L40.7829 15.7993C40.8229 15.7587 40.9028 15.7587 40.9828 15.7993C41.0228 15.8399 41.0228 15.8805 41.0228 15.9211C41.0228 15.9617 41.0228 15.9617 41.0228 16.0023L37.9446 20.1427C37.9446 20.1427 37.9446 20.1427 37.9446 20.1833V20.2239C37.9846 20.2645 37.9846 20.2645 38.0246 20.2239L42.5818 17.423C42.6618 17.3824 42.7417 17.3824 42.7817 17.4636C42.8217 17.5042 42.8217 17.5448 42.8217 17.5854C42.8217 17.626 42.8217 17.626 42.7817 17.6666L38.984 21.2387C38.984 21.2387 38.984 21.2387 38.984 21.2793V21.3199C38.984 21.3199 39.024 21.3605 39.064 21.3199L44.0609 19.2903C44.1409 19.2903 44.2208 19.2903 44.2608 19.3715C44.3008 19.412 44.3008 19.4526 44.2608 19.4932C44.2608 19.5338 44.2208 19.5338 44.2208 19.5744H44.1809L39.7435 22.4971C39.7435 22.4971 39.7036 22.4971 39.7036 22.5377V22.5782C39.7036 22.6188 39.7435 22.6188 39.7835 22.5782L45.1003 21.3605C45.1803 21.3605 45.2602 21.4011 45.2602 21.4417C45.2602 21.4823 45.2602 21.5228 45.2602 21.5634C45.2602 21.604 45.2202 21.604 45.2202 21.6446H45.1803L40.2632 23.8366H40.2233V23.8772C40.2233 23.9178 40.2632 23.9178 40.3032 23.9178L45.7799 23.5525C45.8599 23.5525 45.8998 23.5931 45.9398 23.6742C45.9398 23.7148 45.9398 23.7554 45.8998 23.796C45.8998 23.8366 45.8599 23.8366 45.8199 23.8366H45.7799L40.4631 25.1762H40.4231V25.2168C40.4231 25.2573 40.4631 25.2573 40.4631 25.2573L45.8998 25.785H45.9398C45.9798 25.785 45.9798 25.785 46.0198 25.8256C46.0597 25.8662 46.0597 25.9068 46.0597 25.9068C46.0997 25.9474 46.0597 25.988 46.0597 26.0286ZM62.6098 12.5925C62.0501 12.5925 61.5704 13.0796 61.5704 13.6479C61.5704 14.2162 62.0501 14.7033 62.6098 14.7033C63.1694 14.7033 63.6491 14.2162 63.6491 13.6479C63.6491 13.0796 63.1694 12.5925 62.6098 12.5925ZM62.6098 14.541C62.1301 14.541 61.7703 14.135 61.7703 13.6479C61.7703 13.1202 62.1301 12.7549 62.6098 12.7549C63.0895 12.7549 63.4493 13.1608 63.4493 13.6479C63.4493 14.1756 63.0895 14.541 62.6098 14.541ZM63.0895 13.3638C63.0895 13.1202 62.9296 12.9985 62.6897 12.9985H62.21V14.2568H62.4099V13.7291H62.5698L62.9296 14.2974H63.1295L62.7697 13.7291C62.9695 13.7291 63.0895 13.5667 63.0895 13.3638ZM62.4099 13.5667V13.2014H62.6497C62.7697 13.2014 62.8896 13.242 62.8896 13.3638C62.8896 13.5262 62.8096 13.5667 62.6497 13.5667H62.4099Z" fill="#282C4C"/>
</svg>
