<svg width="94" height="40" viewBox="0 0 94 40" fill="none" xmlns="http://www.w3.org/2000/svg">
<path d="M35.2619 23.7037C33.5474 23.7037 32.5187 24.9876 32.5187 27.1604C32.5187 29.1851 33.4495 30.716 35.2619 30.716C36.9764 30.716 38.103 29.3333 38.103 27.1111C38.054 24.7407 36.8294 23.7037 35.2619 23.7037ZM80.6219 29.5802C80.6219 30.3209 80.9648 30.9135 81.9935 30.9135C83.1691 30.9135 84.4427 30.074 84.4917 28.0987C83.9529 28 83.3651 27.9506 82.8262 27.9506C81.6506 27.9506 80.6219 28.2963 80.6219 29.5802ZM0.727539 11.8518V38.5185H93.26V11.8518H0.727539ZM27.6202 33.037H22.7707V26.4691C22.7707 24.4444 22.085 23.6543 20.8113 23.6543C19.2438 23.6543 18.558 24.7901 18.558 26.4197V30.4691H20.0766V32.9876H15.2271V26.4691C15.2271 24.4444 14.5413 23.6543 13.2677 23.6543C11.7002 23.6543 11.0144 24.7901 11.0144 26.4197V30.4691H13.2187V32.9876H6.21385V30.4691H7.73238V23.9012H6.21385V21.3827H11.0634V23.1604C11.7491 21.9259 12.9738 21.1851 14.5903 21.1851C16.2558 21.1851 17.7743 21.9753 18.3621 23.7037C18.9989 22.1728 20.3215 21.1851 22.1339 21.1851C24.1913 21.1851 26.1017 22.4691 26.1017 25.2345V30.5679H27.6202V33.037V33.037ZM35.1149 33.2839C31.539 33.2839 29.0898 31.0617 29.0898 27.358C29.0898 23.9506 31.1472 21.1358 35.3109 21.1358C39.4746 21.1358 41.483 23.9506 41.483 27.2098C41.483 30.9629 38.7888 33.2839 35.1149 33.2839ZM53.7782 33.037H43.6873L43.3444 31.2592L49.7124 23.9012H46.0876L45.5977 25.7284L43.1974 25.4814L43.5893 21.3827H53.7292L53.9741 23.1604L47.6061 30.5185H51.3289L51.8678 28.6913L54.464 28.9382L53.7782 33.037ZM60.3911 33.037H56.9132V28.8395H60.3911V33.037ZM60.3911 25.5802H56.9132V21.3827H60.3911V25.5802ZM62.5465 33.037L67.5429 15.2592H70.8249L65.8285 33.037H62.5465ZM69.2574 33.037L74.2539 15.2592H77.5359L72.5394 33.037H69.2574ZM87.0389 33.2839C85.5204 33.2839 84.6387 32.395 84.4917 30.9629C83.8059 32.1481 82.6303 33.2839 80.7689 33.2839C79.1034 33.2839 77.193 32.395 77.193 29.9259C77.193 27.0617 79.9361 26.3703 82.5813 26.3703C83.2181 26.3703 83.9039 26.4197 84.4917 26.4691V26.074C84.4917 24.8888 84.4427 23.4567 82.5813 23.4567C81.8955 23.4567 81.3567 23.5061 80.8179 23.8024L80.426 25.1358L77.7808 24.8395L78.2216 22.1728C80.23 21.3333 81.2587 21.1358 83.1691 21.1358C85.6674 21.1358 87.7737 22.4197 87.7737 25.0864V30.1728C87.7737 30.8642 88.0186 31.0617 88.5575 31.0617C88.7044 31.0617 88.8514 31.0123 89.0473 30.9629L89.0963 32.7407C88.5085 33.0864 87.7737 33.2839 87.0389 33.2839Z" fill="#282C4C"/>
</svg>
