<svg width="60" height="40" viewBox="0 0 60 40" fill="none" xmlns="http://www.w3.org/2000/svg">
<path fill-rule="evenodd" clip-rule="evenodd" d="M5.38336 23.6952C5.38336 22.7784 5.93963 21.9013 6.87766 21.9013C8.58408 21.9013 8.88084 23.2796 9.0531 24.5719L12.6348 23.9886C12.3381 20.8597 10.6313 18.3999 7.17441 18.3999C3.72057 18.3999 1.28862 20.8597 1.28862 24.1993C1.28862 31.2885 8.96847 31.4963 8.96847 34.7899C8.96847 35.7496 8.33133 36.4978 7.30568 36.4978C5.6835 36.4978 5.17124 35.5815 4.8301 33.3294L0.948242 33.9132C1.37325 37.6224 3.03943 40 7.08979 40C10.928 40 13.4036 37.4575 13.4036 33.8272C13.4036 27.4474 5.38336 27.114 5.38336 23.6952Z" fill="#282C4C"/>
<path fill-rule="evenodd" clip-rule="evenodd" d="M24.8318 18.3999C22.9926 18.3999 21.4987 19.5704 20.3425 20.7409H20.2582V18.7337H15.2992V39.733H20.2582V23.2115C20.5994 22.7948 21.2418 22.4181 21.9248 22.4181C22.7797 22.4181 23.3345 22.917 23.3345 24.5075V39.7296H28.2965V22.7485C28.2965 19.9904 27.1844 18.3999 24.8318 18.3999Z" fill="#282C4C"/>
<path fill-rule="evenodd" clip-rule="evenodd" d="M40.5389 18.5001C38.6997 18.5001 37.202 19.6654 36.0488 20.8303H35.9642V10.1331H31.004V39.7328H35.9642V23.2891C36.3057 22.8746 36.9447 22.499 37.6315 22.499C38.4831 22.499 39.0412 22.9961 39.0412 24.5792V39.7295H44.0014V22.8283C44.0014 20.0829 42.8922 18.5001 40.5389 18.5001Z" fill="#282C4C"/>
<path fill-rule="evenodd" clip-rule="evenodd" d="M54.4712 18.6665V35.1873C54.1297 35.6073 53.4877 35.9844 52.805 35.9844C51.9501 35.9844 51.3958 35.4814 51.3958 33.8938V18.6665H46.4386V35.6473C46.4386 38.2831 47.8509 39.9999 50.1151 39.9999C51.7843 39.9999 53.238 38.8291 54.39 37.6579H54.478V39.6655H59.4288V18.6665H54.4712Z" fill="#282C4C"/>
<path fill-rule="evenodd" clip-rule="evenodd" d="M40.5844 13.6577C43.6377 12.8369 48.0202 12.6391 49.8541 12.2161C52.5636 11.5879 54.7872 9.61699 56.0344 8.36503C57.9958 6.3967 59.6609 1.63145 59.0286 0.272813C58.3964 -1.08583 60.3153 3.04788 52.4647 3.51459C46.1915 3.61349 45.2546 4.40948 44.49 4.74692C40.6973 6.78377 39.1003 11.242 39.5234 12.1972C39.5234 12.1972 43.0593 7.49754 46.8772 6.7071C49.5758 6.14853 52.1849 6.01704 53.7747 5.53625C52.7818 6.06556 51.3187 6.72414 49.575 7.13269C45.2689 8.18131 44.2023 8.99916 44.2023 8.99916C44.2023 8.99916 38.8998 12.1835 37.2321 17.0558L37.7312 17.3332C37.7312 17.3332 38.3326 14.2615 40.5844 13.6577Z" fill="#282C4C"/>
</svg>
