<svg xmlns="http://www.w3.org/2000/svg" xmlns:xlink="http://www.w3.org/1999/xlink" width="32" height="32" viewBox="0 0 32 32">
    <defs>
        <path id="a" d="M0 32h32V0H0z"/>
    </defs>
    <g fill="none" fill-rule="evenodd">
        <path fill="#F2F2F2" d="M3.203 31.75A2.953 2.953 0 0 1 .25 28.797V3.203A2.953 2.953 0 0 1 3.203.25h25.594a2.953 2.953 0 0 1 2.953 2.953v25.594a2.953 2.953 0 0 1-2.953 2.953H3.203z"/>
        <mask id="b" fill="#fff">
            <use xlink:href="#a"/>
        </mask>
        <path fill="#000" d="M26.734.5h2V0h-2v.5zM22.797 32h2v-.5h-2v.5zm-8 0h2v-.5h-2v.5zm14-.5h-2v.5h2c.342 0 .679-.054.999-.159l-.156-.475a2.69 2.69 0 0 1-.843.134zM18.734.5h2V0h-2v.5zm.063 31.5h2v-.5h-2v.5zM22.734.5h2V0h-2v.5zm8.766 10h.5v-2h-.5v2zm0 4h.5v-2h-.5v2zm0-8h.5v-2h-.5v2zm0 12h.5v-2h-.5v2zm0 8h.5v-2h-.5v2zm0-4h.5v-2h-.5v2zm0 6.297c0 .526-.151 1.035-.437 1.473l.419.273A3.185 3.185 0 0 0 32 28.797V28.5h-.5v.297zm.41-26.349A3.21 3.21 0 0 0 30.751.665l-.306.396c.489.376.836.91.98 1.504l.485-.117zM0 19.031h.5v-2H0v2zm0-4h.5v-2H0v2zm0 8h.5v-2H0v2zM1.198 1.39l-.371-.336a3.215 3.215 0 0 0-.822 1.963l.499.028a2.716 2.716 0 0 1 .694-1.655zM0 27.031h.5v-2H0v2zm0-16h.5v-2H0v2zm0-4h.5v-2H0v2zM6.734.5h2V0h-2v.5zm4 0h2V0h-2v.5zm.063 31.5h2v-.5h-2v.5zM14.734.5h2V0h-2v.5zM6.797 32h2v-.5h-2v.5zM3.203.5h1.531V0H3.203c-.172 0-.341.014-.505.04l.077.494C2.915.512 3.058.5 3.203.5zM.01 29.05c.056.724.363 1.415.863 1.945l.364-.343a2.696 2.696 0 0 1-.728-1.641l-.499.039zm2.823 2.425l-.069.495c.143.02.29.03.439.03h1.594v-.5H3.203c-.126 0-.249-.008-.37-.025zM24.959 20.747c-.269.328-.658.491-1.167.491-.505 0-.893-.165-1.163-.495-.27-.331-.405-.8-.405-1.404 0-.604.137-1.07.41-1.397.272-.329.66-.492 1.164-.492.505 0 .892.162 1.161.486.269.326.403.793.403 1.402 0 .611-.134 1.08-.403 1.409zm.224-3c-.334-.39-.795-.584-1.385-.584-.587 0-1.049.194-1.387.58-.339.387-.508.917-.508 1.59 0 .675.168 1.207.504 1.598.335.39.797.585 1.385.585.59 0 1.053-.195 1.388-.585.336-.392.503-.922.503-1.593 0-.674-.166-1.204-.5-1.591zm-6.86 1.858h1.259v1.485c-.272.11-.603.166-.993.166-.601 0-1.057-.16-1.368-.482-.31-.32-.465-.8-.465-1.436 0-.585.163-1.049.49-1.393.327-.343.769-.515 1.326-.515.393 0 .773.085 1.14.253l.118-.265a2.913 2.913 0 0 0-1.241-.255c-.426 0-.803.09-1.132.271a1.859 1.859 0 0 0-.758.771 2.41 2.41 0 0 0-.264 1.145c0 .69.178 1.223.533 1.6.356.378.867.567 1.535.567.511 0 .971-.087 1.379-.261v-1.93h-1.559v.279zm-4.544 1.142c-.268.328-.658.491-1.167.491-.505 0-.893-.165-1.162-.495-.27-.331-.405-.8-.405-1.404 0-.604.136-1.07.409-1.397.273-.329.661-.492 1.164-.492.505 0 .893.162 1.161.486.269.326.404.793.404 1.402 0 .611-.135 1.08-.404 1.409zm-1.161-3.584c-.586 0-1.048.194-1.387.58-.338.387-.507.917-.507 1.59 0 .675.167 1.207.503 1.598.336.39.797.585 1.385.585.59 0 1.053-.195 1.389-.585.335-.392.503-.922.503-1.593 0-.674-.167-1.204-.5-1.591-.334-.39-.796-.584-1.386-.584zm-5.598.067h-.296v4.229h2.311v-.279H7.02v-3.95zm15.674-6.414h.7c.436 0 .75.073.943.22.193.148.289.38.289.704 0 .31-.098.544-.295.704-.196.158-.473.238-.83.238h-.807v-1.866zm0 2.12h1.05l1.09 1.844h.354l-1.149-1.928c.305-.085.532-.225.681-.418a1.14 1.14 0 0 0 .224-.717c0-.39-.125-.681-.376-.876-.25-.193-.638-.29-1.162-.29h-1.007v4.229h.295v-1.843zm-4.556 1.9c.503 0 .896-.136 1.177-.41.282-.274.423-.653.423-1.14V10.55h-.295v2.765c0 .396-.111.705-.333.928-.222.223-.534.333-.937.333-.413 0-.732-.113-.957-.34-.226-.226-.339-.543-.339-.95V10.55h-.298v2.724c0 .493.138.876.412 1.15.275.276.657.412 1.147.412zm-4.359-.768c-.268.328-.658.492-1.167.492-.505 0-.893-.167-1.162-.497-.27-.33-.405-.799-.405-1.404 0-.604.136-1.07.409-1.397.273-.329.661-.492 1.164-.492.505 0 .893.162 1.161.488.269.325.404.792.404 1.402 0 .61-.135 1.08-.404 1.408zm-1.161-3.585c-.586 0-1.048.194-1.387.58-.338.387-.507.917-.507 1.59 0 .675.167 1.207.503 1.598.336.39.797.585 1.385.585.59 0 1.053-.194 1.389-.585.335-.39.503-.921.503-1.591 0-.675-.167-1.206-.5-1.594-.334-.388-.796-.583-1.386-.583zm-4.731 2.381L6.655 10.55h-.338l1.414 2.617v1.613h.304v-1.635l1.408-2.595h-.318l-1.238 2.314z" mask="url(#b)"/>
    </g>
</svg>
