<svg xmlns="http://www.w3.org/2000/svg" xmlns:xlink="http://www.w3.org/1999/xlink" width="146" height="32" viewBox="0 0 146 32">
    <defs>
        <path id="a" d="M0 32h146V0H0z"/>
    </defs>
    <g fill="none" fill-rule="evenodd">
        <path fill="#F2F2F2" d="M142.779 31.75H3.22A2.972 2.972 0 0 1 .25 28.779V3.222A2.972 2.972 0 0 1 3.222.25h139.557a2.972 2.972 0 0 1 2.97 2.972v25.557a2.97 2.97 0 0 1-2.97 2.971"/>
        <mask id="b" fill="#fff">
            <use xlink:href="#a"/>
        </mask>
        <path fill="#000" d="M101.449.5h2.005V0h-2.005v.5zm-.775 31.5h2.005v-.5h-2.005v.5zm4.01 0h2.005v-.5h-2.005v.5zM97.439.5h2.005V0h-2.005v.5zm8.02 0h2.005V0h-2.005v.5zm7.245 31.5h2.005v-.5h-2.005v.5zm.775-31.5h2.005V0h-2.005v.5zM96.664 32h2.005v-.5h-2.005v.5zM109.469.5h2.005V0h-2.005v.5zm-.776 31.5h2.005v-.5h-2.005v.5zm-32.08 0h2.005v-.5h-2.005v.5zm4.01 0h2.005v-.5h-2.005v.5zM81.399.5h2.005V0h-2.005v.5zm12.03 0h2.005V0h-2.005v.5zm-16.04 0h2.005V0h-2.005v.5zM116.714 32h2.005v-.5h-2.005v.5zm-24.061 0h2.005v-.5h-2.005v.5zm-8.019 0h2.005v-.5h-2.005v.5zM89.419.5h2.005V0h-2.005v.5zM88.644 32h2.005v-.5h-2.005v.5zM85.409.5h2.005V0h-2.005v.5zm32.08 0h2.005V0h-2.005v.5zM145.5 27.398h.5v-2.005h-.5v2.005zm-.997 3.486l.317.386a3.23 3.23 0 0 0 1.11-1.82l-.49-.104c-.127.6-.46 1.146-.937 1.538zM141.549 0v.5h1.23c.238 0 .474.031.702.091l.128-.483a3.22 3.22 0 0 0-.83-.108h-1.23zm3.951 23.388h.5v-2.005h-.5v2.005zm-.128-22.078l-.403.296c.347.471.531 1.029.531 1.616v.116h.5v-.116c0-.695-.217-1.356-.628-1.912zm.128 18.068h.5v-2.005h-.5v2.005zm0-12.03h.5V5.343h-.5v2.005zM140.773 31.5v.5h2.04l-.034-.5h-2.006zm4.727-16.132h.5v-2.005h-.5v2.005zm0-4.01h.5V9.353h-.5v2.005zM136.764 32h2.005v-.5h-2.005v.5zm-12.031 0h2.005v-.5h-2.005v.5zM121.499.5h2.005V0h-2.005v.5zm-.775 31.5h2.005v-.5h-2.005v.5zM125.509.5h2.005V0h-2.005v.5zm4.01 0h2.005V0h-2.005v.5zm4.01 0h2.005V0h-2.005v.5zm-60.15 0h2.005V0h-2.005v.5zM128.744 32h2.005v-.5h-2.005v.5zM137.539.5h2.005V0h-2.005v.5zM132.754 32h2.005v-.5h-2.005v.5zM61.349.5h2.005V0h-2.005v.5zM5.209.5h2.005V0H5.209v.5zm20.05 0h2.005V0h-2.005v.5zM8.443 32h2.005v-.5H8.443v.5zM9.219.5h2.005V0H9.219v.5zm4.009 0h2.005V0h-2.005v.5zm8.021 0h2.005V0h-2.005v.5zM24.483 32h2.005v-.5h-2.005v.5zm-8.02 0h2.005v-.5h-2.005v.5zM17.239.5h2.005V0h-2.005v.5zM20.474 32h2.005v-.5h-2.005v.5zm-8.021 0h2.005v-.5h-2.005v.5zM0 16.615h.5V14.61H0v2.005zm0 4.01h.5V18.62H0v2.005zm0 4.01h.5V22.63H0v2.005zm0 4.01h.5V26.64H0v2.005zm0-20.05h.5V6.59H0v2.005zM1.021 30.38l-.404.295a3.243 3.243 0 0 0 1.755 1.212l.132-.483a2.732 2.732 0 0 1-1.483-1.024zM0 12.605h.5V10.6H0v2.005zM1.194.717l.316.389A2.688 2.688 0 0 1 3.205.5L3.202 0a3.234 3.234 0 0 0-2.008.717zM0 3.222v1.363h.5V3.222c0-.197.021-.393.062-.584l-.488-.106a3.254 3.254 0 0 0-.074.69zM4.434 32h2.005v-.5H4.434v.5zm68.169 0h2.005v-.5h-2.005v.5zm-44.11 0h2.005v-.5h-2.005v.5zM53.329.5h2.005V0h-2.005v.5zm4.01 0h2.005V0h-2.005v.5zM52.554 32h2.005v-.5h-2.005v.5zM69.369.5h2.005V0h-2.005v.5zM68.594 32h2.005v-.5h-2.005v.5zm-8.021 0h2.005v-.5h-2.005v.5zM49.319.5h2.005V0h-2.005v.5zM64.583 32h2.005v-.5h-2.005v.5zM65.359.5h2.005V0h-2.005v.5zM56.563 32h2.005v-.5h-2.005v.5zM33.279.5h2.005V0h-2.005v.5zm-4.01 0h2.005V0h-2.005v.5zM48.543 32h2.005v-.5h-2.005v.5zm-12.029 0h2.005v-.5h-2.005v.5zm-4.011 0h2.005v-.5h-2.005v.5zm12.03 0h2.005v-.5h-2.005v.5zM45.309.5h2.005V0h-2.005v.5zM40.523 32h2.005v-.5h-2.005v.5zM41.299.5h2.005V0h-2.005v.5zm-4.01 0h2.005V0h-2.005v.5zM33.18 16.413l2.508-4.687h.644l-2.853 5.255v3.311h-.615v-3.264l-2.866-5.302h.686zM40.14 15.997c0 1.227.272 2.175.82 2.845.546.67 1.331 1.005 2.355 1.005 1.031 0 1.82-.332 2.364-.996.545-.665.817-1.616.817-2.854 0-1.234-.272-2.181-.817-2.839-.545-.658-1.329-.987-2.352-.987-1.02 0-1.806.332-2.359.996-.553.664-.829 1.607-.829 2.83m7.008 0c0 1.359-.34 2.435-1.02 3.226-.679.791-1.617 1.186-2.812 1.186-1.192 0-2.127-.395-2.807-1.186-.68-.791-1.019-1.871-1.019-3.238 0-1.363.342-2.436 1.028-3.219.685-.784 1.622-1.175 2.81-1.175 1.195 0 2.13.393 2.806 1.18.676.788 1.014 1.863 1.014 3.226M57.814 11.726v5.542c0 .985-.285 1.755-.855 2.31-.571.553-1.366.832-2.385.832-.992 0-1.767-.28-2.323-.835-.557-.558-.835-1.334-.835-2.33v-5.52h.603v5.543c0 .825.229 1.466.686 1.925.457.46 1.103.688 1.939.688.816 0 1.449-.224 1.899-.677.449-.45.673-1.076.673-1.877v-5.602h.598zM63.144 16.044h1.635c.722 0 1.283-.161 1.681-.483.399-.323.598-.798.598-1.427 0-.653-.195-1.127-.586-1.424-.39-.297-1.027-.445-1.91-.445h-1.418v3.779zm0 .516v3.732h-.598v-8.566h2.039c1.063 0 1.848.196 2.356.589.508.392.762.983.762 1.772 0 .574-.152 1.059-.455 1.453-.302.395-.762.678-1.379.85l2.326 3.902h-.715l-2.209-3.732h-2.127zM77.594 20.292v-8.566h.598v8.004h4.084v.562zM86.346 15.997c0 1.227.273 2.175.82 2.845.547.67 1.332 1.005 2.356 1.005 1.031 0 1.82-.332 2.364-.996.545-.665.817-1.616.817-2.854 0-1.234-.272-2.181-.817-2.839-.545-.658-1.329-.987-2.352-.987-1.02 0-1.806.332-2.359.996-.553.664-.829 1.607-.829 2.83m7.008 0c0 1.359-.34 2.435-1.02 3.226-.679.791-1.617 1.186-2.812 1.186-1.192 0-2.127-.395-2.807-1.186-.68-.791-1.019-1.871-1.019-3.238 0-1.363.342-2.436 1.028-3.219.685-.784 1.622-1.175 2.81-1.175 1.195 0 2.13.393 2.806 1.18.676.788 1.014 1.863 1.014 3.226M101.091 15.974h3.158v3.908c-.828.352-1.76.528-2.795.528-1.35 0-2.387-.382-3.108-1.146-.72-.764-1.08-1.845-1.08-3.243 0-.871.178-1.644.535-2.318a3.755 3.755 0 0 1 1.535-1.561c.666-.367 1.431-.551 2.294-.551.934 0 1.772.172 2.514.516l-.24.539a5.434 5.434 0 0 0-2.309-.516c-1.129 0-2.025.349-2.687 1.046-.662.697-.993 1.638-.993 2.82 0 1.29.315 2.26.944 2.91.628.65 1.552.976 2.771.976.79 0 1.46-.111 2.01-.334v-3.012h-2.549v-.562zM108.994 15.997c0 1.227.273 2.175.82 2.845.547.67 1.332 1.005 2.356 1.005 1.03 0 1.819-.332 2.364-.996.545-.665.817-1.616.817-2.854 0-1.234-.272-2.181-.817-2.839-.545-.658-1.33-.987-2.352-.987-1.02 0-1.806.332-2.36.996-.552.664-.828 1.607-.828 2.83m7.008 0c0 1.359-.34 2.435-1.02 3.226-.68.791-1.617 1.186-2.812 1.186-1.192 0-2.127-.395-2.807-1.186-.68-.791-1.02-1.871-1.02-3.238 0-1.363.343-2.436 1.029-3.219.685-.784 1.622-1.175 2.81-1.175 1.195 0 2.13.393 2.806 1.18.676.788 1.014 1.863 1.014 3.226" mask="url(#b)"/>
    </g>
</svg>
