<svg xmlns="http://www.w3.org/2000/svg" width="129" height="40" viewBox="0 0 129 40">
    <g fill="none" fill-rule="evenodd">
        <path fill="#F5F7FA" d="M68.768 4.809V6.33h1.025v1.396a5.206 5.206 0 0 0-1.598-.24c-1.722.043-2.747.931-2.747 2.976v1.367c0 1.763.56 3.13 2.637 3.13.52 0 1.298-.169 1.982-.535l.122.409h2.583V13.31h-.943V4.809h-3.06zm-1.311 7.233v-1.636c0-1.043.355-1.283 1.202-1.283.465 0 .806.056 1.134.141v3.906c-.369.084-.847.155-1.134.155-.956 0-1.202-.353-1.202-1.283zm-18.5-7.233V6.33h1.025v8.39c1.202.183 2.268.24 3.17.24 2.678 0 3.21-1.368 3.21-3.13v-1.368c0-2.045-1.024-2.933-2.746-2.975-.67 0-1.202.112-1.598.24v-2.92h-3.06zm3.061 8.46V9.263c.328-.085.67-.141 1.134-.141.847 0 1.202.24 1.202 1.283v1.636c0 .93-.246 1.283-1.202 1.283-.287 0-.738 0-1.134-.057zm32.531-5.034l-.178-.62h-2.705v1.522h1.025v4.174h-.916v1.523H85.628V13.31h-.901V9.617c.71-.226 1.926-.268 2.418-.282V7.488c-.888 0-1.749.437-2.596.747zm-10.958 2.383v1.367c0 2.045 1.025 2.933 2.747 2.975.642 0 1.147-.112 1.544-.225-.014.507-.15.987-.67 1.17-.71.268-2.05.254-3.293.254v1.65h.588c.806 0 2.063 0 3.156-.254 2.295-.607 2.309-2.256 2.309-3.666V9.137h1.025V7.614h-2.665l-.123.41c-.683-.367-1.461-.536-1.98-.536-2.077 0-2.638 1.367-2.638 3.13zm2.009 1.424v-1.636c0-.93.246-1.283 1.202-1.283.287 0 .765.07 1.134.155v3.906c-.328.084-.67.14-1.134.14-.847 0-1.202-.239-1.202-1.282zM59.314 7.657c-1.886.465-1.94 1.945-1.94 2.806v1.466c0 1.762.56 3.031 2.637 3.031.519 0 1.243-.169 1.926-.535l.123.409h2.541V13.31H63.7V7.953c-1.107-.324-2.036-.465-3.06-.465-.48 0-.848.056-1.326.169zm.095 4.37V10.52c0-.93.15-1.396 1.203-1.396.273 0 .683.028 1.052.085v3.905c-.342.113-.793.198-1.052.198-.97 0-1.189-.353-1.203-1.283z"/>
        <path fill="#FCFCFC" d="M52.72 27.74h2.178c.936 0 1.515-.204 1.515-1.753 0-1.566-.579-1.77-1.515-1.77h-2.179v3.523zm0 4.494h1.36v1.957h-5.327v-1.957h1.362v-8.187h-1.362v-1.958h6.145c2.519 0 4.136.46 4.136 3.898 0 3.439-1.617 3.881-4.136 3.881h-2.179v2.366zm7.352-1.549v-1.77c0-1.038.068-2.826 2.417-3.387.596-.137 1.056-.205 1.651-.205 1.277 0 2.434.17 3.813.562v6.468h1.124v1.838H65.91l-.154-.493c-.85.442-1.753.647-2.4.647-2.587 0-3.285-1.532-3.285-3.66zm2.537-1.702v1.821c.017 1.124.289 1.55 1.497 1.55.324 0 .885-.103 1.311-.24V27.4a9.789 9.789 0 0 0-1.31-.102c-1.311 0-1.498.562-1.498 1.685zM75.698 32.2c-.613.085-1.124.085-1.43.085-.613 0-.868-.442-.868-1.004v-3.95h2.28v-1.854H73.4v-2.162h-2.06l-.374 2.162h-1.31v1.855h1.225v4.272c.05 1.873 1.328 2.74 3.047 2.74.46 0 1.106-.067 1.77-.17V32.2zm7.455 1.991h3.66v-1.838h-1.124v-3.71c0-2.128-.698-3.32-3.285-3.32-.68 0-1.668.12-2.213.29v-3.524H76.38v1.839h1.276v8.425h-1.14v1.838h4.8v-1.838H80.19v-4.885a6.11 6.11 0 0 1 1.481-.17c1.056 0 1.481.29 1.481 1.549v5.344zm16.732-6.876h1.021v-1.838h-4.46v1.838h.937l-.868 3.557h-.034l-1.43-5.14H93.18l-1.447 5.14h-.034l-.851-3.557h.936v-1.838h-4.477v1.838h1.022l2.008 6.876h2.468l1.294-4.868h.034l1.294 4.868h2.468l1.991-6.876zm1.872 3.37v-1.77c0-1.038.069-2.826 2.417-3.387.596-.137 1.056-.205 1.652-.205 1.276 0 2.434.17 3.812.562v6.468h1.124v1.838h-3.166l-.153-.493c-.852.442-1.754.647-2.4.647-2.588 0-3.286-1.532-3.286-3.66zm2.537-1.702v1.821c.017 1.124.289 1.55 1.497 1.55.324 0 .886-.103 1.311-.24V27.4a9.789 9.789 0 0 0-1.31-.102c-1.311 0-1.498.562-1.498 1.685zm7.063-1.668h1.022l2.74 6.69c-.715 1.752-1.447 1.735-3.2 1.786v1.992c.953-.017 1.89.034 2.621-.221 1.77-.613 2.605-1.89 3.303-3.932l2.536-6.315h1.021v-1.838h-4.545v1.838h.885l-1.327 3.966h-.034l-1.362-3.966h.885v-1.838h-4.545v1.838zm13.039 3.983h-2.213v2.468c1.14.374 2.162.579 2.979.579 2.468 0 3.847-.715 3.847-2.605 0-1.26-.783-2.025-2.043-2.62l-1.651-.767c-.272-.136-.443-.238-.443-.527 0-.324.324-.562.885-.562.17 0 .392 0 .664.05v.903h2.213v-2.366a6.366 6.366 0 0 0-2.52-.528c-2.62 0-3.778.8-3.778 2.417 0 1.311.545 1.89 1.924 2.554l1.583.749c.34.17.63.306.63.663 0 .477-.46.664-1.311.664a3.52 3.52 0 0 1-.766-.102v-.97z"/>
        <path fill="#B5445B" d="M37.629 30.009l-16.826 9.737-16.825-9.737V10.535L20.803.798l16.826 9.737z"/>
        <path fill="#FFF" d="M37.048 19.391l-9.225-6.713-3.654-3.056-2.111-.804-3.189 2.186-3.598.197-4.146 1.987-5.11 2.798-4.424 1.228v2.96l1.21 1.916 3.485 1.115 9.462 1.334 17.834 7.482 2.787-1.923.529-.659z"/>
        <path fill="#26334C" d="M20.77 38.784L4.48 29.358V22.96c.973.249 2.218.47 3.862.715l.034.005.033.005c4.554.686 6.599 1.776 6.744 1.856a24.25 24.25 0 0 1 8.208 8.58c.45.796.85 1.614 1.193 2.433l.013.032-3.797 2.197zm-8.343-21.403c-.014 0-.027.003-.04.004a.774.774 0 0 1 .092-.057.53.53 0 0 1 .25-.066c.146 0 .264.064.356.1.182.074.51.257.51.257-.255.037-.437.293-.766.403a.694.694 0 0 1-.146.028.382.382 0 0 0-.256-.669zm12.674-.666c-.287 0-.688-.268-.688-.268.334-.213.394-.67.394-.67a.487.487 0 0 1-.395.197c-.072 0-.12-.014-.12-.014.09-.214-.031-.427-.031-.427a.555.555 0 0 1-.496.273.709.709 0 0 1-.203-.03c.097-.316.02-.692-.016-.829l-.014-.053c-.004.01-.013.024-.021.037-.176.275-1.259.976-1.984 1.15a1.434 1.434 0 0 1-.319.049c-.317 0-.076-.262-.076-.262s.025-.045.075-.116l.002-.002c.17-.238.626-.775 1.442-1.008.08-.023.16-.044.243-.064a4.765 4.765 0 0 1 1.1-.145c.673 0 1.274.2 1.512.787.151.373.326.878.441 1.347.095.387.149.75.115.996a.45.45 0 0 1-.038.176h-.01c-.045.09-.117.144-.223.144a.425.425 0 0 1-.103-.014c-.486-.122-1.032-.761-1.032-.761.334-.122.577-.518.577-.518a.32.32 0 0 1-.132.025zm-21.53 1.789c-.073-.402-.813-1.141-1.098-1.414.643-.17 1.872-.495 3.348-.882 1.396-.366 6.48-4.33 10.28-4.85a23.507 23.507 0 0 1 1.619-.163 1.41 1.41 0 0 0 .32-.012c.335.005.858.022 1.514.072 1.036.098 2.086.255 2.606.338.444.07 1.182.232 1.994.422 1.76.465 3.611 1.186 5.182 2.307 4.08 2.91 6.417 5.051 6.551 5.354.13.292-6.727-.354-9.18-2.51-.097-.77-.432-1.679-.625-2.154-.208-.512-.731-1.123-2.046-1.123-.609 0-1.204.134-1.596.247-.106.03-.206.066-.302.103-.498-.134-.931-.204-1.267-.254-1.142-.168-2.956-.437-6.82.741-3.863 1.179-8.13 3.367-8.801 4.075-.672.707.067 1.717.672 2.155.604.437 1.243 1.178 1.478.572.235-.606.134-.74 1.008-.673.873.067 5.744.606 8.028.067 2.285-.539 4.57-1.179 5.006-1.65 0 0-.034.572-.202.875 0 0 .975-.134 1.31-.37 0 0-.033.404-.268.573 0 0 .57.202 1.008-.068 0 0-.37.337-.27.64.102.303 1.042.404 3.024.64 1.797.213 6.078 3.166 9.44 8.707l-1.008.584a7281.05 7281.05 0 0 0-5.307-3.197c-3.192-1.919-8.399-3.973-12.968-4.141-3.283-.121-7.041-.151-10.474-.962.97.083 2.096.151 2.957.12.347-.013.682-.03 1.003-.045 1.379-.067 2.469-.12 3.22.166a.202.202 0 0 0 .143-.378c-.83-.315-1.956-.26-3.383-.191-.319.015-.652.031-.998.044-1.81.066-4.886-.129-5.923-.681.181-.528.905-2.633.824-3.084zm16.411-7.838l-.041.003c-.056.005-.11.01-.164.013l-.07.004a4.29 4.29 0 0 1-.315.005 23.381 23.381 0 0 0 .279-.198c.2-.14.394-.278.58-.411.754-.539 1.413-1.008 1.87-1.083a.759.759 0 0 1 .121-.012c.04 0 .077.004.111.012.347.077.973.472 1.533.91-.016.06-.025.125-.031.186-.006.06-.009.118-.011.163a.868.868 0 0 1-.015.133c-.017.086-.046.14-.076.163l-.004.003a.048.048 0 0 1-.025.01.11.11 0 0 1-.05-.017c-.108-.058-.158-.256-.167-.32l-.026-.187-.168.084c-.07.035-.144.08-.218.123-.08.047-.19.113-.26.138.02-.345-.329-.634-.368-.666l-.14-.112-.068.165c-.195.472-1.383.806-2.318.894l.041-.003zm-15.501-.162l16.29-9.426 16.288 9.426v7.99c-2.905-2.84-6.003-4.954-9.215-6.285a.394.394 0 0 0-.07-.041c-1.098-.611-2.125-1.484-2.505-1.91-.656-.735-2.038-1.754-2.77-1.917a1.185 1.185 0 0 0-.257-.028c-.673 0-1.426.539-2.38 1.22-.185.132-.376.269-.574.407-.496.345-.751.49-.883.55a23.623 23.623 0 0 0-2.395.202c-2.64.36-5.748 2.226-8.016 3.587-1.008.605-1.96 1.177-2.343 1.277l-1.17.307v-5.359zm33.116-.933L21.307.144a1.071 1.071 0 0 0-1.074 0L3.943 9.571a1.078 1.078 0 0 0-.537.933v5.643c-.889.234-1.481.392-1.584.42-.917.238-1.476.64-1.709 1.226-.346.87.162 1.876.704 2.745.628 1.007 1.291 1.622 2.589 2.096v6.724c0 .385.205.74.537.933l16.29 9.427a1.073 1.073 0 0 0 1.075 0l16.289-9.427c.333-.193.537-.548.537-.933V10.504c0-.385-.204-.74-.537-.933z"/>
        <path fill="#47587F" d="M33.628 39.357c-.597 0-1.099-.2-1.506-.6a1.995 1.995 0 0 1-.611-1.482c0-.602.204-1.104.61-1.504.408-.4.91-.601 1.507-.601.613 0 1.123.2 1.53.6.408.401.612.903.612 1.505 0 .587-.204 1.081-.611 1.481-.408.4-.918.601-1.53.601zm0-.38c.492 0 .903-.165 1.234-.494.33-.33.496-.732.496-1.208 0-.483-.165-.89-.496-1.219-.33-.329-.742-.494-1.234-.494-.484 0-.89.165-1.216.494-.326.33-.49.736-.49 1.22 0 .475.164.878.49 1.207.327.329.732.494 1.216.494zm-.762-.464v-2.487h.883c.282 0 .5.07.653.209.154.138.23.33.23.577 0 .364-.181.614-.544.749l.544.952h-.544l-.508-.904h-.206v.904h-.508zm.508-1.368h.327c.274 0 .411-.111.411-.333 0-.23-.137-.345-.411-.345h-.327v.678z"/>
    </g>
</svg>
