<svg xmlns="http://www.w3.org/2000/svg" xmlns:xlink="http://www.w3.org/1999/xlink" width="736" height="306" viewBox="0 0 736 306">
    <defs>
        <path id="a" d="M0 305.403h735.567V.324H0z"/>
    </defs>
    <g fill="none" fill-rule="evenodd">
        <path fill="#D9D6EB" d="M635.358 205.487l-16.734-10.282 2.168-3.46 16.734 10.282z"/>
        <g transform="translate(0 .033)">
            <path fill="#D9D6EB" d="M626.391 66.406h-44.315c-3.466 0-5.552-1.428-6.69-2.627-1.448-1.525-2.247-3.59-2.247-5.813 0-4.342 3.19-8.955 9.095-8.955 3.443 0 6.617 1.859 8.411 3.154 8.568-7.645 16.172-6.544 20.213-5.014 1.57-10.843 11.01-19.203 22.386-19.203 12.47 0 22.615 10.047 22.615 22.396 0 3.945-1.052 7.825-3.04 11.223l-3.557-2.043a18.189 18.189 0 0 0 2.485-9.18c0-10.104-8.3-18.324-18.503-18.324-10.202 0-18.503 8.22-18.503 18.324v4.13l-3.307-2.514c-.336-.249-8.618-6.156-19.224 4.349l-1.41 1.395-1.451-1.352c-.033-.03-3.586-3.268-7.115-3.268-3.424 0-4.983 2.53-4.983 4.882 0 1.182.401 2.256 1.13 3.023.847.893 2.09 1.345 3.695 1.345h44.315v4.072z"/>
            <mask id="b" fill="#fff">
                <use xlink:href="#a"/>
            </mask>
            <path fill="#D9D6EB" d="M640.053 62.582h21.973V58.51h-21.973zM668.15 62.582h5.526V58.51h-5.526zM633.244 73.192h44.087V69.12h-44.087zM684.87 73.192h7.08V69.12h-7.08zM143.212 104.258l-1.98-3.567 82.695-45.06 49.151 35.244-2.412 3.298-47.04-33.731zM662.303 128.985l-43.117-26.808-30.078 18.664-2.185-3.45 32.266-20.02 45.302 28.165zM137.57 62.768h-22.638l.924-2.69a28.6 28.6 0 0 0 1.545-9.302c0-15.931-13.086-28.891-29.171-28.891-9.54 0-18.496 4.642-23.958 12.417l-.792 1.125-1.352-.303a16.43 16.43 0 0 0-3.595-.41c-8.941 0-16.218 7.205-16.218 16.062 0 3.156.924 6.211 2.671 8.833l-3.431 2.243a19.915 19.915 0 0 1-3.352-11.076c0-11.103 9.12-20.135 20.33-20.135 1.04 0 2.094.086 3.157.254 6.282-8.216 16.105-13.082 26.54-13.082 18.353 0 33.283 14.787 33.283 32.963 0 2.686-.325 5.34-.968 7.92h17.025v4.072z" mask="url(#b)"/>
            <path fill="#D9D6EB" d="M20.698 62.766h45.145v-4.072H20.698zM.596 62.766h13.622v-4.072H.596zM28.008 76.34H41.63v-4.072H28.008zM48.11 76.34h36.463v-4.072H48.11zM129.803 72.268h23.3v-4.072h-23.3z" mask="url(#b)"/>
            <path fill="#FFF" d="M296.525 201.286s.003-124.728.007-125.043c.51-39.766 33.22-71.848 73.496-71.848 40.381 0 73.157 32.25 73.5 72.16l.003 124.731H296.525z" mask="url(#b)"/>
            <path fill="#AEA1CE" d="M300.638 197.214h138.78c0-21.43 0-119.976-.002-120.648-.322-37.538-31.45-68.099-69.388-68.099-37.779 0-68.904 30.428-69.384 67.83-.003.937-.006 99.489-.006 120.917m142.893 8.144H296.527a4.125 4.125 0 0 1-2.907-1.193 4.042 4.042 0 0 1-1.205-2.879c0-29.266.001-124.778.005-125.094.538-41.834 35.352-75.87 77.608-75.87 42.433 0 77.25 34.184 77.612 76.2l.002 124.764c0 1.08-.433 2.116-1.203 2.88a4.135 4.135 0 0 1-2.908 1.192" mask="url(#b)"/>
            <path fill="#FFF" d="M563.503 128.188c-23.765 26.91-45.483 60.105-83.133 60.105s-33.87-21.371-67.436-21.371h-85.798c-34.44 0-62.62 27.907-62.62 62.015l174.966.144c71.733 0 114.946-23.111 132.99-56.383-24.414-3.9-8.97-44.51-8.97-44.51" mask="url(#b)"/>
            <path fill="#AEA1CE" d="M268.771 224.868c26.671.023 169.798.14 170.71.14 61.741 0 106.498-17.672 126.83-49.9-3.528-1.583-6.353-4.103-8.314-7.453-3.858-6.594-3.875-15.625-2.74-23.528-20.244 23.974-41.403 48.239-74.887 48.239-20.63 0-29.988-6.296-38.244-11.85-7.597-5.109-14.156-9.522-29.194-9.522h-85.795c-30.88 0-56.251 23.814-58.366 53.874m170.71 8.285l-174.967-.144c-2.271-.003-4.109-1.826-4.109-4.072 0-36.44 29.935-66.087 66.732-66.087h85.795c17.567 0 25.826 5.556 33.814 10.928 7.984 5.371 15.523 10.444 33.624 10.444 30.334 0 49.522-22.736 69.837-46.808 3.326-3.94 6.764-8.017 10.2-11.906a4.142 4.142 0 0 1 5.205-.814 4.058 4.058 0 0 1 1.74 4.927c-2.418 6.38-7.533 24.918-2.235 33.957 1.663 2.837 4.283 4.505 8.01 5.1a4.11 4.11 0 0 1 3.032 2.216 4.038 4.038 0 0 1-.065 3.731c-20.47 37.743-68.985 58.528-136.612 58.528" mask="url(#b)"/>
            <path fill="#FFF" d="M573.766 172.615a10.361 10.361 0 0 1-7.338-3.01 10.22 10.22 0 0 1 0-14.532l15.205-15.057a10.353 10.353 0 0 1 7.337-3.01c2.771 0 5.377 1.069 7.335 3.008a10.219 10.219 0 0 1 .002 14.533l-15.203 15.059a10.364 10.364 0 0 1-7.338 3.009" mask="url(#b)"/>
            <path fill="#AEA1CE" d="M588.97 132.934a14.47 14.47 0 0 0-10.246 4.201l-15.202 15.059c-2.737 2.71-4.245 6.311-4.245 10.146 0 3.832 1.508 7.436 4.245 10.145a14.463 14.463 0 0 0 10.244 4.202c3.869 0 7.508-1.493 10.245-4.204l15.203-15.057c2.736-2.709 4.242-6.311 4.242-10.144 0-3.83-1.506-7.435-4.242-10.145a14.465 14.465 0 0 0-10.245-4.203m0 8.145c1.604 0 3.206.605 4.429 1.816a6.16 6.16 0 0 1 0 8.774l-15.203 15.057a6.274 6.274 0 0 1-4.43 1.817 6.272 6.272 0 0 1-4.43-1.817 6.162 6.162 0 0 1 0-8.774l15.205-15.057a6.276 6.276 0 0 1 4.43-1.816" mask="url(#b)"/>
            <path fill="#FFF" d="M346.764 184.545h46.541v-46.092h-46.54z" mask="url(#b)"/>
            <path fill="#AEA1CE" d="M350.876 180.473h38.317v-37.948h-38.317v37.948zm42.429 8.144h-46.54c-2.27 0-4.112-1.824-4.112-4.072v-46.092c0-2.247 1.842-4.072 4.111-4.072h46.541c2.27 0 4.112 1.825 4.112 4.072v46.092c0 2.248-1.842 4.072-4.112 4.072z" mask="url(#b)"/>
            <path fill="#FFF" d="M417.934 80.235c0 10.47-.002 19.934-.004 20.14-.333 25.918-21.653 46.826-47.902 46.826-26.318 0-47.68-21.017-47.903-47.03-.002-.138-.003-9.809-.003-19.936 0-31.061 47.465-29.504 47.465-46.357 0 16.853 48.347 17.169 48.347 46.357" mask="url(#b)"/>
            <path fill="#AEA1CE" d="M369.563 43.34c-3.926 3.932-10.182 6.742-16.652 9.648-13.115 5.892-26.676 11.985-26.676 27.247v19.914c.203 23.695 19.849 42.981 43.793 42.981 23.842 0 43.487-19.203 43.79-42.808.003-.385.004-9.744.004-20.087 0-14-13.587-20.322-26.728-26.436-6.847-3.185-13.459-6.262-17.53-10.46m.464 107.936c-28.44 0-51.774-22.91-52.016-51.07v-19.97c0-20.51 18.207-28.69 31.501-34.662 8.207-3.688 15.962-7.171 15.962-11.695 0-2.25 1.84-4.072 4.112-4.072 2.27 0 4.111 1.822 4.111 4.072 0 4.69 8.206 8.509 16.893 12.55 14.012 6.52 31.454 14.636 31.454 33.807 0 4.658 0 19.882-.004 20.192-.36 28.036-23.693 50.848-52.013 50.848" mask="url(#b)"/>
            <path fill="#AEA1CE" d="M381.849 115.779c0 6.891-5.64 12.477-12.598 12.477-6.959 0-12.6-5.586-12.6-12.477h25.198z" mask="url(#b)"/>
            <path fill="#FFF" d="M375.16 87.387v13.864h-10.576" mask="url(#b)"/>
            <path fill="#AEA1CE" d="M375.16 105.323h-10.576c-2.27 0-4.112-1.824-4.112-4.072 0-2.25 1.842-4.072 4.112-4.072h6.465v-9.792c0-2.248 1.842-4.072 4.112-4.072s4.111 1.824 4.111 4.072v13.864c0 2.248-1.842 4.072-4.111 4.072M399.835 86.664c0 3.054-2.5 5.531-5.584 5.531-3.085 0-5.585-2.477-5.585-5.531s2.5-5.531 5.585-5.531c3.084 0 5.584 2.477 5.584 5.531M352.565 86.664c0 3.054-2.5 5.531-5.585 5.531-3.084 0-5.584-2.477-5.584-5.531s2.5-5.531 5.584-5.531c3.085 0 5.585 2.477 5.585 5.531" mask="url(#b)"/>
            <path fill="#FFF" d="M521.191 187.661l-52.797-30.189V97.095l52.797-30.189 52.798 30.189v60.377z" mask="url(#b)"/>
            <path fill="#AEA1CE" d="M472.505 155.12l48.686 27.84 48.685-27.84V99.446l-48.685-27.837-48.686 27.837v55.676zm48.686 37.242l-56.91-32.538v-65.08l56.91-32.54 56.909 32.54v65.08l-56.91 32.538z" mask="url(#b)"/>
            <path fill="#AEA1CE" d="M555.042 147.088l-24.17-31.026-15.496 21.833-9.951-14.022-18.67 23.28h37.338l-.045-.065zM511.691 108.57c0 3.475-2.845 6.293-6.355 6.293-3.509 0-6.354-2.818-6.354-6.294 0-3.476 2.845-6.294 6.354-6.294 3.51 0 6.355 2.818 6.355 6.294" mask="url(#b)"/>
            <path fill="#FFF" d="M548.611 208.484a10.36 10.36 0 0 1-7.338-3.01l-15.201-15.058a10.217 10.217 0 0 1-.002-14.531 10.358 10.358 0 0 1 7.337-3.01c2.773 0 5.378 1.069 7.338 3.01l15.204 15.057a10.219 10.219 0 0 1 0 14.531 10.357 10.357 0 0 1-7.338 3.01" mask="url(#b)"/>
            <path fill="#AEA1CE" d="M533.408 168.803c-3.87 0-7.508 1.493-10.244 4.202-2.737 2.71-4.243 6.313-4.243 10.145 0 3.834 1.506 7.437 4.243 10.146l15.202 15.058a14.47 14.47 0 0 0 10.245 4.201c3.87 0 7.508-1.491 10.244-4.2 2.737-2.713 4.245-6.316 4.245-10.147 0-3.833-1.508-7.435-4.245-10.147l-15.202-15.056a14.471 14.471 0 0 0-10.245-4.202m0 8.144c1.603 0 3.207.605 4.43 1.816l15.203 15.058a6.162 6.162 0 0 1 0 8.774 6.276 6.276 0 0 1-4.43 1.816 6.281 6.281 0 0 1-4.43-1.816l-15.202-15.057a6.161 6.161 0 0 1 0-8.775 6.273 6.273 0 0 1 4.429-1.816" mask="url(#b)"/>
            <path fill="#FFF" d="M564.505 193.076c-2.771 0-5.378-1.07-7.338-3.012l-15.202-15.056a10.22 10.22 0 0 1 0-14.533 10.36 10.36 0 0 1 7.336-3.008c2.772 0 5.378 1.068 7.338 3.008l15.203 15.057a10.217 10.217 0 0 1 .001 14.532 10.36 10.36 0 0 1-7.338 3.012" mask="url(#b)"/>
            <path fill="#AEA1CE" d="M549.302 153.395c-3.87 0-7.51 1.493-10.247 4.202-2.736 2.71-4.242 6.312-4.242 10.145 0 3.833 1.506 7.435 4.242 10.146l15.205 15.057c2.736 2.71 6.375 4.202 10.245 4.202 3.87 0 7.507-1.491 10.244-4.203a14.184 14.184 0 0 0 4.243-10.145c0-3.832-1.507-7.434-4.243-10.145l-15.202-15.057a14.471 14.471 0 0 0-10.245-4.202m0 8.144a6.27 6.27 0 0 1 4.428 1.816l15.204 15.058a6.16 6.16 0 0 1 0 8.773 6.275 6.275 0 0 1-4.429 1.817 6.283 6.283 0 0 1-4.43-1.817l-15.203-15.056a6.161 6.161 0 0 1 0-8.775 6.27 6.27 0 0 1 4.43-1.816" mask="url(#b)"/>
            <path fill="#FFF" d="M579.824 179.43a10.36 10.36 0 0 1-7.338-3.01l-15.201-15.057a10.217 10.217 0 0 1-.002-14.532 10.358 10.358 0 0 1 7.337-3.009c2.773 0 5.378 1.068 7.338 3.01l15.204 15.057a10.219 10.219 0 0 1 0 14.531 10.357 10.357 0 0 1-7.338 3.01" mask="url(#b)"/>
            <path fill="#AEA1CE" d="M564.62 139.75c-3.869 0-7.51 1.493-10.245 4.203a14.18 14.18 0 0 0-4.242 10.144c0 3.834 1.507 7.437 4.242 10.146l15.204 15.058a14.47 14.47 0 0 0 10.245 4.201c3.87 0 7.508-1.491 10.244-4.202a14.18 14.18 0 0 0 4.244-10.145c0-3.833-1.507-7.435-4.244-10.146l-15.203-15.057a14.466 14.466 0 0 0-10.245-4.202m0 8.144c1.604 0 3.207.605 4.43 1.817l15.204 15.057a6.162 6.162 0 0 1 0 8.774 6.276 6.276 0 0 1-4.43 1.816 6.279 6.279 0 0 1-4.43-1.816l-15.202-15.057a6.16 6.16 0 0 1 0-8.774 6.269 6.269 0 0 1 4.428-1.817" mask="url(#b)"/>
            <path fill="#F4F3F8" d="M502.19 262.254c0 9.212-55.473 16.68-123.9 16.68-68.431 0-123.905-7.468-123.905-16.68 0-9.21 55.474-16.678 123.904-16.678 68.428 0 123.902 7.467 123.902 16.678M235.883 198.294c0 2.75-10.071 4.978-22.493 4.978-12.423 0-22.493-2.229-22.493-4.978 0-2.747 10.07-4.976 22.493-4.976 12.422 0 22.493 2.23 22.493 4.976M662.297 239.015c0 3.104-11.372 5.62-25.399 5.62-14.027 0-25.399-2.516-25.399-5.62 0-3.103 11.372-5.62 25.4-5.62 14.026 0 25.398 2.517 25.398 5.62M698.909 199.652c0 1.911-7.001 3.461-15.639 3.461-8.638 0-15.64-1.55-15.64-3.461 0-1.911 7.002-3.46 15.64-3.46 8.638 0 15.639 1.549 15.639 3.46M157.512 184.042c0 2.217-8.12 4.013-18.133 4.013-10.015 0-18.134-1.796-18.134-4.013 0-2.215 8.12-4.012 18.134-4.012 10.014 0 18.133 1.797 18.133 4.012M118.532 298.399c0 3.868-12.757 7.004-28.494 7.004-15.736 0-28.494-3.136-28.494-7.004 0-3.869 12.758-7.003 28.494-7.003 15.737 0 28.494 3.134 28.494 7.003M52.621 244.776c0 2.83-9.33 5.122-20.84 5.122s-20.84-2.292-20.84-5.122c0-2.829 9.33-5.122 20.84-5.122s20.84 2.293 20.84 5.122" mask="url(#b)"/>
            <path fill="#D9D6EB" d="M2.816 138.245L0 135.278l41.2-38.34 19.57 19.383 58.763-39.193 46.38 45.931-2.908 2.88-43.983-43.56-58.764 39.194-19.148-18.964zM734.437 121.753l-52.171-14.763-35.85 11.266-1.245-3.882 37.033-11.636 53.362 15.099z" mask="url(#b)"/>
            <path fill="#FFF" d="M190.548 172.053l22.842-72.279 22.387 72.279z" mask="url(#b)"/>
            <path fill="#D9D6EB" d="M193.345 170.017h39.65l-19.626-63.364-20.024 63.364zm45.213 4.072H187.75l25.66-81.194 25.148 81.194z" mask="url(#b)"/>
            <path fill="#D9D6EB" d="M211.333 198.295h4.112v-98.52h-4.112z" mask="url(#b)"/>
            <path fill="#D9D6EB" d="M212.306 164.733l-16.732-10.281 2.168-3.46 16.732 10.282zM214.339 150.105l-1.899-3.61 12.96-6.682 1.899 3.61z" mask="url(#b)"/>
            <path fill="#FFF" d="M152.82 166.425l-14-44.294-13.72 44.294z" mask="url(#b)"/>
            <path fill="#D9D6EB" d="M127.883 164.389h22.139l-11.182-35.38-10.957 35.38zm27.733 4.072H122.32l16.482-53.21 16.815 53.21z" mask="url(#b)"/>
            <path fill="#D9D6EB" d="M136.764 182.507h4.112v-60.376h-4.112z" mask="url(#b)"/>
            <path fill="#D9D6EB" d="M139.905 162.61l-2.169-3.46 10.255-6.3 2.168 3.458zM137.872 153.674l-7.943-4.093 1.898-3.614 7.943 4.094z" mask="url(#b)"/>
            <path fill="#FFF" d="M116.144 267.775L89.53 183.558l-26.085 84.217z" mask="url(#b)"/>
            <path fill="#D9D6EB" d="M66.225 265.739h47.122L89.55 190.437 66.225 265.74zm52.717 4.072h-58.28l28.847-93.132 29.433 93.132z" mask="url(#b)"/>
            <path fill="#D9D6EB" d="M87.473 298.353h4.112V183.559h-4.112z" mask="url(#b)"/>
            <path fill="#D9D6EB" d="M90.613 258.962l-2.168-3.46 19.497-11.982 2.168 3.46zM88.58 241.905l-15.102-7.785 1.898-3.612 15.103 7.786z" mask="url(#b)"/>
            <path fill="#FFF" d="M52.015 221.376l-20.53-64.964-20.123 64.964z" mask="url(#b)"/>
            <path fill="#D9D6EB" d="M14.143 219.34h35.075l-17.713-56.049-17.362 56.049zm40.67 4.072H8.58l22.885-73.88 23.348 73.88z" mask="url(#b)"/>
            <path fill="#D9D6EB" d="M29.429 244.963h4.112v-88.55h-4.112z" mask="url(#b)"/>
            <path fill="#D9D6EB" d="M32.569 214.972l-2.169-3.46 15.04-9.24 2.168 3.458zM30.536 201.834l-11.65-6.005 1.898-3.613 11.65 6.005z" mask="url(#b)"/>
            <path fill="#FFF" d="M613.6 212.773l22.842-72.278 22.387 72.278z" mask="url(#b)"/>
            <path fill="#D9D6EB" d="M616.397 210.737h39.65l-19.626-63.363-20.024 63.363zm45.213 4.072h-50.808l25.66-81.193 25.148 81.193z" mask="url(#b)"/>
            <path fill="#D9D6EB" d="M634.385 239.015h4.112v-98.52h-4.112z" mask="url(#b)"/>
            <path fill="#D9D6EB" d="M637.39 190.825l-1.898-3.61 12.96-6.681 1.899 3.61z" mask="url(#b)"/>
            <path fill="#FFF" d="M698.575 181.627l-15.689-49.646-15.377 49.646z" mask="url(#b)"/>
            <path fill="#D9D6EB" d="M670.29 179.591h25.488l-12.872-40.731-12.616 40.731zm31.083 4.072h-36.646l18.14-58.561 18.506 58.561z" mask="url(#b)"/>
            <path fill="#D9D6EB" d="M680.83 199.652h4.112v-67.67h-4.112z" mask="url(#b)"/>
            <path fill="#D9D6EB" d="M683.97 177.142l-2.168-3.46 11.494-7.062 2.168 3.46zM681.937 167.118l-8.902-4.588 1.899-3.613 8.901 4.588z" mask="url(#b)"/>
        </g>
        <path d="M0-1h736v309.008H0z"/>
    </g>
</svg>
